<svg xmlns="http://www.w3.org/2000/svg" xmlns:xlink="http://www.w3.org/1999/xlink" width="439" height="408" viewBox="0 0 439 408">
  <defs>
    <clipPath id="clip-path">
      <rect id="Rectangle_2105" data-name="Rectangle 2105" width="439" height="408" transform="translate(-565 255)" fill="#fff"/>
    </clipPath>
    <linearGradient id="linear-gradient" x1="0.343" y1="0.941" x2="0.493" y2="0.257" gradientUnits="objectBoundingBox">
      <stop offset="0" stop-color="#fff" stop-opacity="0.2"/>
      <stop offset="1" stop-color="#ebeaea" stop-opacity="0"/>
    </linearGradient>
    <linearGradient id="linear-gradient-2" x1="0.343" y1="0.94" x2="0.55" y2="0.254" xlink:href="#linear-gradient"/>
    <linearGradient id="linear-gradient-3" x1="0.881" y1="0.626" x2="0.234" y2="0.527" gradientUnits="objectBoundingBox">
      <stop offset="0" stop-color="#9cddff" stop-opacity="0.502"/>
      <stop offset="1" stop-color="#9bccfc" stop-opacity="0"/>
    </linearGradient>
    <linearGradient id="linear-gradient-4" x1="0.724" y1="-0.131" x2="0.516" y2="0.886" gradientUnits="objectBoundingBox">
      <stop offset="0" stop-color="#9ce1ff" stop-opacity="0.502"/>
      <stop offset="1" stop-color="#9bdefc" stop-opacity="0"/>
    </linearGradient>
  </defs>
  <g id="Mask_Group_1" data-name="Mask Group 1" transform="translate(565 -255)" clip-path="url(#clip-path)">
    <g id="Group_2832" data-name="Group 2832" transform="translate(-921 91)">
      <circle id="Ellipse_1259" data-name="Ellipse 1259" cx="219.5" cy="219.5" r="219.5" transform="translate(356 184)" fill="#fff"/>
      <g id="Group_2818" data-name="Group 2818" transform="translate(0 -74.392)">
        <line id="Line_13" data-name="Line 13" x2="224.009" transform="translate(379.117 646.089)" fill="none" stroke="#002a69" stroke-width="1"/>
        <line id="Line_14" data-name="Line 14" x2="124.636" transform="translate(625.864 646.089)" fill="none" stroke="#002a69" stroke-width="1"/>
        <g id="Group_2815" data-name="Group 2815" transform="translate(362.247 256.6)">
          <path id="Path_3576" data-name="Path 3576" d="M115.341,421.135h11.006L95.04,245.755H84.034Z" transform="translate(240.584 -52.263)" fill="#2c6a7a"/>
          <path id="Path_3577" data-name="Path 3577" d="M343.35,421.135H332.344l31.307-175.38h11.006Z" transform="translate(-280.091 -52.263)" fill="#2c6a7a"/>
          <g id="Group_2806" data-name="Group 2806" transform="translate(282.956 114.889)">
            <path id="Path_3578" data-name="Path 3578" d="M139.212,240.593h12.259l11.4-63.368-2.087-3.131-10.172,3.131-13.482,60.237Z" transform="translate(-137.125 -174.094)" fill="#160033"/>
            <path id="Path_3579" data-name="Path 3579" d="M139.028,237.462h12.259l11.395-63.368H150.423Z" transform="translate(-139.028 -174.094)" fill="#160033"/>
          </g>
          <path id="Path_3580" data-name="Path 3580" d="M165.694,137.224l-66.6-31.381-1.923,4.649,66.406,30.978" transform="translate(186.834 -65.817)" fill="none" stroke="#160033" stroke-miterlimit="10" stroke-width="0.951"/>
          <path id="Path_3581" data-name="Path 3581" d="M95.733,242.556l9.186-2.324L95.733,135.38l-8.9,1.1Z" transform="translate(258.938 -62.956)" fill="#1f2430"/>
          <path id="Path_3582" data-name="Path 3582" d="M99.253,218.711H195l11.4-63.368-2.087-3.131-93.658,3.131L97.166,215.58Z" transform="translate(146.134 -61.325)" fill="#002a69"/>
          <path id="Path_3583" data-name="Path 3583" d="M99.069,215.58h95.746l11.395-63.368H110.463Z" transform="translate(144.231 -61.325)" fill="#1f2430"/>
          <path id="Path_3584" data-name="Path 3584" d="M103.066,212.757h87.908l10.462-58.181H113.529Z" transform="translate(144.619 -61.096)" fill="#e3efff"/>
          <rect id="Rectangle_1282" data-name="Rectangle 1282" width="50.978" height="5.068" transform="translate(264.597 178.257)" fill="#1f2430"/>
          <rect id="Rectangle_1284" data-name="Rectangle 1284" width="22.028" height="12.071" transform="translate(347.748 177.099)" fill="#1f2430"/>
          <path id="Path_3589" data-name="Path 3589" d="M289.137,235.579s-4.5-11.35-18.6-9.526-14.407,12.284-14.407,12.284h30.581Z" transform="translate(-110.971 -54.191)" fill="#1f2430"/>
          <rect id="Rectangle_1285" data-name="Rectangle 1285" width="363.857" height="11.391" transform="translate(0 182.101)" fill="#4eb4ce"/>
          <g id="Group_2808" data-name="Group 2808" transform="translate(184.718 177.099)">
            <rect id="Rectangle_1286" data-name="Rectangle 1286" width="72.011" height="3.845" transform="translate(0 1.158)" fill="#1f2430"/>
            <rect id="Rectangle_1287" data-name="Rectangle 1287" width="3.081" height="3.081" transform="translate(63.568)" fill="#1f2430"/>
            <rect id="Rectangle_1288" data-name="Rectangle 1288" width="3.081" height="3.081" transform="translate(58.582)" fill="#1f2430"/>
            <rect id="Rectangle_1289" data-name="Rectangle 1289" width="3.081" height="3.081" transform="translate(53.595)" fill="#1f2430"/>
            <rect id="Rectangle_1290" data-name="Rectangle 1290" width="3.081" height="3.081" transform="translate(48.609)" fill="#1f2430"/>
            <rect id="Rectangle_1291" data-name="Rectangle 1291" width="3.081" height="3.081" transform="translate(43.623)" fill="#1f2430"/>
            <rect id="Rectangle_1292" data-name="Rectangle 1292" width="3.081" height="3.081" transform="translate(38.637)" fill="#1f2430"/>
            <rect id="Rectangle_1293" data-name="Rectangle 1293" width="3.081" height="3.081" transform="translate(33.651)" fill="#1f2430"/>
            <rect id="Rectangle_1294" data-name="Rectangle 1294" width="3.081" height="3.081" transform="translate(28.665)" fill="#1f2430"/>
            <rect id="Rectangle_1295" data-name="Rectangle 1295" width="3.081" height="3.081" transform="translate(23.678)" fill="#1f2430"/>
            <rect id="Rectangle_1296" data-name="Rectangle 1296" width="3.081" height="3.081" transform="translate(18.692)" fill="#1f2430"/>
            <rect id="Rectangle_1297" data-name="Rectangle 1297" width="3.081" height="3.081" transform="translate(13.706)" fill="#1f2430"/>
            <rect id="Rectangle_1298" data-name="Rectangle 1298" width="3.081" height="3.081" transform="translate(8.72)" fill="#1f2430"/>
            <rect id="Rectangle_1299" data-name="Rectangle 1299" width="3.081" height="3.081" transform="translate(3.734)" fill="#1f2430"/>
          </g>
          <g id="Group_2809" data-name="Group 2809" transform="translate(200.76 54.478)">
            <path id="Path_3591" data-name="Path 3591" d="M213.508,209.57S202.941,191.5,215.413,179.2s22.316-28.312,14.959-42.926-14.959-14.845-14.959-14.845l-11.878,13.453s19.19,9.047,8.433,28.763S204,206.553,213.508,209.57Z" transform="translate(-197.804 -118.786)" fill="url(#linear-gradient)"/>
            <path id="Path_3592" data-name="Path 3592" d="M223.467,215.138s-7.394-3.48-7.974-14.846,20.638-16.468,11.421-31.546-16.525-23.892-10.319-40.129,20.291-6.959,20.291-6.959-7.948,14.381-4.986,28.762,9.23,30.469,3.081,36.69S215.32,202.379,223.467,215.138Z" transform="translate(-214.29 -119.019)" fill="url(#linear-gradient-2)"/>
          </g>
          <path id="Path_3593" data-name="Path 3593" d="M97.166,135.623a2.122,2.122,0,1,0,2.122-2.122A2.122,2.122,0,0,0,97.166,135.623Z" transform="translate(251.116 -63.138)" fill="#87c0d7" stroke="#87c0d7" stroke-linecap="round" stroke-linejoin="round" stroke-width="0.951"/>
          <path id="Path_3594" data-name="Path 3594" d="M161.739,107.07l-2.459-1.228-.929,2.6h2.819" transform="translate(123.675 -65.817)" fill="#160033"/>
          <path id="Path_3638" data-name="Path 3638" d="M345.533,162.832,129.841,69.352l-26.774,187.8,232-36.136Z" transform="translate(0.523 -69.352)" fill="url(#linear-gradient-3)"/>
          <path id="Path_3595" data-name="Path 3595" d="M193.324,116.473l3.69-14.968-34.79-8.149L159.9,102Z" transform="translate(86.707 -67.027)" fill="#160033"/>
          <path id="Path_3596" data-name="Path 3596" d="M290.642,115.709,331.117,244.52,128.4,233.914,259.456,101.24Z" transform="translate(-12.853 -66.263)" fill="url(#linear-gradient-4)"/>
          <path id="Path_3597" data-name="Path 3597" d="M315.893,282.079l3.811,27.607s14.234,4.745,14.234,3.451-5.136-31.058-5.136-31.058Z" transform="translate(-221.326 -48.745)" fill="#1f2430"/>
          <path id="Path_3598" data-name="Path 3598" d="M395.667,300.967s-59.4,5.077-68.535.508-45.182-129.022-43.66-145.484,80.281-20.523,92.177-10.877,30.171,114.732,32.2,130.47S405.261,300.234,395.667,300.967Z" transform="translate(-260.098 -62.512)" fill="#002a69"/>
          <path id="Path_3599" data-name="Path 3599" d="M166.042,271l78.681,22.738,63.857,103.743-5.7,7.538-51.692-70,49.538,77.9-8.615,9.692-70.37-102.373-85.384-5.677-8.228-7.342S143.36,267.649,166.042,271Z" transform="translate(9.989 -49.837)" fill="#1f2430"/>
          <path id="Path_3600" data-name="Path 3600" d="M275.2,212.837l24.168,41.689-9.017,11.83Z" transform="translate(-142.132 -55.452)" fill="#f77e53"/>
          <path id="Path_3601" data-name="Path 3601" d="M265.34,247.358c1.352-1.448,13.267-5.489,21.732-1.448s2.077,21.294,2.077,21.294H277.757Z" transform="translate(-123.398 -52.418)" fill="#f77e53"/>
          <path id="Path_3602" data-name="Path 3602" d="M258.342,211s33,69.823,43.352,78.881,26.853,24.265,30.735,25.559c0,0,11-33,35.587-37.53.324-4.205-6.147-4.529-6.147-4.529s2.265-4.853-3.882-4.853c-8.412-8.736-21.845-22.613-21.845-22.613l-14.39-45.327S280.988,194.558,258.342,211Z" transform="translate(-192.291 -56.744)" fill="#fff4f2"/>
          <path id="Path_3603" data-name="Path 3603" d="M332.458,199.646c-.354,3.694-1.061,11.277-2.024,22.7-22.392-7.529-19.713-21.94-19.713-21.94l0,0A133.4,133.4,0,0,1,332.458,199.646Z" transform="translate(-214.064 -56.744)" fill="#f77e53"/>
          <g id="Group_2812" data-name="Group 2812" transform="translate(100.358 82.027)">
            <path id="Path_3604" data-name="Path 3604" d="M261.04,204.386c10.369-19.522,41.09-39.905,53.384-47.023,14.882,7.118,19.088,27.176,19.088,27.176s-9.059,22.324-19.411,27.176-20.059,6.475-31.705-20.865c-5.884,3.814-10.851,13-10.851,13l2.912,16.28S257.314,211.4,261.04,204.386Z" transform="translate(-260.51 -142.854)" fill="#ffb883"/>
            <path id="Path_3605" data-name="Path 3605" d="M257.458,172.077h6.294l13.049-8.812s9.057,21.357,12.051,26.906,8.642,18.47,9.58-1.209c3.087,15.784,7.386,16.723,6.526-2.231,5.371,14.361,10.618,19.09.794-10.356s-16.041-32.24-16.041-32.24l-36.5,25.83L242.1,179.518Z" transform="translate(-218.071 -144.135)" fill="#1f2430"/>
            <path id="Path_3606" data-name="Path 3606" d="M286.57,193.319s-8.382,4.729-11.606,7.737-.43,7.274,2.365,9.547,3.263-4.334,2.717-8.642C284.207,196.543,286.57,193.319,286.57,193.319Z" transform="translate(-227.84 -139.37)" fill="#fc967e"/>
            <path id="Path_3607" data-name="Path 3607" d="M300.384,198.722s6.877-10.1,0-14.616-13.756-1.29-10.316,3.009S300.384,198.722,300.384,198.722Z" transform="translate(-261.858 -140.474)" fill="#1f2430"/>
            <path id="Path_3608" data-name="Path 3608" d="M296.522,187.154l-2.141,1.226-4.785-6.206a13.54,13.54,0,0,1,4.355,1.907A6.478,6.478,0,0,1,296.522,187.154Z" transform="translate(-255.424 -140.45)" fill="#fff"/>
            <path id="Path_3609" data-name="Path 3609" d="M298.109,182.969c2.02,1.593,5.076,4.786,4.471,9.215-1.6-1.8-3.224-3.667-4.426-5.171C296.857,185.394,297.027,183.928,298.109,182.969Z" transform="translate(-269.943 -140.373)" fill="#f25c79"/>
            <g id="Group_2810" data-name="Group 2810" transform="translate(49.489 42.596)">
              <path id="Path_3610" data-name="Path 3610" d="M282.345,190.222a8.21,8.21,0,0,1-4.513-7.253" transform="translate(-277.832 -182.969)" fill="none" stroke="#160033" stroke-miterlimit="10" stroke-width="1.903"/>
              <path id="Path_3611" data-name="Path 3611" d="M269.34,196.323s2.131,4.31,3.511,2.284" transform="translate(-259.024 -181.675)" fill="none" stroke="#160033" stroke-miterlimit="10" stroke-width="1.903"/>
            </g>
            <path id="Path_3612" data-name="Path 3612" d="M300.542,173.532s2.911-10.1-4.67-8.812-6.524,14.616-2.432,13.971" transform="translate(-260.726 -142.152)" fill="#ffb883"/>
            <path id="Path_3613" data-name="Path 3613" d="M300.542,173.532s2.911-10.1-4.67-8.812-6.524,14.616-2.432,13.971" transform="translate(-260.726 -142.152)" fill="none" stroke="#db8346" stroke-miterlimit="10" stroke-width="0.951"/>
            <g id="Group_2811" data-name="Group 2811" transform="translate(52.206 35.624)">
              <path id="Path_3614" data-name="Path 3614" d="M280.3,183.585s-5.132-7.415-9.354-6.951" transform="translate(-270.941 -176.613)" fill="none" stroke="#160033" stroke-miterlimit="10" stroke-width="0.951"/>
              <path id="Path_3615" data-name="Path 3615" d="M265.229,187.832s2.832,3.224,2.384,6.019" transform="translate(-252.041 -175.526)" fill="none" stroke="#160033" stroke-miterlimit="10" stroke-width="0.951"/>
            </g>
            <path id="Path_3616" data-name="Path 3616" d="M292.92,168.443s6.78-3.831,4.119,5.652c-3.25-3.439-2.393,2.057-2.393,2.057" transform="translate(-260.205 -141.854)" fill="none" stroke="#db8346" stroke-miterlimit="10" stroke-width="0.951"/>
          </g>
          <rect id="Rectangle_1300" data-name="Rectangle 1300" width="6.963" height="28.038" transform="translate(129.896 284.235)" fill="#1f2430"/>
          <path id="Path_3617" data-name="Path 3617" d="M246.871,301.69s92.6-1.856,108.861,0,8.943,17.763,7.018,25.546-45.584,6.769-59.628,6.092S227.98,340.467,246.871,301.69Z" transform="translate(-173.802 -46.925)" fill="#002a69"/>
          <path id="Path_3618" data-name="Path 3618" d="M94.958,396.1s-4.382-6.293,0-11.278,3.563,10.2,3.563,10.2,19.935,6.809,38.267,9.428,4.819,8.808,4.819,8.808l-43.085,3.5-16.035,2.357S81.37,376.252,94.958,396.1Z" transform="translate(222.251 -38.889)" fill="#d38616"/>
          <path id="Path_3619" data-name="Path 3619" d="M97.41,407.265s-4.626-3.8-.251-9.65,11,0,11,0a39.628,39.628,0,0,0-3.42,9.061s30.944,12,45.665,12.784,6.129,8.193,6.129,8.193-41.9,3.511-60.931.391l-11.033-1.561,2.891-19.806S84.7,397.8,97.41,407.265Z" transform="translate(207.327 -37.804)" fill="#ef9e1d"/>
          <path id="Path_3620" data-name="Path 3620" d="M334.376,209.983l4.47,66.709h21.817L354.1,218.753Z" transform="translate(-268.325 -55.729)" fill="#f77e53"/>
          <path id="Path_3621" data-name="Path 3621" d="M360.2,419.219v-5.76a13.129,13.129,0,0,0-13.129-13.129H259.647a13.129,13.129,0,0,0-13.128,13.129v5.76" transform="translate(-171.499 -37.289)" fill="none" stroke="#1f2430" stroke-miterlimit="10" stroke-width="2.854"/>
          <ellipse id="Ellipse_1256" data-name="Ellipse 1256" cx="8.889" cy="8.889" rx="8.889" ry="8.889" transform="matrix(-0.609, -0.793, 0.793, -0.609, 73.382, 392.629)" fill="#002a69"/>
          <path id="Path_3622" data-name="Path 3622" d="M353.913,281.782,352.25,385.618s4.049,10.305,3.689,20.758-3.689,0-3.689,0-1.939,20.181-9.642,22.207-7.2-12.063-1.978-24.88c-.86-14.437,7.281-19.3,7.281-19.3l-7.281-108.063Z" transform="translate(-266.237 -49.301)" fill="#ffb883"/>
          <path id="Path_3623" data-name="Path 3623" d="M332.344,271.194l26.816-4.451-2.229,16.823-24.587-2.588Z" transform="translate(-264.594 -50.23)" fill="#f77e53"/>
          <path id="Path_3624" data-name="Path 3624" d="M324.515,260.239s-.623-10.782-10.364-13.173-32.428,30.262-32.428,30.262a25.966,25.966,0,0,0-11.693,18.646c.643,4.865,4.158,2.612,4.158,2.612s-1.136,19.05,8.3,20.546c6.937,1.1,9.439-20.456,7.242-27.353s-.678-10.98-.678-10.98S314.968,260.332,324.515,260.239Z" transform="translate(-161.598 -52.149)" fill="#ffb883"/>
          <rect id="Rectangle_1301" data-name="Rectangle 1301" width="19.829" height="58.756" transform="translate(124.387 304.898)" fill="#002a69"/>
          <ellipse id="Ellipse_1257" data-name="Ellipse 1257" cx="8.889" cy="8.889" rx="8.889" ry="8.889" transform="matrix(-0.973, -0.231, 0.231, -0.973, 195.052, 390.864)" fill="#002a69"/>
          <ellipse id="Ellipse_1258" data-name="Ellipse 1258" cx="8.89" cy="8.89" rx="8.89" ry="8.89" transform="translate(140.724 390.366) rotate(-170.759)" fill="#002a69"/>
          <line id="Line_10" data-name="Line 10" y2="17.588" transform="translate(133.377 362.577)" fill="none" stroke="#1f2430" stroke-miterlimit="10" stroke-width="2.854"/>
          <g id="Group_2813" data-name="Group 2813" transform="translate(112.59 235.429)">
            <path id="Path_3625" data-name="Path 3625" d="M316.017,283.989A93.2,93.2,0,0,0,314.832,295" transform="translate(-314.832 -283.989)" fill="none" stroke="#db8346" stroke-miterlimit="10" stroke-width="0.951"/>
            <path id="Path_3626" data-name="Path 3626" d="M312.161,296.339s.315,10.013,1.154,15.64" transform="translate(-309.201 -282.793)" fill="none" stroke="#db8346" stroke-miterlimit="10" stroke-width="0.951"/>
            <path id="Path_3627" data-name="Path 3627" d="M308.342,296.339s.712,12.747,1.575,18.005" transform="translate(-301.614 -282.793)" fill="none" stroke="#db8346" stroke-miterlimit="10" stroke-width="0.951"/>
            <line id="Line_11" data-name="Line 11" x2="0.565" y2="14.773" transform="translate(11.796 14.413)" fill="none" stroke="#db8346" stroke-miterlimit="10" stroke-width="0.951"/>
          </g>
          <g id="Group_2814" data-name="Group 2814" transform="translate(70.874 358.718)">
            <path id="Path_3628" data-name="Path 3628" d="M347.931,396.389s-3.384,17.539-4.8,19.857" transform="translate(-336.074 -396.389)" fill="none" stroke="#db8346" stroke-miterlimit="10" stroke-width="0.951"/>
            <path id="Path_3629" data-name="Path 3629" d="M352.225,396.389s-4.725,17.346-6.713,20.426" transform="translate(-342.976 -396.389)" fill="none" stroke="#db8346" stroke-miterlimit="10" stroke-width="0.951"/>
            <line id="Line_12" data-name="Line 12" x1="4.983" y2="16.484" transform="translate(0)" fill="none" stroke="#db8346" stroke-miterlimit="10" stroke-width="0.951"/>
          </g>
          <path id="Path_3630" data-name="Path 3630" d="M131.636,412.713a10.772,10.772,0,0,1,2.445-8.606c1.287-1.493,3.359-2.661,5.187-1.926a18.053,18.053,0,0,1-5.43,5.708,3.361,3.361,0,0,1-1.16.558,4.266,4.266,0,0,1-1.888-.233,14.3,14.3,0,0,0-5.574-.3c-2,.286-4.349,1.629-4.047,3.627a15.885,15.885,0,0,0,12.323-4.812,47.278,47.278,0,0,0-.3,8.878l-.043-6.68a.875.875,0,0,1,1.087-1.058q4-.025,8-.049a23.837,23.837,0,0,1-8.726,2.727" transform="translate(183.993 -37.132)" fill="none" stroke="#160033" stroke-linecap="round" stroke-linejoin="round" stroke-width="1"/>
          <path id="Path_3631" data-name="Path 3631" d="M121.15,397.135a10.747,10.747,0,0,1,1.818-8.1,3.2,3.2,0,0,1,1.607-1.331,1.372,1.372,0,0,1,1.714.825,1.966,1.966,0,0,1-.141,1.067,23.314,23.314,0,0,1-2.115,4.563,10.165,10.165,0,0,0-12.158,5.415c4.3.035,7.936-2.975,11.154-5.82a10.38,10.38,0,0,0,8.306,3.016,41.689,41.689,0,0,0-9.994-2.183,13.256,13.256,0,0,0,1.494,5.956l.329-.983" transform="translate(205.059 -38.517)" fill="none" stroke="#160033" stroke-linecap="round" stroke-linejoin="round" stroke-width="1"/>
          <path id="Path_3632" data-name="Path 3632" d="M268.265,333.929l-21.319-33.277-66.494-18.572" transform="translate(-7.093 -48.745)" fill="none" stroke="#000" stroke-miterlimit="10" stroke-width="1"/>
          <g id="Group_2817" data-name="Group 2817" transform="translate(276.151 114.521)">
            <path id="Path_3639" data-name="Path 3639" d="M130.446,186.28l7.176-12.822,3.338.076-1.616,12.949,1.447.033-.342,2.739L139,189.222l-.434,3.477-3-.069.434-3.477-5.9-.135Zm5.895.135.9-7.2-3.986,7.129Z" transform="translate(-130.104 -173.458)" fill="#27004f"/>
            <path id="Path_3640" data-name="Path 3640" d="M144.43,178.279c.383-3.067,2.242-4.781,5.246-4.713s4.426,1.858,4.044,4.925l-1.243,9.966c-.383,3.066-2.242,4.78-5.246,4.711s-4.426-1.858-4.044-4.924Zm1.793,10.228c-.171,1.367.375,1.9,1.349,1.924s1.649-.485,1.82-1.852l1.292-10.35c.171-1.368-.375-1.9-1.349-1.926s-1.649.485-1.82,1.853Z" transform="translate(-126.554 -173.429)" fill="#27004f"/>
            <path id="Path_3641" data-name="Path 3641" d="M155.624,186.856l7.178-12.822,3.337.076-1.615,12.949,1.446.033-.342,2.739-1.446-.033-.434,3.477-3-.069.434-3.477-5.9-.135Zm5.895.135.9-7.2-3.986,7.129Z" transform="translate(-123.239 -173.301)" fill="#27004f"/>
          </g>
        </g>
        <path id="Path_3634" data-name="Path 3634" d="M144.68,14.343h-6.557l6.491-6.5a.207.207,0,0,0,.066-.31.6.6,0,0,0-.4-.177h-6.822c-.2,0-.331.088-.331.221V7.8c0,.133.132.221.331.221h5.961l-6.491,6.5a.207.207,0,0,0-.066.31.6.6,0,0,0,.4.177h7.418c.2,0,.331-.088.331-.221v-.221C145.011,14.431,144.879,14.343,144.68,14.343Z" transform="translate(371.373 303.344)"/>
        <path id="Path_3635" data-name="Path 3635" d="M145.977,15.5h-7.639L145.9,7.922a.242.242,0,0,0,.077-.361.7.7,0,0,0-.463-.206h-7.948c-.231,0-.386.1-.386.258V7.87c0,.155.154.258.386.258h6.944L136.949,15.7a.241.241,0,0,0-.077.361.7.7,0,0,0,.463.206h8.642c.231,0,.386-.1.386-.258v-.258C146.362,15.6,146.208,15.5,145.977,15.5Z" transform="translate(385.856 282.502)"/>
        <path id="Path_3636" data-name="Path 3636" d="M150.872,19.848H139.149l11.6-11.623a.371.371,0,0,0,.118-.553,1.081,1.081,0,0,0-.711-.316h-12.2c-.355,0-.592.158-.592.4v.4c0,.237.237.4.592.4h10.658l-11.6,11.623a.37.37,0,0,0-.118.553,1.081,1.081,0,0,0,.71.316h13.263c.355,0,.592-.158.592-.4v-.4C151.464,20.006,151.227,19.848,150.872,19.848Z" transform="translate(358.883 259.066)"/>
        <path id="Path_3637" data-name="Path 3637" d="M154.5,23.071H139.749l14.6-14.621a.466.466,0,0,0,.149-.7,1.36,1.36,0,0,0-.894-.4H138.26c-.447,0-.745.2-.745.5v.5c0,.3.3.5.745.5h13.407l-14.6,14.621a.466.466,0,0,0-.149.7,1.36,1.36,0,0,0,.894.4H154.5c.447,0,.745-.2.745-.5v-.5C155.242,23.27,154.944,23.071,154.5,23.071Z" transform="translate(389.838 232.037)"/>
      </g>
    </g>
  </g>
</svg>
