<svg xmlns="http://www.w3.org/2000/svg" xmlns:xlink="http://www.w3.org/1999/xlink" width="439" height="388" viewBox="0 0 439 388">
  <defs>
    <clipPath id="clip-path">
      <rect id="Rectangle_2106" data-name="Rectangle 2106" width="439" height="388" transform="translate(-1175 275)" fill="#fff"/>
    </clipPath>
  </defs>
  <g id="Mask_Group_2" data-name="Mask Group 2" transform="translate(1175 -275)" clip-path="url(#clip-path)">
    <g id="Group_2834" data-name="Group 2834" transform="translate(-1531 91)">
      <circle id="Ellipse_1259" data-name="Ellipse 1259" cx="219.5" cy="219.5" r="219.5" transform="translate(356 184)" fill="#fff"/>
      <g id="Group_2818" data-name="Group 2818" transform="translate(0 -74.392)">
        <line id="Line_13" data-name="Line 13" x2="224.009" transform="translate(379.117 646.089)" fill="none" stroke="#002a69" stroke-width="1"/>
        <line id="Line_14" data-name="Line 14" x2="124.636" transform="translate(625.864 646.089)" fill="none" stroke="#002a69" stroke-width="1"/>
        <g id="Group_2822" data-name="Group 2822" transform="translate(-2130.882 78.619)">
          <g id="Group_2823" data-name="Group 2823" transform="translate(2545.882 212.765)">
            <rect id="Rectangle_1967" data-name="Rectangle 1967" width="190.015" height="354.262" rx="3.727" fill="#464e5e"/>
            <rect id="Rectangle_1968" data-name="Rectangle 1968" width="160.749" height="35.324" transform="translate(14.334 91.21)" fill="#20232b"/>
            <rect id="Rectangle_1969" data-name="Rectangle 1969" width="160.749" height="16.382" transform="translate(14.334 22.994)" fill="#002a69"/>
            <rect id="Rectangle_1970" data-name="Rectangle 1970" width="4.479" height="7.935" transform="translate(134.896 27.474)" fill="#ef9e1d"/>
            <rect id="Rectangle_1971" data-name="Rectangle 1971" width="4.479" height="7.935" transform="translate(141.999 27.474)" fill="#ef9e1d"/>
            <rect id="Rectangle_1972" data-name="Rectangle 1972" width="4.479" height="7.935" transform="translate(148.974 27.474)" fill="#ef9e1d"/>
            <rect id="Rectangle_1973" data-name="Rectangle 1973" width="4.479" height="7.935" transform="translate(156.078 27.474)" fill="#ef9e1d"/>
            <rect id="Rectangle_1974" data-name="Rectangle 1974" width="4.479" height="7.935" transform="translate(163.053 27.474)" fill="#ef9e1d"/>
            <rect id="Rectangle_1975" data-name="Rectangle 1975" width="35.324" height="3.2" transform="translate(74.935 27.474)" fill="#fff"/>
            <rect id="Rectangle_1976" data-name="Rectangle 1976" width="28.541" height="2.517" transform="translate(78.327 24.957)" fill="#686da4"/>
            <rect id="Rectangle_1977" data-name="Rectangle 1977" width="5.119" height="7.935" transform="translate(45.179 27.474)" fill="#fff"/>
            <rect id="Rectangle_1978" data-name="Rectangle 1978" width="5.119" height="7.935" transform="translate(34.3 27.474)" fill="#fff"/>
            <rect id="Rectangle_1979" data-name="Rectangle 1979" width="5.119" height="7.935" transform="translate(24.957 27.474)" fill="#fff"/>
            <rect id="Rectangle_1980" data-name="Rectangle 1980" width="160.749" height="16.382" transform="translate(14.334 43.728)" fill="#002a69"/>
            <rect id="Rectangle_1981" data-name="Rectangle 1981" width="4.479" height="7.935" transform="translate(134.896 48.207)" fill="#ef9e1d"/>
            <rect id="Rectangle_1982" data-name="Rectangle 1982" width="4.479" height="7.935" transform="translate(141.999 48.207)" fill="#ef9e1d"/>
            <rect id="Rectangle_1983" data-name="Rectangle 1983" width="4.479" height="7.935" transform="translate(148.974 48.207)" fill="#ef9e1d"/>
            <rect id="Rectangle_1984" data-name="Rectangle 1984" width="4.479" height="7.935" transform="translate(156.078 48.207)" fill="#ef9e1d"/>
            <rect id="Rectangle_1985" data-name="Rectangle 1985" width="4.479" height="7.935" transform="translate(163.053 48.207)" fill="#ef9e1d"/>
            <rect id="Rectangle_1986" data-name="Rectangle 1986" width="35.324" height="3.2" transform="translate(74.935 48.207)" fill="#fff"/>
            <rect id="Rectangle_1987" data-name="Rectangle 1987" width="28.541" height="2.517" transform="translate(78.327 45.69)" fill="#686da4"/>
            <rect id="Rectangle_1988" data-name="Rectangle 1988" width="5.119" height="7.935" transform="translate(45.179 48.207)" fill="#fff"/>
            <rect id="Rectangle_1989" data-name="Rectangle 1989" width="5.119" height="7.935" transform="translate(34.3 48.207)" fill="#fff"/>
            <rect id="Rectangle_1990" data-name="Rectangle 1990" width="5.119" height="7.935" transform="translate(24.957 48.207)" fill="#fff"/>
            <rect id="Rectangle_1991" data-name="Rectangle 1991" width="160.749" height="16.382" transform="translate(14.334 65.485)" fill="#002a69"/>
            <rect id="Rectangle_1992" data-name="Rectangle 1992" width="4.479" height="7.935" transform="translate(134.896 69.965)" fill="#ef9e1d"/>
            <rect id="Rectangle_1993" data-name="Rectangle 1993" width="4.479" height="7.935" transform="translate(141.999 69.965)" fill="#ef9e1d"/>
            <rect id="Rectangle_1994" data-name="Rectangle 1994" width="4.479" height="7.935" transform="translate(148.974 69.965)" fill="#ef9e1d"/>
            <rect id="Rectangle_1995" data-name="Rectangle 1995" width="4.479" height="7.935" transform="translate(156.078 69.965)" fill="#ef9e1d"/>
            <rect id="Rectangle_1996" data-name="Rectangle 1996" width="4.479" height="7.935" transform="translate(163.053 69.965)" fill="#ef9e1d"/>
            <rect id="Rectangle_1997" data-name="Rectangle 1997" width="35.324" height="3.2" transform="translate(74.935 69.965)" fill="#fff"/>
            <rect id="Rectangle_1998" data-name="Rectangle 1998" width="28.541" height="2.517" transform="translate(78.327 67.448)" fill="#686da4"/>
            <rect id="Rectangle_1999" data-name="Rectangle 1999" width="5.119" height="7.935" transform="translate(45.179 69.965)" fill="#fff"/>
            <rect id="Rectangle_2000" data-name="Rectangle 2000" width="5.119" height="7.935" transform="translate(34.3 69.965)" fill="#fff"/>
            <rect id="Rectangle_2001" data-name="Rectangle 2001" width="5.119" height="7.935" transform="translate(24.957 69.965)" fill="#fff"/>
            <rect id="Rectangle_2002" data-name="Rectangle 2002" width="160.749" height="43.515" transform="translate(14.334 204.093)" fill="#002a69"/>
            <rect id="Rectangle_2003" data-name="Rectangle 2003" width="30.844" height="3.84" transform="translate(14.334 290.611)" fill="#899ec9"/>
            <rect id="Rectangle_2004" data-name="Rectangle 2004" width="30.844" height="3.84" transform="translate(14.334 298.802)" fill="#899ec9"/>
            <rect id="Rectangle_2005" data-name="Rectangle 2005" width="30.844" height="3.84" transform="translate(14.334 311.536)" fill="#899ec9"/>
            <rect id="Rectangle_2006" data-name="Rectangle 2006" width="30.844" height="3.84" transform="translate(14.334 319.727)" fill="#899ec9"/>
            <rect id="Rectangle_2007" data-name="Rectangle 2007" width="30.844" height="3.84" transform="translate(14.334 332.27)" fill="#899ec9"/>
            <rect id="Rectangle_2008" data-name="Rectangle 2008" width="30.844" height="3.84" transform="translate(14.334 340.461)" fill="#899ec9"/>
            <rect id="Rectangle_2009" data-name="Rectangle 2009" width="30.844" height="3.84" transform="translate(79.287 290.611)" fill="#899ec9"/>
            <rect id="Rectangle_2010" data-name="Rectangle 2010" width="30.844" height="3.84" transform="translate(79.287 298.802)" fill="#899ec9"/>
            <rect id="Rectangle_2011" data-name="Rectangle 2011" width="30.844" height="3.84" transform="translate(79.287 311.536)" fill="#899ec9"/>
            <rect id="Rectangle_2012" data-name="Rectangle 2012" width="30.844" height="3.84" transform="translate(79.287 319.727)" fill="#899ec9"/>
            <rect id="Rectangle_2013" data-name="Rectangle 2013" width="30.844" height="3.84" transform="translate(79.287 332.27)" fill="#899ec9"/>
            <rect id="Rectangle_2014" data-name="Rectangle 2014" width="30.844" height="3.84" transform="translate(79.287 340.461)" fill="#899ec9"/>
            <rect id="Rectangle_2015" data-name="Rectangle 2015" width="30.844" height="3.84" transform="translate(144.239 290.611)" fill="#899ec9"/>
            <rect id="Rectangle_2016" data-name="Rectangle 2016" width="30.844" height="3.84" transform="translate(144.239 298.802)" fill="#899ec9"/>
            <rect id="Rectangle_2017" data-name="Rectangle 2017" width="30.844" height="3.84" transform="translate(144.239 311.536)" fill="#899ec9"/>
            <rect id="Rectangle_2018" data-name="Rectangle 2018" width="30.844" height="3.84" transform="translate(144.239 319.727)" fill="#899ec9"/>
            <rect id="Rectangle_2019" data-name="Rectangle 2019" width="30.844" height="3.84" transform="translate(144.239 332.27)" fill="#899ec9"/>
            <rect id="Rectangle_2020" data-name="Rectangle 2020" width="30.844" height="3.84" transform="translate(144.239 340.461)" fill="#899ec9"/>
            <rect id="Rectangle_2021" data-name="Rectangle 2021" width="160.749" height="16.382" transform="translate(14.334 135.877)" fill="#002a69"/>
            <rect id="Rectangle_2022" data-name="Rectangle 2022" width="4.479" height="7.935" transform="translate(134.896 140.357)" fill="#ef9e1d"/>
            <rect id="Rectangle_2023" data-name="Rectangle 2023" width="4.479" height="7.935" transform="translate(141.999 140.357)" fill="#ef9e1d"/>
            <rect id="Rectangle_2024" data-name="Rectangle 2024" width="4.479" height="7.935" transform="translate(148.974 140.357)" fill="#ef9e1d"/>
            <rect id="Rectangle_2025" data-name="Rectangle 2025" width="4.479" height="7.935" transform="translate(156.078 140.357)" fill="#ef9e1d"/>
            <rect id="Rectangle_2026" data-name="Rectangle 2026" width="4.479" height="7.935" transform="translate(163.053 140.357)" fill="#ef9e1d"/>
            <rect id="Rectangle_2027" data-name="Rectangle 2027" width="35.324" height="3.2" transform="translate(74.935 140.357)" fill="#fff"/>
            <rect id="Rectangle_2028" data-name="Rectangle 2028" width="5.119" height="7.935" transform="translate(45.179 140.357)" fill="#fff"/>
            <rect id="Rectangle_2029" data-name="Rectangle 2029" width="5.119" height="7.935" transform="translate(34.3 140.357)" fill="#fff"/>
            <rect id="Rectangle_2030" data-name="Rectangle 2030" width="5.119" height="7.935" transform="translate(24.957 140.357)" fill="#fff"/>
            <rect id="Rectangle_2031" data-name="Rectangle 2031" width="160.749" height="16.382" transform="translate(14.334 156.611)" fill="#002a69"/>
            <rect id="Rectangle_2032" data-name="Rectangle 2032" width="4.479" height="7.935" transform="translate(134.896 161.09)" fill="#ef9e1d"/>
            <rect id="Rectangle_2033" data-name="Rectangle 2033" width="4.479" height="7.935" transform="translate(141.999 161.09)" fill="#ef9e1d"/>
            <rect id="Rectangle_2034" data-name="Rectangle 2034" width="4.479" height="7.935" transform="translate(148.974 161.09)" fill="#ef9e1d"/>
            <rect id="Rectangle_2035" data-name="Rectangle 2035" width="4.479" height="7.935" transform="translate(156.078 161.09)" fill="#ef9e1d"/>
            <rect id="Rectangle_2036" data-name="Rectangle 2036" width="4.479" height="7.935" transform="translate(163.053 161.09)" fill="#ef9e1d"/>
            <rect id="Rectangle_2037" data-name="Rectangle 2037" width="35.324" height="3.2" transform="translate(74.935 161.09)" fill="#fff"/>
            <rect id="Rectangle_2038" data-name="Rectangle 2038" width="28.541" height="2.517" transform="translate(78.327 158.573)" fill="#686da4"/>
            <rect id="Rectangle_2039" data-name="Rectangle 2039" width="5.119" height="7.935" transform="translate(45.179 161.09)" fill="#fff"/>
            <rect id="Rectangle_2040" data-name="Rectangle 2040" width="5.119" height="7.935" transform="translate(34.3 161.09)" fill="#fff"/>
            <rect id="Rectangle_2041" data-name="Rectangle 2041" width="5.119" height="7.935" transform="translate(24.957 161.09)" fill="#fff"/>
            <rect id="Rectangle_2042" data-name="Rectangle 2042" width="160.749" height="16.382" transform="translate(14.334 178.368)" fill="#002a69"/>
            <rect id="Rectangle_2043" data-name="Rectangle 2043" width="4.479" height="7.935" transform="translate(134.896 182.848)" fill="#ef9e1d"/>
            <rect id="Rectangle_2044" data-name="Rectangle 2044" width="4.479" height="7.935" transform="translate(141.999 182.848)" fill="#ef9e1d"/>
            <rect id="Rectangle_2045" data-name="Rectangle 2045" width="4.479" height="7.935" transform="translate(148.974 182.848)" fill="#ef9e1d"/>
            <rect id="Rectangle_2046" data-name="Rectangle 2046" width="4.479" height="7.935" transform="translate(156.078 182.848)" fill="#ef9e1d"/>
            <rect id="Rectangle_2047" data-name="Rectangle 2047" width="4.479" height="7.935" transform="translate(163.053 182.848)" fill="#ef9e1d"/>
            <rect id="Rectangle_2048" data-name="Rectangle 2048" width="35.324" height="3.2" transform="translate(74.935 182.848)" fill="#fff"/>
            <rect id="Rectangle_2049" data-name="Rectangle 2049" width="28.541" height="2.517" transform="translate(78.327 180.331)" fill="#686da4"/>
            <rect id="Rectangle_2050" data-name="Rectangle 2050" width="5.119" height="7.935" transform="translate(45.179 182.848)" fill="#fff"/>
            <rect id="Rectangle_2051" data-name="Rectangle 2051" width="5.119" height="7.935" transform="translate(34.3 182.848)" fill="#fff"/>
            <rect id="Rectangle_2052" data-name="Rectangle 2052" width="5.119" height="7.935" transform="translate(24.957 182.848)" fill="#fff"/>
            <g id="Group_2822-2" data-name="Group 2822" transform="translate(29.471 210.418)">
              <rect id="Rectangle_2053" data-name="Rectangle 2053" width="4.377" height="7.753" transform="translate(107.413 0.024)" fill="#ef9e1d"/>
              <rect id="Rectangle_2054" data-name="Rectangle 2054" width="4.377" height="7.753" transform="translate(114.353 0.018)" fill="#ef9e1d"/>
              <rect id="Rectangle_2055" data-name="Rectangle 2055" width="4.377" height="7.753" transform="translate(121.168 0.012)" fill="#ef9e1d"/>
              <rect id="Rectangle_2056" data-name="Rectangle 2056" width="4.377" height="7.753" transform="translate(128.108 0.006)" fill="#ef9e1d"/>
              <rect id="Rectangle_2057" data-name="Rectangle 2057" width="4.377" height="7.753" transform="translate(134.923)" fill="#ef9e1d"/>
              <rect id="Rectangle_2058" data-name="Rectangle 2058" width="34.512" height="3.126" transform="translate(48.828 0.062)" fill="#fff"/>
              <rect id="Rectangle_2059" data-name="Rectangle 2059" width="5.002" height="7.753" transform="translate(18.839 0.1)" fill="#fff"/>
              <rect id="Rectangle_2060" data-name="Rectangle 2060" width="5.002" height="7.753" transform="translate(9.128 0.109)" fill="#fff"/>
              <rect id="Rectangle_2061" data-name="Rectangle 2061" width="5.002" height="7.753" transform="translate(0 0.117)" fill="#fff"/>
              <rect id="Rectangle_2062" data-name="Rectangle 2062" width="4.377" height="7.753" transform="translate(107.413 12.044)" fill="#ef9e1d"/>
              <rect id="Rectangle_2063" data-name="Rectangle 2063" width="4.377" height="7.753" transform="translate(114.353 12.038)" fill="#ef9e1d"/>
              <rect id="Rectangle_2064" data-name="Rectangle 2064" width="4.377" height="7.753" transform="translate(121.168 12.032)" fill="#ef9e1d"/>
              <rect id="Rectangle_2065" data-name="Rectangle 2065" width="4.377" height="7.753" transform="translate(128.108 12.026)" fill="#ef9e1d"/>
              <rect id="Rectangle_2066" data-name="Rectangle 2066" width="34.512" height="3.126" transform="translate(48.828 12.082)" fill="#fff"/>
              <rect id="Rectangle_2067" data-name="Rectangle 2067" width="5.002" height="7.753" transform="translate(18.839 12.12)" fill="#fff"/>
              <rect id="Rectangle_2068" data-name="Rectangle 2068" width="5.002" height="7.753" transform="translate(9.128 12.129)" fill="#fff"/>
              <rect id="Rectangle_2069" data-name="Rectangle 2069" width="5.002" height="7.753" transform="translate(0 12.137)" fill="#fff"/>
              <rect id="Rectangle_2070" data-name="Rectangle 2070" width="4.377" height="7.753" transform="translate(107.413 23.019)" fill="#ef9e1d"/>
              <rect id="Rectangle_2071" data-name="Rectangle 2071" width="4.377" height="7.753" transform="translate(114.353 23.013)" fill="#ef9e1d"/>
              <rect id="Rectangle_2072" data-name="Rectangle 2072" width="4.377" height="7.753" transform="translate(121.168 23.007)" fill="#ef9e1d"/>
              <rect id="Rectangle_2073" data-name="Rectangle 2073" width="34.512" height="3.126" transform="translate(48.828 23.057)" fill="#fff"/>
              <rect id="Rectangle_2074" data-name="Rectangle 2074" width="5.002" height="7.753" transform="translate(18.839 23.095)" fill="#fff"/>
              <rect id="Rectangle_2075" data-name="Rectangle 2075" width="5.002" height="7.753" transform="translate(9.128 23.104)" fill="#fff"/>
              <rect id="Rectangle_2076" data-name="Rectangle 2076" width="5.002" height="7.753" transform="translate(0 23.112)" fill="#fff"/>
            </g>
          </g>
          <g id="Group_2830" data-name="Group 2830" transform="translate(2706.769 254.755)">
            <g id="Group_2828" data-name="Group 2828" transform="translate(0)">
              <path id="Path_3599" data-name="Path 3599" d="M2793.4,490.578l-6.786,6.055-25.525,37.9,14.99,93.133-7.105-7.994-1.777-6.516-4.7-6.217-23.142-79.565,30.357-62.664C2788.421,461.947,2793.4,490.578,2793.4,490.578Z" transform="translate(-2702.221 -319.183)" fill="#1f2430"/>
              <g id="Group_2824" data-name="Group 2824" transform="translate(16.395 117.288)">
                <path id="Path_3624" data-name="Path 3624" d="M2740.885,451.051s-3.208-1.618-5.746-7.021S2719,426.991,2715.42,431.546c-4.868,6.2,6.5,17.081,6.5,17.081s-3.389.609-1.05,3.912a21.416,21.416,0,0,0,17.527,4.721s32.031,7.029,36.583.12-1.117-13.779-1.117-13.779C2768.037,448.9,2740.885,451.051,2740.885,451.051Z" transform="translate(-2714.208 -430.511)" fill="#ffb883"/>
              </g>
              <path id="Path_3599-2" data-name="Path 3599" d="M2832.272,499.067l-3.891,8.221-8.742,44.85,50.093,79.934-9.659-4.594-4.174-5.308-6.753-3.895-52.314-64.261,3.543-69.538C2816.528,474.641,2832.272,499.067,2832.272,499.067Z" transform="translate(-2712.292 -322.27)" fill="#1f2430"/>
              <path id="Path_3600" data-name="Path 3600" d="M2817.8,420.261l-8.781-8.567,15.342-36.113Z" transform="translate(-2714.428 -303.598)" fill="#f77e53"/>
              <path id="Path_3601" data-name="Path 3601" d="M2819.526,430.781l-7.937,9.09s-13.287-7.328-10.18-14.413,6.376-6.757,6.376-6.757Z" transform="translate(-2713.011 -311.153)" fill="#f77e53"/>
              <path id="Path_3602" data-name="Path 3602" d="M2821.563,374.7l-6.283,38.716s-9.29,12.94-15.1,21.081c-5.016.74-2.583,4.427-2.583,4.427s-5.241,1.043-4.47,4.435c20.607.737,33.556,26.337,33.556,26.337,3.011-1.523,14.644-15.918,22-24.555s25.875-69.582,25.875-69.582C2854.1,364.876,2821.563,374.7,2821.563,374.7Z" transform="translate(-2711.628 -302.722)" fill="#fff4f2"/>
              <path id="Path_3603" data-name="Path 3603" d="M2856.26,370.612h0s2.39,10.5-10.417,16.254c-2.943-2.833-7.41-4.051-7.41-14.257A110,110,0,0,1,2856.26,370.612Z" transform="translate(-2719.581 -302.727)" fill="#f77e53"/>
              <g id="Group_2812" data-name="Group 2812" transform="translate(76.951)">
                <path id="Path_3604" data-name="Path 3604" d="M2835.052,361.833l4.426-1.711s-.814-4.021-2.54-9.541c-21.793,11.217-27.1,5.073-31.113-3.459s2-27.472,2-27.472,13.235-10.513,26.43-7.192c4.053,10.993,6.944,26.466,15.069,49.586C2841.249,371.724,2835.052,361.833,2835.052,361.833Z" transform="translate(-2790.577 -292.423)" fill="#ffb883"/>
                <path id="Path_3605" data-name="Path 3605" d="M2839.542,336.494l.431-1.348a3.542,3.542,0,0,0,.161-1.284c-.3-5.04-2.584-37.186-12.435-44.068-3.763-2.424-8.121-3.7-29.038,11.063-14.255,10.062-14.05,14.223-3.077,7.938-10.53,11.577-7.306,13.245,2.967,4.854-9.771,12.984.621,7.759,5.443,5.814s21.822-10.728,21.822-10.728l3.639,12.466,4,3.316,5.463,12.014A.338.338,0,0,0,2839.542,336.494Z" transform="translate(-2787.63 -288.304)" fill="#1f2430"/>
                <path id="Path_3606" data-name="Path 3606" d="M2810.334,348.79c-2.615,2.446-5.8,6.886-2.828,6.916s6.992-1.206,6.531-4.813-3.291-11.023-3.291-11.023S2810.548,343.16,2810.334,348.79Z" transform="translate(-2790.903 -297.34)" fill="#fc967e"/>
                <path id="Path_3607" data-name="Path 3607" d="M2830.485,352.331c4.287-1.5,8.014-6.755,1.271-7.511s-9.622,5.239-9.622,5.239S2820.414,355.849,2830.485,352.331Z" transform="translate(-2793.657 -298.196)" fill="#1f2430"/>
                <path id="Path_3608" data-name="Path 3608" d="M2830.231,344.754c1.31.136,3.156.488.978,2.423l-9.11,4.441a3.5,3.5,0,0,1-.076-.716,4.147,4.147,0,0,1,.111-.843A9.85,9.85,0,0,1,2830.231,344.754Z" transform="translate(-2793.657 -298.196)" fill="#fff"/>
                <path id="Path_3609" data-name="Path 3609" d="M2831.2,353.182a19.5,19.5,0,0,1-4.229.982c1.95-3.13,6.877-4.746,9-4.693C2835.2,351.181,2833.12,352.385,2831.2,353.182Z" transform="translate(-2794.523 -299.022)" fill="#f25c79"/>
                <path id="Path_3612" data-name="Path 3612" d="M2842.447,340.6c2.257,2.565,9.948-5.337,5.815-10.148s-7.605,3.132-7.605,3.132" transform="translate(-2796.922 -295.419)" fill="#ffb883"/>
                <path id="Path_3613" data-name="Path 3613" d="M2842.447,340.6c2.257,2.565,9.948-5.337,5.815-10.148s-7.605,3.132-7.605,3.132" transform="translate(-2796.922 -295.419)" fill="none" stroke="#db8346" stroke-miterlimit="10" stroke-width="0.951"/>
                <g id="Group_2811" data-name="Group 2811" transform="translate(14.1 33.075)">
                  <path id="Path_3614" data-name="Path 3614" d="M2826.356,329.678c-2.435-2.519-9.6-.516-9.6-.516" transform="translate(-2806.835 -328.407)" fill="none" stroke="#160033" stroke-miterlimit="10" stroke-width="0.951"/>
                  <path id="Path_3615" data-name="Path 3615" d="M2804.726,333.545c1.188-2.01,4.684-2.564,4.684-2.564" transform="translate(-2804.726 -328.858)" fill="none" stroke="#160033" stroke-miterlimit="10" stroke-width="0.951"/>
                </g>
                <path id="Path_3616" data-name="Path 3616" d="M2842.836,338.927s3.439-3.036-.435-2.566c3.307-7.42,5.592-1.417,5.592-1.417" transform="translate(-2797.228 -296.075)" fill="none" stroke="#db8346" stroke-miterlimit="10" stroke-width="0.951"/>
              </g>
              <path id="Path_3620" data-name="Path 3620" d="M2873.854,391.436l1.443,42.782,18.2,5.192-4.787-62.787-10.573,6.7A9.235,9.235,0,0,0,2873.854,391.436Z" transform="translate(-2725.787 -303.78)" fill="#f77e53"/>
              <rect id="Rectangle_2077" data-name="Rectangle 2077" width="169.834" height="45.974" transform="translate(21.11 72.797) rotate(27.334)" fill="#002a69"/>
              <g id="Group_2825" data-name="Group 2825" transform="translate(16.577 85.663)">
                <rect id="Rectangle_2078" data-name="Rectangle 2078" width="4.624" height="8.191" transform="translate(115.093 51.689) rotate(27.095)" fill="#ef9e1d"/>
                <rect id="Rectangle_2079" data-name="Rectangle 2079" width="4.624" height="8.191" transform="translate(121.621 55.028) rotate(27.095)" fill="#ef9e1d"/>
                <rect id="Rectangle_2080" data-name="Rectangle 2080" width="4.624" height="8.191" transform="translate(128.031 58.308) rotate(27.095)" fill="#ef9e1d"/>
                <rect id="Rectangle_2081" data-name="Rectangle 2081" width="4.624" height="8.191" transform="translate(134.558 61.647) rotate(27.095)" fill="#ef9e1d"/>
                <rect id="Rectangle_2082" data-name="Rectangle 2082" width="4.624" height="8.191" transform="translate(140.968 64.927) rotate(27.095)" fill="#ef9e1d"/>
                <rect id="Rectangle_2083" data-name="Rectangle 2083" width="36.463" height="3.303" transform="translate(59.992 23.498) rotate(27.095)" fill="#fff"/>
                <rect id="Rectangle_2084" data-name="Rectangle 2084" width="5.284" height="8.191" transform="translate(32.647 9.507) rotate(27.095)" fill="#fff"/>
                <rect id="Rectangle_2085" data-name="Rectangle 2085" width="5.284" height="8.191" transform="translate(22.65 4.393) rotate(27.095)" fill="#fff"/>
                <rect id="Rectangle_2086" data-name="Rectangle 2086" width="5.284" height="8.191" transform="translate(14.064 0) rotate(27.095)" fill="#fff"/>
                <rect id="Rectangle_2087" data-name="Rectangle 2087" width="4.624" height="8.191" transform="translate(109.33 63.005) rotate(27.095)" fill="#ef9e1d"/>
                <rect id="Rectangle_2088" data-name="Rectangle 2088" width="4.624" height="8.191" transform="translate(115.858 66.344) rotate(27.095)" fill="#ef9e1d"/>
                <rect id="Rectangle_2089" data-name="Rectangle 2089" width="4.624" height="8.191" transform="translate(122.268 69.624) rotate(27.095)" fill="#ef9e1d"/>
                <rect id="Rectangle_2090" data-name="Rectangle 2090" width="4.624" height="8.191" transform="translate(128.795 72.963) rotate(27.095)" fill="#ef9e1d"/>
                <rect id="Rectangle_2091" data-name="Rectangle 2091" width="4.624" height="8.191" transform="translate(135.205 76.243) rotate(27.095)" fill="#ef9e1d"/>
                <rect id="Rectangle_2092" data-name="Rectangle 2092" width="36.463" height="3.303" transform="translate(54.229 34.814) rotate(27.095)" fill="#fff"/>
                <rect id="Rectangle_2093" data-name="Rectangle 2093" width="5.284" height="8.191" transform="translate(26.884 20.824) rotate(27.095)" fill="#fff"/>
                <rect id="Rectangle_2094" data-name="Rectangle 2094" width="5.284" height="8.191" transform="translate(16.887 15.709) rotate(27.095)" fill="#fff"/>
                <rect id="Rectangle_2095" data-name="Rectangle 2095" width="5.284" height="8.191" transform="translate(8.301 11.316) rotate(27.095)" fill="#fff"/>
                <rect id="Rectangle_2096" data-name="Rectangle 2096" width="4.624" height="8.191" transform="translate(104.76 73.692) rotate(27.095)" fill="#ef9e1d"/>
                <rect id="Rectangle_2097" data-name="Rectangle 2097" width="4.624" height="8.191" transform="translate(111.287 77.032) rotate(27.095)" fill="#ef9e1d"/>
                <rect id="Rectangle_2098" data-name="Rectangle 2098" width="4.624" height="8.191" transform="translate(117.697 80.311) rotate(27.095)" fill="#ef9e1d"/>
                <rect id="Rectangle_2099" data-name="Rectangle 2099" width="4.624" height="8.191" transform="translate(124.225 83.651) rotate(27.095)" fill="#ef9e1d"/>
                <rect id="Rectangle_2100" data-name="Rectangle 2100" width="4.624" height="8.191" transform="translate(130.634 86.93) rotate(27.095)" fill="#ef9e1d"/>
                <rect id="Rectangle_2101" data-name="Rectangle 2101" width="36.463" height="3.303" transform="translate(49.658 45.501) rotate(27.095)" fill="#fff"/>
                <rect id="Rectangle_2102" data-name="Rectangle 2102" width="5.284" height="8.191" transform="translate(22.313 31.511) rotate(27.095)" fill="#fff"/>
                <rect id="Rectangle_2103" data-name="Rectangle 2103" width="5.284" height="8.191" transform="translate(12.317 26.396) rotate(27.095)" fill="#fff"/>
                <rect id="Rectangle_2104" data-name="Rectangle 2104" width="5.284" height="8.191" transform="translate(3.731 22.004) rotate(27.095)" fill="#fff"/>
              </g>
              <path id="Path_3622" data-name="Path 3622" d="M2875.044,458.578,2821.4,481.817a35.274,35.274,0,0,1-9.313,6.724c-13.6,5.948-15.086,2.5-16.511-3.912s11.291-10.382,11.291-10.382-8.922,1.508-1.394-2.7,11.488,4,11.488,4l49.072-24.642Z" transform="translate(-2712.052 -316.795)" fill="#ffb883"/>
              <path id="Path_3623" data-name="Path 3623" d="M2890.493,458.137l-19.579-5.693,3.546-13.54,19.085,11.763Z" transform="translate(-2725.273 -314.694)" fill="#f77e53"/>
              <g id="Group_2814" data-name="Group 2814" transform="translate(84.351 161.706)">
                <path id="Path_3628" data-name="Path 3628" d="M2796.6,489.589c1.373-1.312,12.362-5.223,12.362-5.223" transform="translate(-2796.603 -484.366)" fill="none" stroke="#db8346" stroke-miterlimit="10" stroke-width="0.841"/>
                <path id="Path_3629" data-name="Path 3629" d="M2796.613,493.791c1.814-1.831,12.569-6.83,12.569-6.83" transform="translate(-2796.605 -484.821)" fill="none" stroke="#db8346" stroke-miterlimit="10" stroke-width="0.841"/>
                <line id="Line_12" data-name="Line 12" y1="5.155" x2="10.179" transform="translate(2.75 5.641)" fill="none" stroke="#db8346" stroke-miterlimit="10" stroke-width="0.841"/>
              </g>
              <g id="Group_2826" data-name="Group 2826" transform="translate(97.815 289.133)">
                <path id="Path_3619" data-name="Path 3619" d="M2871.952,648.484l2.385,16.335-9.1,1.287c-15.7,2.573-50.255-.322-50.255-.322s-7.086-6.111,5.055-6.757,37.663-10.544,37.663-10.544a32.674,32.674,0,0,0-2.82-7.473s5.464-4.825,9.072,0-.207,7.959-.207,7.959C2874.228,641.162,2871.952,648.484,2871.952,648.484Z" transform="translate(-2812.927 -638.865)" fill="#ef9e1d"/>
                <path id="Path_3630" data-name="Path 3630" d="M2860.247,653.563a19.643,19.643,0,0,1-7.2-2.249l6.6.04a.722.722,0,0,1,.9.873l-.036,5.509a38.987,38.987,0,0,0-.247-7.322,13.1,13.1,0,0,0,10.164,3.969c.249-1.648-1.688-2.756-3.338-2.991a11.8,11.8,0,0,0-4.6.247,3.508,3.508,0,0,1-1.557.192,2.761,2.761,0,0,1-.957-.46,14.877,14.877,0,0,1-4.479-4.708c1.508-.606,3.217.357,4.278,1.589a8.884,8.884,0,0,1,2.016,7.1" transform="translate(-2819.958 -640.199)" fill="none" stroke="#160033" stroke-linecap="round" stroke-linejoin="round" stroke-width="1"/>
              </g>
              <g id="Group_2827" data-name="Group 2827" transform="translate(23.344 285.475)">
                <path id="Path_3618" data-name="Path 3618" d="M2775.953,662.236l-13.354-.6-35.646.7s-11.6-3.957,3.224-7.628S2760.8,643.8,2760.8,643.8s-1.932-12.393,2.078-8.666.936,9.255.936,9.255C2773.313,626.97,2775.953,662.236,2775.953,662.236Z" transform="translate(-2722.634 -634.431)" fill="#d38616"/>
                <path id="Path_3631" data-name="Path 3631" d="M2760.511,649.371l.351.779a10.937,10.937,0,0,0,.732-5.011,34.391,34.391,0,0,0-8.02,2.62,8.56,8.56,0,0,0,6.565-3.164c2.877,2.068,6.11,4.236,9.636,3.851a8.384,8.384,0,0,0-10.426-3.435,19.256,19.256,0,0,1-2.114-3.569,1.619,1.619,0,0,1-.2-.864,1.132,1.132,0,0,1,1.338-.82,2.639,2.639,0,0,1,1.429.959,8.865,8.865,0,0,1,2.164,6.5" transform="translate(-2728.056 -635.36)" fill="none" stroke="#160033" stroke-linecap="round" stroke-linejoin="round" stroke-width="1"/>
              </g>
              <g id="Group_2813" data-name="Group 2813" transform="translate(91.794 130.858)">
                <path id="Path_3625" data-name="Path 3625" d="M2814.966,468.7a76.755,76.755,0,0,0,6.891,6" transform="translate(-2807.263 -450.772)" fill="none" stroke="#db8346" stroke-miterlimit="10" stroke-width="0.951"/>
                <path id="Path_3626" data-name="Path 3626" d="M2805.627,452.571c2.647,3.873,8.072,10.107,8.072,10.107" transform="translate(-2805.627 -447.946)" fill="none" stroke="#db8346" stroke-miterlimit="10" stroke-width="0.951"/>
                <path id="Path_3627" data-name="Path 3627" d="M2807.091,447.988c2.427,3.664,9.144,11.774,9.144,11.774" transform="translate(-2805.883 -447.143)" fill="none" stroke="#db8346" stroke-miterlimit="10" stroke-width="0.951"/>
                <line id="Line_11" data-name="Line 11" x2="7.942" y2="9.252" transform="translate(4.988)" fill="none" stroke="#db8346" stroke-miterlimit="10" stroke-width="0.951"/>
              </g>
              <ellipse id="Ellipse_1260" data-name="Ellipse 1260" cx="2.474" cy="3.24" rx="2.474" ry="3.24" transform="translate(102.536 36.753)" fill="#fff"/>
              <ellipse id="Ellipse_1261" data-name="Ellipse 1261" cx="2.474" cy="3.24" rx="2.474" ry="3.24" transform="translate(89.883 38.791)" fill="#fff"/>
              <ellipse id="Ellipse_1262" data-name="Ellipse 1262" cx="1.342" cy="1.757" rx="1.342" ry="1.757" transform="translate(91.015 41.756)"/>
              <ellipse id="Ellipse_1263" data-name="Ellipse 1263" cx="0.357" cy="0.467" rx="0.357" ry="0.467" transform="translate(92.001 43.233)" fill="#fff"/>
              <ellipse id="Ellipse_1264" data-name="Ellipse 1264" cx="0.357" cy="0.467" rx="0.357" ry="0.467" transform="translate(92.001 43.7)"/>
              <ellipse id="Ellipse_1265" data-name="Ellipse 1265" cx="1.342" cy="1.757" rx="1.342" ry="1.757" transform="translate(103.668 39.718)"/>
              <ellipse id="Ellipse_1266" data-name="Ellipse 1266" cx="0.357" cy="0.467" rx="0.357" ry="0.467" transform="translate(104.654 41.195)" fill="#fff"/>
              <ellipse id="Ellipse_1267" data-name="Ellipse 1267" cx="0.357" cy="0.467" rx="0.357" ry="0.467" transform="translate(104.715 41.662)"/>
            </g>
            <g id="Group_2829" data-name="Group 2829" transform="translate(16.404 117.53)">
              <path id="Path_3642" data-name="Path 3642" d="M2735.141,444.324c-2.539-5.4-16.139-17.039-19.719-12.484a5.692,5.692,0,0,0-1.2,3.547l22.38,11.568A21.622,21.622,0,0,1,2735.141,444.324Z" transform="translate(-2714.22 -430.805)" fill="#ffb883"/>
            </g>
          </g>
        </g>
      </g>
    </g>
  </g>
</svg>
