<svg xmlns="http://www.w3.org/2000/svg" width="28" height="24.967" viewBox="0 0 28 24.967">
  <g id="Group_2201" data-name="Group 2201" transform="translate(-1360 -1321.75)">
    <path id="Path_3281" data-name="Path 3281" d="M-600.845,148.225a4.921,4.921,0,0,0-.519-1.216q-5.442-9.427-10.886-18.854a3.951,3.951,0,0,0-1.393-1.507c-.239-.14-.511-.183-.752-.309h-.72a5.281,5.281,0,0,0-.973.488,4.434,4.434,0,0,0-1.129,1.348l-10.837,18.765a4.559,4.559,0,0,0-.621,1.614c-.009.057.01.135-.071.165v.443c.042.012.053.044.058.082a2.328,2.328,0,0,0,2.069,1.967,5.817,5.817,0,0,0,1.1.094q10.791,0,21.582,0a4.179,4.179,0,0,0,1.939-.371A2.217,2.217,0,0,0-600.845,148.225Z" transform="translate(1988.747 1195.411)" fill="#ffae28" opacity="0.301"/>
    <path id="Path_3279" data-name="Path 3279" d="M-610.115,140.954a3.293,3.293,0,0,0-.346-.812q-3.634-6.3-7.269-12.59a2.64,2.64,0,0,0-.93-1.007c-.159-.094-.341-.122-.5-.206h-.481a3.526,3.526,0,0,0-.65.326,2.959,2.959,0,0,0-.754.9l-7.237,12.531a3.047,3.047,0,0,0-.415,1.078c-.006.038.007.09-.047.11v.3c.028.008.036.029.039.055a1.554,1.554,0,0,0,1.381,1.314,3.886,3.886,0,0,0,.736.063q7.206,0,14.412,0a2.791,2.791,0,0,0,1.295-.248A1.481,1.481,0,0,0-610.115,140.954Z" transform="translate(1993.314 1200.558)" fill="#ffae28"/>
    <g id="Group_2200" data-name="Group 2200">
      <path id="Path_3280" data-name="Path 3280" d="M-390.067,283.661c0,.672.006,1.344,0,2.016-.005.386-.12.715-.586.726-.5.012-.624-.327-.626-.738q-.009-2.042,0-4.084c0-.41.121-.76.612-.756s.6.361.6.768C-390.064,282.282-390.067,282.972-390.067,283.661Z" transform="translate(1764.711 1051.644)" fill="#fff"/>
      <circle id="Ellipse_1372" data-name="Ellipse 1372" cx="0.569" cy="0.569" r="0.569" transform="translate(1373.457 1339.047)" fill="#fff"/>
    </g>
  </g>
</svg>
