<svg id="Group_5976" data-name="Group 5976" xmlns="http://www.w3.org/2000/svg" width="22" height="22" viewBox="0 0 22 22">
  <g id="Group_5975" data-name="Group 5975">
    <circle id="Ellipse_1317" data-name="Ellipse 1317" cx="11" cy="11" r="11" fill="#00be7e"/>
  </g>
  <path id="Path_3149" data-name="Path 3149" d="M911.134,345.9a.759.759,0,0,0-1.1,0l-5.745,5.924-2.509-2.587a.759.759,0,0,0-1.1,0h0a.817.817,0,0,0,0,1.131l2.956,3.048a.789.789,0,0,0,.092.115.783.783,0,0,0,1.116,0h0a.8.8,0,0,0,.092-.115l6.191-6.384A.817.817,0,0,0,911.134,345.9Z" transform="translate(-894.459 -338.664)" fill="#fff"/>
</svg>
