<?xml version="1.0" encoding="utf-8"?>
<!-- Generator: Adobe Illustrator 23.0.2, SVG Export Plug-In . SVG Version: 6.00 Build 0)  -->
<svg version="1.1" id="Layer_1" xmlns="http://www.w3.org/2000/svg" xmlns:xlink="http://www.w3.org/1999/xlink" x="0px" y="0px"
	 viewBox="0 0 20 20" style="enable-background:new 0 0 20 20;" xml:space="preserve">
<style type="text/css">
	.st0{fill:#FF7A59;}
</style>
<path class="st0" d="M10,0C4.5,0,0,4.5,0,10c0,5.5,4.5,10,10,10c5.5,0,10-4.5,10-10C20,4.5,15.5,0,10,0z M13,10.4l-4.8,5.1
	c0,0-0.1,0-0.1,0c0,0-0.1-0.1-0.1-0.1V13l2.5-2.6c0.1-0.1,0.1-0.2,0-0.2L8,7.5V5.2C8,5.1,8,5,8.1,5c0,0,0.1,0,0.1,0l4.8,5.1
	C13,10.2,13,10.3,13,10.4z"/>
</svg>
