<svg xmlns="http://www.w3.org/2000/svg" width="306.7" height="84.248" viewBox="0 0 306.7 84.248">
  <g id="Vector_Smart_Object" data-name="Vector Smart Object" transform="translate(-39.58 -24.276)">
    <g id="Group_1" data-name="Group 1" transform="translate(39.58 24.276)">
      <path id="Path_1" data-name="Path 1" d="M134.742,65.6a20.852,20.852,0,0,0,5.4,1.885,31.6,31.6,0,0,0,7.21.822,23.231,23.231,0,0,0,6.635-.9,15.312,15.312,0,0,0,5.206-2.628,12.427,12.427,0,0,0,3.4-4.137,11.9,11.9,0,0,0,1.229-5.452,10.586,10.586,0,0,0-2.176-6.561q-2.171-2.87-7.251-4.508l-6.635-2.132a13.93,13.93,0,0,1-5.159-2.582,4.453,4.453,0,0,1-1.392-3.32,4.5,4.5,0,0,1,2.213-4.184,12.276,12.276,0,0,1,6.227-1.315,21.744,21.744,0,0,1,9.009,1.807,5.012,5.012,0,0,0,1.8.576c.71,0,1.062-.5,1.062-1.481V29.276a2.656,2.656,0,0,0-.4-1.555,4.576,4.576,0,0,0-1.392-1.151,12.436,12.436,0,0,0-1.966-.818q-1.232-.41-2.664-.738a29.644,29.644,0,0,0-3.03-.534,24.33,24.33,0,0,0-3.155-.2,20.9,20.9,0,0,0-5.9.817,14.885,14.885,0,0,0-4.872,2.42,12.582,12.582,0,0,0-3.359,3.855,10.407,10.407,0,0,0-1.271,5.205,11.1,11.1,0,0,0,2.339,6.807q2.331,3.12,7.492,4.755l6.8,2.132a12.069,12.069,0,0,1,4.714,2.46,4.537,4.537,0,0,1,1.266,3.284,4.959,4.959,0,0,1-2.417,4.425,12.628,12.628,0,0,1-6.839,1.556,27.349,27.349,0,0,1-5.572-.572,25.031,25.031,0,0,1-5.159-1.644c-.492-.213-.891-.376-1.187-.488a2.489,2.489,0,0,0-.863-.162c-.71,0-1.062.488-1.062,1.472v2.378a2.721,2.721,0,0,0,1.722,2.623" transform="translate(-28.961 -24.276)" fill="#1b2430"/>
      <path id="Path_2" data-name="Path 2" d="M65.578,42.844a34.961,34.961,0,0,0-4.955-.367q-7.2,0-11.47,3.65a12.055,12.055,0,0,0-4.259,9.635,12.02,12.02,0,0,0,3.443,9.017q3.437,3.358,9.339,3.362a17.283,17.283,0,0,0,13.761-6.483q.738,1.568,1.434,2.75a10.731,10.731,0,0,0,1.679,2.173,1.962,1.962,0,0,0,1.392.659,2.374,2.374,0,0,0,1.229-.408l2.951-1.969a1.8,1.8,0,0,0,.9-1.4A2.216,2.216,0,0,0,80.7,62.4a21.533,21.533,0,0,1-1.517-3.362,13.211,13.211,0,0,1-.534-4.179V39.606q0-7.71-3.892-11.52T62.51,24.278a28.792,28.792,0,0,0-7.3.9,30.364,30.364,0,0,0-5.892,2.136,3.267,3.267,0,0,0-1.313.985,3.057,3.057,0,0,0-.329,1.634v2.294c0,.985.329,1.481.983,1.481a3.3,3.3,0,0,0,.738-.126,12.511,12.511,0,0,0,1.638-.613,35.36,35.36,0,0,1,5.039-1.6,22.028,22.028,0,0,1,5.039-.613q5.407,0,7.618,2.173t2.213,7.5V43.87q-2.783-.656-5.368-1.026m5.368,8.242a15.777,15.777,0,0,1-.45,4.058,7.482,7.482,0,0,1-1.6,2.994,10.2,10.2,0,0,1-4.427,2.99,15.008,15.008,0,0,1-4.834.864,6.746,6.746,0,0,1-4.914-1.681A6.652,6.652,0,0,1,53,55.348a6.61,6.61,0,0,1,2.3-5.41q2.29-1.886,6.96-1.885a34.161,34.161,0,0,1,4.385.287,40.927,40.927,0,0,1,4.3.776Z" transform="translate(-38.977 -24.276)" fill="#1b2430"/>
      <path id="Path_3" data-name="Path 3" d="M90.561,64.653a3.618,3.618,0,0,0,.984,1.844,2.915,2.915,0,0,0,1.8.451h4.013a2.91,2.91,0,0,0,1.884-.488,3.59,3.59,0,0,0,.9-1.889L107.356,34.4l7.288,30.173a3.547,3.547,0,0,0,.905,1.889,2.888,2.888,0,0,0,1.883.488h4.009a2.909,2.909,0,0,0,1.805-.451,3.625,3.625,0,0,0,.984-1.844l11.3-36.242a9.976,9.976,0,0,0,.335-1.147,4.128,4.128,0,0,0,.079-.739,1.014,1.014,0,0,0-1.147-1.147h-4.342a2.9,2.9,0,0,0-1.842.451,3.918,3.918,0,0,0-.941,1.844l-8.11,31.4-7.378-31.4a3.289,3.289,0,0,0-.9-1.844,3.085,3.085,0,0,0-1.878-.451h-3.773a3.1,3.1,0,0,0-1.883.451,3.289,3.289,0,0,0-.9,1.844L95.558,58.667,87.693,27.672a3.926,3.926,0,0,0-.942-1.844,2.921,2.921,0,0,0-1.846-.451H80.321a1.014,1.014,0,0,0-1.147,1.147,8.231,8.231,0,0,0,.408,1.886Z" transform="translate(-35.08 -24.151)" fill="#1b2430"/>
      <path id="Path_4" data-name="Path 4" d="M164.591,81.841A138.489,138.489,0,0,1,111.45,92.725a140,140,0,0,1-69.663-18.5c-1.74-1-3.025.775-1.583,2.08a103.1,103.1,0,0,0,69.626,26.58c19.24,0,41.589-6.05,57-17.432,2.547-1.89.367-4.713-2.24-3.608" transform="translate(-39.58 -18.633)" fill="#f9830a"/>
      <path id="Path_5" data-name="Path 5" d="M143.189,75.71c-1.359.951-1.123,2.271.386,2.089,4.964-.6,16.025-1.927,18,.6s-2.194,12.942-4.054,17.59c-.562,1.407.649,1.978,1.92.91,8.268-6.923,10.407-21.425,8.714-23.524-1.68-2.08-16.137-3.863-24.961,2.336" transform="translate(-27.907 -18.916)" fill="#f9830a"/>
      <path id="Path_6" data-name="Path 6" d="M198.825,56.742a.492.492,0,0,1-.556-.557v-25.3a.5.5,0,0,1,.556-.561h.71a.55.55,0,0,1,.631.561l.154,1.528a12.87,12.87,0,0,1,3.331-2.015,9.2,9.2,0,0,1,3.336-.632,6.945,6.945,0,0,1,5.7,2.586,11.082,11.082,0,0,1,2.079,7.1,11.29,11.29,0,0,1-2.195,7.3,7.211,7.211,0,0,1-5.92,2.716,9.155,9.155,0,0,1-6.255-2.53v9.241a.494.494,0,0,1-.561.557Zm7.6-9.2a5.45,5.45,0,0,0,4.593-2q1.551-1.992,1.549-5.943,0-7.9-5.995-7.9a10.117,10.117,0,0,0-6.18,2.386V45a11.675,11.675,0,0,0,2.974,1.922,7.8,7.8,0,0,0,3.058.614" transform="translate(-21.545 -23.652)" fill="#1b2430"/>
      <path id="Path_7" data-name="Path 7" d="M221.942,49.475a5.6,5.6,0,0,1-4.078-1.467,5.244,5.244,0,0,1-1.508-3.933,5.3,5.3,0,0,1,1.86-4.285,7.617,7.617,0,0,1,5.066-1.57,18.448,18.448,0,0,1,5.326.858V35.949a4.267,4.267,0,0,0-1.08-3.265,5.253,5.253,0,0,0-3.573-.984,17.8,17.8,0,0,0-5.438.933,1.9,1.9,0,0,1-.561.112c-.246,0-.371-.158-.371-.484v-.6a.832.832,0,0,1,.111-.465.819.819,0,0,1,.376-.283,16.909,16.909,0,0,1,6.217-1.152,7.223,7.223,0,0,1,4.853,1.38,5.209,5.209,0,0,1,1.587,4.169V48.5a.494.494,0,0,1-.557.561h-.784a.537.537,0,0,1-.6-.561l-.143-1.6a10.565,10.565,0,0,1-6.7,2.572m.3-1.936a9.154,9.154,0,0,0,3.057-.58,17.14,17.14,0,0,0,3.312-1.616V40.681a18.652,18.652,0,0,0-4.839-.669q-5.213,0-5.215,4.021a3.477,3.477,0,0,0,.928,2.615,3.865,3.865,0,0,0,2.757.892" transform="translate(-19.489 -23.652)" fill="#1b2430"/>
      <path id="Path_8" data-name="Path 8" d="M234.969,49.024a.5.5,0,0,1-.561-.561V30.84a.5.5,0,0,1,.561-.561h.71a.55.55,0,0,1,.631.561L236.5,33a9.392,9.392,0,0,1,2.769-2.219,7.071,7.071,0,0,1,3.072-.651c.4,0,.718.014.969.038a.533.533,0,0,1,.556.6v.929a.41.41,0,0,1-.111.279.376.376,0,0,1-.3.135c-.2,0-.385-.009-.556-.018s-.436-.024-.784-.024a6.93,6.93,0,0,0-3.034.636,8.076,8.076,0,0,0-2.552,2.048V48.462a.494.494,0,0,1-.557.561Z" transform="translate(-17.438 -23.611)" fill="#1b2430"/>
      <path id="Path_9" data-name="Path 9" d="M252.58,49.787a4.5,4.5,0,0,1-3.35-1.175,4.626,4.626,0,0,1-1.155-3.408V32.685h-2.937a.5.5,0,0,1-.562-.562v-.371a.7.7,0,0,1,.112-.446.625.625,0,0,1,.45-.191l3.011-.26.264-4.918a.746.746,0,0,1,.163-.427.532.532,0,0,1,.394-.13h.668a.49.49,0,0,1,.556.557v4.881h5.4a.494.494,0,0,1,.557.557v.747a.494.494,0,0,1-.557.562h-5.4V45.1a2.945,2.945,0,0,0,.65,2.155,3.056,3.056,0,0,0,2.181.632,8.609,8.609,0,0,0,1.9-.186c.269-.046.487-.093.649-.125a1.578,1.578,0,0,1,.353-.061c.273,0,.412.154.412.451v.557c0,.423-.139.688-.412.781a10.346,10.346,0,0,1-3.35.488" transform="translate(-16.282 -24.15)" fill="#1b2430"/>
      <path id="Path_10" data-name="Path 10" d="M259.243,49.066a.5.5,0,0,1-.562-.561V30.882a.5.5,0,0,1,.562-.561h.747a.552.552,0,0,1,.631.561l.148,1.6a15.41,15.41,0,0,1,3.837-2.015,11.812,11.812,0,0,1,3.907-.71,5.619,5.619,0,0,1,4.152,1.439,5.741,5.741,0,0,1,1.434,4.231V48.5a.493.493,0,0,1-.556.561h-1a.5.5,0,0,1-.566-.561V36.324a5.417,5.417,0,0,0-.923-3.524,3.724,3.724,0,0,0-2.983-1.1,12.854,12.854,0,0,0-7.261,2.383V48.5a.494.494,0,0,1-.557.561Z" transform="translate(-14.679 -23.653)" fill="#1b2430"/>
      <path id="Path_11" data-name="Path 11" d="M285.7,49.622q-4.432,0-6.662-2.512T276.8,39.638q0-4.693,2.251-7.285a7.921,7.921,0,0,1,6.314-2.591,6.777,6.777,0,0,1,5.2,1.937,7.9,7.9,0,0,1,1.805,5.553,12.45,12.45,0,0,1-.154,2.238.606.606,0,0,1-.631.561H278.967q.034,3.908,1.707,5.772t5.183,1.862a14.006,14.006,0,0,0,5.095-.929,2.271,2.271,0,0,1,.672-.186.336.336,0,0,1,.261.125.487.487,0,0,1,.116.321v.558a.779.779,0,0,1-.413.784,13.662,13.662,0,0,1-5.883,1.263m4.58-11.289c.023-.348.042-.757.042-1.231a5.724,5.724,0,0,0-1.309-4.062,5.046,5.046,0,0,0-3.837-1.375q-5.881,0-6.212,6.669Z" transform="translate(-12.619 -23.652)" fill="#1b2430"/>
      <path id="Path_12" data-name="Path 12" d="M295.549,49.024a.5.5,0,0,1-.561-.561V30.84a.5.5,0,0,1,.561-.561h.71a.55.55,0,0,1,.631.561l.19,2.16a9.331,9.331,0,0,1,2.769-2.219,7.07,7.07,0,0,1,3.071-.651c.4,0,.719.014.97.038a.533.533,0,0,1,.556.6v.929a.41.41,0,0,1-.111.279.376.376,0,0,1-.3.135c-.2,0-.385-.009-.556-.018s-.436-.024-.785-.024a6.929,6.929,0,0,0-3.033.636,8.025,8.025,0,0,0-2.552,2.048V48.462a.494.494,0,0,1-.557.561Z" transform="translate(-10.553 -23.611)" fill="#1b2430"/>
      <path id="Path_13" data-name="Path 13" d="M198.827,86.237a.5.5,0,0,1-.561-.561V68.054a.5.5,0,0,1,.561-.561h.747a.552.552,0,0,1,.631.561l.154,1.6a15.327,15.327,0,0,1,3.832-2.015,11.808,11.808,0,0,1,3.906-.711,5.623,5.623,0,0,1,4.153,1.44,5.744,5.744,0,0,1,1.434,4.23V85.676a.494.494,0,0,1-.557.561h-1a.5.5,0,0,1-.567-.561V73.5a5.388,5.388,0,0,0-.928-3.524,3.7,3.7,0,0,0-2.979-1.1,12.862,12.862,0,0,0-7.261,2.382V85.676a.493.493,0,0,1-.556.561Z" transform="translate(-21.545 -19.428)" fill="#1b2430"/>
      <path id="Path_14" data-name="Path 14" d="M225.289,86.793q-4.434,0-6.662-2.512t-2.236-7.472q0-4.693,2.25-7.285a7.921,7.921,0,0,1,6.314-2.591,6.788,6.788,0,0,1,5.2,1.936,7.9,7.9,0,0,1,1.8,5.554,12.566,12.566,0,0,1-.153,2.238.607.607,0,0,1-.631.561h-12.62q.036,3.908,1.708,5.772t5.178,1.862a14.012,14.012,0,0,0,5.1-.929,2.251,2.251,0,0,1,.673-.186.333.333,0,0,1,.26.125.483.483,0,0,1,.117.321v.557a.78.78,0,0,1-.413.785,13.667,13.667,0,0,1-5.883,1.262m4.579-11.288c.024-.349.042-.757.042-1.231a5.728,5.728,0,0,0-1.308-4.063,5.049,5.049,0,0,0-3.837-1.374q-5.881,0-6.213,6.669Z" transform="translate(-19.485 -19.428)" fill="#1b2430"/>
      <path id="Path_15" data-name="Path 15" d="M240.575,86.959a4.494,4.494,0,0,1-3.349-1.175,4.626,4.626,0,0,1-1.155-3.408V69.857h-2.942a.494.494,0,0,1-.557-.562v-.371a.7.7,0,0,1,.112-.447.626.626,0,0,1,.445-.19l3.015-.261.264-4.917a.742.742,0,0,1,.162-.428.532.532,0,0,1,.394-.13h.668a.491.491,0,0,1,.557.558v4.88h5.4a.494.494,0,0,1,.556.558v.747a.494.494,0,0,1-.556.562h-5.4V82.269a2.949,2.949,0,0,0,.649,2.155,3.061,3.061,0,0,0,2.185.632,8.6,8.6,0,0,0,1.9-.186c.269-.046.487-.093.649-.125a1.526,1.526,0,0,1,.353-.061c.274,0,.413.154.413.451v.557c0,.423-.139.688-.413.781a10.363,10.363,0,0,1-3.35.488" transform="translate(-17.646 -19.926)" fill="#1b2430"/>
      <path id="Path_16" data-name="Path 16" d="M251.352,86.18a.7.7,0,0,1-.71-.52l-5.92-17.329a1.936,1.936,0,0,1-.149-.562c0-.218.149-.334.45-.334h1.192a.612.612,0,0,1,.631.488l5.1,15.8,4.509-15.769a.7.7,0,0,1,.705-.52h1.374a.7.7,0,0,1,.705.52l4.472,15.876,5.215-15.908a.609.609,0,0,1,.631-.488h1.118c.3,0,.445.116.445.334a2.111,2.111,0,0,1-.149.562L264.9,85.66a.707.707,0,0,1-.711.52h-1.224a.7.7,0,0,1-.71-.52l-4.505-15.839L253.286,85.66a.7.7,0,0,1-.705.52Z" transform="translate(-16.282 -19.371)" fill="#1b2430"/>
      <path id="Path_17" data-name="Path 17" d="M279.291,86.8a7.982,7.982,0,0,1-6.37-2.623q-2.276-2.633-2.27-7.323t2.27-7.3a9.073,9.073,0,0,1,12.736,0q2.276,2.6,2.269,7.3t-2.269,7.323a7.967,7.967,0,0,1-6.365,2.623m0-1.937q6.437,0,6.439-8.01,0-7.976-6.439-7.977t-6.445,7.977q0,8.01,6.445,8.01" transform="translate(-13.319 -19.427)" fill="#1b2430"/>
      <path id="Path_18" data-name="Path 18" d="M291.068,86.2a.5.5,0,0,1-.562-.561V68.011a.5.5,0,0,1,.562-.561h.71a.551.551,0,0,1,.63.561l.186,2.16a9.4,9.4,0,0,1,2.775-2.219,7.056,7.056,0,0,1,3.071-.651c.4,0,.719.014.969.037a.534.534,0,0,1,.557.6v.929a.407.407,0,0,1-.112.279.374.374,0,0,1-.3.135c-.2,0-.385-.009-.557-.019s-.436-.023-.784-.023a6.933,6.933,0,0,0-3.034.636,8.1,8.1,0,0,0-2.552,2.048V85.634a.493.493,0,0,1-.556.561Z" transform="translate(-11.062 -19.386)" fill="#1b2430"/>
      <path id="Path_19" data-name="Path 19" d="M302.569,87.081a.5.5,0,0,1-.561-.561V60.066a.5.5,0,0,1,.561-.561h1.006a.494.494,0,0,1,.557.561V76.69l8.936-7.978a1.279,1.279,0,0,1,.932-.376h1.341c.293,0,.45.116.45.334,0,.131-.139.316-.413.562l-9.009,7.977,9.752,9.018c.223.194.334.361.334.483,0,.246-.144.371-.445.371h-1.6a1.209,1.209,0,0,1-.821-.334l-9.456-8.832v8.6a.494.494,0,0,1-.557.561Z" transform="translate(-9.755 -20.272)" fill="#1b2430"/>
    </g>
  </g>
</svg>
