<svg xmlns="http://www.w3.org/2000/svg" xmlns:xlink="http://www.w3.org/1999/xlink" width="70" height="50" viewBox="0 0 70 50">
  <defs>
    <clipPath id="clip-path">
      <rect id="Rectangle_4048" data-name="Rectangle 4048" width="70" height="50" transform="translate(-14073 9219)" fill="#fff"/>
    </clipPath>
  </defs>
  <g id="Mask_Group_31" data-name="Mask Group 31" transform="translate(14073 -9219)" clip-path="url(#clip-path)">
    <g id="Group_12209" data-name="Group 12209" transform="translate(-14073 9223)">
      <path id="Path_78" data-name="Path 78" d="M333.239,382.976a8.375,8.375,0,0,0,.254,2.249,13.987,13.987,0,0,0,.738,1.821,1.172,1.172,0,0,1,.162.583,1.014,1.014,0,0,1-.438.758L332.5,389.45a1.045,1.045,0,0,1-.6.227,1.027,1.027,0,0,1-.691-.354,7.676,7.676,0,0,1-.829-1.188c-.231-.431-.461-.911-.715-1.492a8.235,8.235,0,0,1-6.773,3.489,5.986,5.986,0,0,1-4.607-1.821,7.634,7.634,0,0,1,.393-10.062,7.9,7.9,0,0,1,5.643-1.973,16.433,16.433,0,0,1,2.442.2c.851.127,1.727.329,2.648.556v-1.848c0-1.921-.367-3.262-1.082-4.045a4.982,4.982,0,0,0-3.754-1.164,9.536,9.536,0,0,0-2.485.33,17.047,17.047,0,0,0-2.484.859,6.481,6.481,0,0,1-.808.33,1.342,1.342,0,0,1-.367.077c-.324,0-.484-.252-.484-.784v-1.241a1.735,1.735,0,0,1,.162-.884,1.758,1.758,0,0,1,.646-.531,12.561,12.561,0,0,1,2.9-1.138,12.741,12.741,0,0,1,3.592-.48c2.742,0,4.746.682,6.035,2.047,1.267,1.367,1.913,3.44,1.913,6.219v8.194h.038Zm-9.352,3.84a6.913,6.913,0,0,0,2.372-.455,5.133,5.133,0,0,0,2.189-1.62,4.162,4.162,0,0,0,.781-1.62,9.97,9.97,0,0,0,.231-2.2v-1.057a17.405,17.405,0,0,0-2.119-.431,15.858,15.858,0,0,0-2.167-.153,4.963,4.963,0,0,0-3.433,1.011,3.69,3.69,0,0,0-1.127,2.907,3.739,3.739,0,0,0,.851,2.68A3.028,3.028,0,0,0,323.887,386.816Zm18.5,2.732a1.209,1.209,0,0,1-.876-.253,2.137,2.137,0,0,1-.484-.986l-5.413-19.544a4.761,4.761,0,0,1-.208-1.012.548.548,0,0,1,.427-.628.445.445,0,0,1,.125,0h2.259a1.193,1.193,0,0,1,.9.252,2.146,2.146,0,0,1,.46.986l3.87,16.738,3.592-16.738a1.866,1.866,0,0,1,.438-.986,1.472,1.472,0,0,1,.923-.252h1.846a1.288,1.288,0,0,1,.923.252,1.768,1.768,0,0,1,.438.986l3.639,16.941,3.985-16.941a2.285,2.285,0,0,1,.46-.986,1.4,1.4,0,0,1,.9-.252h2.138a.525.525,0,0,1,.576.482.618.618,0,0,1,0,.149,2.643,2.643,0,0,1-.046.4,3.731,3.731,0,0,1-.162.632l-5.551,19.546a2.016,2.016,0,0,1-.483.986,1.363,1.363,0,0,1-.877.252H354.2a1.291,1.291,0,0,1-.923-.252,1.87,1.87,0,0,1-.438-1.011L349.271,372l-3.551,16.281a2.071,2.071,0,0,1-.437,1.011,1.332,1.332,0,0,1-.923.252Zm29.6.682a13.962,13.962,0,0,1-3.551-.454,9.864,9.864,0,0,1-2.646-1.012,1.738,1.738,0,0,1-.714-.707,1.925,1.925,0,0,1-.142-.708v-1.286c0-.531.185-.784.53-.784a1.2,1.2,0,0,1,.414.078c.142.05.345.153.576.251a11.735,11.735,0,0,0,2.533.885,12.7,12.7,0,0,0,2.742.3,5.75,5.75,0,0,0,3.363-.834,2.8,2.8,0,0,0,1.2-2.405,2.612,2.612,0,0,0-.622-1.771,5.61,5.61,0,0,0-2.326-1.311l-3.337-1.138a7,7,0,0,1-3.686-2.58,6.412,6.412,0,0,1-1.151-3.667,6.08,6.08,0,0,1,.623-2.807,6.367,6.367,0,0,1,1.657-2.073,7.08,7.08,0,0,1,2.4-1.316,9.294,9.294,0,0,1,2.9-.428,10.6,10.6,0,0,1,1.544.1c.53.077,1.013.177,1.5.278.46.127.9.252,1.313.4a4.839,4.839,0,0,1,.968.455,2.042,2.042,0,0,1,.691.632,1.452,1.452,0,0,1,.208.834v1.188c0,.532-.185.81-.529.81a2.263,2.263,0,0,1-.877-.3,9.739,9.739,0,0,0-4.422-.986,5.5,5.5,0,0,0-3.063.707,2.79,2.79,0,0,0-.393,4.045,6.665,6.665,0,0,0,2.534,1.389l3.272,1.141a6.955,6.955,0,0,1,3.57,2.428,6.12,6.12,0,0,1,1.059,3.54,7.04,7.04,0,0,1-.6,2.931,6.7,6.7,0,0,1-1.68,2.225,7.205,7.205,0,0,1-2.556,1.417,10.067,10.067,0,0,1-3.3.53Z" transform="translate(-313.471 -366.462)" fill="#313e4f"/>
      <path id="Path_79" data-name="Path 79" d="M377.3,395.623c-7.636,6.144-18.725,9.405-28.261,9.405a48.806,48.806,0,0,1-34.5-14.336c-.72-.707-.072-1.668.786-1.111a65.207,65.207,0,0,0,34.524,9.988A64.01,64.01,0,0,0,376.18,393.7C377.457,393.07,378.546,394.612,377.3,395.623Zm3.179-3.943c-.976-1.367-6.449-.658-8.932-.33-.743.1-.859-.607-.186-1.138,4.361-3.337,11.529-2.377,12.366-1.263.835,1.138-.233,8.951-4.315,12.692-.627.583-1.23.279-.953-.48.926-2.506,2.988-8.142,2.016-9.481Z" transform="translate(-314.228 -362.899)" fill="#ffa900"/>
    </g>
  </g>
</svg>
