<svg width="85" height="85" viewBox="0 0 85 85" fill="none" xmlns="http://www.w3.org/2000/svg">
<circle cx="42.5" cy="42.5" r="42.5" fill="#F5F7FA"/>
<path d="M31.2451 40.0584C31.2313 40.6199 31.2937 41.1882 31.4323 41.7358C31.5848 42.2003 31.765 42.651 31.9799 43.0946C32.0562 43.2263 32.0978 43.3787 32.0978 43.5312C32.077 43.76 31.9591 43.968 31.772 44.0927L30.6906 44.8829C30.5658 44.9869 30.4064 45.0423 30.247 45.0493C30.0459 45.0354 29.8657 44.9384 29.734 44.7859C29.4983 44.5087 29.2973 44.2175 29.1171 43.8986C28.9438 43.5798 28.7705 43.2193 28.5834 42.7895C27.4257 44.4254 25.5472 45.3958 23.537 45.3889C22.2477 45.4513 21 44.9592 20.1058 44.0303C18.3104 41.8121 18.4352 38.6096 20.3969 36.537C21.5545 35.518 23.0587 34.9844 24.5976 35.0675C25.2076 35.0745 25.8176 35.123 26.4137 35.22C27.0445 35.3171 27.703 35.4627 28.3892 35.636V34.2566C28.3892 32.8286 28.1189 31.8304 27.5852 31.2412C27.0376 30.6589 26.1087 30.3747 24.7916 30.3747C24.1678 30.3747 23.5439 30.458 22.9409 30.6174C22.3101 30.7838 21.6932 30.9986 21.0901 31.2551C20.896 31.3521 20.695 31.4352 20.487 31.4976C20.3969 31.5322 20.3068 31.5461 20.2167 31.5531C19.9741 31.5531 19.8562 31.3659 19.8562 30.9708V30.0489C19.8354 29.8202 19.877 29.5984 19.9741 29.3905C20.0989 29.2241 20.2652 29.0854 20.4523 28.9953C21.1317 28.621 21.8595 28.3368 22.6151 28.1496C23.4885 27.907 24.3827 27.7822 25.2908 27.7961C27.3356 27.7961 28.826 28.3021 29.7825 29.3211C30.7253 30.34 31.2036 31.8858 31.2036 33.9515V40.0515L31.2451 40.0584ZM24.2787 42.9213C24.8818 42.9144 25.4779 42.7964 26.0463 42.5815C26.691 42.3319 27.2525 41.916 27.6753 41.3754C27.9526 41.0218 28.1536 40.6059 28.2575 40.1692C28.3754 39.6286 28.4308 39.081 28.4308 38.5334V37.7431C27.911 37.6045 27.3842 37.4936 26.8504 37.4243C26.3167 37.348 25.776 37.3134 25.2353 37.3065C24.3203 37.2302 23.4053 37.5006 22.6775 38.0621C22.0883 38.6236 21.7832 39.4137 21.8387 40.2248C21.7832 40.9457 22.012 41.6597 22.4695 42.2212C22.9409 42.7134 23.5994 42.9698 24.2787 42.9213ZM38.0522 44.9523C37.8165 44.98 37.5877 44.9107 37.4006 44.7651C37.2203 44.5572 37.0956 44.3006 37.0401 44.0303L33.0058 29.4735C32.9296 29.2309 32.8741 28.9744 32.8533 28.7179C32.8187 28.503 32.9573 28.2951 33.1722 28.2535C33.1999 28.2466 33.2346 28.2466 33.2693 28.2535H34.9537C35.1963 28.2258 35.4319 28.2882 35.6191 28.4407C35.7924 28.6487 35.9103 28.9052 35.9588 29.1755L38.8424 41.6389L41.5181 29.1686C41.5527 28.8982 41.6636 28.6417 41.8439 28.4338C42.0449 28.2951 42.2875 28.2327 42.5301 28.2466H43.9026C44.1452 28.2189 44.3947 28.2882 44.5888 28.4338C44.7691 28.6417 44.8869 28.8982 44.9146 29.1686L47.625 41.7844L50.5918 29.1686C50.6472 28.8982 50.7651 28.6487 50.9314 28.4338C51.1255 28.2951 51.3612 28.2327 51.6038 28.2466H53.1981C53.413 28.2258 53.6071 28.3783 53.6279 28.5932V28.6001C53.6348 28.6348 53.6348 28.6765 53.6279 28.7111C53.621 28.8151 53.6141 28.9121 53.5933 29.0092C53.5655 29.1686 53.5239 29.328 53.4754 29.4805L49.3441 44.0372C49.2955 44.3076 49.1708 44.5641 48.9836 44.772C48.7964 44.9107 48.5608 44.9731 48.332 44.9592H46.8555C46.6129 44.9869 46.3634 44.9176 46.1693 44.772C45.9891 44.5572 45.8712 44.2937 45.8435 44.0164L43.1817 31.8719L40.5407 43.9956C40.4991 44.2729 40.3882 44.5294 40.2149 44.7512C40.0139 44.8968 39.7712 44.9661 39.5286 44.9384L38.0522 44.9523ZM60.0952 45.4583C59.201 45.4583 58.3138 45.3474 57.4473 45.1186C56.7541 44.9661 56.0956 44.7096 55.4787 44.363C55.2499 44.2452 55.0697 44.058 54.9449 43.8362C54.8756 43.6698 54.841 43.4896 54.841 43.3094V42.3529C54.841 41.9577 54.9796 41.7705 55.2361 41.7705C55.3401 41.7705 55.444 41.7914 55.5411 41.826C55.6451 41.8607 55.7976 41.9439 55.9709 42.0132C56.5739 42.3043 57.2047 42.5261 57.8563 42.6717C58.5287 42.8173 59.2149 42.8936 59.9012 42.8936C60.7815 42.949 61.6549 42.7271 62.4035 42.2696C62.9858 41.8676 63.3255 41.1884 63.2978 40.4813C63.3116 40.003 63.1452 39.5316 62.8333 39.1642C62.3411 38.7067 61.745 38.3671 61.1003 38.1868L58.6119 37.3412C57.5097 37.0223 56.5462 36.343 55.8669 35.4211C55.3054 34.617 55.0073 33.6674 55.0073 32.69C54.9935 31.9691 55.1529 31.2482 55.4717 30.5966C55.7698 30.0004 56.1927 29.4736 56.7056 29.0508C57.2324 28.6141 57.8355 28.2813 58.4871 28.0733C59.1872 27.8515 59.915 27.7475 60.6498 27.7545C61.0311 27.7545 61.4192 27.7753 61.8005 27.8308C62.1956 27.8863 62.556 27.9624 62.9165 28.0386C63.2561 28.1357 63.582 28.2259 63.8939 28.3368C64.1434 28.42 64.386 28.5378 64.6148 28.6765C64.8227 28.7943 64.996 28.9537 65.1277 29.1478C65.2386 29.3349 65.2941 29.5497 65.2802 29.7716V30.6589C65.2802 31.054 65.1416 31.262 64.8851 31.262C64.6564 31.2343 64.4346 31.158 64.2335 31.0401C63.2076 30.541 62.0777 30.2915 60.9409 30.3053C60.1438 30.2568 59.3536 30.437 58.6604 30.8321C57.7523 31.5323 57.5859 32.8423 58.293 33.7504C58.3207 33.7851 58.3415 33.8129 58.3692 33.8475C58.9168 34.3258 59.5615 34.6794 60.2547 34.8804L62.6947 35.733C63.7483 36.038 64.6841 36.6688 65.3565 37.5422C65.8833 38.3186 66.1606 39.2404 66.1467 40.1762C66.1536 40.9248 66.0011 41.6736 65.7031 42.3598C65.405 42.9906 64.9822 43.5589 64.4554 44.0164C63.9008 44.4947 63.2492 44.8552 62.5491 45.0701C61.7589 45.3335 60.927 45.4652 60.0952 45.4583Z" fill="#313E4F"/>
<path d="M63.4919 52.1336C57.8078 56.7086 49.5451 59.1348 42.447 59.1348C32.8049 59.1278 23.5648 55.2877 16.7578 48.4599C16.2241 47.9331 16.7023 47.219 17.347 47.6349C25.0551 52.4732 33.9625 55.0519 43.057 55.0727C49.8294 55.0241 56.5116 53.5409 62.667 50.7058C63.6097 50.2275 64.4207 51.378 63.4919 52.1336ZM65.8556 49.1945C65.1278 48.1755 61.0519 48.7025 59.2011 48.9451C58.6466 49.0213 58.5634 48.4945 59.0625 48.0994C62.3065 45.6178 67.651 46.3317 68.2748 47.1566C68.8987 48.0023 68.1015 53.8251 65.0585 56.6117C64.5941 57.0484 64.1435 56.8196 64.3514 56.2512C65.0377 54.3935 66.5765 50.1927 65.8556 49.1945Z" fill="#FFA900"/>
</svg>
