<svg width="74" height="65" viewBox="0 0 74 65" fill="none" xmlns="http://www.w3.org/2000/svg">
<path d="M69.4534 28.1134C70.7433 54.6852 52.079 39.4045 42 53.6067C30.336 70.0423 8.71211 56.8952 4.64996 39.4045C-0.498642 -0.970906 65.0875 -7.94438 69.4534 28.1134Z" fill="#8EE29C"/>
<path d="M35.2914 42.2695L42.8309 40.9323H42.8885L39.0324 36.2811C37.7086 34.7113 36.4424 33.1416 35.1763 31.5718C35.1763 31.5718 39.205 20.409 39.205 20.3509C39.205 20.3509 41.9101 25.1183 45.8237 31.8625L52.4424 43.4904L52.5 43.6067H40.1835H27.8669L35.2914 42.2695ZM20.5 40.8741C20.5 40.8741 22.3417 37.6765 24.5863 33.723L28.6727 26.6299L33.3921 22.6183C35.982 20.409 38.1115 18.6067 38.1115 18.6067C38.1115 18.6648 38.054 18.723 38.054 18.7811L32.9317 29.9439L27.8669 40.8741H24.1835C22.1691 40.8741 20.5 40.8741 20.5 40.8741Z" fill="black"/>
</svg>
