<?xml version="1.0" standalone="no"?>
<!DOCTYPE svg PUBLIC "-//W3C//DTD SVG 20010904//EN"
 "http://www.w3.org/TR/2001/REC-SVG-20010904/DTD/svg10.dtd">
<svg version="1.0" xmlns="http://www.w3.org/2000/svg"
 width="5120.000000pt" height="5120.000000pt" viewBox="0 0 5120.000000 5120.000000"
 preserveAspectRatio="xMidYMid meet">

<g transform="translate(0.000000,5120.000000) scale(0.100000,-0.100000)"
fill="#000000" stroke="none">
<path d="M19216 38669 c-213 -37 -451 -135 -631 -260 -39 -27 -116 -89 -171
-138 -54 -49 -2698 -2689 -5875 -5867 -4513 -4517 -5788 -5797 -5833 -5861
-163 -232 -257 -468 -291 -731 -54 -412 45 -804 291 -1155 45 -64 1320 -1344
5833 -5861 3177 -3178 5821 -5818 5875 -5867 179 -160 361 -268 572 -338 168
-57 321 -81 504 -81 172 0 265 11 405 47 460 119 836 428 1041 857 108 226
144 378 151 641 5 163 2 207 -15 311 -45 260 -143 490 -304 706 -43 58 -1381
1403 -4482 4506 l-4421 4422 15700 0 c10128 0 15733 4 15793 10 552 58 1025
385 1272 879 159 318 206 674 135 1027 -31 154 -72 269 -146 414 -249 485
-714 802 -1261 860 -60 6 -5665 10 -15793 10 l-15700 0 4421 4423 c3101 3102
4439 4447 4482 4505 161 216 259 446 304 706 17 104 20 148 15 311 -7 263 -43
415 -151 641 -232 484 -694 823 -1219 893 -126 17 -376 12 -501 -10z"/>
</g>
</svg>
