<svg width="19" height="18" viewBox="0 0 19 18" fill="none" xmlns="http://www.w3.org/2000/svg">
<rect x="0.5" width="18" height="18" rx="9" fill="#FFB42C"/>
<path d="M9.95972 4.31323L11.0343 6.8191C11.1118 6.99312 11.2558 7.10913 11.4331 7.12073L14.0474 7.41077C14.4794 7.45717 14.6567 8.01403 14.3354 8.32726L12.3857 10.1719C12.2528 10.2995 12.1974 10.4851 12.2307 10.6707L12.7735 13.3622C12.8621 13.8031 12.4079 14.1511 12.0313 13.9307L9.74925 12.5617C9.59416 12.4689 9.40584 12.4689 9.25075 12.5617L6.96874 13.9307C6.5921 14.1511 6.13791 13.8147 6.22653 13.3622L6.76934 10.6707C6.80258 10.4851 6.74719 10.2995 6.61425 10.1719L4.66458 8.32726C4.34332 8.02563 4.52056 7.46877 4.9526 7.41077L7.56694 7.12073C7.74418 7.09753 7.89927 6.98152 7.96574 6.8191L9.04028 4.31323C9.21752 3.89559 9.78248 3.89559 9.95972 4.31323Z" stroke="white" stroke-width="1.2" stroke-miterlimit="10" stroke-linejoin="round"/>
</svg>
