<svg width="47" height="65" viewBox="0 0 47 65" fill="none" xmlns="http://www.w3.org/2000/svg">
<g clip-path="url(#clip0_1_309)">
<path d="M8.10947 49.6684C8.8149 49.0369 9.44195 48.3508 10.1836 47.8407C11.1603 47.1667 12.2275 46.6263 13.2525 46.0191C13.9338 45.6184 14.6212 45.2176 15.2964 44.7926C16.5144 44.0275 17.678 43.1714 18.9382 42.4913C20.138 41.8417 21.4584 41.532 22.8512 41.8295C25.0218 42.291 26.0709 44.319 25.2026 46.3835C24.7203 47.525 23.8521 48.284 22.809 48.8851C21.2353 49.7959 19.6798 50.7249 18.1182 51.6539C18.0277 51.7085 17.9494 51.7753 17.7564 51.9211C18.0639 51.9514 18.2508 51.9818 18.4438 51.9878C20.7651 52.1154 23.0863 52.2186 25.4016 52.3825C26.3482 52.4493 27.1622 52.2672 27.9641 51.7268C30.4602 50.0388 32.9926 48.4054 35.5068 46.7417C36.6041 46.0131 37.7798 45.5334 39.1184 45.6245C40.3182 45.7034 41.307 46.1527 41.6989 47.3185C42.6817 47.2821 43.6223 47.1849 44.5508 47.2335C45.009 47.2578 45.4974 47.4764 45.9014 47.7253C47.0228 48.4236 47.2761 49.6987 46.5224 50.7917C46.2873 51.1317 45.9918 51.4657 45.6542 51.7025C40.7101 55.1513 35.7661 58.5941 30.8099 62.0247C29.0855 63.2148 27.1984 63.7188 25.07 63.7127C19.6496 63.6945 14.2292 63.8402 8.80887 63.907C8.39285 63.907 8.10344 64.0163 7.77183 64.3199C7.41006 64.6478 6.85537 64.9028 6.36699 64.9332C4.8898 65.0243 3.40658 65.0182 1.92337 65.0061C0.87426 64.9939 0.108534 64.1499 0.096475 63.0266C0.0723577 61.0897 0.0844164 59.1466 0.0663284 57.2097C0.0542697 55.0724 0.024123 52.929 0.0120643 50.7917C0.00603496 49.4073 0.675292 48.6665 2.04998 48.6118C3.48496 48.5572 4.92598 48.5572 6.36096 48.5633C7.05433 48.5633 7.41006 48.8122 8.1155 49.6805L8.10947 49.6684ZM8.23005 62.043C8.45917 62.0672 8.54358 62.0915 8.62799 62.0915C14.4222 62.0187 20.2164 61.9337 26.0106 61.879C27.0416 61.8669 27.9581 61.5876 28.8383 61.0775C34.3974 57.8715 39.462 53.9369 44.6593 50.1966C44.8824 50.0388 45.1598 49.6076 45.0874 49.468C44.9668 49.2251 44.6111 49.0247 44.3217 48.9579C43.369 48.7211 42.4888 49.0187 41.6447 49.4437C38.8531 50.8402 36.0735 52.2489 33.2639 53.609C32.6971 53.8823 32.058 54.0523 31.431 54.1312C30.5808 54.2405 29.7066 54.2527 28.8504 54.2345C24.6479 54.1495 20.4576 53.9612 16.3154 53.1537C15.405 52.9776 15.0311 52.3339 15.616 51.6114C16.0561 51.071 16.5988 50.5731 17.1836 50.1966C18.7513 49.2008 20.3611 48.2718 21.9649 47.3246C22.6643 46.9117 23.2913 46.4381 23.6049 45.6488C24.0028 44.6347 23.5928 43.73 22.5316 43.5964C21.8383 43.5114 21.0243 43.5418 20.4093 43.8272C19.119 44.4344 17.9192 45.2359 16.6892 45.9766C15.8391 46.4927 15.0613 47.1728 14.1509 47.5371C12.6978 48.114 11.4618 48.964 10.3343 50.0205C9.64092 50.6763 8.67623 51.2167 8.33255 52.0243C7.97682 52.8561 8.22403 53.9491 8.218 54.9206C8.218 57.2765 8.218 59.6385 8.218 62.049L8.23005 62.043ZM1.83292 50.2998C1.77263 50.5366 1.73043 50.6156 1.73043 50.7006C1.75454 54.7263 1.77866 58.758 1.79675 62.7837C1.79675 63.1966 2.00778 63.2513 2.33939 63.2391C3.5332 63.2027 4.72701 63.1541 5.91479 63.1723C6.46346 63.1784 6.57199 62.972 6.56596 62.468C6.51772 59.0191 6.49963 55.5703 6.47552 52.1214C6.47552 51.6539 6.49963 51.1863 6.4514 50.7188C6.43331 50.567 6.22831 50.312 6.1017 50.312C4.67274 50.2816 3.23776 50.2938 1.83292 50.2938V50.2998ZM30.2854 52.2914C30.3095 52.3825 30.3336 52.4675 30.3577 52.5586C31.0632 52.3886 31.8289 52.3339 32.474 52.0364C34.7531 50.9678 36.99 49.8141 39.2389 48.6908C39.3776 48.624 39.5585 48.5815 39.6429 48.4722C39.7816 48.29 39.9504 48.0593 39.9384 47.8529C39.9384 47.7193 39.655 47.5371 39.4681 47.4825C38.5576 47.2032 37.6954 47.4582 36.9418 47.9439C34.7049 49.3708 32.4981 50.8402 30.2794 52.2975L30.2854 52.2914Z" fill="#F06421"/>
<path d="M20.6746 39.3886C20.8796 38.2046 21.0725 37.0206 21.2896 35.8366C21.368 35.4297 21.3017 35.1322 20.9821 34.8347C20.1501 34.0635 19.3361 33.2742 18.5764 32.4423C18.3413 32.1873 18.1363 31.6955 18.2267 31.4101C18.3232 31.1247 18.7754 30.8515 19.113 30.7847C20.2586 30.554 21.4283 30.4325 22.5799 30.2261C22.809 30.1836 23.0924 29.9832 23.2009 29.7768C23.7435 28.7567 24.244 27.7184 24.7504 26.6801C24.9434 26.2854 25.1665 25.83 25.6548 25.9697C25.9985 26.0668 26.3663 26.3886 26.5472 26.7104C27.1019 27.6941 27.5481 28.7445 28.0847 29.7403C28.2053 29.965 28.5067 30.1775 28.76 30.2261C29.9116 30.4386 31.0812 30.56 32.2268 30.7908C32.5464 30.8515 32.9684 31.1247 33.0589 31.398C33.1493 31.6712 32.9805 32.1509 32.7634 32.3877C31.9736 33.256 31.0933 34.0453 30.2914 34.9015C30.1045 35.1018 29.9719 35.4844 30.008 35.7576C30.1527 36.8809 30.418 37.9921 30.5446 39.1154C30.5868 39.4797 30.4602 40.008 30.213 40.2144C30.002 40.3905 29.4473 40.3298 29.1338 40.1841C28.0907 39.6983 27.1019 39.1093 26.0648 38.6114C25.8357 38.5021 25.4679 38.4961 25.2388 38.6114C24.1656 39.1336 23.1225 39.7226 22.0553 40.2569C21.2836 40.6395 20.6143 40.2083 20.6625 39.3947L20.6746 39.3886ZM20.9098 32.2663C21.5911 32.9585 22.2241 33.5231 22.7547 34.1728C22.9838 34.4582 23.1225 34.9258 23.0924 35.2962C23.0321 36.128 22.8452 36.9538 22.6884 37.901C23.5205 37.4638 24.25 37.1056 24.9554 36.7048C25.4076 36.4498 25.8176 36.4437 26.2698 36.6927C26.9813 37.0874 27.7108 37.4517 28.555 37.8889C28.4042 36.9841 28.3017 36.2009 28.145 35.4237C28.0304 34.865 28.157 34.44 28.5791 34.0514C29.1699 33.4989 29.7186 32.8977 30.3396 32.2602C29.5016 32.1387 28.76 32.0112 28.0183 31.9323C27.3853 31.8655 26.9692 31.5923 26.71 30.979C26.4085 30.2625 26.0226 29.5825 25.6307 28.7931C25.2268 29.6068 24.8469 30.2868 24.5454 30.9972C24.2982 31.5801 23.9003 31.8534 23.2913 31.9202C22.5256 32.0052 21.7719 32.1327 20.9037 32.2602L20.9098 32.2663Z" fill="#F06421"/>
<path d="M34.8617 31.0093C35.0064 30.135 35.1933 29.1756 35.3078 28.2041C35.338 27.9248 35.2355 27.5483 35.0486 27.3479C34.4577 26.6861 33.7583 26.1214 33.1795 25.4535C32.9383 25.1742 32.7032 24.6581 32.8057 24.3666C32.9021 24.0691 33.3905 23.8019 33.7583 23.723C34.6386 23.5226 35.549 23.4498 36.4413 23.2797C36.6524 23.2372 36.9056 23.049 37.0141 22.8547C37.4482 22.0532 37.7919 21.2031 38.2562 20.4259C38.4431 20.1041 38.8591 19.7216 39.1606 19.7277C39.4681 19.7277 39.86 20.1284 40.0529 20.4502C40.487 21.1728 40.8548 21.9379 41.1864 22.7151C41.3673 23.1401 41.6386 23.3101 42.0728 23.3648C42.947 23.4741 43.8333 23.5773 44.6895 23.7716C45.003 23.8444 45.419 24.1177 45.5034 24.3909C45.5879 24.6641 45.413 25.1256 45.1959 25.3746C44.6111 26.0425 43.972 26.6618 43.3088 27.2508C42.9591 27.5605 42.8927 27.8823 42.9772 28.3073C43.1339 29.1392 43.3088 29.971 43.3811 30.8089C43.4113 31.1793 43.3088 31.7319 43.0676 31.9019C42.8204 32.078 42.2717 31.993 41.9341 31.8472C41.1623 31.5194 40.4207 31.1065 39.6972 30.6814C39.2993 30.4446 38.9857 30.475 38.5998 30.6996C37.816 31.149 37.0081 31.574 36.1941 31.9687C35.4465 32.333 34.8375 31.9201 34.8617 31.0154V31.0093ZM39.1666 22.545C38.9073 23.0672 38.6541 23.468 38.4974 23.8991C38.2321 24.6459 37.7437 24.9981 36.9599 25.0224C36.5077 25.0345 36.0615 25.156 35.4465 25.2592C35.9891 25.7753 36.4775 26.1457 36.8333 26.6132C37.0563 26.9108 37.183 27.3601 37.1769 27.7426C37.1709 28.3316 37.0081 28.9145 36.8935 29.6128C37.5025 29.291 38.015 29.042 38.5094 28.7566C38.9556 28.4955 39.3716 28.4955 39.8178 28.7566C40.3122 29.042 40.8247 29.2849 41.4336 29.5946C41.3372 28.9752 41.2889 28.4712 41.1683 27.9794C41.0176 27.3479 41.1442 26.8561 41.6447 26.4311C42.0366 26.0971 42.3742 25.7024 42.8264 25.241C42.1511 25.1438 41.6326 25.0528 41.1141 24.9981C40.5594 24.9435 40.1735 24.7067 39.9504 24.1663C39.7394 23.6562 39.4681 23.1705 39.1606 22.5511L39.1666 22.545Z" fill="#F06421"/>
<path d="M7.80798 29.8436C7.96475 28.9449 8.11548 27.9977 8.29033 27.0565C8.36871 26.6315 8.31445 26.3097 7.96475 25.994C7.30152 25.405 6.66241 24.7856 6.07756 24.1177C5.86051 23.8688 5.65551 23.3952 5.75198 23.1401C5.86051 22.8487 6.28256 22.5572 6.6202 22.4844C7.5246 22.2779 8.45312 22.2111 9.36355 22.0351C9.5987 21.9865 9.88208 21.7861 9.99663 21.5797C10.4428 20.76 10.7985 19.8917 11.2628 19.0841C11.4256 18.7987 11.8115 18.4587 12.0828 18.4708C12.3903 18.483 12.7942 18.7926 12.9691 19.0841C13.4454 19.8856 13.7951 20.7539 14.2473 21.5736C14.3619 21.7861 14.6453 21.9865 14.8804 22.0351C15.7908 22.2111 16.7193 22.284 17.6237 22.4844C17.9433 22.5512 18.3654 22.8123 18.4618 23.0855C18.5583 23.3587 18.3895 23.8324 18.1784 24.0752C17.5514 24.7917 16.8218 25.4171 16.1707 26.1154C16.0079 26.2915 15.9054 26.6254 15.9355 26.8622C16.0441 27.7427 16.2671 28.611 16.3516 29.4975C16.3877 29.8739 16.2792 30.3475 16.0561 30.6329C15.7547 31.0215 15.2904 30.8151 14.9045 30.6086C14.1207 30.1897 13.3489 29.7586 12.547 29.3882C12.3119 29.2789 11.9501 29.2728 11.721 29.3882C10.8407 29.8011 10.0027 30.299 9.12841 30.724C8.44106 31.0579 7.77784 30.6208 7.80195 29.8496L7.80798 29.8436ZM14.4101 28.3316C14.3076 27.682 14.2533 27.1051 14.1207 26.5526C13.9881 26.0061 14.1508 25.6054 14.5428 25.241C14.9588 24.8585 15.3507 24.4517 15.833 23.972C15.2301 23.8809 14.7779 23.7838 14.3257 23.7595C13.5539 23.717 13.0595 23.3648 12.7942 22.624C12.6375 22.1929 12.3782 21.7983 12.119 21.3004C11.8115 21.9258 11.5582 22.4115 11.3291 22.9216C11.1181 23.3891 10.8106 23.6563 10.28 23.7048C9.70722 23.7595 9.14047 23.8809 8.51945 23.9781C9.11032 24.6399 9.87605 25.15 10.0991 25.8422C10.3222 26.5465 10.0147 27.4269 9.93031 28.3195C10.5091 28.0159 11.0216 27.767 11.516 27.4755C11.9441 27.2266 12.336 27.2326 12.7641 27.4755C13.2826 27.767 13.8192 28.022 14.4222 28.3316H14.4101Z" fill="#F06421"/>
<path d="M25.6126 10.3284C25.9804 10.6805 26.312 10.8748 26.4748 11.1663C26.927 11.9799 27.2828 12.8482 27.741 13.6619C27.8736 13.8987 28.1992 14.1112 28.4705 14.1719C29.3327 14.3541 30.2251 14.4087 31.0812 14.6091C31.4249 14.688 31.9073 14.9491 31.9796 15.2223C32.064 15.5381 31.853 16.036 31.6179 16.3092C31.039 16.9832 30.3457 17.5479 29.7548 18.2097C29.5679 18.4162 29.4533 18.7926 29.4835 19.0719C29.586 19.9524 29.8151 20.8207 29.8995 21.7072C29.9357 22.0593 29.8211 22.5694 29.586 22.7576C29.3569 22.9337 28.8263 22.8912 28.5128 22.7576C27.7048 22.4054 26.927 21.9743 26.1613 21.5311C25.7875 21.3125 25.4921 21.3428 25.1303 21.5493C24.3585 21.9865 23.5868 22.4176 22.7788 22.7758C22.4774 22.9094 21.9709 22.958 21.7599 22.794C21.5127 22.5997 21.368 22.1079 21.3921 21.7618C21.4645 20.8996 21.6333 20.0435 21.8202 19.1995C21.9287 18.7198 21.7961 18.4101 21.4524 18.0883C20.8133 17.5054 20.1862 16.9043 19.6195 16.2546C19.4024 16.0056 19.1854 15.532 19.2818 15.277C19.3964 14.9795 19.8184 14.6941 20.1561 14.6212C21.0605 14.4148 21.989 14.348 22.8994 14.1719C23.1346 14.1294 23.4119 13.923 23.5265 13.7104C23.9727 12.8968 24.3465 12.0346 24.7926 11.2149C24.9554 10.9173 25.2629 10.6988 25.6187 10.3344L25.6126 10.3284ZM27.9098 20.4746C27.8073 19.8309 27.7711 19.3148 27.6385 18.8291C27.4697 18.1854 27.6385 17.7058 28.1329 17.2929C28.5308 16.965 28.9107 16.6067 29.2966 16.2606C28.6454 16.0117 28.1329 15.9206 27.6083 15.866C27.0235 15.8113 26.6316 15.5381 26.4025 14.9795C26.1915 14.4755 25.9262 13.9958 25.6428 13.419C25.3413 14.0262 25.064 14.5301 24.8349 15.0584C24.6238 15.5381 24.2922 15.781 23.7797 15.8417C23.219 15.9024 22.6643 16.0056 21.8624 16.1271C22.405 16.6189 22.7969 16.9953 23.213 17.3475C23.6712 17.7361 23.7918 18.1976 23.6531 18.7805C23.5265 19.3027 23.4783 19.8431 23.3818 20.4746C24.0028 20.1467 24.5213 19.9038 25.0157 19.6123C25.4438 19.3573 25.8297 19.3695 26.2578 19.6123C26.7522 19.8977 27.2707 20.1406 27.9038 20.4685L27.9098 20.4746Z" fill="#F06421"/>
<path d="M15.1155 1.96124C15.2542 2.09483 15.616 2.28913 15.7305 2.58058C16.4601 4.42037 17.1414 6.27838 17.8167 8.13639C18.0157 8.68287 17.7745 9.20505 17.3042 9.33864C16.7796 9.48436 16.3817 9.28399 16.1888 8.76787C15.4833 6.89772 14.7839 5.02149 14.1086 3.1392C13.8916 2.53808 14.2956 1.97946 15.1155 1.96124Z" fill="#F06421"/>
<path d="M36.2002 1.96729C36.9478 1.96729 37.406 2.50161 37.2131 3.05416C36.5197 5.00325 35.7962 6.93412 35.0546 8.865C34.8677 9.35682 34.4215 9.49648 33.9512 9.32039C33.499 9.15038 33.282 8.73749 33.4387 8.29423C34.1442 6.32693 34.8737 4.37177 35.6394 2.42875C35.7299 2.19195 36.0856 2.06444 36.2062 1.97336L36.2002 1.96729Z" fill="#F06421"/>
<path d="M9.49623 14.014C9.21285 13.8319 8.94756 13.7347 8.78476 13.5525C7.48243 12.0649 6.19215 10.5712 4.91393 9.06539C4.53408 8.61607 4.56422 8.07566 4.97422 7.766C5.41436 7.43204 5.8545 7.49276 6.21626 7.89958C7.52463 9.40542 8.83903 10.9113 10.1052 12.4535C10.28 12.6721 10.2921 13.1397 10.1956 13.425C10.1172 13.6558 9.76152 13.7954 9.49623 14.0079V14.014Z" fill="#F06421"/>
<path d="M46.7214 8.35498C46.5465 8.67679 46.4621 8.93788 46.2993 9.12611C45.0693 10.5773 43.8273 12.0224 42.5732 13.4615C42.133 13.9654 41.6507 14.0322 41.2467 13.6861C40.8367 13.34 40.8428 12.8057 41.2889 12.2774C42.5129 10.8445 43.7429 9.41756 44.9668 7.98459C45.2683 7.62634 45.6481 7.42597 46.0702 7.64456C46.3295 7.77814 46.4922 8.08781 46.7214 8.3489V8.35498Z" fill="#F06421"/>
<path d="M26.505 3.94067C26.505 4.87574 26.511 5.81082 26.505 6.7459C26.4989 7.43202 26.1492 7.83884 25.6066 7.8267C25.0881 7.80848 24.7685 7.41988 24.7685 6.75804C24.7625 4.8636 24.7625 2.97523 24.7685 1.08079C24.7685 0.382516 25.1122 -0.0182309 25.6609 -1.5105e-05C26.1734 0.0182007 26.505 0.418948 26.511 1.06864C26.517 2.02801 26.511 2.9813 26.511 3.94067H26.505Z" fill="#F06421"/>
</g>
<defs>
<clipPath id="clip0_1_309">
<rect width="46.9444" height="65" fill="white"/>
</clipPath>
</defs>
</svg>
