<svg width="50" height="50" viewBox="0 0 50 50" fill="none" xmlns="http://www.w3.org/2000/svg">
<path d="M0 25C0 11.1929 11.1929 0 25 0H45C47.7614 0 50 2.23858 50 5V25C50 38.8071 38.8071 50 25 50C11.1929 50 0 38.8071 0 25Z" fill="#CFF0E5"/>
<g clip-path="url(#clip0_635_4)">
<path d="M30.1001 24.2C29.9001 24 29.7001 23.9 29.4001 23.8C29.3001 23.7 29.1001 23.6 29.0001 23.5C27.9001 22.8 26.9001 22.1 25.8001 21.4C24.7001 20.7 23.7001 20 22.6001 19.3C22.4001 19.1 22.1001 19 21.7001 19.1C21.4001 19.1 21.2001 19.3 21.0001 19.5C20.9001 19.6 20.9001 19.9 20.9001 20.2V30.2C20.9001 30.6 21.1001 31 21.5001 31.2C21.7001 31.3 21.9001 31.3 22.1001 31.3C22.3001 31.3 22.5001 31.2 22.7001 31.1C23.3001 30.7 23.8001 30.4 24.4001 30C26.4001 28.7 28.3001 27.4 30.2001 26.1C30.5001 25.9 30.7001 25.5 30.7001 25.2C30.6001 24.8 30.5001 24.5 30.1001 24.2ZM22.5001 29.2V21C23.0001 21.3 23.5001 21.6 23.9001 22C25.5001 23 27.0001 24.1 28.6001 25.1C26.6001 26.5 24.5001 27.9 22.5001 29.2ZM25.1001 11.1C17.4001 11.1 11.1001 17.4 11.1001 25.1C11.1001 32.9 17.4001 39.1 25.1001 39.2C32.8001 39.2 39.2001 32.9 39.2001 25.2C39.2001 17.4 32.9001 11.1 25.1001 11.1ZM25.1001 37.6C18.2001 37.6 12.6001 32 12.7001 25.1C12.7001 18.2 18.3001 12.6 25.2001 12.6C32.1001 12.6 37.7001 18.2 37.7001 25.1C37.6001 32.1 32.0001 37.7 25.1001 37.6Z" fill="#1F2430" stroke="#1F2430" stroke-width="0.2"/>
</g>
<defs>
<clipPath id="clip0_635_4">
<rect width="28.3" height="28.3" fill="white" transform="translate(11 11)"/>
</clipPath>
</defs>
</svg>
