<svg xmlns="http://www.w3.org/2000/svg" xmlns:xlink="http://www.w3.org/1999/xlink" width="270" height="269" viewBox="0 0 270 269">
  <defs>
    <filter id="Rectangle_3448" x="0" y="0" width="270" height="269" filterUnits="userSpaceOnUse">
      <feOffset input="SourceAlpha"/>
      <feGaussianBlur stdDeviation="2.5" result="blur"/>
      <feFlood flood-color="#4d7289" flood-opacity="0.051"/>
      <feComposite operator="in" in2="blur"/>
      <feComposite in="SourceGraphic"/>
    </filter>
    <clipPath id="clip-path">
      <rect id="Rectangle_2556" data-name="Rectangle 2556" width="255" height="254" rx="6" transform="translate(13533 -3931)" fill="none"/>
    </clipPath>
  </defs>
  <g id="Group_6056" data-name="Group 6056" transform="translate(3137.5 -11453.5)">
    <g id="Group_6054" data-name="Group 6054" transform="translate(-4325 11072)">
      <g id="Group_6055" data-name="Group 6055">
        <g transform="matrix(1, 0, 0, 1, 1187.5, 381.5)" filter="url(#Rectangle_3448)">
          <path id="Rectangle_3448-2" data-name="Rectangle 3448" d="M0,0H255a0,0,0,0,1,0,0V246a8,8,0,0,1-8,8H8a8,8,0,0,1-8-8V0A0,0,0,0,1,0,0Z" transform="translate(7.5 7.5)" fill="#072d83"/>
        </g>
      </g>
      <g id="Mask_Group_64" data-name="Mask Group 64" transform="translate(-12338 4320)" opacity="0.1" clip-path="url(#clip-path)">
        <g id="Group_3517" data-name="Group 3517" transform="translate(12369.859 -5728.456)">
          <g id="Group_3516" data-name="Group 3516" transform="translate(1157 1788.001)">
            <g id="Group_3500" data-name="Group 3500" transform="translate(0.022 0)">
              <path id="Path_3835" data-name="Path 3835" d="M237.033,16.565h36.085a2.627,2.627,0,0,1,1.1,1.348c.6,1.68,1.224,3.339,1.825,5,1.949,5.268,3.961,10.7,5.475,16.2.913,3.256,1.68,6.574,2.426,9.768.518,2.219,1.058,4.459,1.618,6.636A37.528,37.528,0,0,0,294.6,72.579c1.244,1.307,2.509,2.592,3.754,3.837,2.032,2.032,4.085,4.085,5.952,6.325,5.6,6.761,8.772,15.139,9.726,25.716l.207,2.24c.477,5.434.975,11.054,1.97,16.466a307.957,307.957,0,0,1,4.708,38.8,43,43,0,0,0,2.551,13.086c2.3,5.89,6.242,9.436,11.593,10.639a19.057,19.057,0,0,0,4.148.436,20.213,20.213,0,0,0,12.485-4.562c5.537-4.21,9.56-10.307,12.36-18.644,2.385-7.051,2.737-14.517,2.883-20.946a114.691,114.691,0,0,1,1.244-15.409c1.887-11.3,7.072-20.531,15.388-27.458,3.194-2.634,6.616-4.977,9.934-7.279l2.26-1.576c14.081-9.83,12.236-26.483,10.8-33.182a12.35,12.35,0,0,0-2.489-4.708c-3.007-3.816-7.155-4.687-10.825-5.226a63.1,63.1,0,0,0-8.15-.456c-1.2,0-2.385.021-3.546.042-1.182.021-2.344.021-3.546.021h-1.929a36.862,36.862,0,0,1-8.627-1.141c-10.971-2.883-20.531-9.1-29.241-19.038a39.141,39.141,0,0,1-7.01-12.526c-.332-.83-.394-1.182-.207-1.472h16.923a4.284,4.284,0,0,1,1.431,1.908,37.641,37.641,0,0,0,9,12.049c6.636,5.641,14.413,8.254,24.492,8.254,1.659,0,3.484-.083,5.351-.228,5.1-.435,10.577-.892,16.051-1.493a66.05,66.05,0,0,0,10.6-1.742,8.6,8.6,0,0,0,6.139-5.765,47.892,47.892,0,0,0,2.2-9.768l.1-.726a4.022,4.022,0,0,1,.726-2.489h16.031a10.124,10.124,0,0,1,1.493,1.721,19.592,19.592,0,0,0,8.233,7.217,68.635,68.635,0,0,0,8.959,2.966l.187.062,2.862.747a70.184,70.184,0,0,1,11.385,3.712c5.33,2.447,8.689,5.268,10.826,9.208a34.672,34.672,0,0,1,3.857,21.858c-1.638,11.655-7.01,19.805-16.383,24.99-7.777,4.293-16.072,6.947-22.377,8.793-1.2.353-2.406.684-3.608,1.016a85.432,85.432,0,0,0-12.277,4.127c-7.072,3.132-11.427,8.752-12.92,16.694a61.01,61.01,0,0,0-.726,11.427v2.053a43.988,43.988,0,0,0,1.7,11.551c3.069,11.468,9.913,20.656,21.008,28.163a153.3,153.3,0,0,0,18.561,10.224c1.493.747,3.028,1.472,4.542,2.24a118.576,118.576,0,0,1,17.566,10.411,23.293,23.293,0,0,1,7.051,7.3v38.864a2.339,2.339,0,0,1-.933-.705c-.187-.145-.353-.332-.518-.477-4.625-4.044-8.3-7.424-11.551-10.639a212.435,212.435,0,0,1-18.623-21.672,153.018,153.018,0,0,0-15.471-17.4l-3.588-3.339c-4.334-4.023-8.814-8.212-12.9-12.671a74.151,74.151,0,0,1-11.053-16.28c-4.231-8.316-6.014-17.441-7.383-25.363l-.166-1.058a55.9,55.9,0,0,0-2.986-12.215c-1.452-3.567-4.127-5.558-7.487-5.558a8.689,8.689,0,0,0-2.053.249,17.334,17.334,0,0,0-5.185,2.095c-5.516,3.132-8.005,8.544-9.747,13.459-2.032,5.765-2.551,11.883-3.007,17.794l-.228,2.7a73.11,73.11,0,0,1-9.623,31.046,45.681,45.681,0,0,1-15.409,16.363,33.888,33.888,0,0,1-18.312,4.894,55.872,55.872,0,0,1-8.752-.726c-6.3-.975-10.452-4.542-12.236-10.639a47.643,47.643,0,0,1-1.514-10.349c-.166-3.09-.27-6.18-.332-9.291-.1-3.443-.207-7.01-.415-10.535a80.769,80.769,0,0,0-4.417-21.858,179.508,179.508,0,0,0-10.307-23.165c-4.314-8.378-9.6-14.1-16.217-17.5-3.4-1.742-6.242-2.945-8.855-2.924-3.5,0-6.387,2.074-9.581,6.989A185.074,185.074,0,0,1,245.66,123.72a142.135,142.135,0,0,1-18.789,17.628c-7.051,5.6-11.842,11.2-15.1,17.586-.975,1.887-1.887,3.837-2.779,5.786-1.224,2.592-2.489,5.268-3.857,7.818-5.185,9.478-11.8,15.512-20.261,18.437-2.655.892-5.413,1.721-8.067,2.509-3.712,1.078-7.507,2.219-11.22,3.629-12.07,4.6-19.764,12.153-23.538,23.1-2.509,7.2-3.173,13.376-2.136,19.453a32.916,32.916,0,0,0,7.217,15.2,220.267,220.267,0,0,1,19.785,27.955,57.772,57.772,0,0,0,5.7,8.275c3.878,4.583,8.15,6.8,13.044,6.8h.539c7.093-.29,13.459-3.4,20.116-9.851,5.1-4.853,8.3-11.261,11.385-17.462l.249-.477a77.86,77.86,0,0,1,16.9-22.833c6.636-6.014,13.273-11.966,19.95-17.939l11.24-10.058c7.57-6.823,15.3-10.162,23.621-10.162.622,0,1.286.021,1.949.062,5.7.353,9.789,2.178,12.858,5.745a37.755,37.755,0,0,1,5.371,8.482c.85,1.763,1.68,3.5,2.489,5.247a146.78,146.78,0,0,0,9.332,17.669c4.023,6.159,8.13,10.348,12.879,13.19a23.621,23.621,0,0,0,12.236,3.774,20.36,20.36,0,0,0,7.8-1.618,58.665,58.665,0,0,0,7.134-3.629c1.389-.83,2.779-1.7,4.127-2.572,3.4-2.136,6.927-4.334,10.556-6.139a36.212,36.212,0,0,1,16.3-4,34.157,34.157,0,0,1,7.175.747c10.514,2.157,17.98,10.245,19.909,21.63a50.942,50.942,0,0,1,.083,14.621c-1.037,9.56-6.947,16.446-15.844,18.416a81.936,81.936,0,0,1-14.849,1.493c-2.219.083-4.5.187-6.719.332-1.265.083-2.509.1-3.774.1a36.24,36.24,0,0,0-5.952.353c-9.1,1.307-15.886,5.371-20.656,12.339a50.011,50.011,0,0,0-4.645,8.731,3.355,3.355,0,0,1-1.431,1.825H324.2a1.3,1.3,0,0,1-.394-.933,17.426,17.426,0,0,0-.249-2.572,23.252,23.252,0,0,1-.207-2.634,133.356,133.356,0,0,1,1.576-20.987,19.806,19.806,0,0,0-2.385-13.335,134.343,134.343,0,0,1-6.947-15.18c-.85-2.157-1.68-4.314-2.509-6.47-2.3-5.993-4.687-12.194-7.59-18.022a51.889,51.889,0,0,0-8.772-13.19c-3.754-4.023-8.171-6.076-13.107-6.076-.29,0-.56,0-.85.021a25.808,25.808,0,0,0-12.547,4.355c-5.765,3.774-11.3,8.067-16.653,12.215l-3.484,2.717a84.992,84.992,0,0,0-14.268,13.853c-4.894,6.076-8.088,13.293-10.825,20.158a101.672,101.672,0,0,1-18.893,29.967c-3.277,3.712-6.823,8.337-8.316,14.517a2.772,2.772,0,0,1-.933,1.6H172l-.083-.1a4.278,4.278,0,0,1-1.037-1.369,30.154,30.154,0,0,0-10.2-13.314l-2.012-1.576a139.661,139.661,0,0,1-12.837-10.784,138.128,138.128,0,0,1-16.632-20.51,66.266,66.266,0,0,0-15.72-16.943,67.882,67.882,0,0,1-8.482-7.777c-5.039-5.268-9.726-11.033-14.247-16.632-1.452-1.8-2.9-3.588-4.4-5.392a70.47,70.47,0,0,1-9.519-14.579c-5.579-11.551-6.823-24.14-7.3-34.9-.373-7.238.5-14.932,2.758-24.16,1.39-5.869,2.758-12.194,2.53-18.768a54.649,54.649,0,0,0-7.756-27.126c-4.791-7.818-11.945-11.759-21.3-11.759-.456,0-.913.021-1.389.021a42.206,42.206,0,0,0-18.167,5.226,102.219,102.219,0,0,0-14.579,9.768,82.573,82.573,0,0,1-35.961,15.844,4.266,4.266,0,0,0-.664.145,5.248,5.248,0,0,1-1.078.166,1.163,1.163,0,0,1-.705-.187V109.6a1.078,1.078,0,0,1,.788-.373h0a23.884,23.884,0,0,0,3.194-.27c.788-.083,1.555-.166,2.343-.207a56.275,56.275,0,0,0,12.9-2.115,90.363,90.363,0,0,0,14.994-6.159c1.555-.726,3.09-1.472,4.645-2.178,11.033-5.1,21.423-7.57,31.792-7.57a62.365,62.365,0,0,1,8.772.6c9.021,1.2,16.072,6.118,20.946,14.621,4.106,7.093,7.01,15.533,9.249,26.566a54.139,54.139,0,0,1,.871,18.229c-.539,3.857-1.452,7.694-2.323,11.427-.311,1.369-.643,2.717-.954,4.086a71.951,71.951,0,0,0-1.39,25.156c2.2,16.694,10.183,29.158,23.7,37.1a19.294,19.294,0,0,0,9.726,3.111c4.562,0,8.544-2.406,12.173-7.341a112.913,112.913,0,0,0,6.8-10.577c.788-1.286,1.555-2.613,2.385-3.92a55.406,55.406,0,0,1,23.227-20.863c3.961-1.97,8.109-3.609,12.153-5.205,2.406-.954,4.811-1.908,7.2-2.924,11.323-4.936,17.711-13.148,19.494-25.156a105.224,105.224,0,0,0,1.078-17.254,22.254,22.254,0,0,1,.747-6.387c1.016-4.085,3.443-6.45,7.362-7.113a27.769,27.769,0,0,1,5.122-.353h2.489a23.493,23.493,0,0,0,17.835-8.42,27.261,27.261,0,0,0,6.1-21.8c-1.431-9.436-5.039-18.25-8.212-26.006-.581-1.431-1.2-2.841-1.8-4.251a141.641,141.641,0,0,1-5.786-15.284c-2.2-7.632-1.555-13.667,1.991-18.976a38.929,38.929,0,0,1,7.341-7.818c.705-.581,1.389-1.244,2.074-1.908a12.721,12.721,0,0,1,4.791-3.5m-.124-.83c-3.049.933-4.915,3.65-7.279,5.62a39.313,39.313,0,0,0-7.507,7.984c-4.106,6.159-4.065,12.775-2.074,19.66,1.991,6.823,4.936,13.169,7.611,19.619,3.422,8.378,6.781,16.736,8.15,25.819,2.3,15.326-8.627,29.2-23.1,29.262h-2.489a29.993,29.993,0,0,0-5.268.353c-4.293.747-6.927,3.318-8.047,7.735a24.4,24.4,0,0,0-.747,6.595,103.292,103.292,0,0,1-1.078,17.151c-1.8,12.132-8.524,19.93-18.976,24.492-6.429,2.758-13.065,5-19.411,8.15a55.87,55.87,0,0,0-23.58,21.174c-2.966,4.853-5.7,9.872-9.125,14.455-3.567,4.853-7.362,6.989-11.51,6.989a18.728,18.728,0,0,1-9.291-2.986c-13.418-7.881-21.174-20.178-23.31-36.5a71.165,71.165,0,0,1,1.369-24.886c1.161-5.143,2.551-10.286,3.3-15.575a55.4,55.4,0,0,0-.892-18.5c-1.887-9.395-4.562-18.54-9.332-26.815-4.936-8.586-12.111-13.77-21.568-15.015a61.487,61.487,0,0,0-8.876-.643c-11.1,0-21.755,2.862-32.124,7.652-6.45,2.945-12.692,6.429-19.536,8.3A55.388,55.388,0,0,1-20.5,107.918c-1.784.062-3.546.456-5.351.456h-.145a2.221,2.221,0,0,0-1.618.892V131.58a2.023,2.023,0,0,0,1.535.643,11.22,11.22,0,0,0,1.887-.332A83.86,83.86,0,0,0,12.124,115.9,101.8,101.8,0,0,1,26.6,106.217a40.941,40.941,0,0,1,17.814-5.122c.456-.041.913-.041,1.348-.041,8.482,0,15.658,3.318,20.593,11.365a53.539,53.539,0,0,1,7.632,26.711c.228,6.367-1.058,12.464-2.509,18.54A84.187,84.187,0,0,0,68.7,182.078c.539,12.173,2.074,24.2,7.383,35.214A71.343,71.343,0,0,0,85.7,232.037c6.139,7.445,12.008,15.118,18.685,22.066A67.223,67.223,0,0,0,113,261.984a65.268,65.268,0,0,1,15.512,16.736,140.663,140.663,0,0,0,16.715,20.635c4.666,4.6,9.83,8.441,14.952,12.443a29.438,29.438,0,0,1,9.934,12.961,6.1,6.1,0,0,0,1.555,1.991H197.09a3.526,3.526,0,0,0,1.493-2.219c1.348-5.62,4.5-10.058,8.13-14.185a102.754,102.754,0,0,0,19.038-30.216c2.82-7.051,5.931-14,10.722-19.93a84.077,84.077,0,0,1,14.1-13.729c6.636-5.1,13.107-10.328,20.1-14.869a24.9,24.9,0,0,1,12.132-4.231c.29-.021.539-.021.809-.021a16.724,16.724,0,0,1,12.526,5.827,51.992,51.992,0,0,1,8.606,12.982c3.92,7.881,6.823,16.238,10.079,24.409a140,140,0,0,0,6.989,15.3,18.968,18.968,0,0,1,2.3,12.775,130.854,130.854,0,0,0-1.576,21.112c-.042,1.784.415,3.5.415,5.226a2.369,2.369,0,0,0,.892,1.763h22.377a4.043,4.043,0,0,0,1.949-2.323,50.37,50.37,0,0,1,4.583-8.606c4.977-7.3,11.925-10.784,20.1-11.987,3.194-.518,6.429-.207,9.664-.435,7.217-.539,14.5-.228,21.692-1.825,8.938-2.012,15.388-9,16.487-19.142a53.3,53.3,0,0,0-.083-14.87c-1.991-11.717-9.643-20.054-20.593-22.294a34.189,34.189,0,0,0-7.321-.767A37.271,37.271,0,0,0,376,248.587c-5.1,2.551-9.83,5.786-14.7,8.752a56.168,56.168,0,0,1-7.051,3.567,19.207,19.207,0,0,1-7.466,1.555,22.845,22.845,0,0,1-11.8-3.65c-5.268-3.131-9.208-7.715-12.609-12.92-4.645-7.176-8.026-15.118-11.78-22.833a38.057,38.057,0,0,0-5.516-8.689c-3.629-4.272-8.3-5.7-13.4-6.014-.684-.042-1.348-.062-2.012-.062-9.249,0-17.192,4.065-24.2,10.369-10.369,9.353-20.821,18.623-31.17,28.018a79.039,79.039,0,0,0-17.088,23.061c-3.173,6.367-6.346,12.837-11.468,17.731-5.537,5.371-11.821,9.291-19.556,9.6h-.518c-5.081,0-9.1-2.592-12.422-6.512a56.854,56.854,0,0,1-5.62-8.15,221.624,221.624,0,0,0-19.847-28.08,31.422,31.422,0,0,1-7.03-14.807c-1.141-6.553-.042-12.879,2.095-19.059,4.044-11.738,12.4-18.5,23.04-22.564,6.346-2.426,12.92-3.982,19.266-6.139,9.395-3.256,15.886-9.975,20.718-18.851,2.406-4.417,4.355-9.125,6.636-13.625,3.609-7.093,8.9-12.526,14.89-17.3A145.564,145.564,0,0,0,246.3,124.259,189.045,189.045,0,0,0,261.815,103.6c3.132-4.791,5.786-6.657,8.9-6.657,2.406,0,5.081,1.1,8.482,2.862,7.2,3.712,12.091,9.83,15.844,17.151A179.12,179.12,0,0,1,305.3,140a79.572,79.572,0,0,1,4.376,21.63c.394,6.616.435,13.21.747,19.826a46.521,46.521,0,0,0,1.555,10.535c1.97,6.74,6.7,10.266,12.9,11.219a56.545,56.545,0,0,0,8.876.747,34.751,34.751,0,0,0,18.748-5.019,46.1,46.1,0,0,0,15.678-16.632,73.622,73.622,0,0,0,9.726-31.419c.6-6.823.892-13.75,3.215-20.282,1.887-5.33,4.4-10.2,9.374-13a15.794,15.794,0,0,1,4.957-2.012,8.3,8.3,0,0,1,1.866-.207c3.007,0,5.371,1.763,6.719,5,1.721,4.189,2.364,8.648,3.111,13.107,1.493,8.835,3.36,17.586,7.466,25.591a74.243,74.243,0,0,0,11.178,16.487c5.226,5.724,10.929,10.8,16.529,16.072a157.127,157.127,0,0,1,15.388,17.3A220.593,220.593,0,0,0,476.4,230.689c3.754,3.671,7.653,7.217,11.614,10.68.6.5,1.161,1.369,2.012,1.369a1.484,1.484,0,0,0,.788-.228V202.838a23.827,23.827,0,0,0-7.383-7.756,119.114,119.114,0,0,0-17.711-10.494c-7.777-3.92-15.7-7.466-23-12.4-9.872-6.678-17.379-15.409-20.656-27.686a42.664,42.664,0,0,1-1.7-11.344c.042-4.438-.124-8.876.726-13.314,1.472-7.777,5.641-13.086,12.443-16.114,5.1-2.281,10.494-3.526,15.782-5.1a108.485,108.485,0,0,0,22.543-8.835c9.871-5.433,15.181-14.123,16.819-25.612a35.362,35.362,0,0,0-3.961-22.4c-2.592-4.728-6.657-7.466-11.22-9.54-4.6-2.115-9.5-3.173-14.351-4.521a67.848,67.848,0,0,1-9.042-2.986,18.409,18.409,0,0,1-7.818-6.823,10.855,10.855,0,0,0-1.949-2.178H423.637c-1.141,1.037-1.1,2.509-1.286,3.94a48.284,48.284,0,0,1-2.157,9.6,7.882,7.882,0,0,1-5.579,5.247,71.339,71.339,0,0,1-10.452,1.721c-5.351.56-10.7,1.016-16.052,1.472-1.763.145-3.526.228-5.268.228-8.606,0-16.757-1.949-23.953-8.047a37.7,37.7,0,0,1-8.814-11.8,4.768,4.768,0,0,0-1.949-2.364H330.646c-.871.767-.581,1.659-.228,2.592A40.5,40.5,0,0,0,337.573,31.1c8.212,9.353,17.9,16.2,29.677,19.308a38.5,38.5,0,0,0,8.835,1.141c.643.021,1.286.042,1.929.042,2.364,0,4.708-.083,7.093-.083a60.849,60.849,0,0,1,8.026.436c3.92.581,7.59,1.472,10.307,4.936a11.789,11.789,0,0,1,2.323,4.355c2.426,11.3.788,24.471-10.473,32.352-4.127,2.883-8.316,5.641-12.236,8.9-8.627,7.155-13.77,16.549-15.7,27.976a111.141,111.141,0,0,0-1.224,15.492c-.166,7.01-.622,14.019-2.883,20.718-2.426,7.258-6.076,13.687-12.028,18.25a19.625,19.625,0,0,1-12.008,4.376,18.634,18.634,0,0,1-3.961-.415c-5.392-1.2-8.938-4.873-11.012-10.1a41.94,41.94,0,0,1-2.468-12.858,310.087,310.087,0,0,0-4.749-38.885c-1.12-6.139-1.6-12.4-2.136-18.665-.892-9.747-3.691-18.623-9.934-26.172-3.028-3.588-6.512-6.761-9.726-10.2a36.673,36.673,0,0,1-8.876-16.674c-1.389-5.475-2.53-10.991-4.023-16.425-2.012-7.279-4.791-14.206-7.341-21.278a3.553,3.553,0,0,0-1.618-1.887Z" transform="translate(27.611 -15.735)" fill="#fff" stroke="rgba(0,0,0,0)" stroke-miterlimit="10" stroke-width="1"/>
            </g>
            <g id="Group_3505" data-name="Group 3505" transform="translate(0 0)">
              <g id="Group_3501" data-name="Group 3501" transform="translate(0 187.414)">
                <path id="Path_3836" data-name="Path 3836" d="M-25.765,25.6a1.938,1.938,0,0,1,.477.041c4.874.643,8.793,1.244,12.319,1.908A57.174,57.174,0,0,1,21.954,48.642,64.388,64.388,0,0,1,28.2,58.057c5.247,9.872,6.8,20.614,7.715,30.734l.062.6c.581,6.512,1.161,13.231,3.028,19.7,2.157,7.507,5.288,12.754,9.892,16.508a115.868,115.868,0,0,0,10.452,7.321c1.307.85,2.655,1.721,3.94,2.592a44.655,44.655,0,0,1,10.867,10.452c.6.788.809,1.182.664,1.576H55.3a28.74,28.74,0,0,0-3.608-.912c-.83-.145-1.659-.311-2.489-.539a16.642,16.642,0,0,0-4.438-.643,15.432,15.432,0,0,0-7.673,2.095c-21.091,0-42.244,0-63.315.021a3.455,3.455,0,0,1-.56-.042v-.581c.062-2.986.042-5.952.021-8.938v-3.5a1.75,1.75,0,0,1,1.244-.436,5.188,5.188,0,0,1,.975.1,29.429,29.429,0,0,0,4.832.27H-13.7c3.712,0,7.673-.041,11.7-.415a74.025,74.025,0,0,0,16.757-3.132c4.811-1.68,7.86-5.226,9.1-10.556a99.7,99.7,0,0,0,1.929-18.146,161,161,0,0,0,.166-17.9c-.664-9.871-2.675-17.607-6.284-24.306C14.426,50.363,7.354,44.079-1.978,40.761A42.11,42.11,0,0,0-15.956,38.75c-2.219,0-4.438.083-6.657.187l-1.286.041-.705.062a7.41,7.41,0,0,1-.933.083,1.656,1.656,0,0,1-1.224-.415V25.975a1.3,1.3,0,0,1,1-.373m0-.83a2.176,2.176,0,0,0-1.825.892V39.04a2.483,2.483,0,0,0,2.053.913c.539,0,1.12-.1,1.68-.145,2.634-.1,5.288-.228,7.9-.228a40.844,40.844,0,0,1,13.687,1.97c9.436,3.339,16.3,9.83,21.215,18.831,4,7.4,5.62,15.471,6.18,23.953a159.5,159.5,0,0,1-.166,17.814,99.346,99.346,0,0,1-1.908,18c-1.182,5.039-3.982,8.337-8.544,9.954a73.156,73.156,0,0,1-16.591,3.09c-3.857.373-7.715.415-11.614.415-1.991,0-4-.021-6.014-.021a29.989,29.989,0,0,1-4.708-.249,6.572,6.572,0,0,0-1.1-.1,2.448,2.448,0,0,0-2.074.975c0,4.231.062,8.482-.021,12.713-.021,1.224.249,1.472,1.389,1.472,21.153-.021,42.369-.021,63.522-.021a14.6,14.6,0,0,1,7.466-2.095,15.908,15.908,0,0,1,4.231.6c2.053.56,4.168.767,6.18,1.493h20.1c.912-1.141.124-2.115-.456-2.883a45.329,45.329,0,0,0-11.054-10.66c-4.811-3.214-9.809-6.18-14.351-9.892-5.06-4.127-7.818-9.789-9.623-16.072-1.866-6.574-2.447-13.356-3.049-20.158-.975-10.825-2.7-21.4-7.818-31.045a63.934,63.934,0,0,0-6.325-9.54A57.6,57.6,0,0,0-12.8,26.742c-4.106-.767-8.233-1.369-12.36-1.929a3.036,3.036,0,0,0-.6-.042Z" transform="translate(27.612 -24.772)" fill="#fff" stroke="rgba(0,0,0,0)" stroke-miterlimit="10" stroke-width="1"/>
              </g>
              <g id="Group_3502" data-name="Group 3502" transform="translate(110.102)">
                <path id="Path_3837" data-name="Path 3837" d="M-21.37,16.565h7.59c.643.394.892,1.078,1.141,2.3,1.224,5.869,3.526,11.717,7.424,19C-3.431,41.14-1.606,44.416.2,47.693c2.883,5.164,5.827,10.514,8.648,15.844,3.214,6.18,6.844,12.63,12.319,17.669,6.533,5.993,13,8.918,19.764,8.918.6,0,1.2-.021,1.846-.062a19.766,19.766,0,0,0,15.015-8.212c4.853-6.408,6.491-14.061,7.487-20.7.747-5.205,1.078-10.535,1.41-15.678l.187-2.675c.5-7.8,1.638-15.658,2.737-23.248L69.8,18.2a2.894,2.894,0,0,1,.83-1.638H88.648A50.369,50.369,0,0,1,84.625,28.51a114.624,114.624,0,0,0-9.519,29.8l-.311,1.659c-1.348,7.176-2.737,14.558-5.122,21.506-1.307,3.961-2.82,8.067-5.662,11.219a22.306,22.306,0,0,1-17.358,7.424,32.933,32.933,0,0,1-5.205-.415C29.17,97.922,18.78,91.119,9.7,78.967A172.957,172.957,0,0,1-1.15,61.629l-.415-.747c-1.224-2.095-2.447-4.189-3.691-6.263-4.023-6.761-8.171-13.77-11.282-21.257a62.62,62.62,0,0,1-4.832-16.8m-.933-.83a63.318,63.318,0,0,0,5,17.959c4.065,9.789,9.789,18.54,15.015,27.624A181.77,181.77,0,0,0,9.033,79.464c8.378,11.22,18.789,19.1,32.29,21.07a36.2,36.2,0,0,0,5.33.435,23.206,23.206,0,0,0,17.96-7.715c2.9-3.235,4.459-7.341,5.848-11.489,2.592-7.549,3.982-15.471,5.454-23.31a115.207,115.207,0,0,1,9.457-29.594,49.9,49.9,0,0,0,4.251-13.127H70.294A3.962,3.962,0,0,0,68.967,18.1c-1.161,8.171-2.385,16.363-2.924,24.637-.415,6.139-.705,12.236-1.6,18.291-1.078,7.321-2.82,14.372-7.321,20.324a18.964,18.964,0,0,1-14.413,7.86,17.65,17.65,0,0,1-1.784.083c-7.424,0-13.625-3.588-19.2-8.71-5.268-4.832-8.835-11.1-12.153-17.441C5.01,54.5.2,46.055-4.489,37.448A70.145,70.145,0,0,1-11.83,18.7c-.249-1.224-.56-2.385-1.742-2.966Z" transform="translate(22.303 -15.735)" fill="#fff" stroke="rgba(0,0,0,0)" stroke-miterlimit="10" stroke-width="1"/>
              </g>
              <g id="Group_3503" data-name="Group 3503" transform="translate(0.022)">
                <path id="Path_3838" data-name="Path 3838" d="M5.654,16.565H29.772a51.407,51.407,0,0,1-2.613,7.984A57.163,57.163,0,0,1,7.416,48.232a29.788,29.788,0,0,1-17.275,5.7,32.168,32.168,0,0,1-5.226-.456l-9.332-1.618-2.364-.373V23.8a3.2,3.2,0,0,1,2.136-.643c.518,0,1.058.083,1.576.124a8.635,8.635,0,0,0,1.244.1l2.053.124c2.385.166,4.853.332,7.258.332,1.348,0,2.592-.041,3.774-.145A18.611,18.611,0,0,0,3.7,18.016a7.676,7.676,0,0,1,1.949-1.452m-.207-.83a8.784,8.784,0,0,0-2.343,1.7A17.912,17.912,0,0,1-8.8,22.869c-1.244.1-2.489.145-3.712.145-3.09,0-6.18-.27-9.27-.435-.933-.062-1.908-.228-2.862-.228a3.928,3.928,0,0,0-2.966,1.078V52.193q6.19,1.027,12.381,2.115a34.09,34.09,0,0,0,5.371.436A30.531,30.531,0,0,0,7.893,48.917,58.045,58.045,0,0,0,27.906,24.9a60.614,60.614,0,0,0,2.966-9.166Z" transform="translate(27.611 -15.735)" fill="#fff" stroke="rgba(0,0,0,0)" stroke-miterlimit="10" stroke-width="1"/>
              </g>
              <g id="Group_3504" data-name="Group 3504" transform="translate(456.206 255.539)">
                <path id="Path_3839" data-name="Path 3839" d="M55.793,30.255V56.966c-.145.332-.311.643-.436.975a4.72,4.72,0,0,1-.933,1.535,65.906,65.906,0,0,1-9.27,7.051A79.861,79.861,0,0,1,30.6,72.79c-1.535.518-3.049,1.078-4.562,1.638-4.065,1.472-7.652,2.945-10.68,5.745a12.8,12.8,0,0,1-3.339,2.53H-4.764c.456-7.8,5.019-14.164,12.07-16.694,2.717-.975,5.475-1.866,8.192-2.758,2.966-.954,5.869-1.908,8.793-2.945A45.869,45.869,0,0,0,41.753,49.293a81.45,81.45,0,0,0,7.694-9.872l1.389-1.929c.664-.975,1.327-1.97,1.97-2.966.954-1.431,1.908-2.924,2.986-4.272m.83-2.2c-2.572,2.655-4.334,5.952-6.45,8.938-2.883,4.044-5.6,8.171-9.021,11.717A44.466,44.466,0,0,1,24,59.517c-5.62,2.012-11.344,3.712-16.964,5.7C-.658,67.979-5.469,75.071-5.614,83.532H12.221a13.455,13.455,0,0,0,3.691-2.738c3.028-2.8,6.719-4.251,10.39-5.6,6.533-2.426,13.169-4.314,19.266-7.964A61.1,61.1,0,0,0,54.942,60.1c.892-.747,1.1-1.929,1.68-2.9V28.057Z" transform="translate(5.614 -28.057)" fill="#fff" stroke="rgba(0,0,0,0)" stroke-miterlimit="10" stroke-width="1"/>
              </g>
            </g>
            <path id="Path_3840" data-name="Path 3840" d="M18.282,27.332v.83A13.823,13.823,0,0,1,30.7,34.922c3.339,5.1,3.65,15.906-4.334,22.128-4.21,3.235-9.083,3.837-13.729,4-6.429-.207-11.51-1.369-15.886-3.671-2.095-1.12-4-2.364-4.4-4.728a11.044,11.044,0,0,1,1.472-7.9A64.169,64.169,0,0,1-2.27,39.4c5.558-6.74,11.323-10.266,18.042-11.074a20.945,20.945,0,0,1,2.509-.166v-.83m0,0a23.02,23.02,0,0,0-2.634.166c-7.673.933-13.563,5.33-18.561,11.385C-4.323,40.6-5.629,42.43-6.873,44.3A11.922,11.922,0,0,0-8.45,52.8c.436,2.758,2.717,4.168,4.811,5.309C1.5,60.8,7.063,61.7,12.683,61.882c5.06-.187,9.934-.892,14.185-4.189,8.3-6.429,8.109-17.731,4.562-23.206a14.752,14.752,0,0,0-13.148-7.155Z" transform="translate(402.129 213.172)" fill="#fff" stroke="rgba(0,0,0,0)" stroke-miterlimit="10" stroke-width="1"/>
            <path id="Path_3841" data-name="Path 3841" d="M10.046,16.947v.83a60.98,60.98,0,0,1,14.994,2.24,23.52,23.52,0,0,1,8.669,4.168,17.454,17.454,0,0,1,6.885,12.4c.477,5.869-1.929,12.091-6.553,17.13-3.152,3.443-7.383,5.869-13.314,7.694A36.183,36.183,0,0,1,9.9,63.463a18.518,18.518,0,0,1-4.065-.394c-6.263-1.431-8.005-3.111-9.768-9.56A32.793,32.793,0,0,1-5.01,43.223a17.009,17.009,0,0,1,.166-4.791c.062-.684.145-1.389.187-2.095A53.823,53.823,0,0,1-2.376,24.5c1.244-3.92,3.629-5.89,7.694-6.429a39.125,39.125,0,0,1,4.728-.29v-.83m0,0a38.612,38.612,0,0,0-4.853.311c-4.231.56-6.968,2.634-8.378,6.989A53.822,53.822,0,0,0-5.466,36.275c-.187,2.406-.726,4.791-.394,6.906a34.061,34.061,0,0,0,1.12,10.535c1.866,6.8,3.857,8.71,10.39,10.162a19.864,19.864,0,0,0,4.251.436,37.478,37.478,0,0,0,11.074-2.095c5.081-1.576,9.934-3.9,13.667-7.943,8.316-9.021,10.037-22.543-.456-30.734a24.05,24.05,0,0,0-8.938-4.334,61.125,61.125,0,0,0-15.2-2.26Z" transform="translate(454.87 8.188)" fill="#fff" stroke="rgba(0,0,0,0)" stroke-miterlimit="10" stroke-width="1"/>
            <path id="Path_3842" data-name="Path 3842" d="M-.7,17.488A7.082,7.082,0,0,1,3.681,18.9a12.4,12.4,0,0,1,4.293,5.869A30.828,30.828,0,0,1,9.425,41.006l-.041.29C8.8,45.008,8.222,48.824,6.4,52.122c-.933,1.742-2.074,2.592-3.463,2.592a5.576,5.576,0,0,1-2.509-.705C-3.578,52.122-6.9,48.8-9.758,43.93a26.3,26.3,0,0,1-4.106-12.194,12.732,12.732,0,0,1,.643-4.085l.083-.477c1.307-5,7.341-9.685,12.443-9.685m0-.85c-5.7,0-11.9,5.268-13.231,10.348a15.113,15.113,0,0,0-.747,4.791A27.572,27.572,0,0,0-10.5,44.386c2.634,4.438,5.973,8.171,10.556,10.39a6.868,6.868,0,0,0,2.883.788c1.68,0,3.09-.975,4.189-3.049,1.929-3.484,2.509-7.445,3.111-11.385A31.375,31.375,0,0,0,8.741,24.477a13.164,13.164,0,0,0-4.583-6.263A7.9,7.9,0,0,0-.7,16.638Z" transform="translate(282.615 2.089)" fill="#fff" stroke="rgba(0,0,0,0)" stroke-miterlimit="10" stroke-width="1"/>
            <path id="Path_3843" data-name="Path 3843" d="M45.534,21.1a16.478,16.478,0,0,1,12.526,5.91c4.314,4.791,6.553,11.074,7.01,19.847a52.356,52.356,0,0,1-1.887,14.994,104.919,104.919,0,0,0-2.551,30.714c.518,8.4,1.369,16.736,2.115,23.808,1.182,10.908,4.21,19.909,9.229,27.5a116.67,116.67,0,0,1,10.307,18.188c2.219,4.977,4.085,10.2,5.91,15.263l.477,1.348c3.982,11.116,10.39,18.457,19.619,22.5,1.866.809,3.712,1.721,5.516,2.613l1.369.684c8.669,4.4,16.674,11.033,25.156,20.925a47.126,47.126,0,0,1,6.2,8.669l.29.5c.415.643.6,1,.456,1.369H125.916a13.132,13.132,0,0,1-2.655-1.866l-.311-.27a15.016,15.016,0,0,0-6.1-3.38,7.4,7.4,0,0,0-2.281-.373,6.825,6.825,0,0,0-6.263,4.251,3.778,3.778,0,0,1-1.41,1.638H89.6a4.12,4.12,0,0,1-1-1.887,29.471,29.471,0,0,0-8.358-13.957,53.949,53.949,0,0,0-9.6-7.03c-.767-.5-1.576-.975-2.343-1.452-3.754-2.447-7.715-5.122-10.825-8.648-4.127-4.666-6.989-10.618-8.959-18.768-1.058-4.459-1.783-9.1-2.468-13.625-.477-3.132-.975-6.387-1.6-9.56-1.638-8.42-4.542-15.264-8.855-20.987a135.873,135.873,0,0,0-14.372-15.678A84.932,84.932,0,0,0,.759,110.175c-7.8-3.982-16.881-8.648-25.4-13.853a6.6,6.6,0,0,1-2.136-1.97V64.861a4.967,4.967,0,0,1,1.825-1.887c4.085-2.426,7.694-4.355,11.1-5.952a132.859,132.859,0,0,0,35.878-24.1c5.828-5.537,11.593-9.1,17.586-10.888a21.116,21.116,0,0,1,5.931-.933m0-.809a22.7,22.7,0,0,0-6.18.933c-6.844,2.032-12.692,6.159-17.9,11.1A132.875,132.875,0,0,1-14.193,56.275a121.1,121.1,0,0,0-11.178,6.014,5.544,5.544,0,0,0-2.24,2.385V94.6a7.431,7.431,0,0,0,2.53,2.426c8.3,5.06,16.86,9.519,25.467,13.895a83.509,83.509,0,0,1,20.282,14.04,130.506,130.506,0,0,1,14.268,15.575c4.625,6.1,7.238,13.086,8.71,20.635,1.493,7.694,2.219,15.6,4.065,23.227,1.721,7.093,4.355,13.708,9.146,19.1,3.152,3.588,7.03,6.242,11.012,8.793,4.065,2.613,8.254,4.936,11.8,8.378a29.194,29.194,0,0,1,8.15,13.584,4.484,4.484,0,0,0,1.472,2.509h17.835a4.572,4.572,0,0,0,1.929-2.115,6.025,6.025,0,0,1,5.516-3.774,6.632,6.632,0,0,1,2.053.332,14.337,14.337,0,0,1,5.807,3.235,15.054,15.054,0,0,0,3.3,2.323h22c.975-1.244,0-2.219-.477-3.111a49.352,49.352,0,0,0-6.3-8.814c-7.362-8.586-15.492-16.093-25.4-21.112-2.323-1.141-4.583-2.3-6.927-3.339-9.581-4.168-15.554-11.925-19.162-22-2.032-5.62-4-11.219-6.408-16.653A117.932,117.932,0,0,0,72.66,143.4c-5.392-8.171-8.005-17.317-9.084-27.105-.85-7.964-1.618-15.823-2.115-23.766a103.045,103.045,0,0,1,2.53-30.465A53.277,53.277,0,0,0,65.9,46.819c-.394-7.528-2.115-14.724-7.217-20.344a17.156,17.156,0,0,0-13.148-6.18Z" transform="translate(27.633 74.253)" fill="#fff" stroke="rgba(0,0,0,0)" stroke-miterlimit="10" stroke-width="1"/>
            <path id="Path_3844" data-name="Path 3844" d="M-20.4,16.565H-7.29a3.437,3.437,0,0,1,1.431,1.784A53.674,53.674,0,0,0-3.142,24.03,142.376,142.376,0,0,1,7.351,46.49a44.008,44.008,0,0,0,4.293,9.6,12.507,12.507,0,0,0,4.479,4.853,6.688,6.688,0,0,0,3.152.892c2.095,0,3.878-1.307,5.019-3.608a17.133,17.133,0,0,0,1.41-9.685A132.741,132.741,0,0,0,23.03,34.607a105.807,105.807,0,0,1-2.7-16.757,1.7,1.7,0,0,1,.27-1.286H37.775a3.042,3.042,0,0,1,.415,1.887v.456c.021,2.095,0,4.251-.021,6.346-.041,3.567-.083,7.258.1,10.867.083,1.2.145,2.426.207,3.629a130.076,130.076,0,0,1,.415,14.227c-.29,6.844-1.514,12.028-3.878,16.363-2.779,5.06-6.595,7.964-11.282,8.627a16.081,16.081,0,0,1-2.426.166c-5.288,0-10.079-2.468-14.579-7.549A55.332,55.332,0,0,1-1.794,57.647C-5.34,49.85-9.26,42.073-13.8,33.881a65.12,65.12,0,0,1-6.574-15.616c-.249-.954-.311-1.348-.021-1.7m-.353-.83c-.933.767-.705,1.721-.436,2.758a67.838,67.838,0,0,0,6.657,15.8c4.293,7.735,8.3,15.6,11.987,23.683A55.546,55.546,0,0,0,6.107,72.123c4.231,4.791,9.187,7.86,15.2,7.86a17.743,17.743,0,0,0,2.53-.187c5.371-.767,9.208-4.168,11.925-9.063,2.779-5.122,3.712-10.888,3.961-16.715.27-5.952-.29-11.945-.622-17.939-.29-5.724-.021-11.468-.083-17.192-.042-1.161.083-2.343-.913-3.152H20.251a2.424,2.424,0,0,0-.747,2.178,108.033,108.033,0,0,0,2.717,16.881,130.186,130.186,0,0,1,2.655,13.833,16.221,16.221,0,0,1-1.327,9.249c-1.016,2.053-2.509,3.111-4.272,3.111a5.783,5.783,0,0,1-2.737-.767,11.4,11.4,0,0,1-4.189-4.562A43.873,43.873,0,0,1,8.14,46.2,144.547,144.547,0,0,0-2.416,23.616a47.87,47.87,0,0,1-2.675-5.6,4.457,4.457,0,0,0-1.97-2.281Z" transform="translate(149.806 -15.735)" fill="#fff" stroke="rgba(0,0,0,0)" stroke-miterlimit="10" stroke-width="1"/>
            <path id="Path_3845" data-name="Path 3845" d="M-7.216,16.565H32a9.334,9.334,0,0,1-2.281,2.7,28.884,28.884,0,0,1-18.208,6.2c-.539,0-1.078,0-1.6-.042C2.1,25.067-3.524,22.143-7.216,16.565m-1.472-.83C-4.457,23.159,2.2,25.9,9.873,26.249c.56.021,1.078.041,1.638.041A29.439,29.439,0,0,0,30.217,19.9a11.929,11.929,0,0,0,3.194-4.168Z" transform="translate(401.144 -15.735)" fill="#fff" stroke="rgba(0,0,0,0)" stroke-miterlimit="10" stroke-width="1"/>
            <path id="Path_3846" data-name="Path 3846" d="M93.865,21.932H94.2c5.745.083,10.908,2.634,15.367,7.528,10.058,11.1,13.625,23.725,10.6,37.578-1.514,6.74-4.542,11.489-9.374,14.558-2.509,1.6-4.625,2.862-6.719,4A80.227,80.227,0,0,0,83.931,101.09c-3.443,3.754-6.553,7.113-9.623,10.618a162.445,162.445,0,0,1-23.621,21.817C40.65,141.261,33.516,148.706,28.269,156.9l-.249.373c-1.887,2.862-3.816,5.828-6.491,7.943-3.007,2.385-5.641,3.5-8.275,3.5a10.119,10.119,0,0,1-3.65-.726,20.146,20.146,0,0,1-8.9-7.155c-5.745-7.8-10.826-16.819-16.052-28.35-2.281-5.06-2.945-9.063-2.157-13,1.265-6.408,5.039-10.639,12.236-13.708a98.145,98.145,0,0,1,9.436-3.339c2.343-.747,4.749-1.514,7.134-2.426a45.862,45.862,0,0,0,17.9-11.7c4.314-4.6,7.9-10.307,11.282-17.98C45.129,59.593,51.185,51.048,59,44.267l2.489-2.2a197.867,197.867,0,0,1,17.234-14.04c4.749-3.214,9.5-6.1,15.139-6.1m0-.83c-5.91,0-10.846,3.028-15.616,6.263C71.239,32.218,64.893,38,58.464,43.624A72.133,72.133,0,0,0,39.737,69.983c-2.883,6.491-6.3,12.588-11.137,17.752a45.49,45.49,0,0,1-17.586,11.51C5.5,101.339-.164,102.687-5.6,105.01c-6.3,2.7-11.22,6.761-12.713,14.31-.975,4.791.29,9.291,2.219,13.5A156.249,156.249,0,0,0,.044,161.315a21.141,21.141,0,0,0,9.27,7.466,10.976,10.976,0,0,0,3.94.767c3.194,0,6.076-1.535,8.793-3.691,2.883-2.281,4.874-5.433,6.906-8.5,5.973-9.312,13.75-16.632,22.211-23.165A164.052,164.052,0,0,0,74.93,112.248c3.152-3.608,6.387-7.113,9.623-10.6a78.487,78.487,0,0,1,19.909-15.326c2.323-1.265,4.542-2.613,6.782-4.023,5.433-3.463,8.337-8.814,9.726-15.1,3.277-14.911-1.1-27.624-10.784-38.3-4.251-4.666-9.56-7.715-15.948-7.8Z" transform="translate(204.584 90.201)" fill="#fff" stroke="rgba(0,0,0,0)" stroke-miterlimit="10" stroke-width="1"/>
            <g id="Group_3506" data-name="Group 3506" transform="translate(360.016 144.775)">
              <path id="Path_3847" data-name="Path 3847" d="M52.238,23.566a6.252,6.252,0,0,1,2.717.767c2.924,1.493,4.977,4.148,6.968,6.719l1.037,1.307c4.749,5.993,9.872,12.339,15.429,18.4,1.68,1.783,3.339,3.546,5.039,5.309C89.92,62.928,96.66,70,102.363,77.88c3.09,4.272,6.346,8.5,9.5,12.588,4.417,5.745,9,11.655,13.127,17.773,4.376,6.47,5.993,11.9,5.268,17.607-1.576,12.443-9.166,21.775-19.785,24.368a17.227,17.227,0,0,1-4.314.56c-3.733,0-10.348-1.327-12.982-10.1-.975-3.277-1.763-6.657-2.53-9.913-.394-1.7-.788-3.4-1.224-5.1-2.986-11.9-8.938-19.805-18.188-24.181A53.83,53.83,0,0,0,47.759,96.5a80.577,80.577,0,0,0-10.452.726c-6.367.83-12.236,3.463-17.918,5.993-3.8,1.721-7.964,3.339-12.422,3.484-7.03,0-14.247-5.952-16.093-13.252A9.063,9.063,0,0,1-5.6,83.646,31.044,31.044,0,0,1,2.362,79.56c10.68-3.8,19.411-10.867,26.628-21.672,4.148-6.242,8.192-12.962,12.713-21.153l.871-1.618c1.887-3.526,3.712-6.906,6.346-9.726a4.494,4.494,0,0,1,3.318-1.825m0-.85a5.323,5.323,0,0,0-3.92,2.095c-3.111,3.339-5.143,7.487-7.362,11.51C37,43.537,32.848,50.589,28.306,57.432c-6.678,9.955-15.16,17.42-26.213,21.34a31.515,31.515,0,0,0-8.171,4.21,9.847,9.847,0,0,0-3.837,10.68c1.929,7.653,9.519,13.874,16.9,13.874,4.521-.145,8.689-1.721,12.754-3.567,5.724-2.551,11.489-5.1,17.69-5.91a75.638,75.638,0,0,1,10.328-.726,53.635,53.635,0,0,1,23.123,4.894c9.643,4.562,15.056,13,17.731,23.621,1.265,5.039,2.281,10.079,3.774,15.077,2.26,7.57,7.839,10.68,13.77,10.68a18.772,18.772,0,0,0,4.521-.581c11.9-2.9,18.893-13.356,20.386-25.073.912-6.927-1.763-12.816-5.392-18.188-7.072-10.514-15.222-20.1-22.626-30.382-7.2-9.913-15.8-18.374-24.057-27.188C73.6,44.325,68.58,38.1,63.6,31.82c-2.426-3.028-4.666-6.387-8.254-8.212a7.014,7.014,0,0,0-3.111-.892Z" transform="translate(10.252 -22.716)" fill="#fff" stroke="rgba(0,0,0,0)" stroke-miterlimit="10" stroke-width="1"/>
            </g>
            <path id="Path_3848" data-name="Path 3848" d="M3.853,16.565H24.529a94.648,94.648,0,0,0,6.7,19.225C34.9,43.773,38.984,51.633,43.359,59.2c6.823,11.883,14.372,24.306,25.094,34.073a107.6,107.6,0,0,0,17.586,12.962c8.586,5.06,18.188,7.839,26.649,10.348,6.947,1.991,11.966,6.823,14.973,14.33,2.924,7.362,4.334,13.21,4.625,19.017.311,6.242-.892,10.846-3.816,14.538a32.924,32.924,0,0,1-8.358,7.424c-3.754,2.3-7.673,4.438-11.489,6.533-1.348.747-2.717,1.472-4.065,2.219a70.991,70.991,0,0,0-18.6,14.268c-1.1,1.224-2.178,2.426-3.256,3.65-2.406,2.7-4.894,5.454-7.424,8.088-3.4,3.546-6.781,5.288-10.639,5.475-.249.021-.5.021-.726.021-7.549,0-13.77-6.74-16.611-13.418-2.862-6.636-3.5-13.915-2.012-22.315.664-3.671,1.555-7.424,2.426-11.054.394-1.618.809-3.235,1.161-4.853a44.735,44.735,0,0,0,.933-14.081,108.369,108.369,0,0,0-3.671-18.934l-.726-2.717c-2.447-8.918-4.957-18.1-9.063-26.525a30.208,30.208,0,0,0-5.869-8.544,31.461,31.461,0,0,0-13.044-7.176C11.567,80.916,5.491,80.46-.378,80.024c-2.634-.207-5.371-.415-8.026-.705-3.774-.456-7.57-.871-10.991-2.53-2.115-1.058-5.6-3.463-5.06-8.067a24.186,24.186,0,0,1,2.9-9,111.035,111.035,0,0,1,9.063-13.273c7.03-9.125,13.542-18.271,16.342-29.884m-.643-.83c-2.7,11.8-9.332,21.091-16.342,30.216a107.543,107.543,0,0,0-9.166,13.4,24.729,24.729,0,0,0-2.986,9.27c-.518,4.521,2.406,7.4,5.537,8.9,3.567,1.742,7.424,2.178,11.24,2.634,8.606.975,17.3.85,25.736,3.194a31.068,31.068,0,0,1,12.692,6.968,28.289,28.289,0,0,1,5.662,8.3c4.5,9.229,7.03,19.2,9.768,29.117a110.18,110.18,0,0,1,3.629,18.789,43.674,43.674,0,0,1-.913,13.833c-1.224,5.309-2.634,10.6-3.588,15.948-1.389,7.756-1.1,15.471,2.053,22.75,3.09,7.279,9.643,13.936,17.379,13.936.228,0,.5,0,.767-.021,4.542-.228,8.109-2.509,11.2-5.724,3.671-3.816,7.155-7.839,10.68-11.759a69.754,69.754,0,0,1,18.4-14.081c5.205-2.9,10.494-5.662,15.6-8.793a34.628,34.628,0,0,0,8.565-7.59c3.443-4.376,4.272-9.54,4-15.118-.332-6.8-2.24-13.127-4.687-19.287-2.986-7.487-7.984-12.671-15.492-14.807-9.1-2.675-18.146-5.392-26.462-10.307A102.641,102.641,0,0,1,69.034,92.654c-10.452-9.5-17.9-21.547-24.948-33.866-4.376-7.57-8.441-15.367-12.111-23.352a94.136,94.136,0,0,1-6.782-19.7Z" transform="translate(72.362 -15.735)" fill="#fff" stroke="rgba(0,0,0,0)" stroke-miterlimit="10" stroke-width="1"/>
            <g id="Group_3507" data-name="Group 3507" transform="translate(251.662 232.084)">
              <path id="Path_3849" data-name="Path 3849" d="M36.577,27.756a8.362,8.362,0,0,1,5.91,2.385c3.816,3.65,3.92,8.337,3.691,13.667-.1,2.281-.29,4.542-.456,6.781-.187,2.675-.415,5.413-.518,8.129a94.038,94.038,0,0,0,1.141,16.238c1.2,9.021,3.691,16.466,7.57,22.792.353.6.747,1.161,1.141,1.763a31.783,31.783,0,0,1,3.069,5.516h-72.5c1.659-9.872,4.21-19.743,6.678-29.3l1.389-5.351C-3.469,59.216.471,47.789,9.886,39.68c8.026-6.968,16.4-10.846,25.55-11.862a10.233,10.233,0,0,1,1.141-.062m0-.829a12.078,12.078,0,0,0-1.224.062c-9.809,1.078-18.374,5.454-26.027,12.07C-.006,47.084-4.092,58.324-7.14,70.186c-2.945,11.551-6.1,23.082-8.088,34.882a4.978,4.978,0,0,1-.249.788H59.285c-.954-3.214-2.966-5.807-4.666-8.544a56.739,56.739,0,0,1-7.445-22.48A93.016,93.016,0,0,1,46.013,58.76c.207-4.956.747-9.913,1.016-14.911.207-5.205.207-10.328-3.982-14.31a9.084,9.084,0,0,0-6.47-2.613Z" transform="translate(15.477 -26.926)" fill="#fff" stroke="rgba(0,0,0,0)" stroke-miterlimit="10" stroke-width="1"/>
            </g>
            <g id="Group_3508" data-name="Group 3508" transform="translate(457.382 91.021)">
              <path id="Path_3850" data-name="Path 3850" d="M30.741,20.933a69.305,69.305,0,0,1,9.934.747,48.423,48.423,0,0,1,9.312,2.779c1.514.56,3.09,1.161,4.687,1.659V74.231c-2.136.539-4.272,1.1-6.387,1.618a67.7,67.7,0,0,1-16.84,2.281A48.982,48.982,0,0,1,17.78,76.263C7.825,73.422-3.415,63.3-4.618,50.133-5.551,39.68-1.217,30.68,6.726,26.594a51.193,51.193,0,0,1,24.015-5.662m0-.809A52.217,52.217,0,0,0,6.353,25.848C-2.275,30.286-6.36,40.054-5.427,50.215c1.161,12.9,11.821,23.663,22.978,26.856A50.319,50.319,0,0,0,31.446,78.98a70.695,70.695,0,0,0,17.047-2.3c2.343-.622,4.666-1.2,7.01-1.784V25.516C50.567,24,45.9,21.638,40.779,20.85a71.721,71.721,0,0,0-10.037-.726Z" transform="translate(5.557 -20.124)" fill="#fff" stroke="rgba(0,0,0,0)" stroke-miterlimit="10" stroke-width="1"/>
            </g>
            <g id="Group_3509" data-name="Group 3509" transform="translate(0.022 212.051)">
              <path id="Path_3851" data-name="Path 3851" d="M-11.456,26.79a25.21,25.21,0,0,1,4.6.394c10.639,1.908,17.669,9.042,20.884,21.153,2.095,7.673,1.887,16.155-.622,25.944C10.672,84.816,4.7,91.183-4.84,93.754c-6.616,1.825-13.19,1.97-21.091,1.97h-.85V79.88c.394-.415.892-.435,1.721-.477h.29c.622-.021,1.286-.021,1.929-.021h1a41.232,41.232,0,0,0,6.616-.373C-3.492,76.914,3.849,67.478,3.434,54.932c-.249-7.777-5-13.563-12.111-14.724a14.97,14.97,0,0,0-2.426-.187,25.286,25.286,0,0,0-3.131.228,69.879,69.879,0,0,0-10.971,2.8l-.228.062a3.071,3.071,0,0,1-.912.228.61.61,0,0,1-.435-.166V28.843h.083c1.929-.29,3.9-.581,5.828-.954a49.351,49.351,0,0,1,9.415-1.1m0-.83a48.333,48.333,0,0,0-9.581,1.12c-2.178.415-4.355.726-6.574,1.037V43.5a1.551,1.551,0,0,0,1.265.664,4.876,4.876,0,0,0,1.369-.332A71.325,71.325,0,0,1-14.11,41.078,24.463,24.463,0,0,1-11.1,40.85a17.18,17.18,0,0,1,2.3.166C-2.041,42.136,2.377,47.549,2.6,54.952,3,67.084-4.114,76.189-15.375,78.18a39.709,39.709,0,0,1-6.47.373h-1c-.664,0-1.327,0-1.97.021-1.037.042-2.053-.021-2.8,1.016V96.554h1.68c7.176,0,14.31-.062,21.319-1.97,9.975-2.7,16.093-9.56,18.831-20.1,2.219-8.71,2.986-17.607.622-26.379C11.751,36.516,4.948,28.469-6.707,26.354a28.044,28.044,0,0,0-4.749-.394Z" transform="translate(27.611 -25.96)" fill="#fff" stroke="rgba(0,0,0,0)" stroke-miterlimit="10" stroke-width="1"/>
            </g>
            <path id="Path_3852" data-name="Path 3852" d="M-8.064,18.888a5.38,5.38,0,0,1,3.38,1.224C-.6,23.223,1.725,27.764,2.222,33.571c.311,3.588-.456,6.47-2.178,8.358A8.354,8.354,0,0,1-6.3,44.376a4.512,4.512,0,0,1-.726.041A8.727,8.727,0,0,1-15.7,37.325c-1.2-6.284-.145-11.551,3.235-16.072a5.491,5.491,0,0,1,4.4-2.364h0m0-.85a6.292,6.292,0,0,0-5.06,2.717c-3.733,4.977-4.542,10.68-3.38,16.736a9.49,9.49,0,0,0,9.478,7.735H-6.3c6.346,0,9.975-4.417,9.353-11.717-.5-5.745-2.717-10.618-7.217-14.081a6.366,6.366,0,0,0-3.9-1.389Z" transform="translate(237.163 29.723)" fill="#fff" stroke="rgba(0,0,0,0)" stroke-miterlimit="10" stroke-width="1"/>
            <g id="Group_3510" data-name="Group 3510" transform="translate(350.673 39.258)">
              <path id="Path_3853" data-name="Path 3853" d="M-4.548,17.628v.85c6.387,0,12.111,2.074,18.934,4.811a167.864,167.864,0,0,0,26.193,8.669,13.71,13.71,0,0,1,4.6,1.535c3.8,2.385,4.417,4.189,2.779,8.109a17.862,17.862,0,0,1-2.26,4l-.767.975c-2.509,3.173-5.019,6.284-7.528,9.478C30.79,64.518,26.248,72.751,23.511,81.3a68.067,68.067,0,0,0-2.758,23.393c0,1.472,0,2.82.021,4.065.021,2.406.042,4.293-.062,6.222-.207,4.148-.705,9-2.986,13.521a15.965,15.965,0,0,1-5.06,5.91,8.089,8.089,0,0,1-4.521,1.555c-3.111,0-5.786-2.281-7.321-6.3-1.41-3.8-1.638-7.943-1.866-11.966l-.041-.892c-.145-3.111-.145-6.3-.124-9.374,0-3.36.021-6.844-.207-10.286-.518-7.881-.518-15.927-.477-23.725v-4.48A98.064,98.064,0,0,0-3.283,53.713,121.256,121.256,0,0,0-6.062,41.519c-.518-2.012-1.058-4.044-1.514-6.118-.228-.975-.5-1.949-.747-2.945-.85-3.214-1.659-6.2-1.535-9.478.062-1.991.892-4.355,4.21-4.5h1.1v-.85m0,0a10.487,10.487,0,0,0-1.141.041c-3.09.124-4.874,2.012-5,5.268-.187,4.459,1.307,8.5,2.3,12.671,1.431,6.1,3.3,12.028,4.272,18.229a96.619,96.619,0,0,1,1.389,15.1c0,9.415-.145,18.851.477,28.267.394,6.574,0,13.107.353,19.639.228,4.4.373,8.918,1.949,13.107,1.742,4.583,4.791,6.844,8.088,6.844a8.833,8.833,0,0,0,5-1.7,16.627,16.627,0,0,0,5.309-6.242c2.2-4.334,2.862-9.021,3.111-13.833.124-2.966,0-5.931,0-10.348A69.059,69.059,0,0,1,24.3,81.544,79.834,79.834,0,0,1,38.049,56.6c2.779-3.526,5.558-7.01,8.316-10.494a18.338,18.338,0,0,0,2.364-4.168c1.721-4.106,1.161-6.47-3.111-9.166a14.727,14.727,0,0,0-4.853-1.618A166.176,166.176,0,0,1,14.7,22.522C8.476,20.013,2.254,17.628-4.548,17.628Z" transform="translate(10.703 -17.628)" fill="#fff" stroke="rgba(0,0,0,0)" stroke-miterlimit="10" stroke-width="1"/>
            </g>
            <g id="Group_3511" data-name="Group 3511" transform="translate(125.659 87.496)">
              <path id="Path_3854" data-name="Path 3854" d="M-16.1,20.8a10.088,10.088,0,0,1,2.323.332c3.92,1.058,7.466,3.318,10.888,5.5l.809.539c7.4,4.708,14.662,9.623,21.692,14.351,4.832,3.194,9.436,6.429,13.252,10.722,3.94,4.479,5.7,9.021,5.5,14.247.249,3.92-1.141,7.445-4.231,10.908a50.335,50.335,0,0,1-12.754,9.581l-2.8,1.6a185.107,185.107,0,0,0-16.736,10.2A40.635,40.635,0,0,1-4.426,102.6a7.48,7.48,0,0,1-3.235.83c-2.8,0-4.542-2.281-4.708-6.1a34.5,34.5,0,0,1,.6-7.652,65.8,65.8,0,0,0-.83-25.571c-.913-3.816-2.032-7.611-3.111-11.261-1.2-4.106-2.447-8.358-3.4-12.63a55.092,55.092,0,0,1-1.6-13.376c.124-4,1.659-6.035,4.6-6.035m0-.85c-3.4,0-5.288,2.343-5.433,6.844a55.5,55.5,0,0,0,1.618,13.6c1.8,8.109,4.6,15.844,6.512,23.891a65.532,65.532,0,0,1,.83,25.259,35.148,35.148,0,0,0-.622,7.8c.187,4.417,2.343,6.906,5.537,6.906a8.682,8.682,0,0,0,3.608-.892,43.342,43.342,0,0,0,6.367-3.92c6.222-4.417,12.879-8.005,19.473-11.717A50.283,50.283,0,0,0,34.728,77.96c2.9-3.235,4.749-6.947,4.459-11.427.228-6.014-2.032-10.68-5.7-14.828-3.92-4.459-8.627-7.694-13.4-10.867-7.2-4.853-14.413-9.706-21.713-14.372-3.8-2.426-7.57-4.936-11.925-6.118a10.072,10.072,0,0,0-2.551-.394Z" transform="translate(21.553 -19.954)" fill="#fff" stroke="rgba(0,0,0,0)" stroke-miterlimit="10" stroke-width="1"/>
            </g>
            <path id="Path_3855" data-name="Path 3855" d="M-14.051,17.374v.83c2.986,0,5.558,2.012,7.051,5.5a6.4,6.4,0,0,1,.124,5.5A5.012,5.012,0,0,1-10.4,31.829a16.645,16.645,0,0,1-3.94.456,22.123,22.123,0,0,1-5.413-.726,5.037,5.037,0,0,1-3.422-4.625c0-2.219.187-2.717,3.007-5.724A8.527,8.527,0,0,1-14.051,18.2v-.83m0,0A9.392,9.392,0,0,0-20.77,20.63c-2.862,3.049-3.235,3.8-3.235,6.3a5.929,5.929,0,0,0,4.044,5.434,22.647,22.647,0,0,0,5.62.767,17.679,17.679,0,0,0,4.127-.5c4.106-.975,5.828-4.977,3.982-9.27-1.7-3.92-4.645-5.993-7.818-5.993Z" transform="translate(98.81 16.616)" fill="#fff" stroke="rgba(0,0,0,0)" stroke-miterlimit="10" stroke-width="1"/>
            <g id="Group_3512" data-name="Group 3512" transform="translate(278.757 264.478)">
              <path id="Path_3856" data-name="Path 3856" d="M-7.9,29.318a2.779,2.779,0,0,1,1.991,1.037A9.6,9.6,0,0,1-4.267,41.1c-1.2,2.24-2.572,3.36-4.293,3.526a4.147,4.147,0,0,1-2.385-.975,7.073,7.073,0,0,1-2.364-6.2c.207-3.152,1.908-6.512,3.8-7.611A3.553,3.553,0,0,1-7.9,29.318m0-.83a4.007,4.007,0,0,0-2.012.643c-3.712,2.136-6.616,11.22-1.535,15.16a4.828,4.828,0,0,0,2.966,1.161c2.406-.228,3.92-2.032,4.936-3.961,2.012-3.608,1.058-8.835-1.763-11.7A3.649,3.649,0,0,0-7.9,28.488Z" transform="translate(14.171 -28.488)" fill="#fff" stroke="rgba(0,0,0,0)" stroke-miterlimit="10" stroke-width="1"/>
            </g>
            <path id="Path_3857" data-name="Path 3857" d="M12.181,21.7A26.621,26.621,0,0,1,32.235,31.32c3.007,3.608,2.883,8.15-.27,11.282-4.521,4.479-10.017,6.616-17.254,6.719h-.56c-5.33,0-9.623-1.472-13.107-4.417-3.691-3.214-5.351-6.885-5.081-11.22a11.334,11.334,0,0,1,7.383-10.2A21.986,21.986,0,0,1,12.181,21.7m0-.85a23.5,23.5,0,0,0-9.166,1.846,12.248,12.248,0,0,0-7.881,10.95C-5.178,38.578-3.042,42.456.525,45.5c3.982,3.422,8.648,4.625,13.625,4.625h.56c6.719-.083,12.713-1.846,17.835-6.927a8.91,8.91,0,0,0,.332-12.4,27.351,27.351,0,0,0-20.7-9.954Z" transform="translate(475.983 85.168)" fill="#fff" stroke="rgba(0,0,0,0)" stroke-miterlimit="10" stroke-width="1"/>
            <g id="Group_3513" data-name="Group 3513" transform="translate(19.778 112.942)">
              <path id="Path_3858" data-name="Path 3858" d="M23.765,21.99a7.084,7.084,0,0,1,5.993,3.629,11.416,11.416,0,0,1,1.555,4.376c.809,4.459.332,9-.145,13.376-.145,1.244-.27,2.468-.394,3.733a111.911,111.911,0,0,0-.5,17.441l.249,3.9c.353,5.351.726,10.825.83,16.238a42.155,42.155,0,0,1-2.281,15.969c-1.182,3.173-3.007,4.708-5.6,4.708a9.371,9.371,0,0,1-2.489-.394,30.967,30.967,0,0,1-8.565-4.459L11.3,99.7C3.3,93.994-4.979,88.083-13.067,82.214a42.733,42.733,0,0,1-8.15-7.2c-5.745-7.03-6.118-13.127-1.224-19.743A26.337,26.337,0,0,1-17.4,50.236c3.235-2.489,6.595-4.957,9.83-7.321C-1.93,38.788,3.9,34.537,9.331,29.87c3.007-2.613,7.093-5.828,11.945-7.445a7.677,7.677,0,0,1,2.489-.436h0m0-.809a8.218,8.218,0,0,0-2.758.477c-4.583,1.535-8.524,4.376-12.236,7.57-8.5,7.383-17.814,13.5-26.69,20.344A28.236,28.236,0,0,0-23.125,54.8c-5.537,7.487-4.148,14.123,1.265,20.759a44.12,44.12,0,0,0,8.3,7.321c8.482,6.159,16.985,12.215,25.508,18.291a31.068,31.068,0,0,0,8.814,4.583,9.482,9.482,0,0,0,2.717.435c2.945,0,5.1-1.784,6.367-5.268a43.167,43.167,0,0,0,2.343-16.259c-.145-6.719-.664-13.418-1.078-20.158a112.587,112.587,0,0,1,.5-17.337c.5-5.786,1.6-11.489.518-17.3a12.087,12.087,0,0,0-1.659-4.687,7.892,7.892,0,0,0-6.7-4Z" transform="translate(26.658 -21.181)" fill="#fff" stroke="rgba(0,0,0,0)" stroke-miterlimit="10" stroke-width="1"/>
            </g>
            <g id="Group_3514" data-name="Group 3514" transform="translate(233.38 130.341)">
              <path id="Path_3859" data-name="Path 3859" d="M45.475,22.87a9.615,9.615,0,0,1,2.343.415l.332.083a12.991,12.991,0,0,1,8.212,6.367,13.853,13.853,0,0,1,1.307,11.033,23,23,0,0,1-4.957,8.316c-2.2,2.385-4.562,4.666-6.844,6.885-1.286,1.224-2.551,2.426-3.8,3.691-6.781,6.8-13.77,14.683-22.086,24.8-4.4,5.33-9.83,11.344-16.923,15.554-4.4,2.634-8.254,3.982-12.173,4.21-.228.021-.456.021-.684.021a5.46,5.46,0,0,1-5-2.385c-1.2-1.825-.809-3.588.311-6.014a32.774,32.774,0,0,1,3.816-6.74A110.537,110.537,0,0,0,6.507,58.022c2.945-8.129,6.719-14.434,11.531-19.308A72.562,72.562,0,0,1,35.375,25.857,24.211,24.211,0,0,1,45,22.891l.477-.021m0-.85-.539.041a24.7,24.7,0,0,0-9.913,3.069,71.76,71.76,0,0,0-17.545,13C12.045,43.588,8.415,50.39,5.74,57.732A108.813,108.813,0,0,1-11.328,88.59a33.133,33.133,0,0,0-3.9,6.906c-1.037,2.26-1.8,4.5-.249,6.844a6.318,6.318,0,0,0,5.682,2.737c.228,0,.5,0,.747-.021a27.158,27.158,0,0,0,12.505-4.334C10.2,96.761,15.57,91.121,20.61,85,27.64,76.438,34.9,68.059,42.655,60.241c3.546-3.546,7.279-6.864,10.68-10.6a24.336,24.336,0,0,0,5.122-8.627c2.489-7.694-2.426-16.715-10.12-18.457a11.429,11.429,0,0,0-2.862-.539Z" transform="translate(16.359 -22.02)" fill="#fff" stroke="rgba(0,0,0,0)" stroke-miterlimit="10" stroke-width="1"/>
            </g>
            <g id="Group_3515" data-name="Group 3515" transform="translate(408.054 173.913)">
              <path id="Path_3860" data-name="Path 3860" d="M8.776,24.121v.829c2.157,0,4.6.933,7.445,2.9a60.127,60.127,0,0,1,16.57,16.985,25.72,25.72,0,0,1,4.148,9.353,4.423,4.423,0,0,1-.6,3.36,3.828,3.828,0,0,1-2.468,1.576,22.89,22.89,0,0,1-3.94.477l-.6-.021a184.631,184.631,0,0,1-18.519-2.219C6.246,56.556,1.373,55.561-3,52.989A7.969,7.969,0,0,1-6.8,43.7,31.079,31.079,0,0,1-.8,31.172c3.608-4.355,6.47-6.222,9.581-6.222v-.829m0,0c-3.629,0-6.74,2.3-10.224,6.512A31.87,31.87,0,0,0-7.607,43.511,8.729,8.729,0,0,0-3.4,53.694c4.417,2.592,9.208,3.629,14.061,4.479a176.406,176.406,0,0,0,18.6,2.24c.228.021.477.021.664.021a22.224,22.224,0,0,0,4.065-.5,4.787,4.787,0,0,0,3.754-5.91A26.649,26.649,0,0,0,33.5,44.4,60.752,60.752,0,0,0,16.7,27.17c-3.007-2.074-5.579-3.049-7.922-3.049Z" transform="translate(7.936 -24.121)" fill="#fff" stroke="rgba(0,0,0,0)" stroke-miterlimit="10" stroke-width="1"/>
            </g>
            <path id="Path_3861" data-name="Path 3861" d="M-17.863,23.048l.083.83c2.509,0,3.94,2.074,4.728,3.816a13.17,13.17,0,0,1,1.41,5.848c-.021,2.737-1.389,5.662-3.9,5.662a5.32,5.32,0,0,1-2.613-.83l-.809-.477a11.935,11.935,0,0,1-3.173-2.426,9.794,9.794,0,0,1-2.447-5.205,7.194,7.194,0,0,1,.829-2.613,6.576,6.576,0,0,1,5.89-3.774v-.83m0,0a7.439,7.439,0,0,0-6.616,4.21,7.555,7.555,0,0,0-.933,3.132,10.965,10.965,0,0,0,2.655,5.641,15.633,15.633,0,0,0,4.189,3.049,5.887,5.887,0,0,0,3.028.954c3.007,0,4.708-3.235,4.728-6.45a14,14,0,0,0-1.493-6.2c-1.12-2.551-2.924-4.334-5.454-4.334Z" transform="translate(71.038 128.612)" fill="#fff" stroke="rgba(0,0,0,0)" stroke-miterlimit="10" stroke-width="1"/>
          </g>
        </g>
      </g>
    </g>
  </g>
</svg>
