<svg xmlns="http://www.w3.org/2000/svg" width="17.782" height="17.782" viewBox="0 0 17.782 17.782">
  <g id="Group_3764" data-name="Group 3764" transform="translate(-58 -95)">
    <path id="Path_1412" data-name="Path 1412" d="M71.893,95h.382a.878.878,0,0,1,.553.986c-.013.158,0,.319,0,.493.371,0,.717,0,1.063,0a1.849,1.849,0,0,1,1.893,1.9q0,6.275,0,12.55a1.842,1.842,0,0,1-1.849,1.853H59.855a1.843,1.843,0,0,1-1.792-1.369c-.018-.065-.042-.129-.063-.193V98.056a.47.47,0,0,0,.033-.077,1.764,1.764,0,0,1,1.435-1.445,7.639,7.639,0,0,1,1.226-.055c.084,0,.168,0,.263,0,0-.085,0-.142,0-.2,0-.168,0-.335,0-.5A.817.817,0,0,1,61.508,95h.382a.829.829,0,0,1,.558.926c-.015.177,0,.356,0,.543h8.893c0-.251,0-.493,0-.734a.661.661,0,0,1,.226-.524A2.5,2.5,0,0,1,71.893,95Zm-12.4,5.94v.189q0,4.853,0,9.706c0,.339.119.459.458.459H73.855c.313,0,.439-.127.439-.443q0-4.862,0-9.723v-.187Zm0-1.5h14.8c0-.391.006-.772,0-1.152a.315.315,0,0,0-.3-.3c-.38-.013-.761,0-1.139,0-.149.506-.379.742-.756.728a.993.993,0,0,1-.436-.138.741.741,0,0,1-.33-.592H62.462c-.085.449-.32.708-.7.727a.9.9,0,0,1-.43-.1.759.759,0,0,1-.389-.636h-.938c-.052,0-.1,0-.156,0a.35.35,0,0,0-.359.33C59.485,98.675,59.49,99.05,59.49,99.436Z" transform="translate(0 0)" fill="#51596c"/>
    <path id="Path_1413" data-name="Path 1413" d="M229.367,309.639a.735.735,0,0,1-.74-.734.742.742,0,1,1,1.485-.012A.736.736,0,0,1,229.367,309.639Z" transform="translate(-164.701 -205.749)" fill="#51596c"/>
    <path id="Path_1414" data-name="Path 1414" d="M293.367,309.64a.736.736,0,0,1-.74-.734.742.742,0,1,1,1.484,0A.735.735,0,0,1,293.367,309.64Z" transform="translate(-226.478 -205.75)" fill="#51596c"/>
    <path id="Path_1415" data-name="Path 1415" d="M357.358,309.638a.736.736,0,0,1-.733-.742.742.742,0,1,1,1.485,0A.737.737,0,0,1,357.358,309.638Z" transform="translate(-288.253 -205.747)" fill="#51596c"/>
    <path id="Path_1416" data-name="Path 1416" d="M421.358,309.636a.736.736,0,0,1-.736-.738.743.743,0,1,1,1.485,0A.738.738,0,0,1,421.358,309.636Z" transform="translate(-350.028 -205.745)" fill="#51596c"/>
    <path id="Path_1417" data-name="Path 1417" d="M165.372,479.02a.735.735,0,0,1,.736.738.742.742,0,1,1-1.485,0A.736.736,0,0,1,165.372,479.02Z" transform="translate(-102.92 -370.682)" fill="#51596c"/>
    <path id="Path_1418" data-name="Path 1418" d="M229.369,479.02a.736.736,0,0,1,.741.733.743.743,0,1,1-1.485.014A.736.736,0,0,1,229.369,479.02Z" transform="translate(-164.699 -370.682)" fill="#51596c"/>
    <path id="Path_1419" data-name="Path 1419" d="M294.1,479.747a.743.743,0,1,1-1.485.017.743.743,0,0,1,1.485-.017Z" transform="translate(-226.462 -370.677)" fill="#51596c"/>
    <path id="Path_1420" data-name="Path 1420" d="M357.382,479.017a.737.737,0,0,1,.729.745.742.742,0,1,1-1.485-.009A.736.736,0,0,1,357.382,479.017Z" transform="translate(-288.255 -370.679)" fill="#51596c"/>
    <path id="Path_1421" data-name="Path 1421" d="M166.106,394.357a.743.743,0,1,1-.742-.734A.738.738,0,0,1,166.106,394.357Z" transform="translate(-102.918 -288.251)" fill="#51596c"/>
    <path id="Path_1422" data-name="Path 1422" d="M230.108,394.363a.742.742,0,1,1-.734-.742A.738.738,0,0,1,230.108,394.363Z" transform="translate(-164.697 -288.249)" fill="#51596c"/>
    <path id="Path_1423" data-name="Path 1423" d="M294.108,394.361a.743.743,0,1,1-.753-.741A.74.74,0,0,1,294.108,394.361Z" transform="translate(-226.474 -288.248)" fill="#51596c"/>
    <path id="Path_1424" data-name="Path 1424" d="M358.093,394.352a.743.743,0,1,1-.728-.749A.741.741,0,0,1,358.093,394.352Z" transform="translate(-288.236 -288.232)" fill="#51596c"/>
    <path id="Path_1425" data-name="Path 1425" d="M421.353,395.1a.743.743,0,1,1,.746-.731A.739.739,0,0,1,421.353,395.1Z" transform="translate(-350.019 -288.246)" fill="#51596c"/>
  </g>
</svg>
