<svg xmlns="http://www.w3.org/2000/svg" width="1623.558" height="974.442" viewBox="0 0 1623.558 974.442">
  <g id="Group_3476" data-name="Group 3476" transform="translate(-896.501 -1787.5)">
    <g id="Group_3475" data-name="Group 3475" transform="translate(897 1788.001)">
      <g id="Group_3459" data-name="Group 3459" transform="translate(0.068 0)">
        <path id="Path_3808" data-name="Path 3808" d="M800.639,18.331H913.573a8.222,8.222,0,0,1,3.44,4.219c1.882,5.257,3.829,10.45,5.712,15.642,6.1,16.486,12.4,33.491,17.135,50.691,2.856,10.19,5.257,20.575,7.594,30.57,1.623,6.945,3.31,13.955,5.063,20.77,5.192,21.094,14.474,38.553,28.3,53.417,3.894,4.089,7.854,8.113,11.748,12.007,6.361,6.361,12.786,12.786,18.628,19.8,17.524,21.159,27.455,47.38,30.441,80.482l.649,7.01c1.493,17.005,3.051,34.594,6.166,51.534a963.781,963.781,0,0,1,14.733,121.437c.779,11.553,2.272,26.676,7.983,40.955,7.2,18.433,19.536,29.532,36.282,33.3a59.639,59.639,0,0,0,12.981,1.363c13.63,0,26.806-4.8,39.073-14.279,17.329-13.176,29.921-32.258,38.683-58.349,7.464-22.068,8.568-45.433,9.022-65.554.52-15.382,1.1-31.738,3.894-48.224,5.906-35.373,22.132-64.256,48.159-85.934,10-8.243,20.7-15.577,31.09-22.782l7.074-4.933c44.07-30.765,38.294-82.883,33.815-103.848-1.363-5.841-4.543-10.514-7.789-14.733-9.411-11.943-22.392-14.668-33.88-16.356a197.489,197.489,0,0,0-25.508-1.428c-3.764,0-7.464.065-11.1.13-3.7.065-7.334.065-11.1.065h-6.036a115.367,115.367,0,0,1-27-3.57c-34.335-9.022-64.256-28.493-91.516-59.583-8.762-10-15.707-22.457-21.937-39.2-1.039-2.6-1.233-3.7-.649-4.608h52.962c1.947,1.168,3.115,3.245,4.479,5.971,8.438,16.551,17.394,28.558,28.168,37.71,20.77,17.654,45.109,25.832,76.653,25.832,5.192,0,10.9-.26,16.745-.714,15.967-1.363,33.1-2.791,50.236-4.673,11.1-1.233,22.262-2.4,33.167-5.452,9.541-2.661,15.837-8.567,19.212-18.044,3.051-8.632,5.257-18.368,6.88-30.57l.325-2.272c.195-3.051.519-5.777,2.272-7.789h50.171a31.687,31.687,0,0,1,4.673,5.387c7.659,11.034,15.967,18.3,25.767,22.587,9.151,3.959,18.693,6.685,28.039,9.281l.584.195,8.957,2.337c11.943,3.116,24.209,6.426,35.633,11.618,16.68,7.659,27.195,16.486,33.88,28.818,11.423,21.029,15.512,44.005,12.072,68.41-5.128,36.477-21.938,61.984-51.275,78.21-24.339,13.435-50.3,21.743-70.032,27.52-3.765,1.1-7.529,2.142-11.293,3.18-12.721,3.57-25.962,7.269-38.424,12.916-22.133,9.8-35.763,27.39-40.436,52.248-2.272,12.007-2.272,24.08-2.272,35.763v6.426c0,11.164,1.752,22.976,5.322,36.152,9.606,35.892,31.024,64.645,65.748,88.141,18.5,12.527,38.554,22.392,58.09,32,4.673,2.336,9.476,4.608,14.214,7.01,17.979,9.086,37.191,19.342,54.974,32.582,8.243,6.036,16.616,12.981,22.068,22.846V723.587c-.844-.13-1.882-1.168-2.921-2.207-.584-.454-1.1-1.038-1.623-1.493-14.474-12.656-25.962-23.236-36.152-33.3-19.991-19.731-37.775-41.344-58.284-67.825-17.979-22.976-32.907-39.787-48.419-54.455l-11.229-10.45c-13.565-12.591-27.584-25.7-40.371-39.657-12.981-14.279-24.339-30.96-34.594-50.95-13.241-26.027-18.823-54.585-23.106-79.378l-.519-3.31c-2.142-12.786-4.284-25.962-9.346-38.229-4.543-11.164-12.916-17.394-23.431-17.394a27.193,27.193,0,0,0-6.426.779,54.252,54.252,0,0,0-16.226,6.555c-17.265,9.8-25.053,26.741-30.505,42.123-6.361,18.043-7.983,37.19-9.411,55.688l-.714,8.438c-2.921,35.178-13.046,67.89-30.116,97.163-12.851,22.2-29.077,39.4-48.224,51.21-16.745,10.32-35.5,15.317-57.311,15.317a174.86,174.86,0,0,1-27.39-2.272c-19.731-3.051-32.712-14.214-38.294-33.3-3.18-10.969-4.154-22.587-4.738-32.388-.519-9.671-.844-19.342-1.038-29.077-.324-10.774-.649-21.938-1.3-32.972a252.779,252.779,0,0,0-13.825-68.409c-7.724-21.938-17.978-44.979-32.258-72.5-13.5-26.222-30.051-44.135-50.755-54.78-10.644-5.452-19.536-9.216-27.714-9.152-10.969,0-19.991,6.491-29.986,21.873a579.233,579.233,0,0,1-48.419,64.45c-15.253,17.654-33.426,34.659-58.8,55.169-22.068,17.524-37.061,35.049-47.251,55.039-3.05,5.906-5.906,12.007-8.7,18.108-3.829,8.113-7.789,16.486-12.072,24.469-16.226,29.662-36.931,48.549-63.412,57.7-8.308,2.791-16.94,5.387-25.248,7.854-11.618,3.375-23.5,6.945-35.114,11.358-37.775,14.409-61.854,38.034-73.667,72.3-7.854,22.522-9.93,41.864-6.685,60.881,2.986,17,10.645,32.972,22.587,47.575A689.368,689.368,0,0,1,581.2,851.644c6.3,10.709,11.942,18.952,17.849,25.9,12.137,14.344,25.508,21.289,40.825,21.289h1.687c22.2-.909,42.123-10.644,62.958-30.83,15.967-15.188,25.962-35.243,35.633-54.65l.779-1.493c14.214-28.363,32-52.378,52.9-71.46,20.77-18.822,41.539-37.45,62.438-56.143l35.178-31.479c23.69-21.354,47.9-31.8,73.927-31.8,1.947,0,4.024.065,6.1.195,17.849,1.1,30.635,6.815,40.241,17.979a118.161,118.161,0,0,1,16.81,26.546c2.661,5.517,5.257,10.969,7.789,16.421,8.762,18.628,17.849,37.839,29.207,55.3,12.592,19.277,25.443,32.388,40.306,41.279,13.241,7.918,25.767,11.813,38.294,11.813a63.72,63.72,0,0,0,24.4-5.063,183.583,183.583,0,0,0,22.327-11.358c4.349-2.6,8.7-5.322,12.916-8.048,10.644-6.685,21.678-13.565,33.036-19.212,16.745-8.373,33.88-12.527,51.015-12.527a106.9,106.9,0,0,1,22.457,2.337c32.907,6.75,56.272,32.063,62.309,67.7,2.272,13.305,2.337,27.779.26,45.758-3.245,29.921-21.743,51.469-49.587,57.635-15.318,3.44-31.154,4.089-46.472,4.673-6.945.26-14.084.584-21.029,1.039-3.959.26-7.854.325-11.813.325a113.41,113.41,0,0,0-18.628,1.1c-28.493,4.089-49.717,16.81-64.645,38.618-5.127,7.464-9.606,15.9-14.538,27.325a10.5,10.5,0,0,1-4.479,5.712h-68.215a4.083,4.083,0,0,1-1.233-2.921,54.538,54.538,0,0,0-.779-8.048,72.788,72.788,0,0,1-.649-8.243c.26-19.731.974-42.967,4.933-65.684,2.531-14.214.065-27.844-7.464-41.734a420.47,420.47,0,0,1-21.743-47.51c-2.661-6.75-5.257-13.5-7.853-20.25-7.2-18.758-14.669-38.164-23.755-56.4-9.022-18.108-17.524-30.895-27.455-41.279-11.748-12.592-25.572-19.017-41.02-19.017-.909,0-1.752,0-2.661.065-13.435.844-26.611,5.387-39.267,13.63-18.044,11.813-35.373,25.248-52.119,38.229l-10.9,8.5A266,266,0,0,0,796.81,779.21c-15.318,19.017-25.313,41.6-33.88,63.088-13.435,33.426-32.777,64.191-59.128,93.788-10.255,11.618-21.354,26.091-26.027,45.433a8.676,8.676,0,0,1-2.921,5H597.1l-.26-.325a13.388,13.388,0,0,1-3.245-4.284c-6.036-16.031-16.486-29.661-31.933-41.669l-6.3-4.933c-13.63-10.515-27.65-21.419-40.176-33.75-18.5-18.563-35.5-39.657-52.054-64.191-14.6-21.938-30.635-39.267-49.2-53.027A212.44,212.44,0,0,1,387.39,760c-15.772-16.486-30.44-34.529-44.59-52.054-4.544-5.647-9.087-11.229-13.76-16.875-13.241-16.161-22.717-30.7-29.791-45.628C281.79,609.289,277.9,569.892,276.4,536.207c-1.168-22.652,1.558-46.732,8.632-75.614,4.349-18.368,8.633-38.164,7.918-58.739-.974-31.414-9.087-59.972-24.274-84.9-14.993-24.469-37.385-36.8-66.657-36.8-1.428,0-2.856.065-4.349.065-18.887.779-38.034,6.3-56.857,16.356-15.382,8.113-29.4,18.108-45.628,30.57-32.517,25.118-69.253,41.344-112.545,49.587a13.351,13.351,0,0,0-2.077.454,16.426,16.426,0,0,1-3.375.519,3.641,3.641,0,0,1-2.207-.584V309.494a3.373,3.373,0,0,1,2.466-1.168h0a74.751,74.751,0,0,0,10-.844c2.466-.26,4.868-.519,7.334-.649a176.123,176.123,0,0,0,40.371-6.62c16.421-4.543,31.868-12.007,46.926-19.277,4.868-2.272,9.671-4.608,14.539-6.815,34.529-15.967,67.047-23.69,99.5-23.69a195.182,195.182,0,0,1,27.455,1.882c28.234,3.765,50.3,19.147,65.554,45.758,12.851,22.2,21.938,48.614,28.948,83.143,4.219,20.9,5.127,39.592,2.726,57.051-1.688,12.072-4.543,24.08-7.269,35.762-.974,4.284-2.012,8.5-2.985,12.786-6.166,27.65-7.594,53.417-4.349,78.73,6.88,52.248,31.868,91.256,74.186,116.115,11.229,6.62,21.224,9.736,30.44,9.736,14.279,0,26.741-7.529,38.1-22.976,7.918-10.515,14.733-22,21.289-33.1,2.466-4.024,4.868-8.178,7.464-12.267a173.4,173.4,0,0,1,72.693-65.294c12.4-6.166,25.378-11.293,38.034-16.291,7.529-2.985,15.058-5.971,22.522-9.151,35.438-15.447,55.429-41.15,61.011-78.73a329.322,329.322,0,0,0,3.375-54,69.65,69.65,0,0,1,2.337-19.991c3.18-12.786,10.774-20.185,23.041-22.262a86.906,86.906,0,0,1,16.031-1.1h7.789c21.483-.13,41.279-9.476,55.818-26.351,15.837-18.5,22.782-43.357,19.082-68.215-4.478-29.532-15.772-57.116-25.7-81.391-1.817-4.478-3.764-8.892-5.647-13.305-6.49-15.447-13.305-31.284-18.108-47.835-6.88-23.885-4.868-42.772,6.231-59.388C762.6,50,771.042,42.281,779.156,35.271c2.207-1.817,4.349-3.894,6.49-5.971,4.673-4.673,9.087-9.022,14.993-10.969m-.389-2.6c-9.541,2.921-15.383,11.423-22.782,17.589-8.632,7.4-16.94,15.123-23.5,24.988-12.851,19.277-12.721,39.981-6.49,61.53,6.231,21.354,15.447,41.214,23.82,61.4,10.709,26.221,21.224,52.378,25.508,80.806,7.2,47.965-27,91.386-72.3,91.581h-7.789a93.869,93.869,0,0,0-16.486,1.1c-13.435,2.337-21.678,10.385-25.183,24.209a76.364,76.364,0,0,0-2.336,20.64,323.269,323.269,0,0,1-3.375,53.676c-5.647,37.969-26.676,62.374-59.388,76.653-20.12,8.632-40.89,15.642-60.751,25.508-30.375,14.733-55.234,36.412-73.8,66.268-9.281,15.188-17.849,30.895-28.558,45.239C435.679,682.113,423.8,688.8,410.821,688.8c-9.087,0-18.758-3.31-29.077-9.346-41.993-24.664-66.268-63.152-72.953-114.232-3.44-26.416-1.428-52.183,4.284-77.886,3.635-16.1,7.983-32.193,10.32-48.743,2.661-19.471,1.038-38.878-2.791-57.9-5.906-29.4-14.279-58.025-29.207-83.922-15.447-26.871-37.9-43.1-67.5-46.991a192.435,192.435,0,0,0-27.779-2.012c-34.724,0-68.085,8.957-100.538,23.95-20.185,9.216-39.722,20.121-61.14,25.962a173.345,173.345,0,0,1-39.787,6.555c-5.582.195-11.1,1.428-16.745,1.428h-.455c-2.142,0-3.57,1.233-5.062,2.791v69.838a6.332,6.332,0,0,0,4.8,2.012c2.012,0,4.024-.714,5.906-1.038,41.279-7.854,79.508-23.625,113.648-50.042,14.474-11.1,29.207-21.873,45.3-30.311,17.459-9.346,36.217-15.318,55.753-16.031,1.428-.13,2.856-.13,4.219-.13,26.546,0,49,10.385,64.45,35.568,15.447,25.378,22.976,53.417,23.885,83.6.714,19.926-3.31,39.008-7.854,58.025-6.1,25.053-10.06,50.431-8.7,76.393,1.687,38.1,6.49,75.744,23.106,110.208,7.983,16.94,18.563,32.063,30.116,46.147,19.212,23.3,37.58,47.316,58.479,69.059a210.38,210.38,0,0,0,26.936,24.664c19.342,14.344,35.048,32,48.549,52.378a440.23,440.23,0,0,0,52.313,64.58c14.6,14.409,30.765,26.416,46.8,38.943,13.695,10.644,24.664,23.56,31.089,40.565,1.038,2.661,2.986,4.284,4.868,6.231h79.573a11.037,11.037,0,0,0,4.673-6.945c4.219-17.589,14.084-31.479,25.443-44.395,24.859-27.909,45.239-58.869,59.583-94.566,8.827-22.068,18.563-43.811,33.556-62.373a263.137,263.137,0,0,1,44.135-42.967c20.769-15.967,41.02-32.322,62.893-46.537,11.748-7.659,24.4-12.4,37.969-13.241.909-.065,1.688-.065,2.531-.065,15.188,0,28.3,6.49,39.2,18.238,11.229,11.748,19.6,25.9,26.935,40.631,12.267,24.664,21.354,50.82,31.544,76.393,6.555,16.486,13.5,32.517,21.873,47.9,6.815,12.462,9.736,25.508,7.2,39.981-3.765,21.808-4.738,44.005-4.933,66.073-.13,5.582,1.3,10.969,1.3,16.356,0,2.466,1.233,3.959,2.791,5.517h70.032a12.654,12.654,0,0,0,6.1-7.269c4.089-9.346,8.5-18.5,14.344-26.936,15.577-22.846,37.32-33.751,62.893-37.515,10-1.623,20.121-.649,30.246-1.363,22.587-1.688,45.369-.714,67.89-5.712,27.974-6.3,48.159-28.169,51.6-59.907,1.752-15.512,2.336-31.089-.26-46.537-6.231-36.671-30.181-62.763-64.45-69.773a107,107,0,0,0-22.911-2.4c-17.914,0-35.373,4.413-52.248,12.786-15.967,7.983-30.765,18.109-46.017,27.39a175.8,175.8,0,0,1-22.068,11.164,60.112,60.112,0,0,1-23.365,4.868c-12.656,0-24.988-4.219-36.931-11.423-16.486-9.8-28.818-24.145-39.462-40.436-14.539-22.457-25.118-47.316-36.866-71.46a119.111,119.111,0,0,0-17.265-27.2c-11.358-13.37-25.962-17.849-41.928-18.822-2.142-.13-4.219-.195-6.3-.195-28.948,0-53.806,12.721-75.744,32.452-32.452,29.272-65.164,58.284-97.552,87.686-22.133,20.25-39.657,44.719-53.482,72.174-9.93,19.926-19.861,40.176-35.892,55.494-17.33,16.81-37,29.077-61.205,30.051H639.87c-15.9,0-28.493-8.113-38.878-20.38A177.933,177.933,0,0,1,583.4,850.346a693.618,693.618,0,0,0-62.114-87.881c-11.034-13.37-18.952-28.623-22-46.342-3.57-20.51-.13-40.306,6.555-59.647,12.656-36.736,38.813-57.9,72.109-70.617,19.861-7.594,40.436-12.462,60.3-19.212,29.4-10.19,49.717-31.219,64.84-59,7.529-13.825,13.63-28.558,20.77-42.642,11.294-22.2,27.844-39.2,46.6-54.131,21.029-17.005,41.344-34.854,59.193-55.494A591.654,591.654,0,0,0,878.2,290.737c9.8-14.993,18.108-20.835,27.844-20.835,7.529,0,15.9,3.44,26.546,8.957,22.522,11.618,37.84,30.765,49.587,53.676,12.137,23.366,23.3,47.056,32.128,72.109A249.034,249.034,0,0,1,1028,472.34c1.233,20.7,1.363,41.344,2.336,62.049.649,11.034,1.688,22.262,4.868,32.972,6.166,21.094,20.964,32.128,40.371,35.113a176.965,176.965,0,0,0,27.779,2.337c20.315,0,40.046-4.219,58.674-15.707,20.7-12.721,36.671-30.635,49.068-52.054,17.524-30.116,27.519-62.893,30.44-98.331,1.882-21.354,2.791-43.032,10.06-63.477,5.906-16.681,13.76-31.933,29.337-40.7a49.429,49.429,0,0,1,15.512-6.3,25.984,25.984,0,0,1,5.841-.649c9.411,0,16.81,5.517,21.029,15.642,5.387,13.111,7.4,27.065,9.736,41.02,4.673,27.649,10.515,55.039,23.366,80.092,9.606,18.822,20.9,36.152,34.984,51.6,16.356,17.914,34.2,33.815,51.729,50.3,17.459,16.551,33.1,34.919,48.16,54.131,18.368,23.69,37.32,47.121,58.479,68.085,11.748,11.488,23.95,22.587,36.347,33.426,1.882,1.558,3.635,4.284,6.3,4.284a4.644,4.644,0,0,0,2.466-.714V601.306c-5.647-10.385-14.084-17.719-23.106-24.274-17.395-12.916-36.217-23.171-55.429-32.842-24.339-12.267-49.133-23.366-71.979-38.813-30.895-20.9-54.39-48.224-64.645-86.648a133.525,133.525,0,0,1-5.322-35.5c.13-13.889-.389-27.779,2.272-41.669,4.608-24.339,17.654-40.955,38.943-50.431,15.967-7.14,32.842-11.034,49.393-15.967,24.209-7.01,48.094-15.253,70.551-27.65,30.895-17,47.51-44.2,52.638-80.157,3.505-24.858-.519-48.289-12.4-70.1-8.113-14.8-20.834-23.366-35.114-29.856-14.409-6.62-29.726-9.93-44.914-14.149-9.476-2.661-19.147-5.322-28.3-9.346-10.32-4.414-18.043-12.072-24.469-21.354-1.882-2.466-3.635-4.933-6.1-6.815h-52.248c-3.57,3.245-3.44,7.853-4.024,12.332a151.127,151.127,0,0,1-6.75,30.051c-3.18,8.827-9.022,14.02-17.459,16.421-10.774,2.921-21.678,4.089-32.712,5.387-16.746,1.752-33.491,3.18-50.236,4.608-5.517.454-11.034.714-16.486.714-26.935,0-52.443-6.1-74.965-25.183C1170.142,50,1161.7,37.154,1154.435,23.134c-1.493-2.986-3.051-5.841-6.1-7.4h-54.715c-2.726,2.4-1.817,5.192-.714,8.113,5.452,14.6,12.267,28.428,22.392,39.981,25.7,29.272,56.013,50.691,92.879,60.426a120.479,120.479,0,0,0,27.649,3.57c2.012.065,4.024.13,6.036.13,7.4,0,14.734-.26,22.2-.26a190.437,190.437,0,0,1,25.118,1.363c12.267,1.817,23.755,4.608,32.258,15.447,3.115,4.089,6.036,8.438,7.269,13.63,7.594,35.373,2.466,76.588-32.777,101.251-12.916,9.022-26.027,17.654-38.294,27.844-27,22.392-43.1,51.794-49.133,87.557-2.726,16.1-3.375,32.322-3.829,48.484-.52,21.938-1.947,43.876-9.022,64.84-7.594,22.717-19.017,42.837-37.645,57.116-11.488,8.762-24.08,13.7-37.58,13.7a58.327,58.327,0,0,1-12.4-1.3c-16.875-3.764-27.974-15.252-34.464-31.608-5.062-12.916-6.88-26.546-7.724-40.241a970.451,970.451,0,0,0-14.863-121.7c-3.5-19.212-5-38.813-6.685-58.414-2.791-30.505-11.553-58.284-31.089-81.91-9.476-11.229-20.38-21.159-30.44-31.933-13.825-14.733-22.782-32.063-27.779-52.184-4.349-17.135-7.918-34.4-12.592-51.4-6.3-22.782-14.993-44.46-22.976-66.592a11.119,11.119,0,0,0-5.063-5.906Z" transform="translate(27.611 -15.735)" fill="#fff" stroke="rgba(0,0,0,0)" stroke-miterlimit="10" stroke-width="1"/>
      </g>
      <g id="Group_3464" data-name="Group 3464" transform="translate(0 0)">
        <g id="Group_3460" data-name="Group 3460" transform="translate(0 586.544)">
          <path id="Path_3809" data-name="Path 3809" d="M-21.832,27.368a6.066,6.066,0,0,1,1.493.13c15.253,2.012,27.52,3.894,38.553,5.971,44.784,8.7,81.521,30.895,109.3,66.008a201.514,201.514,0,0,1,19.536,29.467c16.421,30.895,21.289,64.515,24.144,96.189l.195,1.882c1.817,20.38,3.635,41.409,9.476,61.659,6.75,23.5,16.551,39.916,30.96,51.664,10.45,8.5,21.743,15.837,32.712,22.911,4.089,2.661,8.308,5.387,12.332,8.113a139.754,139.754,0,0,1,34.01,32.712c1.882,2.466,2.531,3.7,2.077,4.933H231.881a89.941,89.941,0,0,0-11.293-2.856c-2.6-.454-5.192-.974-7.789-1.688a52.083,52.083,0,0,0-13.89-2.012,48.3,48.3,0,0,0-24.015,6.555c-66.008,0-132.211,0-198.154.065a10.815,10.815,0,0,1-1.752-.13v-1.817c.195-9.346.13-18.628.065-27.974V368.183a5.478,5.478,0,0,1,3.894-1.363,16.234,16.234,0,0,1,3.05.325,92.108,92.108,0,0,0,15.123.844H15.942c11.618,0,24.015-.13,36.606-1.3,16.1-1.558,34.724-3.764,52.443-9.8,15.058-5.257,24.6-16.356,28.493-33.037,4.154-18.3,5.192-36.606,6.036-56.792.909-18.757,1.688-37.19.519-56.013-2.077-30.895-8.373-55.1-19.666-76.068C103.953,104.865,81.821,85.2,52.614,74.814c-16.031-5.582-31.8-6.3-43.746-6.3-6.945,0-13.89.26-20.834.584l-4.024.13-2.207.195a23.194,23.194,0,0,1-2.921.26,5.182,5.182,0,0,1-3.829-1.3V28.536a4.061,4.061,0,0,1,3.115-1.168m0-2.6a6.81,6.81,0,0,0-5.712,2.791V69.426a7.772,7.772,0,0,0,6.426,2.856c1.688,0,3.5-.325,5.257-.454C-7.618,71.5.69,71.114,8.868,71.114c14.409,0,28.688,1.233,42.837,6.166,29.532,10.45,51.015,30.765,66.4,58.934,12.527,23.171,17.589,48.419,19.342,74.965,1.168,18.693.389,37.126-.519,55.753-.779,18.822-1.752,37.774-5.971,56.337-3.7,15.772-12.462,26.092-26.741,31.154-16.875,5.712-34.4,7.983-51.924,9.671-12.072,1.168-24.144,1.3-36.347,1.3-6.231,0-12.527-.065-18.822-.065a93.856,93.856,0,0,1-14.733-.779,20.567,20.567,0,0,0-3.44-.324,7.662,7.662,0,0,0-6.49,3.05c0,13.241.195,26.546-.065,39.787-.065,3.829.779,4.608,4.349,4.608,66.2-.065,132.6-.065,198.8-.065a45.7,45.7,0,0,1,23.366-6.555,49.786,49.786,0,0,1,13.241,1.882c6.425,1.752,13.046,2.4,19.341,4.673h62.893c2.856-3.57.389-6.62-1.428-9.022a141.864,141.864,0,0,0-34.594-33.361c-15.058-10.06-30.7-19.342-44.914-30.96-15.837-12.916-24.469-30.635-30.116-50.3-5.841-20.575-7.659-41.8-9.541-63.087-3.05-33.88-8.438-66.982-24.469-97.162a200.091,200.091,0,0,0-19.8-29.856C100.384,60.989,63,39.506,18.733,30.938,5.882,28.536-7.034,26.654-19.95,24.9a9.5,9.5,0,0,0-1.882-.13Z" transform="translate(27.612 -24.772)" fill="#fff" stroke="rgba(0,0,0,0)" stroke-miterlimit="10" stroke-width="1"/>
        </g>
        <g id="Group_3461" data-name="Group 3461" transform="translate(344.583)">
          <path id="Path_3810" data-name="Path 3810" d="M-19.382,18.331H4.373c2.012,1.233,2.791,3.375,3.57,7.2C11.772,43.9,18.976,62.207,31.178,84.988c5.582,10.255,11.293,20.51,16.94,30.765,9.022,16.161,18.238,32.907,27.065,49.587,10.06,19.342,21.419,39.527,38.553,55.3,20.445,18.757,40.7,27.909,61.854,27.909,1.882,0,3.765-.065,5.777-.195,19.407-1.363,35.243-10,46.991-25.7,15.188-20.056,20.315-44.005,23.431-64.775,2.337-16.291,3.375-32.972,4.414-49.068l.584-8.373c1.558-24.4,5.128-49,8.567-72.758l.584-4.219a9.057,9.057,0,0,1,2.6-5.127h56.4a157.64,157.64,0,0,1-12.592,37.385c-13.695,28.169-23.431,58.674-29.791,93.268l-.974,5.192c-4.219,22.457-8.567,45.563-16.031,67.306-4.089,12.4-8.827,25.248-17.719,35.113-14.279,15.577-32,23.236-54.325,23.236a103.067,103.067,0,0,1-16.291-1.3c-38.424-5.582-70.941-26.87-99.369-64.9-12.656-17.005-23.5-36.022-33.945-54.26l-1.3-2.337c-3.829-6.555-7.659-13.111-11.553-19.6C18.457,116.273,5.476,94.335-4.259,70.9c-8.5-20.315-13.176-36.671-15.123-52.573m-2.921-2.6c2.012,19.8,8.178,38.294,15.642,56.207C6.06,102.578,23.974,129.967,40.33,158.4c11.1,19.342,22.133,38.878,35.438,56.792,26.221,35.114,58.8,59.777,101.057,65.943a113.291,113.291,0,0,0,16.681,1.363c20.77,0,40.241-6.62,56.208-24.145,9.087-10.125,13.955-22.976,18.3-35.957,8.113-23.625,12.462-48.419,17.07-72.953,5.971-32.388,15.382-63.282,29.6-92.619a156.171,156.171,0,0,0,13.305-41.085H267.5a12.4,12.4,0,0,0-4.154,7.4c-3.635,25.572-7.464,51.21-9.151,77.107-1.3,19.212-2.207,38.294-5,57.246-3.375,22.911-8.827,44.979-22.911,63.607-11.553,15.382-26.936,23.366-45.109,24.6a55.237,55.237,0,0,1-5.582.26c-23.236,0-42.642-11.229-60.1-27.26C99,203.569,87.84,183.968,77.456,164.107,63.177,137.042,48.119,110.626,33.45,83.69c-9.93-18.5-18.563-37.645-22.976-58.674-.779-3.829-1.752-7.464-5.452-9.281Z" transform="translate(22.303 -15.735)" fill="#fff" stroke="rgba(0,0,0,0)" stroke-miterlimit="10" stroke-width="1"/>
        </g>
        <g id="Group_3462" data-name="Group 3462" transform="translate(0.068)">
          <path id="Path_3811" data-name="Path 3811" d="M76.5,18.331h75.484c-2.337,8.762-4.608,17.07-8.178,24.988C130.5,73.046,109.727,98.034,82.013,117.441,65.138,129.253,46.9,135.29,27.948,135.29a100.676,100.676,0,0,1-16.356-1.428L-17.616,128.8l-7.4-1.168V40.983a10.024,10.024,0,0,1,6.685-2.012c1.623,0,3.31.26,4.933.389a27.026,27.026,0,0,0,3.894.324l6.426.389c7.464.519,15.188,1.038,22.717,1.038,4.219,0,8.113-.13,11.813-.454,16.161-1.428,28.883-7.2,38.943-17.784a24.025,24.025,0,0,1,6.1-4.543m-.649-2.6a27.49,27.49,0,0,0-7.334,5.322C58.193,31.9,45.407,36.829,31.258,38.062c-3.894.324-7.788.454-11.618.454-9.671,0-19.342-.844-29.012-1.363-2.921-.195-5.971-.714-8.957-.714-3.245,0-6.426.584-9.281,3.375v90.023q19.374,3.213,38.748,6.62a106.69,106.69,0,0,0,16.81,1.363c19.8,0,38.359-6.231,55.558-18.238,27-19.017,48.484-43.616,62.633-75.16,4.154-9.216,6.62-18.887,9.281-28.688Z" transform="translate(27.611 -15.735)" fill="#fff" stroke="rgba(0,0,0,0)" stroke-miterlimit="10" stroke-width="1"/>
        </g>
        <g id="Group_3463" data-name="Group 3463" transform="translate(1427.779 799.757)">
          <path id="Path_3812" data-name="Path 3812" d="M186.569,34.937v83.6c-.454,1.038-.974,2.012-1.363,3.05-.909,1.947-1.688,3.7-2.921,4.8-8.567,7.334-18.173,15.707-29.012,22.068-14.474,8.632-30.311,14.214-45.563,19.6-4.8,1.623-9.541,3.375-14.279,5.127C80.709,177.792,69.481,182.4,60,191.163c-3.5,3.31-6.62,6.166-10.45,7.918H-2.953c1.428-24.4,15.707-44.33,37.775-52.248,8.5-3.05,17.135-5.841,25.637-8.632,9.281-2.986,18.368-5.971,27.52-9.216,21.678-7.854,40.046-19.471,54.65-34.464,9.087-9.476,16.681-20.315,24.08-30.895l4.349-6.036c2.077-3.05,4.154-6.166,6.166-9.281,2.986-4.478,5.971-9.151,9.346-13.37m2.6-6.88c-8.048,8.308-13.565,18.628-20.185,27.974C159.958,68.688,151.456,81.6,140.746,92.7c-15.253,15.707-33.491,26.546-53.676,33.815-17.589,6.3-35.5,11.618-53.092,17.849C9.9,153-5.16,175.2-5.614,201.677H50.2c4.414-1.947,7.983-5.192,11.553-8.567,9.476-8.762,21.029-13.305,32.517-17.524,20.445-7.594,41.215-13.5,60.3-24.923,10.709-6.166,19.991-14.214,29.337-22.327,2.791-2.337,3.44-6.036,5.257-9.087V28.057Z" transform="translate(5.614 -28.057)" fill="#fff" stroke="rgba(0,0,0,0)" stroke-miterlimit="10" stroke-width="1"/>
        </g>
      </g>
      <path id="Path_3813" data-name="Path 3813" d="M75.614,27.332v2.6c17.005,0,29.726,6.945,38.878,21.159,10.45,15.967,11.423,49.782-13.565,69.253C87.751,130.466,72.5,132.348,57.96,132.867c-20.121-.649-36.022-4.284-49.717-11.488-6.555-3.5-12.527-7.4-13.76-14.8-1.493-9.411.13-17.719,4.608-24.729a200.829,200.829,0,0,1,12.2-16.746C28.688,44.013,46.731,32.979,67.761,30.447a65.551,65.551,0,0,1,7.853-.519v-2.6m0,0a72.046,72.046,0,0,0-8.243.519C43.356,30.772,24.923,44.532,9.281,63.484c-4.414,5.387-8.5,11.1-12.4,16.94-5.192,8.113-6.426,17.394-4.933,26.611,1.363,8.632,8.5,13.046,15.058,16.616,16.1,8.438,33.491,11.228,51.08,11.813,15.837-.584,31.089-2.791,44.395-13.111,25.962-20.121,25.378-55.494,14.279-72.628C106.379,33.758,92.23,27.332,75.614,27.332Z" transform="translate(1240.139 725.369)" fill="#fff" stroke="rgba(0,0,0,0)" stroke-miterlimit="10" stroke-width="1"/>
      <path id="Path_3814" data-name="Path 3814" d="M44.146,16.947v2.6c17.524,0,34.27,3.765,46.926,7.01A73.611,73.611,0,0,1,118.2,39.6c12.786,10.125,20.25,23.5,21.548,38.813,1.493,18.368-6.036,37.839-20.51,53.611-9.866,10.774-23.106,18.368-41.669,24.08-12.462,3.894-23.106,6.426-33.88,6.426A57.955,57.955,0,0,1,30.971,161.3C11.37,156.817,5.918,151.559.4,131.374A102.631,102.631,0,0,1-2.974,99.181c-.779-4.868-.13-9.8.519-14.993.195-2.142.454-4.349.584-6.555,1.3-14.019,3.57-26.157,7.14-37.061,3.894-12.267,11.358-18.433,24.08-20.121a122.449,122.449,0,0,1,14.8-.909v-2.6m0,0a120.842,120.842,0,0,0-15.188.973C15.718,19.673,7.151,26.163,2.737,39.793-1.222,51.931-3.3,64.717-4.4,77.438c-.584,7.529-2.272,14.993-1.233,21.613a106.6,106.6,0,0,0,3.5,32.972c5.841,21.289,12.072,27.26,32.517,31.8a62.166,62.166,0,0,0,13.305,1.363c11.683,0,23.236-2.986,34.659-6.555,15.9-4.933,31.089-12.2,42.772-24.859,26.027-28.234,31.414-70.551-1.428-96.189A75.269,75.269,0,0,0,91.722,24.022C76.08,20,60.243,16.947,44.146,16.947Z" transform="translate(1410.892 61.718)" fill="#fff" stroke="rgba(0,0,0,0)" stroke-miterlimit="10" stroke-width="1"/>
      <path id="Path_3815" data-name="Path 3815" d="M29.116,19.3a22.164,22.164,0,0,1,13.695,4.413C48.782,28,53,33.838,56.246,42.081c5.971,15.512,7.464,32.063,4.543,50.82l-.13.909c-1.817,11.618-3.635,23.561-9.346,33.88-2.921,5.452-6.49,8.113-10.839,8.113a17.45,17.45,0,0,1-7.853-2.207C20.094,127.69,9.709,117.305.753,102.053-7.361,88.358-11.45,76.221-12.1,63.889c-.26-4.284.844-8.5,2.012-12.786l.26-1.493C-5.738,33.968,13.149,19.3,29.116,19.3m0-2.661c-17.849,0-37.255,16.486-41.409,32.387-1.233,5-2.726,9.8-2.337,14.993.714,14.474,5.971,27.325,13.046,39.462C6.659,117.37,17.109,129.053,31.452,136a21.5,21.5,0,0,0,9.022,2.466c5.257,0,9.671-3.05,13.111-9.541,6.036-10.9,7.853-23.3,9.736-35.633,2.791-17.849,1.947-35.308-4.673-52.118C55.6,33.254,51.313,26.633,44.3,21.571a24.722,24.722,0,0,0-15.188-4.933Z" transform="translate(853.203 41.971)" fill="#fff" stroke="rgba(0,0,0,0)" stroke-miterlimit="10" stroke-width="1"/>
      <path id="Path_3816" data-name="Path 3816" d="M201.308,22.825c14.993,0,28.169,6.3,39.2,18.5,13.5,14.993,20.51,34.659,21.938,62.114.844,16.291-2.337,32.193-5.906,46.926-7.269,30.051-9.93,62.374-7.983,96.124,1.623,26.286,4.284,52.378,6.62,74.511,3.7,34.14,13.176,62.309,28.883,86.064,11.423,17.2,23.236,36.022,32.258,56.922,6.945,15.577,12.786,31.933,18.5,47.77l1.493,4.219c12.462,34.789,32.517,57.765,61.4,70.422,5.841,2.531,11.618,5.387,17.265,8.178l4.284,2.142c27.13,13.76,52.183,34.529,78.729,65.489a147.5,147.5,0,0,1,19.407,27.13l.909,1.558c1.3,2.012,1.882,3.115,1.428,4.284H452.879a41.1,41.1,0,0,1-8.308-5.842l-.974-.844a47,47,0,0,0-19.082-10.58,23.145,23.145,0,0,0-7.139-1.168c-8.5,0-15.577,4.8-19.6,13.305a11.824,11.824,0,0,1-4.414,5.128h-54.13c-1.363-1.3-2.272-3.116-3.116-5.906-4.413-16.68-12.981-30.959-26.157-43.681-9.152-8.957-19.8-15.642-30.051-22-2.4-1.558-4.933-3.051-7.334-4.544-11.748-7.659-24.145-16.031-33.88-27.065-12.916-14.6-21.873-33.231-28.039-58.739-3.31-13.955-5.582-28.493-7.724-42.643-1.493-9.8-3.051-19.991-5-29.921-5.128-26.351-14.214-47.77-27.714-65.684C156,376.232,139.584,359.681,125.24,345.921c-17.914-17.005-38.813-31.544-64.061-44.33-24.4-12.462-52.832-27.065-79.508-43.356a20.649,20.649,0,0,1-6.685-6.166V159.774a15.544,15.544,0,0,1,5.712-5.906c12.786-7.594,24.08-13.63,34.724-18.628,43.616-20.38,80.352-45.109,112.285-75.419,18.238-17.33,36.282-28.493,55.039-34.075a66.085,66.085,0,0,1,18.563-2.921m0-2.531a71.031,71.031,0,0,0-19.342,2.921c-21.419,6.361-39.722,19.277-56.013,34.724C92.593,89.612,55.143,113.822,14.382,132.9A378.989,378.989,0,0,0-20.6,151.726a17.35,17.35,0,0,0-7.01,7.464v93.658a23.257,23.257,0,0,0,7.918,7.594c25.962,15.837,52.768,29.791,79.7,43.486,22.911,11.618,44.525,25.767,63.477,43.941,15.9,15.253,31.219,30.895,44.655,48.743,14.474,19.082,22.652,40.955,27.26,64.58,4.673,24.08,6.945,48.808,12.721,72.693,5.387,22.2,13.63,42.9,28.623,59.777,9.866,11.229,22,19.536,34.464,27.52,12.721,8.178,25.832,15.447,36.931,26.221,12.2,11.813,20.964,25.7,25.508,42.513.844,3.18,2.142,5.906,4.608,7.853h55.818a14.308,14.308,0,0,0,6.036-6.62c3.635-7.724,10-11.813,17.265-11.813a20.755,20.755,0,0,1,6.426,1.039A44.87,44.87,0,0,1,441.975,690.5c3.31,2.726,6.426,5.517,10.32,7.269h68.864c3.051-3.894,0-6.945-1.493-9.736a154.452,154.452,0,0,0-19.731-27.585c-23.041-26.871-48.484-50.366-79.508-66.073-7.269-3.57-14.344-7.2-21.678-10.45-29.986-13.046-48.678-37.32-59.972-68.864-6.361-17.589-12.527-35.113-20.056-52.118-8.827-20.445-20.38-39.073-32.517-57.376-16.875-25.572-25.053-54.2-28.428-84.831-2.661-24.923-5.062-49.522-6.62-74.381-1.882-32.128.324-64.061,7.918-95.345,3.765-15.642,6.815-31.479,5.971-47.705-1.233-23.561-6.62-46.082-22.587-63.672C230.58,26.4,216.626,20.294,201.308,20.294Z" transform="translate(27.679 275.607)" fill="#fff" stroke="rgba(0,0,0,0)" stroke-miterlimit="10" stroke-width="1"/>
      <path id="Path_3817" data-name="Path 3817" d="M-18.214,18.331h41.02c1.947,1.1,3.31,2.856,4.478,5.582a167.981,167.981,0,0,0,8.5,17.784C47.729,63.31,60,86.806,68.628,111.989c4.089,12.267,8.308,21.873,13.435,30.051,3.375,5.712,7.464,11.488,14.019,15.188a20.932,20.932,0,0,0,9.866,2.791c6.555,0,12.137-4.089,15.707-11.293a53.62,53.62,0,0,0,4.413-30.311c-1.882-15.058-5.127-29.856-8.373-43.616a331.141,331.141,0,0,1-8.438-52.443c-.13-2.012.13-3.18.844-4.024h53.741c1.1,1.363,1.233,3.245,1.3,5.906v1.428c.065,6.555,0,13.306-.065,19.861-.13,11.164-.26,22.717.325,34.01.26,3.764.454,7.594.649,11.358.974,14.6,1.947,29.791,1.3,44.525-.909,21.419-4.738,37.645-12.137,51.21-8.7,15.837-20.64,24.923-35.308,27a50.33,50.33,0,0,1-7.594.519c-16.551,0-31.544-7.724-45.628-23.625-9.606-10.9-18.109-24.794-26.676-43.616-11.1-24.4-23.366-48.743-37.58-74.381C-7.5,54.808-14.06,39.36-18.149,23.653c-.779-2.986-.973-4.219-.065-5.322m-1.1-2.6c-2.921,2.4-2.207,5.387-1.363,8.632C-16.007,42.021-8.543,58.313.154,73.825c13.435,24.21,25.962,48.808,37.515,74.121,7.2,15.967,15.642,31.349,27.065,44.265,13.241,14.993,28.753,24.6,47.575,24.6a55.531,55.531,0,0,0,7.918-.584c16.81-2.4,28.818-13.046,37.32-28.363,8.7-16.032,11.618-34.075,12.4-52.313.844-18.628-.909-37.385-1.947-56.143-.909-17.914-.065-35.892-.26-53.806-.13-3.635.26-7.334-2.856-9.866H109c-2.012,1.817-2.531,3.959-2.337,6.815a338.11,338.11,0,0,0,8.5,52.832c3.375,14.344,6.49,28.623,8.308,43.291,1.3,10.125.195,19.861-4.154,28.948-3.18,6.426-7.854,9.736-13.37,9.736a18.1,18.1,0,0,1-8.567-2.4c-5.906-3.245-9.736-8.5-13.111-14.279-5.712-9.217-9.8-19.342-13.176-29.6C62.527,86.157,50.585,63.18,38.058,40.4a149.818,149.818,0,0,1-8.373-17.524,13.948,13.948,0,0,0-6.166-7.139Z" transform="translate(423.223 -15.735)" fill="#fff" stroke="rgba(0,0,0,0)" stroke-miterlimit="10" stroke-width="1"/>
      <path id="Path_3818" data-name="Path 3818" d="M-4.08,18.331H118.655a29.212,29.212,0,0,1-7.14,8.438C95.095,39.62,75.883,46.175,54.529,46.175c-1.688,0-3.375,0-5-.13C25.062,44.942,7.473,35.791-4.08,18.331m-4.608-2.6C4.553,38.971,25.387,47.538,49.4,48.642c1.752.065,3.375.13,5.127.13,21.224,0,40.955-6.166,58.544-19.991,4.478-3.375,7.4-8.113,10-13.046Z" transform="translate(1236.95 -15.735)" fill="#fff" stroke="rgba(0,0,0,0)" stroke-miterlimit="10" stroke-width="1"/>
      <path id="Path_3819" data-name="Path 3819" d="M333.477,23.7h1.039c17.979.26,34.14,8.243,48.094,23.56,31.479,34.724,42.642,74.251,33.166,117.608-4.738,21.094-14.214,35.957-29.337,45.563-7.853,5-14.474,8.957-21.029,12.527a251.084,251.084,0,0,0-63.022,48.484c-10.774,11.748-20.51,22.262-30.116,33.231-20.315,23.3-44.525,45.628-73.927,68.28-31.414,24.209-53.741,47.51-70.162,73.148l-.779,1.168c-5.906,8.957-11.943,18.238-20.315,24.859-9.411,7.464-17.654,10.969-25.9,10.969a31.671,31.671,0,0,1-11.423-2.272c-10.579-4.089-19.926-11.618-27.844-22.392-17.979-24.4-33.88-52.638-50.236-88.725-7.14-15.837-9.216-28.363-6.75-40.7,3.959-20.056,15.772-33.3,38.294-42.9,9.606-4.154,19.666-7.334,29.532-10.45,7.334-2.337,14.863-4.738,22.327-7.594,22-8.113,40.371-20.056,56.013-36.606,13.5-14.409,24.729-32.258,35.308-56.273,14.539-33.621,33.491-60.361,57.96-81.585l7.789-6.88C249.3,71.6,267.144,56.021,286.1,42.78,300.96,32.72,315.823,23.7,333.477,23.7m0-2.6c-18.5,0-33.945,9.476-48.873,19.6-21.938,15.188-41.8,33.3-61.919,50.885-25.832,22.522-44.784,50.431-58.609,82.494-9.022,20.315-19.731,39.4-34.854,55.559a142.368,142.368,0,0,1-55.039,36.022c-17.265,6.555-34.984,10.774-51.989,18.043-19.731,8.438-35.114,21.159-39.787,44.784-3.051,14.993.909,29.077,6.945,42.253,14.214,31.479,30.311,61.724,50.5,89.179,7.789,10.579,17.265,18.758,29.012,23.366a34.35,34.35,0,0,0,12.332,2.4c10,0,19.017-4.8,27.52-11.553,9.022-7.14,15.253-17.005,21.613-26.611,18.693-29.142,43.032-52.054,69.513-72.5,26.741-20.64,51.989-42.967,74.381-68.669,9.866-11.293,19.991-22.262,30.116-33.166a245.639,245.639,0,0,1,62.309-47.965c7.269-3.959,14.214-8.178,21.224-12.592,17.005-10.839,26.092-27.584,30.44-47.251,10.255-46.667-3.44-86.453-33.751-119.879-13.305-14.6-29.921-24.144-49.912-24.4Z" transform="translate(600.571 327.242)" fill="#fff" stroke="rgba(0,0,0,0)" stroke-miterlimit="10" stroke-width="1"/>
      <g id="Group_3465" data-name="Group 3465" transform="translate(1126.734 453.1)">
        <path id="Path_3820" data-name="Path 3820" d="M185.322,25.377a19.565,19.565,0,0,1,8.5,2.4c9.152,4.673,15.577,12.981,21.808,21.029l3.245,4.089c14.863,18.757,30.895,38.618,48.289,57.571,5.257,5.582,10.45,11.1,15.772,16.615,20.315,21.484,41.409,43.616,59.258,68.28,9.671,13.37,19.861,26.611,29.726,39.4,13.825,17.979,28.169,36.476,41.085,55.623,13.695,20.25,18.757,37.255,16.486,55.1-4.933,38.943-28.688,68.15-61.919,76.263a53.917,53.917,0,0,1-13.5,1.752c-11.683,0-32.387-4.154-40.63-31.609-3.051-10.255-5.517-20.834-7.918-31.024-1.233-5.322-2.466-10.645-3.829-15.967-9.346-37.255-27.974-61.984-56.922-75.679-22.262-10.515-46.342-15.577-73.472-15.577a252.181,252.181,0,0,0-32.712,2.272c-19.926,2.6-38.294,10.839-56.078,18.757-11.878,5.387-24.923,10.45-38.878,10.9-22,0-44.59-18.628-50.366-41.474-2.986-12.007,1.1-23.431,11.034-30.7A97.158,97.158,0,0,1,29.226,200.62c33.426-11.878,60.751-34.01,83.338-67.826,12.981-19.536,25.637-40.565,39.787-66.2l2.726-5.063c5.906-11.034,11.618-21.613,19.861-30.44,3.7-4.024,6.88-5.712,10.385-5.712m0-2.661c-4.284,0-8.113,2.077-12.267,6.555-9.736,10.45-16.1,23.431-23.041,36.022-12.4,22.587-25.378,44.654-39.592,66.073-20.9,31.154-47.445,54.52-82.04,66.787A98.632,98.632,0,0,0,2.81,211.329C-7.9,219.118-12.507,231.58-9.2,244.755c6.036,23.95,29.791,43.421,52.9,43.421,14.149-.454,27.2-5.387,39.916-11.163,17.914-7.983,35.957-15.967,55.364-18.5a236.724,236.724,0,0,1,32.323-2.272c24.664,0,49,4.349,72.369,15.318,30.181,14.279,47.121,40.7,55.494,73.927,3.959,15.772,7.14,31.544,11.813,47.186,7.075,23.69,24.534,33.426,43.1,33.426a58.752,58.752,0,0,0,14.149-1.817c37.255-9.087,59.128-41.8,63.8-78.47,2.856-21.678-5.517-40.111-16.875-56.922C393.018,255.984,367.51,226,344.339,193.8c-22.522-31.024-49.457-57.506-75.29-85.09-16.875-18.368-32.582-37.839-48.159-57.506-7.594-9.476-14.6-19.991-25.832-25.7-3.635-1.817-6.75-2.791-9.736-2.791Z" transform="translate(10.252 -22.716)" fill="#fff" stroke="rgba(0,0,0,0)" stroke-miterlimit="10" stroke-width="1"/>
      </g>
      <path id="Path_3821" data-name="Path 3821" d="M66.034,18.331h64.71c4.024,18.5,10.709,37.645,20.964,60.167,11.488,24.988,24.275,49.587,37.969,73.278,21.354,37.19,44.979,76.068,78.535,106.639a336.744,336.744,0,0,0,55.039,40.565c26.871,15.837,56.922,24.534,83.4,32.387,21.743,6.231,37.45,21.354,46.861,44.849,9.151,23.041,13.565,41.344,14.474,59.518.974,19.536-2.791,33.945-11.942,45.5a103.04,103.04,0,0,1-26.157,23.236c-11.748,7.2-24.015,13.89-35.957,20.445-4.219,2.336-8.5,4.608-12.721,6.945-23.69,13.046-42.707,27.649-58.22,44.654-3.44,3.829-6.815,7.594-10.19,11.423-7.529,8.438-15.318,17.07-23.236,25.313-10.644,11.1-21.224,16.551-33.3,17.135-.779.065-1.558.065-2.272.065-23.625,0-43.1-21.094-51.989-41.993-8.957-20.769-10.969-43.551-6.3-69.838,2.077-11.488,4.868-23.236,7.594-34.594,1.233-5.063,2.531-10.125,3.635-15.188a140.005,140.005,0,0,0,2.921-44.07,339.162,339.162,0,0,0-11.488-59.258L196.1,357c-7.659-27.909-15.512-56.662-28.363-83.013-3.7-7.464-9.541-18.368-18.368-26.741a98.462,98.462,0,0,0-40.825-22.457c-18.368-5.063-37.385-6.49-55.753-7.854-8.243-.649-16.81-1.3-25.118-2.207-11.813-1.428-23.69-2.726-34.4-7.918-6.62-3.31-17.524-10.839-15.837-25.248A75.7,75.7,0,0,1-13.474,153.4c8.5-15.188,18.693-28.948,28.364-41.539,22-28.558,42.383-57.181,51.145-93.528m-2.012-2.6C55.585,52.666,34.815,81.743,12.877,110.3,2.557,123.607-7.438,137.237-15.811,152.23a77.393,77.393,0,0,0-9.346,29.012c-1.623,14.149,7.529,23.171,17.33,27.844,11.164,5.452,23.236,6.815,35.178,8.243,26.936,3.051,54.131,2.661,80.547,10a97.234,97.234,0,0,1,39.722,21.808c7.529,7.14,13.046,16.356,17.719,25.962,14.084,28.883,22,60.1,30.57,91.126a344.83,344.83,0,0,1,11.358,58.8,136.686,136.686,0,0,1-2.856,43.291c-3.829,16.616-8.243,33.166-11.228,49.912-4.349,24.274-3.44,48.419,6.426,71.2,9.671,22.782,30.181,43.616,54.39,43.616.714,0,1.558,0,2.4-.065,14.214-.714,25.378-7.854,35.049-17.914,11.488-11.943,22.392-24.534,33.426-36.8,16.745-18.368,36.347-32.452,57.57-44.07,16.291-9.087,32.842-17.719,48.808-27.52a108.375,108.375,0,0,0,26.806-23.755c10.774-13.695,13.37-29.856,12.526-47.316-1.038-21.289-7.01-41.085-14.668-60.361-9.346-23.431-24.988-39.657-48.484-46.342-28.493-8.373-56.792-16.875-82.818-32.258a321.238,321.238,0,0,1-54.585-40.176c-32.712-29.726-56.013-67.436-78.08-105.989-13.7-23.69-26.416-48.094-37.9-73.083-9.022-19.8-16.681-40.046-21.224-61.659Z" transform="translate(172.494 -15.735)" fill="#fff" stroke="rgba(0,0,0,0)" stroke-miterlimit="10" stroke-width="1"/>
      <g id="Group_3466" data-name="Group 3466" transform="translate(787.623 726.35)">
        <path id="Path_3822" data-name="Path 3822" d="M147.434,29.522a26.169,26.169,0,0,1,18.5,7.464C177.874,48.41,178.2,63.078,177.485,79.758c-.324,7.14-.909,14.214-1.428,21.224-.584,8.373-1.3,16.94-1.623,25.443-.649,17.459,1.363,34.724,3.57,50.82,3.765,28.234,11.553,51.534,23.69,71.33,1.1,1.882,2.337,3.635,3.57,5.517,3.5,5.452,7.2,11.1,9.606,17.265H-12.037c5.192-30.895,13.176-61.789,20.9-91.711L13.211,162.9C22.1,127.983,34.435,92.22,63.9,66.842,89.02,45.034,115.241,32.9,143.864,29.717a32.026,32.026,0,0,1,3.57-.195m0-2.6a37.8,37.8,0,0,0-3.829.195C112.9,30.5,86.1,44.191,62.149,64.9c-29.207,25.118-41.993,60.3-51.534,97.422C1.4,198.469-8.467,234.556-14.7,271.487a15.579,15.579,0,0,1-.779,2.466H218.5c-2.986-10.06-9.281-18.173-14.6-26.741-13.111-21.483-19.991-45.3-23.3-70.357-2.4-16.745-4.154-33.491-3.635-50.3.649-15.512,2.337-31.025,3.18-46.667C180.8,63.6,180.8,47.566,167.684,35.1a28.43,28.43,0,0,0-20.25-8.178Z" transform="translate(15.477 -26.926)" fill="#fff" stroke="rgba(0,0,0,0)" stroke-miterlimit="10" stroke-width="1"/>
      </g>
      <g id="Group_3467" data-name="Group 3467" transform="translate(1431.459 284.867)">
        <path id="Path_3823" data-name="Path 3823" d="M108.045,22.655a216.9,216.9,0,0,1,31.089,2.337c9.93,1.558,19.6,5.127,29.142,8.7,4.738,1.752,9.671,3.635,14.668,5.192V189.461c-6.685,1.688-13.37,3.44-19.991,5.063-19.082,4.868-36.347,7.139-52.7,7.139a153.3,153.3,0,0,1-42.772-5.841c-31.154-8.892-66.333-40.565-70.1-81.78-2.921-32.712,10.644-60.881,35.5-73.667,23.041-11.878,47.64-17.719,75.16-17.719m0-2.531c-26.222,0-51.859,5.257-76.328,17.914C4.717,51.927-8.069,82.5-5.149,114.3c3.635,40.371,37,74.056,71.915,84.052a157.482,157.482,0,0,0,43.486,5.971c17.849,0,35.568-2.791,53.352-7.2,7.334-1.947,14.6-3.765,21.938-5.582V37c-15.447-4.738-30.051-12.137-46.082-14.6a224.462,224.462,0,0,0-31.414-2.272Z" transform="translate(5.557 -20.124)" fill="#fff" stroke="rgba(0,0,0,0)" stroke-miterlimit="10" stroke-width="1"/>
      </g>
      <g id="Group_3468" data-name="Group 3468" transform="translate(0.068 663.651)">
        <path id="Path_3824" data-name="Path 3824" d="M22.95,28.556a78.9,78.9,0,0,1,14.409,1.233c33.3,5.971,55.3,28.3,65.359,66.2,6.555,24.015,5.906,50.561-1.947,81.2-8.567,32.972-27.26,52.9-57.116,60.946-20.7,5.712-41.28,6.166-66.008,6.166h-2.661V194.713c1.233-1.3,2.791-1.363,5.387-1.493h.909c1.947-.065,4.024-.065,6.036-.065h3.116a129.045,129.045,0,0,0,20.7-1.168c36.736-6.555,59.712-36.087,58.414-75.354-.779-24.339-15.642-42.448-37.9-46.082a46.852,46.852,0,0,0-7.594-.584,79.136,79.136,0,0,0-9.8.714c-11.553,1.687-22.392,5-34.335,8.762l-.714.195a9.612,9.612,0,0,1-2.856.714,1.908,1.908,0,0,1-1.363-.519V34.982h.26c6.036-.909,12.2-1.818,18.238-2.986,8.113-1.623,18.887-3.44,29.467-3.44m0-2.6a151.266,151.266,0,0,0-29.986,3.5c-6.815,1.3-13.63,2.272-20.575,3.245V80.869a4.855,4.855,0,0,0,3.959,2.077,15.259,15.259,0,0,0,4.284-1.038c11.228-3.5,22.457-6.945,34.01-8.632a76.561,76.561,0,0,1,9.411-.714,53.77,53.77,0,0,1,7.2.519c21.159,3.5,34.984,20.445,35.7,43.616,1.233,37.969-21.029,66.463-56.273,72.693a124.279,124.279,0,0,1-20.25,1.168h-3.116c-2.077,0-4.154,0-6.166.065-3.245.13-6.426-.065-8.762,3.18V246.9h5.257c22.457,0,44.784-.195,66.722-6.166,31.219-8.438,50.366-29.921,58.934-62.893,6.945-27.26,9.346-55.1,1.947-82.559C95.578,59,74.289,33.814,37.813,27.193A87.768,87.768,0,0,0,22.95,25.96Z" transform="translate(27.611 -25.96)" fill="#fff" stroke="rgba(0,0,0,0)" stroke-miterlimit="10" stroke-width="1"/>
      </g>
      <path id="Path_3825" data-name="Path 3825" d="M10.958,20.7a16.839,16.839,0,0,1,10.579,3.829c12.786,9.736,20.055,23.95,21.613,42.123.973,11.228-1.428,20.25-6.815,26.157-4.608,5-11.488,7.659-19.861,7.659a14.121,14.121,0,0,1-2.272.13,27.314,27.314,0,0,1-27.13-22.2C-16.691,58.733-13.381,42.247-2.8,28.1a17.184,17.184,0,0,1,13.76-7.4h0m0-2.661c-5.971,0-11.683,2.921-15.837,8.5C-16.561,42.118-19.093,59.966-15.458,78.919A29.7,29.7,0,0,0,14.2,103.128h2.272c19.861,0,31.219-13.825,29.272-36.671-1.558-17.979-8.5-33.231-22.587-44.07a19.925,19.925,0,0,0-12.2-4.349Z" transform="translate(706.048 131.438)" fill="#fff" stroke="rgba(0,0,0,0)" stroke-miterlimit="10" stroke-width="1"/>
      <g id="Group_3469" data-name="Group 3469" transform="translate(1097.493 122.865)">
        <path id="Path_3826" data-name="Path 3826" d="M8.559,17.628v2.661c19.991,0,37.9,6.49,59.258,15.058,24.015,9.736,52.508,20.575,81.975,27.13,4.738.909,10.125,2.142,14.409,4.8,11.878,7.464,13.825,13.111,8.7,25.378a55.9,55.9,0,0,1-7.075,12.527l-2.4,3.051c-7.853,9.93-15.707,19.666-23.56,29.662-20.7,26.481-34.919,52.248-43.486,78.989C89.5,238.5,86.639,263.163,87.743,290.1c0,4.608,0,8.827.065,12.721.065,7.529.13,13.435-.195,19.472-.649,12.981-2.207,28.169-9.346,42.318a49.966,49.966,0,0,1-15.837,18.5,25.317,25.317,0,0,1-14.149,4.868c-9.736,0-18.108-7.139-22.911-19.731-4.414-11.878-5.127-24.859-5.841-37.45L19.4,328c-.454-9.736-.454-19.731-.389-29.337,0-10.515.065-21.419-.649-32.193-1.623-24.664-1.623-49.847-1.493-74.251V178.2c-.065-14.214-1.428-29.4-4.349-47.64C10.441,117.516,7.131,104.8,3.821,92.4,2.2,86.1.511,79.742-.917,73.251c-.714-3.051-1.558-6.1-2.337-9.216-2.661-10.06-5.192-19.407-4.8-29.662.195-6.231,2.791-13.63,13.176-14.084h3.44V17.628m0,0a32.823,32.823,0,0,0-3.57.13c-9.671.389-15.253,6.3-15.642,16.486C-11.237,48.2-6.564,60.855-3.448,73.9c4.478,19.082,10.32,37.645,13.37,57.051A302.386,302.386,0,0,1,14.271,178.2c0,29.467-.454,59,1.493,88.465,1.233,20.575,0,41.02,1.1,61.465.714,13.76,1.168,27.909,6.1,41.02,5.452,14.344,14.993,21.418,25.313,21.418a27.646,27.646,0,0,0,15.642-5.322,52.038,52.038,0,0,0,16.616-19.536c6.88-13.565,8.957-28.234,9.736-43.292.389-9.281,0-18.563,0-32.387-.844-21.548.714-47.381,8.567-72.369,9.346-29.207,24.664-54.65,43.032-78.08,8.7-11.034,17.395-21.938,26.027-32.842A57.393,57.393,0,0,0,175.3,93.7c5.387-12.851,3.635-20.25-9.736-28.688-4.543-2.791-10-4.024-15.188-5.062-28.039-6.231-54.909-16.226-81.585-27C49.319,25.092,29.848,17.628,8.559,17.628Z" transform="translate(10.703 -17.628)" fill="#fff" stroke="rgba(0,0,0,0)" stroke-miterlimit="10" stroke-width="1"/>
      </g>
      <g id="Group_3470" data-name="Group 3470" transform="translate(393.272 273.833)">
        <path id="Path_3827" data-name="Path 3827" d="M-4.494,22.615a31.572,31.572,0,0,1,7.269,1.038c12.267,3.31,23.366,10.385,34.075,17.2l2.531,1.688c23.171,14.733,45.888,30.116,67.89,44.914,15.123,10,29.532,20.121,41.474,33.556,12.332,14.019,17.849,28.234,17.2,44.59.779,12.267-3.57,23.3-13.241,34.14-12.656,13.825-27.974,23.3-39.916,29.986l-8.762,5c-17.459,9.8-35.568,19.991-52.378,31.933a127.179,127.179,0,0,1-19.6,11.943,23.41,23.41,0,0,1-10.125,2.6c-8.762,0-14.214-7.139-14.733-19.082a107.987,107.987,0,0,1,1.882-23.95c4.349-28.363,3.44-54.52-2.6-80.028C3.619,146.194.115,134.316-3.26,122.893-7.025,110.042-10.919,96.736-13.9,83.366c-2.856-13.176-5.452-27.325-5-41.864.389-12.527,5.192-18.887,14.409-18.887m0-2.661c-10.644,0-16.551,7.334-17.005,21.419C-21.953,55.846-19.487,70-16.436,83.95c5.647,25.378,14.409,49.587,20.38,74.77,6.231,26.222,6.62,52.378,2.6,79.054a110,110,0,0,0-1.947,24.4c.584,13.825,7.334,21.613,17.33,21.613A27.172,27.172,0,0,0,33.216,281a135.652,135.652,0,0,0,19.926-12.267c19.472-13.825,40.306-25.053,60.946-36.671,14.668-8.243,28.753-17.654,40.5-30.57,9.087-10.125,14.863-21.743,13.954-35.762.714-18.822-6.361-33.426-17.849-46.407-12.267-13.955-27-24.08-41.929-34.01C86.243,70.125,63.656,54.938,40.81,40.334,28.932,32.74,17.12,24.887,3.49,21.187a31.523,31.523,0,0,0-7.983-1.233Z" transform="translate(21.553 -19.954)" fill="#fff" stroke="rgba(0,0,0,0)" stroke-miterlimit="10" stroke-width="1"/>
      </g>
      <path id="Path_3828" data-name="Path 3828" d="M7.149,17.374v2.6c9.346,0,17.394,6.3,22.068,17.2,2.726,6.231,2.856,12.4.389,17.2a15.685,15.685,0,0,1-11.034,8.243A52.093,52.093,0,0,1,6.241,64.041,69.237,69.237,0,0,1-10.7,61.769c-5.906-1.688-10.709-8.113-10.709-14.474,0-6.945.584-8.5,9.411-17.914C-6.156,23.216.464,19.97,7.149,19.97v-2.6m0,0c-7.075,0-14.474,3.31-21.029,10.19C-22.837,37.105-24.005,39.442-24.005,47.3c0,7.334,5.517,14.928,12.656,17.005A70.88,70.88,0,0,0,6.241,66.7a55.329,55.329,0,0,0,12.916-1.558c12.851-3.051,18.238-15.577,12.462-29.012C26.3,23.865,17.08,17.374,7.149,17.374Z" transform="translate(258.12 89.005)" fill="#fff" stroke="rgba(0,0,0,0)" stroke-miterlimit="10" stroke-width="1"/>
      <g id="Group_3471" data-name="Group 3471" transform="translate(872.42 827.731)">
        <path id="Path_3829" data-name="Path 3829" d="M5.465,31.084c2.142,0,4.219,1.1,6.231,3.245C20.133,42.962,22.4,57.955,16.823,67.95,13.058,74.96,8.775,78.465,3.388,78.984a12.978,12.978,0,0,1-7.464-3.051c-7.2-5.647-7.789-14.6-7.4-19.407C-10.827,46.661-5.5,36.147.4,32.707a11.119,11.119,0,0,1,5.063-1.623m0-2.6A12.539,12.539,0,0,0-.831,30.5c-11.618,6.685-20.7,35.114-4.8,47.446A15.11,15.11,0,0,0,3.647,81.58c7.529-.714,12.267-6.361,15.447-12.4,6.3-11.293,3.31-27.649-5.517-36.606-2.661-2.726-5.322-4.089-8.113-4.089Z" transform="translate(14.171 -28.488)" fill="#fff" stroke="rgba(0,0,0,0)" stroke-miterlimit="10" stroke-width="1"/>
      </g>
      <path id="Path_3830" data-name="Path 3830" d="M48.549,23.508c23.431,0,46.926,11.228,62.763,30.116,9.411,11.293,9.022,25.508-.844,35.308-14.149,14.019-31.349,20.7-54,21.029H54.715c-16.681,0-30.116-4.608-41.02-13.825C2.142,86.076-3.05,74.588-2.207,61.023-1.1,45.9,6.88,34.866,20.9,29.09a68.808,68.808,0,0,1,27.649-5.582m0-2.661a73.547,73.547,0,0,0-28.688,5.777C5.712,32.465-3.57,44.083-4.8,60.893-5.776,76.34.909,88.478,12.072,98.019c12.462,10.709,27.065,14.474,42.642,14.474h1.752c21.029-.26,39.787-5.777,55.818-21.678C122.605,80.559,123.9,64.658,113.324,52c-16.81-19.991-40.89-31.154-64.775-31.154Z" transform="translate(1479.248 310.946)" fill="#fff" stroke="rgba(0,0,0,0)" stroke-miterlimit="10" stroke-width="1"/>
      <g id="Group_3472" data-name="Group 3472" transform="translate(61.898 353.471)">
        <path id="Path_3831" data-name="Path 3831" d="M131.15,23.712c7.4,0,14.149,4.024,18.757,11.358a35.729,35.729,0,0,1,4.868,13.7c2.531,13.954,1.038,28.169-.454,41.863-.454,3.894-.844,7.724-1.233,11.683-2.012,21.419-2.531,38.748-1.558,54.585l.779,12.2c1.1,16.745,2.272,33.88,2.6,50.82.454,19.731-1.817,35.568-7.14,49.977-3.7,9.93-9.411,14.733-17.524,14.733a29.331,29.331,0,0,1-7.789-1.233c-8.438-2.6-16.94-7.075-26.806-13.955l-3.5-2.531c-25.053-17.849-50.95-36.347-76.263-54.715C7.052,205.77-2.165,198.76-9.629,189.674c-17.979-22-19.147-41.085-3.829-61.789A82.427,82.427,0,0,1,2.314,112.113C12.439,104.324,22.954,96.6,33.079,89.2c17.654-12.916,35.892-26.221,52.9-40.825,9.411-8.178,22.2-18.238,37.385-23.3a24.028,24.028,0,0,1,7.789-1.363h0m0-2.531a25.721,25.721,0,0,0-8.632,1.493c-14.344,4.8-26.676,13.7-38.294,23.69C57.613,69.47,28.47,88.617.691,110.036A88.369,88.369,0,0,0-15.6,126.392c-17.33,23.431-12.981,44.2,3.959,64.97,7.464,9.022,16.681,16.161,25.962,22.911,26.546,19.277,53.157,38.229,79.833,57.246,8.632,6.1,17.589,11.293,27.585,14.344a29.677,29.677,0,0,0,8.5,1.363c9.216,0,15.966-5.582,19.926-16.486,6.1-16.356,7.724-33.426,7.334-50.885-.454-21.029-2.077-41.994-3.375-63.087-1.1-18.109-.13-36.217,1.558-54.26,1.558-18.108,5-35.957,1.623-54.13a37.829,37.829,0,0,0-5.192-14.668c-5.192-8.113-12.592-12.527-20.964-12.527Z" transform="translate(26.658 -21.181)" fill="#fff" stroke="rgba(0,0,0,0)" stroke-miterlimit="10" stroke-width="1"/>
      </g>
      <g id="Group_3473" data-name="Group 3473" transform="translate(730.403 407.927)">
        <path id="Path_3832" data-name="Path 3832" d="M177.161,24.681a30.091,30.091,0,0,1,7.334,1.3l1.038.26c10.45,2.4,19.8,9.606,25.7,19.926C217.4,57,218.895,69.6,215.325,80.694a71.992,71.992,0,0,1-15.512,26.027c-6.88,7.464-14.279,14.6-21.419,21.548-4.024,3.829-7.983,7.594-11.878,11.553-21.224,21.289-43.1,45.953-69.124,77.626-13.76,16.681-30.765,35.5-52.962,48.679C30.671,274.37,18.6,278.589,6.332,279.3c-.714.065-1.428.065-2.142.065-7.269,0-12.2-2.337-15.642-7.464-3.764-5.712-2.531-11.229.974-18.822,3.31-7.2,6.945-14.8,11.943-21.094A345.946,345.946,0,0,0,55.2,134.695c9.216-25.443,21.029-45.174,36.087-60.426a227.1,227.1,0,0,1,54.26-40.241c11.229-5.777,20.834-8.7,30.116-9.281l1.493-.065m0-2.661-1.687.13c-11.034.649-21.289,4.543-31.024,9.606a224.587,224.587,0,0,0-54.91,40.7C72.535,89.521,61.176,110.81,52.8,133.786A340.548,340.548,0,0,1-.613,230.364c-5.128,6.49-8.7,13.955-12.2,21.613-3.245,7.075-5.647,14.084-.779,21.419,4.478,6.62,10.839,8.567,17.784,8.567.714,0,1.558,0,2.337-.065,14.084-.844,27-6.166,39.138-13.565,21.094-12.4,37.9-30.051,53.676-49.2,22-26.806,44.719-53.027,68.994-77.5,11.1-11.1,22.782-21.483,33.426-33.166a76.165,76.165,0,0,0,16.031-27c7.789-24.08-7.594-52.313-31.674-57.765-2.986-.779-5.906-1.688-8.957-1.688Z" transform="translate(16.359 -22.02)" fill="#fff" stroke="rgba(0,0,0,0)" stroke-miterlimit="10" stroke-width="1"/>
      </g>
      <g id="Group_3474" data-name="Group 3474" transform="translate(1277.079 544.292)">
        <path id="Path_3833" data-name="Path 3833" d="M44.368,24.121v2.6c6.75,0,14.409,2.921,23.3,9.087a188.179,188.179,0,0,1,51.859,53.157c7.14,10.839,11.164,19.926,12.981,29.272a13.844,13.844,0,0,1-1.882,10.515,11.979,11.979,0,0,1-7.724,4.933,71.64,71.64,0,0,1-12.332,1.493l-1.882-.065a577.837,577.837,0,0,1-57.96-6.945C36.45,125.632,21.2,122.517,7.5,114.469c-10.515-6.1-14.928-16.94-11.878-29.077C-.481,69.619,5.88,56.444,14.382,46.189c11.293-13.63,20.25-19.472,29.986-19.472v-2.6m0,0c-11.358,0-21.094,7.2-32,20.38C2.829,55.989-3.272,70.009-6.907,84.807c-3.375,13.435,1.688,25.248,13.176,31.868,13.825,8.113,28.818,11.358,44.005,14.019a552.094,552.094,0,0,0,58.22,7.01c.714.065,1.493.065,2.077.065a69.553,69.553,0,0,0,12.721-1.558c8.438-1.493,13.565-9.476,11.748-18.5C132.9,106.55,127.771,96.749,121.735,87.6A190.134,190.134,0,0,0,69.162,33.662c-9.411-6.49-17.459-9.541-24.794-9.541Z" transform="translate(7.936 -24.121)" fill="#fff" stroke="rgba(0,0,0,0)" stroke-miterlimit="10" stroke-width="1"/>
      </g>
      <path id="Path_3834" data-name="Path 3834" d="M-1.787,23.048l.26,2.6c7.854,0,12.332,6.49,14.8,11.943,3.051,6.49,4.543,12.656,4.414,18.3-.065,8.567-4.349,17.719-12.2,17.719a16.649,16.649,0,0,1-8.178-2.6L-5.226,69.52c-3.7-2.272-7.269-4.349-9.931-7.594-4.414-5.192-6.945-10.514-7.659-16.291a22.514,22.514,0,0,1,2.6-8.178c4.284-7.724,10.644-11.813,18.433-11.813v-2.6m0,0c-8.762,0-16.032,4.738-20.7,13.176a23.645,23.645,0,0,0-2.921,9.8A34.316,34.316,0,0,0-17.1,63.678c3.57,4.284,8.438,6.685,13.111,9.541a18.424,18.424,0,0,0,9.476,2.986c9.411,0,14.733-10.125,14.8-20.185a43.8,43.8,0,0,0-4.673-19.406C12.1,28.63,6.456,23.048-1.462,23.048Z" transform="translate(168.206 451.601)" fill="#fff" stroke="rgba(0,0,0,0)" stroke-miterlimit="10" stroke-width="1"/>
    </g>
  </g>
</svg>
