<svg width="59" height="57" viewBox="0 0 59 57" fill="none" xmlns="http://www.w3.org/2000/svg">
<g clip-path="url(#clip0_1_398)">
<path d="M11.5755 7.78158C26.7572 7.78158 41.9356 7.78158 57.1173 7.77487C57.9275 7.77487 58.6082 7.92245 59 8.71738V9.76387C58.6115 10.1865 58.7643 10.75 58.6846 11.2363C58.4554 12.6182 58.3758 14.027 58.2031 15.4223C58.0304 16.8142 57.798 18.1961 57.6253 19.5881C57.4526 20.9801 57.3364 22.3821 57.1671 23.7774C57.0774 24.5287 56.825 25.2801 56.8582 26.0213C56.8815 26.5378 56.6524 27.0242 56.7918 27.5407C56.8715 27.8426 56.6225 28.1009 56.5694 28.4061C56.4731 28.9662 56.6623 29.5398 56.3701 30.1033C56.1211 30.5863 55.6496 31.0995 55.0917 31.1665C54.152 31.2839 53.2123 31.3946 52.2759 31.5187C51.1535 31.6663 50.0311 31.8239 48.9088 31.9816C46.9829 32.2533 45.0536 32.4814 43.1343 32.7799C41.2117 33.0784 39.2725 33.2461 37.3432 33.5044C35.7958 33.709 34.2584 33.9739 32.711 34.1886C31.1736 34.3999 29.6362 34.581 28.0954 34.7756C26.3787 34.9936 24.6619 35.2351 22.9419 35.4363C21.9225 35.5537 20.903 35.7013 19.887 35.8556C19.2195 35.9562 18.5488 36.0334 17.888 36.191C17.0977 35.4799 16.8254 34.4938 16.6361 33.5178C16.2742 31.6462 15.8956 29.7746 15.5536 27.8996C15.0057 24.901 14.3416 21.9226 13.7472 18.934C13.01 15.221 12.2928 11.5013 11.5689 7.78493L11.5755 7.78158ZM23.0747 29.7511C23.0747 29.7142 23.0747 29.6169 23.0614 29.523C22.7991 27.9734 22.5268 26.4238 22.2711 24.8708C21.9856 23.1267 21.7266 21.3792 21.441 19.6351C21.1488 17.8372 20.8433 16.0428 20.5411 14.2483C20.4714 13.8391 20.3253 13.4836 19.9534 13.2488C19.5051 12.9671 19.0568 12.9369 18.6085 13.2052C18.064 13.5339 17.9212 14.0605 18.0141 14.6575C18.1735 15.6772 18.3528 16.6901 18.5189 17.7064C18.8111 19.4942 19.0967 21.2853 19.3922 23.073C19.6412 24.5891 19.8903 26.1052 20.1626 27.6179C20.2987 28.3826 20.5311 29.1339 20.6274 29.902C20.7138 30.6064 21.0956 31.0626 21.7697 31.0592C22.4969 31.0559 23.0647 30.5125 23.0714 29.7578L23.0747 29.7511ZM26.6543 25.3907C26.5846 26.0079 26.7705 26.4875 26.7705 26.994C26.7705 27.6011 26.8867 28.2116 26.993 28.8119C27.0893 29.362 27.7335 29.8249 28.2548 29.7712C28.8824 29.7041 29.3971 29.1742 29.4004 28.5671C29.4037 27.856 29.3938 27.1483 29.3041 26.4339C29.1713 25.3706 29.1447 24.2906 29.0451 23.224C28.909 21.7783 28.733 20.3327 28.6001 18.8871C28.464 17.3979 28.3777 15.9053 28.2448 14.416C28.1618 13.5171 27.7434 13.0744 27.0959 13.014C26.1628 12.9302 25.7843 13.4333 25.6382 14.2014C25.5419 14.7045 25.6681 15.2747 25.7478 15.7946C25.9171 16.9149 25.9603 18.0418 26.0732 19.1655C26.1695 20.1382 26.1695 21.1243 26.3189 22.0836C26.4982 23.2206 26.4451 24.3778 26.6576 25.3941L26.6543 25.3907ZM35.932 20.695C35.932 18.6993 35.932 16.7036 35.932 14.7078C35.932 14.4596 35.9087 14.2047 35.8556 13.9599C35.7161 13.3327 35.2479 13.0006 34.5639 13.014C33.9197 13.0274 33.5511 13.3394 33.4283 14.0001C33.3818 14.245 33.3619 14.4999 33.3619 14.7481C33.3585 18.7194 33.3585 22.6907 33.3619 26.6619C33.3619 26.9102 33.4083 27.1617 33.4216 27.4099C33.4515 28.007 33.8799 28.2988 34.3381 28.4497C34.7897 28.6006 35.228 28.4061 35.5634 28.0271C35.8788 27.6682 35.9353 27.2389 35.9353 26.7894C35.9353 24.7568 35.9353 22.7209 35.9353 20.6883L35.932 20.695ZM39.7506 25.6322C39.6344 26.5378 40.3052 27.1349 40.9427 27.1953C41.7231 27.269 42.2211 26.662 42.3108 25.6993C42.3805 24.9413 42.4968 24.1866 42.5665 23.4252C42.6827 22.154 42.8587 20.8861 43.0015 19.6183C43.0945 18.7831 43.1708 17.9479 43.2605 17.1128C43.3634 16.1837 43.5095 15.2579 43.5693 14.3255C43.6158 13.6043 43.131 13.0979 42.4934 13.014C41.6168 12.8966 41.1552 13.4366 41.0623 14.0739C40.8597 15.4692 40.7335 16.878 40.5808 18.2833C40.4546 19.4472 40.3417 20.6111 40.2089 21.7716C40.0628 23.0596 39.9034 24.3476 39.7506 25.6322ZM46.1859 24.3845C46.2424 24.7467 46.1892 24.9849 46.3453 25.2264C46.6475 25.6859 47.0692 25.9811 47.5739 25.9039C48.1617 25.8134 48.5801 25.4142 48.7361 24.787C49.5762 21.3758 50.423 17.9681 51.2598 14.5603C51.459 13.7452 50.9078 13.061 50.1009 13.014C49.0947 12.957 48.8723 13.4869 48.6531 14.3557C48.072 16.6298 47.5175 18.9072 46.9563 21.188C46.684 22.2915 46.4283 23.395 46.1892 24.3879L46.1859 24.3845Z" fill="#2aa0d1"/>
<path d="M11.5753 7.78157C12.2992 11.4979 13.0164 15.2177 13.7536 18.9307C14.348 21.9226 15.0121 24.8977 15.56 27.8963C15.902 29.7746 16.2806 31.6428 16.6425 33.5144C16.8318 34.4905 17.1007 35.4766 17.8944 36.1877C18.4954 37.1302 19.3488 37.7641 20.325 38.2572C21.371 38.7837 22.4801 38.8575 23.629 38.8542C33.0893 38.8374 42.5463 38.8475 52.0066 38.8374C52.3553 38.8374 52.684 38.9079 53.0128 38.9749C53.5441 39.0823 53.8562 39.6323 53.8197 40.2696C53.7865 40.8096 53.3282 41.3262 52.787 41.4C52.5213 41.4369 52.2524 41.4335 51.9834 41.4335C42.5629 41.4335 33.1425 41.4134 23.722 41.4536C22.0285 41.4603 20.418 41.2524 18.9271 40.4608C16.4599 39.1493 14.8361 37.1134 14.2351 34.3496C13.5975 31.4147 13.0696 28.4598 12.4785 25.5148C11.7978 22.1305 11.0938 18.7496 10.4197 15.3619C9.82536 12.36 9.26086 9.35466 8.67976 6.34936C8.45396 5.18212 8.20824 4.01824 7.99572 2.84765C7.93263 2.49882 7.70019 2.6028 7.51756 2.6028C5.56174 2.59609 3.6026 2.6028 1.64678 2.59274C1.31804 2.59274 0.969383 2.65982 0.66389 2.41497C0.109354 1.96887 -0.109804 1.4624 0.0495835 0.912322C0.199009 0.402495 0.803354 0.00670825 1.49403 0.00335413C3.91141 0 6.32879 0 8.74949 0C8.90224 0 9.05167 0.0670825 9.18781 0.080499C9.88845 0.147582 10.1574 0.637284 10.277 1.21419C10.7286 3.40108 11.1436 5.59133 11.5753 7.78157Z" fill="#465B64"/>
<path d="M53.8166 50.5031C53.9394 53.9176 50.9642 57.2147 46.9828 56.9866C44.0109 56.8155 40.8198 54.1691 41.0423 50.0804C41.2117 46.9678 43.7685 43.882 47.7764 44.0732C50.9609 44.2241 53.873 46.8705 53.8133 50.4997L53.8166 50.5031Z" fill="#465B64"/>
<path d="M28.1386 50.5131C28.4075 53.9947 25.1202 57.1543 21.5339 56.9933C18.2001 56.8457 15.3776 54.035 15.3842 50.5265C15.3909 46.9544 18.1038 44.2677 21.3247 44.0698C25.5319 43.8116 28.4009 47.32 28.1386 50.5098V50.5131Z" fill="#465B64"/>
</g>
<defs>
<clipPath id="clip0_1_398">
<rect width="59" height="57" fill="white"/>
</clipPath>
</defs>
</svg>
