<svg xmlns="http://www.w3.org/2000/svg" width="71.529" height="63.371" viewBox="0 0 71.529 63.371">
  <g id="Group_2920" data-name="Group 2920" transform="translate(-958.999 -1126)">
    <path id="Path_2922" data-name="Path 2922" d="M1233.576,317.512a26.039,26.039,0,0,0-8.742-14.416c-18.078-14.944-51.53-7.72-60.635,13.988-3.728,8.907-.924,19.167,3.794,27.612,2.177,3.926,4.651,7.885,8.412,10.392,9.9,6.6,18.63,3.7,26.151-7.254,7.225-10.557,17.263-10.989,21.453-12.177,2.837-.792,9.633-5.146,9.963-11.645A29.4,29.4,0,0,0,1233.576,317.512Z" transform="translate(-203.477 830.784)" fill="#fa1739" opacity="0.5"/>
    <path id="Path_2923" data-name="Path 2923" d="M-48.136,1064.172a10.754,10.754,0,0,0,4.189,2.627,21.546,21.546,0,0,0,7.756,1.363,29.052,29.052,0,0,0,3.841-.268,15.594,15.594,0,0,0,7.48-2.808,5.919,5.919,0,0,0,2.57-5.061c-.048-4.848-.035-9.777-.022-14.543q0-1.516.008-3.032a5.271,5.271,0,0,0-1.563-3.8,11.562,11.562,0,0,0-5.142-2.942,23.076,23.076,0,0,0-6.883-1.036,26.394,26.394,0,0,0-4.049.322,15.987,15.987,0,0,0-6.9,2.577,6.049,6.049,0,0,0-2.833,5.43c.064,1.967.049,3.969.034,5.9-.006.84-.013,1.708-.013,2.562q0,1.307,0,2.615c0,2.082,0,4.236,0,6.354A5.219,5.219,0,0,0-48.136,1064.172Zm22.975-3.278a3,3,0,0,1-1.584,2.118,13.181,13.181,0,0,1-6.057,2.141,24.768,24.768,0,0,1-3.409.247,18.31,18.31,0,0,1-6.82-1.254,13.533,13.533,0,0,1-2.837-1.727l-.174-.127a2.325,2.325,0,0,1-.864-2.047c.012-.879.009-1.774.007-2.639q0-.558,0-1.115v-.232l.208.1A24.3,24.3,0,0,0-35.984,1059a24.18,24.18,0,0,0,10.64-2.606l.208-.1v.232c0,.415.006.846.012,1.262C-25.109,1058.8-25.094,1059.852-25.161,1060.895ZM-46,1040.525a12.56,12.56,0,0,1,3.164-1.893,18.735,18.735,0,0,1,6.86-1.176h.008a18.8,18.8,0,0,1,7.823,1.593,9.07,9.07,0,0,1,2.171,1.472,2.384,2.384,0,0,1,.885,1.783,2.2,2.2,0,0,1-.9,1.609,10.646,10.646,0,0,1-3.242,1.906,21.123,21.123,0,0,1-6.849,1.188,19.654,19.654,0,0,1-7.756-1.623,7.806,7.806,0,0,1-2.179-1.468,2.382,2.382,0,0,1-.885-1.77A2.225,2.225,0,0,1-46,1040.525Zm-.907,7.92c0-.378.009-.77.009-1.153v-.231l.208.1a24.4,24.4,0,0,0,10.712,2.621,24.176,24.176,0,0,0,10.571-2.565l.208-.1v.231c0,.413.012.827.025,1.265a18.546,18.546,0,0,1-.1,3.282,3.449,3.449,0,0,1-1.551,1.927,12.3,12.3,0,0,1-5.63,2.068,24.725,24.725,0,0,1-3.7.291,19.419,19.419,0,0,1-6.963-1.249,6.878,6.878,0,0,1-3.1-2.039,2.986,2.986,0,0,1-.652-1.5C-46.926,1050.413-46.914,1049.412-46.9,1048.445Z" transform="translate(1030.693 106.326)" fill="#1f2430"/>
  </g>
</svg>
