<svg xmlns="http://www.w3.org/2000/svg" width="64.877" height="60.951" viewBox="0 0 64.877 60.951">
  <g id="Group_2918" data-name="Group 2918" transform="translate(-431 -1127)">
    <path id="Path_2918" data-name="Path 2918" d="M561.3,807.7a39.993,39.993,0,0,0-13,7c-6,5-14,7-19-7s-8-39,14-47,36,0,43,13,6,26-7,30S564.3,806.7,561.3,807.7Z" transform="translate(-94.727 369.499)" fill="#09cf94" opacity="0.5"/>
    <path id="Path_2920" data-name="Path 2920" d="M266.4,861.344l-2.133,2.1c-.194-.209-.4-.469-.646-.689a15.469,15.469,0,0,0-1.882-1.631,5.117,5.117,0,0,0-5.733.26,5.2,5.2,0,1,0,6.829,7.8q3.244-3.258,6.5-6.507c1.039-1.04,2.057-2.1,3.128-3.107a7.662,7.662,0,0,1,5.94-2.15,7.835,7.835,0,0,1,7.11,5,8.134,8.134,0,0,1-6.544,11.255,7.9,7.9,0,0,1-6.64-2.236c-.5-.475-.981-.964-1.471-1.448-.065-.064-.123-.135-.175-.192l2.1-2.091c.268.271.561.564.85.859a7.694,7.694,0,0,0,2.279,1.772,5.225,5.225,0,0,0,7.236-4.124,5.131,5.131,0,0,0-4.158-5.738,5.009,5.009,0,0,0-4.721,1.461c-2.7,2.684-5.374,5.388-8.075,8.068a21.835,21.835,0,0,1-2.485,2.276,8.161,8.161,0,1,1,1.226-12.417C265.425,860.356,265.911,860.854,266.4,861.344Z" transform="translate(195.078 292.604)"/>
  </g>
</svg>
