<svg xmlns="http://www.w3.org/2000/svg" width="64.877" height="60.951" viewBox="0 0 64.877 60.951">
  <g id="Group_2917" data-name="Group 2917" transform="translate(-167.001 -1127)">
    <path id="Path_2917" data-name="Path 2917" d="M296,766.2a39.993,39.993,0,0,0,13-7c6-5,14-7,19,7s8,39-14,47-36,0-43-13-6-26,7-30S293,767.2,296,766.2Z" transform="translate(-99.695 371.553)" fill="#8ad4e8" opacity="0.5"/>
    <path id="Path_2921" data-name="Path 2921" d="M-466.473,403.914a9.264,9.264,0,0,1,7-4.218,9.4,9.4,0,0,1,9.918,6.948,11.9,11.9,0,0,1,.292,1.41.528.528,0,0,0,.36.46,8.039,8.039,0,0,1,4.768,5.583,8.161,8.161,0,0,1-6.778,10.016,10.808,10.808,0,0,1-1.319.086c-6.67,0-13.34.054-20.009-.032a7.605,7.605,0,0,1-7.38-5.448,7.308,7.308,0,0,1,1.518-6.768,6.586,6.586,0,0,1,2.975-2.1c.276-.1.281-.288.314-.488a6.955,6.955,0,0,1,1.571-3.5,6.152,6.152,0,0,1,5.9-2.121C-467.046,403.778-466.763,403.853-466.473,403.914Zm4.709,17.857h1.125c2.839,0,5.678.018,8.516,0a5.711,5.711,0,0,0,5.3-8,5.546,5.546,0,0,0-3.693-3.251,1.239,1.239,0,0,1-1.067-1.3,14.326,14.326,0,0,0-.187-1.47,6.993,6.993,0,0,0-7.673-5.577,6.677,6.677,0,0,0-5.3,3.509c-.528.936-.985,1.13-1.993.708a3.967,3.967,0,0,0-2.587-.216,4.33,4.33,0,0,0-3.217,4.323c-.01.872-.286,1.264-1.127,1.45a4.653,4.653,0,0,0-3.108,2.4,4.774,4.774,0,0,0,2.189,6.849,7.871,7.871,0,0,0,3.132.582C-468.218,421.778-464.991,421.771-461.764,421.771Z" transform="translate(660.893 745.344)"/>
  </g>
</svg>
