<svg xmlns="http://www.w3.org/2000/svg" width="66.241" height="63.46" viewBox="0 0 66.241 63.46">
  <g id="Group_2921" data-name="Group 2921" transform="translate(-1228.999 -1126)">
    <path id="Path_2924" data-name="Path 2924" d="M1362.2,22.77c.2-14.237,17.382-25.461,37.678-22.15,17.846,2.914,31.122,14.568,28.142,35.758-1.159,8.211-3.708,14.469-14.667,23.209-15.793,12.548-24.428-8.564-29.659-14.954C1376.572,35.925,1362.031,34.623,1362.2,22.77Z" transform="translate(-133.195 1125.964)" fill="#ffb800" opacity="0.5"/>
    <path id="Path_2925" data-name="Path 2925" d="M-2154.774-87.248c4.516,2.038,8.473,3.83,12.1,5.477a1.56,1.56,0,0,0,.654.152,1.629,1.629,0,0,0,.682-.161c4.148-1.887,8.214-3.724,11.991-5.429.638-.288.9-.62.906-1.145.005-.55-.261-.9-.918-1.191-1.082-.486-2.147-.977-3.276-1.5l-1.4-.643-.476-.218.478-.213,1.453-.648,3.433-1.532a1.08,1.08,0,0,0,.689-1.265,1.247,1.247,0,0,0-.847-.916c-1.105-.486-2.193-.972-3.344-1.486l-1.361-.608-.47-.21.465-.221.24-.115c.136-.066.255-.123.374-.175l.719-.317c1.092-.481,2.221-.978,3.334-1.462.629-.273.9-.614.9-1.141.006-.548-.261-.893-.919-1.19-3.771-1.7-7.82-3.529-11.882-5.385a1.854,1.854,0,0,0-.777-.186,1.846,1.846,0,0,0-.775.185c-4,1.83-8.089,3.678-11.934,5.414-.618.279-.878.624-.872,1.154s.275.877.9,1.144c1.15.5,2.315,1.008,3.441,1.5l.669.295c.116.051.226.109.353.176l.213.111.443.226-.454.2-1.4.624-3.332,1.481a1.146,1.146,0,0,0-.825,1.126,1.147,1.147,0,0,0,.842,1.108c1.114.479,2.2.967,3.355,1.484l1.4.625.479.213-.476.219-1.4.641c-1.158.532-2.251,1.034-3.361,1.54a1.16,1.16,0,0,0-.837,1.122A1.174,1.174,0,0,0-2154.774-87.248Zm3.6-14.77-.479-.216.479-.216,1.538-.692,3.316-1.494,1.111-.5c.886-.4,1.8-.82,2.711-1.216a1.307,1.307,0,0,1,.5-.1.833.833,0,0,1,.339.064c2.515,1.115,5.063,2.266,7.528,3.379l1.028.464a.4.4,0,0,1,.148.128c.012.016.028.035.048.057l.206.229-.274.141-.142.074c-.1.052-.2.107-.306.154l-2.265,1.024c-1.883.85-3.829,1.729-5.739,2.6a1.423,1.423,0,0,1-.6.143,1.409,1.409,0,0,1-.591-.141c-2.142-.979-4.255-1.933-6.493-2.943Zm.3,7.086a.858.858,0,0,1-.147-.092c-.029-.021-.066-.048-.116-.082l-.348-.236.382-.175,1-.458c1.052-.484,2.045-.941,3.06-1.382a.673.673,0,0,1,.269-.051,1.526,1.526,0,0,1,.575.139c1.2.537,2.371,1.081,3.485,1.616a1.6,1.6,0,0,0,.7.174,1.644,1.644,0,0,0,.729-.186c1.234-.6,2.359-1.123,3.439-1.587a1.429,1.429,0,0,1,.551-.1,1.287,1.287,0,0,1,.5.092c.946.4,1.872.827,2.852,1.277l1.05.481.446.2-.436.223-.229.119c-.126.066-.226.119-.331.166l-1.267.574c-2.21,1-4.5,2.035-6.75,3.037a1.479,1.479,0,0,1-.58.122.926.926,0,0,1-.376-.071c-2.351-1.04-4.732-2.117-7.034-3.158Zm-.241,6.378.974-.439c1.072-.484,2.084-.941,3.12-1.386a.628.628,0,0,1,.249-.047,1.425,1.425,0,0,1,.539.131c1.309.58,2.47,1.109,3.55,1.618a1.564,1.564,0,0,0,.674.166,1.5,1.5,0,0,0,.649-.159c1.076-.512,2.238-1.041,3.55-1.619a1.485,1.485,0,0,1,.559-.128.717.717,0,0,1,.283.053c1.015.435,2.011.888,3.066,1.367l1.009.457.461.208-.455.221-.232.113c-.134.066-.25.123-.367.176l-1.457.659c-2.132.964-4.336,1.961-6.512,2.926a1.563,1.563,0,0,1-.611.129.971.971,0,0,1-.392-.074c-2.312-1.021-4.652-2.081-6.915-3.107l-1.376-.623a2.318,2.318,0,0,1-.235-.13c-.044-.026-.093-.056-.152-.09l-.4-.231Z" transform="translate(3404.602 1252.972)" fill="#1f2430"/>
  </g>
</svg>
