<svg xmlns="http://www.w3.org/2000/svg" width="94.454" height="15.237" viewBox="0 0 94.454 15.237">
  <g id="Group_2335" data-name="Group 2335" transform="translate(716.082 -1237.391)">
    <path id="Path_3312" data-name="Path 3312" d="M-716.081,1245.191a7.524,7.524,0,0,1,1.169-4.4,7.132,7.132,0,0,1,4.415-3.037,11.752,11.752,0,0,1,6.279.165c.182.055.261.13.237.326-.073.618-.038,1.243-.129,1.862-.029.2-.064.237-.25.164a7.451,7.451,0,0,0-1.778-.474,6.659,6.659,0,0,0-4.308.659,4.617,4.617,0,0,0-2.323,3.371,6.172,6.172,0,0,0,.272,3.358,4.615,4.615,0,0,0,3.46,2.906,8.188,8.188,0,0,0,4.59-.289c.274-.093.277-.079.312.208.081.653.023,1.312.089,1.965.015.145-.084.16-.179.19a10.155,10.155,0,0,1-1.779.365,13.481,13.481,0,0,1-2.191.1,9.106,9.106,0,0,1-4.933-1.44,6.584,6.584,0,0,1-2.848-4.556A8.384,8.384,0,0,1-716.081,1245.191Z" transform="translate(0 -0.014)" fill="#26a0dd"/>
    <path id="Path_3313" data-name="Path 3313" d="M-446.268,1245.083a7.494,7.494,0,0,1,1.072-4.161,7.036,7.036,0,0,1,4.29-3.126,11.591,11.591,0,0,1,6.445.107c.2.058.267.142.244.346-.07.635-.041,1.277-.136,1.911-.022.145-.061.162-.188.113a7.911,7.911,0,0,0-2.221-.538,5.794,5.794,0,0,0-5.014,1.6,4.681,4.681,0,0,0-1.214,2.6,6.364,6.364,0,0,0,.2,2.979,4.615,4.615,0,0,0,3.525,3.159,8.128,8.128,0,0,0,4.543-.27c.334-.111.31-.108.354.249.076.621.013,1.246.088,1.865.019.158-.064.2-.187.236a11.234,11.234,0,0,1-2.2.41,12.328,12.328,0,0,1-4.015-.241,7.053,7.053,0,0,1-4.57-3.165,6.993,6.993,0,0,1-.96-2.882A11.587,11.587,0,0,1-446.268,1245.083Z" transform="translate(-256.324)" fill="#26a0dd"/>
    <path id="Path_3314" data-name="Path 3314" d="M994.816,1325.364c0,.544-.007,1.042,0,1.54,0,.149-.086.179-.187.218a7.853,7.853,0,0,1-2.455.5,6.971,6.971,0,0,1-2.4-.207,4.4,4.4,0,0,1-2.909-2.6,6.921,6.921,0,0,1-.12-5.173,4.537,4.537,0,0,1,4.371-3.035,4.091,4.091,0,0,1,3.275,1.291,4.9,4.9,0,0,1,1.147,2.5,12.326,12.326,0,0,1,.111,1.987c0,.184-.059.213-.226.213-2.307-.005-4.613,0-6.92-.01-.234,0-.289.06-.263.284a3.394,3.394,0,0,0,3.507,3.269,5.956,5.956,0,0,0,2.743-.618Zm-3.769-4.083c.849,0,1.7-.005,2.546,0,.18,0,.227-.05.209-.224a4.708,4.708,0,0,0-.5-1.781,2.519,2.519,0,0,0-3.722-.751,3.768,3.768,0,0,0-1.287,2.606c-.022.165.081.147.183.147Z" transform="translate(-1617.28 -75.254)" fill="#030504"/>
    <path id="Path_3315" data-name="Path 3315" d="M333.9,1325.415c0,.507,0,1.02,0,1.533,0,.145-.1.155-.19.188a7.087,7.087,0,0,1-1.735.43,7.989,7.989,0,0,1-2.927-.093,4.317,4.317,0,0,1-2.986-2.437,6.691,6.691,0,0,1-.1-5.646,4.4,4.4,0,0,1,4.219-2.771,4.083,4.083,0,0,1,3.216,1.195,4.851,4.851,0,0,1,1.242,2.636,12.2,12.2,0,0,1,.106,1.938c0,.177-.047.218-.22.217-2.307-.006-4.613,0-6.92-.01-.229,0-.291.051-.264.281a3.39,3.39,0,0,0,3.478,3.27,5.9,5.9,0,0,0,2.79-.631c.081-.04.164-.075.247-.111C333.858,1325.4,333.868,1325.407,333.9,1325.415Zm-3.77-4.123c.849,0,1.7-.007,2.545.005.2,0,.24-.062.218-.241a5.194,5.194,0,0,0-.44-1.646,2.514,2.514,0,0,0-3.794-.861,3.783,3.783,0,0,0-1.272,2.586c-.024.182.089.156.2.156Z" transform="translate(-989.401 -75.264)" fill="#030504"/>
    <path id="Path_3316" data-name="Path 3316" d="M552.46,1318.663c.188-.267.336-.506.513-.722a3.919,3.919,0,0,1,3.726-1.386,3.231,3.231,0,0,1,2.9,2.975,8.213,8.213,0,0,1,.111,1.488c0,2.011,0,4.022.006,6.033,0,.215-.061.258-.262.251-.474-.015-.949-.016-1.423,0-.211.007-.278-.036-.277-.266.011-1.911.005-3.823.006-5.734a4.987,4.987,0,0,0-.254-1.713,1.972,1.972,0,0,0-1.9-1.378,2.7,2.7,0,0,0-2.85,2.405,6.922,6.922,0,0,0-.127,1.461c0,1.645-.007,3.291.006,4.936,0,.25-.07.3-.3.289-.482-.019-.966-.011-1.448,0-.155,0-.214-.027-.214-.2q.008-5.061,0-10.122c0-.165.046-.21.21-.206q.686.017,1.374,0c.159,0,.212.035.208.2C552.453,1317.522,552.46,1318.071,552.46,1318.663Z" transform="translate(-1203.425 -75.17)" fill="#030504"/>
    <path id="Path_3317" data-name="Path 3317" d="M775.523,1332.764l-.2.324a3.734,3.734,0,0,1-3.128,1.8,4.2,4.2,0,0,1-1.837-.261,3.173,3.173,0,0,1-1.882-2.324,6.166,6.166,0,0,1-.2-1.552c-.005-2.094,0-4.188-.008-6.283,0-.181.056-.218.224-.214.508.011,1.016.013,1.523,0,.187-.005.212.061.211.226q-.009,2.78,0,5.56a5.438,5.438,0,0,0,.238,1.743,1.94,1.94,0,0,0,1.943,1.421,2.586,2.586,0,0,0,2.756-2.222,6.938,6.938,0,0,0,.2-1.676c0-1.587.008-3.175,0-4.762,0-.251.071-.3.3-.29.482.019.966.011,1.448,0,.155,0,.212.028.211.2q-.008,5.049,0,10.1c0,.145-.024.2-.187.2q-.711-.018-1.424,0c-.164,0-.19-.056-.188-.2C775.528,1333.978,775.523,1333.408,775.523,1332.764Z" transform="translate(-1410.139 -82.518)" fill="#030504"/>
    <path id="Path_3318" data-name="Path 3318" d="M-65.182,1255.055q1.41-3.711,2.816-7.423a.224.224,0,0,1,.254-.169c.649.007,1.3.011,1.948,0a.283.283,0,0,1,.316.228q2.222,5.964,4.453,11.924l.87,2.33c-.688,0-1.349,0-2.011,0-.123,0-.122-.1-.146-.165-.594-1.682-1.182-3.366-1.778-5.048q-.947-2.671-1.905-5.339-.349-.976-.7-1.952c-.019-.052-.024-.117-.1-.146l-2.152,5.761Z" transform="translate(-618.359 -9.568)" fill="#030504"/>
    <path id="Path_3319" data-name="Path 3319" d="M122.97,1327.476c.651,0,1.292,0,1.932,0,.149,0,.171.079.206.189q.864,2.745,1.736,5.489.446,1.407.891,2.815a.3.3,0,0,0,.092.18q.985-3,1.968-5.985c.274-.833.549-1.665.815-2.5a.225.225,0,0,1,.261-.187c.565.01,1.131,0,1.731,0-.162.46-.315.9-.472,1.339q-1.6,4.463-3.191,8.926c-.054.151-.112.222-.293.218-.632-.015-1.265-.007-1.9,0-.107,0-.174-.008-.218-.136q-1.777-5.148-3.565-10.292C122.962,1327.52,122.966,1327.511,122.97,1327.476Z" transform="translate(-797.099 -85.578)" fill="#030504"/>
    <path id="Path_3320" data-name="Path 3320" d="M-197.012,1399.356l1.86,0c.882,0,1.765.012,2.647.005a.265.265,0,0,1,.306.228c.309.979.634,1.952.97,2.977-.358-.085-.683-.161-1.006-.239q-1.753-.426-3.506-.852a1.313,1.313,0,0,0-.2-.018,17.391,17.391,0,0,0-1.716-.428q-1.667-.411-3.334-.823c-.927-.228-1.855-.451-2.781-.68-.065-.016-.187.008-.181-.088.008-.125.132-.063.2-.063q3.244-.007,6.488-.007C-197.178,1399.369-197.1,1399.36-197.012,1399.356Z" transform="translate(-486.529 -153.868)" fill="#e60d1a"/>
    <path id="Path_3321" data-name="Path 3321" d="M-115.725,1432.854a17.391,17.391,0,0,1,1.716.428l-1.685,4.641c-.028.076-.045.148-.162.147-.606-.006-1.213,0-1.854,0Z" transform="translate(-568.457 -185.691)" fill="#030504"/>
  </g>
</svg>
