<svg xmlns="http://www.w3.org/2000/svg" width="68.005" height="68.009" viewBox="0 0 68.005 68.009">
  <path id="Shape_21" data-name="Shape 21" d="M526.235,775.624q-1.486-2.346-2.933-4.719a16.616,16.616,0,0,0-5.808-5.73c-1.568-.927-3.121-1.878-4.676-2.827a6.879,6.879,0,0,1-3.286-7.685c.253-1.143.454-2.3.8-3.422a20.336,20.336,0,0,0-.105-12.3c-.31-1-.525-2.029-.778-3.047a6.928,6.928,0,0,1,3.231-7.958c1.651-1.028,3.309-2.044,4.955-3.081a15.91,15.91,0,0,0,5.007-5c1.057-1.668,2.04-3.383,3.064-5.072a7,7,0,0,1,8.143-3.4c1.441.342,2.9.636,4.319,1.038a19.672,19.672,0,0,0,11.047-.4c1.037-.3,2.089-.545,3.137-.8a6.931,6.931,0,0,1,7.831,3.153c1.007,1.591,1.985,3.2,2.982,4.8a16.594,16.594,0,0,0,5.7,5.587q2.391,1.416,4.754,2.878a6.884,6.884,0,0,1,3.247,7.7c-.246,1.115-.445,2.246-.782,3.334a20.451,20.451,0,0,0,.1,12.394,28.246,28.246,0,0,1,.893,3.685,6.642,6.642,0,0,1-3.012,7.045c-1.528,1.042-3.128,1.984-4.715,2.938a17.045,17.045,0,0,0-6.008,6.044q-1.411,2.394-2.871,4.757c-1.344,2.17-3.355,3.187-6.243,3.371-1.09-.237-2.567-.442-3.97-.883a22.024,22.024,0,0,0-13.84.112c-.789.26-1.609.429-2.418.627a7.8,7.8,0,0,1-1.845.227A6.892,6.892,0,0,1,526.235,775.624Zm2.025-59.575c-1.013,1.66-2,3.332-3.02,4.988a19.121,19.121,0,0,1-6.189,6.269c-1.646,1.035-3.307,2.047-4.953,3.082a4.091,4.091,0,0,0-1.916,4.768c.4,1.616.8,3.233,1.221,4.843a17.017,17.017,0,0,1,.587,6.967c-.435,2.8-1.106,5.557-1.7,8.328a4.076,4.076,0,0,0,1.938,4.593c1.685,1.031,3.383,2.039,5.069,3.068A18.95,18.95,0,0,1,525.452,769c1.113,1.741,2.168,3.521,3.28,5.263a4.007,4.007,0,0,0,4.327,1.78c.9-.2,1.815-.383,2.693-.667a24.185,24.185,0,0,1,15.023-.148c1.229.385,2.518.584,3.611.832a4.323,4.323,0,0,0,3.659-2c.968-1.579,1.933-3.158,2.871-4.754a19.635,19.635,0,0,1,6.822-6.913c1.528-.932,3.047-1.879,4.562-2.83a4.1,4.1,0,0,0,1.917-4.77c-.2-.808-.4-1.616-.617-2.42-.888-3.258-1.707-6.549-1.164-9.945.418-2.614,1.1-5.185,1.669-7.773a4.064,4.064,0,0,0-1.934-4.593c-1.633-1-3.272-1.983-4.91-2.972a19.16,19.16,0,0,1-6.414-6.3c-1.018-1.62-2.015-3.253-3.03-4.873a4.111,4.111,0,0,0-4.84-1.944c-1.824.456-3.644.936-5.475,1.368a19.217,19.217,0,0,1-8.72.1c-1.956-.439-3.905-.905-5.859-1.352a5.143,5.143,0,0,0-1.146-.136A3.991,3.991,0,0,0,528.26,716.049Zm-9.966,30.136a25.008,25.008,0,1,1,26.169,23.876q-.664.035-1.323.035A25.078,25.078,0,0,1,518.295,746.185Zm23.037-23.17a22.187,22.187,0,1,0,1.984-.085Q542.333,722.93,541.332,723.015Zm.048,28.168q-3.021-2.519-6.035-5.047c-.845-.711-.978-1.465-.421-2.156a1.442,1.442,0,0,1,2.2-.038c1.789,1.464,3.56,2.951,5.424,4.5,2.824-3.475,5.589-6.869,8.343-10.271a1.6,1.6,0,0,1,1.725-.787,1.43,1.43,0,0,1,.609,2.438c-1.268,1.592-2.571,3.158-3.859,4.735q-2.6,3.19-5.208,6.381c-.532.649-.939.965-1.387.965A2.381,2.381,0,0,1,541.38,751.183Z" transform="translate(-509.195 -710.972)" fill="#1ac48b"/>
</svg>
