<svg xmlns="http://www.w3.org/2000/svg" xmlns:xlink="http://www.w3.org/1999/xlink" width="16" height="16" viewBox="0 0 16 16">
  <defs>
    <clipPath id="clip-path">
      <rect id="Rectangle_3962" data-name="Rectangle 3962" width="16" height="16" transform="translate(-14039 1042)" fill="#fff"/>
    </clipPath>
  </defs>
  <g id="Mask_Group_30" data-name="Mask Group 30" transform="translate(14039 -1042)" clip-path="url(#clip-path)">
    <g id="Group_341" data-name="Group 341" transform="translate(-14037 1043)">
      <path id="Path_1232" data-name="Path 1232" d="M137.05,275.837a6.379,6.379,0,0,1,4.793,1.945,5.867,5.867,0,0,1,1.608,3.412,6,6,0,0,1-2.038,5.451,5.832,5.832,0,0,1-3.514,1.5,6.172,6.172,0,0,1-5.718-9.492.5.5,0,0,1,.531-.241.474.474,0,0,1,.4.361.608.608,0,0,1-.117.517,4.806,4.806,0,0,0-.636,1.487,5.1,5.1,0,0,0,.591,3.838,4.892,4.892,0,0,0,3.423,2.425,5.088,5.088,0,0,0,5.981-3.892,4.953,4.953,0,0,0-1.394-4.78,5.009,5.009,0,0,0-3.132-1.468,4.911,4.911,0,0,0-3.463.936.524.524,0,0,1-.734-.094.494.494,0,0,1,.106-.713,5.259,5.259,0,0,1,1.892-.922C136.167,275.974,136.722,275.9,137.05,275.837Z" transform="translate(-131.189 -273.794)" fill="#fff"/>
      <path id="Path_1233" data-name="Path 1233" d="M286.588,362.512h.813c.427,0,.853,0,1.28,0a.5.5,0,0,1,.5.463.5.5,0,0,1-.443.535,1.435,1.435,0,0,1-.2.011q-1.161,0-2.323,0c-.453,0-.636-.18-.637-.627q0-1.207,0-2.414a.5.5,0,0,1,.447-.567.492.492,0,0,1,.563.523c.008.61,0,1.219,0,1.829C286.588,362.338,286.588,362.41,286.588,362.512Z" transform="translate(-279.919 -354.791)" fill="#fff"/>
      <path id="Path_1234" data-name="Path 1234" d="M260.046,221.07c-.323,0-.646,0-.969,0a.5.5,0,0,1-.521-.5.492.492,0,0,1,.479-.521q1.015-.021,2.03,0a.509.509,0,0,1-.031,1.018C260.7,221.073,260.376,221.069,260.046,221.07Z" transform="translate(-253.891 -220.041)" fill="#fff"/>
    </g>
  </g>
</svg>
