<svg width="42" height="42" viewBox="0 0 42 42" fill="none" xmlns="http://www.w3.org/2000/svg">
<mask id="mask0_3402_413" style="mask-type:alpha" maskUnits="userSpaceOnUse" x="0" y="0" width="42" height="42">
<rect width="42" height="42" fill="#D9D9D9"/>
</mask>
<g mask="url(#mask0_3402_413)">
<path fill-rule="evenodd" clip-rule="evenodd" d="M36.0362 16.7841L36.035 16.7716L36.0332 16.7593C35.9535 16.2132 35.8499 15.6695 35.6983 15.1323C34.3236 9.98947 29.4585 6.56726 24.1495 7.04428C20.9356 7.32539 18.0141 9.02657 16.1903 11.6681C15.9827 11.6201 15.7518 11.5682 15.529 11.5376C12.9002 11.043 10.2121 12.0077 8.50917 14.0668C7.51635 15.2493 6.8785 16.6796 6.65411 18.2031C6.6507 18.2259 6.64737 18.2501 6.64462 18.2702L6.64194 18.2896C6.63837 18.3152 6.63554 18.334 6.63262 18.3501L6.6325 18.3508C5.25376 18.8353 4.02318 19.6852 3.10814 20.8346C1.21576 23.0262 0.533172 26.0182 1.32304 28.8122L1.32301 28.8122L1.32455 28.8175C2.45398 32.6528 6.00511 35.2763 10.0042 35.232C15.3586 35.2961 20.7146 35.285 26.0665 35.2738C28.1245 35.2696 30.1819 35.2653 32.2383 35.2653V35.2654L32.2497 35.2651C32.7446 35.2539 33.2556 35.2312 33.7726 35.1607L33.7783 35.1599C34.0923 35.1134 34.3942 35.0553 34.6953 34.9858L34.6953 34.9858L34.7015 34.9843C39.8359 33.73 42.9782 28.5602 41.7246 23.4255C41.0206 20.4705 38.9442 18.0299 36.1274 16.8797L36.1156 16.8749L36.1036 16.8707C36.0666 16.8577 36.04 16.8242 36.0362 16.7841ZM6.65411 18.2031C6.65417 18.2026 6.65424 18.2022 6.6543 18.2018L7.14859 18.2759L6.65411 18.2031ZM35.2162 15.2647C35.2162 15.2647 35.2161 15.2647 35.2161 15.2647C35.2161 15.2647 35.2162 15.2647 35.2162 15.2648C35.2162 15.2647 35.2162 15.2647 35.2162 15.2647ZM6.03086 33.7905C7.23037 34.4106 8.5877 34.7486 10.0044 34.7319C15.3568 34.7961 20.7093 34.785 26.0617 34.7738H26.0621C28.1209 34.7696 30.1796 34.7653 32.2383 34.7653C32.5153 34.759 32.7922 34.7491 33.0691 34.7296C32.7922 34.7491 32.5152 34.759 32.2383 34.7652C30.1796 34.7652 28.1208 34.7695 26.0621 34.7738C20.7095 34.785 15.357 34.7961 10.0044 34.7319C8.58768 34.7486 7.23036 34.4106 6.03086 33.7905ZM33.7612 34.6568C34.0411 34.6138 34.312 34.5611 34.5828 34.4986C38.2234 33.6092 40.807 30.6432 41.3801 27.1678C40.807 30.6431 38.2234 33.6092 34.5828 34.4986C34.312 34.5611 34.0411 34.6138 33.7612 34.6568ZM32.3669 31.5652L32.3669 31.5651L32.357 31.5652C30.2556 31.58 28.1561 31.5751 26.0539 31.5701H26.0537H26.0533C25.001 31.5677 23.9479 31.5652 22.8936 31.5652H21.6492C20.7511 31.5652 19.8541 31.5659 18.9573 31.5666C16.268 31.5687 13.5808 31.5708 10.8742 31.5541L10.8742 31.5539L10.8617 31.5542C9.73771 31.5752 8.61749 31.3755 7.58453 30.9477L7.58455 30.9476L7.57891 30.9454C7.38832 30.8691 7.20246 30.7719 7.0206 30.6607L7.01767 30.659C4.74446 29.291 4.01865 26.3432 5.38823 24.0672L5.39662 24.0533L5.40408 24.0388C6.03623 22.8147 7.18028 21.9316 8.52471 21.6306L8.52578 21.6304C9.0444 21.5131 9.48808 21.3133 9.78598 20.9246C10.0794 20.5416 10.165 20.0606 10.171 19.5373L10.1711 19.5269L10.1708 19.5166C10.1111 17.5162 11.4339 15.7344 13.3746 15.2154C14.2316 14.9994 15.1269 15.0786 15.9237 15.4328L15.9237 15.4329L15.9348 15.4375C16.5238 15.6825 17.0816 15.8104 17.6054 15.6172C18.1221 15.4266 18.4692 14.9722 18.7735 14.4325L18.7736 14.4326L18.7793 14.422C19.8777 12.3598 21.9396 10.9921 24.2713 10.7849L24.2713 10.7851L24.2846 10.7835C28.0474 10.3469 31.5188 12.8721 32.2583 16.5809C32.3526 17.0952 32.4166 17.6118 32.4598 18.1318C32.4327 19.0823 33.105 19.9057 34.0464 20.055C35.7389 20.52 37.1166 21.7406 37.7874 23.3667L37.7872 23.3668L37.7919 23.3774C38.1295 24.1446 38.2932 24.9626 38.283 25.792C38.242 29.0166 35.5903 31.6062 32.3669 31.5652ZM16.1268 14.9759C15.2268 14.5759 14.2156 14.487 13.2489 14.7314C11.0822 15.3092 9.60439 17.2981 9.67105 19.5315C9.65994 20.4982 9.34883 20.9316 8.41547 21.1427C6.92654 21.476 5.65984 22.4538 4.95982 23.8094C4.00355 25.3985 3.97278 27.2858 4.71548 28.8404C3.97277 27.2858 4.00351 25.3985 4.95979 23.8094C5.65981 22.4538 6.92651 21.476 8.41544 21.1427C9.3488 20.9315 9.65992 20.4982 9.67103 19.5315C9.60436 17.2981 11.0822 15.3092 13.2489 14.7314C14.2156 14.4869 15.2267 14.5758 16.1268 14.9758C17.249 15.4425 17.749 15.2314 18.3379 14.1869C19.5157 11.9758 21.7269 10.5091 24.227 10.2868C25.2934 10.1631 26.338 10.262 27.3121 10.5481C26.338 10.262 25.2934 10.1631 24.227 10.2868C21.7269 10.5091 19.5158 11.9758 18.338 14.1869C17.7491 15.2314 17.249 15.4425 16.1268 14.9759ZM34.1495 19.5648C34.0606 19.5523 33.9748 19.5317 33.8929 19.5037ZM38.2496 23.1761C38.2496 23.1761 38.2496 23.1761 38.2496 23.1761C38.1579 22.9538 38.0541 22.7386 37.939 22.531" fill="url(#paint0_linear_3402_413)"/>
</g>
<defs>
<linearGradient id="paint0_linear_3402_413" x1="41.5" y1="21" x2="3" y2="21" gradientUnits="userSpaceOnUse">
<stop stop-color="#72D4F9"/>
<stop offset="1" stop-color="#1BA2D3"/>
</linearGradient>
</defs>
</svg>
