<svg width="29" height="29" viewBox="0 0 29 29" fill="none" xmlns="http://www.w3.org/2000/svg">
<path opacity="0.5" d="M12.8972 6.90033C14.9386 6.23556 16.8418 5.19218 18.5077 3.81863C21.0972 1.61741 24.5499 0.736923 26.7078 6.90033C28.8657 13.0637 30.1605 24.0698 20.6657 27.5918C11.1708 31.1137 5.12867 27.5918 2.10759 21.8686C-0.913494 16.1454 -0.481911 10.4223 5.12867 8.6613C10.7392 6.90033 11.6024 7.34057 12.8972 6.90033Z" fill="#E9453A"/>
<path d="M16.9973 0.535889C17.413 0.535889 17.8283 0.535889 18.244 0.535889C18.2832 0.550398 18.3216 0.571255 18.3622 0.578057C20.7682 0.985681 22.3508 2.36725 23.1014 4.72232C23.2924 5.32083 23.3459 5.94247 23.3142 6.57C23.3807 6.59857 23.4351 6.62169 23.4891 6.64436C25.16 7.34717 26.1685 8.88199 26.168 10.722C26.168 13.0471 24.2456 15 21.9569 15C17.1797 15 12.4026 15 7.62583 15C5.79793 15 4.17253 13.812 3.5949 12.0455C3.5048 11.7703 3.44726 11.4842 3.375 11.2035C3.375 10.8417 3.375 10.4803 3.375 10.1185C3.39017 10.0704 3.41113 10.0237 3.42005 9.97474C3.68054 8.52334 4.45176 7.45145 5.74173 6.77268C6.41392 6.41901 7.13607 6.28072 7.8948 6.32833C7.92736 6.24944 7.95502 6.18097 7.98356 6.1125C8.74586 4.27252 10.5158 3.22739 12.4659 3.47133C12.622 3.49083 12.6996 3.44231 12.7817 3.30901C13.651 1.90114 14.8803 1.00246 16.4848 0.64607C16.6556 0.607529 16.8265 0.572162 16.9973 0.535889ZM14.7715 13.5536C14.7715 13.5513 14.7715 13.5486 14.7715 13.5463C17.1681 13.5463 19.5647 13.5604 21.9609 13.5409C23.324 13.5295 24.4936 12.4803 24.697 11.15C24.9124 9.74213 24.1452 8.42903 22.8276 7.95339C22.5555 7.855 22.2834 7.7557 22.0077 7.66909C21.8726 7.62647 21.8342 7.55982 21.8369 7.41246C21.8476 6.81939 21.9087 6.21543 21.824 5.63414C21.5541 3.78283 20.1379 2.36952 18.3029 2.04124C16.5958 1.73609 14.8161 2.61618 13.9276 4.20632C13.7849 4.4616 13.6381 4.71461 13.5052 4.97487C13.4463 5.09004 13.374 5.11861 13.2554 5.09231C13.06 5.04878 12.8611 5.02248 12.6666 4.97623C10.9596 4.56951 9.78158 5.58608 9.36051 6.57136C9.21064 6.92231 9.09288 7.28822 8.97736 7.65277C8.92561 7.81691 8.84979 7.87585 8.67806 7.85953C8.27216 7.82144 7.86268 7.76023 7.45856 7.7829C5.55394 7.88855 4.3001 9.90808 5.00263 11.7131C5.45046 12.8644 6.4902 13.5504 7.80425 13.5522C10.1268 13.5558 12.4494 13.5536 14.7715 13.5536Z" fill="#1F2430"/>
</svg>
