<svg xmlns="http://www.w3.org/2000/svg" width="70" height="70" viewBox="0 0 70 70">
  <g id="Group_3435" data-name="Group 3435" transform="translate(-164 -192)">
    <rect id="Rectangle_1" data-name="Rectangle 1" width="70" height="70" transform="translate(164 192)" fill="none"/>
    <g id="trophy" transform="translate(164 191)">
      <g id="Group_3434" data-name="Group 3434" transform="translate(16.153 9.453)">
        <g id="Group_3433" data-name="Group 3433">
          <path id="Path_3779" data-name="Path 3779" d="M44.951,42.21,34.165,35.574,23.379,42.211l3.384-11.846-11.542-8.88H29.832l4.333-13,4.333,13H53.109l-11.543,8.88Z" transform="translate(-15.221 -8.487)" fill="#f6e0d8"/>
        </g>
      </g>
      <path id="Path_3780" data-name="Path 3780" d="M59.552,17.935H42.685L37.654,2.841a2.7,2.7,0,0,0-5.115,0L27.509,17.935H10.642a2.641,2.641,0,0,0-1.61,4.735L22.51,33.04,18.394,47.453a2.287,2.287,0,0,0,3.4,2.576l2.949-1.814L26.955,59.71H19.876l-5.1,6.378V71H55.419V66.088l-5.1-6.378H43.237l2.216-11.495L48.4,50.03a2.289,2.289,0,0,0,3.4-2.578L47.685,33.04,61.164,22.671a2.642,2.642,0,0,0-1.612-4.735ZM26.8,46.95l2.52-1.551,2.207,14.31H29.255Zm-1.86,15.017H45.258V63.1a1.13,1.13,0,0,1-1.129,1.129H26.065A1.13,1.13,0,0,1,24.935,63.1Zm8.872-2.258L31.4,44.115,35.1,41.842l3.694,2.273-2.4,15.6Zm19.354,7.17v1.862H17.032V66.88l3.929-4.912h1.716V63.1a3.391,3.391,0,0,0,3.387,3.387H44.129A3.391,3.391,0,0,0,47.516,63.1V61.968h1.716ZM40.938,59.71H38.671L40.877,45.4,43.4,46.95ZM59.785,20.882l-14.694,11.3,4.5,15.922L35.1,39.191,20.564,48.075,25.1,32.186l-14.7-11.3a.384.384,0,0,1,.234-.689H29.137L34.681,3.558a.456.456,0,0,1,.831,0l5.545,16.636H59.552a.384.384,0,0,1,.234.689Z" fill="#51596c"/>
    </g>
  </g>
</svg>
