<svg width="365" height="400" viewBox="0 0 365 400" fill="none" xmlns="http://www.w3.org/2000/svg">
<mask id="mask0_1006_189" style="mask-type:alpha" maskUnits="userSpaceOnUse" x="0" y="0" width="365" height="400">
<path d="M0 9.99999C0 4.47714 4.47715 0 10 0H365V400H10C4.47716 400 0 395.523 0 390V9.99999Z" fill="#CFF0E5"/>
</mask>
<g mask="url(#mask0_1006_189)">
<path d="M0.627093 -7.98047C0.627093 -7.98047 -8.68603 2.95038 -5.36066 16.5934C-2.03528 30.2385 9.37842 37.4183 9.37842 37.4183C9.37842 37.4183 14.887 21.061 10.1695 12.5652C5.44992 4.06933 3.76658 -8.92285 3.76658 -8.92285L0.627093 -7.98047Z" fill="#72D3B3"/>
<path d="M1.37891 -7.36651C1.37891 -7.36651 3.66949 5.97881 15.2815 11.1404C26.8934 16.2999 38.6603 11.5859 38.6603 11.5859C38.6603 11.5859 30.2994 -1.90314 21.5171 -3.08163C12.7368 -4.25807 2.54795 -10.3127 2.54795 -10.3127L1.37891 -7.36651Z" fill="#72D3B3"/>
<path d="M369.848 -1.2851C369.848 -1.2851 360.293 -4.92735 351.862 0.47648C343.431 5.88031 341.254 15.1563 341.254 15.1563C341.254 15.1563 353.583 14.9982 358.213 9.86954C362.844 4.74288 371.219 0.583244 371.219 0.583244L369.848 -1.2851Z" fill="#72D3B3"/>
<path d="M369.608 -0.640625C369.608 -0.640625 361.135 4.0056 360.369 12.9408C359.603 21.876 365.537 28.6041 365.537 28.6041C365.537 28.6041 372.685 19.8845 371.428 13.7662C370.168 7.64785 371.872 -0.550287 371.872 -0.550287L369.608 -0.640625Z" fill="#72D3B3"/>
<path d="M126.821 -13.1235C126.821 -13.1235 111.63 -11.711 104.851 0.722751C98.0724 13.1565 102.381 26.5921 102.381 26.5921C102.381 26.5921 118.246 18.4638 120.309 8.8326C122.372 -0.798616 130.035 -11.5796 130.035 -11.5796L126.821 -13.1235Z" fill="#72D3B3"/>
<path d="M295.691 -4.97878C295.691 -4.97878 297.606 6.18818 307.322 10.5059C317.038 14.8236 326.882 10.8796 326.882 10.8796C326.882 10.8796 319.888 -0.408514 312.541 -1.39196C305.195 -2.37746 296.67 -7.44458 296.67 -7.44458L295.691 -4.97878Z" fill="#72D3B3"/>
<path d="M297.681 -10.9124C297.681 -10.9124 282.489 -9.4998 275.711 2.93393C268.932 15.3677 273.24 28.8033 273.24 28.8033C273.24 28.8033 289.105 20.675 291.169 11.0438C293.232 1.41256 300.895 -9.3684 300.895 -9.3684L297.681 -10.9124Z" fill="#72D3B3"/>
<path d="M122.901 -9.08513C122.901 -9.08513 120.652 1.98533 128.129 9.46076C135.608 16.9382 146.191 16.774 146.191 16.774C146.191 16.774 143.76 3.78387 137.281 0.250436C130.802 -3.28299 124.702 -11.0315 124.702 -11.0315L122.901 -9.08513Z" fill="#72D3B3"/>
<path d="M67.1031 -3.13916C67.1031 -3.13916 61.7784 -1.08809 60.6155 4.07758C59.4548 9.24325 62.3877 13.6451 62.3877 13.6451C62.3877 13.6451 67.2642 9.10774 67.0164 5.43059C66.7685 1.75344 68.4188 -2.90716 68.4188 -2.90716L67.1031 -3.13916Z" fill="#72D3B3"/>
<path d="M7.86383 117.62C7.86383 117.62 6.08753 123.011 9.37574 127.175C12.6639 131.341 17.9536 131.874 17.9536 131.874C17.9536 131.874 17.5095 125.253 14.4857 123.114C11.4639 120.974 8.87796 116.753 8.87796 116.753L7.86383 117.62Z" fill="#72D3B3"/>
<path d="M349.555 102.667C349.555 102.667 343.91 103.537 341.663 108.337C339.415 113.136 341.332 118.061 341.332 118.061C341.332 118.061 347.074 114.665 347.623 111.021C348.173 107.375 350.79 103.174 350.79 103.174L349.555 102.667Z" fill="#72D3B3"/>
<path d="M349.668 38.8062C349.668 38.8062 346.524 42.6722 347.912 47.0987C349.3 51.5253 353.464 53.5969 353.464 53.5969C353.464 53.5969 355.175 48.037 353.369 45.3515C351.564 42.666 350.769 38.4099 350.769 38.4099L349.668 38.8062Z" fill="#72D3B3"/>
<path d="M67.5237 -2.13121C67.5237 -2.13121 66.1088 3.36501 69.6676 7.30496C73.2264 11.2449 78.5387 11.4317 78.5387 11.4317C78.5387 11.4317 77.6547 4.85352 74.4946 2.91743C71.3365 0.981327 68.4758 -3.06128 68.4758 -3.06128L67.5237 -2.13121Z" fill="#72D3B3"/>
<path d="M249.797 -3.41442C249.797 -3.41442 248.382 2.0818 251.941 6.02175C255.5 9.9617 260.812 10.1485 260.812 10.1485C260.812 10.1485 259.928 3.57032 256.768 1.63422C253.61 -0.301878 250.749 -4.34448 250.749 -4.34448L249.797 -3.41442Z" fill="#72D3B3"/>
<path d="M240.721 6.79805C240.721 6.79805 245.186 7.33802 247.925 4.17826C250.664 1.0185 250.271 -3.12061 250.271 -3.12061C250.271 -3.12061 245.186 -1.7676 243.984 0.878883C242.782 3.52536 239.893 6.15336 239.893 6.15336L240.721 6.79805Z" fill="#72D3B3"/>
<path d="M170.668 5.94185C170.668 5.94185 175.134 6.48182 177.872 3.32206C180.611 0.162298 180.219 -3.97681 180.219 -3.97681C180.219 -3.97681 175.134 -2.6238 173.932 0.0226852C172.729 2.66917 169.84 5.29717 169.84 5.29717L170.668 5.94185Z" fill="#72D3B3"/>
<path d="M199.067 -7.10572C199.067 -7.10572 197.062 0.683841 202.108 6.2704C207.151 11.857 214.684 12.1218 214.684 12.1218C214.684 12.1218 213.43 2.79651 208.952 0.0514774C204.475 -2.69355 200.42 -8.42383 200.42 -8.42383L199.067 -7.10572Z" fill="#72D3B3"/>
<path d="M-10.354 47.0188C-10.354 47.0188 -14.7906 56.5678 -9.63519 64.9405C-4.47776 73.3131 5.14726 75.4237 5.14726 75.4237C5.14726 75.4237 5.75863 63.1337 0.65283 58.5491C-4.45297 53.9645 -8.30091 45.6411 -8.30091 45.6411L-10.354 47.0188Z" fill="#72D3B3"/>
</g>
<path d="M287.969 293.406L170.612 293.053C167.489 293.044 165.093 295.822 165.563 298.91L167.377 310.878L173.261 310.866L176.806 371.099C176.995 374.322 179.666 376.838 182.894 376.838H276.563L280.461 310.64L286 310.628L287.969 293.406Z" fill="url(#paint0_linear_1006_189)"/>
<path d="M278.568 376.843H206.669L202.82 294.656H288.243L284.659 371.129C284.508 374.325 281.826 376.843 278.568 376.843Z" fill="url(#paint1_linear_1006_189)"/>
<path d="M337.507 276.788C338.417 273.419 328.044 253.039 328.044 253.039L327.12 252.045C327.12 252.045 318.63 275.46 319.18 276.734C320.67 280.168 336.759 279.555 337.507 276.788ZM327.617 253.019C330.793 259.626 333.794 272.582 334.414 275.369C331.72 276.254 325.037 276.29 322.439 275.448C323.171 272.643 325.203 259.885 327.617 253.019Z" fill="url(#paint2_linear_1006_189)"/>
<path d="M349.381 245.666C356.3 241.572 357.09 239.898 356.959 237.645C356.83 235.393 350.73 224.312 346.395 225.778C342.062 227.246 328.638 249.228 328.638 249.228L329.787 250.441C329.785 250.443 342.461 249.762 349.381 245.666ZM345.444 230.284C347.443 229.603 351.365 235.691 351.8 237.798C351.827 238.295 334.344 248.912 329.918 249.413C335.116 241.236 343.717 230.985 345.444 230.284Z" fill="url(#paint3_linear_1006_189)"/>
<path d="M324.184 247.261L323.545 248.556C322.911 249.839 323.439 251.391 324.72 252.023L328.526 253.901C329.809 254.535 331.36 254.006 331.992 252.725L332.631 251.431C333.265 250.147 332.737 248.596 331.457 247.963L327.651 246.085C326.37 245.453 324.818 245.977 324.184 247.261Z" fill="url(#paint4_linear_1006_189)"/>
<path d="M286.983 294.165L327.808 210.899L344.736 216.896L304.216 298.204C302.884 300.874 299.555 301.833 297.009 300.28L286.983 294.165Z" fill="url(#paint5_linear_1006_189)"/>
<path d="M327.81 210.9L288.88 290.321L322.597 211.456L327.81 210.9Z" fill="url(#paint6_linear_1006_189)"/>
<path d="M327.185 252.14L328.273 249.935L312.479 242.138L311.39 244.344L327.185 252.14Z" fill="url(#paint7_linear_1006_189)"/>
<path d="M244.046 295.012H240.969V376.967H244.046V295.012Z" fill="url(#paint8_linear_1006_189)"/>
<path d="M185.044 253.701H89.8828V376.838H185.044V253.701Z" fill="url(#paint9_linear_1006_189)"/>
<path d="M104.978 253.701H101.533V376.838H104.978V253.701Z" fill="#B7D972"/>
<path d="M115.15 253.701H111.705V376.838H115.15V253.701Z" fill="#B7D972"/>
<path d="M125.322 253.701H121.877V376.838H125.322V253.701Z" fill="#B7D972"/>
<path d="M135.492 253.701H132.047V376.838H135.492V253.701Z" fill="#B7D972"/>
<path d="M145.664 253.701H142.219V376.838H145.664V253.701Z" fill="#B7D972"/>
<path d="M155.838 253.701H152.393V376.838H155.838V253.701Z" fill="#B7D972"/>
<path d="M166.012 253.701H162.566V376.838H166.012V253.701Z" fill="#B7D972"/>
<path d="M176.183 253.701H172.738V376.838H176.183V253.701Z" fill="#B7D972"/>
<path d="M185.039 253.695H89.8867V258.771H185.039V253.695Z" fill="#EDFDFC"/>
<path d="M18.2334 203.941C20.7663 207.48 48.6144 213.553 48.6144 213.553L50.3017 213.446C50.3017 213.446 34.4107 186.775 32.7492 186.305C28.2602 185.027 16.1553 201.034 18.2334 203.941ZM48.9698 213.153C40.0935 211.005 25.222 203.673 22.0436 202.072C23.3184 198.773 28.554 192.296 31.4156 190.454C33.5459 193.38 44.2524 205.408 48.9698 213.153Z" fill="url(#paint10_linear_1006_189)"/>
<path d="M38.8862 239.956C37.3789 249.865 38.3715 251.942 40.6462 253.595C42.9208 255.248 58.4247 258.105 60.429 252.767C62.4332 247.428 51.8165 217.127 51.8165 217.127L49.7381 217.28C49.7409 217.279 40.3974 230.048 38.8862 239.956ZM56.8346 248.299C55.9147 250.767 46.945 249.746 44.5688 248.501C44.0684 248.135 47.6226 222.889 50.6314 218.224C54.4182 229.689 57.5222 246.079 56.8346 248.299Z" fill="url(#paint11_linear_1006_189)"/>
<path d="M57.2344 214.386L56.4894 212.747C55.7507 211.125 53.8379 210.405 52.2165 211.143L47.4008 213.334C45.7793 214.072 45.0605 215.986 45.7992 217.608L46.5442 219.247C47.2829 220.87 49.1957 221.589 50.8172 220.851L55.6329 218.66C57.2543 217.922 57.9703 216.01 57.2344 214.386Z" fill="url(#paint12_linear_1006_189)"/>
<path d="M30.6527 158.063L68.9707 261.447L89.5745 253.81L51.2565 150.427L30.6527 158.063Z" fill="#B7D972"/>
<path d="M346.5 379.152C346.5 377.943 346.161 376.967 345.741 376.967H21.7912C21.2831 376.967 20.8711 377.947 20.8711 379.152C20.8711 380.361 21.2831 381.337 21.7912 381.337H345.74C346.161 381.337 346.5 380.361 346.5 379.152Z" fill="url(#paint13_linear_1006_189)"/>
<path d="M176.866 210.7C176.866 210.7 169.149 214.209 164.856 221.822C160.566 229.436 159.684 239.98 159.684 239.98L172.882 240.114C172.884 240.111 164.818 230.102 176.866 210.7Z" fill="url(#paint14_linear_1006_189)"/>
<path d="M180.744 215.926L177.942 209.299L170.894 207.851C170.091 207.688 169.826 206.672 170.446 206.136L175.883 201.423L175.083 194.271C174.993 193.457 175.875 192.892 176.577 193.315L182.74 197.029L189.294 194.058C190.04 193.719 190.851 194.383 190.665 195.183L189.037 202.193L193.887 207.507C194.439 208.114 194.059 209.088 193.243 209.159L186.075 209.777L182.519 216.033C182.109 216.74 181.063 216.68 180.744 215.926Z" fill="url(#paint15_linear_1006_189)"/>
<path d="M234.847 263.883C234.847 263.883 239.428 265.923 241.977 270.348C244.523 274.773 245.047 280.902 245.047 280.902L237.212 280.98C237.211 280.978 241.999 275.161 234.847 263.883Z" fill="url(#paint16_linear_1006_189)"/>
<path d="M232.545 266.921L234.208 263.069L238.392 262.227C238.869 262.132 239.026 261.542 238.658 261.231L235.431 258.491L235.906 254.334C235.959 253.861 235.435 253.532 235.019 253.778L231.36 255.937L227.47 254.21C227.027 254.013 226.546 254.399 226.656 254.864L227.622 258.939L224.743 262.027C224.416 262.38 224.641 262.946 225.126 262.988L229.381 263.346L231.492 266.983C231.735 267.394 232.356 267.359 232.545 266.921Z" fill="url(#paint17_linear_1006_189)"/>
<path d="M165.943 141.622L168.335 137.579L166.362 133.315C166.138 132.829 166.567 132.296 167.09 132.413L171.673 133.44L175.118 130.248C175.511 129.884 176.15 130.128 176.199 130.661L176.639 135.338L180.741 137.626C181.209 137.886 181.173 138.57 180.682 138.783L176.371 140.647L175.461 145.256C175.357 145.782 174.697 145.958 174.343 145.558L171.239 142.033L166.575 142.592C166.045 142.657 165.67 142.082 165.943 141.622Z" fill="#72D3B3"/>
<path d="M216.232 160.246L210.91 163.798L213.887 168.965L208.798 172.697L211.034 177.985L207.684 181.399L209.411 183.094L213.893 178.528L211.776 173.517L217.067 169.638L214.141 164.555L218.965 161.338L216.232 160.246Z" fill="url(#paint18_linear_1006_189)"/>
<path d="M251.879 187.12L245.71 185.422L243.752 191.054L237.604 189.647L235.065 194.797L230.291 194.499L230.141 196.914L236.526 197.315L238.929 192.434L245.326 193.898L247.253 188.359L252.844 189.898L251.879 187.12Z" fill="url(#paint19_linear_1006_189)"/>
<path d="M92.0434 99.2971L85.8389 89.3221L76.1821 94.4767L69.6382 84.9207L59.7959 88.707L53.7292 82.354L50.5156 85.4244L58.6292 93.9198L67.9519 90.3297L74.7609 100.273L84.2586 95.2032L89.8798 104.245L92.0434 99.2971Z" fill="url(#paint20_linear_1006_189)"/>
<path d="M276.753 208.758L286.274 202.328L280.881 193.079L289.98 186.332L285.917 176.852L291.903 170.689L288.784 167.661L280.78 175.903L284.631 184.883L275.164 191.903L280.468 200.999L271.838 206.826L276.753 208.758Z" fill="#72D3B3"/>
<path d="M266.193 265.832L271.972 263.527L272.33 257.197L278.993 255.072L277.293 248.208L284.719 245.476L283.933 238.964L290.648 235.166L292.085 237.708L287.066 240.547L287.895 247.418L280.755 250.046L282.483 257.025L275.133 259.367L274.782 265.55L269.428 267.686L270.047 271.797L267.16 272.231L266.193 265.832Z" fill="#B7D972"/>
<path d="M128.002 232.31L122.278 232.894L120.326 223.79L111.856 223.607L109.282 217.03L105.953 218.334L109.397 227.127L117.423 227.302L119.456 236.773L128.066 235.899L128.002 232.31Z" fill="#50BFA5"/>
<path d="M205.431 274.396L201.224 270.47L206.794 263.008L201.358 256.512L204.615 250.245L201.442 248.597L197.088 256.977L202.239 263.135L196.447 270.899L202.771 276.806L205.431 274.396Z" fill="#50BFA5"/>
<path d="M107.715 128.595C111.589 132.311 111.716 138.462 108.001 142.333C104.286 146.207 98.1346 146.334 94.2634 142.619C90.3923 138.904 90.2623 132.752 93.9774 128.881C97.6926 125.01 103.844 124.88 107.715 128.595Z" fill="#B7D972"/>
<path d="M107.505 136.717L103.371 137.988L102.074 142.114C101.97 142.447 101.528 142.517 101.328 142.231L98.8421 138.693L94.516 138.735C94.1676 138.737 93.9648 138.339 94.1754 138.059L96.7726 134.601L95.3973 130.501C95.2855 130.171 95.6027 129.854 95.9329 129.968L100.025 131.369L103.501 128.793C103.782 128.585 104.18 128.788 104.174 129.139L104.107 133.465L107.63 135.974C107.91 136.174 107.837 136.616 107.505 136.717Z" fill="url(#paint21_linear_1006_189)"/>
<path d="M295.974 64.1513C299.847 67.8664 299.975 74.0176 296.26 77.8887C292.545 81.7625 286.393 81.8899 282.522 78.1747C278.648 74.4596 278.521 68.3084 282.236 64.4372C285.949 60.5661 292.1 60.4387 295.974 64.1513Z" fill="#EDFDFC"/>
<path d="M295.763 72.2757L291.629 73.547L290.331 77.673C290.227 78.0057 289.786 78.0759 289.585 77.79L287.1 74.2516L282.774 74.2932C282.425 74.2958 282.223 73.898 282.433 73.6172L285.03 70.1595L283.655 66.0595C283.543 65.7294 283.861 65.4122 284.191 65.5266L288.283 66.9279L291.759 64.3514C292.04 64.1435 292.437 64.3462 292.432 64.6972L292.362 69.0233L295.885 71.5322C296.168 71.7324 296.095 72.1743 295.763 72.2757Z" fill="#72D3B3"/>
<path d="M161.659 93.9886L163.937 97.7714C164.184 98.1821 164.792 98.1301 164.969 97.6856L166.586 93.5778L170.888 92.5821C171.354 92.4729 171.494 91.8776 171.125 91.5734L167.717 88.7656L168.099 84.3667C168.14 83.8909 167.618 83.5737 167.215 83.8311L163.492 86.2047L159.426 84.4836C158.986 84.2965 158.521 84.6968 158.643 85.1596L159.751 89.4337L156.857 92.7693C156.543 93.1307 156.782 93.6948 157.258 93.7234L161.659 93.9886Z" fill="#72D3B3"/>
<path d="M133.046 194.975C133.046 195.971 132.164 196.779 131.077 196.779C129.991 196.779 129.109 195.971 129.109 194.975C129.109 193.979 129.991 193.171 131.077 193.171C132.164 193.171 133.046 193.979 133.046 194.975Z" fill="#B7D972"/>
<path d="M212.065 236.128C212.065 237.215 211.11 238.096 209.933 238.096C208.755 238.096 207.801 237.215 207.801 236.128C207.801 235.041 208.755 234.16 209.933 234.16C211.11 234.16 212.065 235.041 212.065 236.128Z" fill="#B7D972"/>
<path d="M139.635 120.138L137.166 117.754C135.874 118.121 134.451 118.326 133.165 118.378C132.096 118.422 130.843 117.822 130.289 117.008L130.222 116.909C129.608 116.01 130.076 115.204 131.259 115.167C132.47 115.131 133.726 114.965 134.847 114.585C136.49 114.034 137.028 113.103 135.941 112.094C134.904 111.135 133.328 110.841 130.544 110.93C126.577 111.067 123.223 110.524 120.592 108.078C118.174 105.857 117.901 103.499 120.173 101.913L117.443 99.506L120.072 98.5388L122.63 100.772C123.673 100.457 124.637 100.289 125.521 100.213C126.608 100.122 128.03 100.741 128.701 101.596C129.39 102.478 129.007 103.273 127.863 103.343C127.011 103.398 126.046 103.541 125.069 103.887C123.285 104.524 123.496 105.439 124.278 106.146C125.196 106.98 126.748 107.168 130.016 107.147C134.584 107.053 137.522 107.981 140.041 110.256C142.503 112.505 142.698 115.024 139.836 116.634L142.521 119.197L139.635 120.138Z" fill="url(#paint22_linear_1006_189)"/>
<path d="M121.696 165.584C135.389 168.134 145.222 177.02 143.656 185.433C142.874 189.64 139.388 192.931 134.388 194.852L137.635 208.291L127.735 196.472C124.121 196.922 120.131 196.815 116.023 196.051C102.33 193.501 92.4971 184.614 94.0622 176.201C95.6298 167.786 108 163.033 121.696 165.584Z" fill="#B7D972"/>
<path d="M127.968 184.071C125.867 188.447 120.615 190.293 116.24 188.189C111.864 186.086 110.021 180.834 112.122 176.459C114.223 172.083 119.474 170.237 123.85 172.341C128.225 174.441 130.068 179.693 127.968 184.071Z" fill="url(#paint23_linear_1006_189)"/>
<path d="M115.206 179.485C114.083 181.825 115.068 184.633 117.408 185.756C119.748 186.879 122.556 185.894 123.679 183.554L115.206 179.485Z" fill="#EFEFEF"/>
<path d="M261.728 89.3653C243.768 88.211 224.849 105.653 224.176 116.159C223.838 121.411 227.173 126.4 232.838 130.219L222.613 153.339L240.666 134.184C245.055 135.827 250.088 136.921 255.475 137.267C273.435 138.421 288.542 130.84 289.218 120.337C289.894 109.834 279.687 90.5196 261.728 89.3653Z" fill="#B7D972"/>
<path d="M257.266 109.025C256.104 113.874 252.43 115.67 249.079 114.867C245.549 114.022 243.401 110.718 244.444 106.368C245.434 102.232 248.718 99.7021 252.675 100.651C256.671 101.605 258.215 105.068 257.266 109.025ZM248.507 107.19C247.927 109.615 248.328 111.557 249.896 111.934C251.429 112.301 252.553 110.913 253.177 108.31C253.741 105.957 253.535 103.984 251.858 103.584C250.257 103.196 249.064 104.871 248.507 107.19ZM248.533 123.004L265.56 104.429C265.882 104.078 266.371 103.927 266.833 104.039C267.808 104.273 268.172 105.466 267.494 106.204L250.447 124.759C250.127 125.105 249.646 125.253 249.188 125.144C248.224 124.915 247.865 123.735 248.533 123.004ZM271.646 122.648C270.484 127.497 266.81 129.293 263.459 128.49C259.965 127.653 257.817 124.349 258.823 119.991C259.814 115.855 263.097 113.325 267.054 114.274C271.048 115.231 272.595 118.691 271.646 122.648ZM262.923 120.823C262.307 123.238 262.708 125.183 264.278 125.557C265.812 125.924 266.935 124.536 267.559 121.933C268.123 119.58 267.951 117.618 266.277 117.215C264.634 116.822 263.477 118.504 262.923 120.823Z" fill="url(#paint24_linear_1006_189)"/>
<path d="M242.183 161.416L245.706 162.112C245.706 162.112 250.856 159.706 251.249 158.545C251.641 157.387 251.46 154.713 252.216 154.545C252.97 154.378 254.478 154.444 255.055 156.215C255.474 157.503 254.015 161.552 254.368 161.922C254.587 162.153 256.6 162.609 258.079 162.921C259.049 163.126 259.823 163.862 260.089 164.833V164.836C260.268 165.491 259.971 166.19 259.376 166.508L258.449 167.005L258.885 167.972C259.208 168.691 258.899 169.546 258.192 169.887L257.47 170.234L257.787 170.817C258.195 171.568 257.871 172.515 257.088 172.853L256.453 173.127L256.502 173.301C256.707 174.02 256.335 174.779 255.647 175.054L255.015 175.305L245.631 173.451C244.753 173.278 243.919 172.922 243.182 172.408L239.991 171.201C239.647 171.071 239.451 170.704 239.529 170.34L241.311 162.002C241.4 161.598 241.787 161.338 242.183 161.416Z" fill="#EDFDFC"/>
<path d="M132.481 80.7376C130.719 81.3069 129.154 80.098 128.574 78.3041C127.498 74.9737 130.623 73.1383 132.731 74.4226C134.998 75.8083 135.242 79.8458 132.481 80.7376ZM130.03 69.3165C130.165 69.9405 129.876 70.3668 129.161 70.5982C128.371 70.853 127.976 70.9362 127.591 70.2317C125.199 65.8717 123.798 63.0509 123.382 61.764C119.503 49.472 118.853 48.3983 119.311 48.2501C119.994 48.0291 121.107 47.9277 121.817 47.6963C122.527 47.4675 123.512 46.893 124.196 46.672C124.565 46.5524 124.742 47.4286 125.607 49.9998C128.766 59.367 129.172 64.3222 130.03 69.3165Z" fill="url(#paint25_linear_1006_189)"/>
<path d="M221.373 62.4718C221.373 62.4718 224.485 60.8417 228.168 62.6486C231.452 64.2579 232.437 67.9783 230.948 71.0201C229.221 74.5402 224.095 77.1894 214.309 76.8827C208.072 69.3354 207.027 63.6599 208.753 60.1398C210.243 57.098 213.786 55.5979 217.072 57.2098C220.756 59.0166 221.373 62.4718 221.373 62.4718Z" fill="url(#paint26_linear_1006_189)"/>
<path d="M193.536 50.5492C196.474 52.6317 198.939 54.1578 201.434 55.5409C202.256 55.9959 203.548 57.0306 204.51 56.6432C205.009 56.4404 205.303 56.0193 205.181 55.4629C204.955 54.4438 203.566 54.0252 202.737 53.565C200.21 52.1611 197.418 50.4556 194.698 48.5656C194.189 48.212 193.422 48.472 193.125 48.9789C192.787 49.5535 193.029 50.1878 193.536 50.5492Z" fill="url(#paint27_linear_1006_189)"/>
<path d="M232.097 80.4676C233.295 81.1591 234.504 81.8273 235.711 82.5006C236.865 83.1454 238.118 84.1073 239.434 84.3231C240.403 84.4817 241.074 83.4522 240.395 82.6722C239.517 81.6661 238.058 81.1175 236.896 80.4754C235.685 79.8072 234.478 79.1339 233.259 78.4839C231.954 77.7872 230.81 79.724 232.097 80.4676Z" fill="url(#paint28_linear_1006_189)"/>
<path d="M195.855 72.5695C198.791 70.8745 201.071 71.1214 203.026 70.9343C204.071 70.8329 204.276 69.4861 203.273 69.117C200.522 68.103 197.109 69.169 194.701 70.5937C193.432 71.3424 194.574 73.3079 195.855 72.5695Z" fill="url(#paint29_linear_1006_189)"/>
<path d="M206.202 86.7151C206.852 85.4412 207.723 84.331 208.833 83.4237C209.511 82.8699 212.059 81.6896 210.85 80.5249C209.711 79.4278 207.767 81.219 206.93 81.9678C205.809 82.9713 204.881 84.2036 204.21 85.5504C203.547 86.8737 205.523 88.0436 206.202 86.7151Z" fill="url(#paint30_linear_1006_189)"/>
<path d="M220.681 84.8485C221.079 85.7117 221.477 86.5722 221.874 87.4354C222.272 88.2959 222.517 89.3618 223.499 89.6764C224.053 89.8532 224.526 89.4632 224.721 88.9823C225.075 88.1087 224.274 87.0298 223.907 86.2472C223.505 85.3893 223.102 84.5288 222.699 83.6682C222.431 83.0963 221.609 82.9507 221.1 83.2496C220.512 83.5954 220.416 84.274 220.681 84.8485Z" fill="url(#paint31_linear_1006_189)"/>
<path d="M217.218 50.432C218.109 42.8353 218.177 42.8327 217.943 42.0371C217.704 41.2208 216.537 41.031 216.102 41.7979C215.673 42.5545 215.759 42.4375 214.849 50.4346C214.776 51.0715 215.445 51.6175 216.032 51.6175C216.737 51.6175 217.145 51.0715 217.218 50.432Z" fill="url(#paint32_linear_1006_189)"/>
<path d="M228.259 56.5284C229.234 55.7303 230.113 54.8359 230.895 53.848C231.623 52.9302 232.861 51.6199 232.317 50.3928C232.2 50.1302 231.821 49.9222 231.54 49.9456C230.357 50.047 229.767 51.5211 229.091 52.3635C228.355 53.2838 227.521 54.1262 226.639 54.9087C226.177 55.3195 226.221 56.1098 226.639 56.5284C227.112 57.0016 227.778 56.9236 228.259 56.5284Z" fill="url(#paint33_linear_1006_189)"/>
<path d="M243.223 66.2416C243.665 65.8724 243.538 65.2172 243.223 64.8325C242.576 64.0369 241.034 64.2319 240.106 64.2527C239.024 64.2761 237.953 64.4087 236.89 64.6063C236.276 64.7207 235.928 65.4616 236.084 66.0258C236.266 66.6862 236.885 66.9253 237.503 66.8317C241.546 66.2286 242.131 67.1515 243.223 66.2416Z" fill="url(#paint34_linear_1006_189)"/>
<path d="M103.044 54.5151C103.044 55.5394 102.077 56.3687 100.884 56.3687C99.6904 56.3687 98.7207 55.5394 98.7207 54.5151C98.7207 53.4907 99.6878 52.6614 100.884 52.6614C102.074 52.6614 103.044 53.4907 103.044 54.5151Z" fill="url(#paint35_linear_1006_189)"/>
<path d="M156.714 47.7692C156.714 49.1341 155.331 50.239 153.626 50.239C151.92 50.239 150.537 49.1341 150.537 47.7692C150.537 46.4042 151.92 45.2993 153.626 45.2993C155.331 45.2993 156.714 46.4042 156.714 47.7692Z" fill="url(#paint36_linear_1006_189)"/>
<defs>
<linearGradient id="paint0_linear_1006_189" x1="165.503" y1="334.95" x2="287.969" y2="334.95" gradientUnits="userSpaceOnUse">
<stop stop-color="#00503E"/>
<stop offset="1" stop-color="#023222"/>
</linearGradient>
<linearGradient id="paint1_linear_1006_189" x1="300.95" y1="294.46" x2="237.588" y2="338.634" gradientUnits="userSpaceOnUse">
<stop stop-color="#53CD9F"/>
<stop offset="1" stop-color="#0D7A5C"/>
</linearGradient>
<linearGradient id="paint2_linear_1006_189" x1="334.61" y1="284.898" x2="304.091" y2="229.444" gradientUnits="userSpaceOnUse">
<stop stop-color="#FB9A2B"/>
<stop offset="1" stop-color="#E65925"/>
</linearGradient>
<linearGradient id="paint3_linear_1006_189" x1="358.619" y1="271.685" x2="328.1" y2="216.231" gradientUnits="userSpaceOnUse">
<stop stop-color="#FB9A2B"/>
<stop offset="1" stop-color="#E65925"/>
</linearGradient>
<linearGradient id="paint4_linear_1006_189" x1="344.335" y1="279.547" x2="313.816" y2="224.092" gradientUnits="userSpaceOnUse">
<stop stop-color="#FB9A2B"/>
<stop offset="1" stop-color="#E65925"/>
</linearGradient>
<linearGradient id="paint5_linear_1006_189" x1="324.11" y1="314.15" x2="306.792" y2="191.528" gradientUnits="userSpaceOnUse">
<stop stop-color="#53CD9F"/>
<stop offset="1" stop-color="#0D7A5C"/>
</linearGradient>
<linearGradient id="paint6_linear_1006_189" x1="325.934" y1="209.974" x2="286.785" y2="289.287" gradientUnits="userSpaceOnUse">
<stop stop-color="#00503E"/>
<stop offset="1" stop-color="#023222"/>
</linearGradient>
<linearGradient id="paint7_linear_1006_189" x1="339.199" y1="282.374" x2="308.68" y2="226.919" gradientUnits="userSpaceOnUse">
<stop stop-color="#FB9A2B"/>
<stop offset="1" stop-color="#E65925"/>
</linearGradient>
<linearGradient id="paint8_linear_1006_189" x1="282.731" y1="264.7" x2="235.472" y2="319.423" gradientUnits="userSpaceOnUse">
<stop stop-color="#FB9A2B"/>
<stop offset="1" stop-color="#E65925"/>
</linearGradient>
<linearGradient id="paint9_linear_1006_189" x1="197.831" y1="253.595" x2="106.596" y2="346.9" gradientUnits="userSpaceOnUse">
<stop stop-color="#C9CD55"/>
<stop offset="0.5065" stop-color="#659C52"/>
<stop offset="1" stop-color="#287F50"/>
</linearGradient>
<linearGradient id="paint10_linear_1006_189" x1="18.949" y1="196.574" x2="52.1094" y2="201.657" gradientUnits="userSpaceOnUse">
<stop stop-color="#FB9A2B"/>
<stop offset="1" stop-color="#E65925"/>
</linearGradient>
<linearGradient id="paint11_linear_1006_189" x1="39.6815" y1="234.769" x2="62.7114" y2="238.3" gradientUnits="userSpaceOnUse">
<stop stop-color="#FB9A2B"/>
<stop offset="1" stop-color="#E65925"/>
</linearGradient>
<linearGradient id="paint12_linear_1006_189" x1="61.453" y1="204.984" x2="34.54" y2="234.773" gradientUnits="userSpaceOnUse">
<stop stop-color="#FB9A2B"/>
<stop offset="1" stop-color="#E65925"/>
</linearGradient>
<linearGradient id="paint13_linear_1006_189" x1="20.8711" y1="379.152" x2="346.5" y2="379.152" gradientUnits="userSpaceOnUse">
<stop stop-color="#53CD9F"/>
<stop offset="1" stop-color="#0D7A5C"/>
</linearGradient>
<linearGradient id="paint14_linear_1006_189" x1="211.16" y1="184.541" x2="147.541" y2="253.671" gradientUnits="userSpaceOnUse">
<stop stop-color="#53CD9F"/>
<stop offset="1" stop-color="#0D7A5C"/>
</linearGradient>
<linearGradient id="paint15_linear_1006_189" x1="205.069" y1="178.934" x2="141.449" y2="248.064" gradientUnits="userSpaceOnUse">
<stop stop-color="#53CD9F"/>
<stop offset="1" stop-color="#0D7A5C"/>
</linearGradient>
<linearGradient id="paint16_linear_1006_189" x1="214.49" y1="248.678" x2="251.396" y2="289.634" gradientUnits="userSpaceOnUse">
<stop stop-color="#53CD9F"/>
<stop offset="1" stop-color="#0D7A5C"/>
</linearGradient>
<linearGradient id="paint17_linear_1006_189" x1="218.106" y1="245.42" x2="255.012" y2="286.375" gradientUnits="userSpaceOnUse">
<stop stop-color="#53CD9F"/>
<stop offset="1" stop-color="#0D7A5C"/>
</linearGradient>
<linearGradient id="paint18_linear_1006_189" x1="344.64" y1="31.4636" x2="168.616" y2="217.422" gradientUnits="userSpaceOnUse">
<stop stop-color="#FB9A2B"/>
<stop offset="1" stop-color="#E65925"/>
</linearGradient>
<linearGradient id="paint19_linear_1006_189" x1="370.524" y1="55.9651" x2="194.5" y2="241.923" gradientUnits="userSpaceOnUse">
<stop stop-color="#FB9A2B"/>
<stop offset="1" stop-color="#E65925"/>
</linearGradient>
<linearGradient id="paint20_linear_1006_189" x1="287.718" y1="-134.959" x2="-35.4882" y2="206.486" gradientUnits="userSpaceOnUse">
<stop stop-color="#FB9A2B"/>
<stop offset="1" stop-color="#E65925"/>
</linearGradient>
<linearGradient id="paint21_linear_1006_189" x1="146.449" y1="75.7636" x2="79.5624" y2="161.608" gradientUnits="userSpaceOnUse">
<stop stop-color="#C7A44F"/>
<stop offset="1" stop-color="#609A3F"/>
</linearGradient>
<linearGradient id="paint22_linear_1006_189" x1="117.448" y1="109.337" x2="142.529" y2="109.337" gradientUnits="userSpaceOnUse">
<stop stop-color="#53CD9F"/>
<stop offset="1" stop-color="#0D7A5C"/>
</linearGradient>
<linearGradient id="paint23_linear_1006_189" x1="144.015" y1="154.217" x2="83.4475" y2="220.031" gradientUnits="userSpaceOnUse">
<stop stop-color="#53CD9F"/>
<stop offset="1" stop-color="#0D7A5C"/>
</linearGradient>
<linearGradient id="paint24_linear_1006_189" x1="244.182" y1="114.562" x2="271.916" y2="114.562" gradientUnits="userSpaceOnUse">
<stop stop-color="#FB9A2B"/>
<stop offset="1" stop-color="#E65925"/>
</linearGradient>
<linearGradient id="paint25_linear_1006_189" x1="119.183" y1="63.7715" x2="134.492" y2="63.7715" gradientUnits="userSpaceOnUse">
<stop stop-color="#FB9A2B"/>
<stop offset="1" stop-color="#E65925"/>
</linearGradient>
<linearGradient id="paint26_linear_1006_189" x1="208.008" y1="66.7308" x2="231.625" y2="66.7308" gradientUnits="userSpaceOnUse">
<stop stop-color="#FB9A2B"/>
<stop offset="1" stop-color="#E65925"/>
</linearGradient>
<linearGradient id="paint27_linear_1006_189" x1="192.968" y1="52.564" x2="205.209" y2="52.564" gradientUnits="userSpaceOnUse">
<stop stop-color="#FB9A2B"/>
<stop offset="1" stop-color="#E65925"/>
</linearGradient>
<linearGradient id="paint28_linear_1006_189" x1="231.532" y1="81.3366" x2="240.67" y2="81.3366" gradientUnits="userSpaceOnUse">
<stop stop-color="#FB9A2B"/>
<stop offset="1" stop-color="#E65925"/>
</linearGradient>
<linearGradient id="paint29_linear_1006_189" x1="194.147" y1="70.7228" x2="203.925" y2="70.7228" gradientUnits="userSpaceOnUse">
<stop stop-color="#FB9A2B"/>
<stop offset="1" stop-color="#E65925"/>
</linearGradient>
<linearGradient id="paint30_linear_1006_189" x1="204.075" y1="83.7401" x2="211.169" y2="83.7401" gradientUnits="userSpaceOnUse">
<stop stop-color="#FB9A2B"/>
<stop offset="1" stop-color="#E65925"/>
</linearGradient>
<linearGradient id="paint31_linear_1006_189" x1="220.541" y1="86.4097" x2="224.81" y2="86.4097" gradientUnits="userSpaceOnUse">
<stop stop-color="#FB9A2B"/>
<stop offset="1" stop-color="#E65925"/>
</linearGradient>
<linearGradient id="paint32_linear_1006_189" x1="214.847" y1="46.4644" x2="218.059" y2="46.4644" gradientUnits="userSpaceOnUse">
<stop stop-color="#FB9A2B"/>
<stop offset="1" stop-color="#E65925"/>
</linearGradient>
<linearGradient id="paint33_linear_1006_189" x1="226.309" y1="53.4005" x2="232.452" y2="53.4005" gradientUnits="userSpaceOnUse">
<stop stop-color="#FB9A2B"/>
<stop offset="1" stop-color="#E65925"/>
</linearGradient>
<linearGradient id="paint34_linear_1006_189" x1="236.047" y1="65.5328" x2="243.51" y2="65.5328" gradientUnits="userSpaceOnUse">
<stop stop-color="#FB9A2B"/>
<stop offset="1" stop-color="#E65925"/>
</linearGradient>
<linearGradient id="paint35_linear_1006_189" x1="98.7192" y1="54.5149" x2="103.043" y2="54.5149" gradientUnits="userSpaceOnUse">
<stop stop-color="#53CD9F"/>
<stop offset="1" stop-color="#0D7A5C"/>
</linearGradient>
<linearGradient id="paint36_linear_1006_189" x1="150.538" y1="47.77" x2="156.714" y2="47.77" gradientUnits="userSpaceOnUse">
<stop stop-color="#53CD9F"/>
<stop offset="1" stop-color="#0D7A5C"/>
</linearGradient>
</defs>
</svg>
