<svg xmlns="http://www.w3.org/2000/svg" width="33.344" height="33.098" viewBox="0 0 33.344 33.098">
  <g id="XMLID_1_" transform="translate(0.1 -0.077)">
    <path id="Path_4020" data-name="Path 4020" d="M14.191,9.09l12.167,2.417A2.04,2.04,0,0,1,28,13.523V27.61a2.069,2.069,0,0,1-2.072,2.072H13.5a.684.684,0,0,0,.691-.691V28.3H25.929a.693.693,0,0,0,.691-.691V13.523a.694.694,0,0,0-.539-.677L14.191,10.5Z" transform="translate(5.144 3.395)" fill="#007cff" stroke="#007cff" stroke-width="0.2"/>
    <path id="Path_4021" data-name="Path 4021" d="M20.453,14a.691.691,0,0,1,0,1.381H17.691a.691.691,0,0,1,0-1.381Z" transform="translate(6.477 5.266)" fill="#007cff" stroke="#007cff" stroke-width="0.2"/>
    <path id="Path_4022" data-name="Path 4022" d="M20.453,17a.691.691,0,0,1,0,1.381H17.691a.691.691,0,0,1,0-1.381Z" transform="translate(6.477 6.409)" fill="#007cff" stroke="#007cff" stroke-width="0.2"/>
    <path id="Path_4023" data-name="Path 4023" d="M20.453,20a.691.691,0,0,1,0,1.381H17.691a.691.691,0,0,1,0-1.381Z" transform="translate(6.477 7.552)" fill="#007cff" stroke="#007cff" stroke-width="0.2"/>
    <path id="Path_4024" data-name="Path 4024" d="M14.381,29.025a.691.691,0,0,1-1.381,0V9.69a.734.734,0,0,1,.249-.539.726.726,0,0,1,.58-.138l.552.11v19.9Z" transform="translate(4.953 3.36)" fill="#007cff" stroke="#007cff" stroke-width="0.2"/>
    <path id="Path_4025" data-name="Path 4025" d="M14.334,23v.691a.684.684,0,0,0,.691.691H9.5a.684.684,0,0,0,.691-.691V23Z" transform="translate(3.62 8.695)" fill="#007cff" stroke="#007cff" stroke-width="0.2"/>
    <path id="Path_4026" data-name="Path 4026" d="M11.453,5a.691.691,0,1,1,0,1.381H8.691A.691.691,0,1,1,8.691,5Z" transform="translate(3.048 1.836)" fill="#007cff" stroke="#007cff" stroke-width="0.2"/>
    <path id="Path_4027" data-name="Path 4027" d="M12.143,8.691a.684.684,0,0,1-.691.691H8.691A.691.691,0,1,1,8.691,8h2.762A.684.684,0,0,1,12.143,8.691Z" transform="translate(3.048 2.979)" fill="#007cff" stroke="#007cff" stroke-width="0.2"/>
    <path id="Path_4028" data-name="Path 4028" d="M11.453,11a.691.691,0,1,1,0,1.381H8.691a.691.691,0,1,1,0-1.381Z" transform="translate(3.048 4.122)" fill="#007cff" stroke="#007cff" stroke-width="0.2"/>
    <path id="Path_4029" data-name="Path 4029" d="M11.453,14a.691.691,0,1,1,0,1.381H8.691a.691.691,0,1,1,0-1.381Z" transform="translate(3.048 5.266)" fill="#007cff" stroke="#007cff" stroke-width="0.2"/>
    <path id="Path_4030" data-name="Path 4030" d="M7.143,14.691a.684.684,0,0,1-.691.691H3.691a.691.691,0,1,1,0-1.381H6.453A.684.684,0,0,1,7.143,14.691Z" transform="translate(1.143 5.266)" fill="#007cff" stroke="#007cff" stroke-width="0.2"/>
    <path id="Path_4031" data-name="Path 4031" d="M6.453,5a.691.691,0,1,1,0,1.381H3.691A.691.691,0,1,1,3.691,5Z" transform="translate(1.143 1.836)" fill="#007cff" stroke="#007cff" stroke-width="0.2"/>
    <path id="Path_4032" data-name="Path 4032" d="M6.453,8a.691.691,0,1,1,0,1.381H3.691A.691.691,0,1,1,3.691,8Z" transform="translate(1.143 2.979)" fill="#007cff" stroke="#007cff" stroke-width="0.2"/>
    <path id="Path_4033" data-name="Path 4033" d="M6.453,11a.691.691,0,1,1,0,1.381H3.691a.691.691,0,1,1,0-1.381Z" transform="translate(1.143 4.122)" fill="#007cff" stroke="#007cff" stroke-width="0.2"/>
    <path id="Path_4034" data-name="Path 4034" d="M10.905,19.072a.693.693,0,0,0-.691-.691H6.072a.684.684,0,0,0-.691.691v6.215H4V19.072A2.069,2.069,0,0,1,6.072,17h4.143a2.069,2.069,0,0,1,2.072,2.072v6.215H10.905Z" transform="translate(1.524 6.409)" fill="#007cff" stroke="#007cff" stroke-width="0.2"/>
    <path id="Path_4035" data-name="Path 4035" d="M5.381,23h6.905v.691a.684.684,0,0,1-.691.691H4.691A.684.684,0,0,1,4,23.691V23Z" transform="translate(1.524 8.695)" fill="#007cff" stroke="#007cff" stroke-width="0.2"/>
    <path id="Path_4036" data-name="Path 4036" d="M2.417.207,17.594,2.514a2.064,2.064,0,0,1,1.74,2.044v7.927l-.552-.11a.726.726,0,0,0-.58.138.734.734,0,0,0-.249.539V4.558a.7.7,0,0,0-.58-.691L2.2,1.575a.382.382,0,0,0-.124-.014.651.651,0,0,0-.442.166.66.66,0,0,0-.249.525V31a.693.693,0,0,0,.691.691H5.524v.691a.684.684,0,0,0,.691.691H2.072A2.069,2.069,0,0,1,0,31V2.251A2.034,2.034,0,0,1,.732.677,2.073,2.073,0,0,1,2.417.207Z" transform="translate(0 0)" fill="#007cff" stroke="#007cff" stroke-width="0.2"/>
  </g>
</svg>
