<svg width="50" height="70" viewBox="0 0 50 70" fill="none" xmlns="http://www.w3.org/2000/svg">
<path d="M8 70H32.5575C35.0431 70 37.3875 68.8447 38.9017 66.8735L45.8383 57.8436C48.0074 55.0199 48.0492 51.1025 45.9409 48.2332L12.8976 3.26302C11.3902 1.21158 8.99652 0 6.45083 0H0V62C0 66.4183 3.58172 70 8 70Z" fill="#FD9C30"/>
<path d="M0 70H22.5575C25.0431 70 27.3875 68.8447 28.9017 66.8735L35.8383 57.8436C38.0074 55.0199 38.0492 51.1025 35.9409 48.2332L0.599493 0.135404C0.536942 0.0502763 0.437611 0 0.331973 0C0.148629 0 0 0.148627 0 0.331971V70Z" fill="#DB4239"/>
</svg>
