<svg width="47" height="15" viewBox="0 0 47 15" fill="none" xmlns="http://www.w3.org/2000/svg">
<g opacity="0.8">
<path d="M34.2027 4.72792C32.897 4.72792 31.8428 3.66556 31.8428 2.36802C31.8428 1.06237 32.897 0.00811768 34.2027 0.00811768C35.5083 0.00811768 36.5626 1.06237 36.5626 2.36802C36.5626 3.66556 35.5083 4.72792 34.2027 4.72792Z" fill="#FC6262"/>
<path d="M23.7818 4.72792C22.4761 4.72792 21.4219 3.66555 21.4219 2.36801C21.4219 1.05425 22.4761 0 23.7818 0C25.0874 0 26.1417 1.05425 26.1417 2.3599C26.1417 3.66555 25.0874 4.72792 23.7818 4.72792Z" fill="#FC6262"/>
<path d="M13.3599 4.72792C12.0543 4.72792 11 3.66556 11 2.36802C11 1.06237 12.0543 0.00811768 13.3599 0.00811768C14.6656 0.00811768 15.7198 1.06237 15.7198 2.36802C15.7279 3.66556 14.6656 4.72792 13.3599 4.72792Z" fill="#FC6262"/>
<path d="M2.93998 4.72792C1.64244 4.72792 0.580078 3.66555 0.580078 2.3599C0.580078 1.05425 1.64244 0 2.93998 0C4.23752 0 5.29988 1.05425 5.29988 2.3599C5.30799 3.66555 4.24563 4.72792 2.93998 4.72792Z" fill="#FC6262"/>
<path d="M44.6236 14.0946C43.3179 14.0946 42.2637 13.0322 42.2637 11.7347C42.2637 10.4371 43.326 9.37476 44.6236 9.37476C45.9292 9.37476 46.9835 10.4371 46.9835 11.7347C46.9835 13.0322 45.9292 14.0946 44.6236 14.0946Z" fill="#FC6262"/>
<path d="M34.2017 14.0946C32.896 14.0946 31.8418 13.0322 31.8418 11.7347C31.8418 10.4371 32.896 9.37476 34.2017 9.37476C35.5074 9.37476 36.5616 10.4371 36.5616 11.7347C36.5616 13.0322 35.5074 14.0946 34.2017 14.0946Z" fill="#FC6262"/>
<path d="M23.7808 14.0946C22.4752 14.0946 21.4209 13.0322 21.4209 11.7347C21.4209 10.4371 22.4833 9.37476 23.7808 9.37476C25.0865 9.37476 26.1407 10.4371 26.1407 11.7347C26.1407 13.0322 25.0865 14.0946 23.7808 14.0946Z" fill="#FC6262"/>
<path d="M13.3599 14.0946C12.0543 14.0946 11 13.0322 11 11.7347C11 10.4371 12.0543 9.37476 13.3599 9.37476C14.6656 9.37476 15.7198 10.4371 15.7198 11.7347C15.7198 13.0322 14.6656 14.0946 13.3599 14.0946Z" fill="#FC6262"/>
</g>
</svg>
