<svg xmlns="http://www.w3.org/2000/svg" width="32" height="31.986" viewBox="0 0 32 31.986">
  <path id="Path_5869" data-name="Path 5869" d="M-620.349,846.817a16,16,0,0,1,15.993,16.3,16.051,16.051,0,0,1-16.38,15.677,16.044,16.044,0,0,1-15.612-16.4A16,16,0,0,1-620.349,846.817Zm7.093,15.982a7.066,7.066,0,0,0-7.027-7.093,7.065,7.065,0,0,0-7.166,7.037,7.058,7.058,0,0,0,7.09,7.156A7.061,7.061,0,0,0-613.256,862.8Zm-16.436,10.676a14.048,14.048,0,0,0,18.671,0l-3.746-3.75a8.778,8.778,0,0,1-5.57,1.966,8.78,8.78,0,0,1-5.6-1.964Zm20.024-1.322c5.12-5.706,4.292-14.226,0-18.649l-3.781,3.7a8.8,8.8,0,0,1,1.976,5.61,8.779,8.779,0,0,1-1.968,5.575Zm-1.359-20.047a14.069,14.069,0,0,0-18.661.027l3.748,3.752a8.774,8.774,0,0,1,5.573-1.966,8.765,8.765,0,0,1,5.588,1.958Zm-16.244,16.283a8.775,8.775,0,0,1-1.966-5.573,8.742,8.742,0,0,1,1.935-5.56l-3.762-3.765a14.063,14.063,0,0,0,.042,18.644Z" transform="translate(636.352 -846.816)" fill="#007cff"/>
</svg>
