<svg width="69" height="66" viewBox="0 0 69 66" fill="none" xmlns="http://www.w3.org/2000/svg">
<path d="M52.0001 15.3826C73.5001 17.3826 69.0617 52.4455 43.9354 60.6657C-1.12627 75.398 -9.27322 3.52923 23 2.38257C40.8626 1.74209 35.0001 13.8012 52.0001 15.3826Z" fill="#CFAEF9"/>
<path fill-rule="evenodd" clip-rule="evenodd" d="M20.4998 38.5193C20.4998 44.89 27.8359 48.7511 33.3701 49.9738C33.3916 49.9777 33.4241 49.9786 33.4668 49.9764C33.4242 49.9786 33.3918 49.9777 33.3703 49.9738C27.8361 48.7511 20.5 44.89 20.5 38.5192V24.4262C20.5 23.9844 20.7844 23.6374 21.1498 23.5479C20.7843 23.6373 20.4998 23.9844 20.4998 24.4263V38.5193ZM29.8133 22.25C31.1906 21.7708 32.3727 21.135 33.1129 20.3077C33.2494 20.1485 33.426 20.0456 33.6116 20.0018C33.426 20.0456 33.2492 20.1485 33.1127 20.3078C32.3725 21.135 31.1905 21.7708 29.8133 22.25ZM36.6791 21.7428C35.8234 21.3385 35.1333 20.8474 34.6934 20.2589C34.2881 19.6209 33.4216 19.6422 32.9623 20.1759C31.9127 21.3477 29.9092 22.1412 27.6876 22.6384C25.4762 23.1334 23.0941 23.3254 21.3364 23.3254C20.7659 23.3254 20.2998 23.8108 20.2998 24.4263V38.5193C20.2998 41.7901 22.1847 44.4006 24.7388 46.3365C27.2928 48.2723 30.5387 49.5531 33.327 50.1691L33.3269 50.1692L33.3343 50.1706C33.3804 50.179 33.4332 50.1786 33.4812 50.1759C33.5329 50.173 33.5939 50.1666 33.6624 50.1571C33.7996 50.1381 33.9755 50.1055 34.1833 50.0596C34.5994 49.9677 35.1512 49.8204 35.7913 49.6142C37.0712 49.2017 38.7113 48.5511 40.3305 47.6299C43.5582 45.7936 46.7621 42.8457 46.7621 38.5193V24.4263C46.7621 23.801 46.2865 23.3254 45.6612 23.3254C44.0306 23.3254 41.7291 23.1653 39.6072 22.6946C38.5464 22.4593 37.5362 22.1477 36.6791 21.7428ZM44.6247 38.5193C44.6247 41.7225 42.2617 43.9871 39.6481 45.5137C37.0986 47.0028 34.3695 47.7536 33.5632 47.9652C32.7568 47.7536 30.0277 47.0028 27.4782 45.5137C24.8646 43.9871 22.5016 41.7225 22.5016 38.5193V25.4585C28.9682 25.2995 32.3006 23.4322 33.7474 22.3661C35.1212 23.5259 36.9693 24.2771 38.9052 24.7493C40.8305 25.2189 42.8578 25.4161 44.6247 25.4587V38.5193ZM22.3018 25.2628C24.4347 25.2222 26.2278 24.9956 27.7255 24.6721C26.2278 24.9956 24.4347 25.2222 22.3018 25.2628V25.2628ZM33.7563 22.1097C36.459 24.4906 41.221 25.1985 44.8247 25.2629V38.5193C44.8247 42.6687 40.9912 45.2545 37.7609 46.7029C40.9913 45.2545 44.8249 42.6687 44.8249 38.5192V25.2628C41.2212 25.1985 36.4592 24.4906 33.7564 22.1096L33.7563 22.1097ZM29.3018 31.4178V34.1206H28.4009C27.8861 34.1206 27.5 34.5067 27.5 35.0215V42.0358C27.5 42.4828 27.791 42.8327 28.2047 42.9172C27.7909 42.8328 27.4998 42.4828 27.4998 42.0358V35.0215C27.4998 34.5066 27.8859 34.1205 28.4007 34.1205H29.3016V31.4178C29.3016 29.1011 31.1678 27.0419 33.7419 26.9775C33.768 26.9775 33.7941 26.9778 33.8201 26.9782C33.7941 26.9778 33.7681 26.9775 33.7421 26.9775C31.168 27.0419 29.3018 29.1011 29.3018 31.4178ZM36.9702 32.223C36.5836 32.1213 36.3162 31.7819 36.3162 31.3534C36.3162 29.9549 35.282 28.8437 33.9737 28.7255C35.2819 28.8438 36.316 29.955 36.316 31.3534C36.316 31.782 36.5835 32.1213 36.9702 32.223ZM31.1037 34.0562V34.0562H38.9546L38.9544 34.0562H31.1037ZM38.0536 35.858V41.1349H29.3018L38.0534 41.1349V35.858L38.0536 35.858ZM29.1016 31.4178V33.9205H28.4007C27.7755 33.9205 27.2998 34.3962 27.2998 35.0215V42.0358C27.2998 42.661 27.7755 43.1367 28.4007 43.1367H38.9544C39.5796 43.1367 40.0553 42.661 40.0553 42.0358V34.9571C40.0553 34.3318 39.5796 33.8562 38.9544 33.8562H31.3035V31.3534C31.3035 30.1029 32.3173 28.915 33.7419 28.915C35.044 28.915 36.116 29.9806 36.116 31.3534C36.116 31.9787 36.5916 32.4543 37.2169 32.4543C37.8421 32.4543 38.3178 31.9787 38.3178 31.3534C38.3178 28.8639 36.2996 26.7775 33.7419 26.7775L33.7369 26.7776C31.0534 26.8447 29.1016 28.9936 29.1016 31.4178ZM37.8534 40.9349H29.5016V36.058H37.8534V40.9349ZM33.6801 39.4018C33.6214 39.4139 33.5606 39.4202 33.4984 39.4202C33.0008 39.4202 32.5975 39.0168 32.5975 38.5193C32.5975 38.0984 32.886 37.745 33.276 37.646C32.8861 37.7451 32.5977 38.0984 32.5977 38.5192C32.5977 39.0168 33.001 39.4201 33.4986 39.4201C33.5608 39.4201 33.6215 39.4138 33.6801 39.4018ZM33.4984 39.6202C34.1064 39.6202 34.5993 39.1273 34.5993 38.5193C34.5993 37.9112 34.1064 37.4183 33.4984 37.4183C32.8904 37.4183 32.3975 37.9112 32.3975 38.5193C32.3975 39.1273 32.8904 39.6202 33.4984 39.6202Z" fill="black"/>
</svg>
