<svg xmlns="http://www.w3.org/2000/svg" width="70" height="70.001" viewBox="0 0 70 70.001">
  <g id="Group_3426" data-name="Group 3426" transform="translate(-171 -200)">
    <rect id="Rectangle_1" data-name="Rectangle 1" width="70" height="70" transform="translate(171 200)" fill="none"/>
    <g id="Group_1" data-name="Group 1" transform="translate(-659 -2822)">
      <g id="Group_3424" data-name="Group 3424" transform="translate(853.71 3071.677)">
        <path id="Path_3764" data-name="Path 3764" d="M213.262,352H177.133L176,354.258h38.387Z" transform="translate(-174.875 -352)" fill="#f6e0d8"/>
        <rect id="Rectangle_2532" data-name="Rectangle 2532" width="40.646" height="3.387" transform="translate(0 4.517)" fill="#f6e0d8"/>
      </g>
      <g id="Group_3425" data-name="Group 3425" transform="translate(830 3022)">
        <path id="Path_3765" data-name="Path 3765" d="M38.778,32C35.042,32,32,36.052,32,41.032s3.038,9.032,6.774,9.032,6.774-4.052,6.774-9.032S42.514,32,38.778,32Zm0,15.806c-2.448,0-4.516-3.1-4.516-6.774s2.068-6.774,4.516-6.774,4.516,3.1,4.516,6.774S41.226,47.806,38.778,47.806Z" transform="translate(-27.488 -27.484)" fill="#51596c"/>
        <path id="Path_3766" data-name="Path 3766" d="M65.488,56.452H65.43a18.082,18.082,0,0,0-12.362-16.02V37.258A2.26,2.26,0,0,0,50.81,35H37.262A2.26,2.26,0,0,0,35,37.258v3.174c-.382.126-.759.263-1.129.414V25.894a7.536,7.536,0,0,0,6.774-7.24V14.82a43.608,43.608,0,0,0-2-13.035,2.667,2.667,0,0,0-5.033,0l-.87,5.024L31.91,1.93l-.034-.146a2.668,2.668,0,0,0-5.034,0l-.87,5.024L25.136,1.93,25.1,1.784a2.668,2.668,0,0,0-5.034,0c-.247.788-.447,1.586-.649,2.385A10.425,10.425,0,0,0,11.294,0C5.069,0,0,6.078,0,13.548,0,18.941,2.7,23.821,6.778,25.956V58.2A6.7,6.7,0,0,0,4.52,63.226a6.774,6.774,0,0,0,13.548,0A6.7,6.7,0,0,0,15.81,58.2V25.956a11.549,11.549,0,0,0,3.682-3.129,8.017,8.017,0,0,0,5.35,3.066V48.855a17.924,17.924,0,0,0-2.2,7.6h-.058a4.516,4.516,0,0,0,0,9.032h.565L26.536,70h35l3.387-4.516h.565a4.517,4.517,0,0,0,0-9.033ZM37.262,37.258H50.81v2.588a18.01,18.01,0,0,0-3.387-.33H40.649a18.01,18.01,0,0,0-3.387.33ZM18.257,20.72a9.374,9.374,0,0,1-4.023,3.49l-.682.294V59.3l.448.339a4.475,4.475,0,0,1,1.81,3.59,4.516,4.516,0,0,1-9.032,0,4.475,4.475,0,0,1,1.81-3.59l.448-.338V24.5l-.681-.295c-3.645-1.576-6.093-5.861-6.093-10.66,0-6.225,4.052-11.29,9.032-11.29,3,0,5.782,1.857,7.471,4.967a43.488,43.488,0,0,0-.7,7.594v3.834a6.8,6.8,0,0,0,.367,2.185Zm7.715,2.99c-3.113,0-5.645-2.268-5.645-5.057V14.819a41.306,41.306,0,0,1,1.9-12.362c.056-.182.6-.218.706-.036l1.817,10.615a1.244,1.244,0,0,0,2.449,0L29.013,2.421a.532.532,0,0,1,.69,0L31.52,13.036a1.244,1.244,0,0,0,2.449,0L35.786,2.421c.108-.182.648-.146.707.037a41.293,41.293,0,0,1,1.9,12.361v3.834c0,2.789-2.532,5.057-5.645,5.057H31.617V41.96A18.17,18.17,0,0,0,27.1,45.673V23.71ZM40.649,41.774h6.774A15.815,15.815,0,0,1,63.172,56.452H24.9A15.815,15.815,0,0,1,40.649,41.774ZM65.488,63.226H59.843v2.258H62.1l-1.694,2.258H27.665l-1.694-2.258H57.585V63.226h-35a2.258,2.258,0,0,1,0-4.516h42.9a2.258,2.258,0,1,1,0,4.516Z" transform="translate(-0.004)" fill="#51596c"/>
        <path id="Path_3767" data-name="Path 3767" d="M306.262,88.033a6.355,6.355,0,0,1,2.4-4.99,8.608,8.608,0,0,0,3.246-6.754V72h-2.258v4.289a6.355,6.355,0,0,1-2.4,4.99A8.608,8.608,0,0,0,304,88.033v2.031h2.258Z" transform="translate(-261.101 -61.839)" fill="#51596c"/>
        <rect id="Rectangle_2533" data-name="Rectangle 2533" width="2.258" height="2.258" transform="translate(42.904 30.484)" fill="#51596c"/>
        <path id="Path_3768" data-name="Path 3768" d="M336,90.291v4.289h2.258V90.291a6.355,6.355,0,0,1,2.4-4.99,8.608,8.608,0,0,0,3.246-6.754V72h-2.258v6.547a6.355,6.355,0,0,1-2.4,4.99A8.608,8.608,0,0,0,336,90.291Z" transform="translate(-288.585 -61.839)" fill="#51596c"/>
      </g>
    </g>
  </g>
</svg>
