<svg xmlns="http://www.w3.org/2000/svg" width="50" height="50" viewBox="0 0 50 50">
  <g id="Group_3732" data-name="Group 3732" transform="translate(-499 -213)">
    <g id="Group_3131" data-name="Group 3131" transform="translate(499 213)">
      <circle id="Ellipse_1406" data-name="Ellipse 1406" cx="25" cy="25" r="25" fill="#e5f9f2"/>
    </g>
    <g id="Group_3143" data-name="Group 3143" transform="translate(22628.391 115.484)">
      <g id="Group_3132" data-name="Group 3132" transform="translate(-22114.391 111.516)">
        <path id="Path_3616" data-name="Path 3616" d="M-297.429,448.49a5.081,5.081,0,0,1-1.437-2.2,18.452,18.452,0,0,1-1.173-6.349,10.08,10.08,0,0,0-.479-3.038,7.515,7.515,0,0,0-2.822-3.618,7.525,7.525,0,0,0-4.26-1.321,7.419,7.419,0,0,0-3.078.667,7.6,7.6,0,0,0-3.01,2.338,7.351,7.351,0,0,0-1.378,3.582c-.076.629-.1,1.278-.127,1.906-.019.473-.038.963-.079,1.444a10.668,10.668,0,0,1-1.945,5.838,2.022,2.022,0,0,0-.327,2.377c.128.29.189.337.434.337h.006c1.858-.008,3.708-.009,5.113-.009h8.679c1.425,0,3.3,0,5.184.009h.008c.292,0,.361-.051.409-.3a7.85,7.85,0,0,1,.38-1.227A.321.321,0,0,0-297.429,448.49Z" transform="translate(317.788 -431.963)" fill="#1ac48b"/>
        <path id="Path_3617" data-name="Path 3617" d="M-250.211,634.585a5.252,5.252,0,0,1-2.454-.642l-.477.458-.8.768a5.664,5.664,0,0,0,3.788,1.193,5.176,5.176,0,0,0,3.638-1.172l-.323-.324-.922-.925A5.2,5.2,0,0,1-250.211,634.585Z" transform="translate(260.398 -613.567)" fill="#1ac48b"/>
      </g>
      <g id="Ellipse_1408" data-name="Ellipse 1408" transform="translate(-22101.771 112.063)" fill="#1ac48b" stroke="#e5f9f2" stroke-width="2">
        <circle cx="4" cy="4" r="4" stroke="none"/>
        <circle cx="4" cy="4" r="5" fill="none"/>
      </g>
    </g>
  </g>
</svg>
