<svg xmlns="http://www.w3.org/2000/svg" width="80" height="72.297" viewBox="0 0 80 72.297">
  <g id="connection_1_" data-name="connection(1)" transform="translate(0 -24.651)">
    <path id="Path_5902" data-name="Path 5902" d="M25.49,71.626,21.1,75.382c.235.1.461.2.682.315,2.533,1.24,4.106,3.052,4.106,5.129,0,1.794-1.165,3.379-3.109,4.58a17.418,17.418,0,0,1-7.056,2.206,1.17,1.17,0,0,1-.257-2.325,15.093,15.093,0,0,0,6.086-1.865c1.245-.771,1.993-1.679,1.993-2.6,0-1.112-1.067-2.188-2.79-3.034a18.45,18.45,0,0,0-7.809-1.568,18.182,18.182,0,0,0-7.809,1.568c-1.723.846-2.79,1.922-2.79,3.034,0,.917.748,1.825,1.993,2.6a15.094,15.094,0,0,0,6.086,1.865,1.17,1.17,0,0,1-.257,2.325,17.418,17.418,0,0,1-7.056-2.206C1.165,84.205,0,82.619,0,80.825c0-2.077,1.568-3.889,4.106-5.129a20.584,20.584,0,0,1,8.836-1.816,23.3,23.3,0,0,1,5.559.651l4.318-3.7c-.43-.142-.85-.292-1.253-.447-5.076-1.944-8.22-4.766-8.22-8,0-2.161,1.342-4.119,3.729-5.753a26.792,26.792,0,0,1,8.415-3.486v-.8A9.245,9.245,0,0,1,33.5,43.209a8.444,8.444,0,0,1-1.989-5.443V29.922a5.278,5.278,0,0,1,5.271-5.271h6.445a5.278,5.278,0,0,1,5.266,5.271v7.844a8.464,8.464,0,0,1-1.984,5.443,9.237,9.237,0,0,1,8,9.137v.8a27.331,27.331,0,0,1,8.407,3.517c2.379,1.634,3.738,3.579,3.738,5.723,0,3.233-3.14,6.055-8.22,8-.4.155-.819.306-1.249.447l4.318,3.7a23.277,23.277,0,0,1,5.559-.651A20.563,20.563,0,0,1,75.894,75.7C78.432,76.937,80,78.748,80,80.825c0,1.794-1.16,3.379-3.109,4.58a17.373,17.373,0,0,1-7.051,2.206,1.17,1.17,0,1,1-.257-2.325,15.07,15.07,0,0,0,6.081-1.865c1.249-.771,1.993-1.679,1.993-2.6,0-1.112-1.063-2.188-2.786-3.034a18.211,18.211,0,0,0-7.809-1.568,18.472,18.472,0,0,0-7.813,1.568c-1.723.846-2.786,1.922-2.786,3.034,0,.917.744,1.825,1.993,2.6a15.072,15.072,0,0,0,6.081,1.865,1.17,1.17,0,1,1-.257,2.325,17.372,17.372,0,0,1-7.051-2.206c-1.949-1.2-3.109-2.786-3.109-4.58,0-2.077,1.568-3.889,4.106-5.129.217-.111.447-.212.678-.315L54.51,71.626A53.171,53.171,0,0,1,47.1,72.95c-1.975.213-3.964.328-5.922.363v9.771a19.936,19.936,0,0,1,7.663,1.789c2.538,1.245,4.106,3.052,4.106,5.129s-1.568,3.884-4.106,5.129A20.586,20.586,0,0,1,40,96.948a20.564,20.564,0,0,1-8.832-1.816c-2.538-1.245-4.11-3.052-4.11-5.129s1.572-3.884,4.11-5.129a19.9,19.9,0,0,1,7.662-1.789V73.314a63.065,63.065,0,0,1-8.517-.709q-2.438-.372-4.823-.979ZM47.809,86.969A18.249,18.249,0,0,0,40,85.4a18.278,18.278,0,0,0-7.809,1.568c-1.723.846-2.786,1.922-2.786,3.034s1.063,2.188,2.786,3.034A18.279,18.279,0,0,0,40,94.6a18.249,18.249,0,0,0,7.809-1.563c1.723-.846,2.79-1.922,2.79-3.034S49.532,87.815,47.809,86.969ZM46.148,35.321a9.367,9.367,0,0,1-7.928-2.086,6.916,6.916,0,0,1-4.367,1.01v3.521a6.148,6.148,0,0,0,12.3,0V35.321Zm-12.3-3.433a4.566,4.566,0,0,0,3.734-1.072,1.17,1.17,0,0,1,1.648.12,7.028,7.028,0,0,0,6.914,2.015v-3.03a2.934,2.934,0,0,0-2.923-2.928H36.78a2.934,2.934,0,0,0-2.928,2.928v1.966ZM36.43,45.463l-1.727.009a6.9,6.9,0,0,0-6.87,6.874V69.775c1.262.266,2.591.5,3.977.682V56.882a1.171,1.171,0,1,1,2.343,0V70.718c1.874.173,3.831.261,5.847.261s3.973-.089,5.847-.261V56.882a1.171,1.171,0,1,1,2.343,0V70.457c1.386-.186,2.72-.416,3.977-.682V52.346a6.9,6.9,0,0,0-6.87-6.874h-1.75a8.427,8.427,0,0,1-7.118-.009ZM25.49,69.2V55.566a23.67,23.67,0,0,0-7.1,3c-1.728,1.187-2.7,2.489-2.7,3.822,0,2.161,2.56,4.221,6.706,5.811C23.355,68.566,24.387,68.9,25.49,69.2Zm29.02,0c1.1-.306,2.139-.638,3.092-1.005,4.146-1.59,6.71-3.65,6.71-5.811,0-1.307-.988-2.6-2.715-3.791a24.078,24.078,0,0,0-7.087-3.025Z" fill="#51596c"/>
  </g>
</svg>
