<svg xmlns="http://www.w3.org/2000/svg" width="80" height="80" viewBox="0 0 80 80">
  <g id="Group_3281" data-name="Group 3281" transform="translate(-779 -371)">
    <circle id="Ellipse_1401" data-name="Ellipse 1401" cx="40" cy="40" r="40" transform="translate(779 371)" fill="#dbe0ea"/>
    <g id="medal" transform="translate(805 390)">
      <path id="Path_3652" data-name="Path 3652" d="M24.427,22.6l4.164-2.739-1.766-4.688L28.6,10.489l-4.16-2.745L23.142,2.9l-4.964.246L14.309,0,10.436,3.143,5.472,2.89,4.17,7.73.007,10.469l1.766,4.688L0,19.841l4.16,2.745,1.3,4.841,4.965-.246,3.868,3.149,3.873-3.143,4.964.253ZM14.3,23.948A8.783,8.783,0,1,1,23,15.165,8.754,8.754,0,0,1,14.3,23.948Zm0,0" fill="#fff"/>
      <path id="Path_3653" data-name="Path 3653" d="M105.306,108.23a6.13,6.13,0,1,0,6.13,6.13A6.137,6.137,0,0,0,105.306,108.23Zm0,0" transform="translate(-91.007 -99.388)" fill="#fff"/>
      <path id="Path_3654" data-name="Path 3654" d="M28.017,363.69l-4.682,3.673-4.677-3.679-5.418.26-3.415,6.963,5.8.236,3.827,4.253,3.9-7.947,3.9,7.947,3.827-4.253,5.8-.236-3.408-6.948Zm0,0" transform="translate(-9.049 -333.99)" fill="#fff"/>
    </g>
  </g>
</svg>
