<svg xmlns="http://www.w3.org/2000/svg" width="80" height="80" viewBox="0 0 80 80">
  <g id="Group_4019" data-name="Group 4019" transform="translate(-760 -385)">
    <circle id="Ellipse_1401" data-name="Ellipse 1401" cx="40" cy="40" r="40" transform="translate(760 385)" fill="#dbe0ea"/>
    <g id="Group_4018" data-name="Group 4018" transform="translate(603.791 84.105)">
      <path id="Path_5914" data-name="Path 5914" d="M195.5,457.9a23.418,23.418,0,0,1-15-5.84,25.349,25.349,0,0,1-3.827-4.244,2.123,2.123,0,0,1-.2-2.342,10.338,10.338,0,0,1,4.84-4.735,31.476,31.476,0,0,1,12.308-3.569,29.838,29.838,0,0,1,9.4.79,27.746,27.746,0,0,1,9.3,3.789,8.867,8.867,0,0,1,3.055,3.352,2.591,2.591,0,0,1-.193,3.007,23.776,23.776,0,0,1-15.62,9.517A14.659,14.659,0,0,1,195.5,457.9Z" transform="translate(0 -94.168)" fill="#fff"/>
      <path id="Path_5915" data-name="Path 5915" d="M232.3,317.926c5.136-.344,10.179,3.905,10.05,10.279a10.027,10.027,0,0,1-9.622,9.8,10.176,10.176,0,0,1-10.622-10.21C222.1,322.557,226.795,317.444,232.3,317.926Z" transform="translate(-36.265 0)" fill="#fff"/>
    </g>
  </g>
</svg>
