<svg width="50" height="51" viewBox="0 0 50 51" fill="none" xmlns="http://www.w3.org/2000/svg">
<circle cx="24.9995" cy="25.726" r="25" fill="#DAE9F9"/>
<path d="M31.9502 13.726H18.0638C16.3747 13.726 14.9995 15.1422 14.9995 16.8972V34.5701C14.9995 35.4168 15.3134 36.2019 15.8814 36.8023C16.4494 37.4027 17.2267 37.7413 18.0488 37.7413H32.1296C33.714 37.7413 34.9995 36.402 34.9995 34.7702V16.8972C35.0145 15.1576 33.6393 13.7413 31.9502 13.726ZM28.6617 17.7439C28.6617 17.9286 28.5122 18.0826 28.3328 18.0826H21.6811C21.5914 18.1134 21.5018 18.0518 21.442 17.9902C21.3822 17.9286 21.3373 17.8363 21.3373 17.7593V15.3732H28.6617V17.7439ZM21.6662 19.7144H28.3029C28.3179 19.7144 28.3179 19.7144 28.3328 19.7144C28.8411 19.7144 29.3044 19.5143 29.6781 19.1602C30.0518 18.7907 30.2461 18.2981 30.2611 17.7593V15.3732H31.9502C32.7574 15.3732 33.4151 16.0505 33.4151 16.8818V34.7702C33.4151 35.1243 33.2955 35.4476 33.0563 35.7093C32.8172 35.9556 32.5033 36.0941 32.1445 36.1095H18.0638C17.2566 36.1095 16.5989 35.4168 16.5989 34.5855V16.8972C16.584 16.0659 17.2417 15.3732 18.0638 15.3578H19.7529V17.7439C19.7529 18.8369 20.6198 19.7144 21.6662 19.7144Z" fill="#1F2430"/>
<path d="M19.1699 25.3642C19.1699 25.8106 19.5287 26.1801 19.9621 26.1801H24.282C24.7155 26.1801 25.0743 25.8106 25.0743 25.3642C25.0743 24.9177 24.7305 24.5483 24.282 24.5483H19.9621C19.5287 24.5483 19.1699 24.9024 19.1699 25.3642Z" fill="#1F2430"/>
<path d="M19.1699 29.1358C19.1699 29.5823 19.5287 29.9517 19.9621 29.9517H30.0369C30.4704 29.9517 30.8291 29.5823 30.8291 29.1358C30.8291 28.6894 30.4704 28.3199 30.0369 28.3199H19.9621C19.5287 28.3045 19.1699 28.674 19.1699 29.1358Z" fill="#1F2430"/>
<path d="M30.0369 32.0762H19.9621C19.5287 32.0762 19.1699 32.4456 19.1699 32.8921C19.1699 33.3385 19.5287 33.708 19.9621 33.708H30.0369C30.4704 33.708 30.8291 33.3385 30.8291 32.8921C30.8291 32.4456 30.4853 32.0762 30.0369 32.0762Z" fill="#1F2430"/>
<path d="M19.1699 25.3642C19.1699 25.8106 19.5287 26.1801 19.9621 26.1801H24.282C24.7155 26.1801 25.0743 25.8106 25.0743 25.3642C25.0743 24.9177 24.7305 24.5483 24.282 24.5483H19.9621C19.5287 24.5483 19.1699 24.9177 19.1699 25.3642Z" fill="#1F2430"/>
<path d="M19.1699 29.1359C19.1699 29.5823 19.5287 29.9518 19.9621 29.9518H30.0369C30.4704 29.9518 30.8291 29.5823 30.8291 29.1359C30.8291 28.6894 30.4704 28.3199 30.0369 28.3199H19.9621C19.5287 28.3199 19.1699 28.6894 19.1699 29.1359Z" fill="#1F2430"/>
</svg>
