<svg width="85" height="85" viewBox="0 0 85 85" fill="none" xmlns="http://www.w3.org/2000/svg">
<circle cx="42.5" cy="42.5" r="42.5" fill="#F5F7FA"/>
<path d="M40.2216 36.9145L36.982 40.1085C36.693 39.7891 36.3736 39.3937 35.9934 39.059C35.1113 38.1617 34.1531 37.3252 33.134 36.5799C30.4268 34.9221 26.959 35.0742 24.4191 36.9754C20.9209 39.5762 20.1909 44.5344 22.7917 48.0478C25.3925 51.5612 30.3507 52.276 33.8641 49.6752C34.1987 49.4318 34.5181 49.1429 34.8071 48.8387C38.0923 45.5382 41.3927 42.2378 44.6932 38.9374C46.2749 37.3556 47.8263 35.7434 49.4537 34.2073C51.8568 31.865 55.142 30.6787 58.4881 30.9372C63.2942 31.0589 67.5681 34.0552 69.3019 38.5419C71.9636 44.8386 69.0282 52.0935 62.7467 54.7551C61.6668 55.2114 60.5261 55.5156 59.355 55.6525C55.6439 56.1544 51.9024 54.892 49.256 52.2456C48.4955 51.5307 47.7655 50.7855 47.0202 50.0402C46.9137 49.949 46.8377 49.8273 46.7616 49.7512L49.9556 46.5725C50.3663 46.9831 50.8073 47.4242 51.2484 47.8805C52.2218 48.9908 53.3929 49.9033 54.7161 50.5725C58.7466 52.3064 63.4159 50.4204 65.1498 46.39C65.4387 45.7208 65.6213 45.0211 65.7277 44.2911C66.2905 40.1541 63.5072 36.3214 59.4006 35.5609C56.7846 34.9829 54.0621 35.8347 52.2218 37.7815C48.1153 41.8576 44.0544 45.9793 39.9326 50.0554C38.7615 51.3026 37.4991 52.4585 36.1607 53.5232C30.518 57.4015 22.7765 55.9719 18.8981 50.3292C15.0197 44.6865 16.4494 36.9449 22.092 33.0666C27.0807 29.6444 33.8032 30.2984 38.0162 34.6331C38.7311 35.4088 39.4763 36.1693 40.2216 36.9145Z" fill="#FFA22B"/>
</svg>
