<svg width="68" height="64" viewBox="0 0 68 64" fill="none" xmlns="http://www.w3.org/2000/svg">
<path d="M42.2787 61.6149C11.3624 73.3951 -15.1534 37.423 10.9971 23.3015C21 19.2776 23 17.2776 30.5 6.27764C40.5447 -6.42927 57.8468 3.4705 64.2011 16.153C71.4109 30.6647 70.5066 50.3714 42.2787 61.6149Z" fill="#9DC6F7"/>
<path d="M27.5333 46.3708C27.2667 46.3708 27 46.2372 27 45.8362V42.7619H26.7333C26.6 42.7619 26.4667 42.7619 26.2 42.7619C24.7333 42.7619 21.9333 42.3609 19.4 39.554C17.8 37.9501 17 35.6778 17 33.1382C17 29.2619 19.1333 26.1877 21.4 24.7174C23 23.6481 25 23.1134 27 23.1134C29.5333 23.1134 31.9333 24.0491 33.5333 25.5194C36.7333 28.5936 36.8667 32.3362 36.8667 33.0045C36.8667 33.6728 37.4 38.8857 42.7333 38.8857C42.8667 38.8857 43 38.8857 43.2667 38.8857C46.6 38.752 48.0667 36.6134 48.7333 34.8758C49.2667 33.4055 49.2667 31.6679 48.6 30.1976C47.2667 27.1233 44.4667 26.7223 43.2667 26.7223H43V29.7966C43 30.1976 42.7333 30.3312 42.4667 30.3312C42.3333 30.3312 42.2 30.3312 42.0667 30.1976L37.2667 25.252C37 24.9847 37 24.5837 37.2667 24.3164L42.0667 19.5045C42.2 19.3708 42.3333 19.3708 42.4667 19.3708C42.7333 19.3708 43 19.5045 43 19.9055V22.9798H43.2667C43.4 22.9798 43.5333 22.9798 43.8 22.9798C45.2667 22.9798 48.0667 23.3808 50.6 26.1877C52.2 27.9253 53 30.0639 53 32.6035C53 36.4798 50.8667 39.554 48.6 41.0243C47 42.0936 45 42.6283 42.8667 42.6283C40.3333 42.6283 37.9333 41.6926 36.3333 40.2223C32.8667 36.8808 33 32.7372 33 32.7372C33 31.1332 31.9333 26.7223 27.2667 26.7223C27.1333 26.7223 27 26.7223 26.7333 26.7223C23.4 26.856 21.9333 28.9946 21.2667 30.7322C20.7333 32.3362 20.7333 34.0738 21.4 35.5441C22.7333 38.6184 25.5333 39.0194 26.7333 39.0194H27V35.9451C27 35.5441 27.2667 35.4105 27.5333 35.4105C27.6667 35.4105 27.8 35.4105 27.9333 35.5441L32.7333 40.4897C33 40.757 33 41.158 32.7333 41.4253L27.9333 46.2372C27.8 46.3708 27.6667 46.3708 27.5333 46.3708Z" fill="black"/>
</svg>
