<svg xmlns="http://www.w3.org/2000/svg" width="29.552" height="23.642" viewBox="0 0 29.552 23.642">
  <g id="Group_2618" data-name="Group 2618" transform="translate(0)">
    <path id="Path_3524" data-name="Path 3524" d="M-544.366,259.025a11.279,11.279,0,0,1-3.059-.271,7.551,7.551,0,0,1-5.745-8.1,7.694,7.694,0,0,1,6.889-6.638c.2-.023.241-.121.29-.273a7.53,7.53,0,0,1,5.29-5.118,7.922,7.922,0,0,1,9.86,5.093.387.387,0,0,0,.386.316,7.708,7.708,0,0,1,6.717,6.518,7.578,7.578,0,0,1-6.482,8.342,28.69,28.69,0,0,1-3.137.13c-.37.012-.741.009-1.111,0a.965.965,0,0,1-.979-.94.954.954,0,0,1,.979-.938c.967-.01,1.933,0,2.9,0a5.84,5.84,0,0,0,5.9-4.654,5.69,5.69,0,0,0-5.058-6.6c-.214-.024-.429-.044-.645-.05a1.09,1.09,0,0,1-1.22-1,5.308,5.308,0,0,0-1.729-3.082,5.861,5.861,0,0,0-5.854-1.3,5.532,5.532,0,0,0-4.04,4.317c-.184.822-.44,1.046-1.334,1.066a5.835,5.835,0,0,0-5.64,4.8,5.671,5.671,0,0,0,4.875,6.419,9.761,9.761,0,0,0,1.444.079c.812.012,1.625,0,2.438,0a.972.972,0,0,1,1.061.95.976.976,0,0,1-1.051.932C-542.978,259.028-543.534,259.025-544.366,259.025Z" transform="translate(553.218 -238.285)" fill="#51596c"/>
    <path id="Path_3525" data-name="Path 3525" d="M-402.548,369.6v.329q0,5.776,0,11.552a2.173,2.173,0,0,1-.018.392.972.972,0,0,1-1,.789.963.963,0,0,1-.912-.92c-.017-.463,0-.927,0-1.391q0-5.247,0-10.493v-.318c-.115.105-.188.167-.256.235q-1.444,1.442-2.887,2.886a.942.942,0,0,1-1.024.257.92.92,0,0,1-.643-.77.89.89,0,0,1,.254-.805q2.422-2.431,4.854-4.853a.951.951,0,0,1,1.423.074q2.2,2.2,4.4,4.4c.114.114.231.226.341.343a.968.968,0,0,1,.008,1.384.958.958,0,0,1-1.382-.028q-1.439-1.426-2.864-2.866a1.945,1.945,0,0,1-.191-.269Z" transform="translate(418.326 -359.025)" fill="#51596c"/>
  </g>
</svg>
