<svg xmlns="http://www.w3.org/2000/svg" xmlns:xlink="http://www.w3.org/1999/xlink" width="80" height="80" viewBox="0 0 80 80">
  <defs>
    <linearGradient id="linear-gradient" x1="0.5" x2="0.5" y2="1" gradientUnits="objectBoundingBox">
      <stop offset="0" stop-color="#2aa0d1"/>
      <stop offset="1" stop-color="#ff8e52"/>
    </linearGradient>
  </defs>
  <g id="Group_3685" data-name="Group 3685" transform="translate(-830 -487)">
    <circle id="Ellipse_1564" data-name="Ellipse 1564" cx="40" cy="40" r="40" transform="translate(830 487)" fill="url(#linear-gradient)"/>
    <path id="money" d="M18.25,71.5H20.5v2.25A2.253,2.253,0,0,0,22.75,76H25v2.25a2.253,2.253,0,0,0,2.25,2.25h13.5A2.253,2.253,0,0,0,43,78.25V74.5H60.25a.75.75,0,0,0,.75-.75V60.25a.75.75,0,0,0-.75-.75H52.944l-6.58-3.656A.75.75,0,0,0,46,55.75H43v-4.5A2.253,2.253,0,0,0,40.75,49H38.5V46.75a2.253,2.253,0,0,0-2.25-2.25H34V42.25A2.253,2.253,0,0,0,31.75,40H18.25A2.253,2.253,0,0,0,16,42.25v27a2.253,2.253,0,0,0,2.25,2.25Zm-.75-2.25V67h.75a2.253,2.253,0,0,1,2.25,2.25V70H18.25a.751.751,0,0,1-.75-.75Zm4.5-27V41.5h6v.75a3.73,3.73,0,0,0,.752,2.25h-6a2.253,2.253,0,0,0-2.25,2.25v19.5a3.73,3.73,0,0,0-2.25-.752H17.5V46h.75A3.754,3.754,0,0,0,22,42.25ZM33.252,49h-6A2.253,2.253,0,0,0,25,51.25v19.5A3.73,3.73,0,0,0,22.75,70H22V50.5h.75a3.754,3.754,0,0,0,3.75-3.75V46h6v.75A3.73,3.73,0,0,0,33.252,49Zm7.5,6h.75v6.75H38.308a5.276,5.276,0,0,0-3.558-2.2v-3.8h-1.5v3.8a5.249,5.249,0,0,0,0,10.391v3.8h1.5V69.944a5.238,5.238,0,0,0,3.556-2.194H41.5V74.5h-.75A3.754,3.754,0,0,0,37,78.25V79H31v-.75a3.754,3.754,0,0,0-3.75-3.75H26.5V55h.75A3.754,3.754,0,0,0,31,51.25V50.5h6v.75A3.754,3.754,0,0,0,40.75,55Zm-4.2,12.5a3.752,3.752,0,1,1,0-5.5,3,3,0,0,0,0,5.5ZM26.5,53.5V51.25a.751.751,0,0,1,.75-.75H29.5v.75a2.253,2.253,0,0,1-2.25,2.25ZM22,49V46.75a.751.751,0,0,1,.75-.75H25v.75A2.253,2.253,0,0,1,22.75,49Zm0,24.75V71.5h.75A2.253,2.253,0,0,1,25,73.75v.75H22.75A.751.751,0,0,1,22,73.75Zm4.5,4.5V76h.75a2.253,2.253,0,0,1,2.25,2.25V79H27.25A.751.751,0,0,1,26.5,78.25ZM40.75,79H38.5v-.75A2.253,2.253,0,0,1,40.75,76h.75v2.25A.751.751,0,0,1,40.75,79ZM53.5,61h6V73h-6Zm-7.694-3.75L52,60.691V73H43V69.171a5.278,5.278,0,0,0,3.75,1.579H49v-1.5H46.75a3.768,3.768,0,0,1-3-1.5l-.9-1.2a.75.75,0,0,0-.6-.3h-4.5a1.5,1.5,0,0,1,0-3H47.5v-1.5H43v-4.5Zm-4.306-6V53.5h-.75a2.253,2.253,0,0,1-2.25-2.25V50.5h2.25A.751.751,0,0,1,41.5,51.25ZM37,46.75V49h-.75A2.253,2.253,0,0,1,34,46.75V46h2.25A.751.751,0,0,1,37,46.75Zm-4.5-4.5V44.5h-.75a2.253,2.253,0,0,1-2.25-2.25V41.5h2.25A.751.751,0,0,1,32.5,42.25ZM18.25,41.5H20.5v.75a2.253,2.253,0,0,1-2.25,2.25H17.5V42.25a.751.751,0,0,1,.75-.75Z" transform="translate(832 467)" fill="#fff"/>
  </g>
</svg>
