<svg width="130" height="131" viewBox="0 0 130 131" fill="none" xmlns="http://www.w3.org/2000/svg">
<path d="M97.5 98.4661C115.449 80.5168 115.449 51.4153 97.5 33.4661C79.5507 15.5168 50.4493 15.5168 32.5 33.4661C14.5507 51.4153 14.5507 80.5168 32.5 98.4661C50.4493 116.415 79.5507 116.415 97.5 98.4661Z" fill="#FFD54D"/>
<path d="M89.042 26.7374C93.6184 33.8853 96.2722 42.3795 96.2722 51.4935C96.2722 76.8742 75.6954 97.4559 50.3098 97.4559C41.496 97.4559 33.2585 94.9715 26.2656 90.6664C34.4353 103.417 48.7262 111.868 64.993 111.868C90.3737 111.868 110.955 91.2911 110.955 65.9055C110.955 49.3433 102.19 34.8248 89.042 26.7374Z" fill="#FDB037"/>
<path d="M25.2843 70.8161C25.2843 47.2513 44.3888 28.1468 67.9536 28.1468C81.7263 28.1468 93.9784 34.6748 101.78 44.8058C94.4094 32.0161 80.6028 23.4009 64.7767 23.4009C41.212 23.4009 22.1074 42.5055 22.1074 66.0702C22.1074 75.8622 25.4053 84.8794 30.9551 92.0805C27.3473 85.8237 25.2843 78.5596 25.2843 70.8161Z" fill="#FFC764"/>
<path d="M84.5321 87.9979C83.4231 78.1865 75.1033 70.5641 64.9965 70.5641C54.8897 70.5641 46.5699 78.1914 45.4609 87.9979H84.5321Z" fill="#002D51"/>
<path d="M45.4648 87.9981C45.4648 87.9981 61.9447 75.8477 84.5312 87.9981H45.4648Z" fill="#00BABA"/>
<path d="M40.2047 66.7095C39.6236 66.7095 39.0522 66.4528 38.6647 65.9589C38.0013 65.1114 38.1563 63.8862 39.0037 63.2227L45.6334 58.0604L38.781 54.0312C37.8512 53.484 37.5461 52.2927 38.0885 51.3629C38.6357 50.4331 39.827 50.128 40.7568 50.6704L50.0791 56.1523C50.636 56.4816 50.9943 57.0628 51.0331 57.7069C51.0767 58.3509 50.7958 58.9757 50.2873 59.3728L41.396 66.2979C41.0474 66.5739 40.6261 66.7095 40.2047 66.7095Z" fill="#002D51"/>
<path d="M89.7907 66.7095C89.3743 66.7095 88.9481 66.5739 88.5946 66.2979L79.7033 59.3728C79.1948 58.9757 78.914 58.3509 78.9575 57.7069C79.0011 57.0628 79.3595 56.4816 79.9116 56.1523L89.2338 50.6704C90.1588 50.128 91.3549 50.4331 91.9022 51.3629C92.4494 52.2878 92.1395 53.484 91.2097 54.0312L84.3572 58.0604L90.9869 63.2227C91.8344 63.8862 91.9893 65.1066 91.3259 65.9589C90.9433 66.4528 90.367 66.7095 89.7907 66.7095Z" fill="#002D51"/>
</svg>
