<svg xmlns="http://www.w3.org/2000/svg" width="80" height="80" viewBox="0 0 80 80">
  <g id="Group_6055" data-name="Group 6055" transform="translate(-779 -371)">
    <circle id="Ellipse_1401" data-name="Ellipse 1401" cx="40" cy="40" r="40" transform="translate(779 371)" fill="#dbe0ea"/>
    <path id="heart" d="M19.942,35.484A2.339,2.339,0,0,1,18.4,34.9c-1.611-1.409-3.165-2.733-4.535-3.9L13.858,31a84.349,84.349,0,0,1-9.9-9.294C1.257,18.447,0,15.36,0,11.986A12.466,12.466,0,0,1,3.164,3.473,10.725,10.725,0,0,1,11.142,0a10.032,10.032,0,0,1,6.267,2.163,12.821,12.821,0,0,1,2.534,2.646,12.822,12.822,0,0,1,2.534-2.646A10.032,10.032,0,0,1,28.743,0a10.726,10.726,0,0,1,7.978,3.473,12.466,12.466,0,0,1,3.164,8.514c0,3.373-1.257,6.461-3.956,9.717A84.33,84.33,0,0,1,26.028,31c-1.373,1.17-2.929,2.5-4.544,3.908A2.341,2.341,0,0,1,19.942,35.484Z" transform="translate(799.5 395.5)" fill="#fff"/>
  </g>
</svg>
