<svg xmlns="http://www.w3.org/2000/svg" xmlns:xlink="http://www.w3.org/1999/xlink" width="142" height="142" viewBox="0 0 142 142">
  <defs>
    <linearGradient id="linear-gradient" x1="0.5" x2="0.5" y2="1" gradientUnits="objectBoundingBox">
      <stop offset="0" stop-color="#f06421"/>
      <stop offset="1" stop-color="#ff8e52"/>
    </linearGradient>
  </defs>
  <g id="Group_2330" data-name="Group 2330" transform="translate(-729 -182)">
    <path id="Path_3304" data-name="Path 3304" d="M71,0A71,71,0,1,1,0,71,71,71,0,0,1,71,0Z" transform="translate(729 182)" fill="#ff953f" opacity="0.1"/>
    <circle id="Ellipse_1374" data-name="Ellipse 1374" cx="57" cy="57" r="57" transform="translate(743 196)" fill="#ff953f" opacity="0.1"/>
    <circle id="Ellipse_1373" data-name="Ellipse 1373" cx="40" cy="40" r="40" transform="translate(760 213)" fill="#ff953f" opacity="0.1"/>
    <g id="Group_2329" data-name="Group 2329" transform="translate(-9684.408 376.173)">
      <g id="Group_2321" data-name="Group 2321" transform="translate(10460 -139.691)">
        <path id="Path_2657" data-name="Path 2657" d="M-203.433,417.784h-.023a4.536,4.536,0,0,0-3.233,1.363,4.538,4.538,0,0,0-1.344,3.242,4.556,4.556,0,0,0,1.349,3.223,4.549,4.549,0,0,0,3.229,1.332,4.569,4.569,0,0,0,4.563-4.56A4.59,4.59,0,0,0-203.433,417.784Z" transform="translate(238.622 -390.559)" fill="url(#linear-gradient)"/>
        <path id="Path_2658" data-name="Path 2658" d="M-373.722,417.786v.149h0v-.149h-.017a4.5,4.5,0,0,0-3.2,1.344,4.615,4.615,0,0,0-1.338,3.3,4.535,4.535,0,0,0,4.612,4.517h.032a4.433,4.433,0,0,0,3.171-1.366,4.573,4.573,0,0,0,1.3-3.235A4.587,4.587,0,0,0-373.722,417.786Zm-.008,6.574h0Z" transform="translate(391.955 -390.56)" fill="url(#linear-gradient)"/>
        <path id="Path_2659" data-name="Path 2659" d="M-471.587,151.175a1.514,1.514,0,0,0-1.311-.555h-.007c-6.655.017-13.155.02-18.636.02H-506.1c-.022-.062-.042-.121-.061-.18l-.388-1.19c-.38-1.164-.773-2.368-1.154-3.553a1.252,1.252,0,0,0-1.235-1.013h-1.15l-1.819,0c-.985,0-1.87,0-2.869.008a1.182,1.182,0,0,0-.916.421,1.354,1.354,0,0,0-.276,1.1,1.284,1.284,0,0,0,1.372,1.069l.958,0,1.338,0c.738,0,1.4,0,2.214-.014h.017c.21,0,.254.02.336.274q.508,1.576,1.015,3.152c1.767,5.491,3.594,11.169,5.456,16.731.016.046.03.092.044.137l.006.02.216.691.018-.034.44,1.237c.028.082.346.958,1.156.958h1.343v.006h.356c4.945.008,9.824.009,14.359.009h7.183c.978,0,1.326-.26,1.616-1.21q.7-2.3,1.4-4.6c1.2-3.932,2.441-8,3.678-11.992A1.607,1.607,0,0,0-471.587,151.175Z" transform="translate(515.994 -144.698)" fill="url(#linear-gradient)"/>
      </g>
    </g>
  </g>
</svg>
