<svg xmlns="http://www.w3.org/2000/svg" width="70" height="50" viewBox="0 0 70 50">
  <g id="Group_3730" data-name="Group 3730" transform="translate(-18864 5997)">
    <rect id="Rectangle_2701" data-name="Rectangle 2701" width="70" height="50" transform="translate(18864 -5997)" fill="none"/>
    <g id="XMLID_1_" transform="translate(18876 -5995.181)">
      <path id="Path_4020" data-name="Path 4020" d="M14.462,9.09,31.4,12.455a2.841,2.841,0,0,1,2.288,2.808V34.878a2.881,2.881,0,0,1-2.885,2.885H13.5a.952.952,0,0,0,.962-.962v-.962H30.807a.964.964,0,0,0,.962-.962V15.263a.966.966,0,0,0-.75-.942L14.462,11.051Z" transform="translate(12.461 8.224)" fill="#3d4050"/>
      <path id="Path_4021" data-name="Path 4021" d="M21.808,14a.962.962,0,0,1,0,1.923H17.962a.962.962,0,0,1,0-1.923Z" transform="translate(15.691 12.756)" fill="#3d4050"/>
      <path id="Path_4022" data-name="Path 4022" d="M21.808,17a.962.962,0,1,1,0,1.923H17.962a.962.962,0,1,1,0-1.923Z" transform="translate(15.691 15.525)" fill="#3d4050"/>
      <path id="Path_4023" data-name="Path 4023" d="M21.808,20a.962.962,0,0,1,0,1.923H17.962a.962.962,0,0,1,0-1.923Z" transform="translate(15.691 18.294)" fill="#3d4050"/>
      <path id="Path_4024" data-name="Path 4024" d="M14.923,36.884a.962.962,0,0,1-1.923,0V9.961a1.022,1.022,0,0,1,.346-.75,1.011,1.011,0,0,1,.808-.192l.769.154V36.884Z" transform="translate(11.999 8.141)" fill="#3d4050"/>
      <path id="Path_4025" data-name="Path 4025" d="M16.231,23v.962a.952.952,0,0,0,.962.962H9.5a.952.952,0,0,0,.962-.962V23Z" transform="translate(8.769 21.063)" fill="#3d4050"/>
      <path id="Path_4026" data-name="Path 4026" d="M12.808,5a.962.962,0,1,1,0,1.923H8.962A.962.962,0,1,1,8.962,5Z" transform="translate(7.384 4.448)" fill="#3d4050"/>
      <path id="Path_4027" data-name="Path 4027" d="M13.769,8.962a.952.952,0,0,1-.962.962H8.962A.962.962,0,1,1,8.962,8h3.846A.952.952,0,0,1,13.769,8.962Z" transform="translate(7.384 7.217)" fill="#3d4050"/>
      <path id="Path_4028" data-name="Path 4028" d="M12.808,11a.962.962,0,1,1,0,1.923H8.962a.962.962,0,1,1,0-1.923Z" transform="translate(7.384 9.987)" fill="#3d4050"/>
      <path id="Path_4029" data-name="Path 4029" d="M12.808,14a.962.962,0,1,1,0,1.923H8.962a.962.962,0,1,1,0-1.923Z" transform="translate(7.384 12.756)" fill="#3d4050"/>
      <path id="Path_4030" data-name="Path 4030" d="M8.769,14.962a.952.952,0,0,1-.962.962H3.962a.962.962,0,1,1,0-1.923H7.808A.952.952,0,0,1,8.769,14.962Z" transform="translate(2.769 12.756)" fill="#3d4050"/>
      <path id="Path_4031" data-name="Path 4031" d="M7.808,5a.962.962,0,1,1,0,1.923H3.962A.962.962,0,1,1,3.962,5Z" transform="translate(2.769 4.448)" fill="#3d4050"/>
      <path id="Path_4032" data-name="Path 4032" d="M7.808,8a.962.962,0,1,1,0,1.923H3.962A.962.962,0,1,1,3.962,8Z" transform="translate(2.769 7.217)" fill="#3d4050"/>
      <path id="Path_4033" data-name="Path 4033" d="M7.808,11a.962.962,0,1,1,0,1.923H3.962a.962.962,0,1,1,0-1.923Z" transform="translate(2.769 9.987)" fill="#3d4050"/>
      <path id="Path_4034" data-name="Path 4034" d="M13.615,19.885a.964.964,0,0,0-.962-.962H6.885a.952.952,0,0,0-.962.962v8.654H4V19.885A2.881,2.881,0,0,1,6.885,17h5.769a2.881,2.881,0,0,1,2.885,2.885v8.654H13.615Z" transform="translate(3.692 15.525)" fill="#3d4050"/>
      <path id="Path_4035" data-name="Path 4035" d="M5.923,23h9.615v.962a.952.952,0,0,1-.962.962H4.962A.952.952,0,0,1,4,23.962V23Z" transform="translate(3.692 21.063)" fill="#3d4050"/>
      <path id="Path_4036" data-name="Path 4036" d="M3.365.218,24.5,3.429a2.874,2.874,0,0,1,2.423,2.846V17.314l-.769-.154a1.011,1.011,0,0,0-.808.192A1.022,1.022,0,0,0,25,18.1V6.275a.972.972,0,0,0-.808-.962L3.058,2.122A.532.532,0,0,0,2.885,2.1a.907.907,0,0,0-.615.231.919.919,0,0,0-.346.731V43.1a.964.964,0,0,0,.962.962H7.692v.962a.952.952,0,0,0,.962.962H2.885A2.881,2.881,0,0,1,0,43.1V3.064A2.832,2.832,0,0,1,1.019.872,2.887,2.887,0,0,1,3.365.218Z" fill="#3d4050"/>
    </g>
  </g>
</svg>
