<svg xmlns="http://www.w3.org/2000/svg" width="70" height="50" viewBox="0 0 70 50">
  <g id="Group_3730" data-name="Group 3730" transform="translate(-18864 5997)">
    <rect id="Rectangle_2701" data-name="Rectangle 2701" width="70" height="50" transform="translate(18864 -5997)" fill="none"/>
    <g id="worldwide" transform="translate(18874 -5997.05)">
      <g id="Group_3696" data-name="Group 3696" transform="translate(0 0.05)">
        <path id="Path_4037" data-name="Path 4037" d="M25.009.05A25,25,0,0,0,2.028,15.207l-.312.1.121.362A24.993,24.993,0,1,0,25.009.05Zm19.606,37.6-1.283-1.283V33.376A.832.832,0,0,0,43.248,33L40,26.514V23.378a.833.833,0,0,0-.371-.693l-2.5-1.666a.833.833,0,0,0-.667-.115l-3.061.765-5.141-2.206-.707-4.956,1.96-1.96H33.72l1.416,2.129a.833.833,0,0,0,.557.359l5,.833a.826.826,0,0,0,.4-.032L45.7,14.3A23.245,23.245,0,0,1,44.614,37.647ZM41.178,8.26l-1.355.9-3.777-.756L33.6,7.592a.818.818,0,0,0-.465-.018l-3.1.774L28.676,7.9l1.006-2.013H32.5a.833.833,0,0,0,.372-.087l2.883-1.441A23.414,23.414,0,0,1,41.178,8.26Zm-25.3-4.683,2,1.333a.832.832,0,0,0,.326.128l4.037.673L21.845,6.89l-2.1.7a.833.833,0,0,0-.451.361L16.9,11.941l-3.843,2.306-5.665.809a.833.833,0,0,0-.717.824v2.5a.833.833,0,0,0,.244.589l1.422,1.422v1.431L4.872,19.511,3.615,15.739A23.463,23.463,0,0,1,15.876,3.577ZM13.5,30.894,9.738,30.14l-1.4-2.792V25.39l3.1-3.1,1.149,2.3a.833.833,0,0,0,.746.461H18.7l2.257,3.762a.833.833,0,0,0,.714.4h2.316L23.4,32.132l-3.154,3.154a.833.833,0,0,0-.245.589v2.083l-3,2.25a.833.833,0,0,0-.333.667v3.009l-1.036-.343L14.17,39.882V31.71A.833.833,0,0,0,13.5,30.894ZM11,43.7A23.323,23.323,0,0,1,2.69,18.233l.692,2.076a.833.833,0,0,0,.327.43l4.153,2.769-.947.948a.833.833,0,0,0-.244.589v2.5a.833.833,0,0,0,.087.372l1.666,3.333a.833.833,0,0,0,.583.444l3.5.7v7.649a.833.833,0,0,0,.059.309l1.666,4.166a.833.833,0,0,0,.511.481l2.5.833a.819.819,0,0,0,.259.043.833.833,0,0,0,.833-.833V41.291l3-2.25a.833.833,0,0,0,.333-.667V36.221l3.089-3.089a.834.834,0,0,0,.227-.426l.833-4.166a.833.833,0,0,0-.816-1H22.14l-2.257-3.762a.833.833,0,0,0-.714-.4H13.852l-1.431-2.872a.833.833,0,0,0-.612-.45.816.816,0,0,0-.722.233L10,21.367V20.046a.833.833,0,0,0-.244-.589L8.338,18.035V16.6l5.117-.731a.837.837,0,0,0,.311-.111l4.166-2.5a.833.833,0,0,0,.285-.285l2.341-3.9,2.207-.737a.825.825,0,0,0,.527-.527l.833-2.5a.833.833,0,0,0-.653-1.083l-4.822-.8L17.8,2.86a23.264,23.264,0,0,1,16.023.6l-1.522.76H29.167a.833.833,0,0,0-.75.461L26.751,8.009a.833.833,0,0,0,.482,1.162l2.5.833a.818.818,0,0,0,.465.018l3.1-.774,2.27.756a.613.613,0,0,0,.1.027l4.166.833a.827.827,0,0,0,.626-.123l1.9-1.265a23.5,23.5,0,0,1,2.506,3.348l-4.1,1.366-4.438-.74-1.466-2.2a.833.833,0,0,0-.689-.371h-5a.833.833,0,0,0-.589.244l-2.5,2.5a.833.833,0,0,0-.236.707l.833,5.832a.833.833,0,0,0,.5.647l5.832,2.5a.823.823,0,0,0,.53.042l2.975-.744,1.819,1.215v2.887a.832.832,0,0,0,.083.372l3.249,6.489v3.136a.833.833,0,0,0,.244.589l1.743,1.744A23.323,23.323,0,0,1,11,43.7Z" transform="translate(0 -0.05)" fill="#3d4050"/>
      </g>
    </g>
  </g>
</svg>
