<svg xmlns="http://www.w3.org/2000/svg" width="70" height="50" viewBox="0 0 70 50">
  <g id="Group_3731" data-name="Group 3731" transform="translate(-18663 6471)">
    <rect id="Rectangle_2701" data-name="Rectangle 2701" width="70" height="50" transform="translate(18663 -6471)" fill="none"/>
    <g id="Group_3730" data-name="Group 3730" transform="translate(18394.654 -6937.448)">
      <g id="Group_3729" data-name="Group 3729">
        <path id="Path_5865" data-name="Path 5865" d="M44.629,50.052H11.589A4.6,4.6,0,0,1,7,45.463V10.589A4.6,4.6,0,0,1,11.589,6H40.958a.918.918,0,0,1,.918.918v6.424h2.753a.918.918,0,0,1,.918.918V49.134A.918.918,0,0,1,44.629,50.052ZM8.836,14.258V45.463a2.757,2.757,0,0,0,2.753,2.753H43.711V15.178H11.589A4.573,4.573,0,0,1,8.836,14.258Zm2.753-6.422a2.753,2.753,0,1,0,0,5.507H40.04V7.836Z" transform="translate(276.346 463.448)" fill="#3d4050"/>
        <path id="Path_5866" data-name="Path 5866" d="M25.931,28.355a.925.925,0,0,1-.65-.268l-4.857-4.859-4.857,4.857A.919.919,0,0,1,14,27.437V10.918a.918.918,0,0,1,1.836,0v14.3l3.939-3.939a.918.918,0,0,1,1.3,0l3.941,3.939v-14.3a.918.918,0,0,1,1.836,0v16.52a.918.918,0,0,1-.567.848A.905.905,0,0,1,25.931,28.355Z" transform="translate(282.193 466.79)" fill="#3d4050"/>
      </g>
    </g>
  </g>
</svg>
