<svg xmlns="http://www.w3.org/2000/svg" width="70" height="50" viewBox="0 0 70 50">
  <g id="Group_3731" data-name="Group 3731" transform="translate(-18868 5997)">
    <rect id="Rectangle_2701" data-name="Rectangle 2701" width="70" height="50" transform="translate(18868 -5997)" fill="none"/>
    <g id="Group_3730" data-name="Group 3730" transform="translate(18786.346 -6261.611)">
      <path id="Path_5867" data-name="Path 5867" d="M144.812,306.408h3.545a1.153,1.153,0,0,0,.813-.339l1.771-1.786a1.155,1.155,0,0,0,.336-.822V282.137a1.186,1.186,0,0,0-.708-1.164L116.913,266.7a1.156,1.156,0,0,0-.447-.09,1.142,1.142,0,0,0-.445.09L82.364,280.972a1.17,1.17,0,0,0,0,2.152l9.917,4.208v13.283a1.17,1.17,0,0,0,.674,1.058l23.032,10.706a1.145,1.145,0,0,0,.96,0l23.03-10.706a1.155,1.155,0,0,0,.487-.427,1.169,1.169,0,0,0,.184-.63V287.332l8.324-3.53v9.571H144.81a1.16,1.16,0,0,0-1.152,1.163v10.707A1.161,1.161,0,0,0,144.812,306.408Zm-29.5,3.095-20.724-9.634v-11.56l20.724,8.789Zm23.028-9.634L117.621,309.5V297.1l20.723-8.788Zm-21.877-4.81L85.79,282.049l30.678-13.011,30.675,13.011Zm32.507.643v7.276l-1.095,1.1h-1.915V295.7Z" fill="#3d4050"/>
      <path id="Path_5868" data-name="Path 5868" d="M112.263,283.04h6.277a.885.885,0,0,0,0-1.769h-6.277a.885.885,0,1,0,0,1.769Z" transform="translate(0.939 0.463)" fill="#3d4050"/>
    </g>
  </g>
</svg>
