<svg xmlns="http://www.w3.org/2000/svg" width="28" height="28" viewBox="0 0 28 28">
  <g id="Group_3276" data-name="Group 3276" transform="translate(-590 -794)">
    <g id="Group_2195" data-name="Group 2195" transform="translate(-878 -309)">
      <g id="Group_2187" data-name="Group 2187" transform="translate(1470 1105)">
        <circle id="Ellipse_1370" data-name="Ellipse 1370" cx="14" cy="14" r="14" transform="translate(-2 -2)" fill="#ff615e" opacity="0.4"/>
      </g>
      <circle id="Ellipse_1317" data-name="Ellipse 1317" cx="10" cy="10" r="10" transform="translate(1472 1107)" fill="#ff615e"/>
    </g>
    <path id="Path_3277" data-name="Path 3277" d="M.585,0,10.95.021a.6.6,0,0,1,.586.616.6.6,0,0,1-.584.614L.587,1.231A.6.6,0,0,1,0,.615.6.6,0,0,1,.585,0Z" transform="translate(599.507 811.648) rotate(-45)" fill="#fff"/>
    <path id="Path_3278" data-name="Path 3278" d="M.585,0,10.95-.02a.6.6,0,0,1,.584.614.6.6,0,0,1-.586.616L.583,1.23A.6.6,0,0,1,0,.616.6.6,0,0,1,.585,0Z" transform="translate(607.678 812.462) rotate(-135)" fill="#fff"/>
  </g>
</svg>
