<svg width="50" height="51" viewBox="0 0 50 51" fill="none" xmlns="http://www.w3.org/2000/svg">
<path d="M0 25.5771C0 11.77 11.1929 0.577148 25 0.577148H45C47.7614 0.577148 50 2.81572 50 5.57715V25.5771C50 39.3843 38.8071 50.5771 25 50.5771C11.1929 50.5771 0 39.3843 0 25.5771Z" fill="#D4DDFE"/>
<path d="M26.4126 15.7964C26.682 16.5957 27.4902 17.1285 28.2984 16.8621C28.5678 16.8621 28.8372 16.7289 28.9719 16.4625C29.6454 15.9296 30.723 16.0629 31.2618 16.5957C31.6659 16.9953 31.8005 17.6614 31.5312 18.1942C31.3965 18.9935 31.8005 19.9259 32.6087 20.1924C32.8781 20.3256 33.1475 20.3256 33.4169 20.1924C34.3598 20.0591 35.168 20.592 35.3027 21.5245C35.4374 22.0573 35.168 22.5901 34.7639 22.9898C33.9557 23.6558 33.9557 24.5883 34.4945 25.2543C34.6292 25.3875 34.8986 25.5207 35.0333 25.654C35.8415 26.0536 36.2456 26.986 35.8415 27.7853C35.5721 28.3181 35.168 28.5846 34.6292 28.7178C33.6863 28.851 33.1475 29.6502 33.2822 30.4495C33.2822 30.7159 33.4169 30.9823 33.5516 31.1155C34.0904 31.7816 33.821 32.8473 33.1475 33.3801C32.7434 33.6465 32.0699 33.7797 31.5312 33.5133C30.723 33.1137 29.7801 33.5133 29.376 34.1794C29.2413 34.4458 29.2413 34.7122 29.2413 34.9786C29.2413 35.9111 28.5678 36.5771 27.7596 36.5771C27.2208 36.5771 26.682 36.3107 26.4126 35.7779C26.0086 34.9786 24.931 34.8454 24.2575 35.2451C23.9881 35.3783 23.8534 35.5115 23.7187 35.7779C23.3146 36.5771 22.237 36.7104 21.5635 36.3107C21.0248 36.0443 20.7554 35.5115 20.7554 34.9786C20.7554 34.0462 20.0819 33.3801 19.2737 33.3801C19.0043 33.3801 18.7349 33.3801 18.4655 33.5133C17.6573 33.913 16.7144 33.5133 16.3103 32.7141C16.0409 32.1812 16.1756 31.6484 16.445 31.1155C16.9838 30.4495 16.7144 29.3838 16.0409 28.851C15.7715 28.7178 15.6369 28.5846 15.3675 28.5846C14.4246 28.4514 13.8858 27.6521 14.0205 26.7196C14.1552 26.1868 14.4246 25.7872 14.9634 25.5207C15.7715 25.1211 16.1756 24.1886 15.7715 23.3894C15.3675 23.3894 15.2328 23.123 15.0981 22.9898C14.4246 22.4569 14.2899 21.5245 14.8287 20.7252C15.2328 20.3256 15.7715 20.0591 16.3103 20.1924C17.1185 20.3256 18.0614 19.7927 18.1961 18.8603C18.1961 18.5938 18.1961 18.3274 18.1961 18.061C17.9267 17.395 18.3308 16.4625 19.139 16.1961C19.6778 16.0629 20.2166 16.1961 20.7554 16.4625C21.4288 16.9953 22.3717 16.9953 23.0452 16.3293C23.1799 16.1961 23.3146 16.0629 23.3146 15.7964C23.584 14.9972 24.3922 14.4643 25.2004 14.5975C25.8739 14.7308 26.278 15.2636 26.4126 15.7964Z" stroke="black" stroke-width="1.5"/>
<path d="M20.812 30.5771C20.2707 30.5771 20 30.1711 20 29.7651C20 29.6298 20.1353 29.3591 20.2707 29.2238L27.7143 21.7802C27.985 21.5095 28.5263 21.5095 28.797 21.7802C29.0677 22.0508 29.0677 22.4568 28.797 22.8629L21.218 30.3065C21.0827 30.4418 20.9474 30.5771 20.812 30.5771Z" fill="#1F2430"/>
<path d="M22 23.5771C21.3636 23.5771 21 23.1226 21 22.5771C21 22.0317 21.3636 21.5771 22 21.5771C22.5455 21.5771 23 22.0317 23 22.5771C23 23.1226 22.5455 23.5771 22 23.5771Z" fill="#1F2430"/>
<path d="M27 29.5771C26.4545 29.5771 26 29.1226 26 28.5771C26 28.0317 26.4545 27.5771 27 27.5771C27.5455 27.5771 28 28.0317 28 28.5771C28 29.1226 27.5455 29.5771 27 29.5771Z" fill="#1F2430"/>
</svg>
