<svg width="50" height="51" viewBox="0 0 50 51" fill="none" xmlns="http://www.w3.org/2000/svg">
<path d="M0 25.5771C0 11.77 11.1929 0.577148 25 0.577148H45C47.7614 0.577148 50 2.81572 50 5.57715V25.5771C50 39.3843 38.8071 50.5771 25 50.5771C11.1929 50.5771 0 39.3843 0 25.5771Z" fill="#CFF0E5"/>
<path d="M25.0778 37.2718C24.6394 38.4348 24.2511 39.4852 23.8627 40.5231C23.3993 41.7736 23.1989 41.8361 22.0715 41.0858C21.1571 40.473 20.2302 39.8728 19.3158 39.2476C19.1028 39.0725 18.8022 39.0475 18.5642 39.1976C17.1112 39.9354 15.6457 40.6606 14.1926 41.3859C13.867 41.5485 13.5538 41.686 13.2281 41.3984C12.9024 41.1108 13.0026 40.7482 13.1404 40.398C14.5809 36.9217 16.0089 33.4453 17.4369 29.9564C17.6999 29.3187 17.6248 29.1186 16.9734 28.881C16.5225 28.706 16.059 28.5934 15.6206 28.4059C14.6937 28.1182 14.155 27.1554 14.4056 26.205C14.4682 25.7798 14.5434 25.3671 14.6436 24.942C14.7563 24.5168 14.6185 24.0666 14.2929 23.779C14.0298 23.4914 13.7542 23.2038 13.5037 22.8912C12.7772 22.1284 12.8022 20.9404 13.5413 20.2027C13.7166 19.9651 13.9171 19.74 14.13 19.5399C14.6311 19.1397 14.8064 18.452 14.5684 17.8517C14.4682 17.5016 14.4056 17.1514 14.368 16.7888C14.2177 16.0385 14.5935 15.2632 15.2949 14.9381C15.8085 14.713 16.3221 14.5129 16.8607 14.3503C17.2866 14.2378 17.6123 13.9127 17.725 13.4875C17.8377 13.0748 17.9756 12.6747 18.1384 12.2746C18.3764 11.3367 19.3409 10.7615 20.2928 11.0116C20.3429 11.0241 20.3805 11.0366 20.4181 11.0491C21.5579 11.4992 22.8607 11.1491 23.6373 10.1987C24.3012 9.43595 25.4536 9.3609 26.2177 10.0237C26.2803 10.0737 26.3304 10.1362 26.3805 10.1862C26.6561 10.3988 26.9066 10.6364 27.1571 10.874C27.4953 11.2491 28.034 11.3867 28.51 11.2366C28.8482 11.1616 29.1864 11.0741 29.5246 11.0116C30.5016 10.7364 31.5163 11.2741 31.8294 12.237C31.9797 12.6122 32.1175 13.0123 32.2177 13.4C32.3304 13.8752 32.7062 14.2503 33.1822 14.3503C33.6456 14.4754 34.0966 14.638 34.5225 14.8255C35.3241 15.1382 35.7877 15.9885 35.5872 16.8388C35.5246 17.314 35.4369 17.7767 35.3242 18.2394C35.2239 18.627 35.3367 19.0397 35.6373 19.3148C35.9129 19.6149 36.201 19.915 36.464 20.2402C37.1655 20.9655 37.1655 22.1159 36.4891 22.8537C36.2887 23.1163 36.0757 23.3664 35.8377 23.5915C35.3492 23.9916 35.1738 24.6544 35.3868 25.2421C35.487 25.5923 35.5621 25.9424 35.5997 26.305C35.7876 27.1303 35.3492 27.9682 34.5601 28.2808C34.059 28.5184 33.5079 28.6559 32.9818 28.856C32.3555 29.0936 32.2803 29.2937 32.5183 29.8939L36.8022 40.2855C36.8398 40.3605 36.9024 40.4355 36.8899 40.5106C36.9024 40.7857 36.8524 41.0733 36.7522 41.3234C36.5517 41.6235 36.2135 41.561 35.9004 41.4109C34.4474 40.6856 32.9692 39.9729 31.5287 39.2101C31.2281 39.01 30.8273 39.035 30.5517 39.2601C29.5747 39.9479 28.56 40.6106 27.5454 41.2734C26.8815 41.711 26.5058 41.586 26.2427 40.8357C25.892 39.7228 25.5037 38.5598 25.0778 37.2718ZM16.1091 18.7146C15.9713 19.1147 15.8085 19.4899 15.6206 19.865C15.3952 20.1901 15.1321 20.4902 14.8565 20.7654C14.1675 21.5532 14.1676 21.6782 14.8816 22.4535C14.9066 22.4785 14.9317 22.5035 14.9567 22.5285C15.9463 23.3164 16.3096 24.6419 15.8586 25.8299C15.533 26.9678 15.6331 27.1303 16.7856 27.418C17.9881 27.6305 18.9275 28.5559 19.178 29.7564C19.5162 31.0319 19.5663 31.0569 20.8565 30.7193C21.9839 30.3441 23.224 30.6817 24.0006 31.5696C24.8899 32.5075 25.0903 32.5074 25.9922 31.5821C26.7438 30.7192 27.9337 30.3691 29.036 30.7067C30.439 31.0569 30.4891 31.0319 30.8774 29.6438C31.1154 28.5809 31.9421 27.7431 33.0193 27.493C34.3596 27.1178 34.51 27.1929 34.0966 25.6173C33.7459 24.5543 34.0841 23.3789 34.9359 22.6661C35.1237 22.4785 35.2991 22.2785 35.4619 22.0784C35.7124 21.8408 35.725 21.4406 35.487 21.1905C35.4745 21.178 35.4619 21.1655 35.4494 21.153C35.1738 20.8404 34.9108 20.5403 34.6227 20.2277C34.0465 19.6274 33.8335 18.7896 34.0339 17.9893C34.1216 17.6141 34.1842 17.2515 34.2719 16.8764C34.3972 16.5262 34.2094 16.126 33.8586 16.001C33.821 15.9885 33.7834 15.976 33.7459 15.976C33.3951 15.876 33.0569 15.7634 32.7062 15.6509C31.8794 15.4258 31.2281 14.788 31.0026 13.9502C30.9024 13.6001 30.7772 13.2624 30.6645 12.9123C30.6144 12.5496 30.2761 12.2996 29.9129 12.3496C29.8628 12.3621 29.8127 12.3621 29.7751 12.3871C29.487 12.4621 29.1864 12.4871 28.9108 12.5622C27.9463 12.8873 26.8815 12.5997 26.2051 11.8369C25.9797 11.5993 25.7166 11.3992 25.4661 11.1866C25.2281 10.9365 24.8398 10.9365 24.5893 11.1741L24.5767 11.1866C24.2636 11.4492 23.9505 11.7243 23.6498 11.9995C23.0862 12.5747 22.2594 12.8123 21.4703 12.6247C21.107 12.5372 20.7312 12.4621 20.3555 12.4121C19.6665 12.2996 19.4786 12.3621 19.3408 13.0123C19.1404 14.5254 17.9504 15.7384 16.4348 15.951C15.6707 16.101 15.6206 16.3261 15.7959 17.1014C15.8836 17.5766 15.9713 18.0768 16.1091 18.7146ZM25.3033 33.7204L27.3576 39.8603C28.4223 39.1476 29.4369 38.4973 30.4265 37.8095C30.7522 37.5594 31.1905 37.5344 31.5287 37.747C32.5308 38.2597 33.5329 38.7474 34.535 39.2476C34.6603 39.3101 34.7855 39.3476 35.011 39.4351L31.6415 31.282C31.2406 32.0072 30.4014 32.3699 29.5872 32.1573C29.249 32.1198 28.8983 32.0448 28.5726 31.9447C28.0214 31.7697 27.4327 31.9322 27.057 32.3574C26.5434 32.8326 25.9546 33.2327 25.3033 33.7204ZM18.3388 31.2945L14.9693 39.4727C15.2323 39.3476 15.3826 39.2976 15.5204 39.2226C16.4849 38.7474 17.4494 38.2847 18.3889 37.7845C18.7772 37.5469 19.2657 37.5719 19.6165 37.8595C20.5935 38.5473 21.6081 39.1851 22.5977 39.8478C22.6603 39.7978 22.6978 39.7728 22.7104 39.7478C23.0862 38.7599 23.3993 37.747 23.8377 36.8091C24.3263 35.8338 24.3513 34.6958 23.9004 33.7079C23.5872 32.4699 22.3346 31.7196 21.0945 32.0323C21.057 32.0448 21.0319 32.0448 20.9943 32.0573C20.0173 32.2573 19.0402 32.3824 18.3388 31.2945Z" fill="#1F2430"/>
<path d="M24.9945 28.6272L24.9953 28.6271C28.9612 28.5625 32.1147 25.4058 32.0481 21.588C32.137 17.7809 29.017 14.6241 25.0734 14.5272L25.0734 14.5271H25.0722H25.072H25.0719H25.0718H25.0716H25.0715H25.0714H25.0712H25.0711H25.071H25.0708H25.0707H25.0706H25.0704H25.0703H25.0702H25.07H25.0699H25.0698H25.0696H25.0695H25.0694H25.0692H25.0691H25.069H25.0688H25.0687H25.0686H25.0684H25.0683H25.0681H25.068H25.0679H25.0677H25.0676H25.0675H25.0673H25.0672H25.067H25.0669H25.0668H25.0666H25.0665H25.0663H25.0662H25.0661H25.0659H25.0658H25.0656H25.0655H25.0654H25.0652H25.0651H25.0649H25.0648H25.0646H25.0645H25.0644H25.0642H25.0641H25.0639H25.0638H25.0636H25.0635H25.0634H25.0632H25.0631H25.0629H25.0628H25.0626H25.0625H25.0623H25.0622H25.062H25.0619H25.0618H25.0616H25.0615H25.0613H25.0612H25.061H25.0609H25.0607H25.0606H25.0604H25.0603H25.0601H25.06H25.0598H25.0597H25.0595H25.0594H25.0592H25.0591H25.0589H25.0588H25.0586H25.0585H25.0583H25.0582H25.058H25.0579H25.0577H25.0576H25.0574H25.0573H25.0571H25.057H25.0568H25.0567H25.0565H25.0564H25.0562H25.0561H25.0559H25.0558H25.0556H25.0555H25.0553H25.0552H25.055H25.0548H25.0547H25.0545H25.0544H25.0542H25.0541H25.0539H25.0538H25.0536H25.0535H25.0533H25.0532H25.053H25.0528H25.0527H25.0525H25.0524H25.0522H25.0521H25.0519H25.0518H25.0516H25.0514H25.0513H25.0511H25.051H25.0508H25.0507H25.0505H25.0503H25.0502H25.05H25.0499H25.0497H25.0496H25.0494H25.0492H25.0491H25.0489H25.0488H25.0486H25.0485H25.0483H25.0481H25.048H25.0478H25.0477H25.0475H25.0473H25.0472H25.047H25.0469H25.0467H25.0465H25.0464H25.0462H25.0461H25.0459H25.0457H25.0456H25.0454H25.0453H25.0451H25.0449H25.0448H25.0446H25.0445H25.0443H25.0441H25.044H25.0438H25.0437H25.0435H25.0433H25.0432H25.043H25.0429H25.0427H25.0425H25.0424H25.0422H25.0421H25.0419H25.0417H25.0416H25.0414H25.0413H25.0411H25.0409H25.0408H25.0406H25.0404H25.0403H25.0401H25.04H25.0398H25.0396H25.0395H25.0393H25.0391H25.039H25.0388H25.0387H25.0385H25.0383H25.0382H25.038H25.0379H25.0377H25.0375H25.0374H25.0372H25.037H25.0369H25.0367H25.0366H25.0364H25.0362H25.0361H25.0359H25.0357H25.0356H25.0354H25.0353H25.0351H25.0349H25.0348H25.0346H25.0344H25.0343H25.0341H25.034H25.0338H25.0336H25.0335H25.0333H25.0331H25.033H25.0328H25.0327H25.0325H25.0323H25.0322H25.032H25.0318H25.0317H25.0315H25.0314H25.0312H25.031H25.0309H25.0307H25.0305H25.0304H25.0302H25.0301H25.0299H25.0297H25.0296H25.0294H25.0292H25.0291H25.0289H25.0288H25.0286H25.0284H25.0283H25.0281H25.0279H25.0278H25.0276H25.0275H25.0273H25.0271H25.027H25.0268H25.0266H25.0265H25.0263H25.0262H25.026H25.0258H25.0257H25.0255H25.0254H25.0252H25.025H25.0249H25.0247H25.0245H25.0244H25.0242H25.0241H25.0239H25.0237H25.0236H25.0234H25.0233H25.0231H25.0229H25.0228H25.0226H25.0225H25.0223H25.0221H25.022H25.0218H25.0217H25.0215H25.0213H25.0212H25.021H25.0209H25.0207H25.0205H25.0204H25.0202H25.0201H25.0199H25.0197H25.0196H25.0194H25.0193H25.0191H25.0189H25.0188H25.0186H25.0185H25.0183H25.0182H25.018H25.0178H25.0177H25.0175H25.0174H25.0172H25.017H25.0169H25.0167H25.0166H25.0164H25.0163H25.0161H25.0159H25.0158H25.0156H25.0155H25.0153H25.0152H25.015H25.0149H25.0147H25.0145H25.0144H25.0142H25.0141H25.0139H25.0138H25.0136H25.0135H25.0133H25.0131H25.013H25.0128H25.0127H25.0125H25.0124H25.0122H25.0121H25.0119H25.0118H25.0116H25.0115H25.0113H25.0111H25.011H25.0108H25.0107H25.0105H25.0104H25.0102H25.0101H25.0099H25.0098H25.0096H25.0095H25.0093H25.0092H25.009H25.0089H25.0087H25.0086H25.0084H25.0083H25.0081H25.008H25.0078H25.0077H25.0075H25.0074H25.0072H25.0071H25.0069H25.0068H25.0066H25.0065H25.0063H25.0062H25.006H25.0059H25.0057H25.0056H25.0054H25.0053H25.0051H25.005H25.0049H25.0047H25.0046H25.0044H25.0043H25.0041H25.004H25.0038H25.0037H25.0035H25.0034H25.0033H25.0031H25.003H25.0028H25.0027H25.0025H25.0024H25.0022H25.0021H25.002H25.0018H25.0017H25.0015H25.0014H25.0013H25.0011H25.001H25.0008H25.0007H25.0005H25.0004H25.0003H25.0001H25H24.9998H24.9997H24.9996H24.9994H24.9993H24.9992H24.999H24.9989H24.9987H24.9986H24.9985H24.9983H24.9982H24.9981H24.9979H24.9978H24.9976H24.9975H24.9974H24.9972H24.9971H24.997H24.9968H24.9967H24.9966H24.9964H24.9963H24.9962H24.996H24.9959H24.9958H24.9956H24.9955H24.9954H24.9952H24.9951H24.995H24.9948H24.9947H24.9946L24.9945 14.5271L24.9936 14.5272C21.039 14.5918 17.8853 17.7269 17.9519 21.5342C17.863 25.3411 20.9606 28.4979 24.904 28.6271L24.904 28.6271H24.9056H24.9058H24.906H24.9062H24.9064H24.9066H24.9068H24.907H24.9072H24.9074H24.9076H24.9078H24.908H24.9082H24.9083H24.9085H24.9087H24.9089H24.9091H24.9093H24.9095H24.9097H24.9099H24.9101H24.9102H24.9104H24.9106H24.9108H24.911H24.9112H24.9114H24.9116H24.9118H24.9119H24.9121H24.9123H24.9125H24.9127H24.9129H24.9131H24.9132H24.9134H24.9136H24.9138H24.914H24.9142H24.9144H24.9145H24.9147H24.9149H24.9151H24.9153H24.9155H24.9156H24.9158H24.916H24.9162H24.9164H24.9166H24.9167H24.9169H24.9171H24.9173H24.9175H24.9176H24.9178H24.918H24.9182H24.9184H24.9186H24.9187H24.9189H24.9191H24.9193H24.9194H24.9196H24.9198H24.92H24.9202H24.9203H24.9205H24.9207H24.9209H24.9211H24.9212H24.9214H24.9216H24.9218H24.9219H24.9221H24.9223H24.9225H24.9226H24.9228H24.923H24.9232H24.9233H24.9235H24.9237H24.9239H24.924H24.9242H24.9244H24.9246H24.9247H24.9249H24.9251H24.9253H24.9254H24.9256H24.9258H24.926H24.9261H24.9263H24.9265H24.9266H24.9268H24.927H24.9272H24.9273H24.9275H24.9277H24.9279H24.928H24.9282H24.9284H24.9285H24.9287H24.9289H24.9291H24.9292H24.9294H24.9296H24.9297H24.9299H24.9301H24.9302H24.9304H24.9306H24.9308H24.9309H24.9311H24.9313H24.9314H24.9316H24.9318H24.9319H24.9321H24.9323H24.9324H24.9326H24.9328H24.9329H24.9331H24.9333H24.9334H24.9336H24.9338H24.9339H24.9341H24.9343H24.9345H24.9346H24.9348H24.935H24.9351H24.9353H24.9355H24.9356H24.9358H24.936H24.9361H24.9363H24.9365H24.9366H24.9368H24.9369H24.9371H24.9373H24.9374H24.9376H24.9378H24.9379H24.9381H24.9383H24.9384H24.9386H24.9388H24.9389H24.9391H24.9393H24.9394H24.9396H24.9398H24.9399H24.9401H24.9403H24.9404H24.9406H24.9407H24.9409H24.9411H24.9412H24.9414H24.9416H24.9417H24.9419H24.9421H24.9422H24.9424H24.9425H24.9427H24.9429H24.943H24.9432H24.9434H24.9435H24.9437H24.9439H24.944H24.9442H24.9443H24.9445H24.9447H24.9448H24.945H24.9452H24.9453H24.9455H24.9457H24.9458H24.946H24.9461H24.9463H24.9465H24.9466H24.9468H24.947H24.9471H24.9473H24.9474H24.9476H24.9478H24.9479H24.9481H24.9483H24.9484H24.9486H24.9487H24.9489H24.9491H24.9492H24.9494H24.9496H24.9497H24.9499H24.95H24.9502H24.9504H24.9505H24.9507H24.9509H24.951H24.9512H24.9513H24.9515H24.9517H24.9518H24.952H24.9522H24.9523H24.9525H24.9526H24.9528H24.953H24.9531H24.9533H24.9535H24.9536H24.9538H24.954H24.9541H24.9543H24.9544H24.9546H24.9548H24.9549H24.9551H24.9553H24.9554H24.9556H24.9557H24.9559H24.9561H24.9562H24.9564H24.9566H24.9567H24.9569H24.9571H24.9572H24.9574H24.9575H24.9577H24.9579H24.958H24.9582H24.9584H24.9585H24.9587H24.9589H24.959H24.9592H24.9593H24.9595H24.9597H24.9598H24.96H24.9602H24.9603H24.9605H24.9607H24.9608H24.961H24.9612H24.9613H24.9615H24.9617H24.9618H24.962H24.9621H24.9623H24.9625H24.9626H24.9628H24.963H24.9631H24.9633H24.9635H24.9636H24.9638H24.964H24.9641H24.9643H24.9645H24.9646H24.9648H24.965H24.9651H24.9653H24.9655H24.9656H24.9658H24.966H24.9661H24.9663H24.9665H24.9666H24.9668H24.967H24.9671H24.9673H24.9675H24.9676H24.9678H24.968H24.9682H24.9683H24.9685H24.9687H24.9688H24.969H24.9692H24.9693H24.9695H24.9697H24.9698H24.97H24.9702H24.9704H24.9705H24.9707H24.9709H24.971H24.9712H24.9714H24.9716H24.9717H24.9719H24.9721H24.9722H24.9724H24.9726H24.9728H24.9729H24.9731H24.9733H24.9734H24.9736H24.9738H24.974H24.9741H24.9743H24.9745H24.9747H24.9748H24.975H24.9752H24.9753H24.9755H24.9757H24.9759H24.976H24.9762H24.9764H24.9766H24.9767H24.9769H24.9771H24.9773H24.9774H24.9776H24.9778H24.978H24.9782H24.9783H24.9785H24.9787H24.9789H24.979H24.9792H24.9794H24.9796H24.9797H24.9799H24.9801H24.9803H24.9805H24.9806H24.9808H24.981H24.9812H24.9814H24.9815H24.9817H24.9819H24.9821H24.9823H24.9824H24.9826H24.9828H24.983H24.9832H24.9833H24.9835H24.9837H24.9839H24.9841H24.9843H24.9844H24.9846H24.9848H24.985H24.9852H24.9854H24.9855H24.9857H24.9859H24.9861H24.9863H24.9865H24.9867H24.9868H24.987H24.9872H24.9874H24.9876H24.9878H24.988H24.9881H24.9883H24.9885H24.9887H24.9889H24.9891H24.9893H24.9895H24.9897H24.9898H24.99H24.9902H24.9904H24.9906H24.9908H24.991H24.9912H24.9914H24.9916H24.9917H24.9919H24.9921H24.9923H24.9925H24.9927H24.9929H24.9931H24.9933H24.9935H24.9937H24.9939H24.9941H24.9943L24.9945 28.6272ZM30.7938 21.5871L30.7938 21.5884C30.8268 24.727 28.2317 27.2961 24.9725 27.3498C21.7133 27.2643 19.1402 24.6633 19.2062 21.5354L19.2062 21.5354V21.5343V21.5341V21.5338V21.5336V21.5333V21.5331V21.5328V21.5326V21.5323V21.5321V21.5318V21.5316V21.5313V21.5311V21.5309V21.5306V21.5304V21.5301V21.5299V21.5296V21.5294V21.5291V21.5289V21.5286V21.5284V21.5281V21.5279V21.5277V21.5274V21.5272V21.5269V21.5267V21.5264V21.5262V21.5259V21.5257V21.5255V21.5252V21.525V21.5247V21.5245V21.5243V21.524V21.5238V21.5235V21.5233V21.523V21.5228V21.5226V21.5223V21.5221V21.5218V21.5216V21.5214V21.5211V21.5209V21.5206V21.5204V21.5202V21.5199V21.5197V21.5195V21.5192V21.519V21.5187V21.5185V21.5183V21.518V21.5178V21.5176V21.5173V21.5171V21.5169V21.5166V21.5164V21.5161V21.5159V21.5157V21.5154V21.5152V21.515V21.5147V21.5145V21.5143V21.514V21.5138V21.5136V21.5133V21.5131V21.5129V21.5126V21.5124V21.5122V21.5119V21.5117V21.5115V21.5112V21.511V21.5108V21.5106V21.5103V21.5101V21.5099V21.5096V21.5094V21.5092V21.5089V21.5087V21.5085V21.5082V21.508V21.5078V21.5076V21.5073V21.5071V21.5069V21.5066V21.5064V21.5062V21.506V21.5057V21.5055V21.5053V21.505V21.5048V21.5046V21.5044V21.5041V21.5039V21.5037V21.5034V21.5032V21.503V21.5028V21.5025V21.5023V21.5021V21.5019V21.5016V21.5014V21.5012V21.501V21.5007V21.5005V21.5003V21.5001V21.4998V21.4996V21.4994V21.4992V21.4989V21.4987V21.4985V21.4983V21.498V21.4978V21.4976V21.4974V21.4971V21.4969V21.4967V21.4965V21.4962V21.496V21.4958V21.4956V21.4953V21.4951V21.4949V21.4947V21.4944V21.4942V21.494V21.4938V21.4936V21.4933V21.4931V21.4929V21.4927V21.4924V21.4922V21.492V21.4918V21.4916V21.4913V21.4911V21.4909V21.4907V21.4904V21.4902V21.49V21.4898V21.4896V21.4893V21.4891V21.4889V21.4887V21.4885V21.4882V21.488V21.4878V21.4876V21.4873V21.4871V21.4869V21.4867V21.4865V21.4862V21.486V21.4858V21.4856V21.4854V21.4851V21.4849V21.4847V21.4845V21.4843V21.484V21.4838V21.4836V21.4834V21.4832V21.4829V21.4827V21.4825V21.4823V21.4821V21.4818V21.4816V21.4814V21.4812V21.481V21.4807V21.4805V21.4803V21.4801V21.4799V21.4796V21.4794V21.4792V21.479V21.4788V21.4785V21.4783V21.4781V21.4779V21.4777V21.4774V21.4772V21.477V21.4768V21.4766V21.4763V21.4761V21.4759V21.4757V21.4755V21.4752V21.475V21.4748V21.4746V21.4744V21.4741V21.4739V21.4737V21.4735V21.4733V21.4731V21.4728V21.4726V21.4724V21.4722V21.472V21.4717V21.4715V21.4713V21.4711V21.4709V21.4706V21.4704V21.4702V21.47V21.4698V21.4695V21.4693V21.4691V21.4689V21.4687V21.4684V21.4682V21.468V21.4678V21.4676V21.4673V21.4671V21.4669V21.4667V21.4665V21.4662V21.466V21.4658V21.4656V21.4654V21.4651V21.4649V21.4647V21.4645V21.4642V21.464V21.4638V21.4636V21.4634V21.4631V21.4629V21.4627V21.4625V21.4623V21.462V21.4618V21.4616V21.4614V21.4612V21.4609V21.4607V21.4605V21.4603V21.46V21.4598V21.4596V21.4594V21.4592V21.4589V21.4587V21.4585V21.4583V21.458V21.4578V21.4576V21.4574V21.4572V21.4569V21.4567V21.4565V21.4563V21.456V21.4558V21.4556V21.4554V21.4551V21.4549V21.4547V21.4545V21.4542V21.454V21.4538V21.4536V21.4534V21.4531V21.4529V21.4527V21.4525V21.4522V21.452V21.4518V21.4516V21.4513V21.4511V21.4509V21.4507V21.4504V21.4502V21.45V21.4497V21.4495V21.4493V21.4491V21.4488V21.4486V21.4484V21.4482V21.4479V21.4477V21.4475V21.4473V21.447V21.4468V21.4466V21.4463V21.4461V21.4459V21.4457V21.4454V21.4452V21.445V21.4447V21.4445V21.4443V21.4441V21.4438V21.4436V21.4434V21.4431V21.4429V21.4427V21.4425V21.4422V21.442V21.4418V21.4415V21.4413V21.4411V21.4408V21.4406V21.4404V21.4401V21.4399V21.4397V21.4395V21.4392V21.439V21.4388V21.4385V21.4383V21.4381V21.4378V21.4376V21.4374V21.4371V21.4369V21.4367V21.4364V21.4362V21.436V21.4357V21.4355V21.4353V21.435V21.4348V21.4345V21.4343V21.4341V21.4338V21.4336V21.4334V21.4331V21.4329V21.4327V21.4324V21.4322V21.4319V21.4317V21.4315V21.4312V21.431V21.4308V21.4305V21.4303V21.43V21.4298V21.4296V21.4293V21.4291V21.4288V21.4286V21.4284V21.4281V21.4279V21.4276V21.4274V21.4272V21.4269V21.4267V21.4264V21.4262V21.426V21.4257V21.4255V21.4252V21.425V21.4247V21.4245V21.4243V21.424V21.4238V21.4235V21.4233V21.423V21.4228V21.4225V21.4223V21.422V21.4218V21.4216V21.4213V21.4211V21.4208V21.4206V21.4203V21.4201V21.4198V21.4196V21.4193V21.4191V21.4188V21.4186V21.4183V21.4181V21.4178V21.4176V21.4173V21.4171V21.4169C19.2504 18.2784 21.9226 15.7625 25.1815 15.8045C28.3635 15.9642 30.8378 18.5226 30.7938 21.5871Z" fill="#1F2430" stroke="black" stroke-width="0.1"/>
</svg>
