<svg width="21" height="26" viewBox="0 0 21 26" fill="none" xmlns="http://www.w3.org/2000/svg">
<path d="M2.93438 25.1575C2.02257 25.1575 1.30508 24.8774 0.752015 24.2878C0.348428 23.8603 0.13916 23.3444 0.13916 22.7695V6.1274C0.13916 4.80075 0.901492 3.81313 2.18699 3.4741C2.4411 3.41514 2.71016 3.4004 2.93438 3.4004L4.90747 3.38565V2.64863C4.90747 2.08849 5.28116 1.95582 5.58012 1.94108C5.86412 1.92634 6.16308 1.92634 6.46203 1.92634C6.71614 1.92634 6.9852 1.92634 7.23931 1.9116C7.80732 0.938721 8.52481 0.378579 9.52631 0.186952L10.468 0.157471L10.7969 0.245914C11.0211 0.304876 11.2453 0.363839 11.4546 0.452282C12.0824 0.717612 12.5308 1.17457 12.7998 1.80841C12.8447 1.9116 12.8746 1.92634 12.9643 1.92634C13.1885 1.92634 13.3978 1.9116 13.607 1.9116H14.3544C14.474 1.9116 14.5936 1.9116 14.7132 1.92634C15.1466 1.9853 15.341 2.22115 15.341 2.66337V3.37091H16.1631C16.7161 3.37091 17.2692 3.37091 17.8223 3.41514C18.8686 3.48884 19.9149 4.47646 20.0644 5.53778C20.0943 5.77363 20.1093 6.00948 20.1093 6.24533V11.0802C20.1093 14.8686 20.0943 18.6421 20.1392 22.4305C20.1392 23.1822 19.885 23.8456 19.3918 24.3467C18.8836 24.8479 18.181 25.128 17.4037 25.128H2.93438V25.1575ZM2.94932 4.85971C2.08236 4.85971 1.61898 5.33141 1.61898 6.18636V22.7548C1.63393 23.0791 1.79835 23.3296 2.08236 23.4918C2.36636 23.6539 2.69521 23.6834 2.99417 23.6834H17.2393C17.3589 23.6834 17.4934 23.6834 17.613 23.6687C18.3006 23.595 18.6294 23.2265 18.6294 22.5484V6.06844C18.6294 5.40511 18.181 4.91867 17.5383 4.87445C17.2543 4.85971 16.9852 4.85971 16.7012 4.85971H15.3559V5.95051C15.3559 6.62858 15.0569 6.92339 14.3843 6.92339H5.83423C5.19148 6.92339 4.89252 6.62858 4.89252 6.00948V4.85971H3.87608H2.94932ZM13.8312 5.44933V3.4004H12.5906C11.9179 3.4004 11.7236 3.25299 11.5143 2.63389C11.32 2.04426 10.8118 1.61679 10.2288 1.57257H10.2139C9.42167 1.57257 8.85366 2.00004 8.62944 2.64863C8.43512 3.25299 8.2408 3.4004 7.58311 3.4004H6.41719V5.44933H13.8312ZM5.08684 21.4871C4.87758 21.4871 4.68326 21.3839 4.44409 21.1333L4.17503 20.868C3.92092 20.6174 3.66681 20.3668 3.4426 20.1162C3.29312 19.9393 3.18849 19.7035 3.15859 19.4824C3.1287 19.2023 3.30807 18.937 3.60702 18.8338C3.69671 18.8043 3.77145 18.7895 3.86113 18.7895C4.05545 18.7895 4.23483 18.8633 4.4142 19.0254L5.14663 19.6887L6.82077 18.1115C7.01509 17.9346 7.20941 17.8462 7.41868 17.8462C7.59805 17.8462 7.76248 17.9051 7.91195 18.0378C8.21091 18.2884 8.25575 18.6864 8.03154 18.9959C7.97175 19.0696 7.91195 19.1286 7.85216 19.1875L5.72959 21.1628C5.47548 21.3839 5.28116 21.4871 5.08684 21.4871ZM9.76547 20.75C9.64589 20.75 9.51136 20.75 9.39178 20.7206C9.03303 20.6616 8.79387 20.3815 8.79387 20.0278C8.79387 19.674 9.01808 19.3939 9.37683 19.3202C9.48146 19.2907 9.60104 19.2907 9.72062 19.2907H16.2229C16.3424 19.2907 16.5368 19.3055 16.7012 19.3792C16.9852 19.4971 17.1646 19.8066 17.1197 20.1309C17.0749 20.4552 16.8507 20.6763 16.5218 20.7353C16.4022 20.75 16.2827 20.7648 16.1631 20.7648H12.9643L9.76547 20.75ZM5.08684 16.7848C4.87758 16.7848 4.68326 16.6816 4.44409 16.4458C4.1003 16.1068 3.77145 15.7677 3.4426 15.4287C3.33796 15.3255 3.27817 15.2371 3.23333 15.1486C3.05396 14.8538 3.1287 14.4558 3.36786 14.2495C3.48744 14.1315 3.66681 14.0726 3.83124 14.0726C3.98071 14.0726 4.14514 14.1168 4.26472 14.2052C4.33946 14.2642 4.4142 14.3232 4.47399 14.3821L5.11674 14.9865L6.79088 13.4092C7.00015 13.2176 7.19447 13.1292 7.40373 13.1292C7.55321 13.1292 7.70269 13.1734 7.83722 13.2766C8.00164 13.3945 8.12122 13.5714 8.15112 13.7483C8.18101 13.9252 8.13617 14.1168 8.00164 14.2789C7.94185 14.3526 7.86711 14.4263 7.80732 14.4853L5.71465 16.4458C5.47548 16.6816 5.28116 16.7848 5.08684 16.7848ZM9.64589 16.0331C9.36188 16.0331 9.13766 15.9446 8.97324 15.7972C8.83871 15.6645 8.77892 15.4729 8.79387 15.2666C8.80882 14.8686 9.10777 14.5885 9.54125 14.5737C9.72062 14.5737 10.3933 14.5737 10.3933 14.5737H16.2677C16.5069 14.5737 16.7909 14.6032 16.9852 14.8833C17.1197 15.0897 17.1646 15.3255 17.0749 15.5466C17.0001 15.7677 16.8058 15.9299 16.5816 15.9888C16.4919 16.0183 16.3723 16.0331 16.2528 16.0331H12.9493H9.64589ZM5.08684 12.0678C4.87758 12.0678 4.68326 11.9647 4.44409 11.7141L4.14514 11.434C3.90598 11.1982 3.65187 10.9476 3.42765 10.6822C3.27817 10.5201 3.17354 10.2842 3.14364 10.0631C3.11375 9.76832 3.29312 9.51773 3.59207 9.41455C3.68176 9.38507 3.7565 9.37033 3.84619 9.37033C4.04051 9.37033 4.21988 9.44403 4.39925 9.60617L5.13169 10.2695L6.80583 8.69226C7.00015 8.51537 7.19447 8.41219 7.40373 8.41219C7.58311 8.41219 7.74753 8.47115 7.89701 8.60382C8.18101 8.85441 8.2408 9.2524 8.01659 9.56195C7.9568 9.63566 7.89701 9.70936 7.83722 9.76832L5.71465 11.7436C5.47548 11.9794 5.28116 12.0678 5.08684 12.0678ZM9.73557 11.3308C9.61599 11.3308 9.45157 11.3308 9.28714 11.2719C8.98819 11.1982 8.77892 10.9033 8.79387 10.5791C8.80882 10.2548 9.01808 9.98943 9.33199 9.91573C9.45157 9.8715 9.57115 9.85676 9.70568 9.85676H16.2079C16.3723 9.85676 16.5069 9.8715 16.6414 9.91573C16.9404 10.0042 17.1496 10.3285 17.1347 10.6528C17.1048 10.977 16.8656 11.2424 16.5517 11.3013C16.4321 11.3161 16.3126 11.3308 16.178 11.3308H14.5637H9.73557Z" fill="#1F2430"/>
</svg>
