<svg width="50" height="51" viewBox="0 0 50 51" fill="none" xmlns="http://www.w3.org/2000/svg">
<path d="M0 25.5771C0 11.77 11.1929 0.577148 25 0.577148H45C47.7614 0.577148 50 2.81572 50 5.57715V25.5771C50 39.3843 38.8071 50.5771 25 50.5771C11.1929 50.5771 0 39.3843 0 25.5771Z" fill="#E5F0CF"/>
<path d="M32.7 12.5771H17.1625C15.375 12.5771 14 13.9675 14 15.775V35.3793C14 37.1868 15.375 38.5771 17.1625 38.5771H32.975C34.625 38.5771 36 37.1868 36 35.5183V15.775C36 14.1066 34.4875 12.5771 32.7 12.5771ZM20.6 13.8285H29.4V16.7483C29.4 17.1654 29.125 17.4435 28.7125 17.4435H21.15C20.875 17.4435 20.6 17.1654 20.6 16.7483V13.8285ZM34.625 35.6574C34.625 36.6306 33.9375 37.3258 32.975 37.3258H17.1625C16.0625 37.3258 15.2375 36.4916 15.2375 35.3793V15.775C15.2375 14.6627 16.0625 13.8285 17.1625 13.8285H19.3625V16.7483C19.3625 17.8606 20.1875 18.6948 21.2875 18.6948H28.7125C29.8125 18.6948 30.6375 17.8606 30.6375 16.7483V13.8285H32.8375C33.9375 13.8285 34.7625 14.6627 34.7625 15.775L34.625 35.6574Z" fill="black" stroke="black" stroke-width="0.3"/>
<path d="M19.6667 24.5771H24.3333C24.7333 24.5771 25 24.3771 25 24.0771C25 23.7771 24.7333 23.5771 24.3333 23.5771H19.6667C19.2667 23.5771 19 23.7771 19 24.0771C19.1333 24.3771 19.4 24.5771 19.6667 24.5771Z" fill="black" stroke="black" stroke-width="0.3"/>
<path d="M30.3548 27.5771H19.6452C19.2581 27.5771 19 27.7771 19 28.0771C19 28.3771 19.2581 28.5771 19.6452 28.5771H30.3548C30.7419 28.5771 31 28.3771 31 28.0771C31 27.7771 30.6129 27.5771 30.3548 27.5771Z" fill="black" stroke="black" stroke-width="0.3"/>
<path d="M30.3548 31.5771H19.6452C19.2581 31.5771 19 31.7771 19 32.0771C19 32.3771 19.2581 32.5771 19.6452 32.5771H30.3548C30.7419 32.5771 31 32.3771 31 32.0771C31 31.7771 30.6129 31.5771 30.3548 31.5771Z" fill="black" stroke="black" stroke-width="0.3"/>
</svg>
