<svg width="50" height="51" viewBox="0 0 50 51" fill="none" xmlns="http://www.w3.org/2000/svg">
<path d="M0 25.5771C0 11.77 11.1929 0.577148 25 0.577148H45C47.7614 0.577148 50 2.81572 50 5.57715V25.5771C50 39.3843 38.8071 50.5771 25 50.5771C11.1929 50.5771 0 39.3843 0 25.5771Z" fill="#CFE6F0"/>
<path d="M31.9507 13.3032H18.0643C16.3752 13.3032 15 14.7195 15 16.4745V34.1474C15 34.9941 15.3139 35.7792 15.8819 36.3796C16.4499 36.9799 17.2272 37.3186 18.0493 37.3186H32.13C33.7145 37.3186 35 35.9793 35 34.3475V16.4745C35.0149 14.7349 33.6398 13.3186 31.9507 13.3032ZM28.6622 17.3212C28.6622 17.5059 28.5127 17.6599 28.3333 17.6599H21.6816C21.5919 17.6907 21.5022 17.6291 21.4425 17.5675C21.3827 17.5059 21.3378 17.4135 21.3378 17.3366V14.9504H28.6622V17.3212ZM21.6667 19.2917H28.3034C28.3184 19.2917 28.3184 19.2917 28.3333 19.2917C28.8416 19.2917 29.3049 19.0915 29.6786 18.7375C30.0523 18.368 30.2466 17.8754 30.2616 17.3366V14.9504H31.9507C32.7578 14.9504 33.4155 15.6278 33.4155 16.4591V34.3475C33.4155 34.7016 33.296 35.0248 33.0568 35.2865C32.8176 35.5329 32.5037 35.6714 32.145 35.6868H18.0643C17.2571 35.6868 16.5994 34.9941 16.5994 34.1627V16.4745C16.5845 15.6432 17.2422 14.9504 18.0643 14.935H19.7534V17.3212C19.7534 18.4142 20.6203 19.2917 21.6667 19.2917Z" fill="#1F2430"/>
<path d="M19.1699 24.9414C19.1699 25.3878 19.5287 25.7573 19.9621 25.7573H24.282C24.7155 25.7573 25.0743 25.3878 25.0743 24.9414C25.0743 24.495 24.7305 24.1255 24.282 24.1255H19.9621C19.5287 24.1255 19.1699 24.4796 19.1699 24.9414Z" fill="#1F2430"/>
<path d="M19.1699 28.7131C19.1699 29.1595 19.5287 29.529 19.9621 29.529H30.0369C30.4704 29.529 30.8291 29.1595 30.8291 28.7131C30.8291 28.2667 30.4704 27.8972 30.0369 27.8972H19.9621C19.5287 27.8818 19.1699 28.2513 19.1699 28.7131Z" fill="#1F2430"/>
<path d="M30.0369 31.6536H19.9621C19.5287 31.6536 19.1699 32.023 19.1699 32.4695C19.1699 32.9159 19.5287 33.2854 19.9621 33.2854H30.0369C30.4704 33.2854 30.8291 32.9159 30.8291 32.4695C30.8291 32.023 30.4853 31.6536 30.0369 31.6536Z" fill="#1F2430"/>
<path d="M19.1699 24.9414C19.1699 25.3878 19.5287 25.7573 19.9621 25.7573H24.282C24.7155 25.7573 25.0743 25.3878 25.0743 24.9414C25.0743 24.495 24.7305 24.1255 24.282 24.1255H19.9621C19.5287 24.1255 19.1699 24.495 19.1699 24.9414Z" fill="#1F2430"/>
<path d="M19.1699 28.7131C19.1699 29.1596 19.5287 29.529 19.9621 29.529H30.0369C30.4704 29.529 30.8291 29.1596 30.8291 28.7131C30.8291 28.2667 30.4704 27.8972 30.0369 27.8972H19.9621C19.5287 27.8972 19.1699 28.2667 19.1699 28.7131Z" fill="#1F2430"/>
</svg>
