<svg width="50" height="51" viewBox="0 0 50 51" fill="none" xmlns="http://www.w3.org/2000/svg">
<path d="M0 25.5771C0 11.77 11.1929 0.577148 25 0.577148H45C47.7614 0.577148 50 2.81572 50 5.57715V25.5771C50 39.3843 38.8071 50.5771 25 50.5771C11.1929 50.5771 0 39.3843 0 25.5771Z" fill="#FEE1D4"/>
<path d="M30.4523 22.1634L29.5805 21.1547C29.5078 21.0771 29.5078 21.0771 29.4352 21.0771C29.3625 21.0771 29.3625 21.0771 29.2898 21.1547L23.0418 27.8271L20.7896 25.422C20.7169 25.3444 20.5716 25.3444 20.499 25.422L19.5545 26.4306C19.4818 26.5082 19.4818 26.6634 19.5545 26.7409L22.3879 29.7668C22.5332 29.922 22.7512 30.0771 22.9691 30.0771C23.1871 30.0771 23.405 29.922 23.5503 29.7668L30.3796 22.4737C30.5249 22.3185 30.5249 22.2409 30.4523 22.1634Z" fill="#1F2430"/>
<path d="M25 15.5737C30.5137 15.5737 34.9247 20.0635 34.9247 25.5771C34.9247 31.0908 30.4349 35.5018 24.9212 35.5018C19.4863 35.5018 14.9966 31.0908 14.9966 25.5771C14.9966 22.8991 16.0205 20.3785 17.911 18.5669C19.8014 16.6765 22.3219 15.5737 25 15.5737ZM25 14.0771C18.6199 14.0771 13.5 19.197 13.5 25.5771C13.5 31.9573 18.6199 37.0771 25 37.0771C31.3801 37.0771 36.5 31.9573 36.5 25.5771C36.5 19.197 31.3801 14.0771 25 14.0771Z" fill="#1F2430"/>
</svg>
