<svg width="29" height="32" viewBox="0 0 29 32" fill="none" xmlns="http://www.w3.org/2000/svg">
<path opacity="0.5" d="M12.8972 9.23364C14.9386 8.56887 16.8418 7.5255 18.5077 6.15194C21.0972 3.95072 24.5499 3.07024 26.7078 9.23364C28.8657 15.397 30.1605 26.4031 20.6657 29.9251C11.1708 33.447 5.12867 29.9251 2.10759 24.2019C-0.913494 18.4787 -0.481911 12.7556 5.12867 10.9946C10.7392 9.23364 11.6024 9.67388 12.8972 9.23364Z" fill="#29BDE4"/>
<path d="M8.23668 21.3299C7.20876 21.3299 6.375 20.4962 6.375 19.4797V2.85025C6.375 1.83376 7.20876 1 8.23668 1H16.5742C17.1681 1 17.7278 1.22843 18.1504 1.65102L21.474 4.9632C21.8966 5.38579 22.125 5.94543 22.125 6.53934V19.4797C22.125 20.5076 21.2912 21.3299 20.2633 21.3299H8.23668ZM8.23668 2.09645C7.81409 2.09645 7.47145 2.43909 7.47145 2.86168V19.4797C7.47145 19.9023 7.81409 20.2449 8.23668 20.2449H20.2633C20.6859 20.2449 21.0286 19.9023 21.0286 19.4797V6.53934C21.0286 6.23096 20.9143 5.95685 20.6973 5.73985L17.3737 2.42766C17.1681 2.21066 16.8826 2.09645 16.5742 2.09645H8.23668ZM10.3839 15.0482C10.0298 15.0482 9.78997 14.8312 9.78997 14.5228C9.78997 14.2145 10.0298 13.9975 10.3839 13.9975H14.7468C15.1009 13.9975 15.3407 14.2145 15.3407 14.5228C15.3407 14.8312 15.1009 15.0482 14.7354 15.0482H13.9131H10.3839ZM10.4067 11.6104C10.0298 11.6104 9.78997 11.4048 9.78997 11.085C9.78997 10.9365 9.83566 10.8109 9.92703 10.7195C10.0412 10.6053 10.2011 10.5482 10.3953 10.5482H17.7392C18.0933 10.5482 18.3331 10.7652 18.3445 11.0736C18.3445 11.2221 18.2989 11.3363 18.2075 11.4391C18.0933 11.5533 17.9334 11.6104 17.7392 11.6104C17.4651 11.6104 10.9549 11.6104 10.9549 11.6104H10.4067ZM10.3839 8.17259C10.0298 8.17259 9.78997 7.95558 9.78997 7.64721C9.78997 7.32741 10.0298 7.12183 10.3839 7.12183H17.7506C18.1047 7.12183 18.3445 7.33883 18.3445 7.64721C18.3445 7.967 18.1047 8.17259 17.7506 8.17259H14.073H10.3839Z" fill="#1F2430" stroke="#1F2430" stroke-width="0.2"/>
</svg>
