<svg width="50" height="51" viewBox="0 0 50 51" fill="none" xmlns="http://www.w3.org/2000/svg">
<path d="M0 25.5771C0 11.77 11.1929 0.577148 25 0.577148H45C47.7614 0.577148 50 2.81572 50 5.57715V25.5771C50 39.3843 38.8071 50.5771 25 50.5771C11.1929 50.5771 0 39.3843 0 25.5771Z" fill="#FFF4D9"/>
<path d="M33.1519 35.6949C32.9399 35.6793 32.7279 35.6949 32.5159 35.6949C32.2386 35.6949 31.9451 35.6949 31.6515 35.6949C31.6515 34.8517 31.6515 34.0397 31.6515 33.2278C31.6678 31.9629 31.3416 30.7918 30.6893 29.6988C29.9554 28.4496 28.9279 27.419 27.6721 26.6539C26.7914 26.123 26.7751 24.4991 27.6721 23.9994C28.406 23.5622 29.0421 22.9844 29.6129 22.3754C30.9339 20.9389 31.6841 19.2681 31.6678 17.3318C31.6515 16.6136 31.6678 15.9109 31.6678 15.1926V14.9116C31.7983 14.9116 31.8961 14.9116 31.994 14.9116C32.418 14.9116 32.8421 14.9272 33.2661 14.8959C33.6575 14.8803 33.9511 14.568 34 14.1933C34.0489 13.8341 33.8206 13.4594 33.4455 13.3501C33.2824 13.3188 33.1193 13.3032 32.9562 13.3032C27.3133 13.3032 21.6704 13.3032 16.0438 13.3032C15.9459 13.3032 15.8644 13.3032 15.7665 13.3032C15.3425 13.3501 15 13.6936 15 14.1152C15 14.5368 15.3262 14.8803 15.7665 14.9116C16.2069 14.9272 16.6309 14.9116 17.0712 14.9116C17.1528 14.9116 17.2506 14.9272 17.3485 14.9272C17.3485 15.7704 17.3485 16.5823 17.3485 17.3943C17.3322 18.6591 17.6584 19.8302 18.3107 20.9233C19.0446 22.1724 20.0721 23.203 21.3279 23.9682C22.2086 24.4991 22.2249 26.123 21.3279 26.6227C20.5777 27.0443 19.9579 27.622 19.3871 28.231C18.0661 29.6676 17.3159 31.3384 17.3485 33.2746C17.3648 33.9929 17.3485 34.6955 17.3485 35.4138C17.3485 35.4919 17.3485 35.5856 17.3322 35.6793C17.2017 35.6793 17.1039 35.6793 16.9897 35.6793C16.5657 35.6793 16.1579 35.6793 15.7502 35.6949C15.3751 35.7105 15.0815 35.9916 15.0163 36.3507C14.9511 36.6786 15.1305 37.0222 15.424 37.1939C15.4893 37.2251 15.5708 37.272 15.6361 37.3032H33.364C33.3966 37.2876 33.4292 37.2564 33.4618 37.2408C33.8532 37.069 34.0489 36.7099 33.9837 36.3507C33.9021 35.9603 33.5923 35.7105 33.1519 35.6949ZM21.0833 35.6793C21.8987 34.1178 23.1708 32.9779 24.5082 31.838C25.8292 32.9623 27.1013 34.1178 27.933 35.6793H21.0833ZM29.6455 35.5387C29.3193 34.5394 28.7159 33.7118 28.0309 32.9155C27.1502 31.9161 26.1717 31.0104 25.0953 30.1985C24.7202 29.9018 24.2961 29.9018 23.9373 30.1829C22.6 31.2134 21.3605 32.3533 20.3657 33.6962C19.9579 34.2427 19.5991 34.8361 19.3871 35.4919C19.3219 35.6793 19.2403 35.7105 18.9794 35.6324C19.0446 34.4301 19.0283 33.2278 19.1914 32.041C19.3545 30.8543 20.0395 29.8862 20.9202 29.0586C21.3931 28.6214 21.8987 28.1998 22.4369 27.8406C24.0026 26.7944 24.1004 24.2336 22.7631 23.0313C22.3554 22.6721 21.8661 22.3754 21.4421 22.0319C20.5777 21.3136 19.8438 20.486 19.4361 19.4399C19.273 19.0183 19.1099 18.581 19.0936 18.1282C19.0283 17.082 19.0609 16.0202 19.0609 14.9272H29.9227C29.9391 14.9428 29.9554 14.9584 29.9554 14.974C29.9391 16.0827 29.9554 17.2069 29.8738 18.3156C29.7923 19.2993 29.303 20.1425 28.667 20.9076C28.0798 21.6415 27.3785 22.2349 26.5957 22.7502C24.9811 23.7964 24.8996 26.3728 26.2532 27.5908C26.6609 27.9499 27.1502 28.2466 27.5743 28.5901C28.5528 29.4021 29.3356 30.3702 29.7107 31.5726C29.8412 31.9786 29.9227 32.4002 29.9391 32.8062C29.9717 33.743 29.9554 34.6955 29.9554 35.6481C29.8249 35.6949 29.6944 35.7417 29.6455 35.5387ZM24.5082 24.4522C24.9485 24.4522 25.3073 24.1087 25.3399 23.6871C25.3562 23.4373 25.3399 23.1874 25.3399 22.9376C25.3399 22.6877 25.3562 22.4379 25.3399 22.1881C25.3073 21.7508 24.9485 21.4073 24.4918 21.4229C24.0515 21.4229 23.6764 21.7508 23.6601 22.1881C23.6438 22.6877 23.6438 23.1874 23.6601 23.6871C23.6764 24.1243 24.0515 24.4678 24.5082 24.4522ZM24.4918 27.1224C24.0189 27.1224 23.6601 27.4815 23.6601 27.9343C23.6601 28.3872 24.0352 28.7307 24.5082 28.7307C24.9811 28.7307 25.3399 28.3715 25.3399 27.9187C25.3236 27.4815 24.9648 27.1224 24.4918 27.1224Z" fill="#1F2430"/>
</svg>
