<svg width="50" height="51" viewBox="0 0 50 51" fill="none" xmlns="http://www.w3.org/2000/svg">
<path d="M0 25.5771C0 11.77 11.1929 0.577148 25 0.577148H45C47.7614 0.577148 50 2.81572 50 5.57715V25.5771C50 39.3843 38.8071 50.5771 25 50.5771C11.1929 50.5771 0 39.3843 0 25.5771Z" fill="#F9DAF4"/>
<path d="M17.2465 35.5853C17.4096 35.0894 17.4096 34.4282 17.5727 33.9323C17.8988 32.2793 18.225 30.461 18.388 28.808C18.388 28.6427 18.388 28.6427 18.225 28.4774C17.4096 27.6509 16.4312 26.8244 15.6158 25.9979C14.8004 25.3366 14.1481 24.5101 13.3328 23.8489L13.1697 23.6836C12.8435 23.1877 13.0066 22.6918 13.4958 22.6918C13.985 22.6918 14.6374 22.5265 15.2896 22.3612C16.7573 22.1959 18.225 21.8653 19.6926 21.7C19.8557 21.7 20.0188 21.7 20.0188 21.7C20.508 21.7 20.6711 21.5347 20.8341 21.0388C21.8126 19.2205 22.628 17.2369 23.6064 15.4186C23.6064 15.2533 23.7695 15.088 23.9325 14.9227C24.2587 14.5921 24.5848 14.4268 24.911 14.7574L25.0741 14.9227C25.2371 15.088 25.2371 15.2533 25.4002 15.2533C26.2156 17.2369 27.194 19.2205 28.1725 21.2041C28.1725 21.3694 28.4986 21.5347 28.6617 21.5347C30.1293 21.7 31.597 22.0306 33.0647 22.1959L35.1846 22.5265C35.1846 22.5265 35.1846 22.5265 35.3477 22.5265C35.6739 22.5265 36 22.6918 36 23.0224C36 23.353 36 23.6836 35.6739 23.8489C34.2062 25.1713 32.7385 26.6591 31.1078 28.1468C30.7816 28.4774 30.6186 28.808 30.7816 29.3039C31.1078 31.4528 31.4339 33.4364 31.9232 35.5853V35.7506C31.9232 36.4118 31.4339 36.7425 30.9447 36.4118C30.2924 36.0812 29.6401 35.7506 28.9878 35.42C27.6832 34.7588 26.2156 33.9323 24.911 33.2711C24.7479 33.1058 24.5848 33.1058 24.4218 33.2711C22.4649 34.2629 20.508 35.42 18.5511 36.4118C18.5511 36.4118 18.192 36.5771 18.06 36.5771C17.4077 36.5771 17.2465 36.4118 17.2465 35.5853Z" stroke="black" stroke-width="1.6"/>
</svg>
