<svg xmlns="http://www.w3.org/2000/svg" width="65.012" height="67.994" viewBox="0 0 65.012 67.994">
  <path id="Shape_19" data-name="Shape 19" d="M1366.661,746.322a18.612,18.612,0,1,1,16.064.031c.511.146.936.251,1.35.389q18.643,6.251,22.59,25.4a41.1,41.1,0,0,1,.513,5.312c.068.959-.476,1.483-1.448,1.533-.239.013-.478.006-.718.006h-60.643c-1.875,0-2.252-.323-2.191-2.163a31.594,31.594,0,0,1,8.985-21.435,31.974,31.974,0,0,1,14.964-8.88C1366.264,746.477,1366.395,746.419,1366.661,746.322Zm7.98-.981a15.8,15.8,0,0,0,.485-31.6c-8.966-.167-16.28,6.782-16.343,15.33A15.788,15.788,0,0,0,1374.641,745.341Zm-7.924,3.829c-15.048,4.175-21.908,18.147-21.6,27.087h21.18c.065-.214.139-.406.181-.6q1.988-9.449,3.962-18.9a1.407,1.407,0,0,0-.009-.865C1369.221,753.644,1367.971,751.423,1366.717,749.169Zm37.665,27.116c0-.235.014-.378,0-.518-.107-.943-.166-1.9-.341-2.826-2.156-11.481-8.806-19.2-19.791-23.282a.864.864,0,0,0-1.222.436c-1.189,1.815-2.442,3.59-3.612,5.417a1.853,1.853,0,0,0-.231,1.3c1.521,6.191,3.095,12.369,4.624,18.559.169.685.406.943,1.174.938,6.158-.039,12.316-.022,18.474-.022ZM1373.125,757.3l-3.969,18.941h12.035c-.077-.343-.141-.658-.22-.969q-1.919-7.635-3.848-15.268c-.237-.931-.288-2.216-.913-2.659-.654-.464-1.9-.109-2.881-.111A1.234,1.234,0,0,0,1373.125,757.3Zm-3.614-8.768c1.093,1.96,2.145,3.845,3.2,5.731.014.026.037.067.056.066q2.079-.029,4.157-.065l3.739-5.536A29.3,29.3,0,0,0,1369.511,748.533Z" transform="translate(-1342.172 -711.001)" fill="#1ac48b"/>
</svg>
