<svg xmlns="http://www.w3.org/2000/svg" width="18" height="18" viewBox="0 0 18 18">
  <g id="Group_3249" data-name="Group 3249" transform="translate(-20607 10376)">
    <path id="Subtraction_9" data-name="Subtraction 9" d="M15,18H3a3,3,0,0,1-3-3V3A3,3,0,0,1,3,0H15a3,3,0,0,1,3,3V15A3,3,0,0,1,15,18ZM10.778,8.68c.771,0,1.178.574,1.178,1.66v3.924H14.28V10.057c0-2.068-1-3.3-2.677-3.3a2.921,2.921,0,0,0-2.1,1.236V6.927H7.182v7.336H9.508v-4.1a1.694,1.694,0,0,1,.076-.595A1.279,1.279,0,0,1,10.778,8.68ZM3.57,6.919v7.344H5.9V6.919ZM4.748,3.434A1.235,1.235,0,0,0,3.433,4.7,1.233,1.233,0,0,0,4.718,5.964h.015A1.235,1.235,0,0,0,6.049,4.7,1.232,1.232,0,0,0,4.748,3.434Z" transform="translate(20607 -10376)" fill="#0076b7"/>
  </g>
</svg>
