<svg width="50" height="50" viewBox="0 0 50 50" fill="none" xmlns="http://www.w3.org/2000/svg">
<path d="M0 25C0 11.1929 11.1929 0 25 0H45C47.7614 0 50 2.23858 50 5V25C50 38.8071 38.8071 50 25 50C11.1929 50 0 38.8071 0 25Z" fill="#FEE1D4"/>
<g clip-path="url(#clip0_635_7)">
<path d="M24.9087 39C22.4767 39 20.0834 38.3193 17.8058 36.9835C15.2065 35.4422 13.2892 33.2202 12.0925 30.3817C9.69916 24.6661 11.3076 18.1798 16.0686 14.2239C18.5778 12.1431 21.7433 11 24.9859 11C27.7139 11 30.3775 11.7963 32.6936 13.2862C35.1514 14.8661 37.1459 17.4349 38.1881 20.3376C39.0374 22.7266 39.655 26.4899 37.7378 30.8954C37.7249 30.9211 36.7984 33.0147 35.0098 34.8128C32.8738 36.9578 30.8536 37.7413 30.8278 37.7413C28.8076 38.5761 26.826 39 24.9087 39ZM15.6183 17.011C13.4565 19.5541 12.4271 22.7651 12.7231 26.0661C13.019 29.367 14.6017 32.3596 17.1881 34.5046C19.4142 36.3413 22.1036 37.3174 24.9602 37.3174C27.9841 37.3174 30.9694 36.2 32.9639 34.3119L33.0539 34.222L29.644 30.8183L29.5539 30.9211C28.8848 31.6789 27.9197 32.1156 26.8389 32.1541C26.7359 32.1541 26.6459 32.1541 26.5429 32.1541C26.4657 32.1541 26.3756 32.1541 26.2856 32.1541C26.1826 32.1541 26.0797 32.1541 25.9639 32.1541H25.8352V32.2826C25.8352 32.4367 25.8352 32.5908 25.8352 32.7321C25.8352 33.0275 25.8352 33.2972 25.8352 33.567C25.8095 34.1193 25.4749 34.4789 25.0117 34.4789C24.5227 34.4661 24.201 34.1064 24.1753 33.5413C24.1624 33.2716 24.1624 33.0018 24.1753 32.7193C24.1753 32.5908 24.1753 32.4624 24.1753 32.3211V32.1927L24.0595 32.1798C23.8922 32.167 23.7249 32.1541 23.5705 32.1541C23.2359 32.1413 22.9142 32.1156 22.6054 32.0771C20.9455 31.8587 19.5944 30.3174 19.5944 28.6349C19.5944 28.1083 19.9032 27.7358 20.3664 27.7101C20.3793 27.7101 20.405 27.7101 20.4179 27.7101C20.8554 27.7101 21.19 28.044 21.2543 28.5321C21.4345 29.8807 22.0907 30.4587 23.4675 30.4587H24.0852C24.497 30.4587 24.9216 30.4587 25.3334 30.4587C25.7837 30.4587 26.2341 30.4587 26.6973 30.4587C27.9841 30.4459 28.769 29.6752 28.7819 28.378V28.3523C28.7819 28.1725 28.7819 27.9798 28.7819 27.7872C28.7433 26.7083 27.9455 25.9119 26.8775 25.8991C26.4914 25.8991 26.0668 25.8862 25.5521 25.8862C25.269 25.8862 24.9731 25.8862 24.69 25.8862C24.4069 25.8862 24.1109 25.8862 23.8278 25.8862C23.6606 25.8862 23.4933 25.8862 23.3131 25.8862C21.1385 25.8734 19.6201 24.3578 19.6072 22.2C19.6072 21.7505 19.6072 21.3009 19.6716 20.8771L19.6845 20.8128L15.7084 16.8954L15.6183 17.011ZM25.0374 24.2294C25.3977 24.2294 25.7709 24.2422 26.1183 24.2422C26.3499 24.2422 26.5815 24.255 26.8131 24.255C28.8334 24.2807 30.3775 25.8092 30.4032 27.8128C30.4032 28.2239 30.4032 28.6734 30.3517 29.0972L30.3389 29.1615L34.2249 33.0404L34.3793 32.8862C36.2709 30.767 37.3389 27.8385 37.3003 24.833C37.2745 21.5835 35.962 18.5138 33.6201 16.2018C31.3039 13.9156 28.2414 12.6569 24.9859 12.6569C22.0392 12.6569 19.1955 13.7101 16.9694 15.611L16.8664 15.7009L20.3278 19.156L20.4179 19.0532C21.0742 18.2954 22.0521 17.8459 23.1845 17.8073C23.2745 17.8073 23.3646 17.8073 23.4675 17.8073C23.5447 17.8073 23.622 17.8073 23.712 17.8073C23.815 17.8073 23.905 17.8073 24.0209 17.8073H24.1495V17.6789C24.1495 17.5376 24.1495 17.4092 24.1495 17.2807C24.1495 16.9982 24.1495 16.7284 24.1495 16.4587C24.1624 15.855 24.4841 15.4826 24.9859 15.4826C25.4878 15.4826 25.8095 15.855 25.8223 16.4587C25.8352 16.7156 25.8223 16.9725 25.8223 17.255C25.8223 17.3835 25.8223 17.5119 25.8223 17.6404V17.756L25.9381 17.7688C26.0925 17.7817 26.247 17.7817 26.3885 17.7945C26.6973 17.8073 26.9933 17.8202 27.2892 17.8587C29.0778 18.0771 30.4161 19.6055 30.4032 21.4037C30.4032 21.9431 30.0944 22.3028 29.6311 22.3284C29.6183 22.3284 29.5925 22.3284 29.5797 22.3284C29.155 22.3284 28.8076 21.9817 28.7433 21.4936C28.5631 20.0422 27.9326 19.4771 26.4657 19.4771H25.7709C25.3977 19.4771 25.0245 19.4771 24.6514 19.4771C24.2139 19.4771 23.7764 19.4771 23.3389 19.4771C22.0264 19.4899 21.2929 20.222 21.2157 21.6092C21.1642 22.5211 21.3444 23.2018 21.769 23.6385C22.155 24.0495 22.747 24.255 23.519 24.255C23.622 24.255 23.7249 24.255 23.8407 24.2422C24.201 24.2422 24.587 24.2294 25.0374 24.2294Z" fill="black"/>
</g>
<defs>
<clipPath id="clip0_635_7">
<rect width="28" height="28" fill="white" transform="translate(11 11)"/>
</clipPath>
</defs>
</svg>
