<svg width="471" height="271" viewBox="0 0 471 271" fill="none" xmlns="http://www.w3.org/2000/svg">
<path d="M0.13916 135.545C0.13916 60.9867 60.5807 0.545166 135.139 0.545166H470.139V270.545H135.139C60.5807 270.545 0.13916 210.104 0.13916 135.545Z" fill="url(#paint0_linear)"/>
<g clip-path="url(#clip0)">
<path d="M127.312 45.5452H402.923C407.719 45.5452 411.605 49.4304 411.605 54.2272V216.863C411.605 221.66 407.719 225.545 402.923 225.545H127.312C122.515 225.545 118.63 221.66 118.63 216.863V54.2272C118.63 49.4304 122.515 45.5452 127.312 45.5452Z" fill="url(#paint1_linear)"/>
<path opacity="0.15" d="M147.476 45.5452H146.456C149.549 133.765 212.038 206.933 294.582 225.198H299.683C215.196 208.887 150.623 134.992 147.476 45.5452ZM370.116 225.198H375.217C387.751 222.42 399.96 218.35 411.659 213.054V211.925C398.387 217.981 384.441 222.441 370.116 225.198Z" fill="white"/>
<path opacity="0.15" d="M334.66 159.931C270.826 159.931 218.484 109.217 214.957 45.5452H213.937C217.464 109.792 270.261 160.973 334.66 160.973C362.822 160.983 390.084 151.043 411.637 132.908V131.562C390.182 149.881 362.877 159.942 334.66 159.931Z" fill="white"/>
<path opacity="0.15" d="M385.884 45.5452C382.552 71.1246 360.847 90.9413 334.66 90.9413C308.473 90.9413 286.757 71.1246 283.425 45.5452H282.395C285.737 71.6998 307.898 91.9723 334.66 91.9723C361.423 91.9723 383.573 71.6998 386.915 45.5452H385.884Z" fill="white"/>
<path d="M135.447 61.7795C136.052 61.7795 136.543 61.2887 136.543 60.6834C136.543 60.078 136.052 59.5872 135.447 59.5872C134.841 59.5872 134.351 60.078 134.351 60.6834C134.351 61.2887 134.841 61.7795 135.447 61.7795Z" fill="#2B87E2"/>
<path d="M146.798 61.7795C147.404 61.7795 147.894 61.2887 147.894 60.6834C147.894 60.078 147.404 59.5872 146.798 59.5872C146.193 59.5872 145.702 60.078 145.702 60.6834C145.702 61.2887 146.193 61.7795 146.798 61.7795Z" fill="#2B87E2"/>
<path d="M158.15 61.7795C158.756 61.7795 159.246 61.2887 159.246 60.6834C159.246 60.078 158.756 59.5872 158.15 59.5872C157.545 59.5872 157.054 60.078 157.054 60.6834C157.054 61.2887 157.545 61.7795 158.15 61.7795Z" fill="#2B87E2"/>
<path d="M169.502 61.7795C170.107 61.7795 170.598 61.2887 170.598 60.6834C170.598 60.078 170.107 59.5872 169.502 59.5872C168.897 59.5872 168.406 60.078 168.406 60.6834C168.406 61.2887 168.897 61.7795 169.502 61.7795Z" fill="#2B87E2"/>
<path d="M180.853 61.7795C181.459 61.7795 181.95 61.2887 181.95 60.6834C181.95 60.078 181.459 59.5872 180.853 59.5872C180.248 59.5872 179.757 60.078 179.757 60.6834C179.757 61.2887 180.248 61.7795 180.853 61.7795Z" fill="#2B87E2"/>
<path d="M192.205 61.7795C192.811 61.7795 193.302 61.2887 193.302 60.6834C193.302 60.078 192.811 59.5872 192.205 59.5872C191.6 59.5872 191.109 60.078 191.109 60.6834C191.109 61.2887 191.6 61.7795 192.205 61.7795Z" fill="#2B87E2"/>
<path d="M203.557 61.7795C204.162 61.7795 204.653 61.2887 204.653 60.6834C204.653 60.078 204.162 59.5872 203.557 59.5872C202.952 59.5872 202.461 60.078 202.461 60.6834C202.461 61.2887 202.952 61.7795 203.557 61.7795Z" fill="#2B87E2"/>
<path d="M214.898 61.7795C215.503 61.7795 215.994 61.2887 215.994 60.6834C215.994 60.078 215.503 59.5872 214.898 59.5872C214.293 59.5872 213.802 60.078 213.802 60.6834C213.802 61.2887 214.293 61.7795 214.898 61.7795Z" fill="#2B87E2"/>
<path d="M135.447 73.1312C136.052 73.1312 136.543 72.6405 136.543 72.0351C136.543 71.4297 136.052 70.939 135.447 70.939C134.841 70.939 134.351 71.4297 134.351 72.0351C134.351 72.6405 134.841 73.1312 135.447 73.1312Z" fill="#2B87E2"/>
<path d="M146.798 73.1312C147.404 73.1312 147.894 72.6405 147.894 72.0351C147.894 71.4297 147.404 70.939 146.798 70.939C146.193 70.939 145.702 71.4297 145.702 72.0351C145.702 72.6405 146.193 73.1312 146.798 73.1312Z" fill="#2B87E2"/>
<path d="M158.15 73.1312C158.756 73.1312 159.246 72.6405 159.246 72.0351C159.246 71.4297 158.756 70.939 158.15 70.939C157.545 70.939 157.054 71.4297 157.054 72.0351C157.054 72.6405 157.545 73.1312 158.15 73.1312Z" fill="#2B87E2"/>
<path d="M169.502 73.1312C170.107 73.1312 170.598 72.6405 170.598 72.0351C170.598 71.4297 170.107 70.939 169.502 70.939C168.897 70.939 168.406 71.4297 168.406 72.0351C168.406 72.6405 168.897 73.1312 169.502 73.1312Z" fill="#2B87E2"/>
<path d="M180.853 73.1312C181.459 73.1312 181.95 72.6405 181.95 72.0351C181.95 71.4297 181.459 70.939 180.853 70.939C180.248 70.939 179.757 71.4297 179.757 72.0351C179.757 72.6405 180.248 73.1312 180.853 73.1312Z" fill="#2B87E2"/>
<path d="M192.205 73.1312C192.811 73.1312 193.302 72.6405 193.302 72.0351C193.302 71.4297 192.811 70.939 192.205 70.939C191.6 70.939 191.109 71.4297 191.109 72.0351C191.109 72.6405 191.6 73.1312 192.205 73.1312Z" fill="#2B87E2"/>
<path d="M203.557 73.1312C204.162 73.1312 204.653 72.6405 204.653 72.0351C204.653 71.4297 204.162 70.939 203.557 70.939C202.952 70.939 202.461 71.4297 202.461 72.0351C202.461 72.6405 202.952 73.1312 203.557 73.1312Z" fill="#2B87E2"/>
<path d="M214.898 73.1312C215.503 73.1312 215.994 72.6405 215.994 72.0351C215.994 71.4297 215.503 70.939 214.898 70.939C214.293 70.939 213.802 71.4297 213.802 72.0351C213.802 72.6405 214.293 73.1312 214.898 73.1312Z" fill="#2B87E2"/>
<path d="M135.447 84.4829C136.052 84.4829 136.543 83.9922 136.543 83.3868C136.543 82.7815 136.052 82.2907 135.447 82.2907C134.841 82.2907 134.351 82.7815 134.351 83.3868C134.351 83.9922 134.841 84.4829 135.447 84.4829Z" fill="#2B87E2"/>
<path d="M146.798 84.4829C147.404 84.4829 147.894 83.9922 147.894 83.3868C147.894 82.7815 147.404 82.2907 146.798 82.2907C146.193 82.2907 145.702 82.7815 145.702 83.3868C145.702 83.9922 146.193 84.4829 146.798 84.4829Z" fill="#2B87E2"/>
<path d="M158.15 84.4829C158.756 84.4829 159.246 83.9922 159.246 83.3868C159.246 82.7815 158.756 82.2907 158.15 82.2907C157.545 82.2907 157.054 82.7815 157.054 83.3868C157.054 83.9922 157.545 84.4829 158.15 84.4829Z" fill="#2B87E2"/>
<path d="M169.502 84.4829C170.107 84.4829 170.598 83.9922 170.598 83.3868C170.598 82.7815 170.107 82.2907 169.502 82.2907C168.897 82.2907 168.406 82.7815 168.406 83.3868C168.406 83.9922 168.897 84.4829 169.502 84.4829Z" fill="#2B87E2"/>
<path d="M180.853 84.4829C181.459 84.4829 181.95 83.9922 181.95 83.3868C181.95 82.7815 181.459 82.2907 180.853 82.2907C180.248 82.2907 179.757 82.7815 179.757 83.3868C179.757 83.9922 180.248 84.4829 180.853 84.4829Z" fill="#2B87E2"/>
<path d="M192.205 84.4829C192.811 84.4829 193.302 83.9922 193.302 83.3868C193.302 82.7815 192.811 82.2907 192.205 82.2907C191.6 82.2907 191.109 82.7815 191.109 83.3868C191.109 83.9922 191.6 84.4829 192.205 84.4829Z" fill="#2B87E2"/>
<path d="M203.557 84.4829C204.162 84.4829 204.653 83.9922 204.653 83.3868C204.653 82.7815 204.162 82.2907 203.557 82.2907C202.952 82.2907 202.461 82.7815 202.461 83.3868C202.461 83.9922 202.952 84.4829 203.557 84.4829Z" fill="#2B87E2"/>
<path d="M214.898 84.4829C215.503 84.4829 215.994 83.9922 215.994 83.3868C215.994 82.7815 215.503 82.2907 214.898 82.2907C214.293 82.2907 213.802 82.7815 213.802 83.3868C213.802 83.9922 214.293 84.4829 214.898 84.4829Z" fill="#2B87E2"/>
<path d="M135.447 95.8347C136.052 95.8347 136.543 95.3439 136.543 94.7386C136.543 94.1332 136.052 93.6425 135.447 93.6425C134.841 93.6425 134.351 94.1332 134.351 94.7386C134.351 95.3439 134.841 95.8347 135.447 95.8347Z" fill="#2B87E2"/>
<path d="M146.798 95.8347C147.404 95.8347 147.894 95.3439 147.894 94.7386C147.894 94.1332 147.404 93.6425 146.798 93.6425C146.193 93.6425 145.702 94.1332 145.702 94.7386C145.702 95.3439 146.193 95.8347 146.798 95.8347Z" fill="#2B87E2"/>
<path d="M158.15 95.8347C158.756 95.8347 159.246 95.3439 159.246 94.7386C159.246 94.1332 158.756 93.6425 158.15 93.6425C157.545 93.6425 157.054 94.1332 157.054 94.7386C157.054 95.3439 157.545 95.8347 158.15 95.8347Z" fill="#2B87E2"/>
<path d="M169.502 95.8347C170.107 95.8347 170.598 95.3439 170.598 94.7386C170.598 94.1332 170.107 93.6425 169.502 93.6425C168.897 93.6425 168.406 94.1332 168.406 94.7386C168.406 95.3439 168.897 95.8347 169.502 95.8347Z" fill="#2B87E2"/>
<path d="M180.853 95.8347C181.459 95.8347 181.95 95.3439 181.95 94.7386C181.95 94.1332 181.459 93.6425 180.853 93.6425C180.248 93.6425 179.757 94.1332 179.757 94.7386C179.757 95.3439 180.248 95.8347 180.853 95.8347Z" fill="#2B87E2"/>
<path d="M192.205 95.8347C192.811 95.8347 193.302 95.3439 193.302 94.7386C193.302 94.1332 192.811 93.6425 192.205 93.6425C191.6 93.6425 191.109 94.1332 191.109 94.7386C191.109 95.3439 191.6 95.8347 192.205 95.8347Z" fill="#2B87E2"/>
<path d="M203.557 95.8347C204.162 95.8347 204.653 95.3439 204.653 94.7386C204.653 94.1332 204.162 93.6425 203.557 93.6425C202.952 93.6425 202.461 94.1332 202.461 94.7386C202.461 95.3439 202.952 95.8347 203.557 95.8347Z" fill="#2B87E2"/>
<path d="M214.898 95.8347C215.503 95.8347 215.994 95.3439 215.994 94.7386C215.994 94.1332 215.503 93.6425 214.898 93.6425C214.293 93.6425 213.802 94.1332 213.802 94.7386C213.802 95.3439 214.293 95.8347 214.898 95.8347Z" fill="#2B87E2"/>
<path d="M135.447 107.186C136.052 107.186 136.543 106.696 136.543 106.09C136.543 105.485 136.052 104.994 135.447 104.994C134.841 104.994 134.351 105.485 134.351 106.09C134.351 106.696 134.841 107.186 135.447 107.186Z" fill="#2B87E2"/>
<path d="M146.798 107.186C147.404 107.186 147.894 106.696 147.894 106.09C147.894 105.485 147.404 104.994 146.798 104.994C146.193 104.994 145.702 105.485 145.702 106.09C145.702 106.696 146.193 107.186 146.798 107.186Z" fill="#2B87E2"/>
<path d="M158.15 107.186C158.756 107.186 159.246 106.696 159.246 106.09C159.246 105.485 158.756 104.994 158.15 104.994C157.545 104.994 157.054 105.485 157.054 106.09C157.054 106.696 157.545 107.186 158.15 107.186Z" fill="#2B87E2"/>
<path d="M169.502 107.186C170.107 107.186 170.598 106.696 170.598 106.09C170.598 105.485 170.107 104.994 169.502 104.994C168.897 104.994 168.406 105.485 168.406 106.09C168.406 106.696 168.897 107.186 169.502 107.186Z" fill="#2B87E2"/>
<path d="M180.853 107.186C181.459 107.186 181.95 106.696 181.95 106.09C181.95 105.485 181.459 104.994 180.853 104.994C180.248 104.994 179.757 105.485 179.757 106.09C179.757 106.696 180.248 107.186 180.853 107.186Z" fill="#2B87E2"/>
<path d="M192.205 107.186C192.811 107.186 193.302 106.696 193.302 106.09C193.302 105.485 192.811 104.994 192.205 104.994C191.6 104.994 191.109 105.485 191.109 106.09C191.109 106.696 191.6 107.186 192.205 107.186Z" fill="#2B87E2"/>
<path d="M203.557 107.186C204.162 107.186 204.653 106.696 204.653 106.09C204.653 105.485 204.162 104.994 203.557 104.994C202.952 104.994 202.461 105.485 202.461 106.09C202.461 106.696 202.952 107.186 203.557 107.186Z" fill="#2B87E2"/>
<path d="M214.898 107.186C215.503 107.186 215.994 106.696 215.994 106.09C215.994 105.485 215.503 104.994 214.898 104.994C214.293 104.994 213.802 105.485 213.802 106.09C213.802 106.696 214.293 107.186 214.898 107.186Z" fill="#2B87E2"/>
<path d="M135.447 118.538C136.052 118.538 136.543 118.047 136.543 117.442C136.543 116.837 136.052 116.346 135.447 116.346C134.841 116.346 134.351 116.837 134.351 117.442C134.351 118.047 134.841 118.538 135.447 118.538Z" fill="#2B87E2"/>
<path d="M146.798 118.538C147.404 118.538 147.894 118.047 147.894 117.442C147.894 116.837 147.404 116.346 146.798 116.346C146.193 116.346 145.702 116.837 145.702 117.442C145.702 118.047 146.193 118.538 146.798 118.538Z" fill="#2B87E2"/>
<path d="M158.15 118.538C158.756 118.538 159.246 118.047 159.246 117.442C159.246 116.837 158.756 116.346 158.15 116.346C157.545 116.346 157.054 116.837 157.054 117.442C157.054 118.047 157.545 118.538 158.15 118.538Z" fill="#2B87E2"/>
<path d="M169.502 118.538C170.107 118.538 170.598 118.047 170.598 117.442C170.598 116.837 170.107 116.346 169.502 116.346C168.897 116.346 168.406 116.837 168.406 117.442C168.406 118.047 168.897 118.538 169.502 118.538Z" fill="#2B87E2"/>
<path d="M180.853 118.538C181.459 118.538 181.95 118.047 181.95 117.442C181.95 116.837 181.459 116.346 180.853 116.346C180.248 116.346 179.757 116.837 179.757 117.442C179.757 118.047 180.248 118.538 180.853 118.538Z" fill="#2B87E2"/>
<path d="M192.205 118.538C192.811 118.538 193.302 118.047 193.302 117.442C193.302 116.837 192.811 116.346 192.205 116.346C191.6 116.346 191.109 116.837 191.109 117.442C191.109 118.047 191.6 118.538 192.205 118.538Z" fill="#2B87E2"/>
<path d="M203.557 118.538C204.162 118.538 204.653 118.047 204.653 117.442C204.653 116.837 204.162 116.346 203.557 116.346C202.952 116.346 202.461 116.837 202.461 117.442C202.461 118.047 202.952 118.538 203.557 118.538Z" fill="#2B87E2"/>
<path d="M214.898 118.538C215.503 118.538 215.994 118.047 215.994 117.442C215.994 116.837 215.503 116.346 214.898 116.346C214.293 116.346 213.802 116.837 213.802 117.442C213.802 118.047 214.293 118.538 214.898 118.538Z" fill="#2B87E2"/>
<path d="M135.447 129.89C136.052 129.89 136.543 129.399 136.543 128.794C136.543 128.188 136.052 127.698 135.447 127.698C134.841 127.698 134.351 128.188 134.351 128.794C134.351 129.399 134.841 129.89 135.447 129.89Z" fill="#2B87E2"/>
<path d="M146.798 129.89C147.404 129.89 147.894 129.399 147.894 128.794C147.894 128.188 147.404 127.698 146.798 127.698C146.193 127.698 145.702 128.188 145.702 128.794C145.702 129.399 146.193 129.89 146.798 129.89Z" fill="#2B87E2"/>
<path d="M158.15 129.89C158.756 129.89 159.246 129.399 159.246 128.794C159.246 128.188 158.756 127.698 158.15 127.698C157.545 127.698 157.054 128.188 157.054 128.794C157.054 129.399 157.545 129.89 158.15 129.89Z" fill="#2B87E2"/>
<path d="M169.502 129.89C170.107 129.89 170.598 129.399 170.598 128.794C170.598 128.188 170.107 127.698 169.502 127.698C168.897 127.698 168.406 128.188 168.406 128.794C168.406 129.399 168.897 129.89 169.502 129.89Z" fill="#2B87E2"/>
<path d="M180.853 129.89C181.459 129.89 181.95 129.399 181.95 128.794C181.95 128.188 181.459 127.698 180.853 127.698C180.248 127.698 179.757 128.188 179.757 128.794C179.757 129.399 180.248 129.89 180.853 129.89Z" fill="#2B87E2"/>
<path d="M192.205 129.89C192.811 129.89 193.302 129.399 193.302 128.794C193.302 128.188 192.811 127.698 192.205 127.698C191.6 127.698 191.109 128.188 191.109 128.794C191.109 129.399 191.6 129.89 192.205 129.89Z" fill="#2B87E2"/>
<path d="M203.557 129.89C204.162 129.89 204.653 129.399 204.653 128.794C204.653 128.188 204.162 127.698 203.557 127.698C202.952 127.698 202.461 128.188 202.461 128.794C202.461 129.399 202.952 129.89 203.557 129.89Z" fill="#2B87E2"/>
<path d="M214.898 129.89C215.503 129.89 215.994 129.399 215.994 128.794C215.994 128.188 215.503 127.698 214.898 127.698C214.293 127.698 213.802 128.188 213.802 128.794C213.802 129.399 214.293 129.89 214.898 129.89Z" fill="#2B87E2"/>
<path d="M160.979 161.77L164.339 153.25H165.683L169.031 161.77H167.279L166.499 159.646H163.511L162.731 161.77H160.979ZM165.011 155.038L163.787 158.482H166.199L165.011 155.038ZM172.212 153.274H173.736L174.696 156.094L175.656 153.274H177.192L175.74 157.15L176.82 159.874L179.232 153.25H181.032L177.564 161.77H176.172L174.696 158.194L173.22 161.77H171.828L168.372 153.25H170.16L172.584 159.874L173.64 157.15L172.212 153.274ZM186.759 155.482C186.703 155.426 186.599 155.35 186.447 155.254C186.303 155.158 186.123 155.066 185.907 154.978C185.699 154.882 185.471 154.802 185.223 154.738C184.975 154.674 184.723 154.642 184.467 154.642C184.011 154.642 183.671 154.726 183.447 154.894C183.223 155.062 183.111 155.298 183.111 155.602C183.111 155.778 183.151 155.926 183.231 156.046C183.319 156.158 183.443 156.258 183.603 156.346C183.763 156.434 183.963 156.514 184.203 156.586C184.451 156.658 184.735 156.734 185.055 156.814C185.471 156.926 185.847 157.046 186.183 157.174C186.527 157.302 186.815 157.462 187.047 157.654C187.287 157.846 187.471 158.078 187.599 158.35C187.727 158.614 187.791 158.942 187.791 159.334C187.791 159.79 187.703 160.182 187.527 160.51C187.359 160.83 187.131 161.09 186.843 161.29C186.555 161.49 186.219 161.638 185.835 161.734C185.451 161.822 185.051 161.866 184.635 161.866C183.995 161.866 183.363 161.77 182.739 161.578C182.115 161.386 181.555 161.114 181.059 160.762L181.791 159.334C181.863 159.406 181.991 159.502 182.175 159.622C182.367 159.734 182.591 159.85 182.847 159.97C183.103 160.082 183.387 160.178 183.699 160.258C184.011 160.338 184.331 160.378 184.659 160.378C185.571 160.378 186.027 160.086 186.027 159.502C186.027 159.31 185.975 159.15 185.871 159.022C185.767 158.894 185.619 158.782 185.427 158.686C185.235 158.59 185.003 158.502 184.731 158.422C184.459 158.342 184.155 158.258 183.819 158.17C183.411 158.058 183.055 157.938 182.751 157.81C182.455 157.674 182.207 157.518 182.007 157.342C181.807 157.166 181.655 156.958 181.551 156.718C181.455 156.478 181.407 156.194 181.407 155.866C181.407 155.434 181.487 155.05 181.647 154.714C181.807 154.378 182.027 154.098 182.307 153.874C182.595 153.65 182.927 153.482 183.303 153.37C183.679 153.25 184.083 153.19 184.515 153.19C185.115 153.19 185.667 153.286 186.171 153.478C186.675 153.662 187.115 153.882 187.491 154.138L186.759 155.482ZM191.421 157.45C191.421 156.93 191.513 156.418 191.697 155.914C191.881 155.402 192.145 154.946 192.489 154.546C192.841 154.146 193.269 153.822 193.773 153.574C194.277 153.326 194.853 153.202 195.501 153.202C196.261 153.202 196.917 153.374 197.469 153.718C198.029 154.062 198.441 154.51 198.705 155.062L197.433 155.938C197.337 155.698 197.213 155.498 197.061 155.338C196.909 155.17 196.741 155.038 196.557 154.942C196.381 154.846 196.197 154.778 196.005 154.738C195.813 154.69 195.629 154.666 195.453 154.666C195.061 154.666 194.717 154.75 194.421 154.918C194.125 155.086 193.877 155.306 193.677 155.578C193.485 155.842 193.337 156.146 193.233 156.49C193.137 156.826 193.089 157.162 193.089 157.498C193.089 157.874 193.145 158.238 193.257 158.59C193.377 158.934 193.541 159.238 193.749 159.502C193.965 159.766 194.221 159.978 194.517 160.138C194.813 160.298 195.137 160.378 195.489 160.378C195.673 160.378 195.861 160.354 196.053 160.306C196.245 160.258 196.429 160.182 196.605 160.078C196.789 159.974 196.957 159.842 197.109 159.682C197.261 159.514 197.385 159.314 197.481 159.082L198.837 159.862C198.709 160.182 198.521 160.466 198.273 160.714C198.033 160.954 197.757 161.158 197.445 161.326C197.133 161.494 196.805 161.622 196.461 161.71C196.117 161.798 195.777 161.842 195.441 161.842C194.849 161.842 194.305 161.714 193.809 161.458C193.321 161.202 192.897 160.87 192.537 160.462C192.185 160.046 191.909 159.578 191.709 159.058C191.517 158.53 191.421 157.994 191.421 157.45ZM202.724 161.89C202.22 161.89 201.764 161.806 201.356 161.638C200.948 161.462 200.6 161.226 200.312 160.93C200.024 160.634 199.8 160.29 199.64 159.898C199.488 159.506 199.412 159.094 199.412 158.662C199.412 158.214 199.488 157.794 199.64 157.402C199.792 157.002 200.012 156.654 200.3 156.358C200.588 156.054 200.936 155.814 201.344 155.638C201.76 155.462 202.224 155.374 202.736 155.374C203.248 155.374 203.704 155.462 204.104 155.638C204.512 155.814 204.856 156.05 205.136 156.346C205.424 156.642 205.64 156.986 205.784 157.378C205.936 157.77 206.012 158.178 206.012 158.602C206.012 158.706 206.008 158.806 206 158.902C206 158.998 205.992 159.078 205.976 159.142H201.116C201.14 159.39 201.2 159.61 201.296 159.802C201.392 159.994 201.516 160.158 201.668 160.294C201.82 160.43 201.992 160.534 202.184 160.606C202.376 160.678 202.576 160.714 202.784 160.714C203.104 160.714 203.404 160.638 203.684 160.486C203.972 160.326 204.168 160.118 204.272 159.862L205.652 160.246C205.42 160.726 205.048 161.122 204.536 161.434C204.032 161.738 203.428 161.89 202.724 161.89ZM204.356 158.098C204.316 157.626 204.14 157.25 203.828 156.97C203.524 156.682 203.152 156.538 202.712 156.538C202.496 156.538 202.292 156.578 202.1 156.658C201.916 156.73 201.752 156.834 201.608 156.97C201.464 157.106 201.344 157.27 201.248 157.462C201.16 157.654 201.108 157.866 201.092 158.098H204.356ZM210.735 156.874C210.247 156.882 209.811 156.978 209.427 157.162C209.043 157.338 208.767 157.606 208.599 157.966V161.77H206.991V155.482H208.467V156.826C208.683 156.394 208.963 156.046 209.307 155.782C209.659 155.518 210.027 155.386 210.411 155.386C210.499 155.386 210.563 155.39 210.603 155.398C210.651 155.398 210.695 155.402 210.735 155.41V156.874ZM215.412 161.446C215.196 161.542 214.928 161.638 214.608 161.734C214.296 161.83 213.968 161.878 213.624 161.878C213.4 161.878 213.188 161.85 212.988 161.794C212.796 161.738 212.624 161.65 212.472 161.53C212.328 161.402 212.212 161.242 212.124 161.05C212.036 160.85 211.992 160.61 211.992 160.33V156.718H211.176V155.482H211.992V153.442H213.6V155.482H214.932V156.718H213.6V159.79C213.6 160.014 213.66 160.174 213.78 160.27C213.9 160.358 214.044 160.402 214.212 160.402C214.38 160.402 214.544 160.374 214.704 160.318C214.864 160.262 214.992 160.214 215.088 160.174L215.412 161.446ZM216.214 161.77V155.482H217.822V161.77H216.214ZM216.214 154.606V153.01H217.822V154.606H216.214ZM219.657 157.45H218.841V156.214H219.657V155.434C219.657 155.09 219.713 154.762 219.825 154.45C219.945 154.138 220.113 153.87 220.329 153.646C220.553 153.414 220.821 153.23 221.133 153.094C221.453 152.958 221.817 152.89 222.225 152.89C222.681 152.89 223.097 152.966 223.473 153.118C223.857 153.262 224.217 153.446 224.553 153.67L223.905 154.87C223.697 154.686 223.453 154.538 223.173 154.426C222.893 154.314 222.609 154.258 222.321 154.258C221.961 154.258 221.693 154.37 221.517 154.594C221.349 154.818 221.265 155.078 221.265 155.374V156.214H224.637V161.77H223.029V157.45H221.265V161.77H219.657V157.45ZM229.009 161.89C228.505 161.89 228.049 161.806 227.641 161.638C227.233 161.462 226.885 161.226 226.597 160.93C226.309 160.634 226.085 160.29 225.925 159.898C225.773 159.506 225.697 159.094 225.697 158.662C225.697 158.214 225.773 157.794 225.925 157.402C226.077 157.002 226.297 156.654 226.585 156.358C226.873 156.054 227.221 155.814 227.629 155.638C228.045 155.462 228.509 155.374 229.021 155.374C229.533 155.374 229.989 155.462 230.389 155.638C230.797 155.814 231.141 156.05 231.421 156.346C231.709 156.642 231.925 156.986 232.069 157.378C232.221 157.77 232.297 158.178 232.297 158.602C232.297 158.706 232.293 158.806 232.285 158.902C232.285 158.998 232.277 159.078 232.261 159.142H227.401C227.425 159.39 227.485 159.61 227.581 159.802C227.677 159.994 227.801 160.158 227.953 160.294C228.105 160.43 228.277 160.534 228.469 160.606C228.661 160.678 228.861 160.714 229.069 160.714C229.389 160.714 229.689 160.638 229.969 160.486C230.257 160.326 230.453 160.118 230.557 159.862L231.937 160.246C231.705 160.726 231.333 161.122 230.821 161.434C230.317 161.738 229.713 161.89 229.009 161.89ZM230.641 158.098C230.601 157.626 230.425 157.25 230.113 156.97C229.809 156.682 229.437 156.538 228.997 156.538C228.781 156.538 228.577 156.578 228.385 156.658C228.201 156.73 228.037 156.834 227.893 156.97C227.749 157.106 227.629 157.27 227.533 157.462C227.445 157.654 227.393 157.866 227.377 158.098H230.641ZM235.88 161.89C235.448 161.89 235.048 161.806 234.68 161.638C234.32 161.47 234.008 161.238 233.744 160.942C233.48 160.646 233.272 160.302 233.12 159.91C232.976 159.51 232.904 159.082 232.904 158.626C232.904 158.17 232.972 157.746 233.108 157.354C233.252 156.962 233.448 156.618 233.696 156.322C233.944 156.026 234.24 155.794 234.584 155.626C234.928 155.458 235.304 155.374 235.712 155.374C236.168 155.374 236.58 155.486 236.948 155.71C237.324 155.934 237.616 156.226 237.824 156.586V153.01H239.432V159.922C239.432 160.09 239.464 160.21 239.528 160.282C239.592 160.354 239.704 160.394 239.864 160.402V161.77C239.56 161.826 239.304 161.854 239.096 161.854C238.8 161.846 238.568 161.778 238.4 161.65C238.24 161.522 238.14 161.342 238.1 161.11L238.064 160.678C237.832 161.078 237.52 161.382 237.128 161.59C236.736 161.79 236.32 161.89 235.88 161.89ZM236.3 160.522C236.452 160.522 236.608 160.498 236.768 160.45C236.928 160.394 237.076 160.318 237.212 160.222C237.348 160.126 237.472 160.014 237.584 159.886C237.696 159.758 237.78 159.618 237.836 159.466V157.966C237.7 157.614 237.476 157.322 237.164 157.09C236.86 156.858 236.54 156.742 236.204 156.742C235.964 156.742 235.74 156.794 235.532 156.898C235.332 157.002 235.16 157.146 235.016 157.33C234.872 157.506 234.76 157.71 234.68 157.942C234.6 158.174 234.56 158.414 234.56 158.662C234.56 158.926 234.604 159.17 234.692 159.394C234.78 159.618 234.9 159.814 235.052 159.982C235.212 160.15 235.396 160.282 235.604 160.378C235.82 160.474 236.052 160.522 236.3 160.522ZM249.196 155.482C249.14 155.426 249.036 155.35 248.884 155.254C248.74 155.158 248.56 155.066 248.344 154.978C248.136 154.882 247.908 154.802 247.66 154.738C247.412 154.674 247.16 154.642 246.904 154.642C246.448 154.642 246.108 154.726 245.884 154.894C245.66 155.062 245.548 155.298 245.548 155.602C245.548 155.778 245.588 155.926 245.668 156.046C245.756 156.158 245.88 156.258 246.04 156.346C246.2 156.434 246.4 156.514 246.64 156.586C246.888 156.658 247.172 156.734 247.492 156.814C247.908 156.926 248.284 157.046 248.62 157.174C248.964 157.302 249.252 157.462 249.484 157.654C249.724 157.846 249.908 158.078 250.036 158.35C250.164 158.614 250.228 158.942 250.228 159.334C250.228 159.79 250.14 160.182 249.964 160.51C249.796 160.83 249.568 161.09 249.28 161.29C248.992 161.49 248.656 161.638 248.272 161.734C247.888 161.822 247.488 161.866 247.072 161.866C246.432 161.866 245.8 161.77 245.176 161.578C244.552 161.386 243.992 161.114 243.496 160.762L244.228 159.334C244.3 159.406 244.428 159.502 244.612 159.622C244.804 159.734 245.028 159.85 245.284 159.97C245.54 160.082 245.824 160.178 246.136 160.258C246.448 160.338 246.768 160.378 247.096 160.378C248.008 160.378 248.464 160.086 248.464 159.502C248.464 159.31 248.412 159.15 248.308 159.022C248.204 158.894 248.056 158.782 247.864 158.686C247.672 158.59 247.44 158.502 247.168 158.422C246.896 158.342 246.592 158.258 246.256 158.17C245.848 158.058 245.492 157.938 245.188 157.81C244.892 157.674 244.644 157.518 244.444 157.342C244.244 157.166 244.092 156.958 243.988 156.718C243.892 156.478 243.844 156.194 243.844 155.866C243.844 155.434 243.924 155.05 244.084 154.714C244.244 154.378 244.464 154.098 244.744 153.874C245.032 153.65 245.364 153.482 245.74 153.37C246.116 153.25 246.52 153.19 246.952 153.19C247.552 153.19 248.104 153.286 248.608 153.478C249.112 153.662 249.552 153.882 249.928 154.138L249.196 155.482ZM254.239 161.89C253.727 161.89 253.267 161.802 252.859 161.626C252.451 161.45 252.103 161.214 251.815 160.918C251.535 160.614 251.319 160.266 251.167 159.874C251.015 159.482 250.939 159.07 250.939 158.638C250.939 158.198 251.015 157.782 251.167 157.39C251.319 156.998 251.535 156.654 251.815 156.358C252.103 156.054 252.451 155.814 252.859 155.638C253.267 155.462 253.727 155.374 254.239 155.374C254.751 155.374 255.207 155.462 255.607 155.638C256.015 155.814 256.359 156.054 256.639 156.358C256.927 156.654 257.147 156.998 257.299 157.39C257.451 157.782 257.527 158.198 257.527 158.638C257.527 159.07 257.451 159.482 257.299 159.874C257.147 160.266 256.931 160.614 256.651 160.918C256.371 161.214 256.027 161.45 255.619 161.626C255.211 161.802 254.751 161.89 254.239 161.89ZM252.595 158.638C252.595 158.918 252.635 159.174 252.715 159.406C252.803 159.63 252.919 159.826 253.063 159.994C253.215 160.162 253.391 160.294 253.591 160.39C253.791 160.478 254.007 160.522 254.239 160.522C254.471 160.522 254.687 160.478 254.887 160.39C255.087 160.294 255.259 160.162 255.403 159.994C255.555 159.826 255.671 159.626 255.751 159.394C255.839 159.162 255.883 158.906 255.883 158.626C255.883 158.354 255.839 158.102 255.751 157.87C255.671 157.638 255.555 157.438 255.403 157.27C255.259 157.102 255.087 156.974 254.887 156.886C254.687 156.79 254.471 156.742 254.239 156.742C254.007 156.742 253.791 156.79 253.591 156.886C253.391 156.982 253.215 157.114 253.063 157.282C252.919 157.45 252.803 157.65 252.715 157.882C252.635 158.114 252.595 158.366 252.595 158.638ZM258.577 153.01H260.185V159.682C260.185 160.17 260.405 160.414 260.845 160.414C260.933 160.414 261.033 160.398 261.145 160.366C261.265 160.334 261.377 160.298 261.481 160.258L261.697 161.542C261.481 161.646 261.229 161.726 260.941 161.782C260.653 161.838 260.393 161.866 260.161 161.866C259.657 161.866 259.265 161.734 258.985 161.47C258.713 161.198 258.577 160.814 258.577 160.318V153.01ZM264.317 161.89C263.669 161.89 263.177 161.682 262.841 161.266C262.505 160.85 262.337 160.234 262.337 159.418V155.482H263.945V159.07C263.945 160.038 264.293 160.522 264.989 160.522C265.309 160.522 265.613 160.43 265.901 160.246C266.197 160.054 266.437 159.766 266.621 159.382V155.482H268.229V159.922C268.229 160.09 268.261 160.21 268.325 160.282C268.389 160.354 268.501 160.394 268.661 160.402V161.77C268.493 161.802 268.345 161.822 268.217 161.83C268.089 161.846 267.977 161.854 267.881 161.854C267.593 161.854 267.365 161.79 267.197 161.662C267.037 161.526 266.937 161.342 266.897 161.11L266.861 160.594C266.573 161.026 266.209 161.35 265.769 161.566C265.337 161.782 264.853 161.89 264.317 161.89ZM273.595 161.446C273.379 161.542 273.111 161.638 272.791 161.734C272.479 161.83 272.151 161.878 271.807 161.878C271.583 161.878 271.371 161.85 271.171 161.794C270.979 161.738 270.807 161.65 270.655 161.53C270.511 161.402 270.395 161.242 270.307 161.05C270.219 160.85 270.175 160.61 270.175 160.33V156.718H269.359V155.482H270.175V153.442H271.783V155.482H273.115V156.718H271.783V159.79C271.783 160.014 271.843 160.174 271.963 160.27C272.083 160.358 272.227 160.402 272.395 160.402C272.563 160.402 272.727 160.374 272.887 160.318C273.047 160.262 273.175 160.214 273.271 160.174L273.595 161.446ZM274.397 161.77V155.482H276.005V161.77H274.397ZM274.397 154.606V153.01H276.005V154.606H274.397ZM280.348 161.89C279.836 161.89 279.376 161.802 278.968 161.626C278.56 161.45 278.212 161.214 277.924 160.918C277.644 160.614 277.428 160.266 277.276 159.874C277.124 159.482 277.048 159.07 277.048 158.638C277.048 158.198 277.124 157.782 277.276 157.39C277.428 156.998 277.644 156.654 277.924 156.358C278.212 156.054 278.56 155.814 278.968 155.638C279.376 155.462 279.836 155.374 280.348 155.374C280.86 155.374 281.316 155.462 281.716 155.638C282.124 155.814 282.468 156.054 282.748 156.358C283.036 156.654 283.256 156.998 283.408 157.39C283.56 157.782 283.636 158.198 283.636 158.638C283.636 159.07 283.56 159.482 283.408 159.874C283.256 160.266 283.04 160.614 282.76 160.918C282.48 161.214 282.136 161.45 281.728 161.626C281.32 161.802 280.86 161.89 280.348 161.89ZM278.704 158.638C278.704 158.918 278.744 159.174 278.824 159.406C278.912 159.63 279.028 159.826 279.172 159.994C279.324 160.162 279.5 160.294 279.7 160.39C279.9 160.478 280.116 160.522 280.348 160.522C280.58 160.522 280.796 160.478 280.996 160.39C281.196 160.294 281.368 160.162 281.512 159.994C281.664 159.826 281.78 159.626 281.86 159.394C281.948 159.162 281.992 158.906 281.992 158.626C281.992 158.354 281.948 158.102 281.86 157.87C281.78 157.638 281.664 157.438 281.512 157.27C281.368 157.102 281.196 156.974 280.996 156.886C280.796 156.79 280.58 156.742 280.348 156.742C280.116 156.742 279.9 156.79 279.7 156.886C279.5 156.982 279.324 157.114 279.172 157.282C279.028 157.45 278.912 157.65 278.824 157.882C278.744 158.114 278.704 158.366 278.704 158.638ZM290.542 161.77H288.934V158.242C288.934 157.738 288.846 157.37 288.67 157.138C288.494 156.906 288.25 156.79 287.938 156.79C287.778 156.79 287.614 156.822 287.446 156.886C287.278 156.95 287.118 157.042 286.966 157.162C286.822 157.274 286.69 157.41 286.57 157.57C286.45 157.73 286.362 157.906 286.306 158.098V161.77H284.698V155.482H286.15V156.646C286.382 156.246 286.718 155.934 287.158 155.71C287.598 155.486 288.094 155.374 288.646 155.374C289.038 155.374 289.358 155.446 289.606 155.59C289.854 155.734 290.046 155.922 290.182 156.154C290.318 156.386 290.41 156.65 290.458 156.946C290.514 157.242 290.542 157.542 290.542 157.846V161.77ZM294.401 161.89C294.145 161.89 293.877 161.87 293.597 161.83C293.325 161.79 293.057 161.734 292.793 161.662C292.529 161.59 292.277 161.502 292.037 161.398C291.797 161.294 291.585 161.178 291.401 161.05L292.049 159.958C292.849 160.478 293.621 160.738 294.365 160.738C294.701 160.738 294.965 160.678 295.157 160.558C295.349 160.438 295.445 160.266 295.445 160.042C295.445 159.818 295.329 159.654 295.097 159.55C294.873 159.438 294.493 159.318 293.957 159.19C293.549 159.094 293.201 158.994 292.913 158.89C292.625 158.786 292.393 158.666 292.217 158.53C292.041 158.394 291.913 158.238 291.833 158.062C291.753 157.886 291.713 157.678 291.713 157.438C291.713 157.118 291.777 156.83 291.905 156.574C292.033 156.318 292.209 156.102 292.433 155.926C292.665 155.742 292.933 155.602 293.237 155.506C293.549 155.41 293.885 155.362 294.245 155.362C294.693 155.362 295.137 155.434 295.577 155.578C296.025 155.714 296.441 155.902 296.825 156.142L296.165 157.138C295.813 156.914 295.481 156.754 295.169 156.658C294.857 156.554 294.545 156.502 294.233 156.502C293.945 156.502 293.701 156.558 293.501 156.67C293.309 156.782 293.213 156.962 293.213 157.21C293.213 157.426 293.305 157.582 293.489 157.678C293.681 157.774 294.017 157.882 294.497 158.002C294.945 158.114 295.325 158.226 295.637 158.338C295.957 158.45 296.217 158.578 296.417 158.722C296.625 158.866 296.773 159.034 296.861 159.226C296.957 159.41 297.005 159.634 297.005 159.898C297.005 160.202 296.941 160.478 296.813 160.726C296.693 160.974 296.521 161.186 296.297 161.362C296.073 161.53 295.797 161.662 295.469 161.758C295.149 161.846 294.793 161.89 294.401 161.89ZM299.811 161.77L303.171 153.25H304.515L307.863 161.77H306.111L305.331 159.646H302.343L301.563 161.77H299.811ZM303.843 155.038L302.619 158.482H305.031L303.843 155.038ZM312.348 156.874C311.86 156.882 311.424 156.978 311.04 157.162C310.656 157.338 310.38 157.606 310.212 157.966V161.77H308.604V155.482H310.08V156.826C310.296 156.394 310.576 156.046 310.92 155.782C311.272 155.518 311.64 155.386 312.024 155.386C312.112 155.386 312.176 155.39 312.216 155.398C312.264 155.398 312.308 155.402 312.348 155.41V156.874ZM312.861 158.626C312.861 158.186 312.937 157.77 313.089 157.378C313.241 156.986 313.461 156.642 313.749 156.346C314.037 156.05 314.385 155.814 314.793 155.638C315.201 155.462 315.661 155.374 316.173 155.374C316.861 155.374 317.445 155.522 317.925 155.818C318.413 156.114 318.777 156.502 319.017 156.982L317.445 157.462C317.309 157.23 317.129 157.054 316.905 156.934C316.681 156.806 316.433 156.742 316.161 156.742C315.929 156.742 315.713 156.79 315.513 156.886C315.313 156.974 315.137 157.102 314.985 157.27C314.841 157.43 314.725 157.626 314.637 157.858C314.557 158.09 314.517 158.346 314.517 158.626C314.517 158.906 314.561 159.162 314.649 159.394C314.737 159.626 314.853 159.826 314.997 159.994C315.149 160.162 315.325 160.294 315.525 160.39C315.725 160.478 315.937 160.522 316.161 160.522C316.449 160.522 316.713 160.45 316.953 160.306C317.201 160.162 317.373 159.986 317.469 159.778L319.041 160.258C318.825 160.738 318.469 161.13 317.973 161.434C317.477 161.738 316.881 161.89 316.185 161.89C315.673 161.89 315.213 161.802 314.805 161.626C314.397 161.45 314.049 161.214 313.761 160.918C313.473 160.614 313.249 160.266 313.089 159.874C312.937 159.474 312.861 159.058 312.861 158.626ZM325.862 161.77H324.254V158.242C324.254 157.746 324.162 157.382 323.978 157.15C323.794 156.91 323.534 156.79 323.198 156.79C323.054 156.79 322.902 156.822 322.742 156.886C322.582 156.95 322.43 157.042 322.286 157.162C322.142 157.274 322.01 157.41 321.89 157.57C321.77 157.73 321.682 157.906 321.626 158.098V161.77H320.018V153.01H321.626V156.646C321.858 156.238 322.17 155.926 322.562 155.71C322.962 155.486 323.402 155.374 323.882 155.374C324.29 155.374 324.622 155.446 324.878 155.59C325.134 155.726 325.334 155.91 325.478 156.142C325.622 156.374 325.722 156.638 325.778 156.934C325.834 157.23 325.862 157.534 325.862 157.846V161.77ZM327.237 161.77V155.482H328.845V161.77H327.237ZM327.237 154.606V153.01H328.845V154.606H327.237ZM334.052 161.446C333.836 161.542 333.568 161.638 333.248 161.734C332.936 161.83 332.608 161.878 332.264 161.878C332.04 161.878 331.828 161.85 331.628 161.794C331.436 161.738 331.264 161.65 331.112 161.53C330.968 161.402 330.852 161.242 330.764 161.05C330.676 160.85 330.632 160.61 330.632 160.33V156.718H329.816V155.482H330.632V153.442H332.24V155.482H333.572V156.718H332.24V159.79C332.24 160.014 332.3 160.174 332.42 160.27C332.54 160.358 332.684 160.402 332.852 160.402C333.02 160.402 333.184 160.374 333.344 160.318C333.504 160.262 333.632 160.214 333.728 160.174L334.052 161.446ZM337.782 161.89C337.278 161.89 336.822 161.806 336.414 161.638C336.006 161.462 335.658 161.226 335.37 160.93C335.082 160.634 334.858 160.29 334.698 159.898C334.546 159.506 334.47 159.094 334.47 158.662C334.47 158.214 334.546 157.794 334.698 157.402C334.85 157.002 335.07 156.654 335.358 156.358C335.646 156.054 335.994 155.814 336.402 155.638C336.818 155.462 337.282 155.374 337.794 155.374C338.306 155.374 338.762 155.462 339.162 155.638C339.57 155.814 339.914 156.05 340.194 156.346C340.482 156.642 340.698 156.986 340.842 157.378C340.994 157.77 341.07 158.178 341.07 158.602C341.07 158.706 341.066 158.806 341.058 158.902C341.058 158.998 341.05 159.078 341.034 159.142H336.174C336.198 159.39 336.258 159.61 336.354 159.802C336.45 159.994 336.574 160.158 336.726 160.294C336.878 160.43 337.05 160.534 337.242 160.606C337.434 160.678 337.634 160.714 337.842 160.714C338.162 160.714 338.462 160.638 338.742 160.486C339.03 160.326 339.226 160.118 339.33 159.862L340.71 160.246C340.478 160.726 340.106 161.122 339.594 161.434C339.09 161.738 338.486 161.89 337.782 161.89ZM339.414 158.098C339.374 157.626 339.198 157.25 338.886 156.97C338.582 156.682 338.21 156.538 337.77 156.538C337.554 156.538 337.35 156.578 337.158 156.658C336.974 156.73 336.81 156.834 336.666 156.97C336.522 157.106 336.402 157.27 336.306 157.462C336.218 157.654 336.166 157.866 336.15 158.098H339.414ZM341.666 158.626C341.666 158.186 341.742 157.77 341.894 157.378C342.046 156.986 342.266 156.642 342.554 156.346C342.842 156.05 343.19 155.814 343.598 155.638C344.006 155.462 344.466 155.374 344.978 155.374C345.666 155.374 346.25 155.522 346.73 155.818C347.218 156.114 347.582 156.502 347.822 156.982L346.25 157.462C346.114 157.23 345.934 157.054 345.71 156.934C345.486 156.806 345.238 156.742 344.966 156.742C344.734 156.742 344.518 156.79 344.318 156.886C344.118 156.974 343.942 157.102 343.79 157.27C343.646 157.43 343.53 157.626 343.442 157.858C343.362 158.09 343.322 158.346 343.322 158.626C343.322 158.906 343.366 159.162 343.454 159.394C343.542 159.626 343.658 159.826 343.802 159.994C343.954 160.162 344.13 160.294 344.33 160.39C344.53 160.478 344.742 160.522 344.966 160.522C345.254 160.522 345.518 160.45 345.758 160.306C346.006 160.162 346.178 159.986 346.274 159.778L347.846 160.258C347.63 160.738 347.274 161.13 346.778 161.434C346.282 161.738 345.686 161.89 344.99 161.89C344.478 161.89 344.018 161.802 343.61 161.626C343.202 161.45 342.854 161.214 342.566 160.918C342.278 160.614 342.054 160.266 341.894 159.874C341.742 159.474 341.666 159.058 341.666 158.626ZM352.603 161.446C352.387 161.542 352.119 161.638 351.799 161.734C351.487 161.83 351.159 161.878 350.815 161.878C350.591 161.878 350.379 161.85 350.179 161.794C349.987 161.738 349.815 161.65 349.663 161.53C349.519 161.402 349.403 161.242 349.315 161.05C349.227 160.85 349.183 160.61 349.183 160.33V156.718H348.367V155.482H349.183V153.442H350.791V155.482H352.123V156.718H350.791V159.79C350.791 160.014 350.851 160.174 350.971 160.27C351.091 160.358 351.235 160.402 351.403 160.402C351.571 160.402 351.735 160.374 351.895 160.318C352.055 160.262 352.183 160.214 352.279 160.174L352.603 161.446Z" fill="white"/>
<path d="M178.669 179.134L182.029 170.614H183.373L186.721 179.134H184.969L184.189 177.01H181.201L180.421 179.134H178.669ZM182.701 172.402L181.477 175.846H183.889L182.701 172.402ZM189.911 179.254C189.655 179.254 189.387 179.234 189.107 179.194C188.835 179.154 188.567 179.098 188.303 179.026C188.039 178.954 187.787 178.866 187.547 178.762C187.307 178.658 187.095 178.542 186.911 178.414L187.559 177.322C188.359 177.842 189.131 178.102 189.875 178.102C190.211 178.102 190.475 178.042 190.667 177.922C190.859 177.802 190.955 177.63 190.955 177.406C190.955 177.182 190.839 177.018 190.607 176.914C190.383 176.802 190.003 176.682 189.467 176.554C189.059 176.458 188.711 176.358 188.423 176.254C188.135 176.15 187.903 176.03 187.727 175.894C187.551 175.758 187.423 175.602 187.343 175.426C187.263 175.25 187.223 175.042 187.223 174.802C187.223 174.482 187.287 174.194 187.415 173.938C187.543 173.682 187.719 173.466 187.943 173.29C188.175 173.106 188.443 172.966 188.747 172.87C189.059 172.774 189.395 172.726 189.755 172.726C190.203 172.726 190.647 172.798 191.087 172.942C191.535 173.078 191.951 173.266 192.335 173.506L191.675 174.502C191.323 174.278 190.991 174.118 190.679 174.022C190.367 173.918 190.055 173.866 189.743 173.866C189.455 173.866 189.211 173.922 189.011 174.034C188.819 174.146 188.723 174.326 188.723 174.574C188.723 174.79 188.815 174.946 188.999 175.042C189.191 175.138 189.527 175.246 190.007 175.366C190.455 175.478 190.835 175.59 191.147 175.702C191.467 175.814 191.727 175.942 191.927 176.086C192.135 176.23 192.283 176.398 192.371 176.59C192.467 176.774 192.515 176.998 192.515 177.262C192.515 177.566 192.451 177.842 192.323 178.09C192.203 178.338 192.031 178.55 191.807 178.726C191.583 178.894 191.307 179.026 190.979 179.122C190.659 179.21 190.303 179.254 189.911 179.254ZM196.005 179.254C195.749 179.254 195.481 179.234 195.201 179.194C194.929 179.154 194.661 179.098 194.397 179.026C194.133 178.954 193.881 178.866 193.641 178.762C193.401 178.658 193.189 178.542 193.005 178.414L193.653 177.322C194.453 177.842 195.225 178.102 195.969 178.102C196.305 178.102 196.569 178.042 196.761 177.922C196.953 177.802 197.049 177.63 197.049 177.406C197.049 177.182 196.933 177.018 196.701 176.914C196.477 176.802 196.097 176.682 195.561 176.554C195.153 176.458 194.805 176.358 194.517 176.254C194.229 176.15 193.997 176.03 193.821 175.894C193.645 175.758 193.517 175.602 193.437 175.426C193.357 175.25 193.317 175.042 193.317 174.802C193.317 174.482 193.381 174.194 193.509 173.938C193.637 173.682 193.813 173.466 194.037 173.29C194.269 173.106 194.537 172.966 194.841 172.87C195.153 172.774 195.489 172.726 195.849 172.726C196.297 172.726 196.741 172.798 197.181 172.942C197.629 173.078 198.045 173.266 198.429 173.506L197.769 174.502C197.417 174.278 197.085 174.118 196.773 174.022C196.461 173.918 196.149 173.866 195.837 173.866C195.549 173.866 195.305 173.922 195.105 174.034C194.913 174.146 194.817 174.326 194.817 174.574C194.817 174.79 194.909 174.946 195.093 175.042C195.285 175.138 195.621 175.246 196.101 175.366C196.549 175.478 196.929 175.59 197.241 175.702C197.561 175.814 197.821 175.942 198.021 176.086C198.229 176.23 198.377 176.398 198.465 176.59C198.561 176.774 198.609 176.998 198.609 177.262C198.609 177.566 198.545 177.842 198.417 178.09C198.297 178.338 198.125 178.55 197.901 178.726C197.677 178.894 197.401 179.026 197.073 179.122C196.753 179.21 196.397 179.254 196.005 179.254ZM202.531 179.254C202.019 179.254 201.559 179.166 201.151 178.99C200.743 178.814 200.395 178.578 200.107 178.282C199.827 177.978 199.611 177.63 199.459 177.238C199.307 176.846 199.231 176.434 199.231 176.002C199.231 175.562 199.307 175.146 199.459 174.754C199.611 174.362 199.827 174.018 200.107 173.722C200.395 173.418 200.743 173.178 201.151 173.002C201.559 172.826 202.019 172.738 202.531 172.738C203.043 172.738 203.499 172.826 203.899 173.002C204.307 173.178 204.651 173.418 204.931 173.722C205.219 174.018 205.439 174.362 205.591 174.754C205.743 175.146 205.819 175.562 205.819 176.002C205.819 176.434 205.743 176.846 205.591 177.238C205.439 177.63 205.223 177.978 204.943 178.282C204.663 178.578 204.319 178.814 203.911 178.99C203.503 179.166 203.043 179.254 202.531 179.254ZM200.887 176.002C200.887 176.282 200.927 176.538 201.007 176.77C201.095 176.994 201.211 177.19 201.355 177.358C201.507 177.526 201.683 177.658 201.883 177.754C202.083 177.842 202.299 177.886 202.531 177.886C202.763 177.886 202.979 177.842 203.179 177.754C203.379 177.658 203.551 177.526 203.695 177.358C203.847 177.19 203.963 176.99 204.043 176.758C204.131 176.526 204.175 176.27 204.175 175.99C204.175 175.718 204.131 175.466 204.043 175.234C203.963 175.002 203.847 174.802 203.695 174.634C203.551 174.466 203.379 174.338 203.179 174.25C202.979 174.154 202.763 174.106 202.531 174.106C202.299 174.106 202.083 174.154 201.883 174.25C201.683 174.346 201.507 174.478 201.355 174.646C201.211 174.814 201.095 175.014 201.007 175.246C200.927 175.478 200.887 175.73 200.887 176.002ZM206.496 175.99C206.496 175.55 206.572 175.134 206.724 174.742C206.876 174.35 207.096 174.006 207.384 173.71C207.672 173.414 208.02 173.178 208.428 173.002C208.836 172.826 209.296 172.738 209.808 172.738C210.496 172.738 211.08 172.886 211.56 173.182C212.048 173.478 212.412 173.866 212.652 174.346L211.08 174.826C210.944 174.594 210.764 174.418 210.54 174.298C210.316 174.17 210.068 174.106 209.796 174.106C209.564 174.106 209.348 174.154 209.148 174.25C208.948 174.338 208.772 174.466 208.62 174.634C208.476 174.794 208.36 174.99 208.272 175.222C208.192 175.454 208.152 175.71 208.152 175.99C208.152 176.27 208.196 176.526 208.284 176.758C208.372 176.99 208.488 177.19 208.632 177.358C208.784 177.526 208.96 177.658 209.16 177.754C209.36 177.842 209.572 177.886 209.796 177.886C210.084 177.886 210.348 177.814 210.588 177.67C210.836 177.526 211.008 177.35 211.104 177.142L212.676 177.622C212.46 178.102 212.104 178.494 211.608 178.798C211.112 179.102 210.516 179.254 209.82 179.254C209.308 179.254 208.848 179.166 208.44 178.99C208.032 178.814 207.684 178.578 207.396 178.282C207.108 177.978 206.884 177.63 206.724 177.238C206.572 176.838 206.496 176.422 206.496 175.99ZM213.654 179.134V172.846H215.262V179.134H213.654ZM213.654 171.97V170.374H215.262V171.97H213.654ZM218.417 179.254C218.113 179.254 217.829 179.206 217.565 179.11C217.301 179.006 217.073 178.866 216.881 178.69C216.689 178.506 216.537 178.294 216.425 178.054C216.321 177.814 216.269 177.55 216.269 177.262C216.269 176.966 216.333 176.694 216.461 176.446C216.597 176.19 216.781 175.974 217.013 175.798C217.253 175.622 217.537 175.486 217.865 175.39C218.193 175.286 218.553 175.234 218.945 175.234C219.225 175.234 219.497 175.258 219.761 175.306C220.033 175.354 220.273 175.422 220.481 175.51V175.15C220.481 174.734 220.361 174.414 220.121 174.19C219.889 173.966 219.541 173.854 219.077 173.854C218.741 173.854 218.413 173.914 218.093 174.034C217.773 174.154 217.445 174.33 217.109 174.562L216.617 173.542C217.425 173.006 218.297 172.738 219.233 172.738C220.137 172.738 220.837 172.962 221.333 173.41C221.837 173.85 222.089 174.49 222.089 175.33V177.286C222.089 177.454 222.121 177.574 222.185 177.646C222.249 177.718 222.361 177.758 222.521 177.766V179.134C222.369 179.166 222.225 179.186 222.089 179.194C221.961 179.21 221.849 179.218 221.753 179.218C221.449 179.21 221.217 179.142 221.057 179.014C220.897 178.878 220.797 178.698 220.757 178.474L220.721 178.126C220.441 178.494 220.101 178.774 219.701 178.966C219.301 179.158 218.873 179.254 218.417 179.254ZM218.873 178.078C219.145 178.078 219.401 178.03 219.641 177.934C219.889 177.838 220.081 177.71 220.217 177.55C220.393 177.414 220.481 177.262 220.481 177.094V176.374C220.289 176.302 220.081 176.246 219.857 176.206C219.633 176.158 219.417 176.134 219.209 176.134C218.793 176.134 218.453 176.23 218.189 176.422C217.925 176.606 217.793 176.842 217.793 177.13C217.793 177.402 217.897 177.63 218.105 177.814C218.313 177.99 218.569 178.078 218.873 178.078ZM227.301 178.81C227.085 178.906 226.817 179.002 226.497 179.098C226.185 179.194 225.857 179.242 225.513 179.242C225.289 179.242 225.077 179.214 224.877 179.158C224.685 179.102 224.513 179.014 224.361 178.894C224.217 178.766 224.101 178.606 224.013 178.414C223.925 178.214 223.881 177.974 223.881 177.694V174.082H223.065V172.846H223.881V170.806H225.489V172.846H226.821V174.082H225.489V177.154C225.489 177.378 225.549 177.538 225.669 177.634C225.789 177.722 225.933 177.766 226.101 177.766C226.269 177.766 226.433 177.738 226.593 177.682C226.753 177.626 226.881 177.578 226.977 177.538L227.301 178.81ZM231.031 179.254C230.527 179.254 230.071 179.17 229.663 179.002C229.255 178.826 228.907 178.59 228.619 178.294C228.331 177.998 228.107 177.654 227.947 177.262C227.795 176.87 227.719 176.458 227.719 176.026C227.719 175.578 227.795 175.158 227.947 174.766C228.099 174.366 228.319 174.018 228.607 173.722C228.895 173.418 229.243 173.178 229.651 173.002C230.067 172.826 230.531 172.738 231.043 172.738C231.555 172.738 232.011 172.826 232.411 173.002C232.819 173.178 233.163 173.414 233.443 173.71C233.731 174.006 233.947 174.35 234.091 174.742C234.243 175.134 234.319 175.542 234.319 175.966C234.319 176.07 234.315 176.17 234.307 176.266C234.307 176.362 234.299 176.442 234.283 176.506H229.423C229.447 176.754 229.507 176.974 229.603 177.166C229.699 177.358 229.823 177.522 229.975 177.658C230.127 177.794 230.299 177.898 230.491 177.97C230.683 178.042 230.883 178.078 231.091 178.078C231.411 178.078 231.711 178.002 231.991 177.85C232.279 177.69 232.475 177.482 232.579 177.226L233.959 177.61C233.727 178.09 233.355 178.486 232.843 178.798C232.339 179.102 231.735 179.254 231.031 179.254ZM232.663 175.462C232.623 174.99 232.447 174.614 232.135 174.334C231.831 174.046 231.459 173.902 231.019 173.902C230.803 173.902 230.599 173.942 230.407 174.022C230.223 174.094 230.059 174.198 229.915 174.334C229.771 174.47 229.651 174.634 229.555 174.826C229.467 175.018 229.415 175.23 229.399 175.462H232.663ZM238.337 179.134V170.614H244.061V172.066H239.993V174.262H243.377V175.606H239.993V179.134H238.337ZM248.769 174.238C248.281 174.246 247.845 174.342 247.461 174.526C247.077 174.702 246.801 174.97 246.633 175.33V179.134H245.025V172.846H246.501V174.19C246.717 173.758 246.997 173.41 247.341 173.146C247.693 172.882 248.061 172.75 248.445 172.75C248.533 172.75 248.597 172.754 248.637 172.762C248.685 172.762 248.729 172.766 248.769 172.774V174.238ZM252.593 179.254C252.089 179.254 251.633 179.17 251.225 179.002C250.817 178.826 250.469 178.59 250.181 178.294C249.893 177.998 249.669 177.654 249.509 177.262C249.357 176.87 249.281 176.458 249.281 176.026C249.281 175.578 249.357 175.158 249.509 174.766C249.661 174.366 249.881 174.018 250.169 173.722C250.457 173.418 250.805 173.178 251.213 173.002C251.629 172.826 252.093 172.738 252.605 172.738C253.117 172.738 253.573 172.826 253.973 173.002C254.381 173.178 254.725 173.414 255.005 173.71C255.293 174.006 255.509 174.35 255.653 174.742C255.805 175.134 255.881 175.542 255.881 175.966C255.881 176.07 255.877 176.17 255.869 176.266C255.869 176.362 255.861 176.442 255.845 176.506H250.985C251.009 176.754 251.069 176.974 251.165 177.166C251.261 177.358 251.385 177.522 251.537 177.658C251.689 177.794 251.861 177.898 252.053 177.97C252.245 178.042 252.445 178.078 252.653 178.078C252.973 178.078 253.273 178.002 253.553 177.85C253.841 177.69 254.037 177.482 254.141 177.226L255.521 177.61C255.289 178.09 254.917 178.486 254.405 178.798C253.901 179.102 253.297 179.254 252.593 179.254ZM254.225 175.462C254.185 174.99 254.009 174.614 253.697 174.334C253.393 174.046 253.021 173.902 252.581 173.902C252.365 173.902 252.161 173.942 251.969 174.022C251.785 174.094 251.621 174.198 251.477 174.334C251.333 174.47 251.213 174.634 251.117 174.826C251.029 175.018 250.977 175.23 250.961 175.462H254.225ZM259.789 179.254C259.285 179.254 258.829 179.17 258.421 179.002C258.013 178.826 257.665 178.59 257.377 178.294C257.089 177.998 256.865 177.654 256.705 177.262C256.553 176.87 256.477 176.458 256.477 176.026C256.477 175.578 256.553 175.158 256.705 174.766C256.857 174.366 257.077 174.018 257.365 173.722C257.653 173.418 258.001 173.178 258.409 173.002C258.825 172.826 259.289 172.738 259.801 172.738C260.313 172.738 260.769 172.826 261.169 173.002C261.577 173.178 261.921 173.414 262.201 173.71C262.489 174.006 262.705 174.35 262.849 174.742C263.001 175.134 263.077 175.542 263.077 175.966C263.077 176.07 263.073 176.17 263.065 176.266C263.065 176.362 263.057 176.442 263.041 176.506H258.181C258.205 176.754 258.265 176.974 258.361 177.166C258.457 177.358 258.581 177.522 258.733 177.658C258.885 177.794 259.057 177.898 259.249 177.97C259.441 178.042 259.641 178.078 259.849 178.078C260.169 178.078 260.469 178.002 260.749 177.85C261.037 177.69 261.233 177.482 261.337 177.226L262.717 177.61C262.485 178.09 262.113 178.486 261.601 178.798C261.097 179.102 260.493 179.254 259.789 179.254ZM261.421 175.462C261.381 174.99 261.205 174.614 260.893 174.334C260.589 174.046 260.217 173.902 259.777 173.902C259.561 173.902 259.357 173.942 259.165 174.022C258.981 174.094 258.817 174.198 258.673 174.334C258.529 174.47 258.409 174.634 258.313 174.826C258.225 175.018 258.173 175.23 258.157 175.462H261.421ZM267.095 179.134V170.614H270.707C271.099 170.614 271.459 170.698 271.787 170.866C272.123 171.026 272.411 171.242 272.651 171.514C272.891 171.778 273.079 172.082 273.215 172.426C273.351 172.762 273.419 173.102 273.419 173.446C273.419 173.806 273.355 174.158 273.227 174.502C273.099 174.838 272.919 175.138 272.687 175.402C272.455 175.666 272.175 175.878 271.847 176.038C271.519 176.198 271.159 176.278 270.767 176.278H268.751V179.134H267.095ZM268.751 174.826H270.671C270.975 174.826 271.227 174.702 271.427 174.454C271.635 174.206 271.739 173.87 271.739 173.446C271.739 173.23 271.707 173.038 271.643 172.87C271.579 172.694 271.495 172.546 271.391 172.426C271.287 172.306 271.163 172.218 271.019 172.162C270.883 172.098 270.743 172.066 270.599 172.066H268.751V174.826ZM278.124 174.238C277.636 174.246 277.2 174.342 276.816 174.526C276.432 174.702 276.156 174.97 275.988 175.33V179.134H274.38V172.846H275.856V174.19C276.072 173.758 276.352 173.41 276.696 173.146C277.048 172.882 277.416 172.75 277.8 172.75C277.888 172.75 277.952 172.754 277.992 172.762C278.04 172.762 278.084 172.766 278.124 172.774V174.238ZM280.655 179.254C280.351 179.254 280.067 179.206 279.803 179.11C279.539 179.006 279.311 178.866 279.119 178.69C278.927 178.506 278.775 178.294 278.663 178.054C278.559 177.814 278.507 177.55 278.507 177.262C278.507 176.966 278.571 176.694 278.699 176.446C278.835 176.19 279.019 175.974 279.251 175.798C279.491 175.622 279.775 175.486 280.103 175.39C280.431 175.286 280.791 175.234 281.183 175.234C281.463 175.234 281.735 175.258 281.999 175.306C282.271 175.354 282.511 175.422 282.719 175.51V175.15C282.719 174.734 282.599 174.414 282.359 174.19C282.127 173.966 281.779 173.854 281.315 173.854C280.979 173.854 280.651 173.914 280.331 174.034C280.011 174.154 279.683 174.33 279.347 174.562L278.855 173.542C279.663 173.006 280.535 172.738 281.471 172.738C282.375 172.738 283.075 172.962 283.571 173.41C284.075 173.85 284.327 174.49 284.327 175.33V177.286C284.327 177.454 284.359 177.574 284.423 177.646C284.487 177.718 284.599 177.758 284.759 177.766V179.134C284.607 179.166 284.463 179.186 284.327 179.194C284.199 179.21 284.087 179.218 283.991 179.218C283.687 179.21 283.455 179.142 283.295 179.014C283.135 178.878 283.035 178.698 282.995 178.474L282.959 178.126C282.679 178.494 282.339 178.774 281.939 178.966C281.539 179.158 281.111 179.254 280.655 179.254ZM281.111 178.078C281.383 178.078 281.639 178.03 281.879 177.934C282.127 177.838 282.319 177.71 282.455 177.55C282.631 177.414 282.719 177.262 282.719 177.094V176.374C282.527 176.302 282.319 176.246 282.095 176.206C281.871 176.158 281.655 176.134 281.447 176.134C281.031 176.134 280.691 176.23 280.427 176.422C280.163 176.606 280.031 176.842 280.031 177.13C280.031 177.402 280.135 177.63 280.343 177.814C280.551 177.99 280.807 178.078 281.111 178.078ZM285.481 175.99C285.481 175.55 285.557 175.134 285.709 174.742C285.861 174.35 286.081 174.006 286.369 173.71C286.657 173.414 287.005 173.178 287.413 173.002C287.821 172.826 288.281 172.738 288.793 172.738C289.481 172.738 290.065 172.886 290.545 173.182C291.033 173.478 291.397 173.866 291.637 174.346L290.065 174.826C289.929 174.594 289.749 174.418 289.525 174.298C289.301 174.17 289.053 174.106 288.781 174.106C288.549 174.106 288.333 174.154 288.133 174.25C287.933 174.338 287.757 174.466 287.605 174.634C287.461 174.794 287.345 174.99 287.257 175.222C287.177 175.454 287.137 175.71 287.137 175.99C287.137 176.27 287.181 176.526 287.269 176.758C287.357 176.99 287.473 177.19 287.617 177.358C287.769 177.526 287.945 177.658 288.145 177.754C288.345 177.842 288.557 177.886 288.781 177.886C289.069 177.886 289.333 177.814 289.573 177.67C289.821 177.526 289.993 177.35 290.089 177.142L291.661 177.622C291.445 178.102 291.089 178.494 290.593 178.798C290.097 179.102 289.501 179.254 288.805 179.254C288.293 179.254 287.833 179.166 287.425 178.99C287.017 178.814 286.669 178.578 286.381 178.282C286.093 177.978 285.869 177.63 285.709 177.238C285.557 176.838 285.481 176.422 285.481 175.99ZM296.418 178.81C296.202 178.906 295.934 179.002 295.614 179.098C295.302 179.194 294.974 179.242 294.63 179.242C294.406 179.242 294.194 179.214 293.994 179.158C293.802 179.102 293.63 179.014 293.478 178.894C293.334 178.766 293.218 178.606 293.13 178.414C293.042 178.214 292.998 177.974 292.998 177.694V174.082H292.182V172.846H292.998V170.806H294.606V172.846H295.938V174.082H294.606V177.154C294.606 177.378 294.666 177.538 294.786 177.634C294.906 177.722 295.05 177.766 295.218 177.766C295.386 177.766 295.55 177.738 295.71 177.682C295.87 177.626 295.998 177.578 296.094 177.538L296.418 178.81ZM297.22 179.134V172.846H298.828V179.134H297.22ZM297.22 171.97V170.374H298.828V171.97H297.22ZM299.871 175.99C299.871 175.55 299.947 175.134 300.099 174.742C300.251 174.35 300.471 174.006 300.759 173.71C301.047 173.414 301.395 173.178 301.803 173.002C302.211 172.826 302.671 172.738 303.183 172.738C303.871 172.738 304.455 172.886 304.935 173.182C305.423 173.478 305.787 173.866 306.027 174.346L304.455 174.826C304.319 174.594 304.139 174.418 303.915 174.298C303.691 174.17 303.443 174.106 303.171 174.106C302.939 174.106 302.723 174.154 302.523 174.25C302.323 174.338 302.147 174.466 301.995 174.634C301.851 174.794 301.735 174.99 301.647 175.222C301.567 175.454 301.527 175.71 301.527 175.99C301.527 176.27 301.571 176.526 301.659 176.758C301.747 176.99 301.863 177.19 302.007 177.358C302.159 177.526 302.335 177.658 302.535 177.754C302.735 177.842 302.947 177.886 303.171 177.886C303.459 177.886 303.723 177.814 303.963 177.67C304.211 177.526 304.383 177.35 304.479 177.142L306.051 177.622C305.835 178.102 305.479 178.494 304.983 178.798C304.487 179.102 303.891 179.254 303.195 179.254C302.683 179.254 302.223 179.166 301.815 178.99C301.407 178.814 301.059 178.578 300.771 178.282C300.483 177.978 300.259 177.63 300.099 177.238C299.947 176.838 299.871 176.422 299.871 175.99ZM309.957 179.254C309.453 179.254 308.997 179.17 308.589 179.002C308.181 178.826 307.833 178.59 307.545 178.294C307.257 177.998 307.033 177.654 306.873 177.262C306.721 176.87 306.645 176.458 306.645 176.026C306.645 175.578 306.721 175.158 306.873 174.766C307.025 174.366 307.245 174.018 307.533 173.722C307.821 173.418 308.169 173.178 308.577 173.002C308.993 172.826 309.457 172.738 309.969 172.738C310.481 172.738 310.937 172.826 311.337 173.002C311.745 173.178 312.089 173.414 312.369 173.71C312.657 174.006 312.873 174.35 313.017 174.742C313.169 175.134 313.245 175.542 313.245 175.966C313.245 176.07 313.241 176.17 313.233 176.266C313.233 176.362 313.225 176.442 313.209 176.506H308.349C308.373 176.754 308.433 176.974 308.529 177.166C308.625 177.358 308.749 177.522 308.901 177.658C309.053 177.794 309.225 177.898 309.417 177.97C309.609 178.042 309.809 178.078 310.017 178.078C310.337 178.078 310.637 178.002 310.917 177.85C311.205 177.69 311.401 177.482 311.505 177.226L312.885 177.61C312.653 178.09 312.281 178.486 311.769 178.798C311.265 179.102 310.661 179.254 309.957 179.254ZM311.589 175.462C311.549 174.99 311.373 174.614 311.061 174.334C310.757 174.046 310.385 173.902 309.945 173.902C309.729 173.902 309.525 173.942 309.333 174.022C309.149 174.094 308.985 174.198 308.841 174.334C308.697 174.47 308.577 174.634 308.481 174.826C308.393 175.018 308.341 175.23 308.325 175.462H311.589ZM323.295 172.066H320.583V179.134H318.927V172.066H316.203V170.614H323.295V172.066ZM327.125 179.254C326.621 179.254 326.165 179.17 325.757 179.002C325.349 178.826 325.001 178.59 324.713 178.294C324.425 177.998 324.201 177.654 324.041 177.262C323.889 176.87 323.813 176.458 323.813 176.026C323.813 175.578 323.889 175.158 324.041 174.766C324.193 174.366 324.413 174.018 324.701 173.722C324.989 173.418 325.337 173.178 325.745 173.002C326.161 172.826 326.625 172.738 327.137 172.738C327.649 172.738 328.105 172.826 328.505 173.002C328.913 173.178 329.257 173.414 329.537 173.71C329.825 174.006 330.041 174.35 330.185 174.742C330.337 175.134 330.413 175.542 330.413 175.966C330.413 176.07 330.409 176.17 330.401 176.266C330.401 176.362 330.393 176.442 330.377 176.506H325.517C325.541 176.754 325.601 176.974 325.697 177.166C325.793 177.358 325.917 177.522 326.069 177.658C326.221 177.794 326.393 177.898 326.585 177.97C326.777 178.042 326.977 178.078 327.185 178.078C327.505 178.078 327.805 178.002 328.085 177.85C328.373 177.69 328.569 177.482 328.673 177.226L330.053 177.61C329.821 178.09 329.449 178.486 328.937 178.798C328.433 179.102 327.829 179.254 327.125 179.254ZM328.757 175.462C328.717 174.99 328.541 174.614 328.229 174.334C327.925 174.046 327.553 173.902 327.113 173.902C326.897 173.902 326.693 173.942 326.501 174.022C326.317 174.094 326.153 174.198 326.009 174.334C325.865 174.47 325.745 174.634 325.649 174.826C325.561 175.018 325.509 175.23 325.493 175.462H328.757ZM333.876 179.254C333.62 179.254 333.352 179.234 333.072 179.194C332.8 179.154 332.532 179.098 332.268 179.026C332.004 178.954 331.752 178.866 331.512 178.762C331.272 178.658 331.06 178.542 330.876 178.414L331.524 177.322C332.324 177.842 333.096 178.102 333.84 178.102C334.176 178.102 334.44 178.042 334.632 177.922C334.824 177.802 334.92 177.63 334.92 177.406C334.92 177.182 334.804 177.018 334.572 176.914C334.348 176.802 333.968 176.682 333.432 176.554C333.024 176.458 332.676 176.358 332.388 176.254C332.1 176.15 331.868 176.03 331.692 175.894C331.516 175.758 331.388 175.602 331.308 175.426C331.228 175.25 331.188 175.042 331.188 174.802C331.188 174.482 331.252 174.194 331.38 173.938C331.508 173.682 331.684 173.466 331.908 173.29C332.14 173.106 332.408 172.966 332.712 172.87C333.024 172.774 333.36 172.726 333.72 172.726C334.168 172.726 334.612 172.798 335.052 172.942C335.5 173.078 335.916 173.266 336.3 173.506L335.64 174.502C335.288 174.278 334.956 174.118 334.644 174.022C334.332 173.918 334.02 173.866 333.708 173.866C333.42 173.866 333.176 173.922 332.976 174.034C332.784 174.146 332.688 174.326 332.688 174.574C332.688 174.79 332.78 174.946 332.964 175.042C333.156 175.138 333.492 175.246 333.972 175.366C334.42 175.478 334.8 175.59 335.112 175.702C335.432 175.814 335.692 175.942 335.892 176.086C336.1 176.23 336.248 176.398 336.336 176.59C336.432 176.774 336.48 176.998 336.48 177.262C336.48 177.566 336.416 177.842 336.288 178.09C336.168 178.338 335.996 178.55 335.772 178.726C335.548 178.894 335.272 179.026 334.944 179.122C334.624 179.21 334.268 179.254 333.876 179.254ZM341.23 178.81C341.014 178.906 340.746 179.002 340.426 179.098C340.114 179.194 339.786 179.242 339.442 179.242C339.218 179.242 339.006 179.214 338.806 179.158C338.614 179.102 338.442 179.014 338.29 178.894C338.146 178.766 338.03 178.606 337.942 178.414C337.854 178.214 337.81 177.974 337.81 177.694V174.082H336.994V172.846H337.81V170.806H339.418V172.846H340.75V174.082H339.418V177.154C339.418 177.378 339.478 177.538 339.598 177.634C339.718 177.722 339.862 177.766 340.03 177.766C340.198 177.766 340.362 177.738 340.522 177.682C340.682 177.626 340.81 177.578 340.906 177.538L341.23 178.81Z" fill="white"/>
<path d="M252.83 112.416C252.819 113.013 252.884 113.599 253.047 114.174C253.22 114.663 253.427 115.14 253.676 115.596C253.763 115.737 253.806 115.889 253.817 116.052C253.796 116.301 253.655 116.519 253.448 116.649L252.211 117.474C252.059 117.582 251.886 117.647 251.701 117.647C251.473 117.636 251.267 117.528 251.115 117.365C250.855 117.083 250.616 116.768 250.41 116.443C250.214 116.106 250.019 115.737 249.802 115.281C248.413 117.029 246.286 118.038 244.061 118.005C242.618 118.081 241.207 117.571 240.154 116.584C238.103 114.315 238.255 110.821 240.49 108.726C241.847 107.641 243.551 107.099 245.276 107.185C245.971 107.185 246.666 107.24 247.349 107.337C248.076 107.435 248.814 107.598 249.596 107.771V106.328C249.704 105.199 249.379 104.06 248.673 103.17C247.772 102.475 246.633 102.15 245.493 102.258C244.788 102.258 244.072 102.345 243.388 102.519C242.672 102.692 241.966 102.92 241.283 103.192C241.055 103.289 240.827 103.376 240.599 103.452C240.501 103.485 240.393 103.506 240.284 103.506C240.013 103.506 239.872 103.311 239.872 102.899V101.933C239.85 101.694 239.894 101.455 240.013 101.238C240.154 101.065 240.349 100.913 240.556 100.826C241.337 100.435 242.162 100.142 243.019 99.9359C244.018 99.6754 245.038 99.556 246.069 99.556C247.914 99.3932 249.758 99.9684 251.191 101.151C252.363 102.486 252.96 104.233 252.819 106.002V112.395L252.83 112.416ZM244.897 115.412C245.58 115.401 246.264 115.281 246.904 115.053C247.621 114.804 248.261 114.37 248.76 113.784C249.075 113.415 249.303 112.981 249.422 112.514C249.552 111.95 249.617 111.374 249.617 110.799V109.974C249.021 109.823 248.424 109.714 247.816 109.638C247.208 109.562 246.59 109.519 245.982 109.519C244.951 109.432 243.92 109.714 243.073 110.311C241.89 111.494 241.793 113.371 242.835 114.674C243.388 115.205 244.137 115.466 244.897 115.412ZM260.578 117.539C260.318 117.571 260.047 117.495 259.84 117.343C259.634 117.126 259.493 116.866 259.428 116.573L254.837 101.314C254.751 101.054 254.686 100.793 254.664 100.522C254.631 100.283 254.794 100.066 255.022 100.034C255.055 100.034 255.098 100.034 255.13 100.034H257.051C257.323 100.001 257.594 100.077 257.811 100.229C258.006 100.446 258.147 100.706 258.202 100.999L261.479 114.066L264.529 100.999C264.572 100.706 264.702 100.446 264.898 100.229C265.137 100.088 265.408 100.012 265.679 100.034H267.242C267.513 100.001 267.795 100.077 268.023 100.229C268.229 100.435 268.36 100.706 268.392 100.999L271.485 114.218L274.86 100.999C274.925 100.717 275.056 100.446 275.251 100.229C275.479 100.088 275.739 100.012 276.011 100.034H277.823C278.062 100.001 278.279 100.164 278.311 100.403C278.311 100.446 278.311 100.478 278.311 100.522C278.311 100.63 278.29 100.739 278.268 100.837C278.236 100.999 278.192 101.173 278.127 101.325L273.428 116.584C273.374 116.877 273.222 117.137 273.015 117.354C272.798 117.495 272.538 117.571 272.277 117.55H270.595C270.324 117.582 270.042 117.506 269.814 117.354C269.608 117.137 269.478 116.866 269.445 116.562L266.417 103.832L263.411 116.54C263.368 116.833 263.237 117.105 263.042 117.332C262.814 117.484 262.532 117.56 262.261 117.528L260.578 117.539ZM285.691 118.07C284.682 118.07 283.662 117.951 282.685 117.712C281.904 117.55 281.155 117.289 280.439 116.92C280.189 116.801 279.972 116.605 279.831 116.367C279.755 116.193 279.711 116.008 279.711 115.813V114.815C279.711 114.402 279.863 114.207 280.156 114.207C280.276 114.207 280.395 114.229 280.504 114.272C280.623 114.315 280.797 114.391 280.992 114.467C281.687 114.771 282.403 115.01 283.141 115.162C283.911 115.314 284.682 115.401 285.463 115.401C286.462 115.455 287.449 115.238 288.317 114.75C288.969 114.348 289.359 113.632 289.338 112.872C289.348 112.362 289.164 111.863 288.806 111.494C288.231 111.005 287.558 110.658 286.831 110.474L283.998 109.584C282.772 109.258 281.676 108.553 280.873 107.565C280.243 106.74 279.896 105.742 279.896 104.7C279.885 103.94 280.059 103.181 280.428 102.508C280.775 101.878 281.263 101.325 281.839 100.891C282.446 100.424 283.13 100.077 283.868 99.8599C284.671 99.632 285.496 99.5126 286.331 99.5235C286.766 99.5235 287.211 99.5452 287.645 99.5994C288.09 99.6537 288.502 99.7405 288.914 99.8165C289.305 99.9141 289.674 100.012 290.032 100.131C290.314 100.218 290.597 100.337 290.857 100.489C291.085 100.609 291.291 100.771 291.443 100.978C291.573 101.173 291.628 101.401 291.617 101.629V102.562C291.617 102.975 291.465 103.192 291.172 103.192C290.911 103.159 290.662 103.083 290.434 102.953C289.251 102.421 287.97 102.161 286.679 102.182C285.778 102.128 284.877 102.323 284.085 102.736C283.477 103.105 283.119 103.778 283.163 104.494C283.152 105.026 283.369 105.536 283.749 105.894C284.378 106.404 285.116 106.773 285.897 106.979L288.676 107.869C289.859 108.173 290.911 108.835 291.703 109.768C292.3 110.56 292.615 111.537 292.604 112.536C292.615 113.328 292.441 114.109 292.094 114.826C291.747 115.498 291.259 116.095 290.672 116.562C290.032 117.072 289.294 117.441 288.502 117.669C287.59 117.94 286.646 118.081 285.691 118.07Z" fill="white"/>
<path d="M289.392 127.664C282.957 132.461 273.623 135 265.592 135C254.848 135.055 244.473 131.05 236.54 123.811C235.933 123.258 236.475 122.509 237.202 122.943C246.047 128.044 256.075 130.735 266.276 130.735C273.895 130.692 281.437 129.14 288.448 126.156C289.522 125.678 290.445 126.883 289.392 127.664ZM292.062 124.593C291.237 123.529 286.625 124.083 284.541 124.332C283.912 124.408 283.814 123.855 284.389 123.442C288.057 120.838 294.102 121.587 294.807 122.455C295.513 123.345 294.612 129.444 291.172 132.363C290.64 132.819 290.141 132.58 290.369 131.983C291.15 130.03 292.887 125.635 292.062 124.593Z" fill="white"/>
<path opacity="0.2" d="M364.354 182.607C364.959 182.607 365.45 182.116 365.45 181.511C365.45 180.906 364.959 180.415 364.354 180.415C363.749 180.415 363.258 180.906 363.258 181.511C363.258 182.116 363.749 182.607 364.354 182.607Z" fill="white"/>
<path opacity="0.2" d="M375.705 182.607C376.311 182.607 376.802 182.116 376.802 181.511C376.802 180.906 376.311 180.415 375.705 180.415C375.1 180.415 374.609 180.906 374.609 181.511C374.609 182.116 375.1 182.607 375.705 182.607Z" fill="white"/>
<path opacity="0.2" d="M387.058 182.607C387.663 182.607 388.154 182.116 388.154 181.511C388.154 180.906 387.663 180.415 387.058 180.415C386.452 180.415 385.961 180.906 385.961 181.511C385.961 182.116 386.452 182.607 387.058 182.607Z" fill="white"/>
<path opacity="0.2" d="M398.409 182.607C399.014 182.607 399.505 182.116 399.505 181.511C399.505 180.906 399.014 180.415 398.409 180.415C397.804 180.415 397.313 180.906 397.313 181.511C397.313 182.116 397.804 182.607 398.409 182.607Z" fill="white"/>
<path opacity="0.2" d="M364.354 193.959C364.959 193.959 365.45 193.468 365.45 192.863C365.45 192.257 364.959 191.767 364.354 191.767C363.749 191.767 363.258 192.257 363.258 192.863C363.258 193.468 363.749 193.959 364.354 193.959Z" fill="white"/>
<path opacity="0.2" d="M375.705 193.959C376.311 193.959 376.802 193.468 376.802 192.863C376.802 192.257 376.311 191.767 375.705 191.767C375.1 191.767 374.609 192.257 374.609 192.863C374.609 193.468 375.1 193.959 375.705 193.959Z" fill="white"/>
<path opacity="0.2" d="M387.058 193.959C387.663 193.959 388.154 193.468 388.154 192.863C388.154 192.257 387.663 191.767 387.058 191.767C386.452 191.767 385.961 192.257 385.961 192.863C385.961 193.468 386.452 193.959 387.058 193.959Z" fill="white"/>
<path opacity="0.2" d="M398.409 193.959C399.014 193.959 399.505 193.468 399.505 192.863C399.505 192.257 399.014 191.767 398.409 191.767C397.804 191.767 397.313 192.257 397.313 192.863C397.313 193.468 397.804 193.959 398.409 193.959Z" fill="white"/>
<path opacity="0.2" d="M364.354 205.311C364.959 205.311 365.45 204.82 365.45 204.215C365.45 203.609 364.959 203.118 364.354 203.118C363.749 203.118 363.258 203.609 363.258 204.215C363.258 204.82 363.749 205.311 364.354 205.311Z" fill="white"/>
<path opacity="0.2" d="M375.705 205.311C376.311 205.311 376.802 204.82 376.802 204.215C376.802 203.609 376.311 203.118 375.705 203.118C375.1 203.118 374.609 203.609 374.609 204.215C374.609 204.82 375.1 205.311 375.705 205.311Z" fill="white"/>
<path opacity="0.2" d="M387.058 205.311C387.663 205.311 388.154 204.82 388.154 204.215C388.154 203.609 387.663 203.118 387.058 203.118C386.452 203.118 385.961 203.609 385.961 204.215C385.961 204.82 386.452 205.311 387.058 205.311Z" fill="white"/>
<path opacity="0.2" d="M398.409 205.311C399.014 205.311 399.505 204.82 399.505 204.215C399.505 203.609 399.014 203.118 398.409 203.118C397.804 203.118 397.313 203.609 397.313 204.215C397.313 204.82 397.804 205.311 398.409 205.311Z" fill="white"/>
<path opacity="0.2" d="M364.354 216.109C364.959 216.109 365.45 215.618 365.45 215.013C365.45 214.407 364.959 213.917 364.354 213.917C363.749 213.917 363.258 214.407 363.258 215.013C363.258 215.618 363.749 216.109 364.354 216.109Z" fill="white"/>
<path opacity="0.2" d="M375.705 216.109C376.311 216.109 376.802 215.618 376.802 215.013C376.802 214.407 376.311 213.917 375.705 213.917C375.1 213.917 374.609 214.407 374.609 215.013C374.609 215.618 375.1 216.109 375.705 216.109Z" fill="white"/>
<path opacity="0.2" d="M387.058 216.109C387.663 216.109 388.154 215.618 388.154 215.013C388.154 214.407 387.663 213.917 387.058 213.917C386.452 213.917 385.961 214.407 385.961 215.013C385.961 215.618 386.452 216.109 387.058 216.109Z" fill="white"/>
<path opacity="0.2" d="M398.409 216.109C399.014 216.109 399.505 215.618 399.505 215.013C399.505 214.407 399.014 213.917 398.409 213.917C397.804 213.917 397.313 214.407 397.313 215.013C397.313 215.618 397.804 216.109 398.409 216.109Z" fill="white"/>
</g>
<defs>
<linearGradient id="paint0_linear" x1="0.13916" y1="135.545" x2="681.298" y2="129.742" gradientUnits="userSpaceOnUse">
<stop stop-color="#D0EEE4"/>
<stop offset="1" stop-color="white" stop-opacity="0"/>
</linearGradient>
<linearGradient id="paint1_linear" x1="164.529" y1="20.1639" x2="254.288" y2="292.898" gradientUnits="userSpaceOnUse">
<stop stop-color="#2B40E2"/>
<stop offset="1" stop-color="#2B87E2"/>
</linearGradient>
<clipPath id="clip0">
<rect width="293.018" height="180" fill="white" transform="translate(118.63 45.5452)"/>
</clipPath>
</defs>
</svg>
