<svg width="862" height="441" viewBox="0 0 862 441" fill="none" xmlns="http://www.w3.org/2000/svg">
<path d="M840.84 161.599C840.84 161.599 824.81 76.8492 734.79 29.4992C644.77 -17.8608 535.01 -5.40084 489.38 46.9492C443.75 99.2892 447.45 191.519 399.36 189.019C351.27 186.519 332.77 120.479 266.17 162.849C199.58 205.219 234.11 262.549 229.17 298.689C224.24 334.829 167.51 278.749 121.88 293.709C76.25 308.669 55.29 351.039 60.22 375.959C65.15 400.879 42.96 432.039 42.96 432.039H848.24C848.24 432.039 860.57 270.019 840.84 161.599Z" fill="#E9EAEB"/>
<path d="M1 432.519H861" stroke="#263238" stroke-miterlimit="10" stroke-linecap="round" stroke-linejoin="round"/>
<path d="M146.95 297.499C150.56 299.079 159.39 298.879 159.4 298.879C159.49 298.879 157.5 293.099 157.33 292.749C155.39 288.699 149.26 281.999 144.28 282.679C140.69 283.169 138.69 286.759 139.5 290.139C140.33 293.589 143.88 296.149 146.95 297.499Z" fill="#F0AE00"/>
<path d="M150 323.079C153.75 323.629 161.63 321.339 162.25 321.159C163.49 325.569 165.13 329.999 167.03 334.389C168.11 336.899 169.28 339.389 170.49 341.879C169.77 340.829 169.12 339.889 169.02 339.769C166.08 336.369 158.4 331.529 153.77 333.499C150.43 334.919 149.46 338.909 151.13 341.959C152.84 345.069 156.94 346.609 160.26 347.099C163.63 347.589 170.39 345.779 172.17 345.269C172.64 346.219 173.1 347.169 173.58 348.119C175.86 352.659 178.16 357.189 180.28 361.699C181.03 363.289 181.7 364.879 182.39 366.469C181.75 365.529 181.2 364.749 181.11 364.639C178.17 361.239 170.49 356.399 165.86 358.369C162.52 359.789 161.55 363.779 163.22 366.829C164.93 369.939 169.03 371.479 172.35 371.969C175.57 372.439 181.82 370.819 183.94 370.229C184.59 371.879 185.25 373.529 185.8 375.159C186.15 376.279 186.57 377.329 186.87 378.479C187.19 379.609 187.5 380.719 187.8 381.829C188.32 383.979 188.86 386.189 189.31 388.299C189.63 389.769 189.92 391.169 190.2 392.579C189.48 390.989 187.99 387.909 187.84 387.659C185.45 383.859 178.59 377.909 173.72 379.149C170.21 380.049 168.64 383.849 169.83 387.109C171.05 390.449 174.86 392.589 178.07 393.569C181.6 394.649 189.43 393.659 190.4 393.529C190.87 395.869 191.3 398.149 191.68 400.299C192.52 405.059 193.15 409.319 193.63 412.929H196.93C196.35 409.199 195.6 404.749 194.61 399.749C194.14 397.369 193.6 394.849 193.01 392.249C193.6 392.019 196.93 390.669 199.89 389.009C202.47 391.799 209.06 395.059 209.92 395.479C209.02 397.689 208.13 399.829 207.25 401.829C205.43 406.029 203.69 409.749 202.16 412.919H205.73C207.05 409.999 208.49 406.669 210 402.989C210.92 400.749 211.86 398.339 212.8 395.859C213.75 396.059 221.49 397.629 225.1 396.819C228.37 396.079 232.34 394.229 233.8 390.989C235.23 387.819 233.95 383.919 230.51 382.759C225.74 381.159 218.46 386.569 215.79 390.189C215.63 390.399 214.18 392.909 213.3 394.499C213.68 393.479 214.06 392.499 214.44 391.449C215.2 389.379 215.9 387.279 216.66 385.029C216.99 383.929 217.32 382.819 217.66 381.699C218.02 380.589 218.25 379.379 218.56 378.209C219.21 375.489 219.73 372.689 220.2 369.869C222.02 370.529 228.51 372.789 231.87 372.549C235.22 372.309 239.42 371.089 241.35 368.109C243.25 365.199 242.57 361.139 239.35 359.479C234.88 357.169 226.86 361.429 223.68 364.599C223.48 364.799 221.45 367.329 220.36 368.739C220.63 367.039 220.9 365.349 221.12 363.619C221.74 358.629 222.21 353.559 222.7 348.509C222.85 346.959 223.02 345.419 223.18 343.879C223.82 344.119 231.48 346.969 235.25 346.709C238.6 346.479 242.8 345.239 244.73 342.269C246.63 339.359 245.95 335.299 242.73 333.639C238.26 331.329 230.24 335.579 227.06 338.749C226.82 338.989 223.91 342.639 223.21 343.599C223.57 340.199 223.96 336.819 224.48 333.499C225.19 328.919 226.14 324.459 227.38 320.209C227.68 320.319 235.66 323.329 239.52 323.059C242.87 322.819 247.07 321.589 249.01 318.619C250.91 315.709 250.23 311.649 247.01 309.989C242.54 307.679 234.52 311.939 231.34 315.099C231.09 315.349 227.96 319.269 227.44 320.029C227.51 319.779 227.56 319.509 227.64 319.259C229.02 314.739 230.93 310.539 232.9 306.689C234.04 304.449 235.26 302.369 236.49 300.379C237.92 301.089 244.48 304.279 247.98 304.419C251.33 304.549 255.64 303.789 257.9 301.049C260.11 298.359 259.88 294.259 256.86 292.249C252.67 289.469 244.23 292.809 240.72 295.609C240.53 295.759 238.76 297.529 237.49 298.829C238.06 297.939 238.63 297.009 239.19 296.169C241.29 292.999 243.42 290.229 245.32 287.789C246.41 286.409 247.43 285.189 248.39 284.049C250.16 284.019 257.28 283.799 260.39 282.339C263.43 280.909 266.9 278.249 267.64 274.779C268.36 271.379 266.26 267.839 262.66 267.449C257.66 266.909 251.71 273.769 249.88 277.869C249.72 278.229 247.89 284.059 247.98 284.059C247.98 284.059 248.07 284.059 248.09 284.059C247.14 285.129 246.14 286.299 245.07 287.589C243.11 289.989 240.92 292.729 238.74 295.859C236.55 298.989 234.26 302.449 232.18 306.309C230.09 310.179 228.08 314.359 226.58 318.929C226.56 318.979 226.55 319.039 226.53 319.089C226.56 317.619 226.49 313.489 226.45 313.179C225.87 308.719 222.14 300.449 217.19 299.539C213.63 298.879 210.61 301.669 210.32 305.139C210.03 308.679 212.6 312.219 215.1 314.459C217.92 316.979 225.76 319.419 226.38 319.619C224.98 323.989 223.91 328.579 223.07 333.289C222.59 335.979 222.19 338.709 221.82 341.449C221.8 340.169 221.78 339.029 221.75 338.879C221.17 334.419 217.44 326.149 212.49 325.239C208.93 324.579 205.91 327.369 205.62 330.839C205.33 334.379 207.9 337.919 210.4 340.159C212.94 342.429 219.58 344.649 221.34 345.209C221.21 346.259 221.07 347.309 220.94 348.359C220.34 353.409 219.76 358.449 219.04 363.379C218.79 365.119 218.47 366.819 218.17 368.519C218.15 367.389 218.13 366.429 218.11 366.289C217.53 361.829 213.8 353.559 208.85 352.649C205.28 351.989 202.27 354.779 201.98 358.249C201.69 361.789 204.26 365.329 206.76 367.569C209.18 369.729 215.29 371.839 217.39 372.509C217.02 374.239 216.66 375.979 216.22 377.649C215.9 378.779 215.67 379.889 215.28 381.009C214.92 382.119 214.57 383.229 214.21 384.319C213.45 386.399 212.69 388.549 211.9 390.549C211.36 391.949 210.82 393.279 210.29 394.609C210.56 392.879 211.02 389.489 211.03 389.209C211.1 386.229 210.04 381.369 207.93 377.959C207.94 377.519 207.92 377.079 207.85 376.639C207.3 373.209 204.07 370.659 200.57 371.589C195.71 372.879 192.62 381.419 192.39 385.909C192.38 386.179 192.55 389.059 192.69 390.879C192.44 389.819 192.22 388.789 191.95 387.709C191.44 385.559 190.87 383.429 190.26 381.129C189.93 380.029 189.59 378.919 189.25 377.799C188.94 376.679 188.47 375.539 188.08 374.399C187.12 371.769 186.02 369.149 184.85 366.539C186.73 366.089 193.39 364.389 196.07 362.339C198.73 360.299 201.56 356.949 201.53 353.399C201.5 349.919 198.7 346.909 195.1 347.299C190.1 347.839 185.76 355.809 184.85 360.209C184.79 360.479 184.5 363.719 184.37 365.489C183.66 363.929 182.95 362.359 182.17 360.799C179.93 356.299 177.53 351.809 175.15 347.319C174.42 345.949 173.71 344.569 172.99 343.189C173.66 343.039 181.62 341.189 184.62 338.889C187.28 336.849 190.11 333.509 190.08 329.949C190.06 326.469 187.25 323.459 183.65 323.849C178.65 324.389 174.31 332.359 173.4 336.759C173.33 337.089 172.91 341.739 172.86 342.929C171.28 339.899 169.74 336.859 168.34 333.799C166.4 329.589 164.74 325.349 163.43 321.119C163.74 321.049 172.06 319.159 175.13 316.799C177.79 314.759 180.62 311.409 180.59 307.859C180.57 304.379 177.76 301.369 174.16 301.759C169.16 302.299 164.82 310.269 163.91 314.669C163.84 315.019 163.39 320.019 163.37 320.929C163.29 320.679 163.18 320.429 163.11 320.179C161.77 315.649 161.04 311.089 160.56 306.789C160.28 304.289 160.15 301.889 160.08 299.549C161.66 299.359 168.9 298.389 171.89 296.579C174.76 294.839 177.93 291.829 178.3 288.299C178.66 284.839 176.2 281.539 172.58 281.529C167.55 281.519 162.36 288.959 160.97 293.239C160.89 293.469 160.39 295.919 160.05 297.709C160.03 296.649 160 295.559 160 294.549C160.01 290.749 160.25 287.259 160.49 284.179C160.64 282.429 160.81 280.849 160.99 279.369C162.45 278.369 168.26 274.259 170.06 271.319C171.81 268.449 173.24 264.319 171.93 261.019C170.65 257.779 166.95 255.989 163.73 257.649C159.26 259.959 158.08 268.959 158.82 273.389C158.88 273.769 160.57 279.649 160.65 279.599C160.65 279.599 160.72 279.549 160.74 279.539C160.54 280.959 160.35 282.479 160.17 284.149C159.86 287.229 159.55 290.719 159.46 294.539C159.36 298.359 159.36 302.509 159.75 306.879C160.14 311.259 160.77 315.849 162.04 320.499C162.05 320.549 162.08 320.609 162.09 320.659C161.3 319.419 158.97 316.009 158.76 315.769C155.82 312.369 148.14 307.529 143.51 309.499C140.17 310.919 139.2 314.909 140.87 317.959C142.58 321.059 146.68 322.599 150 323.079Z" fill="#F0AE00"/>
<path d="M236.28 299.439C236.36 299.489 237.89 293.569 237.94 293.189C238.56 288.739 237.14 279.779 232.61 277.589C229.35 276.009 225.7 277.909 224.51 281.179C223.29 284.519 224.83 288.609 226.66 291.429C228.8 294.729 236.28 299.439 236.28 299.439Z" fill="#F0AE00"/>
<path d="M781.92 362.999C784.08 363.939 789.36 363.819 789.37 363.819C789.42 363.819 788.23 360.359 788.13 360.149C786.97 357.729 783.31 353.719 780.32 354.129C778.17 354.419 776.98 356.569 777.46 358.589C777.96 360.659 780.08 362.189 781.92 362.999Z" fill="#F0AE00"/>
<path d="M783.74 378.299C785.98 378.629 790.69 377.259 791.07 377.149C791.81 379.789 792.79 382.439 793.93 385.059C794.58 386.559 795.28 388.049 796 389.539C795.57 388.909 795.18 388.349 795.12 388.279C793.36 386.249 788.77 383.349 786 384.529C784 385.379 783.42 387.769 784.42 389.589C785.44 391.449 787.89 392.369 789.88 392.659C791.9 392.949 795.94 391.869 797 391.569C797.28 392.139 797.56 392.709 797.84 393.269C799.2 395.989 800.58 398.689 801.85 401.389C802.3 402.339 802.7 403.289 803.11 404.239C802.73 403.679 802.4 403.209 802.34 403.149C800.58 401.119 795.99 398.219 793.22 399.399C791.22 400.249 790.64 402.639 791.64 404.459C792.66 406.319 795.11 407.239 797.1 407.529C799.02 407.809 802.76 406.839 804.03 406.489C804.42 407.479 804.81 408.459 805.14 409.439C805.35 410.109 805.6 410.739 805.78 411.419C805.97 412.089 806.15 412.759 806.34 413.419C806.65 414.709 806.97 416.029 807.24 417.289C807.43 418.169 807.6 418.999 807.78 419.849C807.35 418.899 806.46 417.059 806.37 416.909C804.94 414.629 800.84 411.079 797.92 411.819C795.82 412.359 794.88 414.629 795.59 416.579C796.32 418.569 798.6 419.859 800.52 420.439C802.63 421.089 807.31 420.499 807.9 420.419C808.18 421.819 808.44 423.179 808.66 424.469C809.16 427.319 809.54 429.869 809.83 432.029H811.8C811.46 429.799 811.01 427.129 810.41 424.149C810.13 422.729 809.8 421.219 809.45 419.669C809.8 419.529 811.8 418.719 813.57 417.729C815.11 419.399 819.06 421.349 819.57 421.599C819.03 422.919 818.5 424.199 817.97 425.399C816.88 427.909 815.84 430.139 814.93 432.029H817.06C817.85 430.279 818.71 428.289 819.61 426.089C820.16 424.749 820.72 423.309 821.29 421.819C821.86 421.939 826.49 422.879 828.65 422.389C830.61 421.949 832.98 420.839 833.86 418.899C834.72 417.009 833.95 414.669 831.89 413.979C829.04 413.019 824.68 416.259 823.09 418.419C823 418.549 822.13 420.049 821.6 420.999C821.83 420.389 822.05 419.799 822.28 419.169C822.74 417.929 823.15 416.679 823.61 415.329C823.81 414.669 824.01 414.009 824.21 413.339C824.42 412.679 824.56 411.949 824.75 411.259C825.14 409.629 825.45 407.959 825.73 406.269C826.82 406.669 830.7 408.019 832.71 407.869C834.71 407.729 837.22 406.989 838.38 405.209C839.52 403.469 839.11 401.039 837.18 400.049C834.51 398.669 829.71 401.209 827.81 403.109C827.69 403.229 826.48 404.739 825.83 405.589C825.99 404.569 826.15 403.559 826.28 402.529C826.65 399.549 826.93 396.509 827.23 393.489C827.32 392.559 827.42 391.639 827.52 390.719C827.91 390.869 832.49 392.569 834.74 392.409C836.74 392.269 839.25 391.529 840.41 389.749C841.55 388.009 841.14 385.579 839.21 384.589C836.54 383.209 831.74 385.749 829.84 387.649C829.7 387.789 827.95 389.969 827.54 390.549C827.75 388.519 827.99 386.489 828.3 384.509C828.72 381.769 829.29 379.099 830.03 376.559C830.21 376.629 834.98 378.429 837.29 378.269C839.29 378.129 841.8 377.389 842.96 375.609C844.1 373.869 843.69 371.439 841.76 370.449C839.09 369.069 834.29 371.609 832.39 373.509C832.24 373.659 830.37 376.009 830.06 376.459C830.1 376.309 830.13 376.149 830.18 375.999C831.01 373.299 832.15 370.779 833.33 368.479C834.01 367.139 834.74 365.899 835.48 364.709C836.33 365.139 840.26 367.039 842.35 367.129C844.36 367.209 846.93 366.749 848.28 365.109C849.6 363.499 849.46 361.049 847.66 359.849C845.15 358.189 840.11 360.189 838.01 361.859C837.9 361.949 836.84 363.009 836.08 363.779C836.42 363.249 836.76 362.689 837.1 362.189C838.36 360.289 839.63 358.639 840.76 357.179C841.41 356.359 842.02 355.619 842.59 354.939C843.65 354.919 847.9 354.789 849.77 353.919C851.59 353.069 853.66 351.479 854.1 349.399C854.53 347.359 853.28 345.249 851.12 345.019C848.13 344.699 844.57 348.799 843.48 351.249C843.39 351.459 842.29 354.949 842.34 354.949C842.34 354.949 842.39 354.949 842.4 354.949C841.83 355.589 841.23 356.289 840.59 357.059C839.42 358.499 838.11 360.129 836.81 362.009C835.5 363.879 834.13 365.949 832.89 368.259C831.64 370.569 830.44 373.069 829.54 375.809C829.53 375.839 829.52 375.869 829.51 375.909C829.53 375.029 829.49 372.559 829.46 372.369C829.11 369.709 826.88 364.759 823.92 364.209C821.79 363.819 819.98 365.489 819.81 367.559C819.64 369.679 821.17 371.799 822.67 373.129C824.36 374.639 829.04 376.099 829.42 376.209C828.58 378.819 827.94 381.569 827.44 384.379C827.15 385.989 826.91 387.619 826.69 389.259C826.68 388.499 826.66 387.819 826.65 387.719C826.3 385.049 824.07 380.109 821.11 379.559C818.98 379.169 817.17 380.839 817 382.909C816.83 385.029 818.36 387.149 819.86 388.479C821.38 389.839 825.35 391.159 826.4 391.499C826.32 392.129 826.24 392.759 826.16 393.389C825.8 396.409 825.45 399.429 825.02 402.369C824.87 403.409 824.68 404.429 824.5 405.439C824.49 404.759 824.47 404.189 824.46 404.109C824.11 401.439 821.88 396.499 818.92 395.949C816.79 395.559 814.98 397.229 814.81 399.299C814.64 401.419 816.17 403.539 817.67 404.869C819.12 406.159 822.77 407.419 824.02 407.829C823.8 408.869 823.58 409.909 823.32 410.899C823.13 411.579 822.99 412.239 822.76 412.909C822.55 413.579 822.33 414.239 822.12 414.889C821.67 416.129 821.21 417.419 820.74 418.619C820.42 419.459 820.1 420.249 819.77 421.049C819.93 420.019 820.21 417.989 820.21 417.819C820.25 416.039 819.62 413.129 818.36 411.089C818.37 410.829 818.35 410.559 818.31 410.299C817.98 408.249 816.05 406.719 813.96 407.279C811.05 408.049 809.21 413.159 809.07 415.839C809.06 415.999 809.17 417.729 809.25 418.809C809.1 418.179 808.97 417.559 808.81 416.909C808.5 415.619 808.16 414.349 807.8 412.979C807.6 412.319 807.4 411.659 807.2 410.989C807.01 410.319 806.73 409.639 806.5 408.959C805.92 407.389 805.27 405.819 804.57 404.259C805.7 403.989 809.68 402.969 811.28 401.749C812.87 400.529 814.56 398.529 814.55 396.409C814.53 394.329 812.86 392.529 810.7 392.759C807.71 393.079 805.11 397.849 804.57 400.479C804.54 400.639 804.36 402.579 804.28 403.639C803.85 402.699 803.43 401.769 802.97 400.829C801.63 398.139 800.2 395.449 798.77 392.769C798.33 391.949 797.91 391.119 797.48 390.299C797.88 390.209 802.64 389.099 804.43 387.729C806.02 386.509 807.71 384.509 807.7 382.379C807.69 380.299 806.01 378.499 803.85 378.729C800.86 379.049 798.26 383.819 797.72 386.449C797.68 386.649 797.43 389.429 797.4 390.139C796.46 388.329 795.54 386.509 794.7 384.679C793.54 382.159 792.55 379.619 791.76 377.099C791.95 377.059 796.92 375.929 798.76 374.519C800.35 373.299 802.04 371.299 802.03 369.179C802.02 367.099 800.34 365.299 798.18 365.529C795.19 365.849 792.59 370.619 792.05 373.249C792.01 373.459 791.74 376.449 791.73 376.989C791.68 376.839 791.62 376.689 791.57 376.539C790.77 373.829 790.33 371.099 790.05 368.529C789.88 367.039 789.81 365.599 789.76 364.199C790.71 364.079 795.03 363.509 796.83 362.419C798.55 361.379 800.45 359.579 800.66 357.469C800.87 355.399 799.41 353.429 797.24 353.419C794.23 353.409 791.13 357.869 790.3 360.419C790.25 360.559 789.95 362.019 789.75 363.089C789.74 362.459 789.72 361.809 789.72 361.199C789.72 358.919 789.87 356.839 790.01 354.999C790.1 353.949 790.2 353.009 790.31 352.119C791.18 351.519 794.66 349.059 795.73 347.309C796.77 345.599 797.63 343.119 796.85 341.149C796.09 339.219 793.87 338.139 791.95 339.139C789.28 340.519 788.57 345.899 789.02 348.549C789.06 348.779 790.07 352.289 790.11 352.259C790.11 352.259 790.15 352.229 790.16 352.219C790.04 353.069 789.93 353.979 789.82 354.979C789.64 356.819 789.45 358.909 789.39 361.199C789.33 363.479 789.33 365.959 789.57 368.579C789.8 371.199 790.18 373.949 790.94 376.719C790.95 376.749 790.96 376.779 790.97 376.809C790.5 376.069 789.1 374.029 788.98 373.889C787.22 371.859 782.63 368.959 779.86 370.139C777.86 370.989 777.28 373.379 778.28 375.199C779.3 377.089 781.75 378.009 783.74 378.299Z" fill="#F0AE00"/>
<path d="M835.34 364.159C835.39 364.189 836.3 360.649 836.33 360.419C836.7 357.759 835.85 352.399 833.14 351.089C831.19 350.149 829.01 351.279 828.29 353.239C827.56 355.239 828.48 357.689 829.58 359.369C830.87 361.339 835.34 364.159 835.34 364.159Z" fill="#F0AE00"/>
<path d="M528.43 368.629C528.43 368.629 549.09 365.489 571.22 365.129C593.35 364.769 600.6 366.219 606.04 368.029C611.48 369.839 616.34 385.099 609.2 399.599C602.05 414.099 577.02 426.069 542.92 423.169C508.82 420.269 484.52 413.379 471.46 403.579C458.4 393.789 470.01 388.339 484.52 380.359C499.03 372.379 518.65 368.129 528.43 368.629Z" fill="#263238" stroke="#263238" stroke-miterlimit="10" stroke-linecap="round" stroke-linejoin="round"/>
<path d="M500.12 402.129C500.12 402.129 550.91 374.199 568.68 369.119C586.46 364.039 606.77 362.949 616.2 369.119C625.63 375.289 623.46 395.239 619.1 402.859C614.75 410.479 579.56 426.439 559.97 432.239C540.38 438.039 463.84 437.679 442.8 439.499C421.76 441.309 370.97 440.229 363.72 436.239C356.46 432.249 360.82 427.899 371.34 425.359C381.86 422.819 416.68 422.819 433.01 418.099C449.33 413.369 488.15 408.289 500.12 402.129Z" fill="white" stroke="#263238" stroke-miterlimit="10" stroke-linecap="round" stroke-linejoin="round"/>
<path d="M619.1 402.849C621.22 399.139 622.82 392.499 622.82 385.949C609.67 396.369 589.19 408.709 560.88 418.819C534.03 428.409 458 436.989 426.56 440.239C432.81 440.109 438.45 439.859 442.81 439.489C463.85 437.679 540.39 438.039 559.98 432.229C579.56 426.429 614.75 410.469 619.1 402.849Z" fill="#263238" stroke="#263238" stroke-miterlimit="10" stroke-linecap="round" stroke-linejoin="round"/>
<path d="M583.21 423.659C588.6 421.369 593.98 418.899 598.89 416.429C599.97 411.089 601.26 395.419 589.77 365.199C582.88 365.779 575.59 367.139 568.68 369.109C568.68 369.119 590.19 393.719 583.21 423.659Z" fill="#263238" stroke="#263238" stroke-miterlimit="10" stroke-linecap="round" stroke-linejoin="round"/>
<path d="M450.47 414.119C443.64 415.479 437.48 416.799 433.01 418.089C416.69 422.809 381.86 422.809 371.34 425.349C360.82 427.889 356.47 432.239 363.72 436.229C370.98 440.219 421.76 441.309 442.8 439.489C445.28 439.279 448.55 439.089 452.39 438.929C444 429.799 447.82 419.149 450.47 414.119Z" fill="white" stroke="#263238" stroke-miterlimit="10" stroke-linecap="round" stroke-linejoin="round"/>
<path d="M417.41 356.419C417.41 356.419 384.4 360.409 367.71 361.859C351.02 363.309 320.91 376.729 314.75 389.789C308.58 402.849 327.08 418.449 337.6 421.709C348.12 424.969 379.68 432.229 397.09 431.139C414.5 430.049 466.01 414.819 475.08 411.909C484.15 409.009 500.11 402.119 500.11 402.119C500.11 402.119 484.87 402.119 459.12 389.059C433.37 376.009 429.38 362.589 417.41 356.419Z" fill="white" stroke="#263238" stroke-miterlimit="10" stroke-linecap="round" stroke-linejoin="round"/>
<path d="M346.54 366.779C346.54 366.779 372.57 364.069 384.5 372.749C396.43 381.429 404.02 407.999 404.02 407.999L459.12 389.069C459.12 389.069 454.99 384.679 444.69 372.209C434.39 359.739 404.02 352.689 386.12 356.479C368.23 360.279 346.54 366.779 346.54 366.779Z" fill="#263238" stroke="#263238" stroke-miterlimit="10" stroke-linecap="round" stroke-linejoin="round"/>
<path d="M472.48 412.739C473.54 412.409 474.44 412.129 475.09 411.929C484.16 409.029 500.12 402.139 500.12 402.139C500.12 402.139 488.42 402.139 468.19 393.349C471.08 398.189 473.95 405.269 472.48 412.739Z" fill="white" stroke="#263238" stroke-miterlimit="10" stroke-linecap="round" stroke-linejoin="round"/>
<path d="M492.11 405.479C478.17 407.229 454 411.039 426.51 418.819C395.15 427.699 357.34 424.529 339.01 422.139C350.7 425.559 380.39 432.189 397.09 431.149C414.5 430.059 466.01 414.829 475.08 411.919C479.96 410.359 486.81 407.659 492.11 405.479Z" fill="#263238" stroke="#263238" stroke-miterlimit="10" stroke-linecap="round" stroke-linejoin="round"/>
<path d="M526.47 250.999L519.02 324.319C519.02 324.319 522.55 341.959 524.9 349.019C527.25 356.079 529.61 367.449 528.43 368.619C527.25 369.799 526.47 369.009 518.24 371.359C510.01 373.709 500.2 387.829 487.66 393.319C475.11 398.809 464.92 396.059 453.16 391.359C441.4 386.649 419.44 358.029 414.74 357.249C410.03 356.469 395.92 354.109 390.04 352.149C384.16 350.189 377.1 341.959 377.1 341.959C377.1 341.959 375.92 341.959 375.92 337.649C375.92 333.339 376.31 332.939 376.31 332.939C376.31 332.939 373.17 330.199 372.39 326.669C371.61 323.139 379.84 304.319 379.84 292.559C379.84 280.799 385.72 236.489 385.72 230.999C385.72 225.509 393.95 224.329 402.58 220.809C411.21 217.289 456.69 200.419 457.47 195.719C458.25 191.009 461.39 158.079 461.39 158.079C461.39 158.079 485.79 184.179 488.84 186.309C492.76 189.049 494.72 191.799 494.72 191.799L491.98 204.739C491.98 204.739 503.74 213.369 511.58 218.069C519.42 222.779 530.01 227.089 530.4 230.219" fill="white"/>
<path d="M526.47 250.999L519.02 324.319C519.02 324.319 522.55 341.959 524.9 349.019C527.25 356.079 529.61 367.449 528.43 368.619C527.25 369.799 526.47 369.009 518.24 371.359C510.01 373.709 500.2 387.829 487.66 393.319C475.11 398.809 464.92 396.059 453.16 391.359C441.4 386.649 419.44 358.029 414.74 357.249C410.03 356.469 395.92 354.109 390.04 352.149C384.16 350.189 377.1 341.959 377.1 341.959C377.1 341.959 375.92 341.959 375.92 337.649C375.92 333.339 376.31 332.939 376.31 332.939C376.31 332.939 373.17 330.199 372.39 326.669C371.61 323.139 379.84 304.319 379.84 292.559C379.84 280.799 385.72 236.489 385.72 230.999C385.72 225.509 393.95 224.329 402.58 220.809C411.21 217.289 456.69 200.419 457.47 195.719C458.25 191.009 461.39 158.079 461.39 158.079C461.39 158.079 485.79 184.179 488.84 186.309C492.76 189.049 494.72 191.799 494.72 191.799L491.98 204.739C491.98 204.739 503.74 213.369 511.58 218.069C519.42 222.779 530.01 227.089 530.4 230.219" stroke="#263238" stroke-miterlimit="10" stroke-linecap="round" stroke-linejoin="round"/>
<path d="M403.22 337.239C405.02 338.639 406.78 340.449 408.45 342.749" stroke="#263238" stroke-miterlimit="10" stroke-linecap="round" stroke-linejoin="round"/>
<path d="M375.91 337.649C375.91 337.649 387.17 329.839 398.43 334.439" stroke="#263238" stroke-miterlimit="10" stroke-linecap="round" stroke-linejoin="round"/>
<path d="M499.02 209.769C495 206.959 491.96 204.729 491.96 204.729L494.7 191.789C494.7 191.789 492.74 189.049 488.82 186.299C485.77 184.169 461.37 158.069 461.37 158.069C461.37 158.069 458.23 191.009 457.45 195.709C457.2 197.239 452.23 200.039 445.35 203.259C446.55 210.829 450.86 223.449 466.08 228.259C481.31 233.059 493.07 219.139 499.02 209.769Z" fill="white" stroke="#263238" stroke-miterlimit="10" stroke-linecap="round" stroke-linejoin="round"/>
<path d="M492.08 204.809C492.01 204.759 491.97 204.729 491.97 204.729L494.71 191.789C494.71 191.789 492.75 189.049 488.83 186.299C487.1 185.089 478.49 176.149 471.36 168.649L469.55 177.229C469.55 177.239 469.57 201.899 492.08 204.809Z" fill="#263238"/>
<path d="M467.43 77.1792C467.43 77.1792 466.31 67.8192 458.82 65.9492C451.33 64.0792 434.11 65.1992 428.11 76.4292C422.12 87.6592 426.61 96.2792 428.86 97.7692C431.11 99.2592 432.98 100.019 432.98 100.019L434.85 90.6592C434.85 90.6592 435.6 98.8992 440.84 100.769C446.08 102.639 456.94 100.769 456.94 100.769C456.94 100.769 466.31 94.0292 467.43 77.1792Z" fill="#263238" stroke="#263238" stroke-miterlimit="10" stroke-linecap="round" stroke-linejoin="round"/>
<path d="M536.66 110.629C536.66 110.629 549.99 119.259 549.99 127.879C549.99 136.509 533.52 139.639 533.52 139.639L536.66 110.629Z" fill="#263238" stroke="#263238" stroke-miterlimit="10" stroke-linecap="round" stroke-linejoin="round"/>
<path d="M539.7 112.379C539.7 112.379 538.2 130.349 536.7 140.459C535.2 150.569 528.84 158.809 528.46 165.549C528.09 172.289 513.11 188.769 505.62 194.379C498.13 199.999 486.9 198.119 481.28 193.629C475.66 189.139 466.3 178.279 461.81 166.669C457.32 155.059 460.69 138.209 461.81 132.969C462.93 127.729 491.02 107.129 512.36 107.129C533.71 107.139 539.7 112.379 539.7 112.379Z" fill="white" stroke="#263238" stroke-miterlimit="10" stroke-linecap="round" stroke-linejoin="round"/>
<path d="M516.11 154.319C516.11 154.319 517.61 167.799 517.61 168.919C517.61 170.039 514.24 173.409 508.62 170.039" stroke="#263238" stroke-miterlimit="10" stroke-linecap="round" stroke-linejoin="round"/>
<path d="M493.64 170.039C493.64 170.039 499.63 177.529 509.37 177.149" stroke="#263238" stroke-miterlimit="10" stroke-linecap="round" stroke-linejoin="round"/>
<path d="M513.86 142.329C513.86 142.329 501.5 134.839 485.78 137.089C485.78 137.089 481.29 137.089 483.91 140.459C483.91 140.459 482.79 151.689 485.41 155.059C488.03 158.429 494.02 161.049 500.01 161.049C506 161.059 511.99 153.939 513.86 142.329Z" stroke="#263238" stroke-width="2" stroke-miterlimit="10" stroke-linecap="round" stroke-linejoin="round"/>
<path d="M483.53 137.469L459.19 135.969" stroke="#263238" stroke-width="2" stroke-miterlimit="10" stroke-linecap="round" stroke-linejoin="round"/>
<path d="M513.86 142.329L520.23 144.199C520.23 144.199 517.61 158.049 519.11 161.799C520.08 164.239 522.16 166.049 524.7 166.709C526.82 167.259 529.25 167.789 530.71 167.789C533.71 167.789 540.07 161.799 541.57 151.309C541.57 151.309 543.44 150.559 542.69 149.439C541.94 148.319 532.89 143.079 520.53 144.199" stroke="#263238" stroke-width="2" stroke-miterlimit="10" stroke-linecap="round" stroke-linejoin="round"/>
<path d="M513.49 145.699C513.49 145.699 518.27 146.009 519.68 147.809" stroke="#263238" stroke-width="2" stroke-miterlimit="10" stroke-linecap="round" stroke-linejoin="round"/>
<path d="M500.56 149.979C500.13 152.429 498.91 154.269 497.85 154.079C496.78 153.889 496.27 151.749 496.7 149.299C497.13 146.849 498.35 145.009 499.41 145.199C500.48 145.389 500.99 147.529 500.56 149.979Z" fill="#263238"/>
<path d="M527.864 156.582C528.462 154.427 528.188 152.469 527.252 152.209C526.315 151.949 525.071 153.485 524.472 155.64C523.874 157.795 524.148 159.753 525.084 160.013C526.021 160.273 527.265 158.737 527.864 156.582Z" fill="#263238"/>
<path d="M492.75 141.209C492.75 141.209 502.16 138.069 506.47 143.169" stroke="#263238" stroke-width="2" stroke-miterlimit="10" stroke-linecap="round" stroke-linejoin="round"/>
<path d="M523.72 148.269C523.72 148.269 528.03 144.349 531.56 149.839" stroke="#263238" stroke-width="2" stroke-miterlimit="10" stroke-linecap="round" stroke-linejoin="round"/>
<path d="M474.92 133.719C474.92 133.719 495.14 122.859 512.37 119.489C529.59 116.119 542.7 117.619 545.7 107.509C548.7 97.3993 528.48 80.5493 507.51 74.5593C486.54 68.5693 461.45 74.9293 451.34 89.9093C441.23 104.889 444.6 122.859 447.6 129.599C450.6 136.339 452.84 141.579 458.46 142.329C464.06 143.079 474.92 133.719 474.92 133.719Z" fill="#263238" stroke="#263238" stroke-miterlimit="10" stroke-linecap="round" stroke-linejoin="round"/>
<path d="M460.28 121.839C458.11 123.159 456.26 124.649 454.82 126.359" stroke="white" stroke-miterlimit="10" stroke-linecap="round" stroke-linejoin="round"/>
<path d="M530.71 96.3293C530.71 96.3293 536.17 99.6093 520.34 106.159C508.85 110.919 485.56 112.219 469.27 117.799" stroke="white" stroke-miterlimit="10" stroke-linecap="round" stroke-linejoin="round"/>
<path d="M509.69 92.4994C510.99 91.0594 512.02 89.4394 512.7 87.5994" stroke="white" stroke-miterlimit="10" stroke-linecap="round" stroke-linejoin="round"/>
<path d="M451.01 119.809C451.01 119.809 446.1 112.709 463.02 107.799C475.23 104.259 492.83 102.979 503.74 97.0193" stroke="white" stroke-miterlimit="10" stroke-linecap="round" stroke-linejoin="round"/>
<path d="M464.44 147.949C464.44 147.949 461.47 133.349 455.1 133.349C448.73 133.349 447.88 140.089 450.43 148.329C452.98 156.569 457.23 159.189 461.05 156.569" fill="white"/>
<path d="M464.44 147.949C464.44 147.949 461.47 133.349 455.1 133.349C448.73 133.349 447.88 140.089 450.43 148.329C452.98 156.569 457.23 159.189 461.05 156.569" stroke="#263238" stroke-miterlimit="10" stroke-linecap="round" stroke-linejoin="round"/>
<path d="M414.72 357.249C414.72 357.249 416.29 355.289 416.29 349.019C416.29 342.749 411.98 321.969 410.02 307.459C408.06 292.949 406.1 265.109 406.1 253.349" stroke="#263238" stroke-miterlimit="10" stroke-linecap="round" stroke-linejoin="round"/>
<path d="M454.23 311.929C455.27 313.619 456.35 315.139 457.46 316.469" stroke="#263238" stroke-miterlimit="10" stroke-linecap="round" stroke-linejoin="round"/>
<path d="M432.37 239.629C432.37 239.629 439.4 282.969 451.43 306.889" stroke="#263238" stroke-miterlimit="10" stroke-linecap="round" stroke-linejoin="round"/>
<path d="M456.98 276.509C458.57 279.509 460.17 282.289 461.77 284.719" stroke="#263238" stroke-miterlimit="10" stroke-linecap="round" stroke-linejoin="round"/>
<path d="M437.07 227.469C437.07 227.469 444.94 251.809 454.25 271.089" stroke="#263238" stroke-miterlimit="10" stroke-linecap="round" stroke-linejoin="round"/>
<path d="M352.77 340.389C352.77 340.389 357.08 343.919 365.71 343.919C374.34 343.919 381.79 339.609 392.76 342.349C403.74 345.089 403.74 356.069 402.56 359.209C401.38 362.349 390.8 364.309 380.99 363.129C371.19 361.949 351.19 359.989 351.19 359.989C351.19 359.989 354.34 348.629 352.77 340.389Z" fill="white" stroke="#263238" stroke-miterlimit="10" stroke-linecap="round" stroke-linejoin="round"/>
<path d="M344.78 330.429C344.78 330.429 345.69 334.509 350.68 337.229C355.67 339.949 357.48 347.209 357.48 351.289C357.48 355.369 356.57 357.639 356.57 357.639C356.57 357.639 355.21 363.079 350.67 363.989C346.13 364.899 343.41 367.619 337.97 362.179C332.53 356.739 324.81 339.499 324.81 339.499L325.72 336.779C325.72 336.779 330.26 336.779 333.89 334.969C337.52 333.149 344.78 330.429 344.78 330.429Z" fill="white" stroke="#263238" stroke-miterlimit="10" stroke-linecap="round" stroke-linejoin="round"/>
<path d="M319.37 311.829L350.67 363.999" stroke="#263238" stroke-width="3" stroke-miterlimit="10" stroke-linecap="round" stroke-linejoin="round"/>
<path d="M328.9 363.549C328.9 363.549 332.53 367.179 338.88 367.179C345.23 367.179 351.58 363.099 348.41 361.739C345.23 360.379 342.97 359.019 340.7 359.929C338.42 360.829 328.9 363.549 328.9 363.549Z" fill="white" stroke="#263238" stroke-miterlimit="10" stroke-linecap="round" stroke-linejoin="round"/>
<path d="M324.36 356.739C324.36 356.739 327.08 364.449 329.35 365.359C331.62 366.269 341.14 363.999 343.87 362.179C346.59 360.369 342.06 357.189 337.97 357.189C333.89 357.199 324.36 356.739 324.36 356.739Z" fill="white" stroke="#263238" stroke-miterlimit="10" stroke-linecap="round" stroke-linejoin="round"/>
<path d="M322.55 344.949C322.55 344.949 320.74 354.479 324.36 356.739C327.99 359.009 342.05 359.919 343.41 357.189C344.77 354.469 339.78 353.109 334.79 350.839C329.81 348.579 322.55 344.949 322.55 344.949Z" fill="white" stroke="#263238" stroke-miterlimit="10" stroke-linecap="round" stroke-linejoin="round"/>
<path d="M336.61 331.789C336.61 331.789 337.06 349.479 338.88 351.299C340.69 353.109 344.78 353.569 345.68 352.209C346.59 350.849 347.49 335.429 344.77 330.439C342.05 325.439 336.61 331.789 336.61 331.789Z" fill="white" stroke="#263238" stroke-miterlimit="10" stroke-linecap="round" stroke-linejoin="round"/>
<path d="M325.72 336.779C325.72 336.779 319.82 335.419 319.82 341.319C319.82 347.219 327.99 350.849 331.61 351.299C335.24 351.749 339.32 350.389 336.15 347.669C332.98 344.949 328.44 339.049 325.72 336.779Z" fill="white" stroke="#263238" stroke-miterlimit="10" stroke-linecap="round" stroke-linejoin="round"/>
<path d="M370.25 365.489L395.64 361.859C395.64 361.859 392.38 357.139 384.03 357.139C375.69 357.139 370.61 361.129 369.52 362.579C368.44 364.039 370.25 365.489 370.25 365.489Z" fill="#263238" stroke="#263238" stroke-miterlimit="10" stroke-linecap="round" stroke-linejoin="round"/>
<path d="M421.4 395.599L462.03 381.449C462.03 381.449 452.24 360.769 433.73 353.519C415.23 346.259 387.79 348.129 376.18 352.489L380.41 357.149C380.41 357.149 388.75 357.509 397.82 368.029C406.89 378.549 415.96 395.239 415.96 395.239L421.4 395.599Z" fill="white" stroke="#263238" stroke-miterlimit="10" stroke-linecap="round" stroke-linejoin="round"/>
<path d="M396.05 354.449C396.05 354.449 412.18 352.149 429.08 388.249" stroke="#F0AE00" stroke-miterlimit="10" stroke-linecap="round" stroke-linejoin="round"/>
<path d="M404 352.859C404 352.859 420.13 350.559 437.03 386.659" stroke="#F0AE00" stroke-miterlimit="10" stroke-linecap="round" stroke-linejoin="round"/>
<path d="M410.68 351.589C410.68 351.589 426.81 349.289 443.71 385.389" stroke="#F0AE00" stroke-miterlimit="10" stroke-linecap="round" stroke-linejoin="round"/>
<path d="M313.3 390.879C313.3 390.879 331.44 364.039 365.17 366.209L370.25 365.479C370.25 365.479 373.51 357.859 382.95 359.679C392.38 361.489 416.69 398.859 416.69 398.859L421.41 395.599C421.41 395.599 408.58 373.859 398.78 361.519C388.99 349.189 376.19 349.609 372.08 354.129C369.57 356.889 366.14 363.139 366.14 363.139C366.14 363.139 362.37 357.449 351.21 359.999C337.5 363.139 329.94 369.239 326.04 373.449C320.37 379.569 308.94 387.899 310.04 387.259L313.3 390.879Z" fill="white" stroke="#263238" stroke-miterlimit="10" stroke-linecap="round" stroke-linejoin="round"/>
<path d="M416.68 398.859L459.85 383.989L462.03 381.449L421.4 395.599L416.68 398.859Z" fill="white" stroke="#263238" stroke-miterlimit="10" stroke-linecap="round" stroke-linejoin="round"/>
<path d="M523.15 224.529C523.15 224.529 538.72 229.909 541.08 238.139C543.43 246.369 555.09 291.379 558.23 298.049C561.37 304.719 568.42 308.639 568.42 313.729C568.42 318.819 568.81 322.749 568.81 322.749C568.81 322.749 577.04 323.139 577.83 329.809C578.61 336.479 580.18 345.099 580.18 345.099L611.55 393.639C611.55 393.639 630.27 395.149 634.58 394.749C638.89 394.359 651.71 395.179 656.4 397.639C658.22 398.599 661.82 401.709 664.66 411.689C666.07 416.649 669.19 426.259 667.23 425.859C665.27 425.469 662.86 420.009 662.07 418.829C661.29 417.649 658.99 410.959 658.99 410.959C658.99 410.959 660.56 422.329 660.95 424.679C661.34 427.029 660.17 429.389 660.17 429.389L660 429.469C658.07 430.249 655.94 430.379 653.94 429.839L652.33 429.399C650.82 430.219 649.05 430.399 647.41 429.919L645.66 429.399C645.66 429.399 643.11 421.349 640.76 418.209C638.41 415.069 631.01 411.669 631.01 411.669C631.01 411.669 638.99 420.779 638.6 426.659C638.44 429.039 638.99 430.969 637.03 429.799C635.07 428.619 632.72 422.739 628.4 420.779C624.09 418.819 613.89 416.069 609.97 413.719C606.05 411.369 599.78 402.739 599.78 402.739L548.42 356.469C548.42 356.469 543.32 351.369 542.54 348.629C541.76 345.889 541.76 345.889 541.76 345.889C541.76 345.889 534.7 341.579 532.74 339.219C530.78 336.869 530 331.769 530 331.769L519.41 319.619L526.47 252.569" fill="white"/>
<path d="M523.15 224.529C523.15 224.529 538.72 229.909 541.08 238.139C543.43 246.369 555.09 291.379 558.23 298.049C561.37 304.719 568.42 308.639 568.42 313.729C568.42 318.819 568.81 322.749 568.81 322.749C568.81 322.749 577.04 323.139 577.83 329.809C578.61 336.479 580.18 345.099 580.18 345.099L611.55 393.639C611.55 393.639 630.27 395.149 634.58 394.749C638.89 394.359 651.71 395.179 656.4 397.639C658.22 398.599 661.82 401.709 664.66 411.689C666.07 416.649 669.19 426.259 667.23 425.859C665.27 425.469 662.86 420.009 662.07 418.829C661.29 417.649 658.99 410.959 658.99 410.959C658.99 410.959 660.56 422.329 660.95 424.679C661.34 427.029 660.17 429.389 660.17 429.389L660 429.469C658.07 430.249 655.94 430.379 653.94 429.839L652.33 429.399C650.82 430.219 649.05 430.399 647.41 429.919L645.66 429.399C645.66 429.399 643.11 421.349 640.76 418.209C638.41 415.069 631.01 411.669 631.01 411.669C631.01 411.669 638.99 420.779 638.6 426.659C638.44 429.039 638.99 430.969 637.03 429.799C635.07 428.619 632.72 422.739 628.4 420.779C624.09 418.819 613.89 416.069 609.97 413.719C606.05 411.369 599.78 402.739 599.78 402.739L548.42 356.469C548.42 356.469 543.32 351.369 542.54 348.629C541.76 345.889 541.76 345.889 541.76 345.889C541.76 345.889 534.7 341.579 532.74 339.219C530.78 336.869 530 331.769 530 331.769L519.41 319.619L526.47 252.569" stroke="#263238" stroke-miterlimit="10" stroke-linecap="round" stroke-linejoin="round"/>
<path d="M522.47 268.099L519.41 319.619L530 331.769C530 331.769 530.78 336.869 532.74 339.219C534.7 341.569 541.76 345.889 541.76 345.889C541.76 345.889 541.76 345.889 542.54 348.629C543.32 351.369 548.42 356.469 548.42 356.469L556.11 363.389C559.24 357.299 566.66 346.309 580.08 344.549C579.73 342.579 578.49 335.489 577.83 329.809C577.05 323.139 568.81 322.749 568.81 322.749C568.81 322.749 568.42 318.829 568.42 313.729C568.42 308.629 561.36 304.709 558.23 298.049C555.09 291.379 543.43 246.379 541.08 238.139C538.73 229.909 523.15 224.529 523.15 224.529" fill="white"/>
<path d="M522.47 268.099L519.41 319.619L530 331.769C530 331.769 530.78 336.869 532.74 339.219C534.7 341.569 541.76 345.889 541.76 345.889C541.76 345.889 541.76 345.889 542.54 348.629C543.32 351.369 548.42 356.469 548.42 356.469L556.11 363.389C559.24 357.299 566.66 346.309 580.08 344.549C579.73 342.579 578.49 335.489 577.83 329.809C577.05 323.139 568.81 322.749 568.81 322.749C568.81 322.749 568.42 318.829 568.42 313.729C568.42 308.629 561.36 304.709 558.23 298.049C555.09 291.379 543.43 246.379 541.08 238.139C538.73 229.909 523.15 224.529 523.15 224.529" stroke="#263238" stroke-miterlimit="10" stroke-linecap="round" stroke-linejoin="round"/>
<path d="M521.85 283.679L527.02 327.739L519.41 319.609L521.85 283.679Z" fill="#263238"/>
<path d="M558.27 329.659C559.35 328.899 560.51 328.159 561.76 327.449" stroke="#263238" stroke-miterlimit="10" stroke-linecap="round" stroke-linejoin="round"/>
<path d="M545.68 343.919C545.68 343.919 548.13 338.359 554.36 332.759" stroke="#263238" stroke-miterlimit="10" stroke-linecap="round" stroke-linejoin="round"/>
<path d="M554.23 322.699C555.89 322.439 557.62 322.309 559.4 322.359" stroke="#263238" stroke-miterlimit="10" stroke-linecap="round" stroke-linejoin="round"/>
<path d="M535.09 332.159C535.09 332.159 540.28 327.159 548.11 324.299" stroke="#263238" stroke-miterlimit="10" stroke-linecap="round" stroke-linejoin="round"/>
<path d="M633.12 414.499C633.12 414.499 628.81 408.619 622.93 408.229" stroke="#263238" stroke-miterlimit="10" stroke-linecap="round" stroke-linejoin="round"/>
<path d="M635.08 401.559C635.08 401.559 639.79 402.739 645.67 410.189C651.55 417.639 653.12 428.619 653.12 428.619" stroke="#263238" stroke-miterlimit="10" stroke-linecap="round" stroke-linejoin="round"/>
<path d="M646.3 399.989C646.3 399.989 655.07 407.049 656.64 413.709C658.21 420.379 660.17 429.389 660.17 429.389" stroke="#263238" stroke-miterlimit="10" stroke-linecap="round" stroke-linejoin="round"/>
<path d="M659 410.969C659 410.969 657.43 403.909 653.51 398.419" stroke="#263238" stroke-miterlimit="10" stroke-linecap="round" stroke-linejoin="round"/>
<path d="M777.8 426.639H669.58L699.38 327.829H807.6L777.8 426.639Z" fill="white" stroke="#263238" stroke-miterlimit="10" stroke-linecap="round" stroke-linejoin="round"/>
<path d="M777.8 426.639L803.05 342.919C771.09 346.869 752.29 373.189 722.74 402.059C704.14 420.229 691.22 425.449 683.65 426.639H777.8Z" fill="#263238" stroke="#263238" stroke-miterlimit="10" stroke-linecap="round" stroke-linejoin="round"/>
<path d="M742.9 380.759C747.628 380.759 751.46 377.074 751.46 372.529C751.46 367.984 747.628 364.299 742.9 364.299C738.172 364.299 734.34 367.984 734.34 372.529C734.34 377.074 738.172 380.759 742.9 380.759Z" fill="white" stroke="#263238" stroke-miterlimit="10" stroke-linecap="round" stroke-linejoin="round"/>
<path d="M778.98 426.239H576.66V432.509H778.98V426.239Z" fill="white" stroke="#263238" stroke-miterlimit="10" stroke-linecap="round" stroke-linejoin="round"/>
<path d="M778.97 426.239H675.46V432.509H778.97V426.239Z" fill="#263238" stroke="#263238" stroke-miterlimit="10" stroke-linecap="round" stroke-linejoin="round"/>
<path d="M313.09 409.369H232C224.82 409.369 218.99 415.189 218.99 422.379V423.809C218.99 430.989 224.81 436.819 232 436.819H313.09C313.09 436.819 308.76 430.309 308.76 422.919C308.76 415.519 313.09 409.369 313.09 409.369Z" fill="white" stroke="#263238" stroke-miterlimit="10" stroke-linecap="round" stroke-linejoin="round"/>
<path d="M274.6 409.369H193.5C186.32 409.369 180.49 415.189 180.49 422.379V423.809C180.49 430.989 186.31 436.819 193.5 436.819H274.59C274.59 436.819 270.26 430.309 270.26 422.919C270.26 415.519 274.6 409.369 274.6 409.369Z" fill="white" stroke="#263238" stroke-miterlimit="10" stroke-linecap="round" stroke-linejoin="round"/>
<path d="M180.49 422.379V423.809C180.49 429.029 183.57 433.519 188.01 435.589L189.8 435.659V411.369L188.75 410.269C183.92 412.169 180.49 416.869 180.49 422.379Z" fill="white" stroke="#263238" stroke-miterlimit="10" stroke-linecap="round" stroke-linejoin="round"/>
<path d="M313.09 409.369H193.5C186.32 409.369 180.49 415.189 180.49 422.379V423.809C180.49 430.989 186.31 436.819 193.5 436.819H313.09" stroke="#263238" stroke-width="3" stroke-miterlimit="10" stroke-linecap="round" stroke-linejoin="round"/>
<path d="M190.21 415.419H229.88" stroke="#263238" stroke-miterlimit="10" stroke-linecap="round" stroke-linejoin="round"/>
<path d="M235.54 419.059H241.62" stroke="#263238" stroke-miterlimit="10" stroke-linecap="round" stroke-linejoin="round"/>
<path d="M197.9 419.059H230.28" stroke="#263238" stroke-miterlimit="10" stroke-linecap="round" stroke-linejoin="round"/>
<path d="M190.21 427.159H210.45" stroke="#263238" stroke-miterlimit="10" stroke-linecap="round" stroke-linejoin="round"/>
<path d="M250.93 431.609H255.38" stroke="#263238" stroke-miterlimit="10" stroke-linecap="round" stroke-linejoin="round"/>
<path d="M222.59 431.609H247.28" stroke="#263238" stroke-miterlimit="10" stroke-linecap="round" stroke-linejoin="round"/>
<path d="M197.9 431.609H215.3" stroke="#263238" stroke-miterlimit="10" stroke-linecap="round" stroke-linejoin="round"/>
<path d="M232.8 409.369H119.2C112.02 409.369 106.19 415.189 106.19 422.379V423.809C106.19 430.989 112.01 436.819 119.2 436.819H232.8C232.8 436.819 228.47 430.309 228.47 422.919C228.47 415.519 232.8 409.369 232.8 409.369Z" fill="white" stroke="#263238" stroke-miterlimit="10" stroke-linecap="round" stroke-linejoin="round"/>
<path d="M163.72 413.679V433.329" stroke="#263238" stroke-miterlimit="10" stroke-linecap="round" stroke-linejoin="round"/>
<path d="M164.33 416.749H196.86" stroke="#263238" stroke-miterlimit="10" stroke-linecap="round" stroke-linejoin="round"/>
<path d="M164.33 421.659H209.14" stroke="#263238" stroke-miterlimit="10" stroke-linecap="round" stroke-linejoin="round"/>
<path d="M178.14 427.189H189.8" stroke="#263238" stroke-miterlimit="10" stroke-linecap="round" stroke-linejoin="round"/>
<path d="M204.53 430.869H169.55" stroke="#263238" stroke-miterlimit="10" stroke-linecap="round" stroke-linejoin="round"/>
<path d="M158.06 423.799V422.369C158.06 415.189 163.88 409.359 171.07 409.359H119.21C112.03 409.359 106.2 415.179 106.2 422.369V423.799C106.2 430.979 112.02 436.809 119.21 436.809H171.07C163.89 436.809 158.06 430.989 158.06 423.799Z" fill="#263238" stroke="#263238" stroke-miterlimit="10" stroke-linecap="round" stroke-linejoin="round"/>
<path d="M226.83 409.369H119.21C112.03 409.369 106.2 415.189 106.2 422.379V423.809C106.2 430.989 112.02 436.819 119.21 436.819H226.83" stroke="#263238" stroke-width="3" stroke-miterlimit="10" stroke-linecap="round" stroke-linejoin="round"/>
<path d="M235.22 409.369H171.37C164.19 409.369 158.36 415.189 158.36 422.379V423.809C158.36 430.989 164.18 436.819 171.37 436.819H235.22" stroke="#263238" stroke-width="3" stroke-miterlimit="10" stroke-linecap="round" stroke-linejoin="round"/>
<path d="M300.2 382.349H219.1C211.92 382.349 206.09 388.169 206.09 395.359V396.789C206.09 403.969 211.91 409.799 219.1 409.799H300.19C300.19 409.799 295.86 403.289 295.86 395.899C295.87 388.509 300.2 382.349 300.2 382.349Z" fill="white" stroke="#263238" stroke-miterlimit="10" stroke-linecap="round" stroke-linejoin="round"/>
<path d="M261.7 382.349H180.61C173.43 382.349 167.6 388.169 167.6 395.359V396.789C167.6 403.969 173.42 409.799 180.61 409.799H261.7C261.7 409.799 257.37 403.289 257.37 395.899C257.37 388.509 261.7 382.349 261.7 382.349Z" fill="white" stroke="#263238" stroke-miterlimit="10" stroke-linecap="round" stroke-linejoin="round"/>
<path d="M167.6 395.359V396.789C167.6 402.009 170.68 406.499 175.12 408.569L176.91 408.639V384.349L175.86 383.249C171.02 385.159 167.6 389.849 167.6 395.359Z" fill="white" stroke="#263238" stroke-miterlimit="10" stroke-linecap="round" stroke-linejoin="round"/>
<path d="M300.2 382.349H180.61C173.43 382.349 167.6 388.169 167.6 395.359V396.789C167.6 403.969 173.42 409.799 180.61 409.799H300.2" stroke="#263238" stroke-width="3" stroke-miterlimit="10" stroke-linecap="round" stroke-linejoin="round"/>
<path d="M177.31 388.399H216.98" stroke="#263238" stroke-miterlimit="10" stroke-linecap="round" stroke-linejoin="round"/>
<path d="M222.65 392.039H228.72" stroke="#263238" stroke-miterlimit="10" stroke-linecap="round" stroke-linejoin="round"/>
<path d="M185 392.039H217.39" stroke="#263238" stroke-miterlimit="10" stroke-linecap="round" stroke-linejoin="round"/>
<path d="M177.31 400.139H197.55" stroke="#263238" stroke-miterlimit="10" stroke-linecap="round" stroke-linejoin="round"/>
<path d="M238.03 404.589H242.48" stroke="#263238" stroke-miterlimit="10" stroke-linecap="round" stroke-linejoin="round"/>
<path d="M209.7 404.589H234.39" stroke="#263238" stroke-miterlimit="10" stroke-linecap="round" stroke-linejoin="round"/>
<path d="M185 404.589H202.41" stroke="#263238" stroke-miterlimit="10" stroke-linecap="round" stroke-linejoin="round"/>
<path d="M620.65 309.549H592.92C591.75 309.549 590.8 308.599 590.8 307.429V299.369C590.8 298.199 591.75 297.249 592.92 297.249H630.08C631.25 297.249 632.2 298.199 632.2 299.369V302.529" stroke="#263238" stroke-miterlimit="10" stroke-linecap="round" stroke-linejoin="round"/>
<path d="M620.39 322.649V305.409C620.39 303.889 621.63 302.649 623.15 302.649H659.95C661.47 302.649 662.71 303.889 662.71 305.409V326.049" stroke="#263238" stroke-miterlimit="10" stroke-linecap="round" stroke-linejoin="round"/>
<path d="M662.71 343.049V364.549C662.71 366.069 661.47 367.309 659.95 367.309H623.15C621.63 367.309 620.39 366.069 620.39 364.549V326.789" stroke="#263238" stroke-miterlimit="10" stroke-linecap="round" stroke-linejoin="round"/>
<path d="M623 312.729H660.08" stroke="#263238" stroke-miterlimit="10" stroke-linecap="round" stroke-linejoin="round"/>
<path d="M640.71 323.909H660.08" stroke="#263238" stroke-miterlimit="10" stroke-linecap="round" stroke-linejoin="round"/>
<path d="M623 323.909H637.69" stroke="#263238" stroke-miterlimit="10" stroke-linecap="round" stroke-linejoin="round"/>
<path d="M623 335.089H660.08" stroke="#263238" stroke-miterlimit="10" stroke-linecap="round" stroke-linejoin="round"/>
<path d="M653.43 346.269H660.08" stroke="#263238" stroke-miterlimit="10" stroke-linecap="round" stroke-linejoin="round"/>
<path d="M623 346.269H650.09" stroke="#263238" stroke-miterlimit="10" stroke-linecap="round" stroke-linejoin="round"/>
<path d="M623 357.449H660.08" stroke="#263238" stroke-miterlimit="10" stroke-linecap="round" stroke-linejoin="round"/>
<path d="M598.29 303.119H618.49" stroke="#263238" stroke-miterlimit="10" stroke-linecap="round" stroke-linejoin="round"/>
<path d="M333.07 90.5692H298.84C297.39 90.5692 296.22 89.3992 296.22 87.9492V77.9992C296.22 76.5492 297.39 75.3792 298.84 75.3792H344.71C346.16 75.3792 347.33 76.5492 347.33 77.9992V81.8992" stroke="#263238" stroke-miterlimit="10" stroke-linecap="round" stroke-linejoin="round"/>
<path d="M332.75 106.749V85.4691C332.75 83.5891 334.28 82.0591 336.16 82.0591H381.59C383.47 82.0591 385 83.5891 385 85.4691V110.949" stroke="#263238" stroke-miterlimit="10" stroke-linecap="round" stroke-linejoin="round"/>
<path d="M384.99 131.929V158.459C384.99 160.339 383.46 161.869 381.58 161.869H336.15C334.27 161.869 332.74 160.339 332.74 158.459V111.849" stroke="#263238" stroke-miterlimit="10" stroke-linecap="round" stroke-linejoin="round"/>
<path d="M335.97 94.4993H381.73" stroke="#263238" stroke-miterlimit="10" stroke-linecap="round" stroke-linejoin="round"/>
<path d="M357.83 108.299H381.73" stroke="#263238" stroke-miterlimit="10" stroke-linecap="round" stroke-linejoin="round"/>
<path d="M335.97 108.299H354.1" stroke="#263238" stroke-miterlimit="10" stroke-linecap="round" stroke-linejoin="round"/>
<path d="M335.97 122.099H381.73" stroke="#263238" stroke-miterlimit="10" stroke-linecap="round" stroke-linejoin="round"/>
<path d="M373.53 135.899H381.73" stroke="#263238" stroke-miterlimit="10" stroke-linecap="round" stroke-linejoin="round"/>
<path d="M335.97 135.899H369.41" stroke="#263238" stroke-miterlimit="10" stroke-linecap="round" stroke-linejoin="round"/>
<path d="M335.97 149.699H381.73" stroke="#263238" stroke-miterlimit="10" stroke-linecap="round" stroke-linejoin="round"/>
<path d="M305.46 82.6292H330.4" stroke="#263238" stroke-miterlimit="10" stroke-linecap="round" stroke-linejoin="round"/>
<path d="M391.79 133.299C389.88 133.299 387.99 132.579 386.53 131.169L381.66 126.339C381.07 125.759 380.97 124.859 381.41 124.159C381.69 123.709 382.15 123.419 382.68 123.349C383.2 123.279 383.73 123.449 384.11 123.809L385.07 124.709L380.17 114.619C379.93 114.109 379.9 113.529 380.1 112.999C380.3 112.469 380.7 112.049 381.22 111.819C382.25 111.369 383.44 111.819 383.93 112.829L385.78 116.399C386.15 115.969 386.59 115.719 387.09 115.649C387.88 115.529 388.61 115.919 389.02 116.209C389.41 115.739 389.87 115.459 390.4 115.389C391.05 115.299 391.64 115.549 392.04 115.779C392.3 115.189 392.81 114.879 393.48 114.919C394.13 114.959 394.74 115.359 395.07 115.959L398.53 122.329C400.23 125.669 399.26 129.679 396.24 131.879C394.9 132.819 393.34 133.299 391.79 133.299ZM382.9 124.109C382.86 124.109 382.82 124.109 382.77 124.119C382.48 124.159 382.22 124.319 382.07 124.569C381.83 124.959 381.88 125.459 382.21 125.779L387.08 130.609C389.44 132.899 393.1 133.159 395.77 131.219C398.48 129.249 399.34 125.659 397.83 122.679L394.37 116.319C394.17 115.949 393.81 115.709 393.43 115.689C393.11 115.669 392.76 115.749 392.65 116.469L392.54 117.189L392 116.699C391.99 116.689 391.26 116.049 390.51 116.149C390.11 116.209 389.75 116.479 389.44 116.959L389.19 117.369L388.84 117.039C388.83 117.029 388.03 116.289 387.21 116.409C386.77 116.479 386.39 116.789 386.06 117.359L385.69 118.009L383.23 113.159C382.93 112.529 382.19 112.249 381.54 112.529C381.22 112.669 380.97 112.929 380.84 113.259C380.72 113.589 380.73 113.949 380.88 114.269L387.54 128.089L383.57 124.369C383.38 124.199 383.15 124.109 382.9 124.109Z" fill="#263238"/>
<path d="M387.53 121.819C387.38 121.819 387.23 121.729 387.17 121.579L385.36 117.309C385.28 117.109 385.37 116.879 385.57 116.789C385.77 116.709 386 116.799 386.09 116.999L387.9 121.269C387.98 121.469 387.89 121.699 387.69 121.789C387.63 121.809 387.58 121.819 387.53 121.819Z" fill="#263238"/>
<path d="M390.68 120.879C390.53 120.879 390.38 120.789 390.32 120.639L388.74 116.899C388.66 116.699 388.75 116.469 388.95 116.379C389.15 116.299 389.38 116.389 389.47 116.589L391.05 120.329C391.13 120.529 391.04 120.759 390.84 120.849C390.79 120.869 390.73 120.879 390.68 120.879Z" fill="#263238"/>
<path d="M393.78 120.069C393.63 120.069 393.49 119.989 393.42 119.839L391.9 116.569C391.81 116.369 391.89 116.139 392.09 116.049C392.29 115.959 392.52 116.039 392.61 116.239L394.13 119.509C394.22 119.709 394.14 119.939 393.94 120.029C393.89 120.049 393.84 120.069 393.78 120.069Z" fill="#263238"/>
<path d="M361.816 66.4925L357.566 70.7422L361.816 74.9919L366.065 70.7422L361.816 66.4925Z" stroke="#263238" stroke-miterlimit="10" stroke-linecap="round" stroke-linejoin="round"/>
<path d="M325.11 105.389C325.11 103.649 323.7 102.239 321.96 102.239C320.22 102.239 318.81 103.649 318.81 105.389C318.81 107.129 320.22 108.539 321.96 108.539C323.7 108.539 325.11 107.129 325.11 105.389Z" stroke="#263238" stroke-miterlimit="10" stroke-linecap="round" stroke-linejoin="round"/>
<path d="M754.022 2.43319L741.818 14.6377L754.022 26.8422L766.227 14.6377L754.022 2.43319Z" stroke="#263238" stroke-miterlimit="10" stroke-linecap="round" stroke-linejoin="round"/>
<path d="M333.036 337.769L320.832 349.974L333.036 362.178L345.241 349.974L333.036 337.769Z" stroke="#263238" stroke-miterlimit="10" stroke-linecap="round" stroke-linejoin="round"/>
<path d="M279.852 313.986L267.647 326.191L279.852 338.395L292.056 326.191L279.852 313.986Z" stroke="#263238" stroke-miterlimit="10" stroke-linecap="round" stroke-linejoin="round"/>
<path d="M731.337 24.8145L724.676 31.4753L731.337 38.1362L737.997 31.4754L731.337 24.8145Z" stroke="#263238" stroke-miterlimit="10" stroke-linecap="round" stroke-linejoin="round"/>
<path d="M733.55 305.959C736.273 305.959 738.48 303.752 738.48 301.029C738.48 298.306 736.273 296.099 733.55 296.099C730.827 296.099 728.62 298.306 728.62 301.029C728.62 303.752 730.827 305.959 733.55 305.959Z" stroke="#263238" stroke-miterlimit="10" stroke-linecap="round" stroke-linejoin="round"/>
<path d="M324.29 263.209C327.013 263.209 329.22 261.002 329.22 258.279C329.22 255.556 327.013 253.349 324.29 253.349C321.567 253.349 319.36 255.556 319.36 258.279C319.36 261.002 321.567 263.209 324.29 263.209Z" stroke="#263238" stroke-miterlimit="10" stroke-linecap="round" stroke-linejoin="round"/>
<path d="M541.92 29.4291C544.643 29.4291 546.85 27.2219 546.85 24.4991C546.85 21.7763 544.643 19.5691 541.92 19.5691C539.197 19.5691 536.99 21.7763 536.99 24.4991C536.99 27.2219 539.197 29.4291 541.92 29.4291Z" stroke="#263238" stroke-miterlimit="10" stroke-linecap="round" stroke-linejoin="round"/>
<path d="M806.31 69.1892H567.07V284.999H806.31V69.1892Z" fill="#F0AE00"/>
<path d="M821.72 58.0891H580.58V274.829H821.72V58.0891Z" fill="white" stroke="#263238" stroke-miterlimit="10" stroke-linecap="round" stroke-linejoin="round"/>
<path d="M821.72 58.0891H644.1V87.4991H821.72V58.0891Z" fill="#263238" stroke="#263238" stroke-miterlimit="10" stroke-linecap="round" stroke-linejoin="round"/>
<path d="M821.72 58.0891H580.58V73.3791H821.72V58.0891Z" fill="white" stroke="#263238" stroke-miterlimit="10" stroke-linecap="round" stroke-linejoin="round"/>
<path d="M738.19 108.669H591.16V202.769H738.19V108.669Z" fill="#263238" stroke="#263238" stroke-miterlimit="10" stroke-linecap="round" stroke-linejoin="round"/>
<path d="M738.19 192.289H591.16V202.769H738.19V192.289Z" fill="white" stroke="#263238" stroke-miterlimit="10" stroke-linecap="round" stroke-linejoin="round"/>
<path d="M738.19 195.999H591.16V199.059H738.19V195.999Z" fill="white" stroke="#263238" stroke-miterlimit="10" stroke-linecap="round" stroke-linejoin="round"/>
<path d="M680.572 166.573C686.822 156.38 683.625 143.05 673.432 136.8C663.239 130.55 649.909 133.747 643.659 143.94C637.409 154.134 640.606 167.464 650.799 173.713C660.992 179.963 674.322 176.767 680.572 166.573Z" fill="#0169EE"/>
<path d="M674.68 155.729L655.84 144.849V166.599L674.68 155.729Z" fill="white"/>
<path d="M809.46 108.669H751.4V145.829H809.46V108.669Z" fill="#263238" stroke="#263238" stroke-miterlimit="10" stroke-linecap="round" stroke-linejoin="round"/>
<path d="M809.46 141.689H751.4V145.829H809.46V141.689Z" fill="white" stroke="#263238" stroke-miterlimit="10" stroke-linecap="round" stroke-linejoin="round"/>
<path d="M809.46 143.149H751.4V144.359H809.46V143.149Z" fill="white" stroke="#263238" stroke-miterlimit="10" stroke-linecap="round" stroke-linejoin="round"/>
<path d="M779.42 135.619C784.142 135.619 787.97 131.791 787.97 127.069C787.97 122.347 784.142 118.519 779.42 118.519C774.698 118.519 770.87 122.347 770.87 127.069C770.87 131.791 774.698 135.619 779.42 135.619Z" fill="#0169EE"/>
<path d="M784.38 127.249L776.94 122.959V131.549L784.38 127.249Z" fill="white"/>
<path d="M809.46 149.499H751.4V186.659H809.46V149.499Z" fill="#263238" stroke="#263238" stroke-miterlimit="10" stroke-linecap="round" stroke-linejoin="round"/>
<path d="M809.46 182.519H751.4V186.659H809.46V182.519Z" fill="white" stroke="#263238" stroke-miterlimit="10" stroke-linecap="round" stroke-linejoin="round"/>
<path d="M809.46 183.989H751.4V185.199H809.46V183.989Z" fill="white" stroke="#263238" stroke-miterlimit="10" stroke-linecap="round" stroke-linejoin="round"/>
<path d="M787.97 167.899C787.97 163.179 784.14 159.349 779.42 159.349C774.7 159.349 770.87 163.179 770.87 167.899C770.87 172.619 774.7 176.449 779.42 176.449C784.14 176.449 787.97 172.619 787.97 167.899Z" fill="#0169EE"/>
<path d="M784.38 168.079L776.94 163.789V172.379L784.38 168.079Z" fill="white"/>
<path d="M809.46 190.329H751.4V227.489H809.46V190.329Z" fill="#263238" stroke="#263238" stroke-miterlimit="10" stroke-linecap="round" stroke-linejoin="round"/>
<path d="M809.46 223.349H751.4V227.489H809.46V223.349Z" fill="white" stroke="#263238" stroke-miterlimit="10" stroke-linecap="round" stroke-linejoin="round"/>
<path d="M809.46 224.819H751.4V226.029H809.46V224.819Z" fill="white" stroke="#263238" stroke-miterlimit="10" stroke-linecap="round" stroke-linejoin="round"/>
<path d="M787.97 208.729C787.97 204.009 784.14 200.179 779.42 200.179C774.7 200.179 770.87 204.009 770.87 208.729C770.87 213.449 774.7 217.279 779.42 217.279C784.14 217.279 787.97 213.449 787.97 208.729Z" fill="#0169EE"/>
<path d="M784.38 208.919L776.94 204.619V213.209L784.38 208.919Z" fill="white"/>
<path d="M809.46 231.169H751.4V268.329H809.46V231.169Z" fill="#263238" stroke="#263238" stroke-miterlimit="10" stroke-linecap="round" stroke-linejoin="round"/>
<path d="M809.46 264.189H751.4V268.329H809.46V264.189Z" fill="white" stroke="#263238" stroke-miterlimit="10" stroke-linecap="round" stroke-linejoin="round"/>
<path d="M809.46 265.649H751.4V266.859H809.46V265.649Z" fill="white" stroke="#263238" stroke-miterlimit="10" stroke-linecap="round" stroke-linejoin="round"/>
<path d="M787.97 249.559C787.97 244.839 784.14 241.009 779.42 241.009C774.7 241.009 770.87 244.839 770.87 249.559C770.87 254.279 774.7 258.109 779.42 258.109C784.14 258.109 787.97 254.289 787.97 249.559Z" fill="#0169EE"/>
<path d="M784.38 249.749L776.94 245.449V254.039L784.38 249.749Z" fill="white"/>
<path d="M592.31 212.699H704.9" stroke="#263238" stroke-miterlimit="10" stroke-linecap="round" stroke-linejoin="round"/>
<path d="M592.31 239.309H659.2" stroke="#263238" stroke-miterlimit="10" stroke-linecap="round" stroke-linejoin="round"/>
<path d="M592.31 249.819H659.2" stroke="#263238" stroke-miterlimit="10" stroke-linecap="round" stroke-linejoin="round"/>
<path d="M592.31 260.339H659.2" stroke="#263238" stroke-miterlimit="10" stroke-linecap="round" stroke-linejoin="round"/>
<path d="M672.04 239.309H738.93" stroke="#263238" stroke-miterlimit="10" stroke-linecap="round" stroke-linejoin="round"/>
<path d="M672.04 249.819H738.93" stroke="#263238" stroke-miterlimit="10" stroke-linecap="round" stroke-linejoin="round"/>
<path d="M672.04 260.339H738.93" stroke="#263238" stroke-miterlimit="10" stroke-linecap="round" stroke-linejoin="round"/>
<path d="M592.31 221.369H734.6" stroke="#263238" stroke-miterlimit="10" stroke-linecap="round" stroke-linejoin="round"/>
<path d="M818.74 108.729H812.93V269.699H818.74V108.729Z" fill="#A2A7A9"/>
<path d="M818.74 147.789H812.93V168.369H818.74V147.789Z" fill="#263238"/>
<path d="M759.45 275.129V328.159" stroke="#263238" stroke-miterlimit="10" stroke-linecap="round" stroke-linejoin="round"/>
<path d="M675.46 426.239L675.86 426.629H676.78C675.91 426.449 675.46 426.239 675.46 426.239Z" fill="#263238" stroke="#263238" stroke-miterlimit="10" stroke-linecap="round" stroke-linejoin="round"/>
</svg>
