<svg xmlns="http://www.w3.org/2000/svg" width="18.171" height="14.638" viewBox="0 0 18.171 14.638">
  <g id="Group_7408" data-name="Group 7408" transform="translate(13548.744 -1256.19)">
    <g id="Group_7407" data-name="Group 7407" transform="translate(-13777 1242)">
      <path id="Path_2795" data-name="Path 2795" d="M-138.319-2503.933l2.27-2.312a2.833,2.833,0,0,0,1.061.167c1.23,0,2.46,0,3.69.008q0,1.581,0,3.163c-1.547-.006-3.1.088-4.641-.052A4.576,4.576,0,0,1-138.319-2503.933Z" transform="translate(368.639 2531.71)" fill="#fff"/>
      <g id="Group_7403" data-name="Group 7403" transform="translate(9)">
        <path id="Path_2792" data-name="Path 2792" d="M-30.355-2645.767a6.911,6.911,0,0,1,2.076,3.16.957.957,0,0,0,.336.486,5.13,5.13,0,0,1,1.793,5.4,5.142,5.142,0,0,1-4.226,3.73,6.945,6.945,0,0,1-.98.057q-1.85,0-3.7-.01,0-1.581,0-3.163c1.324,0,2.648,0,3.973-.015a1.961,1.961,0,0,0,1.942-1.847,1.949,1.949,0,0,0-1.728-2.041c-.187-.022-.246-.084-.243-.271a4.023,4.023,0,0,0-1.477-3.247Z" transform="translate(263.399 2661.747)" fill="#fff"/>
        <path id="Path_2793" data-name="Path 2793" d="M-166.613-2598.9a5.128,5.128,0,0,1-.043-8.191c.071-.055.141-.113.211-.169l.056-.059-.006,0a8.782,8.782,0,0,1,1.344-.611,5.986,5.986,0,0,1,2.6-.133c.117.039.233.082.351.117a5.164,5.164,0,0,1,2.472,1.59c.149.169.2.275,0,.462-.638.608-1.26,1.234-1.872,1.869-.187.195-.254.178-.4-.047a1.946,1.946,0,0,0-3.2-.12,1.967,1.967,0,0,0,.756,2.977Z" transform="translate(387.933 2626.677)" fill="#fff"/>
        <path id="Path_2794" data-name="Path 2794" d="M-131.151-2667.668a5.983,5.983,0,0,0-2.6.133,8.758,8.758,0,0,0-1.344.611,3.276,3.276,0,0,1,.383-1.113,7.109,7.109,0,0,1,11.123-2.27l-2.238,2.24c-.112-.075-.223-.152-.336-.226A3.911,3.911,0,0,0-131.151-2667.668Z" transform="translate(356.634 2686.287)" fill="#fff"/>
      </g>
    </g>
  </g>
</svg>
