<svg width="85" height="86" viewBox="0 0 85 86" fill="none" xmlns="http://www.w3.org/2000/svg">
<circle cx="42.5" cy="43.3211" r="42.5" fill="#F5F7FA"/>
<path d="M52.6164 31.543C54.6898 33.3301 56.2217 35.6666 57.034 38.2738C57.1578 38.6838 57.4054 39.0475 57.7535 39.3106C61.2273 42.0261 62.7359 46.5596 61.5754 50.8148C60.4227 55.0157 56.887 58.1413 52.57 58.7602C51.8737 58.8531 51.1774 58.8917 50.4812 58.8839C47.8507 58.8839 45.228 58.8762 42.5976 58.8607C42.5976 56.6171 42.5976 54.3658 42.5898 52.1222C45.4137 52.1145 48.2298 52.1144 51.0537 52.0912C53.2509 52.0757 55.0612 50.3506 55.1927 48.1612C55.3088 45.964 53.6918 44.0607 51.5101 43.8131C51.1156 43.7667 50.984 43.6352 50.9918 43.2329C51.0769 40.5637 49.9164 38.003 47.843 36.3164L52.6164 31.543Z" fill="#4285F4"/>
<path d="M27.6351 56.6713C22.7998 53.0661 21.8017 46.2269 25.3993 41.3838C26.0104 40.5638 26.7299 39.8365 27.5423 39.2176C27.697 39.1015 27.844 38.9778 27.991 38.854L28.1071 38.7303L28.0916 38.7378C29.0045 38.2272 29.9638 37.7863 30.9541 37.4381C32.7567 36.9352 34.6445 36.8425 36.4935 37.1597C36.7411 37.2448 36.9886 37.3375 37.244 37.4071C39.2864 38.0029 41.12 39.1789 42.5126 40.7959C42.8298 41.1595 42.9303 41.3839 42.5126 41.7784C41.1509 43.0782 39.828 44.4088 38.5282 45.7627C38.1337 46.1727 37.9867 46.1419 37.6772 45.6622C36.4471 43.728 33.8863 43.1632 31.9521 44.3933C31.5344 44.6641 31.163 45.0045 30.8613 45.4068C29.461 47.2481 29.8246 49.8786 31.6736 51.279C31.9212 51.4646 32.192 51.627 32.4705 51.7508L27.6351 56.6713Z" fill="#FFBA00"/>
<path d="M36.5089 37.1675C34.6676 36.858 32.7721 36.9507 30.9695 37.4459C29.9792 37.8018 29.0198 38.2349 28.1069 38.7456C28.2307 37.91 28.5092 37.1133 28.9193 36.3783C33.128 27.3188 45.344 24.8276 52.6164 31.543L47.8507 36.3164C47.6108 36.1539 47.3787 35.9913 47.1312 35.8366C43.7348 33.6394 39.2553 34.2044 36.5089 37.1675Z" fill="#EB4434"/>
<path d="M27.6353 56.6714L32.4706 51.7509C33.1979 52.0139 33.9638 52.1299 34.7297 52.1067C37.3524 52.099 39.9674 52.1145 42.5901 52.1222C42.5901 54.3658 42.5901 56.6171 42.5978 58.8607C39.302 58.8453 35.9985 59.0465 32.7104 58.7448C30.8614 58.5591 29.0975 57.8396 27.6353 56.6714Z" fill="#34A853"/>
<path d="M28.114 38.7378L27.9985 38.861C28.0062 38.7918 28.0139 38.7224 28.114 38.7378Z" fill="#EB4434"/>
</svg>
