<svg id="Group_2616" data-name="Group 2616" xmlns="http://www.w3.org/2000/svg" width="299.547" height="75.65" viewBox="0 0 299.547 75.65">
  <g id="Group_2615" data-name="Group 2615" transform="translate(0 0)">
    <rect id="Rectangle_2030" data-name="Rectangle 2030" width="299.548" height="75.65" fill="#f8f8f8"/>
    <path id="Path_3484" data-name="Path 3484" d="M551.748,666.345a7.725,7.725,0,0,1-13.072-.1l4.091-4.066H529.993v12.7l3.275-3.255a15.25,15.25,0,0,0,24-.066Z" transform="translate(-283.553 -636.863)" fill="#b4b6b9"/>
    <path id="Path_3485" data-name="Path 3485" d="M545.243,641.746H532.607l3.269,3.217A15.22,15.22,0,0,0,529.993,657h7.526a7.717,7.717,0,0,1,3.815-6.659l3.909,3.847Z" transform="translate(-283.553 -631.386)" fill="#3791ff"/>
    <path id="Path_3486" data-name="Path 3486" d="M562.684,647.925a15.225,15.225,0,0,0-12.258-6.179v7.526a7.721,7.721,0,0,1,6.762,3.99l-4.009,3.892h12.3V645.212Z" transform="translate(-288.737 -631.386)" fill="#1432b9"/>
    <g id="Group_2611" data-name="Group 2611" transform="translate(234.899 45.012)">
      <path id="Path_3487" data-name="Path 3487" d="M517,692.472l-.5-.026a.79.79,0,0,0-.553.2,1.287,1.287,0,0,0-.336.567V697.3H514.53v-5.729h.98l.078.862a1.829,1.829,0,0,1,.472-.711.99.99,0,0,1,.672-.257,1.366,1.366,0,0,1,.217.019.725.725,0,0,1,.175.046Z" transform="translate(-514.53 -689.475)" fill="#8c9196"/>
      <path id="Path_3488" data-name="Path 3488" d="M520.9,697.407a2.059,2.059,0,0,1-1.637-.709,2.68,2.68,0,0,1-.613-1.816v-.837a2.82,2.82,0,0,1,.6-1.853,1.893,1.893,0,0,1,1.527-.731,1.8,1.8,0,0,1,1.5.665,2.8,2.8,0,0,1,.525,1.787v.741h-3.082v.228a2.159,2.159,0,0,0,.325,1.226,1.049,1.049,0,0,0,.925.484,1.871,1.871,0,0,0,.762-.141,2.142,2.142,0,0,0,.6-.41l.339.667a1.977,1.977,0,0,1-.725.5A2.61,2.61,0,0,1,520.9,697.407Zm-.122-5.13a.848.848,0,0,0-.746.455,2.4,2.4,0,0,0-.312,1.154h2.017v-.218a1.865,1.865,0,0,0-.244-1A.791.791,0,0,0,520.773,692.277Z" transform="translate(-515.574 -689.475)" fill="#8c9196"/>
      <path id="Path_3489" data-name="Path 3489" d="M530.136,694.28l.016.032a2.491,2.491,0,0,1-.615,1.787,2.278,2.278,0,0,1-1.72.633,2.3,2.3,0,0,1-1.811-.763,3.09,3.09,0,0,1-.678-2.128V691.7a3.132,3.132,0,0,1,.671-2.134,2.251,2.251,0,0,1,1.786-.769,2.338,2.338,0,0,1,1.743.62,2.533,2.533,0,0,1,.625,1.811l-.016.031h-1.016a2.07,2.07,0,0,0-.334-1.247,1.2,1.2,0,0,0-1-.4,1.172,1.172,0,0,0-1.027.537,2.7,2.7,0,0,0-.366,1.528v2.158a2.678,2.678,0,0,0,.374,1.543,1.208,1.208,0,0,0,1.051.537,1.173,1.173,0,0,0,.977-.39,2.057,2.057,0,0,0,.32-1.247Z" transform="translate(-517.269 -688.8)" fill="#8c9196"/>
      <path id="Path_3490" data-name="Path 3490" d="M536.651,694.71h-2.458l-.56,1.949h-1.091l2.372-7.71h1.038l2.351,7.71h-1.091Zm-2.209-.852h1.964l-.963-3.367h-.031Z" transform="translate(-519.099 -688.838)" fill="#8c9196"/>
      <path id="Path_3491" data-name="Path 3491" d="M542.492,693.609v3.049h-1.075v-7.71h2.531a2.23,2.23,0,0,1,1.694.643,2.627,2.627,0,0,1,0,3.378,2.234,2.234,0,0,1-1.694.64Zm0-.816h1.455a1.069,1.069,0,0,0,.922-.427,1.777,1.777,0,0,0,.312-1.076,1.831,1.831,0,0,0-.309-1.091,1.064,1.064,0,0,0-.925-.434h-1.455Z" transform="translate(-521.351 -688.838)" fill="#8c9196"/>
      <path id="Path_3492" data-name="Path 3492" d="M553.721,689.765h-1.981v6.894h-1.075v-6.894H548.7v-.816h5.024Z" transform="translate(-523.197 -688.838)" fill="#8c9196"/>
      <path id="Path_3493" data-name="Path 3493" d="M560.946,694.28l.016.032a2.5,2.5,0,0,1-.614,1.787,2.28,2.28,0,0,1-1.72.633,2.3,2.3,0,0,1-1.811-.763,3.09,3.09,0,0,1-.678-2.128V691.7a3.135,3.135,0,0,1,.67-2.134,2.251,2.251,0,0,1,1.786-.769,2.337,2.337,0,0,1,1.743.62,2.533,2.533,0,0,1,.625,1.811l-.016.031h-1.017a2.064,2.064,0,0,0-.334-1.247,1.2,1.2,0,0,0-1-.4,1.172,1.172,0,0,0-1.027.537,2.7,2.7,0,0,0-.366,1.528v2.158a2.673,2.673,0,0,0,.375,1.543,1.206,1.206,0,0,0,1.051.537,1.173,1.173,0,0,0,.976-.39,2.057,2.057,0,0,0,.32-1.247Z" transform="translate(-525.085 -688.8)" fill="#8c9196"/>
      <path id="Path_3494" data-name="Path 3494" d="M569.259,696.659H568.19v-3.4h-2.954v3.4h-1.075v-7.71h1.075v3.489h2.954v-3.489h1.069Z" transform="translate(-527.12 -688.838)" fill="#8c9196"/>
      <path id="Path_3495" data-name="Path 3495" d="M576.429,694.71h-2.457l-.561,1.949h-1.09l2.372-7.71h1.038l2.35,7.71h-1.09Zm-2.208-.852h1.964l-.964-3.367h-.031Z" transform="translate(-529.19 -688.838)" fill="#8c9196"/>
    </g>
    <g id="Group_2612" data-name="Group 2612" transform="translate(230.902 58.289)">
      <path id="Path_3496" data-name="Path 3496" d="M509.982,711.055v2.392h-.808v-5.965h2.282a2.1,2.1,0,0,1,1.483.491,1.858,1.858,0,0,1,0,2.6,2.113,2.113,0,0,1-1.483.486Zm0-.635h1.475a1.082,1.082,0,0,0,1.2-1.145,1.183,1.183,0,0,0-.3-.826,1.159,1.159,0,0,0-.9-.331h-1.475Z" transform="translate(-509.174 -707.056)" fill="#8c9196"/>
      <path id="Path_3497" data-name="Path 3497" d="M518.271,710.22l-.413-.025a.925.925,0,0,0-.54.152.978.978,0,0,0-.337.425v3.167h-.807v-4.432h.721l.078.646a1.55,1.55,0,0,1,.464-.537,1.088,1.088,0,0,1,.637-.193,1.062,1.062,0,0,1,.172.014,1.273,1.273,0,0,1,.136.031Z" transform="translate(-510.95 -707.549)" fill="#8c9196"/>
      <path id="Path_3498" data-name="Path 3498" d="M520.921,707.735h-.807v-.824h.807Zm0,5.567h-.807V708.87h.807Z" transform="translate(-511.949 -706.911)" fill="#8c9196"/>
      <path id="Path_3499" data-name="Path 3499" d="M524.2,712.661l.069.312h.025l.077-.312,1.02-3.125h.823l-1.63,4.432h-.61l-1.651-4.432h.827Z" transform="translate(-512.51 -707.577)" fill="#8c9196"/>
      <path id="Path_3500" data-name="Path 3500" d="M531.1,713.94c-.028-.134-.049-.252-.064-.354a2.514,2.514,0,0,1-.027-.309,1.884,1.884,0,0,1-.588.535,1.5,1.5,0,0,1-.78.214,1.449,1.449,0,0,1-1.055-.354,1.307,1.307,0,0,1-.362-.978,1.144,1.144,0,0,1,.514-.993,2.4,2.4,0,0,1,1.394-.358h.877V710.9a.812.812,0,0,0-.238-.616.926.926,0,0,0-.671-.228.966.966,0,0,0-.633.2.6.6,0,0,0-.245.478h-.769l-.008-.025a1.072,1.072,0,0,1,.457-.884,1.878,1.878,0,0,1,1.243-.4,1.827,1.827,0,0,1,1.213.384,1.356,1.356,0,0,1,.459,1.1v2.134a4.321,4.321,0,0,0,.024.458,2.391,2.391,0,0,0,.09.434Zm-1.34-.594a1.43,1.43,0,0,0,.79-.225,1.064,1.064,0,0,0,.459-.514v-.719h-.905a1.179,1.179,0,0,0-.78.246.732.732,0,0,0-.293.576.6.6,0,0,0,.185.466A.777.777,0,0,0,529.764,713.345Z" transform="translate(-514.007 -707.549)" fill="#8c9196"/>
      <path id="Path_3501" data-name="Path 3501" d="M536.349,713.39a1.084,1.084,0,0,0,.707-.247.756.756,0,0,0,.305-.609h.725l.008.025a1.249,1.249,0,0,1-.51,1.02,1.862,1.862,0,0,1-1.235.446,1.79,1.79,0,0,1-1.478-.631,2.43,2.43,0,0,1-.513-1.585v-.172a2.425,2.425,0,0,1,.514-1.579,2.017,2.017,0,0,1,2.75-.174,1.427,1.427,0,0,1,.477,1.126l-.008.025h-.729a.936.936,0,0,0-.287-.691.989.989,0,0,0-.725-.285.974.974,0,0,0-.908.456,2.153,2.153,0,0,0-.272,1.12v.172a2.18,2.18,0,0,0,.27,1.132A.976.976,0,0,0,536.349,713.39Z" transform="translate(-515.563 -707.549)" fill="#8c9196"/>
      <path id="Path_3502" data-name="Path 3502" d="M541.771,712.325l.143.557h.025l1.089-3.346h.9l-1.864,5.112a2.3,2.3,0,0,1-.481.779,1.108,1.108,0,0,1-.846.331,1.794,1.794,0,0,1-.25-.022c-.1-.015-.179-.03-.233-.043l.081-.635a1.035,1.035,0,0,1,.145.008c.113.009.186.013.216.013a.5.5,0,0,0,.422-.23,2.389,2.389,0,0,0,.274-.507l.193-.463-1.647-4.342h.9Z" transform="translate(-516.978 -707.577)" fill="#8c9196"/>
      <path id="Path_3503" data-name="Path 3503" d="M550.44,712.307h-2.008v-.631h2.008Z" transform="translate(-519.133 -708.12)" fill="#8c9196"/>
      <path id="Path_3504" data-name="Path 3504" d="M558.938,708.117H557.02v5.33h-.807v-5.33H554.3v-.635h4.638Z" transform="translate(-520.621 -707.056)" fill="#8c9196"/>
      <path id="Path_3505" data-name="Path 3505" d="M562.775,714.025a1.866,1.866,0,0,1-1.473-.616,2.316,2.316,0,0,1-.547-1.6v-.181a2.274,2.274,0,0,1,.563-1.575,1.736,1.736,0,0,1,1.333-.628,1.683,1.683,0,0,1,1.357.542,2.155,2.155,0,0,1,.458,1.441v.5h-2.876l-.013.02a1.748,1.748,0,0,0,.323,1.047,1.031,1.031,0,0,0,.873.411,2.043,2.043,0,0,0,.719-.116,1.65,1.65,0,0,0,.534-.322l.315.525a1.858,1.858,0,0,1-.627.392A2.533,2.533,0,0,1,562.775,714.025Zm-.123-3.965a.878.878,0,0,0-.693.341,1.608,1.608,0,0,0-.352.856l.008.02h2.044v-.106a1.232,1.232,0,0,0-.254-.793A.907.907,0,0,0,562.651,710.06Z" transform="translate(-522.259 -707.549)" fill="#8c9196"/>
      <path id="Path_3506" data-name="Path 3506" d="M569.038,710.22l-.413-.025a.921.921,0,0,0-.539.152.973.973,0,0,0-.338.425v3.167h-.807v-4.432h.722l.078.646a1.559,1.559,0,0,1,.464-.537,1.091,1.091,0,0,1,.638-.193,1.077,1.077,0,0,1,.172.014,1.265,1.265,0,0,1,.135.031Z" transform="translate(-523.828 -707.549)" fill="#8c9196"/>
      <path id="Path_3507" data-name="Path 3507" d="M571.516,709.508l.057.581a1.52,1.52,0,0,1,.552-.49,1.667,1.667,0,0,1,.776-.174,1.368,1.368,0,0,1,.76.205,1.244,1.244,0,0,1,.477.615,1.631,1.631,0,0,1,.553-.6,1.444,1.444,0,0,1,.8-.222,1.325,1.325,0,0,1,1.069.466,2.119,2.119,0,0,1,.393,1.4v2.65h-.807v-2.658a1.473,1.473,0,0,0-.225-.928.821.821,0,0,0-.672-.272.853.853,0,0,0-.669.286,1.251,1.251,0,0,0-.3.725v2.847h-.81v-2.658a1.46,1.46,0,0,0-.232-.912.8.8,0,0,0-.666-.288,1.12,1.12,0,0,0-.607.151.983.983,0,0,0-.364.427v3.281h-.807v-4.432Z" transform="translate(-524.806 -707.549)" fill="#8c9196"/>
      <path id="Path_3508" data-name="Path 3508" d="M583.149,712.76a.548.548,0,0,0-.2-.438,1.9,1.9,0,0,0-.768-.3,3.25,3.25,0,0,1-1.215-.476.968.968,0,0,1-.407-.821,1.155,1.155,0,0,1,.46-.92,2.086,2.086,0,0,1,2.426.017,1.175,1.175,0,0,1,.437.967l-.008.025h-.77a.7.7,0,0,0-.244-.522.9.9,0,0,0-.645-.231.931.931,0,0,0-.639.189.589.589,0,0,0-.209.455.51.51,0,0,0,.184.414,1.937,1.937,0,0,0,.75.27,3.219,3.219,0,0,1,1.25.49.987.987,0,0,1,.409.83,1.143,1.143,0,0,1-.477.954,2,2,0,0,1-1.248.364,1.952,1.952,0,0,1-1.335-.429,1.228,1.228,0,0,1-.463-1l.008-.024h.769a.743.743,0,0,0,.32.625,1.236,1.236,0,0,0,.7.2,1.14,1.14,0,0,0,.674-.174A.536.536,0,0,0,583.149,712.76Z" transform="translate(-527.251 -707.549)" fill="#8c9196"/>
    </g>
    <g id="Group_2614" data-name="Group 2614" transform="translate(58.846 30.908)">
      <g id="Group_2613" data-name="Group 2613">
        <path id="Path_3509" data-name="Path 3509" d="M279.937,681.232H278.51v-10.5h1.427Z" transform="translate(-278.51 -669.985)"/>
        <path id="Path_3510" data-name="Path 3510" d="M284.893,671.122l-1.154,2.494h-.7l.432-2.473V669.73h1.42Z" transform="translate(-279.659 -669.73)"/>
        <path id="Path_3511" data-name="Path 3511" d="M288.763,674.3l.1,1.022a2.652,2.652,0,0,1,.971-.861,2.9,2.9,0,0,1,1.364-.307,2.423,2.423,0,0,1,1.339.361,2.19,2.19,0,0,1,.839,1.081,2.9,2.9,0,0,1,.973-1.052,2.556,2.556,0,0,1,1.413-.39,2.339,2.339,0,0,1,1.883.819,3.74,3.74,0,0,1,.69,2.461V682.1h-1.418v-4.679a2.6,2.6,0,0,0-.4-1.634,1.444,1.444,0,0,0-1.183-.48,1.509,1.509,0,0,0-1.178.505,2.194,2.194,0,0,0-.529,1.276V682.1H292.2v-4.679a2.564,2.564,0,0,0-.407-1.6,1.417,1.417,0,0,0-1.172-.509,1.95,1.95,0,0,0-1.068.268,1.726,1.726,0,0,0-.642.75V682.1h-1.419v-7.8Z" transform="translate(-280.789 -670.852)"/>
        <path id="Path_3512" data-name="Path 3512" d="M310.971,674.3l.1,1.16a2.834,2.834,0,0,1,.977-.963,2.606,2.606,0,0,1,1.337-.343,2.545,2.545,0,0,1,1.953.74,3.239,3.239,0,0,1,.693,2.282V682.1h-1.42v-4.9a2.108,2.108,0,0,0-.408-1.464,1.632,1.632,0,0,0-1.243-.433,2,2,0,0,0-1.085.3,2.179,2.179,0,0,0-.754.807V682.1H309.7v-7.8Z" transform="translate(-286.423 -670.852)"/>
        <path id="Path_3513" data-name="Path 3513" d="M320.5,678.127a4.292,4.292,0,0,1,.937-2.851,3.472,3.472,0,0,1,5.108,0,4.279,4.279,0,0,1,.94,2.855v.159a4.274,4.274,0,0,1-.937,2.855,3.488,3.488,0,0,1-5.108,0,4.262,4.262,0,0,1-.941-2.851Zm1.42.155a3.691,3.691,0,0,0,.522,2.044,1.889,1.889,0,0,0,3.1,0,3.667,3.667,0,0,0,.526-2.044v-.159a3.662,3.662,0,0,0-.53-2.037,1.738,1.738,0,0,0-1.554-.814,1.715,1.715,0,0,0-1.54.814,3.7,3.7,0,0,0-.522,2.037Z" transform="translate(-289.162 -670.852)"/>
        <path id="Path_3514" data-name="Path 3514" d="M333.8,671.826v1.883h1.478v1.052H333.8V679.5a1.059,1.059,0,0,0,.227.771.82.82,0,0,0,.6.224,1.687,1.687,0,0,0,.533-.1l.187.973a1.246,1.246,0,0,1-.465.214,2.378,2.378,0,0,1-.616.083,1.835,1.835,0,0,1-1.376-.523,2.267,2.267,0,0,1-.512-1.64V674.76h-1.24v-1.052h1.24v-1.883Z" transform="translate(-291.86 -670.262)"/>
        <path id="Path_3515" data-name="Path 3515" d="M348.651,682.1q-.073-.354-.113-.624a4.579,4.579,0,0,1-.046-.544,3.318,3.318,0,0,1-1.034.941,2.657,2.657,0,0,1-1.374.378,2.556,2.556,0,0,1-1.857-.623,2.3,2.3,0,0,1-.637-1.72,2.012,2.012,0,0,1,.905-1.748,4.219,4.219,0,0,1,2.455-.631h1.543v-.771a1.435,1.435,0,0,0-.418-1.086,1.648,1.648,0,0,0-1.183-.4,1.711,1.711,0,0,0-1.114.349,1.054,1.054,0,0,0-.429.84h-1.355l-.014-.044a1.886,1.886,0,0,1,.8-1.557,3.3,3.3,0,0,1,2.188-.707,3.219,3.219,0,0,1,2.134.675,2.388,2.388,0,0,1,.808,1.943v3.756a7.428,7.428,0,0,0,.043.808,4.254,4.254,0,0,0,.159.764Zm-2.358-1.046a2.53,2.53,0,0,0,1.392-.4,1.883,1.883,0,0,0,.807-.906v-1.264H346.9a2.074,2.074,0,0,0-1.374.431,1.291,1.291,0,0,0-.515,1.014,1.065,1.065,0,0,0,.325.819A1.356,1.356,0,0,0,346.292,681.054Z" transform="translate(-295.019 -670.852)"/>
        <path id="Path_3516" data-name="Path 3516" d="M363.433,675.553l-.729-.043a1.623,1.623,0,0,0-.948.267,1.711,1.711,0,0,0-.595.749V682.1h-1.42v-7.8h1.268l.137,1.138a2.721,2.721,0,0,1,.818-.945,1.921,1.921,0,0,1,1.122-.339,1.788,1.788,0,0,1,.3.025,1.977,1.977,0,0,1,.238.054Z" transform="translate(-299.117 -670.852)"/>
        <path id="Path_3517" data-name="Path 3517" d="M365.885,678.127a4.292,4.292,0,0,1,.937-2.851,3.142,3.142,0,0,1,2.544-1.122,3.173,3.173,0,0,1,2.564,1.118,4.279,4.279,0,0,1,.94,2.855v.159a4.274,4.274,0,0,1-.937,2.855,3.488,3.488,0,0,1-5.108,0,4.262,4.262,0,0,1-.941-2.851Zm1.42.155a3.691,3.691,0,0,0,.522,2.044,1.889,1.889,0,0,0,3.1,0,3.667,3.667,0,0,0,.526-2.044v-.159a3.668,3.668,0,0,0-.53-2.037,1.739,1.739,0,0,0-1.555-.814,1.714,1.714,0,0,0-1.539.814,3.7,3.7,0,0,0-.522,2.037Z" transform="translate(-300.675 -670.852)"/>
        <path id="Path_3518" data-name="Path 3518" d="M384.235,677.372a4.287,4.287,0,0,1-.81,2.721,2.681,2.681,0,0,1-2.232,1.035,2.844,2.844,0,0,1-1.34-.3,2.49,2.49,0,0,1-.945-.883l-.173,1.031h-1.16V669.73h1.419v4.37a2.467,2.467,0,0,1,.913-.794,2.8,2.8,0,0,1,1.272-.274,2.591,2.591,0,0,1,2.249,1.153,5.188,5.188,0,0,1,.808,3.036Zm-1.421-.151a4.31,4.31,0,0,0-.493-2.188,1.625,1.625,0,0,0-1.5-.848,1.864,1.864,0,0,0-1.107.322,2.268,2.268,0,0,0-.718.861v3.381a2.329,2.329,0,0,0,.718.9,1.85,1.85,0,0,0,1.122.324,1.688,1.688,0,0,0,1.492-.713,3.283,3.283,0,0,0,.49-1.889Z" transform="translate(-303.64 -669.73)"/>
        <path id="Path_3519" data-name="Path 3519" d="M388.373,678.127a4.292,4.292,0,0,1,.937-2.851,3.472,3.472,0,0,1,5.108,0,4.279,4.279,0,0,1,.94,2.855v.159a4.27,4.27,0,0,1-.937,2.855,3.488,3.488,0,0,1-5.108,0,4.266,4.266,0,0,1-.941-2.851Zm1.42.155a3.685,3.685,0,0,0,.523,2.044,1.888,1.888,0,0,0,3.1,0,3.667,3.667,0,0,0,.527-2.044v-.159a3.661,3.661,0,0,0-.531-2.037,1.738,1.738,0,0,0-1.554-.814,1.713,1.713,0,0,0-1.539.814,3.7,3.7,0,0,0-.523,2.037Z" transform="translate(-306.38 -670.852)"/>
        <path id="Path_3520" data-name="Path 3520" d="M401.671,671.826v1.883h1.478v1.052h-1.478V679.5a1.059,1.059,0,0,0,.227.771.82.82,0,0,0,.6.224,1.687,1.687,0,0,0,.533-.1l.187.973a1.246,1.246,0,0,1-.465.214,2.378,2.378,0,0,1-.616.083,1.838,1.838,0,0,1-1.377-.523,2.267,2.267,0,0,1-.511-1.64V674.76h-1.24v-1.052h1.24v-1.883Z" transform="translate(-309.078 -670.262)"/>
      </g>
    </g>
    <path id="Path_3521" data-name="Path 3521" d="M529.993,661.694h7.526a7.748,7.748,0,0,1,.135-1.426h-7.595C530.016,660.738,529.993,661.214,529.993,661.694Z" transform="translate(-283.553 -636.311)" fill="#2387f5"/>
    <path id="Path_3522" data-name="Path 3522" d="M550.426,641.746v7.526a7.764,7.764,0,0,1,1.149.087V641.79C551.2,641.762,550.813,641.746,550.426,641.746Z" transform="translate(-288.737 -631.386)" fill="#071ea0"/>
    <path id="Path_3523" data-name="Path 3523" d="M229.459,687.085,219.877,674.1l3.47-2.562,6.624,8.976,19.664-19.424,3.031,3.069Z" transform="translate(-204.753 -636.638)" fill="#64c82d"/>
  </g>
</svg>
