<?xml version="1.0" encoding="UTF-8" standalone="no"?>
<svg
   width="102"
   height="30"
   viewBox="0 0 102 30"
   fill="none"
   version="1.1"
   id="svg126"
   sodipodi:docname="google-play-link-new.svg"
   xmlns:inkscape="http://www.inkscape.org/namespaces/inkscape"
   xmlns:sodipodi="http://sodipodi.sourceforge.net/DTD/sodipodi-0.dtd"
   xmlns="http://www.w3.org/2000/svg"
   xmlns:svg="http://www.w3.org/2000/svg">
  <sodipodi:namedview
     id="namedview128"
     pagecolor="#ffffff"
     bordercolor="#666666"
     borderopacity="1.0"
     inkscape:pageshadow="2"
     inkscape:pageopacity="0.0"
     inkscape:pagecheckerboard="0" />
  <path
     d="M0 5C0 2.23858 2.23858 0 5 0H96.25C99.0114 0 101.25 2.23858 101.25 5V25C101.25 27.7614 99.0114 30 96.25 30H5C2.23857 30 0 27.7614 0 25V5Z"
     fill="black"
     id="path2" />
  <path
     d="M51.102 16.3132C49.338 16.3132 47.9002 17.6549 47.9002 19.5029C47.9002 21.3397 49.338 22.6927 51.102 22.6927C52.8667 22.6927 54.3045 21.3397 54.3045 19.5029C54.3037 17.6549 52.866 16.3132 51.102 16.3132ZM51.102 21.4372C50.1352 21.4372 49.302 20.6399 49.302 19.5037C49.302 18.3554 50.136 17.5702 51.102 17.5702C52.0687 17.5702 52.902 18.3554 52.902 19.5037C52.902 20.6392 52.0687 21.4372 51.102 21.4372ZM44.1165 16.3132C42.3525 16.3132 40.9147 17.6549 40.9147 19.5029C40.9147 21.3397 42.3525 22.6927 44.1165 22.6927C45.8812 22.6927 47.319 21.3397 47.319 19.5029C47.319 17.6549 45.8812 16.3132 44.1165 16.3132ZM44.1165 21.4372C43.1497 21.4372 42.3165 20.6399 42.3165 19.5037C42.3165 18.3554 43.1505 17.5702 44.1165 17.5702C45.0832 17.5702 45.9165 18.3554 45.9165 19.5037C45.9172 20.6392 45.0832 21.4372 44.1165 21.4372ZM35.808 17.2927V18.6457H39.0465C38.9497 19.4069 38.6962 19.9627 38.3092 20.3489C37.8382 20.8199 37.101 21.3397 35.808 21.3397C33.8145 21.3397 32.256 19.7324 32.256 17.7389C32.256 15.7454 33.8145 14.1382 35.808 14.1382C36.8835 14.1382 37.6687 14.5612 38.2485 15.1049L39.2032 14.1502C38.3932 13.3769 37.3185 12.7852 35.808 12.7852C33.0772 12.7852 30.7815 15.0082 30.7815 17.7389C30.7815 20.4697 33.0772 22.6927 35.808 22.6927C37.2817 22.6927 38.394 22.2089 39.2632 21.3029C40.1572 20.4089 40.4355 19.1519 40.4355 18.1372C40.4355 17.8237 40.4115 17.5334 40.3627 17.2919H35.808V17.2927ZM69.789 18.3434C69.5235 17.6309 68.7135 16.3132 67.0582 16.3132C65.415 16.3132 64.0492 17.6062 64.0492 19.5029C64.0492 21.2909 65.403 22.6927 67.215 22.6927C68.6767 22.6927 69.5227 21.7987 69.8737 21.2789L68.7862 20.5537C68.424 21.0854 67.9282 21.4357 67.215 21.4357C66.5025 21.4357 65.9947 21.1094 65.6685 20.4689L69.9337 18.7049L69.789 18.3434ZM65.439 19.4069C65.403 18.1739 66.3937 17.5462 67.107 17.5462C67.6627 17.5462 68.1337 17.8244 68.2912 18.2227L65.439 19.4069ZM61.9717 22.4999H63.3727V13.1242H61.9717V22.4999ZM59.6752 17.0264H59.6272C59.313 16.6514 58.7085 16.3132 57.948 16.3132C56.3527 16.3132 54.891 17.7149 54.891 19.5157C54.891 21.3037 56.3527 22.6934 57.948 22.6934C58.7092 22.6934 59.313 22.3552 59.6272 21.9689H59.6752V22.4279C59.6752 23.6482 59.0227 24.3007 57.972 24.3007C57.114 24.3007 56.5822 23.6849 56.3647 23.1652L55.1445 23.6729C55.4947 24.5182 56.4247 25.5577 57.972 25.5577C59.6152 25.5577 61.005 24.5909 61.005 22.2344V16.5074H59.676V17.0264H59.6752ZM58.0687 21.4372C57.102 21.4372 56.2927 20.6272 56.2927 19.5157C56.2927 18.3914 57.102 17.5702 58.0687 17.5702C59.0227 17.5702 59.772 18.3914 59.772 19.5157C59.772 20.6272 59.0227 21.4372 58.0687 21.4372ZM76.3545 13.1242H73.0012V22.4999H74.4V18.9479H76.3537C77.9047 18.9479 79.4302 17.8252 79.4302 16.0364C79.4302 14.2477 77.9055 13.1242 76.3545 13.1242ZM76.3905 17.6429H74.4V14.4292H76.3905C77.4367 14.4292 78.0307 15.2954 78.0307 16.0364C78.0307 16.7624 77.4367 17.6429 76.3905 17.6429ZM85.0395 16.2967C84.0262 16.2967 82.977 16.7429 82.5427 17.7322L83.7847 18.2504C84.0502 17.7322 84.5452 17.5627 85.0635 17.5627C85.7872 17.5627 86.523 17.9969 86.535 18.7687V18.8654C86.2815 18.7207 85.7385 18.5039 85.0755 18.5039C83.7367 18.5039 82.3732 19.2397 82.3732 20.6144C82.3732 21.8692 83.4712 22.6769 84.7012 22.6769C85.6417 22.6769 86.1607 22.2547 86.4862 21.7597H86.5342V22.4834H87.8857V18.8887C87.8865 17.2252 86.643 16.2967 85.0395 16.2967ZM84.87 21.4349C84.4125 21.4349 83.7727 21.2054 83.7727 20.6384C83.7727 19.9147 84.5692 19.6372 85.257 19.6372C85.8712 19.6372 86.1615 19.7699 86.535 19.9507C86.4262 20.8199 85.6785 21.4349 84.87 21.4349ZM92.8072 16.5014L91.203 20.5664H91.155L89.49 16.5014H87.9825L90.4792 22.1827L89.0557 25.3432H90.5152L94.3635 16.5014H92.8072ZM80.2027 22.4999H81.6015V13.1242H80.2027V22.4999Z"
     fill="white"
     id="path4" />
  <path
     d="M35.5635 7.6819C35.5635 8.3104 35.3775 8.81065 35.0048 9.18415C34.5818 9.62815 34.0298 9.85015 33.3518 9.85015C32.7023 9.85015 32.1495 9.62515 31.6958 9.17515C31.2413 8.7244 31.014 8.1664 31.014 7.5004C31.014 6.83365 31.2413 6.27565 31.6958 5.82565C32.1495 5.3749 32.7023 5.1499 33.3518 5.1499C33.6743 5.1499 33.9825 5.2129 34.275 5.33815C34.5683 5.46415 34.803 5.6314 34.9785 5.84065L34.5833 6.23665C34.2855 5.8804 33.8753 5.70265 33.351 5.70265C32.877 5.70265 32.4675 5.86915 32.1218 6.20215C31.776 6.53515 31.6035 6.9679 31.6035 7.49965C31.6035 8.0314 31.776 8.46415 32.1218 8.79715C32.4675 9.13015 32.877 9.29665 33.351 9.29665C33.8535 9.29665 34.2728 9.1294 34.608 8.79415C34.8255 8.5759 34.9515 8.27215 34.9853 7.8829H33.351V7.34215H35.5313C35.5538 7.4599 35.5635 7.57315 35.5635 7.6819Z"
     fill="white"
     id="path6" />
  <path
     d="M39.0211 5.80244H36.9721V7.22894H38.8201V7.7697H36.9721V9.19619H39.0211V9.74969H36.3939V5.24969H39.0211V5.80244Z"
     fill="white"
     id="path8" />
  <path
     d="M41.4593 9.74969H40.881V5.80244H39.624V5.24969H42.7163V5.80244H41.4593V9.74969Z"
     fill="white"
     id="path10" />
  <path
     d="M44.9535 9.74969V5.24969H45.5317V9.74969H44.9535Z"
     fill="white"
     id="path12" />
  <path
     d="M48.0961 9.74969H47.5179V5.80244H46.2609V5.24969H49.3531V5.80244H48.0961V9.74969Z"
     fill="white"
     id="path14" />
  <path
     d="M55.2067 9.16844C54.7642 9.62294 54.2144 9.85019 53.5567 9.85019C52.8989 9.85019 52.3492 9.62294 51.9074 9.16844C51.4649 8.71394 51.2444 8.15744 51.2444 7.49969C51.2444 6.84194 51.4649 6.28544 51.9074 5.83094C52.3492 5.37644 52.8989 5.14844 53.5567 5.14844C54.2107 5.14844 54.7597 5.37719 55.2037 5.83394C55.6477 6.29069 55.8697 6.84569 55.8697 7.49969C55.8697 8.15744 55.6484 8.71394 55.2067 9.16844ZM52.3342 8.79119C52.6672 9.12869 53.0744 9.29669 53.5567 9.29669C54.0389 9.29669 54.4469 9.12794 54.7792 8.79119C55.1122 8.45369 55.2794 8.02319 55.2794 7.49969C55.2794 6.97619 55.1122 6.54569 54.7792 6.20819C54.4469 5.87069 54.0389 5.70269 53.5567 5.70269C53.0744 5.70269 52.6672 5.87144 52.3342 6.20819C52.0019 6.54569 51.8347 6.97619 51.8347 7.49969C51.8347 8.02319 52.0019 8.45369 52.3342 8.79119Z"
     fill="white"
     id="path16" />
  <path
     d="M56.6812 9.74969V5.24969H57.3847L59.5717 8.74994H59.5965L59.5717 7.88294V5.24969H60.15V9.74969H59.5462L57.258 6.0792H57.2332L57.258 6.94619V9.74969H56.6812Z"
     fill="white"
     id="path18" />
  <path
     d="M35.5635 7.6819C35.5635 8.3104 35.3775 8.81065 35.0048 9.18415C34.5818 9.62815 34.0298 9.85015 33.3518 9.85015C32.7023 9.85015 32.1495 9.62515 31.6958 9.17515C31.2413 8.7244 31.014 8.1664 31.014 7.5004C31.014 6.83365 31.2413 6.27565 31.6958 5.82565C32.1495 5.3749 32.7023 5.1499 33.3518 5.1499C33.6743 5.1499 33.9825 5.2129 34.275 5.33815C34.5683 5.46415 34.803 5.6314 34.9785 5.84065L34.5833 6.23665C34.2855 5.8804 33.8753 5.70265 33.351 5.70265C32.877 5.70265 32.4675 5.86915 32.1218 6.20215C31.776 6.53515 31.6035 6.9679 31.6035 7.49965C31.6035 8.0314 31.776 8.46415 32.1218 8.79715C32.4675 9.13015 32.877 9.29665 33.351 9.29665C33.8535 9.29665 34.2728 9.1294 34.608 8.79415C34.8255 8.5759 34.9515 8.27215 34.9853 7.8829H33.351V7.34215H35.5313C35.5538 7.4599 35.5635 7.57315 35.5635 7.6819Z"
     stroke="white"
     stroke-width="0.2"
     stroke-miterlimit="10"
     id="path20" />
  <path
     d="M39.0211 5.80244H36.9721V7.22894H38.8201V7.7697H36.9721V9.19619H39.0211V9.74969H36.3939V5.24969H39.0211V5.80244Z"
     stroke="white"
     stroke-width="0.2"
     stroke-miterlimit="10"
     id="path22" />
  <path
     d="M41.4593 9.74969H40.881V5.80244H39.624V5.24969H42.7163V5.80244H41.4593V9.74969Z"
     stroke="white"
     stroke-width="0.2"
     stroke-miterlimit="10"
     id="path24" />
  <path
     d="M44.9535 9.74969V5.24969H45.5317V9.74969H44.9535Z"
     stroke="white"
     stroke-width="0.2"
     stroke-miterlimit="10"
     id="path26" />
  <path
     d="M48.0961 9.74969H47.5179V5.80244H46.2609V5.24969H49.3531V5.80244H48.0961V9.74969Z"
     stroke="white"
     stroke-width="0.2"
     stroke-miterlimit="10"
     id="path28" />
  <path
     d="M55.2067 9.16844C54.7642 9.62294 54.2144 9.85019 53.5567 9.85019C52.8989 9.85019 52.3492 9.62294 51.9074 9.16844C51.4649 8.71394 51.2444 8.15744 51.2444 7.49969C51.2444 6.84194 51.4649 6.28544 51.9074 5.83094C52.3492 5.37644 52.8989 5.14844 53.5567 5.14844C54.2107 5.14844 54.7597 5.37719 55.2037 5.83394C55.6477 6.29069 55.8697 6.84569 55.8697 7.49969C55.8697 8.15744 55.6484 8.71394 55.2067 9.16844ZM52.3342 8.79119C52.6672 9.12869 53.0744 9.29669 53.5567 9.29669C54.0389 9.29669 54.4469 9.12794 54.7792 8.79119C55.1122 8.45369 55.2794 8.02319 55.2794 7.49969C55.2794 6.97619 55.1122 6.54569 54.7792 6.20819C54.4469 5.87069 54.0389 5.70269 53.5567 5.70269C53.0744 5.70269 52.6672 5.87144 52.3342 6.20819C52.0019 6.54569 51.8347 6.97619 51.8347 7.49969C51.8347 8.02319 52.0019 8.45369 52.3342 8.79119Z"
     stroke="white"
     stroke-width="0.2"
     stroke-miterlimit="10"
     id="path30" />
  <path
     d="M56.6812 9.74969V5.24969H57.3847L59.5717 8.74994H59.5965L59.5717 7.88294V5.24969H60.15V9.74969H59.5462L57.258 6.0792H57.2332L57.258 6.94619V9.74969H56.6812Z"
     stroke="white"
     stroke-width="0.2"
     stroke-miterlimit="10"
     id="path32" />
  <g
     filter="url(#filter0_ii_3504_383)"
     id="g44">
    <path
       d="M7.82699 5.65241C7.60874 5.88341 7.47974 6.24191 7.47974 6.70616V23.2932C7.47974 23.7582 7.60874 24.1159 7.82699 24.3469L7.88249 24.4009L17.1742 15.1092V14.9997V14.8902L7.88249 5.59766L7.82699 5.65241Z"
       fill="url(#paint0_linear_3504_383)"
       id="path34" />
    <path
       d="M20.2709 18.2077L17.1742 15.1095V15V14.8905L20.2717 11.793L20.3414 11.8327L24.0112 13.9177C25.0589 14.5132 25.0589 15.4875 24.0112 16.0837L20.3414 18.1687L20.2709 18.2077Z"
       fill="url(#paint1_linear_3504_383)"
       id="path36" />
    <g
       filter="url(#filter1_i_3504_383)"
       id="g40">
      <path
         d="M20.3415 18.168L17.1735 15L7.82703 24.3472C8.17203 24.7132 8.74278 24.7582 9.38553 24.3937L20.3415 18.168Z"
         fill="url(#paint2_linear_3504_383)"
         id="path38" />
    </g>
    <path
       d="M20.3415 11.8325L9.38553 5.60753C8.74278 5.24228 8.17203 5.28803 7.82703 5.65403L17.1743 15.0013L20.3415 11.8325Z"
       fill="url(#paint3_linear_3504_383)"
       id="path42" />
  </g>
  <defs
     id="defs124">
    <filter
       id="filter0_ii_3504_383"
       x="7.47974"
       y="5.35547"
       width="17.3173"
       height="19.2891"
       filterUnits="userSpaceOnUse"
       color-interpolation-filters="sRGB">
      <feFlood
         flood-opacity="0"
         result="BackgroundImageFix"
         id="feFlood46" />
      <feBlend
         mode="normal"
         in="SourceGraphic"
         in2="BackgroundImageFix"
         result="shape"
         id="feBlend48" />
      <feColorMatrix
         in="SourceAlpha"
         type="matrix"
         values="0 0 0 0 0 0 0 0 0 0 0 0 0 0 0 0 0 0 127 0"
         result="hardAlpha"
         id="feColorMatrix50" />
      <feOffset
         dy="-0.15"
         id="feOffset52" />
      <feComposite
         in2="hardAlpha"
         operator="arithmetic"
         k2="-1"
         k3="1"
         id="feComposite54" />
      <feColorMatrix
         type="matrix"
         values="0 0 0 0 0 0 0 0 0 0 0 0 0 0 0 0 0 0 0.12 0"
         id="feColorMatrix56" />
      <feBlend
         mode="normal"
         in2="shape"
         result="effect1_innerShadow_3504_383"
         id="feBlend58" />
      <feColorMatrix
         in="SourceAlpha"
         type="matrix"
         values="0 0 0 0 0 0 0 0 0 0 0 0 0 0 0 0 0 0 127 0"
         result="hardAlpha"
         id="feColorMatrix60" />
      <feOffset
         dy="0.15"
         id="feOffset62" />
      <feComposite
         in2="hardAlpha"
         operator="arithmetic"
         k2="-1"
         k3="1"
         id="feComposite64" />
      <feColorMatrix
         type="matrix"
         values="0 0 0 0 1 0 0 0 0 1 0 0 0 0 1 0 0 0 0.25 0"
         id="feColorMatrix66" />
      <feBlend
         mode="normal"
         in2="effect1_innerShadow_3504_383"
         result="effect2_innerShadow_3504_383"
         id="feBlend68" />
    </filter>
    <filter
       id="filter1_i_3504_383"
       x="7.82703"
       y="15"
       width="12.5145"
       height="9.64453"
       filterUnits="userSpaceOnUse"
       color-interpolation-filters="sRGB">
      <feFlood
         flood-opacity="0"
         result="BackgroundImageFix"
         id="feFlood71" />
      <feBlend
         mode="normal"
         in="SourceGraphic"
         in2="BackgroundImageFix"
         result="shape"
         id="feBlend73" />
      <feColorMatrix
         in="SourceAlpha"
         type="matrix"
         values="0 0 0 0 0 0 0 0 0 0 0 0 0 0 0 0 0 0 127 0"
         result="hardAlpha"
         id="feColorMatrix75" />
      <feOffset
         dy="-0.15"
         id="feOffset77" />
      <feComposite
         in2="hardAlpha"
         operator="arithmetic"
         k2="-1"
         k3="1"
         id="feComposite79" />
      <feColorMatrix
         type="matrix"
         values="0 0 0 0 0 0 0 0 0 0 0 0 0 0 0 0 0 0 0.08 0"
         id="feColorMatrix81" />
      <feBlend
         mode="normal"
         in2="shape"
         result="effect1_innerShadow_3504_383"
         id="feBlend83" />
    </filter>
    <linearGradient
       id="paint0_linear_3504_383"
       x1="16.3506"
       y1="6.53066"
       x2="3.76409"
       y2="19.1172"
       gradientUnits="userSpaceOnUse">
      <stop
         stop-color="#00A0FF"
         id="stop86" />
      <stop
         offset="0.0066"
         stop-color="#00A1FF"
         id="stop88" />
      <stop
         offset="0.2601"
         stop-color="#00BEFF"
         id="stop90" />
      <stop
         offset="0.5122"
         stop-color="#00D2FF"
         id="stop92" />
      <stop
         offset="0.7604"
         stop-color="#00DFFF"
         id="stop94" />
      <stop
         offset="1"
         stop-color="#00E3FF"
         id="stop96" />
    </linearGradient>
    <linearGradient
       id="paint1_linear_3504_383"
       x1="25.3751"
       y1="15"
       x2="7.22814"
       y2="15"
       gradientUnits="userSpaceOnUse">
      <stop
         stop-color="#FFE000"
         id="stop99" />
      <stop
         offset="0.4087"
         stop-color="#FFBD00"
         id="stop101" />
      <stop
         offset="0.7754"
         stop-color="#FFA500"
         id="stop103" />
      <stop
         offset="1"
         stop-color="#FF9C00"
         id="stop105" />
    </linearGradient>
    <linearGradient
       id="paint2_linear_3504_383"
       x1="18.6211"
       y1="16.7204"
       x2="1.55223"
       y2="33.7893"
       gradientUnits="userSpaceOnUse">
      <stop
         stop-color="#FF3A44"
         id="stop108" />
      <stop
         offset="1"
         stop-color="#C31162"
         id="stop110" />
    </linearGradient>
    <linearGradient
       id="paint3_linear_3504_383"
       x1="5.47308"
       y1="0.132375"
       x2="13.0948"
       y2="7.7541"
       gradientUnits="userSpaceOnUse">
      <stop
         stop-color="#32A071"
         id="stop113" />
      <stop
         offset="0.0685"
         stop-color="#2DA771"
         id="stop115" />
      <stop
         offset="0.4762"
         stop-color="#15CF74"
         id="stop117" />
      <stop
         offset="0.8009"
         stop-color="#06E775"
         id="stop119" />
      <stop
         offset="1"
         stop-color="#00F076"
         id="stop121" />
    </linearGradient>
  </defs>
</svg>
