<svg xmlns="http://www.w3.org/2000/svg" xmlns:xlink="http://www.w3.org/1999/xlink" width="70" height="50" viewBox="0 0 70 50">
  <defs>
    <clipPath id="clip-path">
      <rect id="Rectangle_4048" data-name="Rectangle 4048" width="70" height="50" transform="translate(-13900 9367)" fill="#fff"/>
    </clipPath>
  </defs>
  <g id="Mask_Group_31" data-name="Mask Group 31" transform="translate(13900 -9367)" clip-path="url(#clip-path)">
    <g id="Group_12210" data-name="Group 12210" transform="translate(-13894 9369)">
      <path id="Path_2792" data-name="Path 2792" d="M-20.013-2645.767a22.1,22.1,0,0,1,6.639,10.108,3.057,3.057,0,0,0,1.076,1.553,16.408,16.408,0,0,1,5.734,17.27,16.446,16.446,0,0,1-13.516,11.931,22.238,22.238,0,0,1-3.135.182q-5.916-.008-11.833-.033-.006-5.058-.011-10.117c4.235-.015,8.47-.008,12.705-.048a6.273,6.273,0,0,0,6.213-5.907,6.235,6.235,0,0,0-5.527-6.526c-.6-.07-.788-.268-.778-.865a12.866,12.866,0,0,0-4.725-10.384Z" transform="translate(64.113 2651.492)" fill="#4285f4"/>
      <path id="Path_2793" data-name="Path 2793" d="M-162.076-2578.59a16.4,16.4,0,0,1-.136-26.2c.228-.176.451-.361.676-.542l.18-.188-.019.014a28.078,28.078,0,0,1,4.3-1.955,19.138,19.138,0,0,1,8.313-.424c.374.125.744.263,1.122.373a16.511,16.511,0,0,1,7.906,5.084c.476.541.625.88,0,1.477-2.041,1.945-4.03,3.947-5.986,5.979-.6.622-.811.57-1.28-.151a6.225,6.225,0,0,0-10.23-.383,6.29,6.29,0,0,0,2.417,9.521Z" transform="translate(168.677 2622.046)" fill="#ffba00"/>
      <path id="Path_2794" data-name="Path 2794" d="M-122.482-2657.933a19.134,19.134,0,0,0-8.313.424,27.985,27.985,0,0,0-4.3,1.955,10.471,10.471,0,0,1,1.224-3.559c6.323-13.6,24.659-17.34,35.574-7.259l-7.158,7.164c-.358-.24-.713-.485-1.074-.722A12.508,12.508,0,0,0-122.482-2657.933Z" transform="translate(142.397 2672.097)" fill="#eb4434"/>
      <path id="Path_2795" data-name="Path 2795" d="M-138.319-2498.851l7.261-7.393a9.058,9.058,0,0,0,3.392.533c3.933-.016,7.867.013,11.8.024q.006,5.057.011,10.116c-4.949-.02-9.906.28-14.844-.168A14.631,14.631,0,0,1-138.319-2498.851Z" transform="translate(144.92 2542.307)" fill="#34a853"/>
      <path id="Path_2796" data-name="Path 2796" d="M-135.656-2596.1l-.18.188C-135.825-2596.024-135.813-2596.132-135.656-2596.1Z" transform="translate(142.977 2612.63)" fill="#eb4434"/>
    </g>
  </g>
</svg>
