<svg xmlns="http://www.w3.org/2000/svg" width="20" height="20" viewBox="0 0 20 20"><defs><style>.a{fill:#00be7e;}.b{fill:#fff;}</style></defs><g transform="translate(-170 -441)"><circle class="a" cx="10" cy="10" r="10" transform="translate(170 441)"/><g transform="translate(174.266 446.972)"><path class="b" d="M911.276,345.9a.769.769,0,0,0-1.111,0l-5.821,6-2.543-2.622a.769.769,0,0,0-1.111,0h0a.828.828,0,0,0,0,1.146l2.995,3.088a.8.8,0,0,0,.093.117.794.794,0,0,0,1.131,0h0a.8.8,0,0,0,.093-.117l6.274-6.469A.828.828,0,0,0,911.276,345.9Z" transform="translate(-900.459 -345.664)"/></g></g></svg>