<svg width="48" height="48" viewBox="0 0 48 48" fill="none" xmlns="http://www.w3.org/2000/svg">
<circle cx="24" cy="24" r="24" fill="#E0F2FE"/>
<path d="M18.5 32H17C15.8954 32 15 31.1046 15 30V16C15 14.8954 15.8954 14 17 14H31C32.1046 14 33 14.8954 33 16V30C33 31.1046 32.1046 32 31 32H29.5M24 31C25.6569 31 27 29.6569 27 28C27 26.3431 25.6569 25 24 25C22.3431 25 21 26.3431 21 28C21 29.6569 22.3431 31 24 31ZM24 31L24.0214 30.9998L20.8287 34.1926L18.0002 31.3641L21.0197 28.3447M24 31L27.1928 34.1926L30.0212 31.3641L27.0018 28.3447M21 18H27M19 21.5H29" stroke="#1E3A8A" stroke-width="2" stroke-linecap="round" stroke-linejoin="round"/>
</svg>
