<svg width="120" height="118" viewBox="0 0 120 118" fill="none" xmlns="http://www.w3.org/2000/svg">
<path d="M4.99238 9.98462C7.74956 9.98462 9.98458 7.74948 9.98458 4.99231C9.98458 2.23513 7.74956 0 4.99238 0C2.23521 0 0 2.23513 0 4.99231C0 7.74948 2.23521 9.98462 4.99238 9.98462Z" fill="#93C5FD"/>
<path d="M26.8152 9.98462C29.5724 9.98462 31.8076 7.74948 31.8076 4.99231C31.8076 2.23513 29.5724 0 26.8152 0C24.058 0 21.823 2.23513 21.823 4.99231C21.823 7.74948 24.058 9.98462 26.8152 9.98462Z" fill="#93C5FD"/>
<path d="M48.6372 9.98462C51.3943 9.98462 53.6294 7.74948 53.6294 4.99231C53.6294 2.23513 51.3943 0 48.6372 0C45.88 0 43.6448 2.23513 43.6448 4.99231C43.6448 7.74948 45.88 9.98462 48.6372 9.98462Z" fill="#93C5FD"/>
<path d="M70.4973 9.98462C73.2545 9.98462 75.4897 7.74948 75.4897 4.99231C75.4897 2.23513 73.2545 0 70.4973 0C67.7401 0 65.5051 2.23513 65.5051 4.99231C65.5051 7.74948 67.7401 9.98462 70.4973 9.98462Z" fill="#93C5FD"/>
<path d="M92.3204 9.98462C95.0776 9.98462 97.3126 7.74948 97.3126 4.99231C97.3126 2.23513 95.0776 0 92.3204 0C89.5632 0 87.328 2.23513 87.328 4.99231C87.328 7.74948 89.5632 9.98462 92.3204 9.98462Z" fill="#93C5FD"/>
<path d="M114.18 9.98462C116.937 9.98462 119.172 7.74948 119.172 4.99231C119.172 2.23513 116.937 0 114.18 0C111.423 0 109.188 2.23513 109.188 4.99231C109.188 7.74948 111.423 9.98462 114.18 9.98462Z" fill="#93C5FD"/>
<path d="M4.9925 27.9871C7.74968 27.9871 9.9847 25.7519 9.9847 22.9948C9.9847 20.2376 7.74968 18.0024 4.9925 18.0024C2.23533 18.0024 0.00012207 20.2376 0.00012207 22.9948C0.00012207 25.7519 2.23533 27.9871 4.9925 27.9871Z" fill="#93C5FD"/>
<path d="M26.8152 27.9871C29.5724 27.9871 31.8076 25.7519 31.8076 22.9948C31.8076 20.2376 29.5724 18.0024 26.8152 18.0024C24.058 18.0024 21.823 20.2376 21.823 22.9948C21.823 25.7519 24.058 27.9871 26.8152 27.9871Z" fill="#93C5FD"/>
<path d="M48.6372 27.9871C51.3943 27.9871 53.6294 25.7519 53.6294 22.9948C53.6294 20.2376 51.3943 18.0024 48.6372 18.0024C45.88 18.0024 43.6448 20.2376 43.6448 22.9948C43.6448 25.7519 45.88 27.9871 48.6372 27.9871Z" fill="#93C5FD"/>
<path d="M70.4973 27.9871C73.2545 27.9871 75.4897 25.7519 75.4897 22.9948C75.4897 20.2376 73.2545 18.0024 70.4973 18.0024C67.7401 18.0024 65.5051 20.2376 65.5051 22.9948C65.5051 25.7519 67.7401 27.9871 70.4973 27.9871Z" fill="#93C5FD"/>
<path d="M92.3204 27.9871C95.0776 27.9871 97.3126 25.7519 97.3126 22.9948C97.3126 20.2376 95.0776 18.0024 92.3204 18.0024C89.5632 18.0024 87.328 20.2376 87.328 22.9948C87.328 25.7519 89.5632 27.9871 92.3204 27.9871Z" fill="#93C5FD"/>
<path d="M114.18 27.9871C116.937 27.9871 119.172 25.7519 119.172 22.9948C119.172 20.2376 116.937 18.0024 114.18 18.0024C111.423 18.0024 109.188 20.2376 109.188 22.9948C109.188 25.7519 111.423 27.9871 114.18 27.9871Z" fill="#93C5FD"/>
<path d="M4.9925 45.9895C7.74968 45.9895 9.9847 43.7544 9.9847 40.9972C9.9847 38.24 7.74968 36.0049 4.9925 36.0049C2.23533 36.0049 0.00012207 38.24 0.00012207 40.9972C0.00012207 43.7544 2.23533 45.9895 4.9925 45.9895Z" fill="#93C5FD"/>
<path d="M26.8152 45.9895C29.5724 45.9895 31.8076 43.7544 31.8076 40.9972C31.8076 38.24 29.5724 36.0049 26.8152 36.0049C24.058 36.0049 21.823 38.24 21.823 40.9972C21.823 43.7544 24.058 45.9895 26.8152 45.9895Z" fill="#93C5FD"/>
<path d="M48.6372 45.9895C51.3943 45.9895 53.6294 43.7544 53.6294 40.9972C53.6294 38.24 51.3943 36.0049 48.6372 36.0049C45.88 36.0049 43.6448 38.24 43.6448 40.9972C43.6448 43.7544 45.88 45.9895 48.6372 45.9895Z" fill="#93C5FD"/>
<path d="M70.4973 45.9895C73.2545 45.9895 75.4897 43.7544 75.4897 40.9972C75.4897 38.24 73.2545 36.0049 70.4973 36.0049C67.7401 36.0049 65.5051 38.24 65.5051 40.9972C65.5051 43.7544 67.7401 45.9895 70.4973 45.9895Z" fill="#93C5FD"/>
<path d="M92.3204 45.9895C95.0776 45.9895 97.3126 43.7544 97.3126 40.9972C97.3126 38.24 95.0776 36.0049 92.3204 36.0049C89.5632 36.0049 87.328 38.24 87.328 40.9972C87.328 43.7544 89.5632 45.9895 92.3204 45.9895Z" fill="#93C5FD"/>
<path d="M114.18 45.9895C116.937 45.9895 119.172 43.7544 119.172 40.9972C119.172 38.24 116.937 36.0049 114.18 36.0049C111.423 36.0049 109.188 38.24 109.188 40.9972C109.188 43.7544 111.423 45.9895 114.18 45.9895Z" fill="#93C5FD"/>
<path d="M4.9925 63.9924C7.74968 63.9924 9.9847 61.7573 9.9847 59.0001C9.9847 56.2429 7.74968 54.0078 4.9925 54.0078C2.23533 54.0078 0.00012207 56.2429 0.00012207 59.0001C0.00012207 61.7573 2.23533 63.9924 4.9925 63.9924Z" fill="#93C5FD"/>
<path d="M26.8152 63.9924C29.5724 63.9924 31.8076 61.7573 31.8076 59.0001C31.8076 56.2429 29.5724 54.0078 26.8152 54.0078C24.058 54.0078 21.823 56.2429 21.823 59.0001C21.823 61.7573 24.058 63.9924 26.8152 63.9924Z" fill="#93C5FD"/>
<path d="M48.6372 63.9924C51.3943 63.9924 53.6294 61.7573 53.6294 59.0001C53.6294 56.2429 51.3943 54.0078 48.6372 54.0078C45.88 54.0078 43.6448 56.2429 43.6448 59.0001C43.6448 61.7573 45.88 63.9924 48.6372 63.9924Z" fill="#93C5FD"/>
<path d="M70.4973 63.9924C73.2545 63.9924 75.4897 61.7573 75.4897 59.0001C75.4897 56.2429 73.2545 54.0078 70.4973 54.0078C67.7401 54.0078 65.5051 56.2429 65.5051 59.0001C65.5051 61.7573 67.7401 63.9924 70.4973 63.9924Z" fill="#93C5FD"/>
<path d="M92.3204 63.9924C95.0776 63.9924 97.3126 61.7573 97.3126 59.0001C97.3126 56.2429 95.0776 54.0078 92.3204 54.0078C89.5632 54.0078 87.328 56.2429 87.328 59.0001C87.328 61.7573 89.5632 63.9924 92.3204 63.9924Z" fill="#93C5FD"/>
<path d="M114.18 63.9924C116.937 63.9924 119.172 61.7573 119.172 59.0001C119.172 56.2429 116.937 54.0078 114.18 54.0078C111.423 54.0078 109.188 56.2429 109.188 59.0001C109.188 61.7573 111.423 63.9924 114.18 63.9924Z" fill="#93C5FD"/>
<path d="M4.9925 81.9949C7.74968 81.9949 9.9847 79.7597 9.9847 77.0026C9.9847 74.2454 7.74968 72.0103 4.9925 72.0103C2.23533 72.0103 0.00012207 74.2454 0.00012207 77.0026C0.00012207 79.7597 2.23533 81.9949 4.9925 81.9949Z" fill="#93C5FD"/>
<path d="M26.8152 81.9949C29.5724 81.9949 31.8076 79.7597 31.8076 77.0026C31.8076 74.2454 29.5724 72.0103 26.8152 72.0103C24.058 72.0103 21.823 74.2454 21.823 77.0026C21.823 79.7597 24.058 81.9949 26.8152 81.9949Z" fill="#93C5FD"/>
<path d="M48.6372 81.9949C51.3943 81.9949 53.6294 79.7597 53.6294 77.0026C53.6294 74.2454 51.3943 72.0103 48.6372 72.0103C45.88 72.0103 43.6448 74.2454 43.6448 77.0026C43.6448 79.7597 45.88 81.9949 48.6372 81.9949Z" fill="#93C5FD"/>
<path d="M70.4973 81.9949C73.2545 81.9949 75.4897 79.7597 75.4897 77.0026C75.4897 74.2454 73.2545 72.0103 70.4973 72.0103C67.7401 72.0103 65.5051 74.2454 65.5051 77.0026C65.5051 79.7597 67.7401 81.9949 70.4973 81.9949Z" fill="#93C5FD"/>
<path d="M92.3204 81.9949C95.0776 81.9949 97.3126 79.7597 97.3126 77.0026C97.3126 74.2454 95.0776 72.0103 92.3204 72.0103C89.5632 72.0103 87.328 74.2454 87.328 77.0026C87.328 79.7597 89.5632 81.9949 92.3204 81.9949Z" fill="#93C5FD"/>
<path d="M114.18 81.9949C116.937 81.9949 119.172 79.7597 119.172 77.0026C119.172 74.2454 116.937 72.0103 114.18 72.0103C111.423 72.0103 109.188 74.2454 109.188 77.0026C109.188 79.7597 111.423 81.9949 114.18 81.9949Z" fill="#93C5FD"/>
<path d="M4.9925 99.9973C7.74968 99.9973 9.9847 97.7622 9.9847 95.005C9.9847 92.2478 7.74968 90.0127 4.9925 90.0127C2.23533 90.0127 0.00012207 92.2478 0.00012207 95.005C0.00012207 97.7622 2.23533 99.9973 4.9925 99.9973Z" fill="#93C5FD"/>
<path d="M26.8152 99.9973C29.5724 99.9973 31.8076 97.7622 31.8076 95.005C31.8076 92.2478 29.5724 90.0127 26.8152 90.0127C24.058 90.0127 21.823 92.2478 21.823 95.005C21.823 97.7622 24.058 99.9973 26.8152 99.9973Z" fill="#93C5FD"/>
<path d="M48.6372 99.9973C51.3943 99.9973 53.6294 97.7622 53.6294 95.005C53.6294 92.2478 51.3943 90.0127 48.6372 90.0127C45.88 90.0127 43.6448 92.2478 43.6448 95.005C43.6448 97.7622 45.88 99.9973 48.6372 99.9973Z" fill="#93C5FD"/>
<path d="M70.4973 99.9973C73.2545 99.9973 75.4897 97.7622 75.4897 95.005C75.4897 92.2478 73.2545 90.0127 70.4973 90.0127C67.7401 90.0127 65.5051 92.2478 65.5051 95.005C65.5051 97.7622 67.7401 99.9973 70.4973 99.9973Z" fill="#93C5FD"/>
<path d="M92.3204 99.9973C95.0776 99.9973 97.3126 97.7622 97.3126 95.005C97.3126 92.2478 95.0776 90.0127 92.3204 90.0127C89.5632 90.0127 87.328 92.2478 87.328 95.005C87.328 97.7622 89.5632 99.9973 92.3204 99.9973Z" fill="#93C5FD"/>
<path d="M114.18 99.9973C116.937 99.9973 119.172 97.7622 119.172 95.005C119.172 92.2478 116.937 90.0127 114.18 90.0127C111.423 90.0127 109.188 92.2478 109.188 95.005C109.188 97.7622 111.423 99.9973 114.18 99.9973Z" fill="#93C5FD"/>
<path d="M4.9925 118C7.74968 118 9.9847 115.765 9.9847 113.008C9.9847 110.251 7.74968 108.016 4.9925 108.016C2.23533 108.016 0.00012207 110.251 0.00012207 113.008C0.00012207 115.765 2.23533 118 4.9925 118Z" fill="#93C5FD"/>
<path d="M26.8152 118C29.5724 118 31.8076 115.765 31.8076 113.008C31.8076 110.251 29.5724 108.016 26.8152 108.016C24.058 108.016 21.823 110.251 21.823 113.008C21.823 115.765 24.058 118 26.8152 118Z" fill="#93C5FD"/>
<path d="M48.6372 118C51.3943 118 53.6294 115.765 53.6294 113.008C53.6294 110.251 51.3943 108.016 48.6372 108.016C45.88 108.016 43.6448 110.251 43.6448 113.008C43.6448 115.765 45.88 118 48.6372 118Z" fill="#93C5FD"/>
<path d="M70.4973 118C73.2545 118 75.4897 115.765 75.4897 113.008C75.4897 110.251 73.2545 108.016 70.4973 108.016C67.7401 108.016 65.5051 110.251 65.5051 113.008C65.5051 115.765 67.7401 118 70.4973 118Z" fill="#93C5FD"/>
<path d="M92.3204 118C95.0776 118 97.3126 115.765 97.3126 113.008C97.3126 110.251 95.0776 108.016 92.3204 108.016C89.5632 108.016 87.328 110.251 87.328 113.008C87.328 115.765 89.5632 118 92.3204 118Z" fill="#93C5FD"/>
<path d="M114.18 118C116.937 118 119.172 115.765 119.172 113.008C119.172 110.251 116.937 108.016 114.18 108.016C111.423 108.016 109.188 110.251 109.188 113.008C109.188 115.765 111.423 118 114.18 118Z" fill="#93C5FD"/>
</svg>
