<svg width="29" height="30" viewBox="0 0 29 30" fill="none" xmlns="http://www.w3.org/2000/svg">
<path opacity="0.5" d="M12.8972 7.03583C14.9386 6.37106 16.8418 5.32768 18.5077 3.95412C21.0972 1.75291 24.5499 0.872421 26.7078 7.03583C28.8657 13.1992 30.1605 24.2053 20.6657 27.7273C11.1708 31.2492 5.12867 27.7273 2.10759 22.0041C-0.913494 16.2809 -0.481911 10.5578 5.12867 8.7968C10.7392 7.03583 11.6024 7.47607 12.8972 7.03583Z" fill="#E4A529"/>
<path fill-rule="evenodd" clip-rule="evenodd" d="M23.792 18.8205C23.792 18.8205 23.7919 18.8205 23.7919 18.8205C23.7917 18.8203 23.7915 18.8201 23.7914 18.82L18.0347 6.57948V0.912987C18.0347 0.817646 18.0159 0.723243 17.9795 0.63516C17.9658 0.602129 17.9497 0.570229 17.9314 0.539702C17.9309 0.538907 17.9305 0.538116 17.93 0.537322C17.8998 0.487357 17.8636 0.4411 17.8221 0.399623C17.7799 0.357488 17.7329 0.320797 17.682 0.290296C17.6794 0.288738 17.6768 0.287198 17.6742 0.285673C17.6461 0.269278 17.6168 0.254759 17.5866 0.242242C17.4985 0.205757 17.4041 0.186981 17.3087 0.186981H11.4789C11.3585 0.186981 11.2413 0.21686 11.137 0.272509C11.1291 0.276748 11.1212 0.281136 11.1134 0.285673C11.0599 0.316867 11.0101 0.355048 10.9655 0.399623C10.923 0.442171 10.8862 0.489456 10.8559 0.540239C10.854 0.543336 10.8522 0.546444 10.8504 0.549567C10.787 0.659094 10.7529 0.784279 10.7529 0.912987V6.58068L4.98715 18.8212C4.93434 18.9321 4.91055 19.0545 4.91795 19.1771C4.91852 19.1866 4.91927 19.196 4.92021 19.2054C4.92093 19.2126 4.92175 19.2198 4.92268 19.227C4.92297 19.2292 4.92326 19.2313 4.92357 19.2335C4.92385 19.2356 4.92414 19.2376 4.92444 19.2396C4.93926 19.3398 4.97495 19.4361 5.02946 19.5221C5.08701 19.6129 5.16389 19.6896 5.25437 19.7468C5.25921 19.7499 5.26408 19.7529 5.26898 19.7558C5.27075 19.7569 5.27251 19.7579 5.27428 19.759C5.28078 19.7628 5.28734 19.7665 5.29397 19.7702C5.40169 19.8291 5.52259 19.8598 5.6454 19.8594H23.1362C23.2589 19.8595 23.3797 19.8286 23.4873 19.7693C23.4908 19.7674 23.4943 19.7654 23.4978 19.7634C23.5022 19.7609 23.5065 19.7584 23.5107 19.7558C23.608 19.6974 23.6904 19.617 23.7511 19.5208C23.8084 19.4299 23.8448 19.3277 23.8578 19.2214C23.8596 19.2062 23.861 19.191 23.8619 19.1756C23.862 19.1736 23.8621 19.1716 23.8622 19.1697C23.8623 19.1678 23.8624 19.166 23.8625 19.1642C23.8632 19.1469 23.8633 19.1297 23.8628 19.1125C23.8628 19.111 23.8627 19.1094 23.8627 19.1078C23.8618 19.0846 23.8599 19.0614 23.8569 19.0384C23.847 18.9633 23.8253 18.8899 23.7924 18.821C23.7923 18.8206 23.7921 18.8203 23.792 18.82V18.8205ZM12.2037 6.74162C12.2029 6.84938 12.1781 6.95561 12.1311 7.0526L10.5641 10.3898H18.2162L16.6493 7.05138C16.6023 6.9544 16.5775 6.84817 16.5767 6.74041V1.63899H12.2037V6.74162ZM9.88045 11.843L6.79371 18.4025H21.9879L18.9011 11.843H9.88045Z" fill="#1F2430"/>
</svg>
