<svg width="50" height="51" viewBox="0 0 50 51" fill="none" xmlns="http://www.w3.org/2000/svg">
<circle cx="25" cy="25.726" r="25" fill="#FEE1D4"/>
<path d="M35.9156 35.5095L31.5325 26.1454L29.2285 21.2087V14.5747C29.2285 14.1079 28.8492 13.726 28.3856 13.726H21.6142C21.1506 13.726 20.7713 14.1079 20.7713 14.5747V21.1946L18.4674 26.1454L14.0842 35.5095C13.8875 35.9338 14.0561 36.4431 14.4776 36.6411C14.59 36.6977 14.7164 36.726 14.8428 36.726H35.143C35.6066 36.726 35.9859 36.344 35.9859 35.8772C35.9999 35.7499 35.9718 35.6226 35.9156 35.5095ZM22.3728 21.7462C22.429 21.6331 22.4571 21.5199 22.4571 21.3926V15.4234H27.5287V21.3926C27.5287 21.5199 27.5568 21.6472 27.6129 21.7604L29.4252 25.6645H20.5606L22.3728 21.7462ZM16.1774 35.0144L19.7598 27.3477H30.226L33.8083 35.0144H16.1774Z" fill="#1F2430"/>
</svg>
