<svg xmlns="http://www.w3.org/2000/svg" width="19" height="17.014" viewBox="0 0 19 17.014">
  <path id="heart" d="M9,16.014a1.056,1.056,0,0,1-.7-.261c-.727-.636-1.428-1.233-2.047-1.76l0,0A38.067,38.067,0,0,1,1.785,9.795,6.7,6.7,0,0,1,0,5.41,5.626,5.626,0,0,1,1.428,1.567,4.84,4.84,0,0,1,5.028,0,4.528,4.528,0,0,1,7.857.976,5.786,5.786,0,0,1,9,2.17,5.787,5.787,0,0,1,10.144.976,4.528,4.528,0,0,1,12.972,0a4.841,4.841,0,0,1,3.6,1.567,5.67,5.67,0,0,1,1.062,1.748A5.587,5.587,0,0,1,18,5.41a6.7,6.7,0,0,1-1.785,4.385,38.058,38.058,0,0,1-4.469,4.194c-.62.528-1.322,1.126-2.051,1.764A1.056,1.056,0,0,1,9,16.014Z" transform="translate(0.5 0.5)" fill="#2aa0d1" stroke="#fff" stroke-width="1"/>
</svg>
