<svg xmlns="http://www.w3.org/2000/svg" width="60" height="55" viewBox="0 0 60 55">
  <g id="Group_3729" data-name="Group 3729" transform="translate(-18743 6014)">
    <rect id="Rectangle_2701" data-name="Rectangle 2701" width="60" height="55" transform="translate(18743 -6014)" fill="none"/>
    <g id="select" transform="translate(18700.668 -6010)">
      <g id="Group_3688" data-name="Group 3688" transform="translate(53.333)">
        <path id="Path_4018" data-name="Path 4018" d="M86.626,13.709a3.9,3.9,0,0,0-2.178.662,3.917,3.917,0,0,0-5.875-1.958,3.927,3.927,0,0,0-3.7-2.62,3.885,3.885,0,0,0-1.958.527v-6.4a3.917,3.917,0,0,0-7.834,0v22.9L59.7,24.12a5.9,5.9,0,0,0-2.626-.619,3.749,3.749,0,0,0-2.644,6.4L67.093,42.562A15.057,15.057,0,0,0,77.813,47a12.744,12.744,0,0,0,12.73-12.73V17.626A3.921,3.921,0,0,0,86.626,13.709Zm1.958,20.563A10.784,10.784,0,0,1,77.811,45.043a13.1,13.1,0,0,1-9.332-3.868L55.814,28.512a1.789,1.789,0,0,1,1.259-3.053,3.94,3.94,0,0,1,1.751.413l6.8,3.4a.979.979,0,0,0,1.416-.875V3.917a1.958,1.958,0,1,1,3.917,0v18.6a.979.979,0,0,0,1.958,0V13.709a1.958,1.958,0,1,1,3.917,0v8.813a.979.979,0,0,0,1.958,0V15.667a1.958,1.958,0,1,1,3.917,0v6.854a.979.979,0,0,0,1.958,0v-4.9a1.958,1.958,0,1,1,3.917,0Z" transform="translate(-53.333)" fill="#1f2430"/>
      </g>
    </g>
  </g>
</svg>
