<svg xmlns="http://www.w3.org/2000/svg" width="60" height="55" viewBox="0 0 60 55">
  <g id="Group_3729" data-name="Group 3729" transform="translate(-19142 6017)">
    <rect id="Rectangle_2701" data-name="Rectangle 2701" width="60" height="55" transform="translate(19142 -6017)" fill="none"/>
    <g id="Page-1" transform="translate(19141.998 -6016.999)">
      <g id="_087---Money-Percentage" data-name="087---Money-Percentage" transform="translate(0 -1)">
        <path id="Shape" d="M44,23a15.92,15.92,0,0,0-10.762,4.2,4.993,4.993,0,1,0-4.893,8.5A16,16,0,1,0,44,23ZM27,31a2.986,2.986,0,0,1,4.831-2.362,15.985,15.985,0,0,0-2.937,5.136A2.98,2.98,0,0,1,27,31ZM44,53A14,14,0,1,1,58,39,14,14,0,0,1,44,53Z" fill="#1f2430"/>
        <path id="Shape-2" data-name="Shape" d="M53.207,23.508a1,1,0,0,0,1.411-.085,13.494,13.494,0,0,0-16.7-20.706,1,1,0,1,0,.975,1.746A11.493,11.493,0,0,1,53.122,22.1a1,1,0,0,0,.085,1.408Z" fill="#1f2430"/>
        <path id="Shape-3" data-name="Shape" d="M48,34.5a1,1,0,0,0,2,0,5.67,5.67,0,0,0-5-5.417V29a1,1,0,0,0-2,0v.083A5.67,5.67,0,0,0,38,34.5a5.67,5.67,0,0,0,5,5.417v6.959A3.62,3.62,0,0,1,40,43.5a1,1,0,0,0-2,0,5.67,5.67,0,0,0,5,5.417V49a1,1,0,0,0,2,0v-.083a5.434,5.434,0,0,0,0-10.834V31.124A3.62,3.62,0,0,1,48,34.5Zm-8,0a3.62,3.62,0,0,1,3-3.376v6.752A3.62,3.62,0,0,1,40,34.5Zm8,9a3.62,3.62,0,0,1-3,3.376V40.124A3.62,3.62,0,0,1,48,43.5Z" fill="#1f2430"/>
        <path id="Shape-4" data-name="Shape" d="M23.5,49a23.77,23.77,0,0,0,3.779-.3,1,1,0,1,0-.318-1.974A21.91,21.91,0,0,1,23.5,47,21.5,21.5,0,0,1,6.862,11.885a1,1,0,0,0-1.545-1.27A23.5,23.5,0,0,0,23.5,49Z" fill="#1f2430"/>
        <path id="Shape-5" data-name="Shape" d="M44.359,20.29a1,1,0,0,0,.97.76,1.045,1.045,0,0,0,.241-.029,1,1,0,0,0,.73-1.211A23.5,23.5,0,0,0,9.4,6.7a1,1,0,0,0,1.2,1.6A21.5,21.5,0,0,1,44.359,20.29Z" fill="#1f2430"/>
        <path id="Shape-6" data-name="Shape" d="M13.293,35.707a1,1,0,0,0,1.414,0l20-20a1,1,0,0,0-1.414-1.414l-20,20a1,1,0,0,0,0,1.414Z" fill="#1f2430"/>
        <path id="Shape-7" data-name="Shape" d="M18,24a5,5,0,1,0-5-5A5,5,0,0,0,18,24Zm0-8a3,3,0,1,1-3,3A3,3,0,0,1,18,16Z" fill="#1f2430"/>
      </g>
    </g>
  </g>
</svg>
