<svg xmlns="http://www.w3.org/2000/svg" width="60" height="55" viewBox="0 0 60 55">
  <g id="Group_3730" data-name="Group 3730" transform="translate(-18870 6018)">
    <rect id="Rectangle_2701" data-name="Rectangle 2701" width="60" height="55" transform="translate(18870 -6018)" fill="none"/>
    <g id="Group_3729" data-name="Group 3729" transform="translate(-2882 -1506)">
      <path id="Path_4017" data-name="Path 4017" d="M49.1,4H4.07A3.07,3.07,0,0,0,1,7.07V45.956a3.07,3.07,0,0,0,3.07,3.07H49.1a3.07,3.07,0,0,0,3.07-3.07V7.07A3.07,3.07,0,0,0,49.1,4ZM4.07,6.047H49.1A1.023,1.023,0,0,1,50.119,7.07v3.07H3.047V7.07A1.023,1.023,0,0,1,4.07,6.047Zm7.879,25.071A3.582,3.582,0,1,1,15.531,34.7a3.582,3.582,0,0,1-3.582-3.582Zm9.926,15.861H9.186V43.09a6.344,6.344,0,0,1,12.689,0Zm27.22,0H23.922V43.09a8.391,8.391,0,0,0-4.856-7.6,5.628,5.628,0,1,0-7.07,0,8.391,8.391,0,0,0-4.857,7.6v3.889H4.07a1.023,1.023,0,0,1-1.023-1.023V12.186H50.119V45.956A1.023,1.023,0,0,1,49.1,46.979ZM45,25.489a1.023,1.023,0,0,1-1.023,1.023H28.629a1.023,1.023,0,1,1,0-2.047h15.35A1.023,1.023,0,0,1,45,25.489Zm0-5.117A1.023,1.023,0,0,1,43.979,21.4H28.629a1.023,1.023,0,1,1,0-2.047h15.35A1.023,1.023,0,0,1,45,20.373Zm0,10.233a1.023,1.023,0,0,1-1.023,1.023H28.629a1.023,1.023,0,1,1,0-2.047h15.35A1.023,1.023,0,0,1,45,30.606ZM34.769,35.722a1.023,1.023,0,0,1-1.023,1.023H28.629a1.023,1.023,0,1,1,0-2.047h5.117A1.023,1.023,0,0,1,34.769,35.722Zm10.233,0a1.023,1.023,0,0,1-1.023,1.023H38.862a1.023,1.023,0,1,1,0-2.047h5.117A1.023,1.023,0,0,1,45,35.722Z" transform="translate(21755 -4511)" fill="#1f2430"/>
    </g>
  </g>
</svg>
