<svg xmlns="http://www.w3.org/2000/svg" width="60" height="55.859" viewBox="0 0 60 55.859">
  <g id="Group_3729" data-name="Group 3729" transform="translate(-19006 6029)">
    <rect id="Rectangle_2701" data-name="Rectangle 2701" width="60" height="55" transform="translate(19006 -6029)" fill="none"/>
    <g id="Page-1" transform="translate(19008.576 -6028)">
      <g id="_026---Idea" data-name="026---Idea" transform="translate(0.424)">
        <path id="Shape" d="M51.3,29.089A1.854,1.854,0,0,0,49.477,27.6h-1.8l-.132-.782A1.858,1.858,0,0,0,46,25.293c-.177-.028-.355-.046-.531-.07a5.548,5.548,0,0,0-.707-4.1,3.72,3.72,0,0,0-.2-3.143A3.8,3.8,0,0,0,42,16.1a7.887,7.887,0,0,0-7.729-6.382c-.093,0-.176.012-.264.015a3.81,3.81,0,0,0-5.786-.711,6.44,6.44,0,0,0-8.547,1.451,4.677,4.677,0,0,0-3.96.65,4.564,4.564,0,0,0-1.959,3.463,3.781,3.781,0,0,0-2.344,3.484,3.694,3.694,0,0,0,.093.784,7.32,7.32,0,0,0-.892,6.34c-.249.034-.5.064-.744.1A1.86,1.86,0,0,0,8.3,26.81l-.132.785h-1.8a1.854,1.854,0,0,0-1.824,1.488L.475,49.739a2.732,2.732,0,0,0,.588,2.281,2.8,2.8,0,0,0,2.156,1h19.39c.77,1.255,3.109,1.838,5.315,1.838,2.182,0,4.5-.569,5.292-1.838H52.629a2.8,2.8,0,0,0,2.156-1,2.732,2.732,0,0,0,.588-2.28Zm-37.079-9.36a1.93,1.93,0,0,1-.881-2.178,1.96,1.96,0,0,1,1.886-1.425,1.936,1.936,0,0,1,1.561.779.935.935,0,0,0,1.6-.182.91.91,0,0,0-.107-.913,3.767,3.767,0,0,0-2.637-1.47A2.819,2.819,0,0,1,18.4,12.128a2.932,2.932,0,0,1,.338.037,5.986,5.986,0,0,0-.2.575.918.918,0,0,0,.673,1.1.931.931,0,0,0,1.127-.64,4.439,4.439,0,0,1,.483-1.15A4.6,4.6,0,0,1,24.75,9.838a4.555,4.555,0,0,1,2.463.735,3.7,3.7,0,0,0-.219,1.2.93.93,0,0,0,1.86,0,1.956,1.956,0,0,1,3.912,0,.93.93,0,0,0,1.86,0c0-.071-.018-.138-.021-.209a6.016,6.016,0,0,1,5.506,4.6,3.791,3.791,0,0,0-1.2.593.914.914,0,0,0,.193,1.58.939.939,0,0,0,.923-.11,1.978,1.978,0,0,1,2.463.1,1.921,1.921,0,0,1,.412,2.4,1.974,1.974,0,0,1-.881.8.916.916,0,0,0-.5,1.028.924.924,0,0,0,1.292.63,3.826,3.826,0,0,0,.695-.429,3.889,3.889,0,0,1-.787,3.919l-.022.023a4.05,4.05,0,0,1-4.742.86,3.7,3.7,0,0,1-.45-.277,3.1,3.1,0,0,0,.245-3.234.936.936,0,0,0-1.609-.091.91.91,0,0,0-.053.918,1.358,1.358,0,0,1-.448,1.732,1.417,1.417,0,0,1-1.124.189,1.4,1.4,0,0,1-.9-.7.936.936,0,0,0-1.608-.1.91.91,0,0,0-.056.917,3.221,3.221,0,0,0,4.064,1.544,5.507,5.507,0,0,0,1.09.735A5.79,5.79,0,0,0,41.4,29.6a5.937,5.937,0,0,1-3.829,2.32.918.918,0,0,0,.146,1.826,1,1,0,0,0,.148-.011,7.711,7.711,0,0,0,1.649-.476,8.165,8.165,0,0,1,.694,1.578.937.937,0,0,1,.048.3.991.991,0,0,1-.61.911,1.061,1.061,0,0,1-1.2-.319,5.94,5.94,0,0,0-2.722-1.787c-2.009-.665-2.785-1.26-3.114-1.906a9.02,9.02,0,0,0,1.425-.294.923.923,0,0,0,.633-.673.912.912,0,0,0-.273-.878.938.938,0,0,0-.906-.205,7.122,7.122,0,0,1-1.6.291,6.976,6.976,0,0,1-3.081-.459.937.937,0,0,0-1.042.256,4.015,4.015,0,0,1-5.34.6,3.9,3.9,0,0,1-1.081-5.2.912.912,0,0,0,.015-.922.938.938,0,0,0-1.615-.026,5.7,5.7,0,0,0-.532,1.182,1.386,1.386,0,0,1-1.321-1.354v-.023a.9.9,0,0,0-.274-.645.936.936,0,0,0-1.586.668,3.212,3.212,0,0,0,2.887,3.171,5.7,5.7,0,0,0,.085.919,5.721,5.721,0,0,1-5.582-1.912,5.562,5.562,0,0,1-.846-5.778,3.741,3.741,0,0,0,.692.545.936.936,0,0,0,1.266-.319.913.913,0,0,0-.307-1.255ZM10.132,27.11c.429-.062.871-.118,1.311-.175A7.547,7.547,0,0,0,19.6,30.2a5.863,5.863,0,0,0,9.123,1.528,9.023,9.023,0,0,0,1.941.347c.449,1.683,1.747,2.7,4.474,3.606a4.125,4.125,0,0,1,1.893,1.232,2.976,2.976,0,0,0,2.246,1.043,2.839,2.839,0,0,0,2.841-2.823,2.7,2.7,0,0,0-.141-.869,9.982,9.982,0,0,0-.822-1.87,7.739,7.739,0,0,0,3.09-4.669,5.757,5.757,0,0,0,.536-.741c.311.04.623.074.936.126l3.357,19.951a32.28,32.28,0,0,0-20.218,0v-11.5a.93.93,0,0,0-1.86,0V47.069a32.285,32.285,0,0,0-20.218-.007ZM2.495,50.845a.9.9,0,0,1-.2-.753L6.371,29.435H7.859L4.941,46.763a1.832,1.832,0,0,0,.621,1.687,1.883,1.883,0,0,0,1.779.366A31.464,31.464,0,0,1,22.7,47.853l-.277,3.331H3.219a.941.941,0,0,1-.724-.338Zm25.429,2.176c-2.24,0-3.525-.654-3.714-.945l.32-3.813a20.037,20.037,0,0,1,2.992.991.947.947,0,0,0,.4.092.933.933,0,0,0,.4-.092,19.969,19.969,0,0,1,2.991-1l.32,3.818c-.189.292-1.474.946-3.714.946Zm25.429-2.176a.941.941,0,0,1-.724.338h-19.2l-.279-3.337a31.473,31.473,0,0,1,15.364.971,1.882,1.882,0,0,0,1.775-.371,1.831,1.831,0,0,0,.616-1.686L47.991,29.436h1.488l4.073,20.654a.9.9,0,0,1-.2.754Z" transform="translate(-0.424 0)" fill="#1f2430"/>
        <path id="Shape-2" data-name="Shape" d="M26.686,22.685a1,1,0,0,0-.071,1.412,6.03,6.03,0,0,0,3.205,1.848A2.979,2.979,0,0,1,27.386,27.2a1,1,0,1,0,0,2,4.959,4.959,0,0,0,4.659-3.207,6.035,6.035,0,0,0,4.937-4.8,1,1,0,1,0-1.964-.376,3.986,3.986,0,0,1-1.656,2.539,4.082,4.082,0,0,1-5.264-.6,1,1,0,0,0-1.412-.071Z" transform="translate(-2.644 -1.663)" fill="#1f2430"/>
        <path id="Shape-3" data-name="Shape" d="M23.2,21.6a1,1,0,0,0,1-1A2.6,2.6,0,0,1,26.8,18a1,1,0,0,0,0-2,4.605,4.605,0,0,0-4.6,4.6,1,1,0,0,0,1,1Z" transform="translate(-2.112 -1.241)" fill="#1f2430"/>
        <path id="Shape-4" data-name="Shape" d="M31,2V1a1,1,0,0,0-2,0V2a1,1,0,0,0,2,0Z" transform="translate(-2.5)" fill="#1f2430"/>
        <path id="Shape-5" data-name="Shape" d="M46.41,7.176l-1,1A1,1,0,1,0,46.824,9.59l1-1A1,1,0,1,0,46.41,7.176Z" transform="translate(-3.729 0)" fill="#1f2430"/>
        <path id="Shape-6" data-name="Shape" d="M13.883,9.883a1,1,0,0,0,.707-1.707l-1-1A1,1,0,1,0,12.176,8.59l1,1a1,1,0,0,0,.707.293Z" transform="translate(-1.271 0)" fill="#1f2430"/>
        <path id="Shape-7" data-name="Shape" d="M21.581,5.675a1.014,1.014,0,0,0,.383-.076,1,1,0,0,0,.541-1.307L21.356,1.52a1,1,0,1,0-1.847.766l1.148,2.772a1,1,0,0,0,.924.617Z" transform="translate(-1.833 0)" fill="#1f2430"/>
        <path id="Shape-8" data-name="Shape" d="M39.95.979a1,1,0,0,0-1.306.541L37.5,4.292A1,1,0,0,0,38.036,5.6a1.014,1.014,0,0,0,.383.076,1,1,0,0,0,.924-.617l1.148-2.772A1,1,0,0,0,39.95.979Z" transform="translate(-3.167 0)" fill="#1f2430"/>
        <path id="Shape-9" data-name="Shape" d="M50.325,17.582a1,1,0,0,0,.383-.077l2.771-1.148a1,1,0,0,0-.765-1.848l-2.772,1.148a1,1,0,0,0,.383,1.925Z" transform="translate(-4.576 -1.07)" fill="#1f2430"/>
        <path id="Shape-10" data-name="Shape" d="M9.292,17.505a1,1,0,0,0,.766-1.848L7.286,14.509a1,1,0,1,0-.765,1.848Z" transform="translate(-0.424 -1.07)" fill="#1f2430"/>
      </g>
    </g>
  </g>
</svg>
