<svg xmlns="http://www.w3.org/2000/svg" width="55" height="55" viewBox="0 0 55 55">
  <g id="Group_5999" data-name="Group 5999" transform="translate(-91.824 0.034)">
    <g id="Group_3108" data-name="Group 3108">
      <circle id="Ellipse_8" data-name="Ellipse 8" cx="27.5" cy="27.5" r="27.5" transform="translate(91.824 -0.034)" fill="#0e76a8" opacity="0.1"/>
      <path id="Shape_5" data-name="Shape 5" d="M.372,18.758V6.206h3.84V18.758Zm14.421,0v-.576c0-1.913.018-3.827-.01-5.737a6.654,6.654,0,0,0-.235-1.728,1.787,1.787,0,0,0-1.833-1.339,1.792,1.792,0,0,0-1.947,1.313,6.88,6.88,0,0,0-.241,1.828c-.029,1.877-.011,3.757-.011,5.635v.595h-3.9V6.226h3.762V7.65l.125.075c.147-.174.281-.361.444-.52A4.548,4.548,0,0,1,15.925,6.19a3.961,3.961,0,0,1,2.7,3.872c.122,2.837.074,5.681.1,8.524a.663.663,0,0,1-.052.168ZM0,2.311A2.315,2.315,0,0,1,2.307,0,2.282,2.282,0,0,1,4.563,2.3,2.272,2.272,0,0,1,2.3,4.579H2.285A2.3,2.3,0,0,1,0,2.311Z" transform="translate(109.824 16.966)" fill="#0e76a8"/>
    </g>
  </g>
</svg>
