<svg xmlns="http://www.w3.org/2000/svg" width="60" height="60" viewBox="0 0 60 60">
  <g id="Group_8043" data-name="Group 8043" transform="translate(-256 -107)">
    <path id="Path_3271" data-name="Path 3271" d="M30,0A30,30,0,1,1,0,30,30,30,0,0,1,30,0Z" transform="translate(256 107)" opacity="0.4"/>
    <path id="Path_3273" data-name="Path 3273" d="M22,0A22,22,0,1,1,0,22,22,22,0,0,1,22,0Z" transform="translate(264 115)" opacity="0.4"/>
    <g id="Group_8032" data-name="Group 8032" transform="translate(195.564 -36.407)">
      <path id="Path_18958" data-name="Path 18958" d="M83.436,245.1a30.05,30.05,0,0,1,8.449-4.212,4.145,4.145,0,0,1,2.043-.078,1.215,1.215,0,0,1,1.026,1.564c-.429,2.228-1.185,4.367-1.8,6.544-.429,1.518-.892,3.026-1.2,4.574-.187.928.238,1.348,1.171,1.143a4.353,4.353,0,0,0,1.8-.843,1.245,1.245,0,0,1,1.793.072,30.063,30.063,0,0,1-5.469,3.4,12.067,12.067,0,0,1-3.642,1.182c-2.492.3-2.742-.736-2.464-2.417a29.611,29.611,0,0,1,1.755-5.675,24.1,24.1,0,0,0,1.339-4.411c.026-.146.049-.294.061-.441.091-1.082-.225-1.351-1.293-1.074a5.958,5.958,0,0,0-1.914.886.944.944,0,0,1-1.285,0A2.906,2.906,0,0,0,83.436,245.1Z" transform="translate(0 -71.311)" fill="#fff"/>
      <path id="Path_18959" data-name="Path 18959" d="M143.864,164.194a3.8,3.8,0,1,1-3.805-3.787A3.8,3.8,0,0,1,143.864,164.194Z" transform="translate(-46.905)" fill="#fff"/>
    </g>
  </g>
</svg>
