<svg xmlns="http://www.w3.org/2000/svg" width="468.516" height="297.334" viewBox="0 0 468.516 297.334">
  <g id="Group_2935" data-name="Group 2935" transform="translate(-6190.135 -4592)">
    <path id="Path_155" data-name="Path 155" d="M1488.591,609.636H1366.44c-90.9,0-105.3-16.97-137.069-70.572l-62.211-115.008A255.128,255.128,0,0,1,1133.646,314h-1.718a256.859,256.859,0,0,0,33.748,110.882L1227.9,539.9c15.689,26.479,27.43,44.678,46.884,55.958,18.991,10.994,45.54,15.475,91.661,15.475h122.151a256.919,256.919,0,0,0,111.852-25.7v-1.885A255.284,255.284,0,0,1,1488.591,609.636Z" transform="translate(5058.207 4278)" fill="#fff"/>
    <path id="Path_156" data-name="Path 156" d="M1439.668,495.979h-66.684a142.4,142.4,0,0,1-122.97-71l-33.347-57.754A141.63,141.63,0,0,1,1198.815,314h-1.707a143.384,143.384,0,0,0,18.082,54.081l33.347,57.754a144.112,144.112,0,0,0,124.448,71.842h66.684a144.154,144.154,0,0,0,111.852-53.51v-2.731A142.464,142.464,0,0,1,1439.668,495.979Z" transform="translate(5107.131 4278)" fill="#fff"/>
    <path id="Path_157" data-name="Path 157" d="M1444.836,314l-31.266,54.142a28.4,28.4,0,0,1-24.542,14.169h-66.684a28.41,28.41,0,0,1-24.541-14.169L1266.549,314h-1.975l31.754,55a30.127,30.127,0,0,0,26.017,15.024h66.684A30.114,30.114,0,0,0,1415.046,369l31.764-55Z" transform="translate(5157.77 4278)" fill="#fff"/>
  </g>
</svg>
