<svg xmlns="http://www.w3.org/2000/svg" width="55" height="55" viewBox="0 0 55 55">
  <g id="Group_6001" data-name="Group 6001" transform="translate(0.205 0.034)">
    <circle id="Ellipse_8" data-name="Ellipse 8" cx="27.5" cy="27.5" r="27.5" transform="translate(-0.205 -0.034)" opacity="0.1"/>
    <path id="Exclusion_2" data-name="Exclusion 2" d="M14.058,18.8H4.743A4.748,4.748,0,0,1,0,14.059V4.743A4.748,4.748,0,0,1,4.743,0h9.315A4.748,4.748,0,0,1,18.8,4.743v9.316A4.748,4.748,0,0,1,14.058,18.8ZM4.742,2.046a2.7,2.7,0,0,0-2.7,2.7v9.316a2.7,2.7,0,0,0,2.7,2.7h9.315a2.7,2.7,0,0,0,2.7-2.7V4.743a2.7,2.7,0,0,0-2.7-2.7ZM9.4,14.243A4.842,4.842,0,1,1,14.242,9.4,4.848,4.848,0,0,1,9.4,14.243ZM9.4,6.6a2.8,2.8,0,1,0,2.8,2.8A2.8,2.8,0,0,0,9.4,6.6Zm5-1.045a1.146,1.146,0,1,1,1.146-1.146A1.147,1.147,0,0,1,14.4,5.56Z" transform="translate(17.795 17.966)"/>
  </g>
</svg>
