<svg xmlns="http://www.w3.org/2000/svg" width="30" height="36.505" viewBox="0 0 30 36.505">
  <g id="invoice" transform="translate(-40.218 0)">
    <g id="Group_3723" data-name="Group 3723" transform="translate(40.218 0)">
      <g id="Group_3722" data-name="Group 3722" transform="translate(0 0)">
        <path id="Path_5870" data-name="Path 5870" d="M122.635,156.493H128.5a.916.916,0,0,0,0-1.833h-5.864a.916.916,0,0,0,0,1.833Z" transform="translate(-115.301 -142.204)" fill="#007cff"/>
        <path id="Path_5871" data-name="Path 5871" d="M134,222.579H122.635a.916.916,0,0,0,0,1.833H134a.916.916,0,0,0,0-1.833Z" transform="translate(-115.508 -204.653)" fill="#007cff"/>
        <path id="Path_5872" data-name="Path 5872" d="M134,290.5H122.635a.916.916,0,0,0,0,1.833H134a.916.916,0,0,0,0-1.833Z" transform="translate(-115.508 -267.101)" fill="#007cff"/>
        <path id="Path_5873" data-name="Path 5873" d="M70.215,29.829V3.212A3.084,3.084,0,0,0,67.261,0q-.107,0-.215,0H48.879a3.438,3.438,0,0,0-3.591,3.211V4.648H43.809a3.676,3.676,0,0,0-3.591,3.507V34.814A1.479,1.479,0,0,0,41.063,36a1.31,1.31,0,0,0,1.436-.254l2.577-2.324,3.084,2.746a1.268,1.268,0,0,0,.845.338,1.352,1.352,0,0,0,.845-.338l3.042-2.746,3.042,2.746a1.267,1.267,0,0,0,1.69,0l3.084-2.746,2.535,2.324A1.014,1.014,0,0,0,64.511,36a1.268,1.268,0,0,0,.634-1.183v-6l.507-.38,2.577,2.324a1.225,1.225,0,0,0,.887.338.76.76,0,0,0,.422-.085A1.225,1.225,0,0,0,70.215,29.829Zm-6.76,4.056-1.986-1.943a1.183,1.183,0,0,0-1.648-.042l-3.084,2.746-3-2.746a1.352,1.352,0,0,0-1.69,0l-3.042,2.746L45.922,31.9a1.394,1.394,0,0,0-1.817.042l-2.2,1.943V8.155a1.986,1.986,0,0,1,1.9-1.817H61.976a1.642,1.642,0,0,1,1.479,1.817Zm5.07-30.673V28.9l-2.112-1.943c-.338-.338-.422-.422-1.267-.3V8.155a3.327,3.327,0,0,0-3.169-3.507h-15V3.212a1.755,1.755,0,0,1,1.9-1.521H67.046a1.394,1.394,0,0,1,1.479,1.521Z" transform="translate(-40.218 0)" fill="#007cff"/>
      </g>
    </g>
  </g>
</svg>
