<svg width="42" height="42" viewBox="0 0 42 42" fill="none" xmlns="http://www.w3.org/2000/svg">
<mask id="mask0_3402_396" style="mask-type:alpha" maskUnits="userSpaceOnUse" x="0" y="0" width="42" height="42">
<rect width="42" height="42" fill="#D9D9D9"/>
</mask>
<g mask="url(#mask0_3402_396)">
<path d="M15.6727 38.9352C16.1807 38.956 16.6887 38.956 17.1864 38.9663H17.6114H17.9535C18.2335 38.9663 18.5237 38.9663 18.8555 38.956C19.1251 38.9456 19.3946 38.9456 19.6538 38.9456C20.0685 38.9456 20.4832 38.9352 20.9082 38.9145C21.1467 38.9041 21.3955 38.8938 21.634 38.8938C21.8931 38.8834 22.1627 38.8834 22.4322 38.8626L22.7225 38.8523C22.878 38.8419 23.0335 38.8419 23.1994 38.8315L23.8318 38.7901C24.3398 38.759 24.8686 38.7279 25.3869 38.676C25.9675 38.6242 26.4444 38.5724 26.8695 38.5205C27.5641 38.4376 28.1757 38.3339 28.7563 38.2199C29.7412 38.0436 30.7054 37.7844 31.6384 37.4527C32.1879 37.2557 32.7166 36.9965 33.2143 36.6855C33.4838 36.5196 33.7223 36.3019 33.9089 36.0531C34.0644 35.8561 34.1162 35.6073 34.054 35.3689C33.9504 35.0164 33.7015 34.7261 33.3802 34.5498L32.8618 34.2492L32.7581 34.8401C32.7374 34.9749 32.7581 35.12 32.8203 35.2444V35.2548C32.8618 35.3689 32.841 35.3896 32.8099 35.4207C32.7477 35.4829 32.6752 35.5347 32.6026 35.5762C32.2501 35.7732 31.8562 35.9183 31.4622 36.0116C30.4151 36.2708 29.3369 36.4574 28.2691 36.5715C27.533 36.6544 26.7451 36.727 25.7809 36.7995C25.0863 36.8514 24.3813 36.8929 23.6971 36.924H23.6037C23.1268 36.9447 22.6292 36.9758 22.1212 36.9862C21.2607 37.0173 20.535 37.038 19.7886 37.0587C19.405 37.0691 19.0006 37.0691 18.6274 37.0691C18.3371 37.0691 18.0469 37.0691 17.7566 37.0795H17.4663C16.7924 37.0795 16.0874 37.0484 15.2891 36.9965C15.0403 36.9758 14.7811 36.9551 14.5323 36.9343C14.3042 36.9136 14.0658 36.8929 13.8377 36.8721C13.4438 36.841 13.0291 36.7892 12.6351 36.7477L12.4485 36.727C11.8472 36.6544 11.3081 36.5715 10.8208 36.4782C10.4165 36.4056 10.0122 36.3019 9.6182 36.1671C9.5249 36.136 9.43159 36.0842 9.34865 36.0324C9.41086 35.9494 9.49379 35.8872 9.5871 35.8458C9.85665 35.7006 10.1262 35.5866 10.4165 35.5036C10.966 35.3378 11.5258 35.2133 12.096 35.12L12.407 35.0578L12.5418 35.0371L12.8632 34.9749L12.8839 34.6431C12.9046 34.4047 12.7284 34.187 12.4796 34.1662H12.4485L12.3655 34.1559C12.2722 34.1559 12.1686 34.1455 12.0649 34.1455V34.3529V34.1455C11.6295 34.1455 11.194 34.187 10.769 34.2492C9.91886 34.3632 9.08947 34.5498 8.28082 34.8194C7.70024 34.9853 7.15077 35.2652 6.66351 35.628C6.41469 35.8147 6.21771 36.0635 6.10367 36.3538L6 36.3849V37.0587L6.12441 37.1417C6.27992 37.4009 6.508 37.5978 6.78792 37.7222C7.16114 37.9089 7.56547 38.054 7.96979 38.1369C9.0169 38.3858 10.0847 38.5516 11.1629 38.6449C11.8886 38.7175 12.6144 38.7693 13.3401 38.8108C14.014 38.873 14.7604 38.9041 15.6727 38.9352Z" fill="#0074BD"/>
<path d="M35.431 36.4902H35.3895C35.3066 36.4902 35.2237 36.511 35.1511 36.5628L35.1407 36.5732C35.0785 36.6146 35.0059 36.6561 34.9437 36.7079C34.3217 37.1641 33.6478 37.527 32.9325 37.8173C31.8957 38.2216 30.8175 38.5326 29.7186 38.7399C28.9203 38.8955 28.0495 39.0302 27.0542 39.1443C26.3181 39.2272 25.665 39.2894 25.0533 39.3309C24.3898 39.3724 23.7055 39.4138 22.9695 39.4346C22.3785 39.4553 21.7772 39.4553 21.1863 39.4657H20.7301H20.6783C20.5642 39.4657 20.4502 39.4657 20.3258 39.4553L20.1392 39.4449C19.9111 39.4346 19.6934 39.4346 19.4653 39.4346C19.1854 39.4346 18.8847 39.4242 18.5944 39.4138C17.7858 39.3931 16.9564 39.3413 16.1581 39.3101L15.9093 39.2998C15.5983 39.279 15.2665 39.2583 14.8518 39.2272C14.4371 39.1961 14.0224 39.1546 13.6077 39.1235L13.39 39.1028L12.8613 39.051L12.4466 39.0095C12.3637 38.9991 12.2807 38.9991 12.1874 38.9888H12.1667C12.1045 38.9784 12.0526 38.968 11.9904 38.968C11.9386 38.968 11.8868 38.9784 11.8349 38.9888L11.2129 39.1339L11.6068 39.6419C11.7002 39.7559 11.8246 39.8389 11.9697 39.87H11.9801C12.7058 40.0877 13.4315 40.2639 14.1676 40.4091C15.2665 40.6164 16.3862 40.7616 17.5059 40.8549C18.2005 40.9067 18.8122 40.9482 19.372 40.9586L19.3927 41H22.9487L22.9695 40.9586C23.7263 40.9275 24.5453 40.8756 25.5302 40.803C26.2041 40.7512 26.8157 40.689 27.417 40.6164C28.2464 40.5128 29.0758 40.3987 29.8637 40.2536C30.6309 40.1188 31.3981 39.9322 32.1342 39.6937C32.9636 39.4346 33.7515 39.0613 34.4772 38.5844C34.8815 38.3253 35.2237 37.9935 35.5139 37.6203C35.6591 37.4337 35.7628 37.2056 35.8042 36.9775L35.8872 36.4902H35.431Z" fill="#0074BD"/>
<path d="M15.7938 17.1241C16.2189 17.912 16.7269 18.6585 17.2867 19.3427C18.0954 20.3691 18.987 21.3332 19.8267 22.2145C19.9615 22.3596 20.1066 22.4944 20.2414 22.6292L20.428 22.8054L21.1537 23.5207L21.133 22.4944C21.133 22.3389 21.0708 22.1937 20.9775 22.0797L20.9671 22.0693C20.9153 21.9967 20.8738 21.9345 20.822 21.8723C20.7494 21.7687 20.6768 21.6754 20.6146 21.5821C20.0755 20.7941 19.5675 19.9751 19.1217 19.125C18.7796 18.4822 18.4997 17.8083 18.3027 17.1137C18.1265 16.5124 18.1887 15.8593 18.479 15.2994C18.6863 14.8951 18.9248 14.5012 19.2047 14.1487C19.723 13.4955 20.2829 12.8735 20.8738 12.2929C21.6721 11.4946 22.5119 10.7067 23.3205 9.93953L23.8078 9.48337C24.2017 9.12051 24.5646 8.71618 24.8756 8.29112C25.6843 7.20255 26.1404 5.89626 26.1819 4.54851C26.2026 3.73986 26.1093 2.9312 25.8916 2.15365C25.819 1.84263 25.6843 1.55235 25.4873 1.29316C25.3836 1.04435 25.0933 0.930307 24.8445 1.04435C24.6061 1.14802 24.492 1.42794 24.5853 1.66639V1.67676C24.6786 2.18476 24.7097 2.71349 24.6683 3.23186C24.5646 4.4241 24.1292 5.55414 23.4138 6.50794C22.968 7.09888 22.4497 7.62761 21.8691 8.08377L21.4751 8.40516C20.4591 9.23455 19.412 10.0847 18.4064 10.9763C17.6807 11.5983 17.0068 12.2825 16.4055 13.0186C16.0219 13.4852 15.7213 14.0035 15.5035 14.5634C15.3066 15.0714 15.2651 15.6208 15.3791 16.1496C15.4828 16.4813 15.6176 16.8131 15.7938 17.1241Z" fill="#EA2D2E"/>
<path d="M22.7138 12.1845C22.0191 12.7547 21.4593 13.4597 21.055 14.258C20.7025 14.9733 20.5677 15.7716 20.6506 16.5595C20.7543 17.4408 21.0757 18.2909 21.5837 19.027C21.7911 19.3276 22.0088 19.6283 22.2161 19.9289L22.4753 20.3021C22.6308 20.5302 22.776 20.7583 22.9107 20.9967C23.1803 21.4633 23.1907 22.0335 22.9211 22.5C22.7034 22.9043 22.4649 23.2879 22.185 23.6508L22.1747 23.6715C22.0917 23.7648 22.0399 23.8685 22.0191 23.9929L21.9569 24.3558L22.3094 24.4594C22.3613 24.4698 22.4027 24.4802 22.4546 24.4802C22.5686 24.4802 22.6826 24.4387 22.776 24.3661C23.3462 24.0136 23.8749 23.6093 24.3622 23.1532C24.7769 22.7696 25.1397 22.3341 25.4196 21.8469C25.8343 21.173 25.9276 20.3436 25.6892 19.5868C25.5648 19.1721 25.3885 18.7678 25.1812 18.3842C24.9738 18.011 24.7457 17.6585 24.5177 17.3267C24.4451 17.2127 24.3725 17.109 24.3 16.995C24.1133 16.715 23.9475 16.4248 23.8023 16.1137C23.6053 15.699 23.6053 15.2118 23.792 14.7867C24.0408 14.258 24.3725 13.7811 24.7872 13.3768C25.3885 12.7651 26.052 12.2052 26.7466 11.6972C27.6486 11.0234 28.6128 10.4117 29.5977 9.78965L29.6184 9.77929C29.7221 9.72745 29.8154 9.64451 29.8776 9.5512L30.1575 9.11578L29.6702 8.92916C29.5977 8.89806 29.5355 8.8877 29.4629 8.8877C29.38 8.8877 29.297 8.90843 29.2141 8.93953H29.2037C27.9493 9.30239 26.7259 9.77929 25.5544 10.3495C24.5591 10.8368 23.595 11.4484 22.7138 12.1845Z" fill="#EA2D2E"/>
<path d="M15.8109 32.0637C15.9146 31.9289 15.9457 31.7423 15.8938 31.5764L15.8005 31.2861H15.4895H15.4377C15.3962 31.2861 15.3547 31.2861 15.3236 31.2965C14.7845 31.4105 14.2765 31.6594 13.8722 32.0326C13.4886 32.354 13.3642 32.8931 13.5612 33.3492C13.6234 33.5047 13.7167 33.6395 13.8411 33.7536C14.121 34.0231 14.4528 34.2408 14.8156 34.3756C15.4584 34.6244 16.1219 34.8007 16.7958 34.9043C17.7288 35.0495 18.6619 35.1428 19.6053 35.1739C19.8645 35.1843 20.1341 35.1946 20.3829 35.1946C20.8909 35.1946 21.3989 35.1739 21.8758 35.1324C22.56 35.0702 23.2443 34.9665 23.9285 34.8318C24.9341 34.6348 25.919 34.3445 26.7484 34.0957H26.7588C26.935 34.0438 27.1113 33.9816 27.2772 33.8883L27.64 33.6706L27.4119 33.3078C27.3394 33.2041 27.2357 33.1212 27.1217 33.0797L26.9972 33.0278C26.8728 32.976 26.7588 32.9242 26.6448 32.8723C26.2301 32.6754 25.8257 32.4473 25.4318 32.1881C25.1726 32.0118 24.8408 31.96 24.5402 32.0637C24.4158 32.1052 24.281 32.1259 24.1462 32.157L24.1048 32.1674C23.5035 32.2814 22.8918 32.354 22.2801 32.4058C21.544 32.468 20.7665 32.5095 19.9786 32.5302C19.7816 32.5302 19.5742 32.5406 19.3669 32.5406C18.5168 32.5406 17.677 32.5095 16.8995 32.468C16.6195 32.4576 16.35 32.4058 16.0804 32.3229C15.9871 32.3021 15.9042 32.2607 15.8213 32.2088C15.8005 32.1985 15.7902 32.1881 15.7798 32.1674C15.7902 32.1466 15.8005 32.1259 15.8005 32.1155L15.8109 32.0637Z" fill="#0074BD"/>
<path d="M28.4395 29.0586L27.7656 28.8513C27.4235 28.7476 27.1125 28.5817 26.8325 28.364C26.7703 28.3122 26.7081 28.2603 26.6459 28.2188L26.5215 28.1152C26.366 27.9908 26.169 27.9182 25.9721 27.9182C25.9202 27.9182 25.858 27.9182 25.8062 27.9286C25.4433 27.9908 25.039 28.0633 24.5828 28.1255C24.0126 28.2085 23.4321 28.2811 22.7996 28.3433C22.3642 28.3847 21.9081 28.4262 21.4726 28.4573H21.4208C20.7054 28.5091 19.9486 28.5506 19.1296 28.5713C18.8186 28.5817 18.5179 28.5817 18.2277 28.5817C17.73 28.5817 17.2531 28.5713 16.797 28.5402C16.289 28.5195 15.7706 28.4573 15.273 28.3433C15.076 28.3018 14.8894 28.2292 14.7235 28.1048C14.7131 28.0944 14.6924 28.0841 14.682 28.0633C14.682 28.0426 14.6924 28.0219 14.7028 28.0115C14.7235 27.9804 14.7442 27.9389 14.765 27.9182L14.8997 27.7523L14.9723 27.6694L15.6358 26.8711L14.5991 26.9851C13.9563 27.0681 13.3446 27.3273 12.8366 27.742C12.5982 27.9493 12.4323 28.2188 12.339 28.5195C12.1939 28.9446 12.339 29.4111 12.6915 29.691C12.7952 29.774 12.9196 29.8569 13.0336 29.9087C13.4276 30.1057 13.8526 30.2508 14.2881 30.3442C15.4285 30.5826 16.6 30.7277 17.7611 30.7796C18.3521 30.8211 18.943 30.8314 19.4406 30.8418C19.7309 30.8522 20.1145 30.8522 20.4877 30.8522C20.9439 30.8522 21.3482 30.8418 21.7214 30.8211C22.3228 30.79 22.8515 30.7381 23.3595 30.6655C24.22 30.5515 25.0805 30.3856 25.9306 30.1783L25.9617 30.1679C26.4904 30.0331 27.0295 29.8984 27.5583 29.7221L27.579 29.7117C27.7034 29.6806 27.8174 29.6184 27.9107 29.5251L28.4395 29.0586Z" fill="#0074BD"/>
<path d="M9.89196 25.836C10.4725 26.0434 11.0842 26.1885 11.6959 26.2611C12.5356 26.3751 13.4169 26.4684 14.2981 26.5306C15.0342 26.5825 15.905 26.6343 16.7655 26.6447H16.8484C16.921 26.6447 16.9832 26.6447 17.0454 26.6551C17.2735 26.6758 17.5016 26.6758 17.7608 26.6758C17.9578 26.6758 18.1755 26.6758 18.4347 26.6654C19.1707 26.6343 19.9483 26.6032 20.7466 26.541L21.0161 26.5203C21.3686 26.4892 21.7315 26.4684 22.0943 26.427C22.706 26.3648 23.3177 26.3026 23.836 26.2404C24.3959 26.1782 24.9972 26.1056 25.5985 26.0226C26.0754 25.9604 26.5523 25.8879 27.0084 25.8153L27.4128 25.7531C27.5994 25.7324 27.7756 25.6702 27.9415 25.5769C28.2007 25.411 28.4599 25.2555 28.7191 25.1L29.2271 24.7889L29.2374 24.7786C29.3515 24.7164 29.4448 24.6334 29.5173 24.5194L29.8491 23.9595L29.2167 23.887C29.1752 23.887 29.1337 23.8766 29.0923 23.8766C29.0197 23.8766 28.9471 23.887 28.8746 23.8973H28.8642L28.6154 23.9388C28.4495 23.9699 28.2733 23.9906 28.1074 24.0217L27.983 24.0425C27.5061 24.1151 27.0188 24.1876 26.5315 24.2498C26.1583 24.3017 25.7644 24.3431 25.3911 24.3846L25.3082 24.395C25.0179 24.4261 24.7173 24.4572 24.427 24.4883L24.2922 24.4986L23.9812 24.5298C23.6909 24.5609 23.3902 24.592 23.1 24.6127C22.8511 24.6334 22.592 24.6542 22.3431 24.6645C22.0943 24.6749 21.8248 24.706 21.576 24.7267C20.985 24.7786 20.3526 24.8304 19.7202 24.8408C19.1189 24.8511 18.5694 24.8615 18.0614 24.8615C17.1284 24.8615 16.299 24.8408 15.5111 24.7993C14.7646 24.7578 14.1529 24.6956 13.5931 24.6231C13.3858 24.6023 13.168 24.5505 12.9711 24.4779C13.0644 24.4053 13.1577 24.3431 13.2613 24.2913C13.6242 24.1047 14.0078 23.9492 14.3914 23.8144C14.8579 23.6485 15.3452 23.5138 15.8117 23.379L15.9569 23.3375H15.9672C16.1227 23.3168 16.2679 23.2338 16.3612 23.1094L16.8899 22.4355H16.0294H15.9154H15.8013C15.7495 22.4355 15.6873 22.4355 15.6355 22.4459C15.0964 22.4978 14.6195 22.5703 14.1737 22.6533C13.1473 22.8502 12.1417 23.1302 11.1671 23.5034C10.6695 23.6796 10.1926 23.9181 9.74682 24.198C9.54984 24.312 9.38396 24.4779 9.25955 24.6645C9.08331 24.9237 9.12478 25.2762 9.35286 25.4939C9.50837 25.6598 9.69498 25.7738 9.89196 25.836Z" fill="#0074BD"/>
<path d="M29.9346 23.0318L29.945 23.5087L30.4219 23.4361L30.5048 23.4257C30.6603 23.3946 30.8158 23.3739 30.9817 23.3739C31.0854 23.3739 31.1891 23.3635 31.2927 23.3635C31.3964 23.3635 31.469 23.3635 31.5416 23.3739C31.8111 23.3946 32.0807 23.4361 32.3398 23.5294C33.0863 23.7886 33.5425 24.5454 33.418 25.323C33.3662 25.7584 33.2107 26.1627 32.9619 26.5256C32.5057 27.1891 31.9563 27.78 31.3238 28.2776C30.7433 28.7545 30.1212 29.19 29.4785 29.5736C29.4163 29.615 29.354 29.6565 29.2815 29.698L29.1778 29.7705L28.2344 30.3822L29.3437 30.5377C29.3851 30.5481 29.4266 30.5481 29.4681 30.5481C29.5925 30.5481 29.7065 30.5274 29.8206 30.4755L29.862 30.4652C30.9299 30.1645 31.9459 29.7394 32.91 29.19C33.7602 28.7234 34.5066 28.0807 35.0976 27.3135C35.5122 26.8055 35.7611 26.1938 35.8336 25.5407C35.9062 24.9083 35.7507 24.2759 35.4189 23.7368C34.9731 23.0525 34.3096 22.5341 33.5321 22.275C33.107 22.1194 32.6612 22.0469 32.2154 22.0469C31.8007 22.0469 31.386 22.1091 30.9817 22.2231C30.6914 22.2957 30.4219 22.4305 30.1731 22.6067C30.0279 22.6793 29.9346 22.8555 29.9346 23.0318Z" fill="#0074BD"/>
</g>
</svg>
