<svg xmlns="http://www.w3.org/2000/svg" width="23" height="22.994" viewBox="0 0 23 22.994">
  <g id="key" transform="translate(0 -0.067)">
    <g id="Group_3801" data-name="Group 3801" transform="translate(14.914 4.918)">
      <g id="Group_3800" data-name="Group 3800">
        <circle id="Ellipse_2357" data-name="Ellipse 2357" cx="1.5" cy="1.5" r="1.5" transform="translate(0.086 0.148)" fill="#51596c"/>
      </g>
    </g>
    <g id="Group_3803" data-name="Group 3803" transform="translate(0 0.067)">
      <g id="Group_3802" data-name="Group 3802" transform="translate(0 0)">
        <path id="Path_5888" data-name="Path 5888" d="M22.752,7.518a13.107,13.107,0,0,0-2.826-4.444A12.8,12.8,0,0,0,15.515.3a3.612,3.612,0,0,0-3.832.812L8.155,4.628A3.6,3.6,0,0,0,7.4,8.613c.185.417.387.824.6,1.218L.263,17.574A.9.9,0,0,0,0,18.209v3.953a.9.9,0,0,0,.9.9H4.852a.9.9,0,0,0,.9-.9V20.545H7.367a.9.9,0,0,0,.9-.9V18.03H9.883a.9.9,0,0,0,0-1.8H7.367a.9.9,0,0,0-.9.9v1.617H4.852a.9.9,0,0,0-.9.9v1.617H1.8V18.582l7.967-7.967a.9.9,0,0,0,.133-1.1,14.54,14.54,0,0,1-.85-1.63A1.788,1.788,0,0,1,9.423,5.9L12.951,2.39a1.812,1.812,0,0,1,1.923-.407,11,11,0,0,1,3.785,2.365,11.3,11.3,0,0,1,2.421,3.827,1.784,1.784,0,0,1-.4,1.918l-3.571,3.554a1.809,1.809,0,0,1-1.977.385,11.661,11.661,0,0,1-1.617-.825.9.9,0,0,0-.94,1.531,13.466,13.466,0,0,0,1.867.953,3.6,3.6,0,0,0,3.935-.771l3.571-3.554A3.58,3.58,0,0,0,22.752,7.518Z" transform="translate(0 -0.067)" fill="#51596c"/>
      </g>
    </g>
  </g>
</svg>
