<svg width="18" height="18" viewBox="0 0 18 18" fill="none" xmlns="http://www.w3.org/2000/svg">
<path d="M17.2793 17.0654L13.8174 9.72692L12.0173 5.85V0.657692C12.0173 0.311538 11.7057 0 11.3596 0H6.02836C5.64756 0 5.33599 0.311538 5.33599 0.657692V5.85L3.53585 9.72692L0.0740288 17.0654C-0.0298257 17.2731 -0.0298257 17.5154 0.108647 17.6885C0.212502 17.8962 0.454829 18 0.662538 18H16.6908C16.8985 18 17.1408 17.8962 17.2446 17.6885C17.3831 17.5154 17.3831 17.2731 17.2793 17.0654ZM6.61686 6.3C6.65148 6.19615 6.6861 6.09231 6.6861 5.98846V1.31538H10.6672V5.98846C10.6672 6.09231 10.7018 6.19615 10.7364 6.3L12.1904 9.34615H5.1629L6.61686 6.3ZM1.7357 16.6846L4.53977 10.6615H12.8135L15.6176 16.6846H1.7357Z" fill="#BFBFBF"/>
</svg>
