<svg xmlns="http://www.w3.org/2000/svg" width="29.375" height="36.505" viewBox="0 0 29.375 36.505">
  <path id="Path_18973" data-name="Path 18973" d="M213.438,314.727q-3.949-7.5-7.911-14.991a1.752,1.752,0,0,1-.227-.763c-.017-2.5-.006-4.992-.015-7.488a.47.47,0,0,1,.331-.5,3.1,3.1,0,0,0-1.223-5.942q-5.059-.03-10.118,0a3.1,3.1,0,0,0-1.258,5.92.558.558,0,0,1,.368.617c-.009,2.39,0,4.78-.017,7.17a2.335,2.335,0,0,1-.254,1.026c-2.6,4.949-5.226,9.883-7.808,14.84a5.5,5.5,0,0,0-.644,2.1,4.471,4.471,0,0,0,4.533,4.812c3.372.018,6.745,0,10.118,0,3.342,0,6.685,0,10.027,0a4.667,4.667,0,0,0,2.469-.633A4.545,4.545,0,0,0,213.438,314.727Zm-20.789-26.577a1.693,1.693,0,0,1,1.823-1.663c1.632,0,3.264,0,4.9,0s3.294-.007,4.941,0a1.64,1.64,0,0,1,1.665,1.323,1.612,1.612,0,0,1-.921,1.829,2.211,2.211,0,0,1-.834.167q-4.873.017-9.746.005A1.692,1.692,0,0,1,192.648,288.149Zm19.394,30.563a2.858,2.858,0,0,1-2.436,1.35c-1.557.022-3.115.011-4.672.012q-7.779,0-15.559,0a3.087,3.087,0,0,1-3.245-2.57,3.3,3.3,0,0,1,.442-2.22q2.285-4.3,4.554-8.612c1.094-2.07,2.176-4.146,3.29-6.2a3,3,0,0,0,.421-1.724c-.031-.373-.006-.75-.006-1.187.4,0,.756,0,1.113,0,.5-.008.824-.283.834-.7s-.331-.733-.848-.746c-.317-.008-.635,0-.952-.008a.452.452,0,0,1-.1-.032v-1.578c.449,0,.812.015,1.173,0a.716.716,0,0,0,.732-.711.733.733,0,0,0-.728-.723c-.388-.023-.778,0-1.193,0V291.3h8.98v.551c0,2.42-.01,4.84.011,7.259a2.342,2.342,0,0,0,.256,1.029q3.991,7.6,8.015,15.188A3.094,3.094,0,0,1,212.042,318.712ZM204,304.817c-.4-.747-.526-.817-1.324-.6a2.8,2.8,0,0,1-2.266-.3,4.852,4.852,0,0,0-.774-.466,4.791,4.791,0,0,0-1.542-.43,3.954,3.954,0,0,0-3.652,2.267c-1.657,3.086-3.282,6.19-4.909,9.293a2.326,2.326,0,0,0-.26.857,2.126,2.126,0,0,0,2.166,2.365c2.63.017,5.261,0,7.891,0v0q3.809,0,7.619,0a3.454,3.454,0,0,0,.853-.074,2.175,2.175,0,0,0,1.3-3.258Q206.553,309.639,204,304.817Zm3.1,11.534q-3.9.008-7.8,0c-2.539,0-5.078-.029-7.617.016a.819.819,0,0,1-.8-1.305c1.61-2.973,3.174-5.972,4.75-8.964A3.008,3.008,0,0,1,197,304.7a1.958,1.958,0,0,1,2.135.131,4.388,4.388,0,0,0,3.41.9.5.5,0,0,1,.4.23q2.451,4.6,4.873,9.206C208.171,315.83,207.851,316.349,207.1,316.35Zm-9.272-7.565a.707.707,0,0,0-.711.719.729.729,0,0,0,.722.72.721.721,0,0,0,.708-.731A.7.7,0,0,0,197.828,308.785Zm4.526,3.07a.714.714,0,1,0,.011,1.429.714.714,0,0,0-.011-1.429Zm-5.912,1.453a.714.714,0,1,0,.011,1.427.714.714,0,1,0-.011-1.427Z" transform="translate(-184.65 -285.026)" fill="#037cf9"/>
</svg>
