<svg xmlns="http://www.w3.org/2000/svg" width="40" height="41.548" viewBox="0 0 40 41.548">
  <g id="Group_1569" data-name="Group 1569" transform="translate(-272.01 -80)">
    <g id="Group_1538" data-name="Group 1538" transform="translate(272.01 80)">
      <path id="Path_3111" data-name="Path 3111" d="M311.863,119.354,303.9,102.427,299.706,93.5V81.539A1.539,1.539,0,0,0,298.167,80H285.857a1.539,1.539,0,0,0-1.539,1.539V93.5l-4.2,8.925-7.965,16.927a1.539,1.539,0,0,0,1.391,2.191h36.932a1.539,1.539,0,0,0,1.385-2.194ZM287.242,94.505a1.539,1.539,0,0,0,.154-.656V83.078h9.233V93.849a1.54,1.54,0,0,0,.154.656l3.305,7.039H283.93Zm-11.27,23.966,6.517-13.849h19.048l6.517,13.849Z" transform="translate(-272.01 -80)" fill="#1f2430"/>
    </g>
  </g>
</svg>
