<svg width="72" height="72" viewBox="0 0 72 72" fill="none" xmlns="http://www.w3.org/2000/svg">
<g clip-path="url(#clip0_29_176)">
<path d="M0 35.9578C0.0573869 16.0637 16.2405 -0.0473029 36.1148 -0.00014086C55.8948 0.0470212 72.0615 16.279 72 36.0316C71.9385 56.0878 55.778 72.1783 35.6188 71.9978C15.8429 71.8235 0.069684 55.8479 0 35.9578ZM35.9939 31.1083C42.8434 31.1083 49.6909 31.1165 56.5404 31.094C57.1532 31.0919 57.3131 31.2601 57.2946 31.8568C57.2495 33.2101 57.2864 34.5655 57.2803 35.9209C57.2782 36.696 57.6143 37.2558 58.3337 37.5367C59.4548 37.9714 60.5267 37.1635 60.5329 35.8635C60.5472 32.7959 60.539 29.7283 60.537 26.6608C60.5349 21.518 57.0794 18.0363 51.9494 18.0322C41.3185 18.026 30.6876 18.0301 20.0567 18.0322C19.4439 18.0322 18.8311 18.0281 18.2244 18.147C14.1828 18.9446 11.4753 22.205 11.4651 26.345C11.4507 32.6852 11.461 39.0254 11.461 45.3656C11.461 50.5411 14.9267 54.0004 20.1161 54.0045C24.8444 54.0086 29.5706 54.0045 34.2989 54.0045C34.9117 54.0045 35.5266 54.025 36.1373 53.984C36.9182 53.9307 37.3957 53.4754 37.5761 52.7229C37.8364 51.6259 37.0391 50.7523 35.7602 50.7503C30.5462 50.7441 25.3342 50.7503 20.1202 50.7482C16.7529 50.7482 14.7197 48.7264 14.7177 45.3677C14.7136 40.9201 14.7341 36.4705 14.6992 32.0229C14.6931 31.3072 14.8304 31.0858 15.599 31.0899C22.3973 31.1247 29.1935 31.1104 35.9918 31.1104L35.9939 31.1083ZM55.5177 54.0147C56.3252 54.027 56.8417 53.6949 57.1348 53.0592C57.4463 52.3805 57.2885 51.7469 56.7822 51.226C55.7124 50.129 54.6364 49.0361 53.5255 47.98C53.1259 47.6007 53.0685 47.3854 53.5071 46.9773C54.5524 46.0033 55.5443 44.9699 56.5506 43.9528C57.3725 43.1224 57.4545 42.1484 56.7781 41.4471C56.067 40.7089 55.1057 40.7827 54.2244 41.6562C53.1915 42.6815 52.1503 43.7006 51.144 44.7525C50.814 45.0991 50.6316 45.0929 50.3037 44.7505C49.2789 43.6801 48.2214 42.6425 47.1679 41.6009C46.3317 40.7745 45.3807 40.7253 44.6695 41.4491C43.9973 42.134 44.0588 43.0978 44.8437 43.8954C45.8664 44.933 46.8769 45.9808 47.9406 46.9753C48.3771 47.3833 48.3259 47.5986 47.9242 47.98C46.8851 48.9622 45.889 49.9896 44.8827 51.0066C44.0752 51.8227 43.9993 52.8254 44.6818 53.5124C45.3705 54.2034 46.3604 54.1378 47.1822 53.3258C48.2009 52.321 49.2338 51.3285 50.2053 50.2807C50.6377 49.8132 50.8734 49.8952 51.2629 50.3074C52.2651 51.3634 53.3165 52.3723 54.3413 53.4057C54.6958 53.7646 55.0873 54.0229 55.5177 54.0147Z" fill="#EF4739"/>
<path d="M35.9938 31.1064C29.1956 31.1064 22.3993 31.1208 15.601 31.0859C14.8345 31.0818 14.6951 31.3033 14.7013 32.0189C14.7361 36.4665 14.7156 40.9161 14.7197 45.3637C14.7218 48.7224 16.7549 50.7443 20.1223 50.7443C25.3363 50.7443 30.5482 50.7422 35.7623 50.7463C37.0412 50.7463 37.8384 51.6219 37.5781 52.7189C37.3998 53.4735 36.9223 53.9287 36.1394 53.98C35.5286 54.021 34.9137 54.0005 34.3009 54.0005C29.5727 54.0005 24.8465 54.0046 20.1182 54.0005C14.9288 53.9964 11.4651 50.5372 11.463 45.3616C11.463 39.0214 11.4528 32.6812 11.4671 26.341C11.4753 22.201 14.1848 18.9407 18.2265 18.143C18.8331 18.0241 19.4459 18.0282 20.0587 18.0282C30.6897 18.0241 41.3206 18.022 51.9515 18.0282C57.0794 18.0323 60.537 21.5141 60.539 26.6568C60.539 29.7244 60.5493 32.7919 60.5349 35.8595C60.5288 37.1596 59.4569 37.9675 58.3358 37.5327C57.6164 37.2539 57.2782 36.692 57.2823 35.9169C57.2864 34.5615 57.2516 33.2061 57.2967 31.8528C57.3172 31.254 57.1552 31.088 56.5424 31.09C49.6929 31.1126 42.8454 31.1044 35.9959 31.1044L35.9938 31.1064ZM35.959 27.8481H55.6632C56.7959 27.8481 57.3336 27.2733 57.2762 26.1236C57.1409 23.419 55.1016 21.3049 52.4844 21.2988C41.4948 21.2762 30.5073 21.2865 19.5177 21.2947C18.3228 21.2947 17.2775 21.7417 16.3839 22.5373C15.105 23.6774 14.6664 25.1435 14.7156 26.8085C14.7484 27.9896 14.5783 27.844 15.7199 27.844C22.4669 27.8481 29.214 27.8461 35.9611 27.8461L35.959 27.8481Z" fill="#FFFEFE"/>
<path d="M55.5176 54.0128C55.0852 54.021 54.6958 53.7606 54.3412 53.4038C53.3164 52.3683 52.265 51.3595 51.2628 50.3055C50.8713 49.8933 50.6377 49.8113 50.2053 50.2788C49.2338 51.3287 48.2008 52.3191 47.1822 53.3239C46.3603 54.1359 45.3704 54.2015 44.6818 53.5104C43.9993 52.8256 44.0731 51.8229 44.8826 51.0047C45.8889 49.9877 46.8871 48.9603 47.9241 47.9781C48.3258 47.5988 48.3771 47.3814 47.9405 46.9734C46.8768 45.9809 45.8643 44.9311 44.8437 43.8935C44.0587 43.0958 43.9972 42.1321 44.6695 41.4472C45.3807 40.7234 46.3316 40.7726 47.1678 41.599C48.2234 42.6386 49.2789 43.6782 50.3036 44.7486C50.6316 45.091 50.814 45.0972 51.1439 44.7506C52.1503 43.6987 53.1914 42.6796 54.2244 41.6543C55.1057 40.7808 56.0669 40.707 56.7781 41.4452C57.4544 42.1465 57.3725 43.1205 56.5506 43.9509C55.5443 44.968 54.5523 46.0014 53.507 46.9754C53.0684 47.3835 53.1279 47.5988 53.5255 47.9781C54.6363 49.0342 55.7123 50.1271 56.7822 51.2241C57.2884 51.7429 57.4483 52.3765 57.1347 53.0573C56.8416 53.6929 56.3251 54.0251 55.5176 54.0128Z" fill="#FFFEFE"/>
<path d="M35.959 27.8481C29.212 27.8481 22.4649 27.8502 15.7179 27.8461C14.5763 27.8461 14.7485 27.9917 14.7136 26.8106C14.6665 25.1455 15.103 23.6794 16.3819 22.5393C17.2735 21.7437 18.3208 21.2967 19.5157 21.2967C30.5052 21.2885 41.4928 21.2782 52.4824 21.3008C55.0976 21.307 57.1389 23.421 57.2742 26.1257C57.3315 27.2753 56.7939 27.8502 55.6612 27.8502H35.957L35.959 27.8481Z" fill="#F0493A"/>
</g>
<defs>
<clipPath id="clip0_29_176">
<rect width="72" height="72" fill="white"/>
</clipPath>
</defs>
</svg>
