<svg width="27" height="17" viewBox="0 0 27 17" fill="none" xmlns="http://www.w3.org/2000/svg">
<path fill-rule="evenodd" clip-rule="evenodd" d="M22.7285 5.41356L13.2267 9.26185L4.03623 5.41356L13.2267 1.52853L22.7285 5.41356ZM13.2223 0.0368652L26.3748 5.41356L13.2223 10.7444L0.5 5.41356L13.2223 0.0368652Z" fill="#262933"/>
<path d="M6.80957 7.50073V11.8347L13.1868 15.454L19.7106 11.8347V7.50073" stroke="#262933" stroke-width="1.5"/>
<path d="M22.9268 6.08984H24.2645V11.9081H22.9268V6.08984Z" fill="#262933"/>
<path d="M23.6046 15.0692C22.6333 15.0692 21.8545 14.2813 21.8545 13.3192C21.8545 12.3479 22.6425 11.5691 23.6046 11.5691C24.5666 11.5691 25.3546 12.3571 25.3546 13.3192C25.3455 14.2813 24.5666 15.0692 23.6046 15.0692ZM23.6046 12.7328C23.2839 12.7328 23.0182 12.9893 23.0182 13.31C23.0182 13.6307 23.2747 13.8964 23.5954 13.8964C23.9161 13.8964 24.1818 13.6399 24.1818 13.3192C24.1818 12.9985 23.9253 12.7328 23.6046 12.7328Z" fill="#262933"/>
</svg>
