<svg width="50" height="51" viewBox="0 0 50 51" fill="none" xmlns="http://www.w3.org/2000/svg">
<circle cx="24.9995" cy="25.726" r="25" fill="#FFF4D9"/>
<path d="M33.1514 36.1176C32.9394 36.102 32.7274 36.1176 32.5154 36.1176C32.2381 36.1176 31.9446 36.1176 31.651 36.1176C31.651 35.2744 31.651 34.4625 31.651 33.6505C31.6673 32.3857 31.3411 31.2146 30.6888 30.1215C29.9549 28.8723 28.9274 27.8418 27.6716 27.0766C26.7909 26.5457 26.7746 24.9218 27.6716 24.4221C28.4055 23.9849 29.0416 23.4071 29.6124 22.7982C30.9334 21.3616 31.6836 19.6908 31.6673 17.7546C31.651 17.0363 31.6673 16.3336 31.6673 15.6153V15.3343C31.7978 15.3343 31.8957 15.3343 31.9935 15.3343C32.4175 15.3343 32.8416 15.3499 33.2656 15.3187C33.657 15.3031 33.9506 14.9908 33.9995 14.616C34.0484 14.2569 33.8201 13.8821 33.445 13.7728C33.2819 13.7416 33.1188 13.726 32.9557 13.726C27.3128 13.726 21.6699 13.726 16.0433 13.726C15.9454 13.726 15.8639 13.726 15.766 13.726C15.342 13.7728 14.9995 14.1163 14.9995 14.5379C14.9995 14.9595 15.3257 15.3031 15.766 15.3343C16.2064 15.3499 16.6304 15.3343 17.0708 15.3343C17.1523 15.3343 17.2502 15.3499 17.348 15.3499C17.348 16.1931 17.348 17.0051 17.348 17.817C17.3317 19.0818 17.6579 20.253 18.3102 21.346C19.0441 22.5952 20.0716 23.6258 21.3274 24.3909C22.2081 24.9218 22.2244 26.5457 21.3274 27.0454C20.5772 27.467 19.9575 28.0448 19.3866 28.6537C18.0656 30.0903 17.3154 31.7611 17.348 33.6973C17.3643 34.4156 17.348 35.1183 17.348 35.8366C17.348 35.9146 17.348 36.0083 17.3317 36.102C17.2012 36.102 17.1034 36.102 16.9892 36.102C16.5652 36.102 16.1575 36.102 15.7497 36.1176C15.3746 36.1332 15.0811 36.4143 15.0158 36.7734C14.9506 37.1014 15.13 37.4449 15.4235 37.6166C15.4888 37.6479 15.5703 37.6947 15.6356 37.726H33.3635C33.3961 37.7103 33.4287 37.6791 33.4613 37.6635C33.8527 37.4917 34.0484 37.1326 33.9832 36.7734C33.9017 36.3831 33.5918 36.1332 33.1514 36.1176ZM21.0828 36.102C21.8982 34.5405 23.1703 33.4006 24.5077 32.2608C25.8287 33.385 27.1008 34.5405 27.9326 36.102H21.0828ZM29.645 35.9615C29.3188 34.9621 28.7154 34.1345 28.0304 33.3382C27.1497 32.3388 26.1712 31.4332 25.0948 30.6212C24.7197 30.3245 24.2957 30.3245 23.9369 30.6056C22.5995 31.6362 21.36 32.7761 20.3652 34.1189C19.9575 34.6654 19.5987 35.2588 19.3866 35.9146C19.3214 36.102 19.2399 36.1332 18.9789 36.0552C19.0441 34.8528 19.0278 33.6505 19.1909 32.4638C19.354 31.277 20.039 30.3089 20.9197 29.4813C21.3926 29.0441 21.8982 28.6225 22.4364 28.2634C24.0021 27.2172 24.0999 24.6563 22.7626 23.454C22.3549 23.0949 21.8656 22.7982 21.4416 22.4546C20.5772 21.7364 19.8433 20.9088 19.4356 19.8626C19.2725 19.441 19.1094 19.0038 19.0931 18.5509C19.0278 17.5047 19.0605 16.4429 19.0605 15.3499H29.9223C29.9386 15.3655 29.9549 15.3811 29.9549 15.3967C29.9386 16.5054 29.9549 17.6297 29.8733 18.7383C29.7918 19.722 29.3025 20.5652 28.6665 21.3304C28.0793 22.0643 27.3781 22.6576 26.5952 23.1729C24.9806 24.2191 24.8991 26.7956 26.2527 28.0135C26.6605 28.3727 27.1497 28.6693 27.5738 29.0129C28.5523 29.8248 29.3351 30.793 29.7102 31.9953C29.8407 32.4013 29.9223 32.8229 29.9386 33.2289C29.9712 34.1658 29.9549 35.1183 29.9549 36.0708C29.8244 36.1176 29.6939 36.1645 29.645 35.9615ZM24.5077 24.8749C24.948 24.8749 25.3068 24.5314 25.3394 24.1098C25.3557 23.86 25.3394 23.6101 25.3394 23.3603C25.3394 23.1105 25.3557 22.8606 25.3394 22.6108C25.3068 22.1736 24.948 21.8301 24.4914 21.8457C24.051 21.8457 23.6759 22.1736 23.6596 22.6108C23.6433 23.1105 23.6433 23.6101 23.6596 24.1098C23.6759 24.547 24.051 24.8906 24.5077 24.8749ZM24.4914 27.5451C24.0184 27.5451 23.6596 27.9042 23.6596 28.3571C23.6596 28.8099 24.0347 29.1534 24.5077 29.1534C24.9806 29.1534 25.3394 28.7943 25.3394 28.3414C25.3231 27.9042 24.9643 27.5451 24.4914 27.5451Z" fill="#1F2430"/>
</svg>
