<svg xmlns="http://www.w3.org/2000/svg" width="1201" height="448" viewBox="0 0 1201 448">
  <path id="Intersection_3" data-name="Intersection 3" d="M1391.882,487c-9.342-10.638-18.2-21.766-26.893-32.973-11.308-14.426-23.053-28.218-36.163-40.646-13.159-12.379-26.561-24.319-38.843-37.77a174.506,174.506,0,0,1-26.268-38.746c-9.65-18.812-14.036-39.379-17.546-60.14-1.754-10.479-3.265-20.957-7.31-30.8-3.168-7.6-8.724-11.746-15.791-11.746a19.522,19.522,0,0,0-4.387.488,37.1,37.1,0,0,0-11.648,4.728c-11.7,6.579-17.594,18.032-22.029,30.558-5.458,15.351-6.14,31.63-7.554,47.664a173.014,173.014,0,0,1-22.857,73.835c-9.309,16.083-21.3,29.534-36.844,39.086-13.988,8.626-28.8,11.794-44.058,11.794a132.847,132.847,0,0,1-20.859-1.755c-14.572-2.241-25.684-10.526-30.314-26.366-2.388-8.042-3.168-16.474-3.655-24.758-.732-15.547-.829-31.046-1.755-46.592a186.983,186.983,0,0,0-10.283-50.832c-6.628-18.812-15.01-36.6-24.124-54.146-8.821-17.2-20.323-31.581-37.234-40.3-7.993-4.143-14.28-6.726-19.933-6.726-7.311,0-13.549,4.386-20.908,15.644a444.287,444.287,0,0,1-36.455,48.542c-13.4,15.5-28.657,28.9-44.447,41.67-14.085,11.209-26.513,23.978-34.993,40.646-5.361,10.576-9.942,21.639-15.6,32.019-11.355,20.859-26.609,36.65-48.687,44.3-14.913,5.069-30.362,8.724-45.275,14.426-25,9.552-44.643,25.44-54.147,53.025q-1.012,2.928-1.885,5.875H621.1q.929-3.175,2.075-6.46c8.87-25.733,26.951-43.473,55.315-54.292,8.724-3.314,17.643-5.995,26.366-8.528,6.239-1.852,12.721-3.8,18.958-5.9,19.885-6.871,35.431-21.054,47.615-43.326,3.217-5.995,6.189-12.282,9.065-18.374,2.1-4.582,4.24-9.163,6.53-13.6,7.652-15.01,18.91-28.169,35.481-41.328,19.056-15.4,32.7-28.17,44.155-41.426a435.021,435.021,0,0,0,36.357-48.395c7.505-11.551,14.279-16.424,22.516-16.424,6.141-.049,12.818,2.778,20.81,6.872,15.547,7.993,27.975,21.444,38.112,41.134,10.722,20.664,18.422,37.966,24.222,54.438a189.806,189.806,0,0,1,10.381,51.368c.488,8.285.731,16.667.975,24.757.147,7.311.39,14.573.78,21.834.438,7.359,1.169,16.083,3.558,24.32,4.191,14.328,13.938,22.711,28.754,25a131.373,131.373,0,0,0,20.567,1.705c16.375,0,30.46-3.753,43.034-11.5,14.377-8.87,26.562-21.785,36.211-38.453a171.814,171.814,0,0,0,22.613-72.958l.536-6.336c1.072-13.89,2.291-28.267,7.067-41.816,4.093-11.55,9.942-24.27,22.906-31.63a40.739,40.739,0,0,1,12.184-4.922,20.424,20.424,0,0,1,4.825-.585c7.895,0,14.182,4.679,17.593,13.062,3.8,9.211,5.41,19.1,7.018,28.705l.391,2.486c3.216,18.616,7.407,40.061,17.349,59.6a174.3,174.3,0,0,0,25.977,38.258c9.6,10.478,20.129,20.323,30.314,29.777l8.431,7.847c11.648,11.014,22.857,23.637,36.357,40.889,9.83,12.692,18.826,23.895,27.952,34.192Zm-44.008,0c-4.3-5.649-8.6-11.375-12.761-17.134-13.4-18.519-29.242-35.139-44.5-51.27-4-4.143-7.9-8.285-11.843-12.476-13.062-14.232-25.1-29.145-36.26-43.23l-2.436-3.07c-4.679-6.043-9.5-12.281-16.375-15.79a14.692,14.692,0,0,0-6.385-1.8c-2.632,0-5.02,1.267-7.8,4.288-6.19,6.629-10.479,14.573-14.914,22.857l-2.047,3.8c-10.625,19.251-20.129,35.042-29.875,49.711-16.961,25.392-37.478,42.01-62.577,50.929a72.909,72.909,0,0,0-18.715,9.6,23.382,23.382,0,0,0-3.9,3.585h-2.48a24.781,24.781,0,0,1,5.262-5.144,74.051,74.051,0,0,1,19.2-9.894c25.977-9.212,45.909-26.756,61.6-50.15,10.673-16.083,20.421-32.653,29.729-49.613,5.215-9.454,9.992-19.2,17.3-27.049,3.119-3.362,5.995-4.922,9.211-4.922a16.486,16.486,0,0,1,7.311,2.1c8.431,4.289,13.694,12.184,19.4,19.3,11.7,14.767,23.491,29.388,36.162,43.18,19.4,20.714,39.623,40.6,56.534,63.894,4.454,6.188,9.023,12.268,13.635,18.3Zm-60.3,0a10.445,10.445,0,0,0,1.243-7.63c-1.364-7.018-4.386-13.841-9.747-21.98a141.3,141.3,0,0,0-38.94-39.915c-6.677-4.63-12.428-6.824-17.5-6.824V408.7c5.507,0,11.55,2.291,18.616,7.165a142.759,142.759,0,0,1,39.477,40.5c4.532,6.871,8.383,14.231,9.991,22.613a12.459,12.459,0,0,1-.935,8.02Zm-69.465,0c-8.309-1.807-16.435-4.311-24.084-8.8-8.627-4.971-12.428-13.841-9.894-23.929,2.729-11.112,7.311-21.639,14.475-30.265,8.187-9.894,15.5-15.3,24.027-15.3v1.949c-7.311,0-14.036,4.387-22.516,14.621-6.385,7.7-11.161,17.594-14.085,29.436-2.291,9.114,1.023,17.253,8.919,21.834,10.282,6.043,21.736,8.383,32.458,10.283l1.021.174ZM1017,487a87.652,87.652,0,0,0-12.12-18.888c-7.213-8.383-16.814-12.671-30.217-13.5-1.559-.1-3.119-.146-4.581-.146-19.544,0-37.722,7.846-55.51,23.881L904.9,487h-2.935q5.624-5.052,11.24-10.116c16.474-14.816,35.14-24.367,56.876-24.367,1.56,0,3.119.049,4.728.146,11.989.731,22.955,4.094,31.484,14.134a89.273,89.273,0,0,1,12.862,20.2Zm-148.7,0q6.027-6.2,11.521-12.5c7.213-8.237,14.523-16.132,22.613-24.953a188.543,188.543,0,0,1,47.323-36.406c4.922-2.68,9.894-5.653,15.791-9.406,11.355-7.213,18.471-18.374,22.028-34.213,7.116-32.556-1.267-62.236-24.9-88.31-10.478-11.5-22.613-17.5-36.113-17.691h-.78c-13.256,0-24.416,6.774-35.577,14.328-14.231,9.942-27.634,21.639-40.5,32.995l-5.848,5.166c-18.374,15.936-32.6,36.016-43.521,61.261-7.944,18.032-16.376,31.435-26.513,42.254a107.76,107.76,0,0,1-42.059,27.487c-5.605,2.145-11.258,3.948-16.765,5.7a230.711,230.711,0,0,0-22.175,7.847c-14.65,6.248-23.265,14.545-27.241,26.442h-2.03c4.614-14.352,15.248-22.582,28.49-28.246,12.769-5.458,26.074-8.626,39.038-13.549A106.9,106.9,0,0,0,772.4,418.157c11.355-12.136,19.4-26.464,26.171-41.719,10.381-24.075,24.612-45.032,44.009-61.943,15.108-13.208,30.021-26.8,46.494-38.21,11.21-7.6,22.809-14.719,36.7-14.719h.878c15.011.2,27.488,7.359,37.479,18.325,22.759,25.1,33.043,54.975,25.342,90.016-3.265,14.767-10.088,27.341-22.857,35.48-5.263,3.315-10.478,6.482-15.936,9.455a184.434,184.434,0,0,0-46.787,36.016c-7.6,8.187-15.206,16.424-22.613,24.9q-5.021,5.764-10.29,11.237Zm-45.633,0c14.66-9.674,26.156-22.485,35.613-33.948,19.543-23.783,35.967-42.3,51.9-58.289,2.924-2.973,5.9-5.8,8.919-8.675,5.36-5.215,10.917-10.576,16.083-16.18a54.073,54.073,0,0,0,11.648-19.544,32.554,32.554,0,0,0-3.071-25.927c-4.435-7.749-11.453-13.159-19.3-14.962l-.779-.194a22.579,22.579,0,0,0-5.507-.975l-1.121.049c-6.969.438-14.182,2.632-22.613,6.969A170.547,170.547,0,0,0,853.7,345.54c-11.307,11.453-20.176,26.269-27.1,45.374a259.749,259.749,0,0,1-40.353,73.056c-3.753,4.728-6.482,10.43-8.968,15.839A25.149,25.149,0,0,0,774.909,487h-1.968a26.6,26.6,0,0,1,2.583-8.02c2.632-5.751,5.312-11.355,9.162-16.23a255.719,255.719,0,0,0,40.11-72.519c6.286-17.252,14.816-33.238,27.584-46.056a168.653,168.653,0,0,1,41.231-30.558c7.311-3.8,15.011-6.726,23.3-7.213l1.267-.1a26.89,26.89,0,0,1,6.726,1.267c18.081,4.094,29.632,25.295,23.782,43.376a57.182,57.182,0,0,1-12.037,20.274c-7.993,8.772-16.765,16.571-25.1,24.9-18.227,18.374-35.285,38.064-51.807,58.191C849.6,466.625,838.9,478.109,826.089,487Zm-240.494,0c7.378-10.229,13.452-21.286,20-32a131.3,131.3,0,0,1,55.413-49.759c14.914-7.408,30.509-12.672,45.617-19.154,24.563-10.722,40.354-29.047,44.594-57.558a242.82,242.82,0,0,0,2.534-40.3,57.316,57.316,0,0,1,1.754-15.5c2.632-10.381,8.821-16.424,18.91-18.178a70.411,70.411,0,0,1,12.379-.829h5.848c34.018-.146,59.7-32.751,54.292-68.767-3.217-21.346-11.111-40.987-19.154-60.676-6.286-15.157-13.208-30.07-17.886-46.1C802.646,64.945,801.883,52.141,807,40h2.141c-4.806,10.778-5.053,22.949-.822,37.637,3.606,12.428,8.724,24.32,13.6,35.919,1.413,3.314,2.875,6.628,4.24,9.991,7.457,18.227,15.937,38.94,19.3,61.115a64.062,64.062,0,0,1-14.329,51.222c-10.916,12.671-25.781,19.689-41.913,19.786H783.37a65.212,65.212,0,0,0-12.038.829c-9.211,1.56-14.914,7.115-17.3,16.717a52.31,52.31,0,0,0-1.755,15.01,247.28,247.28,0,0,1-2.534,40.549c-4.191,28.219-19.2,47.518-45.813,59.117-5.6,2.388-11.258,4.63-16.911,6.871-9.5,3.753-19.251,7.6-28.56,12.233a130.219,130.219,0,0,0-54.585,49.028c-1.948,3.071-3.752,6.19-5.6,9.212-4.287,7.258-8.722,14.738-13.723,21.764Zm-69.5,0c-20.85-18.259-33.466-43.091-37.556-74.155-2.437-19.007-1.365-38.355,3.265-59.117.731-3.217,1.51-6.385,2.242-9.6,2.047-8.772,4.191-17.789,5.459-26.854,1.8-13.109,1.12-27.146-2.048-42.839C478.769,248.506,471.946,228.67,462.3,212c-11.453-19.982-28.023-31.532-49.224-34.358a146.55,146.55,0,0,0-20.615-1.414c-24.368,0-48.785,5.8-74.713,17.789-3.656,1.657-7.262,3.411-10.917,5.117-11.307,5.458-22.906,11.063-35.237,14.474a132.237,132.237,0,0,1-30.314,4.972c-1.852.1-3.655.292-5.507.487-1.194.153-2.415.318-3.711.442v-1.979c3.052-.275,6.073-.794,9.121-.9a130.223,130.223,0,0,0,29.876-4.922c16.083-4.387,30.752-12.574,45.909-19.495,24.368-11.258,49.419-17.984,75.493-17.984a144.531,144.531,0,0,1,20.859,1.511C435.54,178.667,452.4,190.851,464,211.028c11.21,19.446,17.5,40.939,21.931,63.016,2.875,14.28,4.094,28.852,2.1,43.473-1.755,12.428-5.02,24.514-7.749,36.6-4.289,19.3-5.8,38.648-3.217,58.484,4.088,31.239,16.936,56.2,38.6,74.4Zm-37.29,0a137.6,137.6,0,0,1-7.235-13.333c-12.477-25.879-16.083-54.146-17.35-82.754-1.023-19.494,1.949-38.551,6.53-57.362,3.412-14.279,6.433-28.608,5.9-43.57-.682-22.663-6.336-43.717-17.935-62.772-11.6-18.91-28.462-26.708-48.395-26.708-1.024,0-2.1,0-3.168.1-14.67.536-28.755,5.02-41.864,12.037-12.087,6.336-23.15,14.426-34.018,22.76-25.636,19.836-54.341,31.679-85.337,37.576-.147.025-.3.054-.446.085v-1.974l.1-.012c32.507-6.189,60.092-18.374,84.508-37.235,12.184-9.357,22.712-16.862,34.262-22.955,14.134-7.554,28.51-11.7,42.692-12.281,1.121,0,2.193-.049,3.266-.049,21.98,0,38.794,9.259,50.052,27.634,11.4,18.715,17.5,40.158,18.228,63.747.535,15.449-2.681,30.314-5.946,44.106-5.312,21.687-7.359,39.768-6.482,56.777,1.121,25.294,4.045,54.877,17.155,82.023A138.867,138.867,0,0,0,477.672,487ZM445.6,487a163.038,163.038,0,0,1-8.793-39.017c-1.755-16.618-3.753-36.211-4.972-55.949-1.462-25.343.536-49.613,5.995-72.178,2.68-11.064,5.068-23,4.434-35.237-1.072-20.615-6.335-35.383-16.473-46.641-8.284-9.162-18.178-13.89-29.436-13.89a49.63,49.63,0,0,0-13.938,2.193c-14.085,4.191-27.634,12.574-41.329,25.586-23.978,22.76-51.563,41.329-84.314,56.632-7.613,3.575-15.67,7.857-24.716,13.185V319.5c7.826-4.61,15.781-8.983,23.936-12.75,30.606-14.329,58.727-32.507,83.777-56.29,12.233-11.6,25.977-21.3,42.06-26.074a53.346,53.346,0,0,1,14.523-2.193c11.5,0,21.98,4.581,30.9,14.523,11.989,13.208,16.034,30.119,16.961,47.811.634,12.184-1.657,24.075-4.484,35.821-5.7,23.491-7.359,47.469-5.946,71.593,1.17,18.666,2.974,37.138,4.972,55.852A161.609,161.609,0,0,0,447.7,487Zm-89.043,0c-5.987-6.5-12.249-12.713-18.636-18.84-14.231-13.646-30.46-24.27-47.664-32.994-19.655-9.993-39.218-20.171-58.2-31.651v-2.278c19.848,12.079,40.941,22.914,59.075,32.174,18.958,9.6,34.652,20.518,48.1,33.287,6.331,6.073,13.2,12.87,19.956,20.3Zm-23.886,0c-19.7-20.89-44.467-34.334-73.848-40.04-7.751-1.459-16.314-2.79-26.763-4.193v-1.982c9.067,1.243,18.131,2.589,27.153,4.274,29.763,5.761,55.383,19.3,76.126,41.941Zm-33.36,0a86.991,86.991,0,0,0-15.34-7.143c-10.625-3.7-21.346-4.63-32.166-4.63-6.141,0-12.38.292-18.569.536-.389.029-.782.07-1.176.115v-1.969l1.079-.095,3.021-.1c5.215-.243,10.43-.438,15.645-.438,8.968,0,20.811.536,32.848,4.728A89.331,89.331,0,0,1,303.095,487Zm83.009-22.836c-7.505-2.29-14.231-6.189-20.713-10.771-20.03-14.279-40.012-28.51-59.945-42.985-6.97-5.069-13.89-10.43-19.495-17.2-12.72-15.6-15.985-31.191-2.973-48.784a66.342,66.342,0,0,1,12.233-12.281c20.859-16.083,42.742-30.461,62.724-47.811,8.724-7.505,17.984-14.182,28.754-17.789a19.3,19.3,0,0,1,6.482-1.121c6.287,0,11.843,3.315,15.742,9.407a28.4,28.4,0,0,1,3.9,11.014c2.534,13.646-.049,27.049-1.218,40.646a264.533,264.533,0,0,0-1.17,40.744c.975,15.839,2.193,31.581,2.534,47.371.293,13.109-.926,25.927-5.507,38.209-2.974,8.188-8.042,12.379-14.962,12.379A22.288,22.288,0,0,1,382.319,464.164Zm1.219-195.823c-11.4,3.8-21.005,11.356-28.072,17.5C342.7,296.8,329,306.795,315.745,316.493c-7.6,5.556-15.5,11.355-23.1,17.2A61.892,61.892,0,0,0,280.8,345.54c-11.5,15.547-10.625,29.876,2.875,46.4,5.6,6.824,12.525,12.087,19.153,16.912,19.007,13.792,38.453,27.682,57.265,41.084l2.632,1.9c7.409,5.166,13.792,8.529,20.128,10.479a22.014,22.014,0,0,0,5.848.926c6.092,0,10.381-3.606,13.159-11.063,4-10.82,5.7-22.712,5.361-37.527-.244-12.721-1.121-25.587-1.949-38.161l-.585-9.162c-.731-11.892-.341-24.9,1.169-40.987.293-2.974.585-5.848.926-8.773,1.121-10.283,2.242-20.956.341-31.434a26.824,26.824,0,0,0-3.655-10.283c-3.461-5.507-8.529-8.529-14.085-8.529A18.042,18.042,0,0,0,383.538,268.341ZM503.819,430.78c-7.408-17.106-8.09-35.236-4.825-53.464,2.242-12.574,5.556-25,8.431-37.479a102.652,102.652,0,0,0,2.145-32.506,258.927,258.927,0,0,0-8.529-44.156c-6.433-23.3-12.379-46.738-22.954-68.425-3.509-7.213-7.652-14.134-13.306-19.495a73,73,0,0,0-29.826-16.375c-19.836-5.508-40.256-5.215-60.482-7.506-8.968-1.072-18.032-2.1-26.415-6.189-7.359-3.509-14.231-10.283-13.013-20.908a58.126,58.126,0,0,1,7.018-21.785C348.35,91.234,355.855,81,363.6,71.008,371.333,60.947,378.869,50.8,385.345,40h2.263c-6.621,11.187-14.411,21.689-22.493,32.179-7.262,9.455-14.913,19.787-21.3,31.191A56.831,56.831,0,0,0,337,124.521c-1.267,10.819,6.92,16.473,11.891,18.958,8.042,3.9,16.961,4.874,25.831,5.945,6.238.682,12.671,1.17,18.86,1.657,13.793,1.024,28.072,2.1,41.864,5.9A73.931,73.931,0,0,1,466.1,173.842c6.629,6.286,11.015,14.475,13.793,20.079,9.65,19.787,15.548,41.378,21.3,62.334l1.706,6.385a254.754,254.754,0,0,1,8.626,44.5,105.131,105.131,0,0,1-2.193,33.092c-.829,3.8-1.8,7.6-2.73,11.4-2.047,8.529-4.143,17.35-5.7,25.977-3.509,19.738-2,36.844,4.727,52.44,6.677,15.693,21.3,31.532,39.038,31.532.536,0,1.12,0,1.706-.049,9.065-.439,17.009-4.532,25-12.866,5.945-6.19,11.794-12.672,17.447-19.007,2.534-2.876,5.068-5.7,7.651-8.578,11.649-12.769,25.928-23.735,43.717-33.53,3.168-1.755,6.385-3.461,9.553-5.215,8.968-4.923,18.178-9.942,27-15.352a77.393,77.393,0,0,0,19.641-17.447c6.872-8.675,9.7-19.495,8.968-34.164-.682-13.647-4-27.391-10.868-44.691-7.067-17.643-18.861-29-35.187-33.677-19.885-5.9-42.449-12.427-62.627-24.319a252.894,252.894,0,0,1-41.328-30.46c-25.2-22.954-42.937-52.148-58.971-80.074-10.283-17.788-19.885-36.259-28.511-55.023Q466.194,43.488,464.7,40h2.109q1.365,3.163,2.8,6.3c8.626,18.763,18.178,37.088,28.462,54.877,16.57,28.949,34.067,57.265,58.63,79.586a241.187,241.187,0,0,0,40.987,30.168c19.543,11.551,40.792,17.935,62.187,24.222,17.643,5.02,29.389,17.2,36.407,34.8,5.75,14.474,10.234,29.339,11.014,45.324.634,13.11-1.316,25.246-9.406,35.529a81.393,81.393,0,0,1-20.128,17.837C665.77,376,653.341,382.482,641.109,389.3c-15.936,8.724-30.655,19.3-43.229,33.092-8.285,9.212-16.473,18.666-25.1,27.634-7.262,7.554-15.645,12.915-26.318,13.451-.634.049-1.267.049-1.8.049C526.481,463.531,511.08,447.886,503.819,430.78Zm920.433-7.749c-13.354-9.942-27.78-17.643-41.28-24.466-3.558-1.8-7.164-3.509-10.673-5.263-14.669-7.214-29.729-14.621-43.619-24.027-26.074-17.643-42.157-39.233-49.37-66.183a103.394,103.394,0,0,1-4-27.147V271.12c0-8.772,0-17.837,1.706-26.853,3.509-18.666,13.744-31.874,30.363-39.233,9.357-4.24,19.3-7.018,28.851-9.7,2.827-.78,5.654-1.56,8.481-2.389,14.816-4.337,34.31-10.576,52.586-20.664,17.257-9.545,28.741-23.365,34.758-42.073v5.737c-6.428,16.257-17.46,29.08-33.832,38.091-16.863,9.308-34.8,15.5-52.977,20.761-12.427,3.7-25.1,6.628-37.088,11.989-15.986,7.115-25.781,19.592-29.242,37.868-2,10.429-1.608,20.859-1.705,31.289a100.286,100.286,0,0,0,4,26.659c7.7,28.851,25.343,49.37,48.542,65.063,17.155,11.6,35.772,19.933,54.049,29.145,14.426,7.261,28.56,14.962,41.62,24.66,2.284,1.659,4.517,3.385,6.638,5.242v2.617A89.469,89.469,0,0,0,1424.252,423.031ZM1076.762,408.8c-12.574-2.827-21.834-11.161-27.243-25-4.289-10.722-5.41-22.078-5.995-30.752a723.724,723.724,0,0,0-11.063-91.186c-2.339-12.72-3.509-25.927-4.63-38.7l-.488-5.263c-2.242-24.856-9.7-44.546-22.857-60.433-4.387-5.263-9.212-10.088-13.987-14.864-2.925-2.924-5.9-5.946-8.822-9.016-10.381-11.161-17.35-24.27-21.249-40.11-1.316-5.117-2.583-10.381-3.8-15.6-1.754-7.505-3.558-15.3-5.7-22.954-1.378-5-2.932-9.982-4.584-14.927H948.4c1.584,4.763,3.077,9.568,4.423,14.439,3.509,12.769,6.19,25.733,9.455,38.6,3.753,15.108,10.478,28.121,20.859,39.184,7.554,8.09,15.742,15.547,22.857,23.978,14.669,17.74,21.249,38.6,23.344,61.505,1.267,14.719,2.389,29.437,5.02,43.862a728.839,728.839,0,0,1,11.16,91.381c.634,10.283,2,20.518,5.8,30.217,4.874,12.281,13.208,20.908,25.88,23.735a43.808,43.808,0,0,0,9.309.975c10.137,0,19.592-3.7,28.218-10.283,13.988-10.722,22.566-25.83,28.267-42.888,5.313-15.742,6.385-32.215,6.774-48.688.341-12.135.829-24.319,2.875-36.406,4.532-26.853,16.619-48.931,36.894-65.745,9.211-7.652,19.056-14.134,28.754-20.908,26.464-18.519,30.314-49.467,24.611-76.028-.925-3.9-3.119-7.164-5.458-10.235-6.385-8.139-15.011-10.234-24.223-11.6a143.081,143.081,0,0,0-18.86-1.023c-5.605,0-11.112.2-16.668.2-1.511,0-3.022-.05-4.532-.1a90.431,90.431,0,0,1-20.762-2.68c-26.023-6.873-47.7-21.5-66.235-41.487h2.689c19.206,20.36,40.205,33.325,64.034,39.587a86.628,86.628,0,0,0,20.274,2.681h4.532c2.827,0,5.556,0,8.334-.049,2.729-.049,5.507-.1,8.334-.1a148.419,148.419,0,0,1,19.153,1.072c8.627,1.267,18.374,3.315,25.44,12.282,2.437,3.167,4.825,6.676,5.848,11.063,3.363,15.742,7.7,54.877-25.392,77.978l-5.312,3.7c-7.8,5.409-15.839,10.917-23.345,17.106-19.543,16.277-31.727,37.966-36.162,64.526-2.1,12.379-2.534,24.661-2.924,36.211-.341,15.108-1.17,32.653-6.774,49.224-6.579,19.592-16.034,33.92-29.047,43.814-9.212,7.115-19.105,10.722-29.339,10.722A44.815,44.815,0,0,1,1076.762,408.8ZM539.348,387.5a82.554,82.554,0,0,1,1.462-18.325c3.021-20.031,2.729-39.672-1.949-59.361-4.484-18.909-11.064-37.088-15.3-56.144-2.29-10.479-4.143-21.1-3.8-31.971.341-10.576,4.776-16.083,12.769-16.083a23.666,23.666,0,0,1,5.995.926c10.234,2.777,19.1,8.674,28.023,14.377,17.155,10.966,34.115,22.37,51.026,33.774,11.209,7.456,22.272,15.06,31.484,25.537,8.626,9.748,13.938,20.714,13.4,34.847.683,10.526-3.655,19.25-10.478,26.853-8.821,9.7-19.4,16.765-30.411,22.954-15.5,8.724-31.143,17.156-45.764,27.536a101.812,101.812,0,0,1-14.962,9.211,20.4,20.4,0,0,1-8.48,2.1C544.855,403.731,539.786,397.883,539.348,387.5ZM521.7,221.8c-.341,10.917,1.608,21.542,3.753,31.435,2.242,10.04,5.166,20.03,7.993,29.68,2.534,8.577,5.166,17.5,7.311,26.464,4.532,19.153,5.215,38.794,1.949,60.092a81.059,81.059,0,0,0-1.414,17.983c.39,8.968,4.484,14.329,11.064,14.329a17.576,17.576,0,0,0,7.6-1.949,95.548,95.548,0,0,0,14.719-8.968c12.622-8.968,26.22-16.619,39.33-23.978l6.58-3.753c8.967-5.02,20.469-12.136,29.973-22.516,7.261-8.139,10.526-16.424,9.941-25.636.488-12.281-3.655-22.954-12.915-33.482-8.968-10.088-19.786-17.691-31.142-25.2-16.522-11.111-33.58-22.662-50.979-33.726l-1.9-1.267c-8.042-5.117-16.375-10.429-25.586-12.915a23.728,23.728,0,0,0-5.458-.779C525.6,207.617,522,212.393,521.7,221.8ZM347.717,394.081c-3.509-2.145-7.164-3.947-9.845-7.164a25.768,25.768,0,0,1-6.238-13.256,17.742,17.742,0,0,1,2.193-7.359c3.509-6.336,8.968-9.894,15.547-9.894v1.949c-5.848,0-10.625,3.071-13.841,8.87a16.917,16.917,0,0,0-1.949,6.141,23.026,23.026,0,0,0,5.751,12.233c2,2.436,4.678,4,7.457,5.7l1.9,1.121a12.5,12.5,0,0,0,6.141,1.949c5.9,0,9.113-6.872,9.162-13.3a30.941,30.941,0,0,0-3.314-13.744c-1.852-4.094-5.215-8.968-11.111-8.968l-.2-1.949h.244c5.945,0,10.185,4.191,12.818,10.186a32.889,32.889,0,0,1,3.508,14.572c-.049,7.554-4.045,15.157-11.111,15.157A13.832,13.832,0,0,1,347.717,394.081Zm726.072-37.868c-3.7-9.844-4.046-20.469-4.581-30.8-.829-15.352.1-30.7-.829-46.154-1.462-22.126-1.121-44.3-1.121-66.427a227.034,227.034,0,0,0-3.265-35.48c-2.291-14.572-6.677-28.511-10.04-42.839-2.34-9.8-5.849-19.3-5.41-29.778.293-7.651,4.484-12.086,11.745-12.379a24.709,24.709,0,0,1,2.68-.1v2h-2.583c-7.8.341-9.747,5.9-9.893,10.576-.292,7.7,1.608,14.718,3.606,22.272.585,2.339,1.219,4.63,1.754,6.92,1.073,4.874,2.34,9.65,3.558,14.378a284.948,284.948,0,0,1,6.531,28.657,230.507,230.507,0,0,1,3.265,35.772v10.527c-.1,18.325-.1,37.234,1.12,55.754.536,8.09.488,16.277.488,24.173-.049,7.213-.049,14.719.292,22.028l.1,2.1c.536,9.454,1.072,19.2,4.387,28.121,3.606,9.455,9.893,14.816,17.2,14.816a19.013,19.013,0,0,0,10.625-3.655,37.521,37.521,0,0,0,11.892-13.89c5.361-10.625,6.53-22.029,7.018-31.776.244-4.532.194-8.968.146-14.621-.049-2.924-.049-6.092-.049-9.553-.828-20.226,1.316-38.745,6.482-54.975,6.433-20.079,17.106-39.427,32.654-59.312,5.9-7.505,11.794-14.816,17.691-22.272l1.8-2.291a42.009,42.009,0,0,0,5.313-9.406c3.85-9.212,2.388-13.451-6.531-19.057-3.217-2-7.261-2.924-10.819-3.606-22.126-4.922-43.521-13.061-61.554-20.371-16.034-6.433-29.486-11.307-44.5-11.307v-2c15.986,0,30.607,5.6,45.228,11.5,20.03,8.091,40.208,15.6,61.261,20.274,3.9.78,7.993,1.706,11.4,3.8,10.04,6.336,11.355,11.892,7.31,21.541a43.08,43.08,0,0,1-5.556,9.8c-6.482,8.188-13.012,16.375-19.544,24.661-13.792,17.594-25.294,36.7-32.312,58.63-5.9,18.763-7.067,38.161-6.433,54.341,0,10.381.292,17.35,0,24.319-.585,11.307-2.145,22.322-7.311,32.507a39.069,39.069,0,0,1-12.476,14.67,20.764,20.764,0,0,1-11.746,4C1085.047,372.3,1077.883,366.984,1073.789,356.213Zm279.795-8.48c-26.22-7.505-51.27-32.8-54-63.113-2.193-23.881,7.408-46.835,27.682-57.265,18.373-9.5,37.625-13.451,57.314-13.451a168.481,168.481,0,0,1,23.588,1.706c8.285,1.275,16.064,4.3,23.89,7.229v2.086l-2.251-.835c-7.164-2.68-14.426-5.361-21.883-6.53a162.826,162.826,0,0,0-23.344-1.755c-20.664,0-39.135,4.387-56.437,13.306-18.666,9.6-28.851,30.752-26.658,55.315,2.826,30.948,29.241,54.731,52.635,61.408a115.119,115.119,0,0,0,32.117,4.387,159.068,159.068,0,0,0,39.574-5.361q3.112-.763,6.247-1.566v2.015q-2.875.737-5.76,1.5c-13.353,3.315-26.659,5.41-40.061,5.41A118.241,118.241,0,0,1,1353.584,347.733Zm22.663-29.777c-11.7,0-22.663-2.827-32.02-10.868-8.383-7.164-13.4-16.278-12.671-27.878.926-12.622,7.895-21.346,18.519-25.733a55.232,55.232,0,0,1,21.542-4.337c17.935,0,36.016,8.383,48.639,23.394,7.944,9.5,6.97,21.443-.779,29.144-12.038,11.94-26.123,16.083-41.913,16.278Zm-25.392-62.626c-10.527,4.338-16.522,12.622-17.35,23.979-.634,10.185,3.265,18.812,11.94,26.366,8.187,6.921,18.276,10.382,30.8,10.382h1.316c17.009-.244,29.924-5.264,40.549-15.79,7.408-7.359,7.7-18.032.634-26.513-11.892-14.182-29.534-22.613-47.129-22.613A51.664,51.664,0,0,0,1350.855,255.329ZM632.677,199.283c-31.727-4.63-56.193-23.15-75.883-49.516-9.991-13.451-18.275-28.12-26.609-42.644C517.9,85.775,504.453,65.209,494.9,42.206q-.459-1.1-.908-2.206h2.12q.292.709.592,1.427c7.31,17.593,17.058,34.067,26.512,49.954,2.924,4.874,5.8,9.8,8.675,14.719l.975,1.754c7.846,13.7,15.986,27.975,25.489,40.744,21.346,28.559,45.763,44.545,74.615,48.736a77.4,77.4,0,0,0,12.233.975c16.765,0,30.07-5.751,40.792-17.447,6.676-7.408,10.234-17.058,13.3-26.366,5.6-16.327,8.87-33.677,12.038-50.539l.732-3.9A276.418,276.418,0,0,1,729.865,40h2.129a276.83,276.83,0,0,0-18.024,60.4c-3.461,18.422-6.726,37.04-12.818,54.779-3.265,9.747-6.921,19.4-13.744,27-11.989,13.159-26.61,18.13-42.206,18.13A85.064,85.064,0,0,1,632.677,199.283Zm132.563-23.15a22.3,22.3,0,0,1-22.273-18.178c-2.729-14.232-.828-27.634,7.944-39.331A14.787,14.787,0,0,1,762.8,112.24a14.962,14.962,0,0,1,9.163,3.265c10.575,8.139,15.791,19.592,16.96,33.092,1.463,17.155-7.067,27.536-21.98,27.536Zm-12.769-56.339c-7.944,10.625-10.429,23-7.6,37.77a20.51,20.51,0,0,0,20.372,16.668,10.631,10.631,0,0,0,1.706-.1c6.287,0,11.453-2,14.913-5.751,4.045-4.435,5.848-11.209,5.117-19.641-1.169-13.646-6.628-24.32-16.229-31.63a12.645,12.645,0,0,0-7.944-2.876A12.9,12.9,0,0,0,752.471,119.794ZM585.306,153.86c-12.866-11.843-21.4-27-28.949-41.523-6.629-12.525-13.549-25.1-20.323-37.235-4.24-7.7-8.529-15.4-12.721-23.1-2.241-4.185-4.259-8.169-6.069-12H519.4c1.779,3.72,3.665,7.39,5.618,11.027,11.014,20.226,22.321,40.062,33.043,60.385,7.8,14.913,16.18,29.632,28.56,40.987,13.11,12.038,27.682,20.47,45.13,20.47a41.333,41.333,0,0,0,4.191-.2c13.646-.926,25.2-6.92,33.872-18.471,10.576-13.988,14.67-30.558,17.2-47.761,2.1-14.232,2.777-28.56,3.753-42.986.511-7.846,1.284-15.662,2.2-23.455h1.957c-.931,7.853-1.711,15.741-2.213,23.6l-.438,6.287c-.779,12.087-1.56,24.612-3.314,36.844-2.339,15.6-6.189,33.58-17.594,48.64-8.821,11.794-20.713,18.275-35.284,19.3-1.511.1-2.925.146-4.338.146C615.864,174.817,600.658,167.945,585.306,153.86Zm721.345,15.5c-15.352-3.412-20.031-7.895-24.417-23.881a80.037,80.037,0,0,1-2.632-24.758c-.779-4.971.488-10.576.926-16.229a126.521,126.521,0,0,1,5.361-28.267c3.314-10.235,9.747-15.108,19.689-16.424a90.671,90.671,0,0,1,11.4-.731v1.948a91.815,91.815,0,0,0-11.112.683c-9.553,1.267-15.157,5.9-18.081,15.108a126.486,126.486,0,0,0-5.361,27.828c-.1,1.657-.292,3.314-.438,4.922-.488,3.9-.975,7.6-.39,11.258a77.029,77.029,0,0,0,2.534,24.173c4.142,15.157,8.236,19.105,22.954,22.468a43.528,43.528,0,0,0,9.553.926c8.09,0,16.083-1.9,25.44-4.825,13.938-4.288,23.881-9.991,31.288-18.081,10.868-11.843,16.521-26.464,15.4-40.256-.975-11.5-6.58-21.542-16.181-29.145a55.275,55.275,0,0,0-20.371-9.8c-9.5-2.437-22.077-5.264-35.236-5.264V59.069c12.086,0,23.978,2.291,35.724,5.312a56.528,56.528,0,0,1,21.005,10.186c24.66,19.25,20.615,51.026,1.072,72.227-8.772,9.5-20.177,14.962-32.117,18.666-8.577,2.68-17.252,4.922-26.024,4.922A46.691,46.691,0,0,1,1306.651,169.358ZM590.813,132.514c-8.578-9.7-14.913-21.249-20.323-33.239-8.675-19.007-18.081-37.478-28.17-55.657q-1.009-1.8-1.987-3.619h2.232q.714,1.312,1.461,2.644C554.7,61.895,563.91,80.171,572.244,98.5c6.433,14.134,12.818,24.563,20.03,32.751,10.576,11.94,21.834,17.74,34.262,17.74a37.794,37.794,0,0,0,5.7-.39c11.014-1.56,19.982-8.383,26.512-20.274,5.556-10.186,8.431-22.37,9.113-38.453.488-11.063-.244-22.468-.975-33.433-.146-2.827-.293-5.7-.487-8.528-.136-2.622-.22-5.263-.269-7.908h1.955c.049,2.6.131,5.209.263,7.81.779,14.085,2.1,28.17,1.462,42.157-.585,13.7-2.777,27.244-9.309,39.281-6.384,11.5-15.4,19.495-28.023,21.3a41.806,41.806,0,0,1-5.945.438C612.4,150.985,600.755,143.772,590.813,132.514Zm297.876,1.12c-10.77-5.215-18.617-13.987-24.807-24.417-5.312-9.113-9.26-18.763-9.8-29.632-.293-3.9.828-7.505,1.754-11.258,3.119-11.94,17.691-24.319,31.094-24.319a18.562,18.562,0,0,1,11.4,3.7c5.264,3.8,8.481,8.772,10.771,14.719,4.971,12.623,5.6,25.733,3.509,39.135-1.414,9.26-2.778,18.569-7.311,26.757-2.583,4.873-5.9,7.164-9.845,7.164A16.139,16.139,0,0,1,888.689,133.635Zm-31-64.868-.2,1.12c-.877,3.217-1.706,6.385-1.51,9.6.487,9.26,3.558,18.374,9.65,28.657,6.726,11.452,14.523,19.251,23.929,23.686a13.108,13.108,0,0,0,5.9,1.657c3.265,0,5.946-2,8.14-6.092,4.289-7.749,5.653-16.717,7.017-25.44l.1-.682c2.193-14.085,1.072-26.513-3.412-38.161-2.436-6.189-5.6-10.576-10.088-13.793a16.641,16.641,0,0,0-10.283-3.314C874.946,46.007,860.764,57.021,857.693,68.767ZM409.709,115.115a13.935,13.935,0,0,1-9.5-12.769c0-5.9.878-7.652,7.6-14.816,4.923-5.166,10.479-7.652,15.791-7.652v1.949c-5.02,0-9.991,2.437-14.377,7.067-6.629,7.067-7.067,8.237-7.067,13.451a11.838,11.838,0,0,0,8.042,10.868,52.006,52.006,0,0,0,12.72,1.706,39.133,39.133,0,0,0,9.26-1.072,11.78,11.78,0,0,0,8.285-6.19c1.852-3.606,1.754-8.236-.293-12.915-3.509-8.187-9.553-12.915-16.57-12.915V79.879c7.457,0,14.377,4.874,18.374,14.085,4.337,10.088.292,19.494-9.357,21.785a41.57,41.57,0,0,1-9.7,1.169A53.249,53.249,0,0,1,409.709,115.115Zm204.644-8.87c-4.922-2.778-7.993-7.115-10.527-11.4-3.85-6.141-7.018-13.354-10.088-22.565A263.913,263.913,0,0,0,579.945,40h2.178a262.761,262.761,0,0,1,13.466,31.594,103.106,103.106,0,0,0,9.893,22.224c2.534,4.338,5.41,8.285,9.845,10.723a13.6,13.6,0,0,0,6.433,1.8c4.143,0,7.652-2.486,10.039-7.31A38.122,38.122,0,0,0,634.919,77.3a305.888,305.888,0,0,0-6.239-32.507Q628.118,42.4,627.59,40h1.993q.478,2.152,1,4.351a311.756,311.756,0,0,1,6.287,32.75,40.265,40.265,0,0,1-3.314,22.76c-2.681,5.41-6.872,8.481-11.794,8.481A15.722,15.722,0,0,1,614.353,106.245Zm-360.795-15.6q-10.75-1.89-21.5-3.7V84.915L253.9,88.7a75.612,75.612,0,0,0,12.282,1.072c14.231,0,27.925-4.532,40.6-13.4A136.5,136.5,0,0,0,342.564,40h2.327A138.775,138.775,0,0,1,307.9,77.978c-12.915,9.016-26.853,13.7-41.718,13.7A80.034,80.034,0,0,1,253.558,90.649ZM1426.737,62.187c-5.019-9.26-12.915-15.888-25.44-21.639q-.614-.279-1.233-.549h4.572c9.674,4.732,18.2,10.994,23.807,21.213q2.006,3.684,3.615,7.449v5.42A83.579,83.579,0,0,0,1426.737,62.187ZM1138.352,40h3.579c14.545,9.092,30.468,12.2,47.119,12.2,4.094,0,8.237-.2,12.38-.536,12.574-1.072,25.148-2.144,37.722-3.46,8.285-.975,16.473-1.852,24.563-4.046A19.464,19.464,0,0,0,1271.53,40h2.8a20.552,20.552,0,0,1-10.076,6.008c-8.188,2.29-16.571,3.168-24.9,4.094-12.866,1.413-25.733,2.485-37.722,3.508-4.387.342-8.675.536-12.574.536C1168.751,54.146,1152.423,49.634,1138.352,40Z" transform="translate(-231.559 -39.5)" fill="#fff" stroke="rgba(0,0,0,0)" stroke-miterlimit="10" stroke-width="1" opacity="0.1"/>
</svg>
