<svg xmlns="http://www.w3.org/2000/svg" width="16" height="16" viewBox="0 0 16 16">
  <g id="Group_2773" data-name="Group 2773" transform="translate(-1155.999 -1493)">
    <rect id="Rectangle_1442" data-name="Rectangle 1442" width="16" height="16" rx="2" transform="translate(1155.999 1493)" fill="#0077b7"/>
    <g id="linkedin_1_" data-name="linkedin(1)" transform="translate(1158.671 1495.671)">
      <path id="Path_3138" data-name="Path 3138" d="M15.353,14.846h0v-3.9c0-1.906-.41-3.375-2.639-3.375a2.314,2.314,0,0,0-2.084,1.145H10.6V7.752H8.489v7.093h2.2V11.333c0-.925.175-1.819,1.321-1.819,1.128,0,1.145,1.055,1.145,1.878v3.454Z" transform="translate(-4.67 -4.16)" fill="#fff"/>
      <path id="Path_3139" data-name="Path 3139" d="M.4,7.977H2.6V15.07H.4Z" transform="translate(-0.221 -4.384)" fill="#fff"/>
      <path id="Path_3140" data-name="Path 3140" d="M1.276,0A1.282,1.282,0,1,0,2.552,1.276,1.276,1.276,0,0,0,1.276,0Z" fill="#fff"/>
    </g>
  </g>
</svg>
