<svg xmlns="http://www.w3.org/2000/svg" width="40" height="40" viewBox="0 0 40 40">
  <g id="Group_3108" data-name="Group 3108" transform="translate(-439 -582)">
    <circle id="Ellipse_8" data-name="Ellipse 8" cx="20" cy="20" r="20" transform="translate(439 582)" fill="#0070bd"/>
    <path id="Shape_5" data-name="Shape 5" d="M1493.289,2901.594v-10.055h3.076v10.055Zm11.552,0v-.461c0-1.532.015-3.065-.008-4.6a5.327,5.327,0,0,0-.188-1.384,1.61,1.61,0,0,0-3.029-.021,5.509,5.509,0,0,0-.193,1.464c-.023,1.5-.009,3.01-.009,4.514v.476h-3.127v-10.029h3.013v1.141l.1.06c.118-.139.225-.289.356-.416a3.643,3.643,0,0,1,3.992-.813,3.173,3.173,0,0,1,2.166,3.1c.1,2.273.06,4.551.077,6.829a.535.535,0,0,1-.042.135Zm-11.849-13.173a1.854,1.854,0,0,1,1.848-1.851,1.834,1.834,0,0,1-.009,3.668h-.009A1.845,1.845,0,0,1,1492.991,2888.419Z" transform="translate(-1040.99 -2293.568)" fill="#fff"/>
  </g>
</svg>
