<svg width="42" height="42" viewBox="0 0 42 42" fill="none" xmlns="http://www.w3.org/2000/svg">
<mask id="mask0_3402_405" style="mask-type:alpha" maskUnits="userSpaceOnUse" x="0" y="0" width="42" height="42">
<rect width="42" height="42" fill="#D9D9D9"/>
</mask>
<g mask="url(#mask0_3402_405)">
<path d="M5 36.4722C5.07354 35.7697 5.19352 35.0692 5.21287 34.3648C5.23222 33.6603 5.16837 32.8959 5.15095 32.1625C5.13353 31.3884 5.37736 31.0827 6.13982 30.9104C6.59072 30.8079 7.0513 30.7343 7.49446 30.6008C8.06836 30.4061 8.5599 30.0236 8.88973 29.5152C9.11034 29.2075 9.30578 28.8805 9.52639 28.5728C9.65649 28.3804 9.80774 28.2032 9.97729 28.0445C10.0738 27.9267 10.1956 27.8321 10.3335 27.7676C10.4715 27.7031 10.6222 27.6704 10.7744 27.6719C10.9267 27.6734 11.0767 27.709 11.2134 27.7762C11.3501 27.8433 11.4699 27.9403 11.5641 28.0599C12.0982 28.5983 12.5857 29.1809 13.0213 29.8016C14.523 31.9922 15.9919 34.2061 17.4723 36.4141C17.661 36.7673 17.7294 37.1724 17.6673 37.5681C17.6051 37.9637 17.4157 38.3284 17.1278 38.6067C16.5391 39.3023 15.7428 39.7907 14.8559 40.0001H14.4147C14.2424 39.9459 14.0663 39.8975 13.898 39.8336C11.7183 39.038 9.47064 38.4427 7.18289 38.0552C6.75989 38.0297 6.34712 37.9147 5.97183 37.7179C5.59654 37.5211 5.26729 37.2469 5.0058 36.9134L5 36.4722Z" fill="#FFD133"/>
<path d="M23.6693 11.3937C24.0376 11.0019 24.2776 10.507 24.3571 9.97519C24.4366 9.44334 24.352 8.89987 24.1144 8.41744C23.9955 8.09141 23.7806 7.80906 23.498 7.60765C23.2154 7.40624 22.8784 7.29521 22.5314 7.28921C22.1775 7.2742 21.8281 7.37306 21.5344 7.57124C21.2408 7.76942 21.0185 8.05649 20.9001 8.39033C20.7285 8.92831 20.6029 9.47989 20.5246 10.0391H19.17C19.1535 9.62072 19.1102 9.20379 19.0403 8.79092C18.9646 8.44613 18.8261 8.11816 18.632 7.82333C18.5418 7.66041 18.4095 7.52464 18.2491 7.43009C18.0886 7.33555 17.9058 7.28567 17.7196 7.28567C17.5333 7.28567 17.3505 7.33555 17.19 7.43009C17.0296 7.52464 16.8974 7.66041 16.8071 7.82333C16.4845 8.33832 16.3108 8.93264 16.3053 9.54033C16.2999 10.148 16.4628 10.7453 16.7761 11.266C16.8361 11.3551 16.9019 11.4421 16.9813 11.5524L16.5575 11.9066C16.4351 11.99 16.3309 12.0973 16.251 12.222C16.1711 12.3467 16.1173 12.4863 16.0927 12.6323C16.0682 12.7784 16.0733 12.9278 16.108 13.0718C16.1426 13.2158 16.206 13.3513 16.2943 13.4702C16.9097 14.283 16.5788 15.1596 16.6001 16.015C16.5924 16.0751 16.5627 16.1302 16.5169 16.1698C15.7485 16.9818 15.191 17.9699 14.8932 19.0474C14.6997 19.5893 14.5662 20.1485 14.3765 20.6885C14.2657 20.9715 14.1324 21.2452 13.9779 21.507C13.1958 22.7421 12.6779 24.1258 12.4568 25.5709C12.3991 26.4366 12.3849 27.3047 12.4142 28.1718C12.4142 28.2937 12.5555 28.4369 12.6678 28.5298C13.8579 29.5265 15.0713 30.4979 16.244 31.5158C16.5874 31.8295 16.8741 32.2 17.0916 32.6111C17.1682 32.7307 17.213 32.8678 17.2218 33.0095C17.2306 33.1512 17.2031 33.2928 17.1419 33.4209C17.0806 33.549 16.9877 33.6593 16.8719 33.7415C16.7561 33.8236 16.6212 33.8748 16.4801 33.8903C16.3608 33.911 16.238 33.892 16.1306 33.836C16.0233 33.78 15.9373 33.6903 15.886 33.5807C14.9803 32.1854 14.0746 30.7882 13.1322 29.4181C12.7116 28.8456 12.2594 28.2971 11.7776 27.7751C11.671 27.626 11.5305 27.5043 11.3678 27.4199C11.2051 27.3354 11.0248 27.2908 10.8415 27.2894C10.6582 27.2881 10.4772 27.3302 10.3133 27.4123C10.1494 27.4943 10.0073 27.614 9.8985 27.7616L9.7282 27.9144C9.49671 27.4754 9.44869 26.9625 9.59468 26.4882C9.6675 26.2807 9.75281 26.0778 9.85013 25.8806C10.421 24.5975 11.0403 23.3338 11.5512 22.0295C12.265 20.3235 13.2262 18.7319 14.4036 17.3058C14.8042 16.7949 15.2009 16.2801 15.5551 15.7383C15.68 15.5166 15.7422 15.265 15.735 15.0106C15.7466 12.2549 15.7118 9.49921 15.7525 6.74544C15.7258 5.85418 15.9721 4.97606 16.4584 4.22866C16.9447 3.48127 17.6477 2.9003 18.4733 2.56352C19.2323 2.2091 20.057 2.01752 20.8944 2.00115C21.7319 1.98478 22.5635 2.14398 23.3357 2.46847C24.1079 2.79295 24.8036 3.27555 25.378 3.88519C25.9524 4.49483 26.3928 5.21801 26.6708 6.00815C27.0841 7.17114 27.2489 8.40789 27.1546 9.63854C27.0618 11.3133 27.4657 12.9782 28.3157 14.4243C29.591 16.4407 30.9417 18.4088 32.1861 20.4466C33.251 22.0966 33.9462 23.9577 34.2238 25.9019C34.2969 26.7222 34.1947 27.5488 33.9238 28.3266C33.8848 28.4226 33.8172 28.5043 33.7303 28.5608C33.3123 28.8472 32.8769 29.1084 32.4666 29.4065C32.1386 29.6982 31.7935 29.9703 31.4333 30.2212C31.049 30.4277 30.633 30.5689 30.2025 30.6392C29.9578 30.6855 29.7047 30.6387 29.4928 30.508C29.2808 30.3773 29.1254 30.1722 29.0569 29.9328C28.9742 29.4016 28.776 28.8949 28.4763 28.4485C28.4202 28.3905 28.4589 28.2357 28.4608 28.1273C28.5591 26.2678 28.4107 24.4035 28.0196 22.583C27.7321 21.6883 27.3783 20.8164 26.961 19.9744C26.0979 17.9366 25.229 15.9105 24.3718 13.865C24.3494 13.7549 24.3644 13.6405 24.4143 13.5399C24.4821 13.358 24.5943 13.1915 24.6562 13.0077C24.931 12.193 24.7975 11.8969 24.0215 11.5563C23.9054 11.5041 23.8106 11.4576 23.6693 11.3937Z" fill="#2E2E2E"/>
<path d="M26.0977 36.7506C26.2563 34.9683 26.3995 33.5188 26.506 32.0674C26.5698 31.1888 26.5679 30.3064 26.6047 29.4259C26.6279 28.8569 26.9607 28.5667 27.6013 28.5338C28.2863 28.4989 28.4856 28.6595 28.5863 29.3213C28.6056 29.4413 28.6308 29.5613 28.6443 29.6832C28.6463 29.8712 28.6889 30.0565 28.7692 30.2265C28.8494 30.3965 28.9655 30.5471 29.1095 30.668C29.2534 30.789 29.4217 30.8774 29.6029 30.9272C29.7842 30.977 29.9741 30.987 30.1596 30.9566C30.8646 30.9222 31.5289 30.6164 32.0135 30.1032C32.2592 29.8632 32.4934 29.6136 32.7431 29.3775C32.8488 29.2754 32.968 29.1882 33.0972 29.1182C33.1861 29.0501 33.2931 29.0099 33.4048 29.0027C33.5165 28.9956 33.6278 29.0217 33.7246 29.0779C33.8214 29.1341 33.8993 29.2177 33.9485 29.3183C33.9977 29.4188 34.016 29.5317 34.0009 29.6426C34.0009 29.9832 34.0009 30.3257 34.0009 30.6683C34.0076 30.9202 34.0672 31.1679 34.1759 31.3953C34.2846 31.6227 34.44 31.8247 34.6318 31.9881C34.984 32.2919 35.3555 32.5686 35.7174 32.8628C35.9109 33.0156 36.1045 33.1666 36.2844 33.3291C36.4522 33.4266 36.5901 33.5681 36.6832 33.7383C36.7762 33.9085 36.8209 34.101 36.8123 34.2948C36.8037 34.4887 36.7422 34.6764 36.6345 34.8378C36.5268 34.9991 36.3769 35.1279 36.2012 35.2101C35.6613 35.5971 35.0769 35.903 34.5215 36.259C33.3463 36.9931 32.2732 37.8794 31.3304 38.8947C31.0256 39.2226 30.6554 39.4827 30.2437 39.6584C29.832 39.8341 29.388 39.9213 28.9404 39.9145C28.6347 39.9242 28.3289 39.9145 28.0232 39.9145C27.6324 39.9619 27.2386 39.8556 26.9248 39.618C26.611 39.3804 26.4018 39.0301 26.3414 38.6412C26.2226 38.0164 26.1412 37.3851 26.0977 36.7506V36.7506Z" fill="#FFD133"/>
<path d="M18.1188 10.9178C18.2605 10.8478 18.3958 10.7656 18.5232 10.672C18.8668 10.3921 19.285 10.219 19.726 10.1743C20.1669 10.1296 20.6113 10.2152 21.0041 10.4205C21.3118 10.5346 21.6079 10.6797 21.8459 10.7842C21.7443 10.3996 21.6738 10.0075 21.635 9.61155C21.6182 9.41281 21.6691 9.21422 21.7794 9.04806C21.8898 8.88189 22.053 8.75789 22.2426 8.69619C22.5065 8.62455 22.7878 8.65496 23.0303 8.78135C23.2297 8.91698 23.382 9.11133 23.4659 9.33744C23.5498 9.56354 23.5612 9.81018 23.4986 10.0431C23.4825 10.2587 23.3992 10.4637 23.2603 10.6294C23.1214 10.795 22.934 10.9128 22.7245 10.9662C22.6684 10.9817 22.6161 11.0088 22.4845 11.0629C23.0167 11.3068 23.485 11.5196 23.9533 11.7344C24.4217 11.9493 24.5165 12.135 24.4333 12.6498C24.4069 12.8871 24.3263 13.1153 24.1978 13.3166C24.0693 13.5179 23.8963 13.687 23.6921 13.8109C22.7787 14.3547 21.8866 14.9391 20.9345 15.4016C20.5121 15.623 20.0323 15.7109 19.5589 15.6535C19.0854 15.5961 18.6406 15.3963 18.2833 15.0804C17.7399 14.6265 17.223 14.1419 16.7351 13.629C16.6086 13.5158 16.5102 13.3748 16.4477 13.217C16.3852 13.0591 16.3604 12.8889 16.3753 12.7198C16.3901 12.5508 16.4442 12.3875 16.5332 12.243C16.6222 12.0984 16.7437 11.9767 16.888 11.8873L18.0917 10.9313L18.1188 10.9178ZM16.946 13.3542C17.3285 13.6665 17.7731 13.894 18.2502 14.0214C18.7273 14.1489 19.2261 14.1734 19.7134 14.0934C21 13.7777 22.2029 13.1868 23.2393 12.3614C23.3253 12.2853 23.4036 12.2011 23.4734 12.1099L23.4192 12.0344C23.307 12.0905 23.189 12.1408 23.0806 12.2047C22.5213 12.5337 21.9737 12.8801 21.4066 13.1916C20.5236 13.7864 19.4423 14.0108 18.3955 13.8167C17.904 13.6928 17.4376 13.509 16.946 13.3542V13.3542ZM23.2257 9.44318C23.0322 9.24966 22.86 9.08322 22.68 8.92841C22.6158 8.97341 22.5573 9.02606 22.5058 9.08517C22.6626 9.29998 22.8329 9.5051 22.9993 9.71023L23.2257 9.44318Z" fill="#FFD133"/>
<path d="M17.8203 38.4544C18.0374 38.1024 18.1343 37.6895 18.0967 37.2777C18.059 36.866 17.8886 36.4776 17.6113 36.1709C19.0837 36.4351 20.5967 36.3634 22.0375 35.9613C23.4784 35.5593 24.8099 34.8371 25.9327 33.8486L25.6617 38.3847C23.0699 37.88 20.4028 37.9038 17.8203 38.4544V38.4544Z" fill="#2E2E2E"/>
<path d="M18.1129 10.9159L18.0762 10.9353C17.9546 10.9781 17.8246 10.9918 17.6968 10.9752C17.5689 10.9586 17.4467 10.9122 17.3401 10.8396C17.2335 10.7671 17.1455 10.6706 17.0831 10.5578C17.0207 10.445 16.9856 10.3191 16.9808 10.1902C16.9279 9.98838 16.9213 9.77715 16.9615 9.57239C17.0017 9.36763 17.0877 9.17463 17.2131 9.00781C17.2656 8.91613 17.3414 8.83995 17.4328 8.78696C17.5242 8.73398 17.628 8.70605 17.7336 8.70605C17.8393 8.70605 17.9431 8.73398 18.0345 8.78696C18.1259 8.83995 18.2017 8.91613 18.2542 9.00781C18.443 9.29738 18.5315 9.64098 18.506 9.98574C18.4804 10.3305 18.3423 10.6573 18.1129 10.9159V10.9159ZM18.3064 9.85156C18.1419 9.59998 17.9852 9.34065 17.8033 9.09876C17.7685 9.05231 17.6098 9.0504 17.5478 9.08523C17.4859 9.12006 17.4763 9.2439 17.4995 9.30776C17.5916 9.55627 17.7023 9.79756 17.8304 10.0296C17.8597 10.071 17.8986 10.1046 17.9438 10.1275C17.9889 10.1504 18.039 10.162 18.0897 10.1612C18.169 10.1457 18.2116 10.0083 18.3142 9.85156H18.3064Z" fill="#2E2E2E"/>
</g>
</svg>
