<svg width="70" height="70" viewBox="0 0 70 70" fill="none" xmlns="http://www.w3.org/2000/svg">
<circle cx="35" cy="35" r="35" fill="#DFE6EF"/>
<g clip-path="url(#clip0_1707_237)">
<path d="M27.3689 35.9923C26.4935 35.9923 25.7793 35.2776 25.7793 34.4014V28.3761C25.7793 23.2116 29.9876 19 35.1558 19C40.3241 19 44.5324 23.2116 44.5324 28.3838V30.6817C44.5324 31.5579 43.8182 32.2726 42.9427 32.2726C42.0673 32.2726 41.3531 31.5579 41.3531 30.6817V28.3838C41.3531 24.9638 38.5732 22.1817 35.1558 22.1817C31.7385 22.1817 28.9586 24.9638 28.9586 28.3838V34.4091C28.9586 35.2776 28.2444 35.9923 27.3689 35.9923Z" fill="#51596A"/>
<path d="M43.8572 53H26.1102C24.39 53 23 51.6089 23 49.8874V37.0375C23 35.316 24.39 33.9249 26.1102 33.9249H43.8572C45.5774 33.9249 46.9674 35.316 46.9674 37.0375V49.8874C46.9674 51.6089 45.5774 53 43.8572 53Z" fill="#FFBD53"/>
<path d="M37.1836 41.4642C37.1836 42.3481 36.6691 43.1089 35.9242 43.4547V46.7133C35.9242 47.2359 35.5018 47.6509 34.9873 47.6509C34.4651 47.6509 34.0504 47.2283 34.0504 46.7133V43.4547C33.3055 43.1012 32.791 42.3404 32.791 41.4642C32.791 40.25 33.774 39.2585 34.995 39.2585C36.2007 39.2585 37.1836 40.25 37.1836 41.4642Z" fill="#51596A"/>
<path d="M54.9996 32.9797C54.9996 33.5023 54.5772 33.9173 54.0627 33.9173H49.9388C49.4166 33.9173 49.002 33.4946 49.002 32.9797C49.002 32.4571 49.4243 32.0421 49.9388 32.0421H54.0627C54.5772 32.0421 54.9996 32.4647 54.9996 32.9797Z" fill="#51596A"/>
<path d="M54.3321 27.0773C54.5625 27.5461 54.3705 28.1072 53.9021 28.3377L50.2006 30.1515C49.7322 30.382 49.1716 30.1899 48.9412 29.7211C48.7108 29.2523 48.9028 28.6913 49.3712 28.4607L53.0727 26.647C53.5411 26.4241 54.1094 26.6162 54.3321 27.0773Z" fill="#51596A"/>
<path d="M48.9412 36.2459C48.7108 36.7147 48.9028 37.2757 49.3712 37.5063L53.0727 39.3201C53.5411 39.5506 54.1017 39.3585 54.3321 38.8897C54.5625 38.4209 54.3705 37.8598 53.9021 37.6293L50.2006 35.8155C49.7322 35.585 49.1716 35.7848 48.9412 36.2459Z" fill="#51596A"/>
</g>
<defs>
<clipPath id="clip0_1707_237">
<rect width="32" height="34" fill="white" transform="translate(23 19)"/>
</clipPath>
</defs>
</svg>
