<svg xmlns="http://www.w3.org/2000/svg" width="159" height="159" viewBox="0 0 159 159" fill="none">
    <path d="M79.1974 154.564C120.577 154.564 154.121 135.197 154.121 111.306C154.121 87.4159 120.577 68.0488 79.1974 68.0488C37.818 68.0488 4.27344 87.4159 4.27344 111.306C4.27344 135.197 37.818 154.564 79.1974 154.564Z" fill="#F0F0F0"/>
    <path d="M122.228 126.316C117.315 123.479 117.315 118.881 122.228 116.045C127.141 113.208 135.107 113.208 140.02 116.045C144.933 118.881 144.933 123.479 140.02 126.316C135.107 129.153 127.141 129.153 122.228 126.316Z" fill="#E0E0E0"/>
    <path d="M22.2978 126.71L9.37429 119.25C8.64607 118.83 8.64607 118.147 9.37429 117.727L84.5463 74.3261C84.9548 74.1191 85.4064 74.0112 85.8644 74.0112C86.3224 74.0112 86.774 74.1191 87.1825 74.3261L100.109 81.7864C100.837 82.2062 100.837 82.8899 100.109 83.3096L24.9372 126.71C24.5281 126.917 24.076 127.025 23.6175 127.025C23.159 127.025 22.7069 126.917 22.2978 126.71Z" fill="#E0E0E0"/>
    <path d="M68.7516 113.411L79.8625 106.988C81.0073 106.326 81.5797 105.461 81.5797 104.593C81.5797 103.725 81.5797 103.048 81.5797 103.048L70.0554 96.5479C69.7335 96.3397 69.4654 96.0583 69.2731 95.7267C69.0808 95.3951 68.9696 95.0227 68.9488 94.6399V80.9373L49.5508 92.1499V105.846C49.5731 106.229 49.6849 106.6 49.8771 106.932C50.0693 107.263 50.3366 107.545 50.6574 107.754L60.4645 113.402C62.7478 114.734 66.462 114.734 68.7516 113.411Z" fill="#FF725E"/>
    <g opacity="0.6">
    <path d="M68.7516 113.411L79.8625 106.988C81.0073 106.326 81.5797 105.461 81.5797 104.593C81.5797 103.725 81.5797 103.048 81.5797 103.048L70.0554 96.5479C69.7335 96.3397 69.4654 96.0583 69.2731 95.7267C69.0808 95.3951 68.9696 95.0227 68.9488 94.6399V80.9373L49.5508 92.1499V105.846C49.5731 106.229 49.6849 106.6 49.8771 106.932C50.0693 107.263 50.3366 107.545 50.6574 107.754L60.4645 113.402C62.7478 114.734 66.462 114.734 68.7516 113.411Z" fill="black"/>
    </g>
    <path opacity="0.3" d="M54.2056 108.272V109.812L50.6503 107.761C50.3295 107.551 50.0625 107.27 49.8708 106.938C49.6791 106.607 49.5681 106.235 49.5469 105.853V92.1499L53.242 90.0161C53.3184 90.9542 53.401 91.9241 53.4805 92.8781L50.8825 94.3727V105.073C50.9031 105.456 51.0141 105.829 51.2065 106.16C51.3988 106.492 51.667 106.773 51.9891 106.981L54.2056 108.272Z" fill="black"/>
    <path d="M50.8828 105.077C50.9047 105.459 51.0162 105.831 51.2085 106.163C51.4007 106.494 51.6682 106.776 51.9895 106.985L60.4546 111.863C62.7442 113.183 66.4585 113.186 68.7512 111.863L79.8812 105.439C82.174 104.116 82.174 101.973 79.8812 100.65L71.4097 95.772C71.0893 95.5626 70.8225 95.2808 70.6308 94.9494C70.4392 94.618 70.328 94.2462 70.3063 93.864V83.1602L50.9083 94.3728L50.8828 105.077Z" fill="#FF725E"/>
    <path opacity="0.3" d="M50.8828 105.077C50.9047 105.459 51.0162 105.831 51.2085 106.163C51.4007 106.494 51.6682 106.776 51.9895 106.985L60.4546 111.863C62.7442 113.183 66.4585 113.186 68.7512 111.863L79.8812 105.439C82.174 104.116 82.174 101.973 79.8812 100.65L71.4097 95.772C71.0893 95.5626 70.8225 95.2808 70.6308 94.9494C70.4392 94.618 70.328 94.2462 70.3063 93.864V83.1602L50.9083 94.3728L50.8828 105.077Z" fill="black"/>
    <path opacity="0.5" d="M73.6506 97.079L71.396 95.7784C71.0756 95.5689 70.8088 95.2872 70.6171 94.9558C70.4255 94.6244 70.3143 94.2526 70.2925 93.8704V83.1602L50.8945 94.3728V105.077C50.9164 105.459 51.0279 105.831 51.2202 106.163C51.4124 106.494 51.68 106.776 52.0012 106.985L54.2272 108.257L73.6506 97.079Z" fill="black"/>
    <path d="M81.5836 103.051V104.597C81.5836 105.465 81.0081 106.326 79.8664 106.991L68.7364 113.411C67.5184 114.062 66.158 114.399 64.7773 114.394V112.855C66.158 112.86 67.5184 112.523 68.7364 111.872L79.8664 105.446C81.0081 104.787 81.5836 103.919 81.5836 103.051Z" fill="#FF725E"/>
    <path opacity="0.5" d="M81.5836 103.051V104.597C81.5836 105.465 81.0081 106.326 79.8664 106.991L68.7364 113.411C67.5184 114.062 66.158 114.399 64.7773 114.394V112.855C66.158 112.86 67.5184 112.523 68.7364 111.872L79.8664 105.446C81.0081 104.787 81.5836 103.919 81.5836 103.051Z" fill="black"/>
    <path d="M19.7173 118.379C20.1367 118.581 20.5977 118.682 21.0634 118.674C21.529 118.666 21.9862 118.548 22.3981 118.331L97.446 75.0034C97.8485 74.7409 98.1834 74.3874 98.4237 73.9714C98.664 73.5554 98.803 73.0886 98.8293 72.6089V11.8963C98.815 11.4296 98.6905 10.9729 98.4662 10.5634C98.2418 10.1539 97.9239 9.80322 97.5383 9.53992C97.1194 9.33715 96.6587 9.23608 96.1934 9.24492C95.7281 9.25376 95.2715 9.37227 94.8607 9.5908L19.8127 52.931C19.4117 53.1951 19.0788 53.5503 18.8412 53.9675C18.6035 54.3848 18.4679 54.8523 18.4453 55.3319V116.035C18.4595 116.498 18.5819 116.951 18.8028 117.358C19.0237 117.765 19.3369 118.114 19.7173 118.379Z" fill="#FF725E"/>
    <path d="M22.4067 118.328L97.4547 75.0002C97.8577 74.7383 98.193 74.3849 98.4334 73.9688C98.6738 73.5526 98.8124 73.0856 98.838 72.6057V11.8963C98.838 11.0155 98.2179 10.6561 97.4547 11.0981L22.4067 54.4256C22.0042 54.6879 21.6691 55.0414 21.4287 55.4575C21.1884 55.8735 21.0495 56.3404 21.0234 56.8202V117.53C21.0234 118.41 21.6435 118.77 22.4067 118.328Z" fill="#FF725E"/>
    <path opacity="0.5" d="M22.4067 118.328L97.4547 75.0002C97.8577 74.7383 98.193 74.3849 98.4334 73.9688C98.6738 73.5526 98.8124 73.0856 98.838 72.6057V11.8963C98.838 11.0155 98.2179 10.6561 97.4547 11.0981L22.4067 54.4256C22.0042 54.6879 21.6691 55.0414 21.4287 55.4575C21.1884 55.8735 21.0495 56.3404 21.0234 56.8202V117.53C21.0234 118.41 21.6435 118.77 22.4067 118.328Z" fill="black"/>
    <path d="M22.2041 119.905C21.8105 120.077 21.3844 120.161 20.9551 120.152C20.5258 120.144 20.1035 120.042 19.7173 119.854C19.3361 119.589 19.0224 119.239 18.8014 118.831C18.5805 118.422 18.4585 117.968 18.4453 117.504V111.977L21.037 113.478V119.005C21.0211 119.81 21.5331 120.175 22.2041 119.905Z" fill="#FF725E"/>
    <path opacity="0.5" d="M22.2041 119.905C21.8105 120.077 21.3844 120.161 20.9551 120.152C20.5258 120.144 20.1035 120.042 19.7173 119.854C19.3361 119.589 19.0224 119.239 18.8014 118.831C18.5805 118.422 18.4585 117.968 18.4453 117.504V111.977L21.037 113.478V119.005C21.0211 119.81 21.5331 120.175 22.2041 119.905Z" fill="black"/>
    <path d="M21.0195 113.478V119.005C21.0195 119.886 21.6555 120.242 22.4028 119.803L97.4508 76.4759C97.8516 76.2146 98.1855 75.8631 98.4257 75.4494C98.6659 75.0358 98.8058 74.5715 98.8341 74.094V68.5417L21.0195 113.478Z" fill="#FF725E"/>
    <path opacity="0.3" d="M21.0234 113.466V119.005C21.0234 119.886 21.6594 120.242 22.4067 119.803L97.4547 76.4759C97.8549 76.2143 98.1882 75.8626 98.4278 75.4489C98.6675 75.0353 98.8069 74.5713 98.8349 74.094V68.5417L21.0234 113.466Z" fill="black"/>
    <path d="M23.6172 106.53V57.6819C23.632 57.3941 23.7146 57.1139 23.8583 56.8641C24.002 56.6143 24.2027 56.402 24.444 56.2445L95.4025 15.2639C95.8604 14.9999 96.2325 15.213 96.2325 15.7409V64.6143C96.2171 64.9023 96.1339 65.1826 95.9896 65.4324C95.8454 65.6821 95.6442 65.8943 95.4025 66.0517L24.4472 107.023C23.9892 107.287 23.6172 107.07 23.6172 106.53Z" fill="#FF725E"/>
    <path d="M23.6172 106.53V57.6819C23.632 57.3941 23.7146 57.1139 23.8583 56.8641C24.002 56.6143 24.2027 56.402 24.444 56.2445L95.4025 15.2639C95.8604 14.9999 96.2325 15.213 96.2325 15.7409V64.6143C96.2171 64.9023 96.1339 65.1826 95.9896 65.4324C95.8454 65.6821 95.6442 65.8943 95.4025 66.0517L24.4472 107.023C23.9892 107.287 23.6172 107.07 23.6172 106.53Z" fill="#263238"/>
    <path d="M59.9303 92.7701C59.5525 93.0158 59.2381 93.3471 59.0127 93.7373C58.7872 94.1274 58.6571 94.5652 58.6328 95.0152C58.6328 95.842 59.2148 96.1791 59.9303 95.7657C60.3084 95.5197 60.623 95.1878 60.8485 94.7971C61.074 94.4064 61.2039 93.9679 61.2277 93.5174C61.2277 92.6906 60.6458 92.3567 59.9303 92.7701Z" fill="#FF725E"/>
    <path opacity="0.7" d="M21.4313 55.4528C21.1849 55.8671 21.044 56.3356 21.0211 56.8171V113.478L18.4453 111.977V55.332C18.462 54.8489 18.6021 54.3782 18.8524 53.9646L21.4313 55.4528Z" fill="black"/>
    <path opacity="0.3" d="M98.8218 11.6674C98.7232 10.955 98.1476 10.7134 97.4512 11.0981L22.4032 54.4256C21.9963 54.6801 21.6604 55.0335 21.4269 55.4528L18.832 53.955C19.0671 53.5358 19.4039 53.1826 19.8115 52.9278L94.8595 9.60353C95.2709 9.38497 95.728 9.26645 96.1938 9.25761C96.6595 9.24877 97.1208 9.34985 97.5402 9.55265C97.8928 9.79286 98.1896 10.106 98.4107 10.4708C98.6318 10.8356 98.772 11.2437 98.8218 11.6674Z" fill="black"/>
    <path d="M102.868 19.1406C102.757 19.0846 102.632 19.0601 102.508 19.0696C102.384 19.0792 102.264 19.1224 102.163 19.1946L31.3503 60.1021C31.0709 60.287 30.8389 60.535 30.6732 60.8262C30.5074 61.1173 30.4126 61.4434 30.3963 61.778V110.327C30.3864 110.491 30.4189 110.655 30.4908 110.802C30.5626 110.95 30.6714 111.076 30.8065 111.17C30.9623 111.256 31.7955 111.739 32.0435 111.873C32.1313 111.917 32.2293 111.938 32.3277 111.932C32.426 111.927 32.5211 111.895 32.6032 111.841L103.4 70.9332C103.679 70.7484 103.911 70.5004 104.077 70.2092C104.242 69.9181 104.337 69.592 104.354 69.2574V20.4571C104.368 20.3338 104.347 20.2089 104.295 20.0966C104.242 19.9842 104.159 19.8888 104.055 19.8211C103.896 19.7162 103.047 19.2455 102.868 19.1406Z" fill="#FF725E"/>
    <path d="M32.5868 60.7889L103.402 19.8973C103.936 19.5793 104.356 19.8401 104.356 20.457V69.2573C104.34 69.5919 104.245 69.918 104.079 70.2091C103.914 70.5003 103.682 70.7483 103.402 70.9331L32.5868 111.841C32.0526 112.159 31.6328 111.647 31.6328 111.03V62.4648C31.6496 62.1303 31.7447 61.8044 31.9104 61.5133C32.0761 61.2222 32.3078 60.9741 32.5868 60.7889Z" fill="#FAFAFA"/>
    <path d="M103.835 20.0817C104.022 20.0817 104.051 20.317 104.051 20.4569V69.2572C104.034 69.5374 103.952 69.8097 103.811 70.0526C103.67 70.2955 103.475 70.5022 103.24 70.6564L32.4342 111.564C32.3866 111.595 32.3318 111.612 32.2752 111.615C32.0971 111.615 31.9572 111.341 31.9572 111.03V62.4647C31.9725 62.1846 32.0522 61.9118 32.1901 61.6675C32.328 61.4232 32.5203 61.2139 32.7522 61.056L103.561 20.1707C103.643 20.1178 103.737 20.0872 103.835 20.0817ZM103.835 19.7637C103.681 19.7702 103.532 19.8162 103.402 19.8972L32.5868 60.7889C32.3078 60.9741 32.0761 61.2222 31.9104 61.5132C31.7447 61.8043 31.6496 62.1302 31.6328 62.4647V111.03C31.6328 111.519 31.9063 111.933 32.2688 111.933C32.3811 111.931 32.4908 111.899 32.5868 111.841L103.399 70.9331C103.678 70.7482 103.91 70.5002 104.076 70.209C104.242 69.9179 104.337 69.5918 104.353 69.2572V20.4569C104.353 20.0181 104.137 19.7637 103.819 19.7637H103.835Z" fill="#E0E0E0"/>
    <path d="M30.7878 111.17C30.8928 111.224 31.6464 111.653 31.9771 111.844C31.8584 111.745 31.7643 111.62 31.7025 111.479C31.6406 111.338 31.6127 111.184 31.621 111.03V65.6352L30.3808 64.9102V110.327C30.3705 110.491 30.4026 110.654 30.4739 110.802C30.5452 110.949 30.6533 111.076 30.7878 111.17Z" fill="#F0F0F0"/>
    <path d="M104.369 20.4475C104.369 19.8369 103.933 19.5889 103.415 19.8973L32.5868 60.789C32.3078 60.9742 32.0761 61.2223 31.9104 61.5134C31.7447 61.8044 31.6496 62.1303 31.6328 62.4648V65.6448L104.369 23.6275V20.4475Z" fill="#FF725E"/>
    <g opacity="0.4">
    <path d="M103.402 19.8973L32.587 60.7858C32.3028 60.965 32.0686 61.2134 31.9064 61.5076L30.6758 60.7921C30.8377 60.5082 31.0698 60.2705 31.3499 60.1021L102.162 19.1945C102.264 19.1218 102.383 19.078 102.507 19.0679C102.632 19.0578 102.756 19.0818 102.868 19.1373C103.04 19.2454 103.844 19.7002 104.051 19.8115C103.944 19.7718 103.829 19.7589 103.716 19.7739C103.603 19.7888 103.495 19.8312 103.402 19.8973Z" fill="white"/>
    </g>
    <path opacity="0.15" d="M30.3789 64.9135V61.7621C30.392 61.4187 30.4939 61.0845 30.6746 60.7922L31.9085 61.5046C31.7303 61.7918 31.6305 62.1207 31.6191 62.4586V65.6386L30.3789 64.9135Z" fill="black"/>
    <path d="M89.4372 57.0556L47.0255 81.5416C46.8193 81.6755 46.6476 81.8561 46.5243 82.0688C46.4011 82.2816 46.3299 82.5204 46.3164 82.7659V94.9262C46.3299 95.1717 46.4011 95.4106 46.5243 95.6233C46.6476 95.8361 46.8193 96.0167 47.0255 96.1505L48.2626 96.8629C48.4824 96.9741 48.7253 97.032 48.9717 97.032C49.2181 97.032 49.461 96.9741 49.6808 96.8629L92.0861 72.3769C92.2925 72.2423 92.4642 72.0611 92.5874 71.8479C92.7106 71.6346 92.7818 71.3953 92.7953 71.1494V58.9859C92.7818 58.7404 92.7106 58.5015 92.5873 58.2888C92.4641 58.0761 92.2924 57.8954 92.0861 57.7616L90.8459 57.0493C90.6271 56.9399 90.3855 56.8834 90.1408 56.8845C89.8961 56.8856 89.6551 56.9442 89.4372 57.0556Z" fill="#FF725E"/>
    <path opacity="0.5" d="M92.7963 58.8779C92.7455 58.5122 92.4497 58.3786 92.0936 58.5853L49.6819 83.0713C49.4727 83.2013 49.3008 83.3831 49.1826 83.5992L46.5273 82.0664C46.6464 81.8538 46.8169 81.6744 47.0234 81.5449L89.4383 57.0589C89.6575 56.9475 89.8999 56.8894 90.1458 56.8894C90.3917 56.8894 90.6342 56.9475 90.8534 57.0589L92.0936 57.7712C92.2826 57.8951 92.4431 58.0579 92.5643 58.2488C92.6855 58.4396 92.7646 58.6541 92.7963 58.8779Z" fill="white"/>
    <path d="M49.56 96.9234C49.3523 97.0052 49.1298 97.0424 48.9068 97.0325C48.6838 97.0227 48.4654 96.966 48.2657 96.8661L47.0255 96.1538C46.8197 96.0196 46.6482 95.8389 46.525 95.6262C46.4018 95.4135 46.3304 95.1749 46.3164 94.9295V82.7692C46.326 82.521 46.3982 82.2792 46.5263 82.0664L49.1816 83.5992C49.0525 83.8092 48.9802 84.0492 48.9717 84.2956V96.4591C48.9717 96.8629 49.2261 97.0506 49.56 96.9234Z" fill="#263238"/>
    <path d="M49.6793 83.0711L92.091 58.5851C92.4821 58.3593 92.8001 58.5406 92.8001 58.9921V71.1556C92.7867 71.4016 92.7154 71.6409 92.5922 71.8541C92.469 72.0674 92.2973 72.2486 92.091 72.3831L49.6857 96.8691C49.2946 97.0949 48.9766 96.9105 48.9766 96.4589V84.2986C48.9893 84.0532 49.0596 83.8143 49.1817 83.6011C49.3037 83.3879 49.4742 83.2063 49.6793 83.0711Z" fill="#FF725E"/>
    <path d="M78.1913 63.5491L47.0273 81.5447C46.8209 81.6742 46.6503 81.8535 46.5312 82.0662L49.1865 83.599C49.3047 83.3829 49.4767 83.2011 49.6858 83.0711L80.8498 65.0787L78.1913 63.5491Z" fill="#455A64"/>
    <path d="M80.8458 65.0789L49.6818 83.0713C49.4755 83.2058 49.3038 83.387 49.1806 83.6003C49.0574 83.8136 48.9861 84.0529 48.9727 84.2988V96.4559C48.9727 96.9075 49.2907 97.0919 49.6818 96.8661L80.8458 78.8737V65.0789Z" fill="#37474F"/>
    <path d="M56.8686 81.5893L72.9498 72.3069C73.6144 71.9221 74.155 72.1956 74.155 72.9175C74.1253 73.3229 74.0004 73.7156 73.7904 74.0637C73.5805 74.4118 73.2914 74.7054 72.9466 74.9209L56.8686 84.2065C56.2039 84.5912 55.6602 84.3178 55.6602 83.5959C55.6902 83.1901 55.8152 82.7971 56.0251 82.4485C56.235 82.0999 56.5239 81.8056 56.8686 81.5893Z" fill="#FF725E"/>
    <path d="M60.1608 84.6643C60.1637 84.6609 60.1674 84.6582 60.1715 84.6564C60.1756 84.6545 60.1801 84.6536 60.1846 84.6536C60.1891 84.6536 60.1936 84.6545 60.1977 84.6564C60.2018 84.6582 60.2055 84.6609 60.2085 84.6643C60.2227 84.6859 60.2294 84.7117 60.2275 84.7375V86.5469C60.2277 86.7217 60.2129 86.8962 60.183 87.0684C60.1567 87.2258 60.1119 87.3795 60.0495 87.5263C59.9925 87.6608 59.9176 87.7871 59.8269 87.9016C59.7374 88.0078 59.6297 88.0971 59.5089 88.1655C59.4142 88.2272 59.3038 88.2603 59.1909 88.2609C59.1477 88.2575 59.1057 88.2453 59.0674 88.225C59.0291 88.2048 58.9954 88.177 58.9683 88.1432C58.8985 88.0497 58.8526 87.9406 58.8347 87.8252C58.8043 87.6714 58.7904 87.5146 58.7934 87.3578V85.5452C58.7933 85.5135 58.7998 85.4821 58.8124 85.453C58.8202 85.4268 58.8372 85.4042 58.8601 85.3894L59.0605 85.2717C59.067 85.2657 59.0755 85.2623 59.0843 85.2623C59.0932 85.2623 59.1017 85.2657 59.1082 85.2717C59.1229 85.2931 59.1296 85.319 59.1273 85.3449V87.132C59.1248 87.2303 59.1344 87.3286 59.1559 87.4246C59.1647 87.486 59.1912 87.5434 59.2322 87.5899C59.2465 87.607 59.2646 87.6205 59.285 87.6293C59.3054 87.6381 59.3276 87.6421 59.3499 87.6408C59.4043 87.6372 59.4568 87.6197 59.5025 87.5899C59.5591 87.5561 59.6105 87.5144 59.6551 87.4659C59.7048 87.4087 59.7455 87.3444 59.776 87.2751C59.8118 87.1935 59.8385 87.1082 59.8555 87.0207C59.874 86.9158 59.8825 86.8093 59.8809 86.7027V84.9124C59.8819 84.8804 59.8895 84.849 59.9032 84.8202C59.911 84.7939 59.9279 84.7714 59.9509 84.7565L60.1608 84.6643Z" fill="#FAFAFA"/>
    <path d="M61.4082 86.3752C61.4099 86.3518 61.4044 86.3285 61.3923 86.3084C61.3848 86.3001 61.3754 86.2938 61.3648 86.2899C61.3543 86.286 61.343 86.2847 61.3319 86.2861C61.2929 86.2808 61.2533 86.2808 61.2143 86.2861L61.0298 86.3211C60.9703 86.3359 60.9081 86.3359 60.8486 86.3211C60.8019 86.3061 60.7616 86.2759 60.7341 86.2353C60.703 86.1836 60.6824 86.1263 60.6737 86.0667C60.6426 85.8964 60.6426 85.7219 60.6737 85.5516C60.6975 85.4539 60.7316 85.359 60.7754 85.2685C60.819 85.1782 60.8723 85.0929 60.9344 85.0141C60.9946 84.9391 61.0679 84.8755 61.1507 84.8265C61.2175 84.7858 61.2923 84.7597 61.3701 84.7502C61.4265 84.7444 61.4833 84.7566 61.5323 84.7852C61.5789 84.8136 61.6156 84.8559 61.6372 84.906C61.6629 84.9653 61.6769 85.029 61.6785 85.0936C61.6819 85.1256 61.6752 85.1578 61.6595 85.1859C61.6517 85.2121 61.6348 85.2346 61.6118 85.2495L61.421 85.3608C61.4123 85.3658 61.4024 85.3684 61.3923 85.3684C61.3823 85.3684 61.3724 85.3658 61.3637 85.3608L61.3224 85.329C61.306 85.316 61.286 85.3083 61.2651 85.3067C61.2243 85.3113 61.185 85.3254 61.1507 85.348C61.1007 85.3781 61.0566 85.4169 61.0203 85.4625C60.9818 85.5126 60.9616 85.5743 60.963 85.6374C60.9586 85.6616 60.9586 85.6864 60.963 85.7106C60.9691 85.7195 60.9771 85.7271 60.9865 85.7326C60.9958 85.7381 61.0063 85.7414 61.0171 85.7424C61.0518 85.7482 61.0873 85.7482 61.122 85.7424L61.3001 85.7106C61.4496 85.6819 61.5513 85.7106 61.6181 85.7932C61.6883 85.9111 61.7205 86.0476 61.7103 86.1844C61.7095 86.2789 61.6967 86.3729 61.6722 86.4642C61.647 86.5634 61.6108 86.6594 61.5641 86.7504C61.5174 86.8446 61.4586 86.9322 61.3892 87.0112C61.3233 87.0885 61.2448 87.1541 61.157 87.2052C61.0871 87.2499 61.0075 87.2771 60.9249 87.2847C60.8651 87.2868 60.8062 87.2701 60.7563 87.237C60.7072 87.2034 60.6695 87.1557 60.6482 87.1002C60.6225 87.0399 60.6095 86.975 60.6101 86.9094C60.6071 86.8764 60.6137 86.8433 60.6291 86.814C60.6369 86.7878 60.6539 86.7652 60.6768 86.7504L60.8676 86.6391C60.8931 86.6391 60.9122 86.6232 60.9249 86.6391L60.9662 86.6836C60.9747 86.6931 60.9849 86.7008 60.9964 86.7063C61.0079 86.7117 61.0203 86.7149 61.033 86.7154C61.0778 86.7157 61.1214 86.7011 61.157 86.6741C61.2144 86.6415 61.266 86.5996 61.3097 86.5501C61.3313 86.5239 61.3495 86.495 61.3637 86.4642C61.3862 86.439 61.4015 86.4083 61.4082 86.3752Z" fill="#FAFAFA"/>
    <path d="M62.0587 85.5133C62.0581 85.3482 62.0719 85.1832 62.1 85.0204C62.1266 84.8673 62.1681 84.7171 62.2241 84.5721C62.2708 84.4421 62.335 84.3191 62.4149 84.2064C62.4815 84.1095 62.5683 84.0281 62.6693 83.9679C62.743 83.9183 62.8329 83.899 62.9205 83.9138C62.9982 83.9318 63.0663 83.9783 63.1113 84.0442C63.1711 84.1305 63.2133 84.2277 63.2353 84.3304C63.2658 84.4639 63.2807 84.6005 63.2798 84.7374V84.9346C63.2808 84.9678 63.2732 85.0007 63.2576 85.03C63.2498 85.0562 63.2328 85.0788 63.2099 85.0936L62.3831 85.5738C62.3811 85.6297 62.3886 85.6857 62.4053 85.7391C62.4176 85.7751 62.4396 85.807 62.4689 85.8313C62.495 85.8521 62.5279 85.8623 62.5611 85.86C62.5996 85.8554 62.6365 85.8424 62.6693 85.8218C62.7174 85.7957 62.7604 85.7612 62.7965 85.72C62.829 85.6834 62.8568 85.6428 62.8791 85.5992C62.8927 85.5741 62.9076 85.5497 62.9237 85.5261C62.9373 85.5099 62.9534 85.4959 62.9714 85.4847L63.1685 85.3702C63.1753 85.3648 63.1837 85.3619 63.1924 85.3619C63.201 85.3619 63.2094 85.3648 63.2162 85.3702C63.2246 85.3803 63.2306 85.3921 63.2339 85.4047C63.2372 85.4173 63.2377 85.4305 63.2353 85.4434C63.2318 85.5054 63.219 85.5665 63.1971 85.6246C63.1697 85.7129 63.1335 85.7981 63.089 85.879C63.0393 85.9721 62.9796 86.0596 62.9109 86.1398C62.8425 86.2217 62.7608 86.2916 62.6693 86.3465C62.5941 86.3957 62.5041 86.4171 62.4149 86.4069C62.3367 86.3881 62.2685 86.3404 62.2241 86.2734C62.1615 86.1769 62.1192 86.0687 62.1 85.9554C62.0711 85.8098 62.0573 85.6617 62.0587 85.5133ZM62.6693 84.4989C62.6204 84.5253 62.578 84.5622 62.5452 84.607C62.5099 84.6516 62.4811 84.7008 62.4594 84.7533C62.4371 84.8059 62.419 84.8601 62.4053 84.9155C62.3941 84.9658 62.3867 85.0168 62.3831 85.0681L62.9427 84.7501C62.9395 84.7063 62.9331 84.6627 62.9237 84.6198C62.9188 84.5813 62.9034 84.545 62.8791 84.5148C62.8696 84.5011 62.8574 84.4895 62.8431 84.4807C62.8289 84.472 62.813 84.4662 62.7965 84.4639C62.7512 84.4601 62.7061 84.4725 62.6693 84.4989Z" fill="#FAFAFA"/>
    <path d="M64.2764 83.6119C64.18 83.6669 64.1041 83.7517 64.0601 83.8535C64.0106 83.9878 63.988 84.1304 63.9934 84.2733V85.4213C63.9938 85.4541 63.9873 85.4866 63.9743 85.5167C63.9665 85.5429 63.9496 85.5655 63.9266 85.5803L63.739 85.6884C63.736 85.6918 63.7323 85.6945 63.7282 85.6964C63.7241 85.6982 63.7196 85.6992 63.7151 85.6992C63.7106 85.6992 63.7061 85.6982 63.702 85.6964C63.6979 85.6945 63.6942 85.6918 63.6913 85.6884C63.677 85.6668 63.6703 85.6411 63.6722 85.6153V83.5578C63.6723 83.5251 63.6788 83.4927 63.6913 83.4624C63.7001 83.4368 63.7168 83.4145 63.739 83.3988L63.9266 83.2907C63.9331 83.2847 63.9416 83.2813 63.9504 83.2813C63.9593 83.2813 63.9678 83.2847 63.9743 83.2907C63.989 83.3109 63.9958 83.3358 63.9934 83.3606V83.4624C64.0313 83.3771 64.0782 83.2961 64.1333 83.2207C64.1836 83.1511 64.2488 83.0935 64.3241 83.0522L64.4386 82.9854C64.4445 82.9796 64.4525 82.9763 64.4608 82.9763C64.4691 82.9763 64.4771 82.9796 64.4831 82.9854C64.4984 83.0066 64.5063 83.0324 64.5053 83.0585V83.3479C64.5048 83.3809 64.4972 83.4135 64.4831 83.4433C64.475 83.4686 64.4595 83.4907 64.4386 83.5069L64.2764 83.6119Z" fill="#FAFAFA"/>
    <path d="M66.6468 83.4591C66.6498 83.4557 66.6535 83.453 66.6576 83.4512C66.6617 83.4493 66.6662 83.4484 66.6707 83.4484C66.6752 83.4484 66.6797 83.4493 66.6838 83.4512C66.6879 83.453 66.6916 83.4557 66.6945 83.4591C66.7088 83.4807 66.7155 83.5064 66.7136 83.5323V83.8503C66.7135 83.883 66.707 83.9154 66.6945 83.9457C66.6836 83.9693 66.6673 83.99 66.6468 84.0061L65.5593 84.6421C65.5528 84.6481 65.5443 84.6515 65.5354 84.6515C65.5266 84.6515 65.5181 84.6481 65.5116 84.6421C65.4974 84.6217 65.4906 84.5969 65.4925 84.5721V81.7101C65.4927 81.6774 65.4991 81.645 65.5116 81.6147C65.5205 81.5899 65.5372 81.5687 65.5593 81.5543L65.7596 81.4366C65.7661 81.4306 65.7746 81.4272 65.7835 81.4272C65.7923 81.4272 65.8008 81.4306 65.8073 81.4366C65.8215 81.4571 65.8283 81.4818 65.8264 81.5066V83.9266L66.6468 83.4591Z" fill="#FAFAFA"/>
    <path d="M67.6233 81.1059C67.6949 81.0563 67.7813 81.0328 67.8681 81.0391C67.9426 81.045 68.012 81.0791 68.0621 81.1345C68.1214 81.2026 68.1648 81.2829 68.1893 81.3698C68.2233 81.4824 68.2425 81.5989 68.2466 81.7164C68.2466 81.7419 68.2466 81.7769 68.2466 81.8182V82.0631C68.2466 82.1012 68.2466 82.1362 68.2466 82.1648C68.2403 82.303 68.2211 82.4404 68.1893 82.575C68.1599 82.7062 68.1173 82.8341 68.0621 82.9566C68.0117 83.0707 67.9465 83.1776 67.8681 83.2746C67.8011 83.3625 67.718 83.437 67.6233 83.4941C67.5497 83.5419 67.4629 83.5653 67.3752 83.5608C67.3018 83.5545 67.2336 83.5204 67.1844 83.4654C67.1235 83.3998 67.0798 83.32 67.0572 83.2333C67.0233 83.1207 67.004 83.0042 67 82.8867C67 82.8612 67 82.8294 67 82.7881V82.5432C67 82.5019 67 82.4669 67 82.4415C67.0037 82.3022 67.0218 82.1636 67.0541 82.0281C67.085 81.8959 67.1287 81.7671 67.1844 81.6433C67.235 81.53 67.299 81.4232 67.3752 81.3253C67.4427 81.2365 67.527 81.162 67.6233 81.1059ZM67.9222 81.9263C67.9221 81.856 67.9102 81.7861 67.8872 81.7196C67.8754 81.6791 67.8509 81.6434 67.8173 81.6179C67.7902 81.5997 67.7575 81.5918 67.725 81.5956C67.6887 81.6024 67.6541 81.6165 67.6233 81.6369C67.5859 81.6574 67.5516 81.6831 67.5215 81.7133C67.485 81.7512 67.454 81.794 67.4293 81.8405C67.3973 81.8983 67.3738 81.9604 67.3593 82.0249C67.3385 82.1061 67.3257 82.1892 67.3212 82.2729C67.3212 82.2984 67.3212 82.327 67.3212 82.362V82.5878C67.3212 82.6227 67.3212 82.6514 67.3212 82.6704C67.3241 82.7408 67.337 82.8104 67.3593 82.8771C67.371 82.9178 67.3955 82.9535 67.4293 82.9789C67.4425 82.9883 67.4575 82.9948 67.4734 82.9981C67.4893 83.0013 67.5057 83.0013 67.5215 82.998C67.5576 82.9919 67.5921 82.9789 67.6233 82.9598C67.6601 82.9385 67.6943 82.9129 67.725 82.8835C67.7605 82.8448 67.7915 82.8021 67.8173 82.7563C67.8479 82.6978 67.8713 82.6359 67.8872 82.5719C67.908 82.4907 67.9197 82.4075 67.9222 82.3238C67.9241 82.2942 67.9241 82.2644 67.9222 82.2348V82.0122C67.924 81.9836 67.924 81.9549 67.9222 81.9263Z" fill="#FAFAFA"/>
    <path d="M69.2217 82.9663C69.2623 82.9414 69.2988 82.9103 69.3298 82.874C69.3681 82.8292 69.4011 82.7801 69.4284 82.7278C69.46 82.6638 69.4845 82.5967 69.5015 82.5274C69.5211 82.4494 69.5307 82.3693 69.5301 82.2889V82.1267C69.5301 82.1585 69.4983 82.1967 69.4761 82.2412C69.4543 82.2877 69.4287 82.3324 69.3997 82.3748C69.3665 82.4195 69.3304 82.462 69.2916 82.502C69.2517 82.5438 69.2056 82.5792 69.1549 82.6069C69.1222 82.6292 69.0854 82.6447 69.0466 82.6523C69.0077 82.66 68.9678 82.6597 68.9291 82.6514C68.8584 82.6293 68.7977 82.5832 68.7574 82.5211C68.7055 82.4389 68.6679 82.3486 68.6461 82.2539C68.619 82.1339 68.6041 82.0113 68.6016 81.8882C68.6016 81.8469 68.6016 81.796 68.6016 81.7356C68.6016 81.6752 68.6016 81.6243 68.6016 81.5798C68.6055 81.44 68.6204 81.3007 68.6461 81.1632C68.6722 81.0279 68.7094 80.8949 68.7574 80.7657C68.8024 80.6535 68.86 80.5468 68.9291 80.4477C68.9877 80.3601 69.0648 80.2863 69.1549 80.2315C69.1972 80.206 69.2434 80.1878 69.2916 80.1774C69.3274 80.1708 69.364 80.1708 69.3997 80.1774C69.4279 80.1853 69.454 80.1995 69.4761 80.2187C69.4964 80.2343 69.5146 80.2525 69.5301 80.2728V80.171C69.5303 80.1383 69.5368 80.1059 69.5492 80.0756C69.5581 80.0508 69.5748 80.0296 69.5969 80.0152L69.7845 79.9039C69.791 79.8979 69.7995 79.8945 69.8084 79.8945C69.8172 79.8945 69.8258 79.8979 69.8322 79.9039C69.8476 79.9251 69.8554 79.9509 69.8545 79.9771V82.0441C69.863 82.3537 69.8056 82.6615 69.6859 82.9472C69.5921 83.1718 69.4296 83.3611 69.2217 83.4878C69.1507 83.5318 69.0697 83.557 68.9863 83.5609C68.9204 83.5649 68.8548 83.5482 68.7987 83.5132C68.745 83.473 68.7014 83.4207 68.6715 83.3606C68.6405 83.2881 68.6233 83.2104 68.6206 83.1316C68.6177 83.0987 68.6243 83.0655 68.6397 83.0362C68.6475 83.01 68.6644 82.9874 68.6874 82.9726L68.856 82.8772C68.8598 82.8731 68.8645 82.8698 68.8697 82.8675C68.8749 82.8653 68.8805 82.8641 68.8862 82.8641C68.8918 82.8641 68.8974 82.8653 68.9026 82.8675C68.9078 82.8698 68.9125 82.8731 68.9164 82.8772C68.9321 82.8937 68.9459 82.9118 68.9577 82.9313C68.9771 82.9654 69.0091 82.9905 69.0468 83.0012C69.0849 83.0299 69.1422 82.9981 69.2217 82.9663ZM68.9227 81.424C68.9227 81.5088 68.9227 81.5914 68.9227 81.672C68.9137 81.799 68.9497 81.9251 69.0245 82.0282C69.0528 82.0526 69.0889 82.066 69.1263 82.066C69.1636 82.066 69.1997 82.0526 69.228 82.0282C69.3203 81.9682 69.3924 81.8817 69.4347 81.7801C69.4926 81.6475 69.525 81.505 69.5301 81.3604C69.5301 81.3127 69.5301 81.2554 69.5301 81.1886C69.5301 81.1219 69.5301 81.0646 69.5301 81.0233C69.5366 80.9094 69.5028 80.7968 69.4347 80.7053C69.4066 80.6794 69.3697 80.665 69.3314 80.665C69.2931 80.665 69.2562 80.6794 69.228 80.7053C69.1375 80.7651 69.0667 80.8502 69.0245 80.9501C68.9592 81.0997 68.9246 81.2608 68.9227 81.424Z" fill="#FAFAFA"/>
    <path d="M70.596 78.6C70.6023 78.5949 70.6101 78.592 70.6183 78.592C70.6264 78.592 70.6342 78.5949 70.6405 78.6C70.6572 78.6206 70.6651 78.6468 70.6628 78.6732V79.0198C70.663 79.0529 70.6554 79.0856 70.6405 79.1152C70.6316 79.1391 70.6162 79.16 70.596 79.1756L70.3829 79.2996C70.3799 79.303 70.3763 79.3057 70.3722 79.3076C70.3681 79.3094 70.3636 79.3104 70.3591 79.3104C70.3546 79.3104 70.3501 79.3094 70.346 79.3076C70.3419 79.3057 70.3382 79.303 70.3352 79.2996C70.3269 79.2901 70.3207 79.279 70.3168 79.267C70.313 79.2549 70.3117 79.2422 70.313 79.2297V78.8831C70.3128 78.8499 70.3204 78.8173 70.3352 78.7877C70.3441 78.7629 70.3609 78.7416 70.3829 78.7272L70.596 78.6ZM70.6501 81.5861C70.6502 81.6178 70.6437 81.6492 70.631 81.6783C70.6208 81.7032 70.6044 81.7252 70.5833 81.7419L70.3925 81.85C70.3898 81.8533 70.3864 81.856 70.3825 81.8578C70.3787 81.8597 70.3745 81.8606 70.3702 81.8606C70.3659 81.8606 70.3617 81.8597 70.3579 81.8578C70.354 81.856 70.3506 81.8533 70.348 81.85C70.3313 81.8294 70.3233 81.8032 70.3257 81.7769V79.7194C70.3255 79.6863 70.3331 79.6536 70.348 79.624C70.3569 79.5992 70.3723 79.5773 70.3925 79.5604L70.5833 79.4523C70.5898 79.4462 70.5983 79.4429 70.6071 79.4429C70.616 79.4429 70.6245 79.4462 70.631 79.4523C70.6452 79.4727 70.6519 79.4974 70.6501 79.5222V81.5861Z" fill="#FAFAFA"/>
    <path d="M72.3214 80.6164C72.3213 80.6491 72.3148 80.6815 72.3024 80.7118C72.2935 80.7366 72.2767 80.7578 72.2547 80.7722L72.0639 80.8835C72.0579 80.8893 72.0499 80.8926 72.0416 80.8926C72.0333 80.8926 72.0253 80.8893 72.0193 80.8835C72.0027 80.8629 71.9947 80.8367 71.9971 80.8103V79.691C72.0069 79.5589 71.9828 79.4264 71.9271 79.3062C71.8826 79.2267 71.8126 79.214 71.7141 79.2712C71.6157 79.3373 71.5428 79.4349 71.5074 79.5479C71.4543 79.6979 71.4284 79.8562 71.431 80.0153V81.1379C71.4309 81.1706 71.4244 81.203 71.412 81.2333C71.4042 81.2595 71.3873 81.2821 71.3643 81.2969L71.1766 81.405C71.1737 81.4084 71.17 81.4111 71.1659 81.413C71.1618 81.4148 71.1573 81.4158 71.1528 81.4158C71.1483 81.4158 71.1438 81.4148 71.1397 81.413C71.1356 81.4111 71.1319 81.4084 71.1289 81.405C71.1142 81.3848 71.1074 81.3599 71.1099 81.335V79.2776C71.1094 79.2448 71.1159 79.2123 71.1289 79.1822C71.1367 79.156 71.1537 79.1334 71.1766 79.1186L71.3643 79.0105C71.3672 79.0071 71.3709 79.0044 71.375 79.0025C71.3791 79.0006 71.3836 78.9997 71.3881 78.9997C71.3926 78.9997 71.3971 79.0006 71.4012 79.0025C71.4053 79.0044 71.409 79.0071 71.412 79.0105C71.4262 79.0321 71.4329 79.0578 71.431 79.0836V79.1822C71.4729 79.0853 71.524 78.9926 71.5837 78.9055C71.636 78.8252 71.7069 78.7587 71.7904 78.7115C71.8628 78.6587 71.9528 78.6359 72.0416 78.6479C72.0768 78.6568 72.1097 78.673 72.1382 78.6955C72.1667 78.7179 72.1901 78.7462 72.207 78.7783C72.2531 78.8644 72.2833 78.9581 72.296 79.055C72.313 79.1815 72.3215 79.309 72.3214 79.4366V80.6164Z" fill="#FAFAFA"/>
    <path d="M88.3634 71.3592L85.2756 73.14L85.7558 68.8088C85.3838 68.6116 85.1484 68.1315 85.1484 67.4414C85.1484 66.2107 85.8989 64.7829 86.8211 64.2614C87.7433 63.7399 88.4906 64.2932 88.4906 65.5334C88.4715 66.2631 88.2633 66.9753 87.8864 67.6004L88.3634 71.3592Z" fill="#455A64"/>
    <path d="M88.3644 71.3592L85.6455 69.7915L85.2734 73.1432L88.3644 71.3592Z" fill="#37474F"/>
    <path d="M86.8114 64.2519C86.1389 64.7062 85.6375 65.3722 85.3867 66.144L87.8767 67.5814C88.2536 66.9563 88.4618 66.2441 88.4809 65.5144C88.4872 64.2837 87.7399 63.7209 86.8114 64.2519Z" fill="#37474F"/>
    <path d="M71.8045 49.8306C70.7456 49.22 69.286 49.3059 67.6705 50.2376C64.446 52.1011 61.832 56.6263 61.832 60.35C61.832 62.2199 62.4935 63.53 63.5556 64.1342L65.6131 65.3299C66.6688 65.9405 68.1284 65.8514 69.7471 64.9197C72.9716 63.0594 75.5855 58.5311 75.5855 54.8073C75.5855 52.947 74.9304 51.6273 73.8747 51.0326" fill="#FF725E"/>
    <path d="M69.7447 51.4365C66.5202 53.3 63.9062 57.8283 63.9062 61.5489C63.9062 65.2695 66.5202 66.7832 69.7447 64.9197C72.9692 63.0563 75.5864 58.5311 75.5832 54.8073C75.58 51.0836 72.9661 49.5762 69.7447 51.4365Z" fill="#FF725E"/>
    <path d="M72.9654 59.6983V60.1244C72.1929 61.5033 71.0849 62.6649 69.7441 63.5015C68.488 64.2234 67.3527 64.3029 66.5195 63.8418V62.9641C66.5622 62.051 66.8229 61.1614 67.2799 60.3696C67.7369 59.5779 68.3768 58.9072 69.1462 58.4135L69.9953 57.9238C70.7458 57.4913 71.4772 57.4341 72.0496 57.768C72.622 58.1019 72.9654 58.8047 72.9654 59.6983Z" fill="#FF725E"/>
    <path opacity="0.4" d="M71.8031 49.8306L73.8701 51.0326C72.8143 50.4189 71.3547 50.5048 69.7361 51.4365C67.6246 52.6576 65.7738 55.0204 64.7499 57.5516L62.6797 56.3528C63.7068 53.8088 65.5417 51.4588 67.6659 50.2376C69.2877 49.3091 70.7473 49.22 71.8031 49.8306Z" fill="white"/>
    <path opacity="0.2" d="M65.5406 65.2823L63.5595 64.1343C62.4974 63.5301 61.8359 62.2263 61.8359 60.3501L63.9061 61.5521C63.9188 63.3647 64.5294 64.6558 65.5406 65.2823Z" fill="black"/>
    <path opacity="0.1" d="M62.6872 56.3528L64.7574 57.5516C64.2269 58.8189 63.942 60.1753 63.9178 61.5489L61.8477 60.3469C61.8732 58.9745 62.158 57.6193 62.6872 56.3528Z" fill="black"/>
    <path d="M69.0042 57.7233C68.8069 57.7255 68.6126 57.675 68.4413 57.5771C68.2349 57.4394 68.0694 57.2486 67.9625 57.0247C67.8556 56.8008 67.8112 56.5521 67.8339 56.3051C67.8609 55.7257 68.0263 55.1612 68.3162 54.6588C68.6061 54.1565 69.0121 53.7309 69.5002 53.4176C69.6963 53.2611 69.9351 53.1674 70.1853 53.1487C70.4355 53.1301 70.6855 53.1874 70.9027 53.3131C71.1198 53.4388 71.2939 53.6272 71.4023 53.8535C71.5106 54.0798 71.5482 54.3335 71.51 54.5815C71.4825 55.1608 71.3169 55.7251 71.0271 56.2273C70.7372 56.7296 70.3315 57.1553 69.8437 57.4689C69.5913 57.6265 69.3016 57.7143 69.0042 57.7233Z" fill="white"/>
    <path d="M72.0496 57.7648C71.4772 57.4309 70.7458 57.4882 69.9953 57.9207L69.1462 58.4104C68.3764 58.9043 67.7362 59.5756 67.2792 60.3679C66.8222 61.1602 66.5617 62.0505 66.5195 62.9641V63.845C67.3527 64.3061 68.488 64.2266 69.7441 63.5047C71.0849 62.668 72.1929 61.5064 72.9654 60.1276V59.7015C72.9654 58.8047 72.6347 58.1019 72.0496 57.7648Z" fill="white"/>
    <path d="M137.422 112.779C137.422 112.779 137.845 109.064 139.692 106.18C141.54 103.296 144.078 101.499 146.447 101.312C148.816 101.124 150.73 103.305 148.196 104.81C145.661 106.314 141.158 107.834 139.085 113.431L137.422 112.779Z" fill="#FF725E"/>
    <path opacity="0.1" d="M137.422 112.779C137.422 112.779 137.845 109.064 139.692 106.18C141.54 103.296 144.078 101.499 146.447 101.312C148.816 101.124 150.73 103.305 148.196 104.81C145.661 106.314 141.158 107.834 139.085 113.431L137.422 112.779Z" fill="black"/>
    <path d="M138.116 111.812H138.091C138.06 111.799 138.035 111.775 138.022 111.744C138.009 111.713 138.008 111.678 138.021 111.647C140.52 105.493 145.278 102.921 147.446 102.425C147.463 102.421 147.48 102.42 147.496 102.423C147.513 102.426 147.528 102.432 147.543 102.441C147.557 102.45 147.569 102.461 147.579 102.475C147.588 102.488 147.595 102.504 147.599 102.52C147.603 102.536 147.603 102.553 147.601 102.57C147.598 102.586 147.592 102.602 147.583 102.616C147.574 102.63 147.563 102.643 147.549 102.652C147.535 102.662 147.52 102.669 147.504 102.673C145.379 103.162 140.714 105.687 138.256 111.745C138.244 111.771 138.223 111.791 138.198 111.803C138.173 111.815 138.144 111.818 138.116 111.812Z" fill="white"/>
    <path d="M150.77 111.885C150.557 112.368 150.029 112.623 149.539 112.82C149.049 113.017 148.515 113.23 148.248 113.688C147.714 114.61 148.591 115.914 148.019 116.808C147.884 116.988 147.715 117.138 147.52 117.251C147.325 117.364 147.11 117.436 146.887 117.463C146.521 117.53 146.149 117.53 145.78 117.561C145.604 117.559 145.427 117.545 145.252 117.52C144.739 117.405 144.201 117.462 143.723 117.682C142.988 118.096 142.769 119.021 142.317 119.736C142.041 120.158 141.678 120.514 141.251 120.782C140.825 121.05 140.346 121.223 139.846 121.288C139.528 121.33 138.892 121.39 138.574 121.202C138.55 121.19 138.526 121.175 138.505 121.158C138.457 121.107 138.4 121.04 138.374 121.005C138.373 120.998 138.373 120.99 138.374 120.983C138.244 120.503 138.457 120.007 138.466 119.511V119.422C138.444 118.846 138.428 118.274 138.415 117.701C138.388 116.641 138.377 115.581 138.384 114.521C138.384 113.834 138.307 113.084 138.6 112.438C138.918 111.726 139.719 111.71 140.021 111.014C140.142 110.734 140.206 110.438 140.323 110.155C140.505 109.744 140.797 109.39 141.166 109.133C141.534 108.875 141.967 108.724 142.416 108.696C143.812 108.626 145.062 109.754 146.458 109.65C146.817 109.621 147.17 109.51 147.526 109.446C148.655 109.233 149.962 109.554 150.598 110.511C150.738 110.708 150.826 110.937 150.856 111.177C150.886 111.416 150.857 111.66 150.77 111.885Z" fill="#FF725E"/>
    <path d="M138.231 118.779C138.201 118.77 138.176 118.75 138.16 118.723C138.145 118.696 138.141 118.663 138.148 118.633C140.075 111.402 147.688 110.365 149.479 110.486C149.495 110.487 149.51 110.491 149.524 110.498C149.538 110.504 149.551 110.514 149.561 110.526C149.572 110.538 149.58 110.552 149.585 110.567C149.589 110.582 149.591 110.597 149.59 110.613C149.587 110.644 149.572 110.673 149.548 110.693C149.524 110.713 149.494 110.723 149.463 110.721C147.717 110.597 140.263 111.618 138.377 118.697C138.368 118.727 138.348 118.752 138.321 118.768C138.294 118.783 138.261 118.787 138.231 118.779Z" fill="white"/>
    <path d="M146.701 115.116C146.677 115.113 146.655 115.101 146.638 115.084C145.934 114.474 145.104 114.027 144.208 113.775C143.311 113.522 142.37 113.471 141.451 113.625C141.42 113.627 141.389 113.619 141.365 113.6C141.34 113.581 141.323 113.553 141.318 113.523C141.313 113.492 141.321 113.46 141.339 113.434C141.358 113.409 141.385 113.391 141.416 113.386C142.374 113.227 143.356 113.281 144.291 113.545C145.225 113.81 146.09 114.278 146.822 114.916C146.834 114.927 146.842 114.94 146.849 114.954C146.855 114.969 146.858 114.984 146.858 115C146.858 115.016 146.855 115.031 146.849 115.046C146.842 115.06 146.834 115.073 146.822 115.084C146.808 115.101 146.789 115.114 146.767 115.119C146.745 115.125 146.722 115.124 146.701 115.116Z" fill="white"/>
    <path d="M119.923 25.4399L120.935 25.8279V23.6019C120.935 21.8338 122.343 21.4109 123.873 22.2949C125.406 23.1789 126.646 25.3254 126.646 27.0935V27.4115C126.859 27.3464 127.084 27.3303 127.305 27.3644C127.525 27.3986 127.735 27.4821 127.918 27.6087C128.499 27.9874 128.982 28.4978 129.328 29.0984C129.675 29.6991 129.875 30.373 129.912 31.0653V31.2116L131.324 32.0257C131.706 32.2751 132.024 32.6108 132.252 33.0058C132.48 33.4008 132.612 33.8439 132.637 34.2994C132.637 35.1389 132.049 35.4792 131.324 35.0594L119.923 28.4736C119.541 28.2249 119.223 27.8892 118.995 27.494C118.768 27.0989 118.637 26.6554 118.613 26.1999C118.613 25.3636 119.195 25.0233 119.923 25.4399Z" fill="#E6E6E6"/>
    <path d="M133.468 23.6781L135.303 24.737C135.293 24.6569 135.288 24.5762 135.287 24.4954V23.9643C135.287 23.0103 135.949 22.6351 136.769 23.1089C137.122 23.3247 137.423 23.6144 137.653 23.9579C137.787 22.7686 138.722 22.3266 139.854 22.9785C140.501 23.3994 141.039 23.9669 141.426 24.6348C141.813 25.3028 142.037 26.0525 142.08 26.8231V27.6181C142.088 27.9358 142.024 28.2511 141.892 28.5403L143.418 29.418C143.656 29.5758 143.854 29.7871 143.995 30.0351C144.137 30.2831 144.218 30.5607 144.232 30.8458C144.232 31.3705 143.864 31.5836 143.409 31.3228L133.468 25.5988C133.228 25.4422 133.028 25.2309 132.885 24.9822C132.741 24.7334 132.659 24.4544 132.645 24.1678C132.645 23.6304 133.013 23.4173 133.468 23.6781Z" fill="#E6E6E6"/>
    <path d="M126.362 71.9411C125.027 74.1989 123.742 76.1609 122.839 77.1022C121.125 77.8972 117.099 79.1247 115.525 79.3282C115.248 79.3634 114.969 79.298 114.736 79.1438C114.116 78.7367 113.636 78.67 112.984 78.4442C112.472 78.2693 112.256 78.0244 112.161 78.1262C112.062 78.2417 112.012 78.3911 112.023 78.5426C112.033 78.6941 112.102 78.8357 112.215 78.9371C112.459 79.1695 112.73 79.3723 113.022 79.5413C112.324 79.7145 111.596 79.7276 110.892 79.5794C109.527 79.2201 108.885 79.8752 109.807 81.3571C110.125 81.8849 111.435 82.734 114.069 82.505C115.008 82.4544 115.943 82.3482 116.87 82.187C119.395 81.6464 122.203 81.1249 123.93 80.597C124.572 80.3445 125.147 79.946 125.609 79.4332C128.512 76.1228 129.476 73.7632 130.748 71.6199L130.64 68.1219C128.579 68.0519 127.479 70.0522 126.362 71.9411Z" fill="#FFA8A7"/>
    <path d="M130.993 68.052C130.396 67.968 129.787 68.0489 129.232 68.286C128.677 68.5231 128.197 68.9073 127.845 69.3971C126.433 71.2066 123.934 75.5504 123.934 75.5504C123.934 75.5504 124.751 77.7287 126.958 78.0944L130.503 73.3054C130.503 73.3054 132.183 69.9791 130.993 68.052Z" fill="#455A64"/>
    <path d="M138.66 116.878H136.348V120.999H138.66V116.878Z" fill="#FFA8A7"/>
    <path d="M130.645 116.658L128.336 116.741L128.219 112.378L130.645 112.295V116.658Z" fill="#FFA8A7"/>
    <path d="M138.983 81.2012C138.983 83.4972 138.646 101.995 138.646 101.995C138.697 102.657 139.282 103.878 139.164 106.419C138.989 109.869 138.757 118.938 138.757 118.938C138.36 119.141 137.923 119.251 137.477 119.26C137.031 119.269 136.589 119.176 136.185 118.989C136.185 118.989 134.309 106.269 133.895 102.863C133.533 99.8773 132.604 89.9939 132.604 89.9939L131.354 101.677C131.619 102.931 131.715 104.214 131.64 105.493C131.532 107.083 130.788 115.313 130.788 115.313C130.389 115.549 129.941 115.69 129.479 115.727C129.017 115.764 128.552 115.695 128.12 115.526C128.12 115.526 126.804 103.124 126.778 101.668C126.746 100.014 127.548 81.1821 127.548 81.1821L138.983 81.2012Z" fill="#37474F"/>
    <path d="M136.346 119.81V119.466C136.124 119.565 135.612 121.606 134.693 122.478C133.965 123.171 132.972 123.969 132.718 124.742C132.464 125.515 134.101 125.988 134.785 125.864C135.574 125.718 136.947 125.136 137.291 124.592C137.634 124.049 137.796 123.26 138.076 122.866C138.356 122.471 139.002 122.032 139.151 121.575C139.198 121.146 139.153 120.713 139.021 120.303C138.913 119.876 138.798 119.409 138.658 119.45V119.711C138.332 119.979 137.922 120.123 137.501 120.118C137.164 120.147 136.343 120.077 136.346 119.81Z" fill="#263238"/>
    <path d="M128.313 115.997C128.192 115.997 128.094 116.178 127.83 116.477C127.437 116.89 126.978 117.234 126.472 117.495C125.607 117.946 123.928 118.64 123.161 118.999C122.684 119.222 122.707 119.819 123.2 120.16C123.692 120.5 124.879 120.745 126.303 120.414C127.079 120.233 128.09 119.485 128.733 119.527C129.375 119.568 130.568 119.555 131.041 119.209C131.515 118.862 131.324 118.143 131.191 117.523C131.045 116.843 130.873 115.784 130.647 115.832V116.07C130.37 116.509 128.936 116.687 128.326 116.366L128.313 115.997Z" fill="#263238"/>
    <path d="M132.605 89.994C131.402 89.6003 130.303 88.943 129.387 88.0701C129.387 88.0701 130.023 89.2816 131.854 90.4105L131.46 100.844L132.605 89.994Z" fill="#263238"/>
    <path d="M137.694 68.3891C137.694 68.3891 139.602 68.8279 139.465 72.2751L139.068 77.7606V85.9968C137.369 87.9238 129.846 87.7839 127.254 85.8441C127.254 85.8441 127.546 76.0974 127.721 72.345C127.845 69.6802 128.459 68.3382 131.079 68.0457L134.301 68.1856L137.694 68.3891Z" fill="#FF725E"/>
    <path d="M135.262 61.2277C135.273 61.6892 135.192 62.1483 135.025 62.5785C134.858 63.0087 134.607 63.4016 134.287 63.7345C133.967 64.0673 133.585 64.3336 133.162 64.5179C132.738 64.7022 132.283 64.8009 131.821 64.8083C129.913 64.8083 128.794 63.1611 128.38 61.2277C127.617 57.6883 129.92 57.6438 131.821 57.6438C132.753 57.663 133.638 58.0513 134.284 58.7234C134.929 59.3954 135.281 60.2962 135.262 61.2277Z" fill="#263238"/>
    <path d="M137.018 62.6746C137.018 62.6746 136.49 65.2567 136.277 65.6828C136.143 65.9393 135.915 66.1341 135.641 66.2266L135.679 64.4108L137.018 62.6746Z" fill="#263238"/>
    <path d="M136.354 58.9764C136.354 58.9764 136.733 58.8809 137.136 59.5106C137.48 60.048 137.559 61.2564 137.019 62.6906L136.023 62.8114L136.354 58.9764Z" fill="#263238"/>
    <path d="M136.719 59.5009L137.94 59.5232C137.948 59.4443 137.94 59.3645 137.916 59.2888C137.892 59.2132 137.853 59.1433 137.801 59.0836C137.748 59.0238 137.684 58.9755 137.613 58.9418C137.541 58.908 137.463 58.8894 137.383 58.8872C137.216 58.8896 137.056 58.9536 136.934 59.0669C136.811 59.1801 136.734 59.3347 136.719 59.5009Z" fill="#263238"/>
    <path d="M136.868 59.2116L137.771 58.3435C137.719 58.2821 137.655 58.2322 137.583 58.1969C137.51 58.1616 137.432 58.1417 137.351 58.1384C137.271 58.1351 137.191 58.1486 137.116 58.1778C137.041 58.2071 136.973 58.2516 136.916 58.3085C136.796 58.4256 136.725 58.5835 136.716 58.7508C136.707 58.918 136.761 59.0825 136.868 59.2116Z" fill="#263238"/>
    <path d="M135.726 62.7954C135.926 62.9194 136.209 62.5219 136.457 62.2516C136.705 61.9813 137.475 61.7333 137.876 62.6109C138.276 63.4886 137.593 64.3568 137.02 64.643C135.993 65.1518 135.669 64.4108 135.669 64.4108L135.583 68.5003C134.139 70.7263 130.864 70.6563 132.044 68.3922V67.1488C131.558 67.2295 131.065 67.2551 130.574 67.2251C129.773 67.0979 129.271 66.4397 129.026 65.5365C128.638 64.0865 128.488 62.9162 128.819 60.0638C129.182 56.941 132.673 56.906 134.543 58.1558C136.413 59.4055 135.726 62.7954 135.726 62.7954Z" fill="#FFA8A7"/>
    <path d="M131.376 59.5773C132.209 59.4946 133.033 59.3229 133.869 59.2593C134.049 59.2375 134.232 59.2461 134.41 59.2848C135.046 59.4597 134.969 60.2038 135.071 60.7221C135.246 61.6189 135.389 63.1357 135.726 63.1421C135.828 63.1421 136.209 62.4838 136.457 62.2485C136.594 62.0458 136.671 61.809 136.68 61.5648C136.744 61.1959 136.775 60.8175 136.804 60.4423C136.83 60.1243 136.861 59.8063 136.861 59.4883C136.876 59.1289 136.847 58.7691 136.775 58.4166C136.696 58.1168 136.543 57.8414 136.33 57.6153L136.267 57.5453C135.847 57.1071 135.339 56.7643 134.775 56.5404C133.964 56.2367 133.114 56.0514 132.25 55.9903C131.388 55.9292 130.529 55.8231 129.678 55.6723C129.629 55.6581 129.577 55.6581 129.528 55.6723C129.494 55.6914 129.465 55.7189 129.443 55.7522C129.422 55.7856 129.41 55.8237 129.407 55.8631C129.373 56.0607 129.394 56.2641 129.47 56.4499C129.546 56.6356 129.673 56.796 129.837 56.9125C129.261 56.957 128.6 56.6581 128.046 56.5054C128.002 56.4865 127.953 56.4767 127.905 56.4767C127.856 56.4767 127.808 56.4865 127.763 56.5054C127.708 56.5443 127.668 56.6019 127.652 56.6676C127.612 56.817 127.606 56.9737 127.636 57.1255C127.687 57.5858 127.858 58.0245 128.132 58.3975C128.561 58.9556 129.166 59.3514 129.849 59.5201C130.352 59.617 130.867 59.6364 131.376 59.5773Z" fill="#263238"/>
    <path d="M132.047 67.1489C132.047 67.1489 133.834 66.7736 134.457 66.427C134.829 66.2239 135.13 65.9136 135.322 65.5366C135.228 65.9154 135.061 66.272 134.829 66.586C134.375 67.1966 132.047 67.6418 132.047 67.6418V67.1489Z" fill="#F28F8F"/>
    <path d="M132.473 62.3281C132.469 62.4262 132.505 62.5218 132.572 62.5939C132.638 62.6659 132.731 62.7087 132.829 62.7128C132.907 62.7193 132.985 62.702 133.053 62.6633C133.121 62.6246 133.175 62.5663 133.21 62.496C133.244 62.4257 133.256 62.3467 133.245 62.2694C133.233 62.1921 133.199 62.12 133.146 62.0627C133.092 62.0053 133.023 61.9653 132.947 61.9479C132.871 61.9306 132.791 61.9366 132.718 61.9653C132.646 61.994 132.583 62.044 132.54 62.1087C132.496 62.1734 132.473 62.2499 132.473 62.3281Z" fill="#263238"/>
    <path d="M133.047 60.7858L133.813 61.2278C133.869 61.1188 133.882 60.9928 133.849 60.8749C133.816 60.7571 133.739 60.656 133.635 60.5918C133.584 60.5633 133.528 60.5456 133.47 60.54C133.412 60.5344 133.354 60.5409 133.298 60.5592C133.243 60.5774 133.192 60.607 133.149 60.646C133.105 60.685 133.071 60.7326 133.047 60.7858Z" fill="#263238"/>
    <path d="M132.204 64.907L131.387 65.225C131.403 65.281 131.431 65.3331 131.468 65.378C131.506 65.4228 131.552 65.4595 131.604 65.4858C131.656 65.512 131.713 65.5273 131.772 65.5305C131.83 65.5338 131.888 65.5251 131.943 65.5048C132.054 65.4569 132.143 65.3685 132.192 65.2574C132.24 65.1464 132.245 65.0211 132.204 64.907Z" fill="#F28F8F"/>
    <path d="M129.186 61.1133L129.885 60.5537C129.854 60.5048 129.813 60.4631 129.764 60.4313C129.716 60.3994 129.661 60.3782 129.604 60.3689C129.546 60.3596 129.488 60.3624 129.432 60.3773C129.376 60.3921 129.323 60.4187 129.278 60.4551C129.184 60.5343 129.123 60.6452 129.106 60.7666C129.089 60.888 129.118 61.0114 129.186 61.1133Z" fill="#263238"/>
    <path d="M129.496 62.2232C129.502 62.2927 129.528 62.3592 129.57 62.4144C129.613 62.4696 129.671 62.5112 129.737 62.5341C129.803 62.5569 129.874 62.5601 129.942 62.5432C130.01 62.5262 130.071 62.4899 130.118 62.4387C130.166 62.3875 130.197 62.3236 130.209 62.2548C130.221 62.186 130.212 62.1152 130.184 62.0512C130.156 61.9872 130.11 61.9327 130.052 61.8943C129.994 61.856 129.926 61.8354 129.856 61.8352C129.807 61.8368 129.758 61.8482 129.714 61.8686C129.669 61.8891 129.629 61.9182 129.595 61.9542C129.562 61.9903 129.536 62.0327 129.519 62.0788C129.502 62.125 129.494 62.174 129.496 62.2232Z" fill="#263238"/>
    <path d="M131.412 61.9241L131.371 64.1851L130.086 63.8925L131.412 61.9241Z" fill="#F28F8F"/>
    <path d="M100.902 80.861L102.896 79.7099L103.685 78.7527L101.694 79.9038L100.902 80.861Z" fill="#FF725E"/>
    <path opacity="0.4" d="M100.902 80.861L102.896 79.7099L103.685 78.7527L101.694 79.9038L100.902 80.861Z" fill="black"/>
    <path d="M106.324 83.9902L108.318 82.839L109.981 81.3667L107.991 82.5147L106.324 83.9902Z" fill="#FF725E"/>
    <path opacity="0.4" d="M106.324 83.9902L108.318 82.839L109.981 81.3667L107.991 82.5147L106.324 83.9902Z" fill="black"/>
    <path d="M123.262 87.9619C123.733 88.5939 124.018 89.3451 124.085 90.1307C123.616 89.4976 123.331 88.747 123.262 87.9619ZM127.895 88.0223C127.224 83.459 124.772 78.9466 121.853 77.258C120.451 76.4471 119.153 76.4185 118.113 77.0259L116.237 78.1071L116.132 78.1707C116.049 78.2167 115.968 78.2677 115.89 78.3233C115.736 78.4294 115.592 78.5486 115.458 78.6795L115.394 78.7399C115.337 78.7972 115.277 78.8639 115.223 78.9275C115.169 78.9911 115.086 79.0897 115.022 79.1756C114.887 79.3533 114.765 79.5403 114.657 79.7353C114.599 79.8338 114.545 79.9388 114.494 80.0533L98.1079 70.5959L96.1172 71.7439V73.0159L96.2857 73.1113L96.4447 73.2035V73.4579L96.1267 73.6456V74.3833L98.534 79.4713L100.913 80.8483L101.704 79.8943L103.803 81.1504L105.008 83.2142L106.338 83.9806L108.001 82.5051L110.042 83.6848L110.729 86.5182L114.161 88.5025C114.33 89.2237 114.542 89.9341 114.797 90.6299C114.819 90.6999 114.847 90.7731 114.876 90.8526C116.014 93.8418 117.824 96.4016 119.865 97.5814C120.11 97.7265 120.366 97.851 120.632 97.9535C120.772 98.0093 120.915 98.057 121.061 98.0966C121.188 98.1305 121.316 98.1591 121.443 98.1824C121.844 98.2557 122.256 98.2557 122.657 98.1824L122.823 98.1411C122.902 98.1252 122.98 98.1028 123.055 98.0743L123.233 98.0044C123.296 97.9816 123.357 97.9529 123.414 97.9185C123.473 97.8931 123.53 97.8644 123.586 97.8326L123.669 97.7818C123.684 97.7768 123.698 97.7693 123.71 97.7595C124.165 97.4988 125.284 96.85 125.589 96.6783C127.103 95.8006 128.083 93.581 128.083 90.4423C128.08 89.6321 128.017 88.8232 127.895 88.0223Z" fill="#FF725E"/>
    <path d="M122.679 91.8129C121.89 91.3581 121.254 90.0098 121.254 88.8014C121.254 87.593 121.89 86.9793 122.679 87.4308C123.468 87.8824 124.1 89.2339 124.1 90.4455C124.1 91.6571 123.464 92.2676 122.679 91.8129ZM125.9 89.1703C125.233 84.6102 122.781 80.0946 119.858 78.4092C118.504 77.6269 117.251 77.5697 116.233 78.1071L116.128 78.1707C116.045 78.2167 115.964 78.2676 115.887 78.3233C115.732 78.4294 115.588 78.5486 115.454 78.6795L115.39 78.7399C115.333 78.7971 115.273 78.8639 115.219 78.9275C115.165 78.9911 115.082 79.0897 115.018 79.1756C114.883 79.3532 114.761 79.5403 114.653 79.7352C114.595 79.8338 114.541 79.9388 114.491 80.0532C114.194 80.6679 113.98 81.3191 113.855 81.9899L96.1133 71.7439V73.0159L96.2818 73.1113L96.4408 73.2035V73.4579L96.1228 73.6455V74.3833L98.5301 79.4713L100.909 80.8482L101.701 79.8942L103.799 81.1503L105.005 83.2142L106.334 83.9805L107.997 82.505L110.039 83.6848L110.725 86.5182L114.16 88.5025C114.329 89.2236 114.542 89.934 114.796 90.6299C114.818 90.6999 114.847 90.773 114.875 90.8525C116.014 93.8417 117.823 96.4016 119.865 97.5814C120.109 97.7265 120.366 97.851 120.631 97.9535C120.771 98.0092 120.915 98.057 121.06 98.0966C121.188 98.1305 121.315 98.1591 121.442 98.1824C121.844 98.2556 122.255 98.2556 122.657 98.1824L122.822 98.1411C122.901 98.1251 122.979 98.1028 123.054 98.0743L123.232 98.0043C123.295 97.9816 123.356 97.9528 123.414 97.9185C123.472 97.8931 123.53 97.8644 123.585 97.8326L123.668 97.7817C123.683 97.7768 123.697 97.7693 123.709 97.7595C125.159 96.8436 126.091 94.6558 126.091 91.5935C126.086 90.7822 126.022 89.9724 125.9 89.1703Z" fill="#FF725E"/>
    <path opacity="0.4" d="M124.1 90.4425C124.1 91.6541 123.464 92.2678 122.679 91.8131C121.893 91.3583 121.254 90.0132 121.254 88.8016C121.254 87.59 121.89 86.9763 122.679 87.431C122.906 87.5693 123.103 87.7508 123.26 87.9653C123.329 88.7505 123.614 89.5014 124.084 90.134C124.096 90.2364 124.101 90.3395 124.1 90.4425Z" fill="black"/>
    <path opacity="0.4" d="M128.077 90.4392C128.077 93.5779 127.097 95.7976 125.584 96.6752C125.266 96.847 124.159 97.4957 123.704 97.7564C125.154 96.8406 126.086 94.6527 126.086 91.5904C126.083 90.7804 126.021 89.9716 125.902 89.1704C125.234 84.6103 122.782 80.0947 119.86 78.4093C118.505 77.627 117.252 77.5698 116.234 78.1072L118.111 77.026C119.15 76.4186 120.448 76.4472 121.85 77.2581C124.773 78.9467 127.224 83.4591 127.892 88.0224C128.013 88.8224 128.075 89.6302 128.077 90.4392Z" fill="white"/>
    <path d="M126.085 91.584C126.085 94.6463 125.153 96.8342 123.703 97.75C124.158 97.4892 125.277 96.8405 125.583 96.6688C127.096 95.7911 128.076 93.5715 128.076 90.4328C128.076 90.3183 128.076 90.2007 128.076 90.083L126.085 91.2342C126.082 91.3582 126.085 91.4727 126.085 91.584Z" fill="#FF725E"/>
    <path opacity="0.1" d="M126.085 91.584C126.085 94.6463 125.153 96.8342 123.703 97.75C124.158 97.4892 125.277 96.8405 125.583 96.6688C127.096 95.7911 128.076 93.5715 128.076 90.4328C128.076 90.3183 128.076 90.2007 128.076 90.083L126.085 91.2342C126.082 91.3582 126.085 91.4727 126.085 91.584Z" fill="black"/>
    <path opacity="0.15" d="M113.932 83.2906V83.9361L96.1172 73.652L96.4447 73.4612V73.1941L113.932 83.2906Z" fill="black"/>
    <path opacity="0.15" d="M113.932 83.5577V83.9361L96.1172 73.652L96.4447 73.4612V73.458L113.932 83.5577Z" fill="black"/>
    <path opacity="0.15" d="M121.678 96.672C121.003 96.6545 120.344 96.4581 119.77 96.1028C116.867 94.427 114.504 89.4407 114.504 84.9887C114.504 82.3907 115.289 80.4509 116.66 79.659C117.614 79.1057 118.743 79.1757 119.929 79.8594C122.829 81.5352 125.192 86.5374 125.192 90.9894C125.192 93.5843 124.406 95.5272 123.036 96.3159C122.622 96.552 122.154 96.6748 121.678 96.672ZM118.037 79.6113C117.613 79.609 117.196 79.7187 116.828 79.9293C115.579 80.6512 114.831 82.5433 114.831 84.9855C114.831 89.3358 117.121 94.2075 119.939 95.823C121.017 96.459 122.037 96.5162 122.886 96.0265C124.136 95.3046 124.883 93.4157 124.883 90.9735C124.883 86.6201 122.594 81.7515 119.78 80.1329C119.254 79.8129 118.652 79.6373 118.037 79.6241V79.6113Z" fill="black"/>
    <path opacity="0.4" d="M114.479 80.0469C114.182 80.6616 113.968 81.3128 113.843 81.9835L96.1016 71.7376L98.0922 70.5896L114.479 80.0469Z" fill="white"/>
    <path d="M137.539 81.0424C138.467 79.2838 139.529 75.3343 140.057 73.3404C140.808 70.5102 139.593 68.7294 138.213 68.6562C137.351 68.7898 134.511 79.1153 134.511 79.1153C134.193 79.3665 129.878 81.5575 128.492 82.1077C128.244 82.2014 127.97 82.2014 127.722 82.1077C127.057 81.866 126.603 81.9105 125.951 81.8469C125.439 81.796 125.181 81.6147 125.114 81.7229C125.054 81.8571 125.046 82.0092 125.093 82.1489C125.139 82.2886 125.237 82.4056 125.366 82.4765C125.646 82.64 125.945 82.7702 126.256 82.8645C125.699 83.0335 125.118 83.1119 124.536 83.0966C123.2 83.068 122.72 83.6468 123.757 85.0046C124.393 85.8505 125.445 86.1176 127.795 85.3067C128.469 85.0714 129.385 84.6167 130.241 84.3082C132.002 83.6722 132.467 83.5959 133.809 83.1412C135.764 82.4797 137.125 81.8246 137.539 81.0424Z" fill="#FFA8A7"/>
    <path d="M137.691 68.3892C138.502 68.5005 139.281 68.6817 139.761 69.3432C140.241 70.0046 140.626 70.9332 140.156 73.4613C139.795 75.2392 139.313 76.9902 138.712 78.7019C138.712 78.7019 136.823 79.5096 134.816 77.4617L136.197 72.1257C136.197 72.1257 136.419 68.6563 137.691 68.3892Z" fill="#455A64"/>
    </svg>