<svg
                      width="150"
                      height="130"
                      viewBox="0 0 25 30"
                      fill="none"
                      xmlns="http://www.w3.org/2000/svg"
                    >
                      <path
                        d="M5.75321 8.12402C5.75272 8.12402 5.75218 8.12402 5.75169 8.12402C5.58145 8.12402 5.42133 8.19039 5.30042 8.31099C5.17817 8.43293 5.11084 8.5953 5.11084 8.76815V18.4267C5.11084 18.7808 5.40011 19.0697 5.75575 19.0706C7.25503 19.0742 9.76692 19.3867 11.4998 21.2001V11.0922C11.4998 10.9721 11.4691 10.8593 11.4112 10.766C9.98898 8.47554 7.25588 8.12754 5.75321 8.12402Z"
                        fill="#2aa0d1"
                      />
                      <path
                        d="M18.8889 18.4267V8.76815C18.8889 8.5953 18.8215 8.43293 18.6993 8.31099C18.5784 8.19039 18.4181 8.12402 18.2481 8.12402C18.2475 8.12402 18.247 8.12402 18.2465 8.12402C16.7439 8.1276 14.0108 8.4756 12.5885 10.766C12.5306 10.8594 12.5 10.9722 12.5 11.0922V21.2001C14.2329 19.3867 16.7447 19.0742 18.244 19.0706C18.5996 19.0697 18.8889 18.7808 18.8889 18.4267Z"
                        fill="#2aa0d1"
                      />
                      <path
                        d="M20.3562 10.3516H19.8891V18.4268C19.8891 19.3311 19.1524 20.0685 18.2467 20.0707C16.975 20.0738 14.8781 20.3224 13.3931 21.728C15.9614 21.0991 18.669 21.5079 20.212 21.8595C20.4047 21.9034 20.6038 21.8581 20.7581 21.7351C20.9119 21.6123 21.0002 21.4289 21.0002 21.232V10.9956C21.0002 10.6405 20.7113 10.3516 20.3562 10.3516Z"
                        fill="#2aa0d1"
                      />
                      <path
                        d="M4.11103 18.4268V10.3516H3.644C3.28897 10.3516 3 10.6405 3 10.9956V21.2318C3 21.4288 3.08824 21.6121 3.24206 21.7349C3.3963 21.8578 3.59521 21.9034 3.78818 21.8594C5.33122 21.5077 8.0388 21.0989 10.6071 21.7278C9.12208 20.3223 7.02523 20.0737 5.75352 20.0707C4.84788 20.0685 4.11103 19.3311 4.11103 18.4268Z"
                        fill="#2aa0d1"
                      />
                    </svg>