<svg width="36" height="36" viewBox="0 0 36 36" fill="none" xmlns="http://www.w3.org/2000/svg">
<circle cx="18" cy="18" r="18" fill="#F5ECD4"/>
<path d="M23.6 9H12.3C11 9 10 10 10 11.3V25.4C10 26.7 11 27.7 12.3 27.7H23.8C25 27.7 26 26.7 26 25.5V11.3C26 10.1 24.9 9 23.6 9ZM14.8 9.9H21.2V12C21.2 12.3 21 12.5 20.7 12.5H15.2C15 12.5 14.8 12.3 14.8 12V9.9ZM25 25.6C25 26.3 24.5 26.8 23.8 26.8H12.3C11.5 26.8 10.9 26.2 10.9 25.4V11.3C10.9 10.5 11.5 9.9 12.3 9.9H13.9V12C13.9 12.8 14.5 13.4 15.3 13.4H20.7C21.5 13.4 22.1 12.8 22.1 12V9.9H23.7C24.5 9.9 25.1 10.5 25.1 11.3L25 25.6Z" fill="black" stroke="black" stroke-width="0.3"/>
<path d="M13.8008 17.7H17.3008C17.6008 17.7 17.8008 17.5 17.8008 17.2C17.8008 16.9 17.6008 16.7 17.3008 16.7H13.8008C13.5008 16.7 13.3008 16.9 13.3008 17.2C13.4008 17.5 13.6008 17.7 13.8008 17.7Z" fill="black" stroke="black" stroke-width="0.3"/>
<path d="M22.1008 19.7H13.8008C13.5008 19.7 13.3008 19.9 13.3008 20.2C13.3008 20.5 13.5008 20.7 13.8008 20.7H22.1008C22.4008 20.7 22.6008 20.5 22.6008 20.2C22.6008 19.9 22.3008 19.7 22.1008 19.7Z" fill="black" stroke="black" stroke-width="0.3"/>
<path d="M22.1008 22.7H13.8008C13.5008 22.7 13.3008 22.9 13.3008 23.2C13.3008 23.5 13.5008 23.7 13.8008 23.7H22.1008C22.4008 23.7 22.6008 23.5 22.6008 23.2C22.6008 22.9 22.3008 22.7 22.1008 22.7Z" fill="black" stroke="black" stroke-width="0.3"/>
</svg>
