<svg width="36" height="36" viewBox="0 0 36 36" fill="none" xmlns="http://www.w3.org/2000/svg">
<circle cx="18" cy="18" r="18" fill="#FEE1D4"/>
<path d="M21.5231 17.3238C21.3808 17.1815 21.2384 17.1103 21.0249 17.0391C20.9537 16.968 20.8114 16.8968 20.7402 16.8256C19.9573 16.3274 19.2456 15.8292 18.4626 15.331C17.6797 14.8327 16.968 14.3345 16.1851 13.8363C16.0427 13.694 15.8292 13.6228 15.5445 13.694C15.331 13.694 15.1886 13.8363 15.0463 13.9786C14.9751 14.0498 14.9751 14.2633 14.9751 14.4769V21.5943C14.9751 21.879 15.1174 22.1637 15.4021 22.3061C15.5445 22.3772 15.6868 22.3772 15.8292 22.3772C15.9715 22.3772 16.1139 22.306 16.2562 22.2349C16.6833 21.9502 17.0391 21.7367 17.4662 21.452C18.8897 20.5267 20.242 19.6014 21.5943 18.6762C21.8078 18.5338 21.9502 18.2491 21.9502 18.0356C21.879 17.7509 21.8078 17.5374 21.5231 17.3238ZM16.1139 20.8826V15.0463C16.4698 15.2598 16.8256 15.4733 17.1103 15.758C18.2491 16.4698 19.3167 17.2527 20.4555 17.9644C19.032 18.9609 17.5374 19.9573 16.1139 20.8826ZM17.9644 8C12.484 8 8 12.484 8 17.9644C8 23.516 12.484 27.9288 17.9644 28C23.4448 28 28 23.516 28 18.0356C28 12.484 23.516 8 17.9644 8ZM17.9644 26.8612C13.0534 26.8612 9.06762 22.8754 9.13879 17.9644C9.13879 13.0534 13.1246 9.06762 18.0356 9.06762C22.9466 9.06762 26.9324 13.0534 26.9324 17.9644C26.8612 22.9466 22.8754 26.9324 17.9644 26.8612Z" fill="#1F2430" stroke="#1F2430" stroke-width="0.2"/>
</svg>
