<svg width="191" height="117" viewBox="0 0 191 117" fill="none" xmlns="http://www.w3.org/2000/svg">
<path d="M184.314 83.5099C182.717 77.5865 172.77 79.4377 172.77 79.4377C172.77 79.4377 166.016 89.8031 164.052 90.0501C162.087 90.2971 168.104 80.0545 168.104 80.0545C164.298 79.6847 154.597 84.3737 154.597 84.3737C154.597 84.3737 155.211 96.4668 153.246 96.2205C151.281 95.9735 153.246 85.4846 153.246 85.4846C149.562 86.5955 146.124 90.914 146.124 90.914C141.826 97.9475 151.036 103.131 151.036 103.131C151.036 103.131 151.159 107.326 148.58 112.139C148.58 112.139 147.998 113.028 147.407 114.538H148.411C148.493 114.268 148.584 114.006 148.684 113.754C148.684 113.752 148.685 113.751 148.686 113.75C148.688 113.747 148.689 113.743 148.69 113.739C148.759 113.583 148.858 113.362 148.981 113.091L148.982 113.091C148.982 113.09 148.983 113.09 148.983 113.089C149.289 112.486 149.497 112.039 149.628 111.718C149.628 111.717 149.628 111.716 149.628 111.715C150.548 109.821 151.873 107.351 152.755 106.834C152.755 106.834 152.645 106.677 152.541 106.371C152.609 106.519 152.681 106.673 152.755 106.834C154.475 110.536 163.07 111.153 167.86 110.166C172.649 109.178 170.562 107.821 167.983 105.618C165.404 103.415 160.001 103.995 158.405 103.131C156.808 102.267 159.142 101.404 162.334 101.651C165.527 101.898 167.123 105.106 172.281 105.599C177.439 106.093 181.368 96.344 181.368 96.344C177.807 97.4549 171.421 95.4802 171.176 94.2465C170.93 93.0129 180.386 93.1357 181.86 92.7659C183.331 92.3946 185.91 89.4333 184.314 83.5099Z" fill="#DFEBFD"/>
<path d="M48.7581 85.1261C48.7581 85.1261 49.1968 88.6447 48.5406 88.6866C47.8837 88.7284 48.3329 84.7301 48.3329 84.7301C48.3329 84.7301 45.2108 82.9761 43.9408 83.0215C43.9408 83.0215 45.7286 86.5415 45.0823 86.4194C44.436 86.2973 42.4059 82.7213 42.4059 82.7213C42.4059 82.7213 39.1447 81.9036 38.4956 83.8357C37.8465 85.7671 38.6411 86.802 39.1228 86.9553C39.6039 87.1079 42.7422 87.2605 42.6355 87.6651C42.5288 88.069 40.3717 88.5936 39.2125 88.1521C39.2125 88.1521 40.318 91.4655 42.0386 91.4073C43.7593 91.3491 44.3533 90.3177 45.4171 90.3014C46.4809 90.2851 47.2373 90.6194 46.6899 90.8728C46.1432 91.1269 44.3632 90.8231 43.4633 91.501C42.5634 92.1788 41.8437 92.5863 43.4118 93.0115C44.9799 93.4366 47.8434 93.4082 48.4883 92.2158C48.5165 92.1639 48.5434 92.1143 48.5688 92.0667C48.5278 92.1661 48.4883 92.2158 48.4883 92.2158C48.7708 92.4053 49.16 93.2521 49.4263 93.8987C49.463 94.008 49.5231 94.1606 49.6128 94.3679C49.6488 94.4616 49.6771 94.5376 49.6968 94.5908C50.1708 96.0331 49.7258 98.4458 49.7258 98.4458L50.0592 98.5587C50.9605 96.1552 49.7647 94.0613 49.7647 94.0613C49.0067 92.4124 49.1325 91.0233 49.1325 91.0233C49.1325 91.0233 52.292 89.4929 51.0092 87.0724C51.0099 87.0724 49.9575 85.5698 48.7581 85.1261Z" fill="#AFCDFB"/>
<path d="M25.1313 100.831C24.8481 96.4905 31.9412 95.4371 31.9412 95.4371C31.9412 95.4371 38.8387 100.83 40.2125 100.541C41.5863 100.254 35.2116 94.7742 35.2116 94.7742C37.6795 93.6477 45.2558 94.5534 45.2558 94.5534C45.2558 94.5534 47.6072 102.804 48.8681 102.185C50.1289 101.566 46.4149 94.9864 46.4149 94.9864C49.1393 94.8814 52.4316 96.9838 52.4316 96.9838C56.9204 100.709 51.9294 106.309 51.9294 106.309C51.9294 106.309 52.8059 109.151 55.6341 111.783C55.6341 111.783 56.2275 112.245 56.9691 113.121L56.296 113.353C56.1794 113.19 56.0587 113.036 55.9343 112.891C55.9336 112.889 55.9329 112.889 55.9322 112.888C55.9301 112.886 55.9287 112.884 55.9266 112.882C55.8446 112.793 55.7281 112.667 55.5833 112.514L55.5826 112.513C55.5826 112.512 55.5819 112.513 55.5819 112.512C55.2379 112.178 54.997 111.928 54.836 111.742C54.8353 111.741 54.8353 111.74 54.8346 111.739C53.7849 110.681 52.3327 109.331 51.6221 109.188C51.6221 109.188 51.661 109.057 51.6602 108.828C51.6482 108.943 51.6355 109.062 51.6221 109.188C51.3148 112.067 45.6923 114.464 42.2553 114.907C38.8182 115.35 39.9081 113.958 41.1336 111.886C42.3591 109.814 46.1154 108.956 46.9885 108.009C47.8615 107.061 46.0999 107.02 44.0155 107.922C41.931 108.824 41.5934 111.344 38.2481 112.865C34.9022 114.386 30.0404 108.756 30.0404 108.756C32.6821 108.679 36.5127 105.882 36.3954 104.998C36.2782 104.113 29.9662 106.378 28.8933 106.47C27.8197 106.562 25.4138 105.172 25.1313 100.831Z" fill="#CDE0FB"/>
<path d="M157.964 22.9875C157.964 22.9875 157.208 22.414 157.012 21.5566C156.867 20.9206 157.231 20.122 157.26 20.0858L156.247 19.8828C156.247 19.8828 155.947 21.2336 156.455 22.1322C156.61 22.4076 157.062 22.7867 157.353 22.9279C157.673 23.0841 157.964 22.9875 157.964 22.9875Z" fill="#6BB7BF"/>
<path d="M159.723 22.368L160.645 23.4277C160.645 23.4277 158.04 24.1227 156.551 22.2708C156.55 22.2708 158.743 23.0161 159.723 22.368Z" fill="#86D1CD"/>
<path d="M112.223 9.0669C112.223 9.0669 113.163 7.49893 114.822 8.45859L115.731 7.46485C115.731 7.46485 114.782 6.83312 112.775 8.20661C111.46 9.10523 112.223 9.0669 112.223 9.0669Z" fill="#F99746"/>
<path d="M111.293 10.6044C111.293 10.6044 110.977 8.89513 113.778 7.63379C113.778 7.63379 112.773 8.20661 112.564 9.94424L111.293 10.6044Z" fill="#F99746"/>
<path d="M54.2148 59.9641C54.2148 59.9641 52.675 59.3544 53.2796 57.7169L52.2568 57.049C52.2568 57.049 51.8373 57.9987 53.3651 59.5979C54.3646 60.6449 54.2148 59.9641 54.2148 59.9641Z" fill="#5685D8"/>
<path d="M55.7253 60.5672C55.7253 60.5672 54.2491 61.1095 52.7021 58.7799C52.7021 58.7799 53.364 59.5976 54.9448 59.5238L55.7253 60.5672Z" fill="#739AF0"/>
<path d="M58.6523 38.5093C58.6523 38.5093 59.5027 37.9694 59.5925 37.3174C59.5925 37.3174 60.4202 37.3621 60.5997 37.6321C60.5997 37.6321 60.2194 38.7117 59.772 38.9142C59.7713 38.9142 58.7647 38.9816 58.6523 38.5093Z" fill="#F1A34F"/>
<path d="M2.87332 77.493C2.87332 77.493 1.96643 76.917 1.8703 76.2216C1.8703 76.2216 0.986747 76.2699 0.795898 76.5575C0.795898 76.5575 1.20163 77.709 1.67945 77.9249C1.67945 77.9249 2.75386 77.9966 2.87332 77.493Z" fill="#F1A34F"/>
<path d="M104.455 26.6943C104.455 26.6943 103.189 25.8908 103.056 24.9198C103.056 24.9198 101.823 24.9865 101.557 25.3883C101.557 25.3883 102.123 26.9953 102.79 27.297C102.789 27.297 104.289 27.3978 104.455 26.6943Z" fill="#86D1CD"/>
<path d="M182.199 22.9579L190.071 47.7248C190.418 48.8172 189.812 49.9976 188.725 50.3468L145.49 64.2237C144.403 64.5729 143.228 63.9639 142.881 62.8715L135.009 38.1046C134.662 37.0122 135.268 35.8318 136.355 35.4826L179.59 21.6057C180.678 21.2558 181.852 21.8648 182.199 22.9579Z" fill="#CDE0FB"/>
<path d="M157.336 54.4403L145.813 58.1391C145.325 58.2953 144.799 58.0227 144.643 57.5329L144.608 57.4215C144.451 56.9317 144.723 56.4029 145.211 56.246L156.734 52.5472C157.221 52.391 157.748 52.6636 157.904 53.1534L157.939 53.2648C158.095 53.7546 157.823 54.2834 157.336 54.4403Z" fill="#AFCDFB"/>
<path d="M172.521 49.5661L160.998 53.2642C160.511 53.4204 159.985 53.1478 159.828 52.6581L159.793 52.5466C159.637 52.0568 159.909 51.528 160.396 51.3712L171.92 47.6723C172.407 47.5162 172.933 47.7887 173.089 48.2785L173.125 48.3899C173.28 48.8811 173.009 49.41 172.521 49.5661Z" fill="#AFCDFB"/>
<path d="M158.806 41.1993C158.94 41.6216 158.977 41.9907 158.916 42.3073C158.84 42.7069 158.61 42.9681 158.225 43.0916C157.84 43.2151 157.501 43.1363 157.209 42.8553C156.977 42.6324 156.794 42.3101 156.659 41.8878C156.525 41.4654 156.488 41.0985 156.546 40.7847C156.623 40.3851 156.854 40.1232 157.242 39.999C157.63 39.8747 157.97 39.9528 158.262 40.2339C158.49 40.4554 158.672 40.7769 158.806 41.1993ZM158.276 41.3668C158.192 41.102 158.092 40.8891 157.975 40.7287C157.797 40.488 157.603 40.4014 157.395 40.4681C157.181 40.537 157.071 40.7194 157.067 41.0154C157.062 41.2156 157.102 41.4491 157.187 41.7167C157.416 42.4372 157.713 42.7388 158.079 42.621C158.29 42.5529 158.398 42.3683 158.4 42.0667C158.403 41.87 158.362 41.6365 158.276 41.3668Z" fill="#AFCDFB"/>
<path d="M161.172 40.4397C161.306 40.8621 161.343 41.2312 161.282 41.5478C161.206 41.9474 160.976 42.2086 160.591 42.3321C160.206 42.4556 159.868 42.3768 159.575 42.0957C159.343 41.8729 159.16 41.5506 159.026 41.1283C158.891 40.7059 158.854 40.3389 158.913 40.0252C158.989 39.6256 159.221 39.3637 159.608 39.2394C159.996 39.1152 160.336 39.1933 160.628 39.4744C160.856 39.6958 161.038 40.0174 161.172 40.4397ZM160.643 40.6073C160.559 40.3425 160.459 40.1295 160.342 39.9691C160.164 39.7285 159.97 39.6419 159.762 39.7086C159.548 39.7775 159.438 39.9599 159.434 40.2559C159.429 40.4561 159.468 40.6896 159.554 40.9572C159.783 41.6777 160.08 41.9793 160.446 41.8615C160.657 41.7934 160.765 41.6088 160.767 41.3071C160.77 41.1105 160.729 40.8777 160.643 40.6073Z" fill="#AFCDFB"/>
<path d="M164.756 39.2886C164.89 39.7109 164.927 40.0801 164.866 40.3966C164.79 40.7963 164.56 41.0575 164.175 41.181C163.79 41.3045 163.452 41.2257 163.159 40.9446C162.927 40.7217 162.744 40.3995 162.61 39.9771C162.475 39.5548 162.438 39.1878 162.497 38.8741C162.573 38.4745 162.805 38.2125 163.192 38.0883C163.58 37.9641 163.92 38.0422 164.212 38.3233C164.441 38.5454 164.622 38.867 164.756 39.2886ZM164.227 39.4568C164.143 39.1921 164.042 38.9791 163.925 38.8187C163.747 38.5781 163.554 38.4915 163.346 38.5582C163.132 38.6271 163.022 38.8095 163.018 39.1055C163.013 39.3056 163.052 39.5392 163.138 39.8068C163.367 40.5272 163.664 40.8289 164.03 40.7111C164.241 40.6429 164.349 40.4584 164.351 40.1567C164.354 39.9601 164.313 39.7266 164.227 39.4568Z" fill="#AFCDFB"/>
<path d="M167.123 38.5298C167.258 38.9521 167.294 39.3212 167.233 39.6378C167.157 40.0374 166.927 40.2987 166.542 40.4222C166.157 40.5457 165.819 40.4669 165.526 40.1858C165.294 39.9629 165.111 39.6407 164.977 39.2183C164.843 38.796 164.805 38.429 164.864 38.1153C164.94 37.7156 165.172 37.4537 165.559 37.3295C165.947 37.2053 166.287 37.2834 166.579 37.5652C166.808 37.7859 166.989 38.1075 167.123 38.5298ZM166.594 38.6973C166.51 38.4326 166.41 38.2196 166.293 38.0592C166.115 37.8186 165.921 37.732 165.713 37.7987C165.499 37.8675 165.389 38.05 165.385 38.346C165.38 38.5461 165.42 38.7797 165.505 39.0473C165.734 39.7677 166.031 40.0694 166.397 39.9516C166.608 39.8834 166.716 39.6989 166.719 39.3972C166.721 39.2006 166.68 38.967 166.594 38.6973Z" fill="#AFCDFB"/>
<path d="M169.489 37.7702C169.623 38.1925 169.66 38.5616 169.599 38.8782C169.522 39.2778 169.292 39.539 168.907 39.6625C168.522 39.786 168.184 39.7072 167.892 39.4262C167.659 39.2033 167.476 38.881 167.342 38.4587C167.208 38.0363 167.17 37.6694 167.229 37.3556C167.305 36.956 167.537 36.6941 167.925 36.5699C168.313 36.4456 168.652 36.5237 168.945 36.8055C169.173 37.0263 169.354 37.3478 169.489 37.7702ZM168.96 37.9377C168.875 37.6729 168.775 37.46 168.658 37.2996C168.48 37.0589 168.286 36.9723 168.078 37.039C167.864 37.1079 167.754 37.2903 167.75 37.5863C167.745 37.7865 167.785 38.02 167.87 38.2876C168.099 39.0081 168.397 39.3098 168.762 39.1919C168.974 39.1238 169.081 38.9392 169.084 38.6376C169.087 38.4409 169.045 38.2074 168.96 37.9377Z" fill="#AFCDFB"/>
<path d="M171.855 37.0105C171.989 37.4329 172.026 37.802 171.965 38.1185C171.889 38.5182 171.658 38.7794 171.273 38.9029C170.888 39.0264 170.55 38.9476 170.258 38.6665C170.025 38.4436 169.842 38.1214 169.708 37.699C169.574 37.2767 169.537 36.9097 169.595 36.596C169.671 36.1964 169.903 35.9344 170.291 35.8102C170.679 35.686 171.018 35.7641 171.311 36.0459C171.54 36.2666 171.721 36.5882 171.855 37.0105ZM171.326 37.178C171.242 36.9133 171.141 36.7003 171.024 36.5399C170.846 36.2993 170.653 36.2127 170.444 36.2794C170.23 36.3483 170.121 36.5307 170.116 36.8267C170.111 37.0268 170.151 37.2604 170.237 37.528C170.465 38.2484 170.763 38.5501 171.129 38.4323C171.34 38.3641 171.447 38.1796 171.45 37.8779C171.453 37.6813 171.412 37.4485 171.326 37.178Z" fill="#AFCDFB"/>
<path d="M175.442 35.8603C175.576 36.2826 175.613 36.6517 175.552 36.9683C175.476 37.3679 175.245 37.6291 174.86 37.7526C174.475 37.8761 174.137 37.7973 173.845 37.5163C173.612 37.2934 173.429 36.9711 173.295 36.5488C173.161 36.1264 173.123 35.7595 173.182 35.4457C173.258 35.0461 173.49 34.7842 173.878 34.66C174.266 34.5358 174.605 34.6138 174.898 34.8949C175.126 35.1164 175.307 35.4379 175.442 35.8603ZM174.912 36.0278C174.828 35.763 174.727 35.5501 174.61 35.3897C174.432 35.149 174.239 35.0624 174.03 35.1292C173.816 35.198 173.707 35.3804 173.703 35.6764C173.698 35.8766 173.737 36.1101 173.823 36.3777C174.052 37.0982 174.349 37.3999 174.715 37.282C174.926 37.2139 175.033 37.0293 175.036 36.7277C175.039 36.531 174.998 36.2975 174.912 36.0278Z" fill="#AFCDFB"/>
<path d="M177.806 35.1006C177.94 35.523 177.977 35.8921 177.916 36.2086C177.84 36.6083 177.61 36.8695 177.225 36.993C176.84 37.1165 176.501 37.0377 176.209 36.7566C175.976 36.5337 175.794 36.2115 175.659 35.7891C175.525 35.3668 175.488 34.9998 175.546 34.6861C175.623 34.2865 175.854 34.0245 176.242 33.9003C176.63 33.7761 176.97 33.8542 177.262 34.1353C177.491 34.3567 177.672 34.6783 177.806 35.1006ZM177.277 35.2681C177.193 35.0034 177.093 34.7904 176.975 34.63C176.797 34.3894 176.604 34.3028 176.395 34.3695C176.181 34.4384 176.072 34.6208 176.068 34.9168C176.063 35.1169 176.102 35.3505 176.188 35.6181C176.417 36.3385 176.714 36.6402 177.08 36.5224C177.291 36.4542 177.398 36.2697 177.401 35.968C177.404 35.7714 177.363 35.5379 177.277 35.2681Z" fill="#AFCDFB"/>
<path d="M180.172 34.3413C180.306 34.7637 180.343 35.1328 180.282 35.4493C180.206 35.849 179.976 36.1102 179.591 36.2337C179.206 36.3572 178.868 36.2784 178.575 35.9973C178.343 35.7744 178.16 35.4522 178.026 35.0298C177.891 34.6075 177.854 34.2405 177.913 33.9268C177.989 33.5272 178.221 33.2652 178.608 33.141C178.996 33.0168 179.336 33.0949 179.628 33.3767C179.856 33.5974 180.038 33.919 180.172 34.3413ZM179.643 34.5088C179.559 34.2441 179.459 34.0311 179.342 33.8707C179.164 33.6301 178.97 33.5435 178.762 33.6102C178.548 33.6791 178.438 33.8615 178.434 34.1575C178.429 34.3576 178.468 34.5912 178.554 34.8588C178.783 35.5792 179.08 35.8809 179.446 35.7631C179.657 35.6949 179.765 35.5104 179.767 35.2087C179.77 35.0121 179.729 34.7793 179.643 34.5088Z" fill="#AFCDFB"/>
<path d="M182.54 33.5817C182.675 34.004 182.711 34.3731 182.651 34.6897C182.574 35.0894 182.344 35.3506 181.959 35.4741C181.574 35.5976 181.236 35.5188 180.943 35.2377C180.711 35.0148 180.528 34.6926 180.394 34.2702C180.26 33.8479 180.222 33.4809 180.281 33.1672C180.357 32.7675 180.589 32.5056 180.976 32.3814C181.364 32.2572 181.704 32.3353 181.996 32.6164C182.225 32.8378 182.406 33.1594 182.54 33.5817ZM182.011 33.7492C181.927 33.4845 181.826 33.2715 181.709 33.1111C181.531 32.8705 181.337 32.7839 181.129 32.8506C180.915 32.9194 180.806 33.1019 180.801 33.3979C180.796 33.598 180.836 33.8316 180.921 34.0992C181.15 34.8196 181.448 35.1213 181.813 35.0035C182.025 34.9353 182.132 34.7508 182.135 34.4491C182.138 34.2525 182.097 34.0197 182.011 33.7492Z" fill="#AFCDFB"/>
<path d="M150.883 34.9912L139.606 38.6105C139.119 38.7674 138.592 38.4941 138.436 38.0044C138.281 37.5146 138.552 36.9858 139.04 36.8289L150.316 33.2096C150.804 33.0534 151.33 33.326 151.486 33.8157C151.642 34.3062 151.37 34.835 150.883 34.9912Z" fill="#AFCDFB"/>
<path d="M178.27 28.2906C178.167 27.9667 177.96 27.7053 177.698 27.5305C177.622 27.4794 177.518 27.5071 177.477 27.5895L177.442 27.6605C177.408 27.7287 177.429 27.8125 177.492 27.8551C177.681 27.983 177.83 28.1734 177.905 28.4078C177.98 28.6429 177.968 28.8844 177.887 29.0989C177.86 29.1706 177.892 29.2509 177.959 29.2864L178.029 29.3234C178.11 29.366 178.21 29.3283 178.243 29.2424C178.355 28.9476 178.373 28.6138 178.27 28.2906Z" fill="#AFCDFB"/>
<path d="M179 28.0551C178.831 27.5235 178.479 27.1004 178.037 26.835C177.962 26.7902 177.864 26.8201 177.825 26.8988L177.804 26.9393C177.768 27.011 177.794 27.0983 177.863 27.1395C178.232 27.3638 178.526 27.718 178.667 28.1623C178.809 28.6067 178.774 29.0659 178.602 29.4641C178.571 29.5379 178.599 29.6245 178.67 29.6621L178.71 29.6834C178.787 29.7246 178.884 29.692 178.92 29.6118C179.127 29.1369 179.17 28.5875 179 28.0551Z" fill="#AFCDFB"/>
<path d="M179.64 27.8502C179.414 27.1389 178.938 26.576 178.339 26.2296C178.263 26.1863 178.167 26.2162 178.127 26.2942C178.091 26.3666 178.118 26.4547 178.187 26.4951C178.723 26.8046 179.149 27.3071 179.351 27.9431C179.553 28.5791 179.496 29.2371 179.238 29.8007C179.204 29.8745 179.234 29.9611 179.305 29.9995C179.382 30.0399 179.478 30.0087 179.514 29.9292C179.802 29.2975 179.866 28.5614 179.64 27.8502Z" fill="#AFCDFB"/>
<path d="M180.334 27.6271C180.046 26.7207 179.434 26.008 178.667 25.5758C178.591 25.5332 178.495 25.5623 178.455 25.6404L178.421 25.7099C178.384 25.783 178.411 25.8718 178.481 25.9115C179.166 26.2984 179.712 26.9351 179.969 27.7442C180.226 28.5534 180.148 29.3903 179.814 30.1037C179.779 30.1775 179.809 30.2655 179.88 30.3031L179.949 30.3393C180.026 30.3798 180.121 30.3478 180.158 30.2691C180.534 29.4712 180.622 28.5336 180.334 27.6271Z" fill="#AFCDFB"/>
<path d="M151.243 44.4623H126.628V115.713H151.243V44.4623Z" fill="#FFA412"/>
<path d="M126.63 44.4623H61.5986V115.713H126.63V44.4623Z" fill="#FFB93E"/>
<path d="M126.628 84.3045V79.3174L61.5968 79.3174V84.3045L126.628 84.3045Z" fill="#FFA412"/>
<path d="M151.244 84.3039V79.3168H126.629V84.3039H151.244Z" fill="#FA9712"/>
<path d="M106.434 45.2262C106.434 45.2262 121.126 35.6323 131.113 38.715L129.052 40.6486L129.98 43.8981C129.98 43.8981 118.875 40.2639 106.13 45.7727L106.434 45.2262Z" fill="#F99746"/>
<path d="M105.612 43.0534C105.612 43.0534 103.02 42.7382 99.1558 42.2045C88.8989 40.7863 69.687 37.8206 66.2387 35.0758C60.8203 30.7637 73.6595 12.4512 79.2178 9.90932C84.7753 7.3696 105.612 43.0534 105.612 43.0534Z" fill="#F99746"/>
<path d="M146.26 20.2492C147.186 24.7864 105.23 44.3858 105.23 44.3858C105.23 44.3858 105.994 42.3117 107.236 39.0636C107.236 39.0636 107.238 39.0607 107.239 39.0579C111.775 27.1962 122.703 -0.330414 126.294 0.0500466C126.655 0.0876668 127.076 0.217563 127.547 0.424829C133.062 2.86375 145.407 16.0713 146.26 20.2492Z" fill="#F99746"/>
<path d="M127.194 4.45941C124.632 8.93196 107.507 38.5958 107.239 39.0579C111.775 27.1962 122.703 -0.330414 126.294 0.0500466C126.294 0.0500466 127.005 0.029462 127.547 0.424829C128.201 0.904663 128.608 1.98926 127.194 4.45941Z" fill="#ED7D2B"/>
<path d="M99.1642 42.2047H99.1572C88.9003 40.7865 69.6884 37.8209 66.2401 35.0761C64.6833 30.6688 68.7229 30.3097 71.6634 29.9995C74.6011 29.6886 99.1642 42.2047 99.1642 42.2047Z" fill="#ED7D2B"/>
<path d="M97.7871 44.4568C97.7871 44.4568 100.139 39.08 104.768 38.7826C109.603 38.4717 112.348 44.4568 112.348 44.4568H97.7871Z" fill="#ED7D2B"/>
<path d="M127.672 44.4623H59.626V54.262H127.672V44.4623Z" fill="#FFC261"/>
<path d="M153.317 44.4623H127.67V54.262H153.317V44.4623Z" fill="#FA9712"/>
<path d="M100.17 43.6419C100.17 43.6419 86.8427 39.3993 77.8495 42.2045C67.4832 45.4377 68.0977 58.291 68.0977 58.291L70.536 57.2838L73.8276 58.8355C73.8276 58.8355 74.3828 45.2247 82.8342 43.3189C90.1414 41.6714 100.17 43.6419 100.17 43.6419Z" fill="#F99746"/>
<path d="M93.3339 44.4623H88.3711V115.705H93.3339V44.4623Z" fill="#FFA412"/>
<path d="M47.7771 23.0732L43.2207 24.6078L47.6191 37.7955L52.1754 36.2608L47.7771 23.0732Z" fill="#ED7D2B"/>
<path d="M43.2205 24.6076L31.1836 28.6617L35.582 41.8494L47.6189 37.7953L43.2205 24.6076Z" fill="#F99746"/>
<path d="M45.6759 31.9827L45.3682 31.0599L33.3313 35.114L33.6391 36.0368L45.6759 31.9827Z" fill="#FFB93E"/>
<path d="M50.2326 30.449L49.9248 29.5262L45.3684 31.0609L45.6762 31.9836L50.2326 30.449Z" fill="#F69B34"/>
<path d="M39.8945 25.5015C39.8945 25.5015 43.0229 22.5757 45.8087 22.3485L45.4103 22.8667L45.8723 23.3891C45.8723 23.3891 42.7608 23.6035 39.8535 25.6257L39.8945 25.5015Z" fill="#FFB93E"/>
<path d="M39.242 25.6567C39.242 25.6567 38.7426 25.7603 37.9946 25.9023C36.0084 26.2792 32.2697 26.9279 31.4623 26.6348C30.193 26.1748 31.439 21.9848 32.3114 21.1678C33.183 20.3508 39.242 25.6567 39.242 25.6567Z" fill="#FFB93E"/>
<path d="M45.3572 18.9021C45.8085 19.6843 39.2529 25.9271 39.2529 25.9271C39.2529 25.9271 39.2663 25.4956 39.2953 24.817C39.2953 24.817 39.2953 24.8163 39.2953 24.8156C39.4027 22.3376 39.7262 16.5611 40.4142 16.4078C40.4834 16.3922 40.5696 16.3901 40.6692 16.3993C41.8417 16.5065 44.9418 18.1816 45.3572 18.9021Z" fill="#FFB93E"/>
<path d="M40.8534 17.168C40.6556 18.1553 39.3171 24.7133 39.2959 24.8155C39.4033 22.3375 39.7268 16.5611 40.4148 16.4078C40.4148 16.4078 40.5454 16.3595 40.6697 16.3992C40.8209 16.4468 40.9629 16.6228 40.8534 17.168Z" fill="#F69B34"/>
<path d="M37.9958 25.9018L37.9944 25.9025C36.0082 26.2794 32.2695 26.9282 31.4621 26.635C30.902 25.9167 31.6274 25.598 32.1522 25.3573C32.677 25.116 37.9958 25.9018 37.9958 25.9018Z" fill="#F69B34"/>
<path d="M37.8809 26.4041C37.8809 26.4041 37.984 25.262 38.8224 24.9184C39.6983 24.5593 40.5756 25.4962 40.5756 25.4962L37.8809 26.4041Z" fill="#F69B34"/>
<path d="M43.4131 24.5435L30.8184 28.7855L31.4233 30.5994L44.0181 26.3574L43.4131 24.5435Z" fill="#FFA15A"/>
<path d="M48.1613 22.9443L43.4141 24.5432L44.019 26.3571L48.7663 24.7582L48.1613 22.9443Z" fill="#F78639"/>
<path d="M38.2707 26.1049C38.2707 26.1049 35.5421 26.1503 34.051 27.2299C32.3318 28.4742 33.2394 30.8152 33.2394 30.8152L33.6286 30.4766L34.3335 30.5589C34.3335 30.5589 33.5961 28.005 35.0427 27.1256C36.293 26.3654 38.2707 26.1049 38.2707 26.1049Z" fill="#FFBE55"/>
<path d="M37.0579 26.6838L36.1396 26.993L40.576 40.2944L41.4942 39.9852L37.0579 26.6838Z" fill="#FFB93E"/>
<path d="M97.9072 79.5675H85.3887V115.803H97.9072V79.5675Z" fill="#4A75CB"/>
<path d="M85.3899 79.5675H52.3174V115.803H85.3899V79.5675Z" fill="#739AF0"/>
<path d="M85.3887 99.8297V97.2936H52.3161V99.8297H85.3887Z" fill="#AFCDFB"/>
<path d="M97.9102 99.8291V97.293H85.3916V99.8291H97.9102Z" fill="#88B3FF"/>
<path d="M76.4427 79.0104C76.4427 79.0104 86.5823 74.386 93.6493 76.1428L92.238 77.0918L92.9493 78.7669C92.9493 78.7669 85.0862 76.7071 76.2393 79.2837L76.4427 79.0104Z" fill="#4A75CB"/>
<path d="M74.7062 78.8327C74.7062 78.8327 73.3882 78.6723 71.4231 78.4011C66.2067 77.68 56.4366 76.1716 54.6827 74.7754C51.9273 72.5828 58.4567 63.2693 61.2835 61.9767C64.1096 60.6849 74.7062 78.8327 74.7062 78.8327Z" fill="#72A9F7"/>
<path d="M95.3788 67.2352C95.85 69.5421 74.5127 79.5101 74.5127 79.5101C74.5127 79.5101 74.9012 78.4553 75.5327 76.8035C75.5327 76.8035 75.5334 76.8021 75.5348 76.8007C77.8417 70.768 83.3985 56.769 85.2251 56.9628C85.4088 56.982 85.6235 57.048 85.863 57.153C88.6671 58.3938 94.9452 65.1108 95.3788 67.2352Z" fill="#72A9F7"/>
<path d="M85.6803 59.2051C84.3771 61.4801 75.6686 76.5657 75.5322 76.8007C77.8391 70.768 83.396 56.769 85.2226 56.9628C85.2226 56.9628 85.5842 56.9522 85.8604 57.153C86.1931 57.3972 86.4 57.9495 85.6803 59.2051Z" fill="#4A75CB"/>
<path d="M71.4265 78.4015H71.423C66.2066 77.6804 56.4364 76.172 54.6826 74.7758C53.8908 72.5342 55.9455 72.3518 57.4409 72.1942C58.9341 72.0359 71.4265 78.4015 71.4265 78.4015Z" fill="#4A75CB"/>
<path d="M70.7256 79.5471C70.7256 79.5471 71.9214 76.8129 74.2757 76.661C76.7345 76.5027 78.1309 79.5471 78.1309 79.5471H70.7256Z" fill="#4A75CB"/>
<path d="M85.9207 79.5675H51.3154V84.5511H85.9207V79.5675Z" fill="#88B3FF"/>
<path d="M98.9643 79.5675H85.9209V84.5511H98.9643V79.5675Z" fill="#3969B7"/>
<path d="M71.9346 79.1502C71.9346 79.1502 65.1565 76.9923 60.5829 78.4191C55.3114 80.063 55.6236 86.6004 55.6236 86.6004L56.8633 86.0879L58.5373 86.8772C58.5373 86.8772 58.8198 79.9551 63.1179 78.9862C66.834 78.1486 71.9346 79.1502 71.9346 79.1502Z" fill="#4A75CB"/>
<path d="M68.4574 79.5675H65.9336V116.115H68.4574V79.5675Z" fill="#AFCDFB"/>
<path d="M172.318 93.1585C172.216 93.221 172.113 93.2813 172.008 93.3388C171.973 93.3587 171.937 93.3779 171.902 93.3963C171.82 93.4396 171.739 93.4815 171.657 93.5227C167.732 95.4597 162.944 93.9727 160.811 90.0836C158.776 86.3734 159.869 81.7781 163.209 79.3647C163.475 79.1723 163.755 78.9935 164.05 78.8309C164.156 78.7727 164.262 78.7159 164.369 78.6634C164.473 78.6116 164.578 78.5619 164.684 78.515C165.006 78.3702 165.334 78.2489 165.665 78.1488C166.158 77.9997 166.657 77.8996 167.158 77.8464C168.71 77.681 170.273 77.9664 171.658 78.6471C173.128 79.3689 174.399 80.5373 175.248 82.0861C177.387 85.9873 176.068 90.8658 172.318 93.1585Z" fill="#FFB93E"/>
<path d="M168.082 93.7187C165.343 93.7187 162.82 92.2224 161.499 89.814C160.53 88.0487 160.304 86.0101 160.862 84.0737C161.419 82.1373 162.693 80.5353 164.45 79.5621C165.559 78.9481 166.811 78.623 168.069 78.623C170.808 78.623 173.332 80.1193 174.652 82.5277C175.621 84.293 175.847 86.3316 175.29 88.268C174.732 90.2044 173.458 91.8064 171.701 92.7796C170.592 93.3943 169.341 93.7187 168.082 93.7187ZM168.069 79.0731C166.886 79.0731 165.709 79.3783 164.667 79.9561C163.015 80.871 161.817 82.378 161.293 84.1986C160.769 86.0193 160.981 87.9365 161.892 89.5968C163.134 91.8618 165.506 93.2686 168.083 93.2686C169.266 93.2686 170.443 92.9634 171.485 92.3856C173.137 91.4707 174.335 89.9638 174.859 88.1431C175.383 86.3224 175.171 84.4052 174.26 82.7449C173.017 80.4799 170.645 79.0731 168.069 79.0731Z" fill="#FFA412"/>
<path d="M168.077 80.6139L169.733 83.9862L173.436 84.5271L170.756 87.152L171.389 90.8586L168.077 89.1082L164.764 90.8586L165.397 87.152L162.717 84.5271L166.42 83.9862L168.077 80.6139Z" fill="#FFA412"/>
<path d="M177.257 73.0004C177.2 73.0359 177.142 73.0693 177.083 73.1026C177.063 73.114 177.043 73.1246 177.023 73.1353C176.977 73.1601 176.931 73.1835 176.885 73.2063C174.67 74.2994 171.968 73.4604 170.763 71.2649C169.615 69.171 170.232 66.5773 172.117 65.2152C172.267 65.1066 172.425 65.0058 172.591 64.9135C172.651 64.8801 172.711 64.8489 172.771 64.8191C172.83 64.79 172.889 64.7616 172.949 64.7353C173.131 64.6537 173.316 64.5848 173.502 64.5288C173.78 64.445 174.062 64.3882 174.344 64.3584C175.221 64.2654 176.103 64.4258 176.884 64.8106C177.714 65.218 178.431 65.8774 178.911 66.7519C180.119 68.9531 179.374 71.7064 177.257 73.0004Z" fill="#FFB93E"/>
<path d="M174.868 73.3171C173.322 73.3171 171.898 72.4724 171.153 71.1131C170.606 70.1166 170.478 68.966 170.793 67.8736C171.108 66.7804 171.827 65.8761 172.818 65.3267C173.444 64.9803 174.15 64.7965 174.861 64.7965C176.407 64.7965 177.831 65.6412 178.576 67.0005C179.123 67.9971 179.251 69.1477 178.936 70.2401C178.622 71.3332 177.902 72.2375 176.911 72.7862C176.284 73.134 175.579 73.3171 174.868 73.3171ZM174.86 65.0513C174.193 65.0513 173.529 65.2238 172.94 65.5496C172.007 66.0664 171.331 66.9167 171.035 67.9445C170.74 68.9723 170.86 70.0541 171.374 70.9911C172.075 72.2694 173.414 73.0637 174.868 73.0637C175.536 73.0637 176.2 72.8912 176.789 72.5654C177.721 72.0487 178.398 71.1983 178.693 70.1705C178.989 69.1427 178.869 68.0609 178.355 67.124C177.653 65.8449 176.315 65.0513 174.86 65.0513Z" fill="#FFA412"/>
<path d="M174.863 65.9205L175.798 67.8235L177.888 68.1288L176.375 69.6102L176.732 71.7027L174.863 70.7146L172.993 71.7027L173.35 69.6102L171.838 68.1288L173.928 67.8235L174.863 65.9205Z" fill="#FFA412"/>
<path d="M97.4661 12.4247C97.4322 12.4666 97.3969 12.5077 97.3608 12.5482C97.3488 12.5617 97.3361 12.5759 97.3241 12.5887C97.2959 12.6192 97.2676 12.6497 97.2386 12.6795C95.8549 14.0992 93.5911 14.1886 92.0993 12.8527C90.676 11.5786 90.4542 9.45341 91.5172 7.92021C91.602 7.79813 91.6945 7.67959 91.7962 7.56531C91.8323 7.52414 91.8697 7.48439 91.9071 7.44535C91.9439 7.40773 91.9806 7.37011 92.0187 7.33462C92.1346 7.22389 92.2561 7.12238 92.3825 7.03011C92.5704 6.8924 92.7682 6.77386 92.9737 6.6752C93.6109 6.36998 94.32 6.25499 95.0122 6.33591C95.7468 6.4218 96.4638 6.72773 97.0578 7.25938C98.5538 8.60093 98.7227 10.8801 97.4661 12.4247Z" fill="#CDE0FB"/>
<path d="M94.6071 13.4994C93.7736 13.4994 92.9797 13.1963 92.3525 12.6348C91.6751 12.0286 91.2739 11.1932 91.2216 10.2839C91.1693 9.37391 91.4731 8.498 92.0763 7.81728C92.6795 7.13657 93.5109 6.73269 94.4157 6.68087C95.3205 6.62763 96.1929 6.93356 96.8703 7.53974C97.5476 8.14593 97.9488 8.98138 98.0011 9.89065C98.0534 10.8006 97.7497 11.6765 97.1464 12.3573C96.5432 13.038 95.7125 13.4411 94.807 13.4937C94.7406 13.4972 94.6735 13.4994 94.6071 13.4994ZM94.6163 6.8782C94.5534 6.8782 94.4913 6.88033 94.4284 6.88388C93.5773 6.93356 92.7953 7.3126 92.2281 7.95286C91.6609 8.59311 91.3756 9.4165 91.4243 10.2718C91.4738 11.1271 91.851 11.9129 92.4881 12.4829C93.1252 13.0529 93.9446 13.3396 94.7957 13.2907C95.6469 13.241 96.4288 12.8619 96.996 12.2217C97.5632 11.5814 97.8485 10.758 97.7998 9.90272C97.7504 9.04739 97.3732 8.26163 96.736 7.69165C96.1463 7.16354 95.3996 6.8782 94.6163 6.8782Z" fill="#AFCDFB"/>
<path d="M93.7795 7.71802L94.9902 8.90554L96.6501 8.57618L95.9007 10.1002L96.7257 11.5851L95.051 11.3395L93.901 12.5866L93.6157 10.9108L92.0801 10.1967L93.5782 9.40596L93.7795 7.71802Z" fill="#AFCDFB"/>
<path d="M86.569 113.252C86.5083 113.327 86.4461 113.4 86.3812 113.473C86.3593 113.498 86.3374 113.522 86.3155 113.547C86.2653 113.602 86.2145 113.655 86.1629 113.708C83.6914 116.244 79.6476 116.404 76.9825 114.019C74.4404 111.743 74.0441 107.948 75.9428 105.208C76.0939 104.989 76.2599 104.778 76.4408 104.574C76.5057 104.501 76.5714 104.429 76.6392 104.36C76.7042 104.293 76.7713 104.226 76.8384 104.162C77.0454 103.965 77.2629 103.784 77.4883 103.618C77.8231 103.372 78.177 103.161 78.5443 102.985C79.6829 102.44 80.9487 102.235 82.1855 102.38C83.4979 102.533 84.7778 103.08 85.8394 104.029C88.5115 106.421 88.8124 110.493 86.569 113.252Z" fill="#CDE0FB"/>
<path d="M81.4626 115.171C79.9743 115.171 78.556 114.629 77.4357 113.626C76.2265 112.543 75.5088 111.052 75.4156 109.426C75.3223 107.801 75.8641 106.236 76.942 105.021C78.0199 103.806 79.5039 103.085 81.1214 102.991C82.7375 102.896 84.2957 103.442 85.505 104.525C86.715 105.608 87.4319 107.099 87.5259 108.725C87.6191 110.35 87.0766 111.915 85.9995 113.13C84.9223 114.345 83.4375 115.066 81.82 115.16C81.7006 115.168 81.5813 115.171 81.4626 115.171ZM81.4781 103.345C81.3665 103.345 81.2549 103.347 81.1426 103.355C79.6219 103.443 78.2261 104.12 77.2125 105.264C76.1989 106.407 75.6896 107.878 75.7772 109.406C75.8648 110.935 76.5394 112.337 77.6773 113.356C78.8145 114.374 80.2788 114.887 81.7995 114.798C83.3203 114.71 84.716 114.032 85.7296 112.889C86.7432 111.746 87.2525 110.274 87.1649 108.746C87.0773 107.218 86.4028 105.815 85.2649 104.797C84.211 103.854 82.8774 103.345 81.4781 103.345Z" fill="#AFCDFB"/>
<path d="M79.9841 104.844L82.1469 106.964L85.1122 106.377L83.773 109.1L85.2464 111.751L82.2557 111.313L80.201 113.54L79.6917 110.547L76.9482 109.271L79.6246 107.86L79.9841 104.844Z" fill="#AFCDFB"/>
<path d="M107.426 70.124C107.426 70.124 106.504 70.7557 105.479 70.6514C104.718 70.574 103.969 69.8663 103.94 69.8195L103.333 70.8792C103.333 70.8792 104.72 71.7239 105.908 71.4925C106.273 71.4215 106.863 71.0581 107.13 70.7855C107.424 70.4853 107.426 70.124 107.426 70.124Z" fill="#6BB7BF"/>
<path d="M107.4 67.9172L108.924 67.2826C108.924 67.2826 108.715 70.4647 106.098 71.4372C106.098 71.4379 107.751 69.2594 107.4 67.9172Z" fill="#86D1CD"/>
<path d="M118.092 105.958C118.092 105.958 118.757 106.716 119.412 106.701C119.412 106.701 119.5 107.53 119.263 107.75C119.263 107.75 118.142 107.544 117.872 107.132C117.872 107.132 117.646 106.144 118.092 105.958Z" fill="#F99746"/>
<path d="M107.653 95.5452C107.653 95.5452 107.05 94.8106 107.059 93.9311C107.065 93.2788 107.603 92.5867 107.641 92.559L106.702 92.1246C106.702 92.1246 106.097 93.3682 106.383 94.3606C106.471 94.6644 106.823 95.1385 107.072 95.3444C107.348 95.5715 107.653 95.5452 107.653 95.5452Z" fill="#CDE0FB"/>
<path d="M109.508 95.3542L110.159 96.6006C110.159 96.6006 107.465 96.6674 106.445 94.5181C106.445 94.5181 108.405 95.756 109.508 95.3542Z" fill="#CDE0FB"/>
</svg>
