<svg width="365" height="400" viewBox="0 0 365 400" fill="none" xmlns="http://www.w3.org/2000/svg">
<mask id="mask0_1001_74" style="mask-type:alpha" maskUnits="userSpaceOnUse" x="0" y="0" width="365" height="400">
<path d="M0 9.99999C0 4.47714 4.47715 0 10 0H365V400H10C4.47716 400 0 395.523 0 390V9.99999Z" fill="#CFF0E5"/>
</mask>
<g mask="url(#mask0_1001_74)">
<path d="M0.627093 -7.98047C0.627093 -7.98047 -8.68603 2.95038 -5.36066 16.5934C-2.03528 30.2385 9.37842 37.4183 9.37842 37.4183C9.37842 37.4183 14.887 21.061 10.1695 12.5652C5.44992 4.06933 3.76658 -8.92285 3.76658 -8.92285L0.627093 -7.98047Z" fill="#72D3B3"/>
<path d="M1.37891 -7.36651C1.37891 -7.36651 3.66949 5.97881 15.2815 11.1404C26.8934 16.2999 38.6603 11.5859 38.6603 11.5859C38.6603 11.5859 30.2994 -1.90314 21.5171 -3.08163C12.7368 -4.25807 2.54795 -10.3127 2.54795 -10.3127L1.37891 -7.36651Z" fill="#72D3B3"/>
<path d="M369.849 -1.2851C369.849 -1.2851 360.294 -4.92735 351.863 0.47648C343.432 5.88031 341.255 15.1563 341.255 15.1563C341.255 15.1563 353.584 14.9982 358.214 9.86954C362.845 4.74288 371.22 0.583244 371.22 0.583244L369.849 -1.2851Z" fill="#72D3B3"/>
<path d="M369.61 -0.640625C369.61 -0.640625 361.137 4.0056 360.371 12.9408C359.605 21.876 365.539 28.6041 365.539 28.6041C365.539 28.6041 372.687 19.8845 371.429 13.7662C370.17 7.64785 371.874 -0.550287 371.874 -0.550287L369.61 -0.640625Z" fill="#72D3B3"/>
<path d="M126.822 -13.1235C126.822 -13.1235 111.631 -11.711 104.852 0.722751C98.0734 13.1565 102.382 26.5921 102.382 26.5921C102.382 26.5921 118.247 18.4638 120.31 8.8326C122.373 -0.798616 130.036 -11.5796 130.036 -11.5796L126.822 -13.1235Z" fill="#72D3B3"/>
<path d="M295.692 -4.97878C295.692 -4.97878 297.607 6.18818 307.323 10.5059C317.039 14.8236 326.883 10.8796 326.883 10.8796C326.883 10.8796 319.889 -0.408514 312.542 -1.39196C305.195 -2.37746 296.671 -7.44458 296.671 -7.44458L295.692 -4.97878Z" fill="#72D3B3"/>
<path d="M297.683 -10.9124C297.683 -10.9124 282.491 -9.4998 275.713 2.93393C268.934 15.3677 273.242 28.8033 273.242 28.8033C273.242 28.8033 289.107 20.675 291.17 11.0438C293.234 1.41256 300.897 -9.3684 300.897 -9.3684L297.683 -10.9124Z" fill="#72D3B3"/>
<path d="M122.902 -9.08513C122.902 -9.08513 120.653 1.98533 128.13 9.46076C135.609 16.9382 146.192 16.774 146.192 16.774C146.192 16.774 143.761 3.78387 137.282 0.250436C130.803 -3.28299 124.703 -11.0315 124.703 -11.0315L122.902 -9.08513Z" fill="#72D3B3"/>
<path d="M67.1051 -3.13916C67.1051 -3.13916 61.7803 -1.08809 60.6175 4.07758C59.4567 9.24325 62.3897 13.6451 62.3897 13.6451C62.3897 13.6451 67.2662 9.10774 67.0183 5.43059C66.7705 1.75344 68.4208 -2.90716 68.4208 -2.90716L67.1051 -3.13916Z" fill="#72D3B3"/>
<path d="M7.8648 117.62C7.8648 117.62 6.08851 123.011 9.37672 127.175C12.6649 131.341 17.9545 131.874 17.9545 131.874C17.9545 131.874 17.5105 125.253 14.4867 123.114C11.4649 120.974 8.87894 116.753 8.87894 116.753L7.8648 117.62Z" fill="#72D3B3"/>
<path d="M349.556 102.667C349.556 102.667 343.911 103.537 341.664 108.337C339.416 113.136 341.333 118.061 341.333 118.061C341.333 118.061 347.075 114.665 347.624 111.021C348.174 107.375 350.791 103.174 350.791 103.174L349.556 102.667Z" fill="#72D3B3"/>
<path d="M349.669 38.8062C349.669 38.8062 346.525 42.6722 347.913 47.0987C349.301 51.5253 353.465 53.5969 353.465 53.5969C353.465 53.5969 355.176 48.037 353.37 45.3515C351.565 42.666 350.77 38.4099 350.77 38.4099L349.669 38.8062Z" fill="#72D3B3"/>
<path d="M67.5247 -2.13121C67.5247 -2.13121 66.1098 3.36501 69.6686 7.30496C73.2274 11.2449 78.5397 11.4317 78.5397 11.4317C78.5397 11.4317 77.6557 4.85352 74.4956 2.91743C71.3375 0.981327 68.4768 -3.06128 68.4768 -3.06128L67.5247 -2.13121Z" fill="#72D3B3"/>
<path d="M249.797 -3.41442C249.797 -3.41442 248.382 2.0818 251.941 6.02175C255.5 9.9617 260.812 10.1485 260.812 10.1485C260.812 10.1485 259.928 3.57032 256.768 1.63422C253.61 -0.301878 250.749 -4.34448 250.749 -4.34448L249.797 -3.41442Z" fill="#72D3B3"/>
<path d="M240.722 6.79805C240.722 6.79805 245.187 7.33802 247.926 4.17826C250.665 1.0185 250.272 -3.12061 250.272 -3.12061C250.272 -3.12061 245.187 -1.7676 243.985 0.878883C242.783 3.52536 239.894 6.15336 239.894 6.15336L240.722 6.79805Z" fill="#72D3B3"/>
<path d="M170.669 5.94185C170.669 5.94185 175.135 6.48182 177.873 3.32206C180.612 0.162298 180.22 -3.97681 180.22 -3.97681C180.22 -3.97681 175.135 -2.6238 173.933 0.0226852C172.73 2.66917 169.841 5.29717 169.841 5.29717L170.669 5.94185Z" fill="#72D3B3"/>
<path d="M199.068 -7.10572C199.068 -7.10572 197.063 0.683841 202.109 6.2704C207.152 11.857 214.685 12.1218 214.685 12.1218C214.685 12.1218 213.431 2.79651 208.953 0.0514774C204.476 -2.69355 200.421 -8.42383 200.421 -8.42383L199.068 -7.10572Z" fill="#72D3B3"/>
<path d="M-10.353 47.0188C-10.353 47.0188 -14.7896 56.5678 -9.63422 64.9405C-4.47678 73.3131 5.14823 75.4237 5.14823 75.4237C5.14823 75.4237 5.75961 63.1337 0.653806 58.5491C-4.45199 53.9645 -8.29993 45.6411 -8.29993 45.6411L-10.353 47.0188Z" fill="#72D3B3"/>
</g>
<g clip-path="url(#clip0_1001_74)">
<path fill-rule="evenodd" clip-rule="evenodd" d="M183.629 149.592C271.788 149.592 343.248 220.89 343.248 308.848C343.248 333.207 337.756 356.307 327.951 376.967H39.3061C29.5016 356.307 24.0088 333.207 24.0088 308.848C24.0088 220.89 95.4697 149.592 183.629 149.592Z" fill="#A9D9C9"/>
<path fill-rule="evenodd" clip-rule="evenodd" d="M108.817 198.366C108.817 199.325 108.048 200.092 107.087 200.092C106.125 200.092 105.356 199.325 105.356 198.366V185.049C105.356 184.09 106.125 183.323 107.087 183.323C108.048 183.323 108.817 184.09 108.817 185.049V198.366Z" fill="white"/>
<path fill-rule="evenodd" clip-rule="evenodd" d="M113.76 189.981C114.722 189.981 115.49 190.748 115.49 191.707C115.49 192.667 114.722 193.434 113.76 193.434H100.413C99.4516 193.434 98.6826 192.667 98.6826 191.707C98.6826 190.748 99.4516 189.981 100.413 189.981H113.76V189.981Z" fill="white"/>
<path fill-rule="evenodd" clip-rule="evenodd" d="M58.1742 263.444L58.3115 263.745V263.773C59.1354 266.02 59.0255 268.376 58.1467 270.431C57.2404 272.596 55.5102 274.404 53.1483 275.363L52.8462 275.5H52.8187C50.5667 276.322 48.2048 276.213 46.145 275.336C43.9754 274.432 42.1627 272.705 41.2015 270.349L41.0642 270.048V270.02C40.2403 267.773 40.3501 265.417 41.229 263.362C42.1353 261.197 43.8655 259.388 46.2274 258.429L46.5295 258.292H46.557C48.809 257.47 51.1709 257.58 53.2307 258.457C55.4003 259.361 57.2129 261.115 58.1742 263.444ZM55.1257 264.622C54.5215 263.142 53.3405 262.074 51.9673 261.471C50.5667 260.896 48.9463 260.841 47.4633 261.444L47.4083 261.471C45.9253 262.074 44.8542 263.252 44.25 264.622C43.6733 266.02 43.6183 267.636 44.2225 269.116L44.25 269.171C44.8542 270.65 46.0351 271.746 47.4083 272.322C48.809 272.897 50.4294 272.952 51.9124 272.349L51.9673 272.322C53.4504 271.719 54.5489 270.541 55.1257 269.171C55.7024 267.773 55.7573 266.157 55.1531 264.677L55.1257 264.622Z" fill="#FBFFFC"/>
<path fill-rule="evenodd" clip-rule="evenodd" d="M55.5369 213.82C56.8552 213.82 57.9538 212.752 57.9538 211.409C57.9538 210.094 56.8827 208.998 55.5369 208.998C54.1912 208.998 53.1201 210.066 53.1201 211.409C53.1201 212.724 54.1912 213.82 55.5369 213.82Z" fill="white"/>
<path fill-rule="evenodd" clip-rule="evenodd" d="M186.238 171.924C187.556 171.924 188.655 170.855 188.655 169.512C188.655 168.197 187.584 167.101 186.238 167.101C184.92 167.101 183.821 168.17 183.821 169.512C183.821 170.855 184.892 171.924 186.238 171.924Z" fill="white"/>
<path fill-rule="evenodd" clip-rule="evenodd" d="M339.128 277.692C339.128 278.651 338.359 279.419 337.398 279.419C336.437 279.419 335.668 278.651 335.668 277.692V264.375C335.668 263.416 336.437 262.649 337.398 262.649C338.359 262.649 339.128 263.416 339.128 264.375V277.692Z" fill="white"/>
<path fill-rule="evenodd" clip-rule="evenodd" d="M344.073 269.28C345.034 269.28 345.803 270.048 345.803 271.007C345.803 271.966 345.034 272.733 344.073 272.733H330.725C329.764 272.733 328.995 271.966 328.995 271.007C328.995 270.048 329.764 269.28 330.725 269.28H344.073Z" fill="white"/>
<path fill-rule="evenodd" clip-rule="evenodd" d="M290.298 179.87L290.435 180.172V180.199C291.259 182.446 291.15 184.802 290.271 186.857C289.364 189.022 287.634 190.831 285.272 191.79L284.97 191.927H284.943C282.691 192.749 280.329 192.639 278.269 191.762C276.099 190.858 274.287 189.132 273.326 186.775L273.188 186.474V186.446C272.364 184.199 272.474 181.816 273.353 179.788C274.259 177.623 275.99 175.815 278.351 174.856L278.654 174.719H278.681C280.933 173.897 283.295 174.006 285.355 174.883C287.524 175.787 289.337 177.514 290.298 179.87ZM287.25 181.048C286.645 179.569 285.465 178.473 284.091 177.897C282.691 177.322 281.07 177.267 279.587 177.87L279.532 177.897C278.049 178.527 276.978 179.678 276.374 181.048C275.797 182.446 275.742 184.062 276.347 185.542L276.374 185.597C277.006 187.077 278.159 188.173 279.532 188.748C280.933 189.324 282.553 189.378 284.036 188.775L284.091 188.748C285.574 188.145 286.673 186.967 287.25 185.597C287.826 184.199 287.881 182.583 287.277 181.103L287.25 181.048Z" fill="#FBFFFC"/>
<path fill-rule="evenodd" clip-rule="evenodd" d="M305.348 240.18C306.667 240.18 307.765 239.112 307.765 237.769C307.765 236.454 306.694 235.358 305.348 235.358C304.03 235.358 302.932 236.426 302.932 237.769C302.932 239.112 304.03 240.18 305.348 240.18Z" fill="white"/>
<path d="M253.824 273.062C250.4 273.737 236.716 292.059 236.716 292.059L236.233 293.327C236.233 293.327 260.988 290.577 261.886 289.52C264.307 286.664 256.636 272.508 253.824 273.062ZM236.887 292.451C241.406 286.679 251.696 278.253 253.92 276.463C255.906 278.488 258.896 284.465 259.291 287.167C256.452 287.751 244.112 291.577 236.887 292.451Z" fill="url(#paint0_linear_1001_74)"/>
<path d="M220.66 276.189C213.926 271.797 212.076 271.83 210.114 272.945C208.151 274.056 200.915 284.431 204.149 287.67C207.383 290.905 233.036 293.213 233.036 293.213L233.615 291.646C233.618 291.646 227.396 280.581 220.66 276.189ZM208.61 286.528C207.115 285.037 210.837 278.825 212.534 277.503C212.968 277.259 230.227 288.236 232.635 291.984C223.002 290.941 210.002 287.766 208.61 286.528Z" fill="url(#paint1_linear_1001_74)"/>
<path d="M233.243 298.078H234.687C236.119 298.078 237.276 296.918 237.276 295.49V291.246C237.276 289.815 236.116 288.658 234.687 288.658H233.243C231.812 288.658 230.654 289.818 230.654 291.246V295.49C230.654 296.918 231.812 298.078 233.243 298.078Z" fill="url(#paint2_linear_1001_74)"/>
<path d="M287.968 293.406L170.611 293.053C167.488 293.044 165.092 295.822 165.562 298.91L167.377 310.878L173.26 310.866L176.805 371.099C176.994 374.322 179.665 376.838 182.893 376.838H276.562L280.46 310.64L285.999 310.628L287.968 293.406Z" fill="url(#paint3_linear_1001_74)"/>
<path d="M278.567 376.844H206.668L202.819 294.656H288.242L284.658 371.129C284.508 374.325 281.825 376.844 278.567 376.844Z" fill="url(#paint4_linear_1001_74)"/>
<path d="M291.769 310.676L199.034 310.924L196.918 293.089L287.763 293.436C290.747 293.448 293.08 296.008 292.815 298.979L291.769 310.676Z" fill="url(#paint5_linear_1001_74)"/>
<path d="M199.033 310.921L287.482 310.677L201.839 315.349L199.033 310.921Z" fill="url(#paint6_linear_1001_74)"/>
<path d="M236.291 293.228H233.831V310.842H236.291V293.228Z" fill="url(#paint7_linear_1001_74)"/>
<path d="M244.046 310.758H240.969V376.967H244.046V310.758Z" fill="url(#paint8_linear_1001_74)"/>
<path d="M184.349 253.701H89.1875V376.838H184.349V253.701Z" fill="url(#paint9_linear_1001_74)"/>
<path d="M104.282 253.701H100.837V376.838H104.282V253.701Z" fill="#B7D972"/>
<path d="M114.455 253.701H111.01V376.838H114.455V253.701Z" fill="#B7D972"/>
<path d="M124.627 253.701H121.182V376.838H124.627V253.701Z" fill="#B7D972"/>
<path d="M134.797 253.701H131.352V376.838H134.797V253.701Z" fill="#B7D972"/>
<path d="M144.969 253.701H141.523V376.838H144.969V253.701Z" fill="#B7D972"/>
<path d="M155.142 253.701H151.697V376.838H155.142V253.701Z" fill="#B7D972"/>
<path d="M165.315 253.701H161.87V376.838H165.315V253.701Z" fill="#B7D972"/>
<path d="M175.487 253.701H172.042V376.838H175.487V253.701Z" fill="#B7D972"/>
<path d="M184.343 253.695H89.1904V258.771H184.343V253.695Z" fill="#EDFDFC"/>
<path d="M151.341 205.386C147.14 206.519 131.695 230.474 131.695 230.474L131.204 232.092C131.204 232.092 161.752 226.552 162.774 225.16C165.544 221.404 154.792 204.458 151.341 205.386ZM131.946 230.947C137.067 223.386 149.144 212.026 151.757 209.61C154.401 211.959 158.632 219.132 159.356 222.458C155.869 223.428 140.852 229.242 131.946 230.947Z" fill="url(#paint10_linear_1001_74)"/>
<path d="M110.373 212.113C101.62 207.23 99.3264 207.432 96.9814 208.983C94.6365 210.534 86.5285 224.055 90.8266 227.802C95.1248 231.55 127.225 232.222 127.225 232.222L127.81 230.221C127.81 230.224 119.123 216.999 110.373 212.113ZM96.2701 226.001C94.2808 224.275 98.38 216.231 100.378 214.442C100.897 214.101 123.298 226.275 126.613 230.727C114.548 230.257 98.1087 227.423 96.2701 226.001Z" fill="url(#paint11_linear_1001_74)"/>
<path d="M127.895 238.256L129.691 238.132C131.469 238.009 132.814 236.469 132.69 234.692L132.325 229.414C132.202 227.636 130.662 226.293 128.883 226.416L127.087 226.54C125.309 226.663 123.964 228.203 124.088 229.98L124.453 235.258C124.576 237.035 126.116 238.376 127.895 238.256Z" fill="url(#paint12_linear_1001_74)"/>
<path d="M189.96 233.091L79.7041 232.762L79.6383 254.735L189.894 255.065L189.96 233.091Z" fill="#B7D972"/>
</g>
<path d="M346.499 379.152C346.499 377.943 346.16 376.967 345.74 376.967H21.7902C21.2822 376.967 20.8701 377.947 20.8701 379.152C20.8701 380.361 21.2822 381.337 21.7902 381.337H345.739C346.16 381.337 346.499 380.361 346.499 379.152Z" fill="url(#paint13_linear_1001_74)"/>
<defs>
<linearGradient id="paint0_linear_1001_74" x1="262.379" y1="272.07" x2="226.16" y2="323.982" gradientUnits="userSpaceOnUse">
<stop stop-color="#FB9A2B"/>
<stop offset="1" stop-color="#E65925"/>
</linearGradient>
<linearGradient id="paint1_linear_1001_74" x1="239.903" y1="256.389" x2="203.685" y2="308.301" gradientUnits="userSpaceOnUse">
<stop stop-color="#FB9A2B"/>
<stop offset="1" stop-color="#E65925"/>
</linearGradient>
<linearGradient id="paint2_linear_1001_74" x1="253.275" y1="265.719" x2="217.057" y2="317.631" gradientUnits="userSpaceOnUse">
<stop stop-color="#FB9A2B"/>
<stop offset="1" stop-color="#E65925"/>
</linearGradient>
<linearGradient id="paint3_linear_1001_74" x1="165.503" y1="334.95" x2="287.968" y2="334.95" gradientUnits="userSpaceOnUse">
<stop stop-color="#00503E"/>
<stop offset="1" stop-color="#023222"/>
</linearGradient>
<linearGradient id="paint4_linear_1001_74" x1="300.949" y1="294.46" x2="237.587" y2="338.635" gradientUnits="userSpaceOnUse">
<stop stop-color="#53CD9F"/>
<stop offset="1" stop-color="#0D7A5C"/>
</linearGradient>
<linearGradient id="paint5_linear_1001_74" x1="293.256" y1="268.539" x2="190.965" y2="338.342" gradientUnits="userSpaceOnUse">
<stop stop-color="#53CD9F"/>
<stop offset="1" stop-color="#0D7A5C"/>
</linearGradient>
<linearGradient id="paint6_linear_1001_74" x1="199.033" y1="313.013" x2="287.483" y2="313.013" gradientUnits="userSpaceOnUse">
<stop stop-color="#00503E"/>
<stop offset="1" stop-color="#023222"/>
</linearGradient>
<linearGradient id="paint7_linear_1001_74" x1="258.083" y1="269.073" x2="221.865" y2="320.985" gradientUnits="userSpaceOnUse">
<stop stop-color="#FB9A2B"/>
<stop offset="1" stop-color="#E65925"/>
</linearGradient>
<linearGradient id="paint8_linear_1001_74" x1="282.731" y1="286.27" x2="246.513" y2="338.182" gradientUnits="userSpaceOnUse">
<stop stop-color="#FB9A2B"/>
<stop offset="1" stop-color="#E65925"/>
</linearGradient>
<linearGradient id="paint9_linear_1001_74" x1="197.135" y1="253.595" x2="105.901" y2="346.9" gradientUnits="userSpaceOnUse">
<stop stop-color="#C9CD55"/>
<stop offset="0.5065" stop-color="#659C52"/>
<stop offset="1" stop-color="#287F50"/>
</linearGradient>
<linearGradient id="paint10_linear_1001_74" x1="157.991" y1="208.637" x2="141.613" y2="237.915" gradientUnits="userSpaceOnUse">
<stop stop-color="#FB9A2B"/>
<stop offset="1" stop-color="#E65925"/>
</linearGradient>
<linearGradient id="paint11_linear_1001_74" x1="114.952" y1="214.675" x2="103.577" y2="235.008" gradientUnits="userSpaceOnUse">
<stop stop-color="#FB9A2B"/>
<stop offset="1" stop-color="#E65925"/>
</linearGradient>
<linearGradient id="paint12_linear_1001_74" x1="135.223" y1="245.501" x2="116.751" y2="209.857" gradientUnits="userSpaceOnUse">
<stop stop-color="#FB9A2B"/>
<stop offset="1" stop-color="#E65925"/>
</linearGradient>
<linearGradient id="paint13_linear_1001_74" x1="20.8701" y1="379.152" x2="346.499" y2="379.152" gradientUnits="userSpaceOnUse">
<stop stop-color="#53CD9F"/>
<stop offset="1" stop-color="#0D7A5C"/>
</linearGradient>
<clipPath id="clip0_1001_74">
<rect width="321.794" height="227.375" fill="white" transform="translate(24.0088 149.592)"/>
</clipPath>
</defs>
</svg>
