<svg xmlns="http://www.w3.org/2000/svg" width="65.064" height="65.066" viewBox="0 0 65.064 65.066"><defs><style>.a{fill:#f06421;}</style></defs><g transform="translate(-66.96 -146.947)"><path class="a" d="M66.96,175.923c.048-.179.091-.359.145-.536.067-.22.139-.438.214-.655.047-.136.108-.267.156-.4a1.95,1.95,0,0,1,.335-.592c.154-.189.26-.419.419-.6.261-.3.545-.586.827-.869.23-.231.474-.448.706-.677.447-.441.894-.881,1.33-1.333a2.568,2.568,0,0,0,.479-.628c.117-.234.164-.481.256-.713a2.021,2.021,0,0,0,.072-1.1c-.11-.644-.021-1.3-.131-1.928a13.636,13.636,0,0,1-.076-2.479,3.28,3.28,0,0,1,.215-.825c.038-.133.085-.264.131-.395a5.219,5.219,0,0,1,.847-1.416,7.339,7.339,0,0,1,.97-.921,2.5,2.5,0,0,1,.562-.311c.232-.12.462-.242.7-.351a2.518,2.518,0,0,1,.363-.112c.214-.061.431-.115.643-.182s.439-.155.66-.229c.14-.047.283-.086.425-.128s.283-.086.425-.125c.357-.1.721-.175,1.071-.294a3.5,3.5,0,0,0,1-.526,3.35,3.35,0,0,0,.85-1.122,7.342,7.342,0,0,0,.283-.737c.1-.228.218-.445.324-.669.059-.124.114-.25.165-.377.1-.241.187-.484.283-.725.079-.2.152-.4.247-.587a6.416,6.416,0,0,1,.345-.6,7.136,7.136,0,0,1,.535-.776,4.423,4.423,0,0,1,.95-.866,6.624,6.624,0,0,1,.895-.514c.209-.094.424-.159.632-.242a5.343,5.343,0,0,1,2.323-.211,4.94,4.94,0,0,1,.886.208c.013,0,.026.007.04.009.341.047.684.082,1.023.144.291.053.577.136.865.206a.349.349,0,0,0,.037.015,5.563,5.563,0,0,0,1.879.135,3.2,3.2,0,0,0,.806-.322,10.394,10.394,0,0,0,1.253-.938c.353-.261.671-.568,1.015-.84.3-.24.622-.461.933-.691a6.2,6.2,0,0,1,.6-.44,6.074,6.074,0,0,1,.716-.308c.173-.071.348-.134.523-.2.018-.007.033-.024.052-.027a6.123,6.123,0,0,1,2.009-.121,4.634,4.634,0,0,1,1.022.243,3.627,3.627,0,0,1,1.147.571c.224.2.486.356.725.54.34.261.675.53,1.012.795.374.294.747.59,1.123.882a5.246,5.246,0,0,0,.814.6,2.139,2.139,0,0,0,1.126.29,3.2,3.2,0,0,0,1-.115,4.7,4.7,0,0,1,.825-.155c.352-.07.7-.151,1.054-.228.02,0,.039-.009.059-.012a7.573,7.573,0,0,0,1.04-.159,5.287,5.287,0,0,1,1.729-.087,4.323,4.323,0,0,1,.894.217,3.376,3.376,0,0,1,.467.14,6.142,6.142,0,0,1,.675.334,5.14,5.14,0,0,1,1.667,1.519c.231.319.387.671.588,1a4.989,4.989,0,0,1,.292.763c.087.216.189.426.285.639q.158.346.319.691c.128.275.257.549.383.825.091.2.166.4.27.595a2.143,2.143,0,0,0,.669.753c.17.117.342.233.522.333a1.81,1.81,0,0,0,.37.142c.215.063.437.107.651.173s.411.15.618.222c.133.046.267.091.4.126.21.054.424.092.632.152s.407.143.611.211c.151.05.307.087.457.139.28.1.562.188.835.3a1.844,1.844,0,0,1,.418.241,9.5,9.5,0,0,1,.922.754,6.236,6.236,0,0,1,.657.827,4.177,4.177,0,0,1,.447.733,9.316,9.316,0,0,1,.3.927,6.7,6.7,0,0,1,.119,2.252c-.019.721-.1,1.44-.152,2.161-.026.349-.083.7-.077,1.047a2.717,2.717,0,0,0,.14.848,3.286,3.286,0,0,0,.9,1.268c.462.435.9.894,1.356,1.337.37.361.755.708,1.118,1.077a3.834,3.834,0,0,1,.4.54c.165.242.331.485.476.739a3.135,3.135,0,0,1,.172.451c.069.183.14.365.21.548a.347.347,0,0,1,.02.057,6.428,6.428,0,0,1,.114,1.989,4.248,4.248,0,0,1-.248,1.031,11.248,11.248,0,0,1-.573,1.136c-.14.265-.282.529-.44.783-.181.29-.385.566-.569.855-.111.174-.2.365-.307.541s-.241.309-.328.481c-.159.312-.278.644-.439.955a2.131,2.131,0,0,0-.11,1.168,3.837,3.837,0,0,0,.206.78c.058.2.114.405.182.6s.141.37.212.555c.009.025.015.051.023.076.12.384.245.766.359,1.151.1.356.182.721.3,1.073a6.235,6.235,0,0,1,.105,2.209,2.487,2.487,0,0,1-.2.7c-.084.239-.18.474-.284.7a5.472,5.472,0,0,1-.688,1.073,6.049,6.049,0,0,1-1.029.957,5.368,5.368,0,0,1-.736.422c-.167.1-.33.2-.493.305s-.327.217-.494.319q-.393.241-.793.472c-.248.144-.5.276-.749.425a2.6,2.6,0,0,0-.862.725c-.128.19-.264.376-.374.576a1.372,1.372,0,0,0-.134.406c-.057.305-.09.615-.145.92-.066.373-.144.744-.217,1.116-.006.033-.015.066-.02.1-.052.393-.091.789-.159,1.179a7.964,7.964,0,0,1-.256,1.147c-.115.346-.31.664-.459,1a5.2,5.2,0,0,1-.621.889,5.5,5.5,0,0,1-1.215,1.063,2.6,2.6,0,0,1-.64.288c-.3.12-.6.232-.906.345a.493.493,0,0,1-.14.024q-1.2.077-2.4.151c-.728.044-1.457.071-2.183.135a4.925,4.925,0,0,0-.6.205,1.932,1.932,0,0,0-.736.417,3.276,3.276,0,0,0-.487.524c-.2.243-.392.5-.586.746-.181.233-.362.465-.538.7-.228.307-.44.626-.677.926a10.459,10.459,0,0,1-.729.842,3.723,3.723,0,0,1-1.1.841c-.308.14-.6.312-.909.452a2.336,2.336,0,0,1-.493.148,5.779,5.779,0,0,1-1.933.109,5.423,5.423,0,0,1-1.069-.252c-.32-.111-.613-.3-.922-.44-.226-.105-.462-.191-.689-.295s-.448-.218-.672-.326c-.121-.059-.241-.12-.365-.173a6.838,6.838,0,0,1-.691-.29,2.764,2.764,0,0,0-1.38-.382,2.862,2.862,0,0,0-1.149.175c-.223.1-.432.226-.65.335-.111.056-.228.1-.341.148-.407.177-.817.347-1.219.534-.322.15-.626.338-.952.477-.271.116-.568.173-.844.279a4.1,4.1,0,0,1-1.844.224,8.013,8.013,0,0,1-1.072-.218,2.9,2.9,0,0,1-.508-.146,6.687,6.687,0,0,1-.681-.347,4.422,4.422,0,0,1-.62-.4,7.519,7.519,0,0,1-.751-.7c-.249-.268-.475-.559-.7-.85-.2-.268-.383-.554-.583-.825-.159-.213-.335-.413-.5-.622-.2-.25-.4-.494-.586-.756a2.349,2.349,0,0,0-.64-.595,3.605,3.605,0,0,0-.811-.38,4.223,4.223,0,0,0-1.277-.111c-.951-.058-1.9-.1-2.855-.155a4.161,4.161,0,0,1-.838-.121c-.318-.087-.617-.242-.932-.341a4.276,4.276,0,0,1-1.157-.649,5.2,5.2,0,0,1-1.156-1.213,4.162,4.162,0,0,1-.421-.848c-.131-.307-.237-.625-.354-.939a.28.28,0,0,1-.018-.058c-.048-.338-.085-.677-.144-1.013-.063-.354-.148-.7-.223-1.055,0-.013,0-.027-.006-.04-.049-.375-.088-.752-.149-1.124a3.924,3.924,0,0,0-.4-1.4,2.431,2.431,0,0,0-.921-.961c-.389-.208-.751-.467-1.13-.695-.331-.2-.672-.38-1-.578-.176-.106-.336-.237-.511-.345a5.036,5.036,0,0,0-.5-.277,3.775,3.775,0,0,1-.946-.721,4.584,4.584,0,0,1-.821-1.029,7.866,7.866,0,0,1-.513-1.073,6.553,6.553,0,0,1-.209-2.708,2.432,2.432,0,0,1,.206-.637c.043-.131.081-.264.12-.4.057-.2.106-.4.17-.592s.149-.408.221-.613c.047-.134.091-.27.13-.407.055-.193.094-.391.157-.581s.157-.372.215-.564a2.913,2.913,0,0,0,.141-.622,4.976,4.976,0,0,0,0-.933,2.62,2.62,0,0,0-.2-.6,1.842,1.842,0,0,0-.141-.292c-.246-.409-.5-.812-.743-1.222-.106-.179-.188-.372-.295-.55-.215-.356-.44-.7-.66-1.057a5.277,5.277,0,0,1-.344-.572c-.172-.377-.324-.763-.475-1.149a2.577,2.577,0,0,1-.045-.279c-.039-.148-.09-.292-.136-.437Zm32.524,31.393V207.3c.1,0,.2.006.3,0a4.9,4.9,0,0,1,1.244.148.329.329,0,0,1,.076.024c.253.113.5.23.758.341.323.142.649.277.971.421.256.115.509.239.763.358.106.05.213.095.318.146.242.119.482.244.726.36a3.846,3.846,0,0,0,.384.155,2.8,2.8,0,0,0,.64.2,2.338,2.338,0,0,0,1.427-.22,6,6,0,0,0,.658-.369,2.4,2.4,0,0,0,.662-.731,6.582,6.582,0,0,1,.614-.776c.254-.322.5-.648.752-.974.3-.389.58-.794.9-1.164a4.9,4.9,0,0,1,.688-.6,5.144,5.144,0,0,1,.578-.392,6.389,6.389,0,0,1,.674-.346,3.158,3.158,0,0,1,.5-.15,7.611,7.611,0,0,1,.93-.215c.633-.076,1.27,0,1.911-.113a21.746,21.746,0,0,0,2.326-.151,2.8,2.8,0,0,0,.585-.189,3.882,3.882,0,0,0,.641-.454,2.135,2.135,0,0,0,.425-.459,3.169,3.169,0,0,0,.3-.64,4.646,4.646,0,0,0,.219-.766c.067-.385.1-.776.145-1.165,0-.013,0-.027.008-.04.074-.336.158-.67.22-1.008.068-.376.115-.755.171-1.133a.486.486,0,0,1,.02-.079c.069-.213.136-.427.21-.638a3.9,3.9,0,0,1,.283-.743,7.735,7.735,0,0,1,.744-1.027,4.394,4.394,0,0,1,1.088-.937c.182-.108.36-.222.54-.333.233-.143.464-.29.7-.427.253-.147.516-.277.766-.428a10.58,10.58,0,0,1,.916-.57,2.865,2.865,0,0,0,.809-.575,2.37,2.37,0,0,0,.535-.775,2.059,2.059,0,0,0,.233-.829c0-.216.019-.434,0-.647a6.044,6.044,0,0,0-.137-.669c-.043-.19-.08-.383-.141-.568s-.156-.354-.217-.536c-.069-.206-.113-.421-.173-.631-.044-.153-.093-.305-.145-.456-.068-.2-.149-.387-.21-.585s-.081-.4-.152-.582a3.164,3.164,0,0,1-.228-1.053c-.01-.393,0-.786,0-1.179a.71.71,0,0,1,.02-.181c.071-.257.145-.513.221-.768a3,3,0,0,1,.161-.5c.149-.3.322-.582.489-.87.18-.309.359-.618.548-.92.231-.369.481-.726.709-1.1.192-.311.353-.641.548-.949a2.377,2.377,0,0,0,.333-1,2.771,2.771,0,0,0-.215-1.361,2.98,2.98,0,0,0-.638-.93c-.276-.3-.591-.555-.879-.839-.459-.452-.919-.9-1.364-1.371a11.031,11.031,0,0,1-.931-1.067,6.243,6.243,0,0,1-.766-1.658,2.531,2.531,0,0,1-.128-.8,8.983,8.983,0,0,1,.068-1.545c.11-.678.069-1.377.134-2.068a3.764,3.764,0,0,0-.09-1.869,2.415,2.415,0,0,0-.149-.455,4.613,4.613,0,0,0-.656-.786,3.637,3.637,0,0,0-.79-.5,2.85,2.85,0,0,0-.56-.153c-.165-.044-.33-.087-.493-.139-.225-.072-.448-.154-.672-.229s-.461-.153-.694-.222c-.213-.063-.428-.116-.643-.171a4.549,4.549,0,0,1-.524-.138c-.267-.105-.526-.231-.784-.357a4.506,4.506,0,0,1-.613-.327,4.78,4.78,0,0,1-.7-.576,9.341,9.341,0,0,1-.728-.873,3.358,3.358,0,0,1-.275-.5c-.124-.24-.251-.48-.364-.726-.1-.22-.182-.45-.281-.671-.107-.239-.235-.468-.338-.709s-.173-.5-.286-.732c-.191-.4-.413-.79-.605-1.192a1.384,1.384,0,0,0-.485-.558,5,5,0,0,0-.744-.42,2.13,2.13,0,0,0-.706-.213,3.025,3.025,0,0,0-1.139.083,12.3,12.3,0,0,1-1.353.27c-.425.083-.846.185-1.273.254s-.842.112-1.265.148a3.95,3.95,0,0,1-.711,0c-.322-.031-.642-.083-.961-.142a1.936,1.936,0,0,1-.453-.145c-.222-.1-.424-.252-.652-.336a3.9,3.9,0,0,1-.918-.606c-.284-.206-.54-.451-.814-.672-.361-.29-.726-.574-1.091-.859-.3-.233-.59-.473-.9-.692a2.339,2.339,0,0,0-.512-.266,2.363,2.363,0,0,0-.7-.208,1.888,1.888,0,0,0-1.044.1c-.242.129-.54.163-.765.311-.4.264-.771.577-1.147.879-.352.283-.692.581-1.04.869-.3.246-.587.5-.9.726a6.121,6.121,0,0,1-.846.523,7.493,7.493,0,0,1-.792.29,3.277,3.277,0,0,1-1.182.236c-.311,0-.625.017-.934-.008a9.192,9.192,0,0,1-1-.149c-.3-.058-.589-.155-.888-.212-.343-.066-.69-.108-1.035-.161-.033-.005-.066-.013-.1-.021a6.422,6.422,0,0,0-.848-.2,3.016,3.016,0,0,0-2.1.468,3.4,3.4,0,0,0-.936,1.086,3.868,3.868,0,0,0-.272.669c-.047.12-.087.243-.142.359-.112.237-.241.467-.346.707s-.188.5-.294.745c-.158.367-.326.729-.492,1.092a1.766,1.766,0,0,1-.149.291c-.2.281-.4.567-.617.83a4.466,4.466,0,0,1-.594.586,4.734,4.734,0,0,1-.649.423c-.29.166-.584.328-.888.466a3.79,3.79,0,0,1-.559.155c-.149.041-.3.079-.444.13-.194.068-.381.159-.577.219-.221.068-.449.11-.673.17-.147.039-.293.087-.437.135-.211.07-.419.151-.632.215a3.548,3.548,0,0,0-.583.155,4.766,4.766,0,0,0-.758.487,2.593,2.593,0,0,0-.8,1.1,2.531,2.531,0,0,0-.148,1.131c.036.546.081,1.09.112,1.636.023.392.027.785.043,1.178,0,.094.032.187.034.281.015.518.051,1.037.026,1.553a3.976,3.976,0,0,1-.2.871,4.245,4.245,0,0,1-.212.568,4.345,4.345,0,0,1-.284.54,6.756,6.756,0,0,1-.6.885c-.33.375-.708.708-1.065,1.06-.5.492-.993.991-1.5,1.472a3.3,3.3,0,0,0-1.009,1.671,3.026,3.026,0,0,0,.127,1.485,1.214,1.214,0,0,0,.126.3c.152.251.319.492.473.742.183.3.354.6.537.9.157.255.328.5.484.757.182.3.357.6.529.908.128.227.255.455.365.691a2.3,2.3,0,0,1,.144.452,7.223,7.223,0,0,1,.225,1.087,5.3,5.3,0,0,1-.12,1.789c-.049.179-.105.357-.16.534-.041.132-.082.265-.128.4-.07.2-.15.39-.214.589s-.1.378-.152.564c-.074.243-.159.482-.237.723-.055.169-.108.339-.163.509a3.507,3.507,0,0,0-.2.659,2.9,2.9,0,0,0,.23,1.8,3.9,3.9,0,0,0,.445.648,3.84,3.84,0,0,0,1.029.745c.2.118.4.241.595.362.216.132.429.269.65.394.188.106.39.189.577.3.267.155.527.322.787.488a3.551,3.551,0,0,1,.6.4,13.088,13.088,0,0,1,1,1.092,5.985,5.985,0,0,1,.443.746,2.316,2.316,0,0,1,.278.705c.046.22.161.426.2.646.069.375.1.757.151,1.136,0,.027.01.053.016.079.073.353.156.7.217,1.06.066.382.11.768.165,1.152a.482.482,0,0,0,.023.076c.069.216.125.437.21.647a2.1,2.1,0,0,0,.305.61,2.917,2.917,0,0,0,1.263.938,4.177,4.177,0,0,0,.807.194c.774.092,1.557-.028,2.338.116a17.985,17.985,0,0,1,1.931.151c.235.069.477.111.714.174a1.62,1.62,0,0,1,.336.125c.206.108.409.221.6.348a4.89,4.89,0,0,1,1.577,1.386c.234.284.445.588.664.886.185.251.361.51.552.757s.407.479.591.733a3.32,3.32,0,0,0,.765.842c.218.149.467.252.7.38a1.758,1.758,0,0,0,.916.223,4.323,4.323,0,0,0,.467-.01,2.5,2.5,0,0,0,.571-.135c.251-.1.485-.243.732-.356.305-.14.617-.266.923-.4.266-.12.528-.246.79-.374.127-.062.245-.14.372-.2.216-.1.434-.207.656-.3.151-.061.311-.1.467-.149a4.215,4.215,0,0,1,.718-.214A7.794,7.794,0,0,1,99.484,207.316Z"/><path class="a" d="M219.7,220.5c0,.528.015.887,0,1.246-.03.582-.065,1.165-.13,1.743-.059.522-.151,1.041-.245,1.558-.074.406-.171.808-.266,1.209-.078.328-.164.654-.254.979-.075.273-.151.546-.245.813-.105.3-.237.583-.348.878s-.186.577-.3.856a1.312,1.312,0,0,1-1.606.968,1.153,1.153,0,0,1-.805-.666,1.369,1.369,0,0,1-.1-.79,2.311,2.311,0,0,1,.2-.576c.046-.12.1-.237.144-.359.053-.153.1-.31.145-.465.057-.175.119-.348.176-.523.076-.231.147-.462.223-.692.072-.215.148-.429.222-.643a.256.256,0,0,0,.009-.039c.047-.279.087-.56.144-.838s.132-.564.2-.846a.723.723,0,0,0,.025-.076c.054-.447.1-.895.16-1.34a22.442,22.442,0,0,0,.1-3.647c-.013-.478-.075-.955-.126-1.431-.031-.293-.083-.583-.13-.874-.035-.217-.068-.435-.12-.648-.061-.244-.143-.483-.215-.725-.006-.019-.007-.04-.011-.06-.091-.4-.164-.8-.277-1.188-.094-.32-.24-.624-.354-.939-.06-.165-.09-.342-.153-.506s-.146-.293-.214-.442c-.054-.118-.091-.244-.146-.361-.2-.437-.415-.871-.62-1.307-.1-.21-.175-.434-.293-.633-.222-.376-.47-.736-.7-1.107-.112-.18-.2-.379-.317-.551-.172-.245-.37-.472-.551-.71-.2-.263-.385-.537-.592-.794s-.423-.494-.642-.734c-.335-.368-.663-.745-1.017-1.094-.326-.322-.68-.617-1.027-.917-.332-.286-.666-.569-1.009-.842-.2-.156-.412-.288-.619-.432s-.421-.3-.636-.444c-.167-.11-.343-.2-.512-.312s-.352-.244-.537-.35-.4-.2-.6-.3-.407-.213-.612-.314c-.225-.111-.453-.216-.679-.324-.159-.075-.313-.161-.477-.224-.258-.1-.521-.186-.782-.279-.148-.053-.3-.108-.444-.159-.24-.082-.483-.157-.722-.243-.183-.065-.362-.141-.542-.212a.223.223,0,0,0-.039-.01c-.257-.048-.516-.087-.771-.146-.235-.054-.465-.129-.7-.195a.665.665,0,0,0-.076-.027c-.363-.055-.726-.11-1.09-.161q-.788-.11-1.578-.211a3.831,3.831,0,0,0-.466-.032c-.772,0-1.545-.022-2.317,0-.552.018-1.1.092-1.651.149-.247.025-.494.06-.737.109-.324.066-.645.15-.967.225-.02,0-.04.006-.06.009-.272.049-.549.08-.815.152-.352.1-.695.228-1.044.338-.314.1-.635.176-.944.288-.276.1-.54.234-.81.351-.113.049-.23.086-.342.137-.354.162-.7.328-1.058.491-.217.1-.441.186-.652.3-.249.131-.485.286-.731.425a1.278,1.278,0,0,1-1.209.107,1.131,1.131,0,0,1-.635-.564,1.2,1.2,0,0,1-.09-.96,1.773,1.773,0,0,1,.6-.764,4.625,4.625,0,0,1,.735-.4c.22-.119.438-.242.658-.361a2.862,2.862,0,0,1,.275-.138c.236-.1.478-.18.711-.283s.448-.226.675-.333a3.894,3.894,0,0,1,.388-.152c.167-.058.34-.1.5-.165s.3-.148.454-.21a3.942,3.942,0,0,1,.408-.132c.18-.051.364-.092.544-.144.24-.07.476-.15.715-.222.153-.046.308-.089.464-.122.294-.062.59-.112.883-.175.329-.071.655-.152.982-.227a.581.581,0,0,1,.081-.008c.586-.048,1.18-.051,1.757-.153a20.372,20.372,0,0,1,3.432-.088,7.227,7.227,0,0,1,1.537.139c.3.063.6.059.888.109s.561.136.84.206l.06.013c.483.1.969.185,1.45.293.3.068.6.161.894.249.259.077.519.153.772.249.381.144.755.308,1.134.459.267.106.542.192.805.307.226.1.438.228.658.339.194.1.4.181.587.285.282.153.556.32.835.478.092.052.192.092.282.146q.5.3.992.609c.216.135.436.267.641.418.382.281.755.575,1.129.866.269.209.539.418.8.636s.552.463.814.709c.384.361.767.725,1.129,1.107.319.337.612.7.909,1.054.234.281.46.567.682.857.2.267.407.536.593.815.272.409.532.826.792,1.243.237.382.475.764.7,1.154.116.2.194.427.3.637s.234.424.345.64a3.3,3.3,0,0,1,.142.338c.091.24.172.484.269.722.114.278.243.55.36.827a3.3,3.3,0,0,1,.13.372c.055.193.093.391.154.583s.149.392.215.59c.052.157.091.319.131.48.053.219.1.439.152.658l.235,1.03c0,.013.007.026.009.04a10.5,10.5,0,0,0,.15,1.115c.124.517.043,1.052.151,1.556A13.73,13.73,0,0,1,219.7,220.5Z" transform="translate(-96.069 -41.124)"/><path class="a" d="M140.656,313.266c-.359,0-.719.016-1.077,0a14.915,14.915,0,0,1-1.813-.149,8.055,8.055,0,0,1-.887-.117,5.962,5.962,0,0,0-.746-.115c-.378-.064-.753-.149-1.123-.249-.389-.105-.769-.242-1.154-.358-.189-.057-.386-.088-.574-.148s-.378-.143-.567-.214c-.137-.051-.275-.1-.413-.15-.376-.137-.755-.267-1.128-.413-.294-.116-.587-.237-.867-.381-.433-.222-.852-.469-1.281-.7-.209-.112-.433-.2-.637-.316-.284-.168-.556-.359-.832-.541-.363-.24-.732-.473-1.086-.725-.286-.2-.559-.425-.829-.648q-.5-.416-.994-.848c-.3-.262-.6-.524-.878-.8-.411-.412-.816-.832-1.2-1.267-.3-.341-.578-.709-.863-1.066-.225-.281-.457-.558-.669-.85s-.4-.6-.6-.9-.4-.576-.588-.874c-.15-.244-.271-.506-.409-.758-.12-.219-.256-.43-.366-.654s-.181-.441-.279-.658-.228-.455-.329-.689c-.111-.258-.2-.524-.309-.785-.067-.168-.146-.331-.213-.5-.055-.138-.107-.279-.148-.422-.053-.183-.09-.371-.142-.555s-.109-.341-.157-.513c-.082-.292-.155-.586-.238-.877-.068-.238-.146-.473-.219-.709a.262.262,0,0,1-.008-.039c-.047-.326-.088-.654-.141-.979-.067-.413-.145-.824-.218-1.236,0-.027-.01-.053-.013-.08a29.13,29.13,0,0,1-.119-4.436c.023-.43.074-.858.121-1.286a4.3,4.3,0,0,1,.132-.893,4.679,4.679,0,0,0,.115-.7c.07-.392.16-.781.253-1.169q.115-.48.259-.953c.1-.327.218-.648.325-.973.061-.186.106-.377.172-.56s.147-.345.219-.518a2.7,2.7,0,0,0,.132-.348,1.855,1.855,0,0,1,.39-.761,1.167,1.167,0,0,1,.738-.4,2.33,2.33,0,0,1,.3-.006,1.1,1.1,0,0,1,.853.425,1.235,1.235,0,0,1,.182,1.351c-.112.273-.2.558-.3.834-.113.294-.248.58-.352.878-.068.195-.094.4-.144.605-.046.183-.1.364-.149.547-.081.313-.162.626-.238.94s-.153.65-.228.975a.739.739,0,0,0-.015.1c-.049.529-.059,1.065-.155,1.585a18.584,18.584,0,0,0-.083,3.412,11.227,11.227,0,0,0,.206,1.543l.008.06c.056.4.1.812.172,1.213.049.266.149.522.214.785.057.232.089.47.151.7.056.209.14.411.209.617.054.16.105.322.157.483.042.131.082.263.125.394.06.186.115.374.185.555.109.28.222.557.347.83.1.226.228.442.339.664.135.271.255.549.4.815s.32.543.479.815c.09.154.166.317.265.466.21.316.429.627.648.938.2.291.405.586.624.866.3.388.608.779.941,1.142.5.544,1.015,1.072,1.539,1.591a11.641,11.641,0,0,0,.878.77c.246.2.512.375.77.561.385.277.766.56,1.158.826.24.163.5.3.746.448s.493.305.746.445c.2.112.42.2.628.308s.434.229.653.34c.108.055.219.1.331.15.419.168.836.342,1.261.5.314.113.644.183.957.3s.622.174.931.261a7.424,7.424,0,0,0,.991.239c.3.042.595.135.891.2a.514.514,0,0,0,.059.013c.461.055.922.1,1.382.166a20.42,20.42,0,0,0,3.3.105c.545-.015,1.09-.064,1.632-.13.5-.062,1-.16,1.5-.256.378-.073.752-.163,1.126-.254q.461-.113.917-.249c.254-.075.508-.155.754-.252.381-.151.754-.322,1.133-.477.156-.064.324-.1.48-.164.209-.087.412-.188.615-.288s.421-.214.629-.325c.269-.145.546-.279.8-.446a1.609,1.609,0,0,1,1.3-.3,1.068,1.068,0,0,1,.722.525,1.357,1.357,0,0,1,.229.7,1.238,1.238,0,0,1-.572,1.03c-.372.236-.771.432-1.157.646-.287.159-.568.329-.863.474-.224.11-.467.182-.7.281-.258.111-.511.235-.767.349a3.8,3.8,0,0,1-.383.149c-.179.057-.362.1-.542.155-.1.031-.2.075-.3.11-.154.053-.309.107-.465.156-.257.08-.515.157-.773.236s-.491.158-.74.228c-.172.049-.347.088-.522.121-.286.054-.572.107-.86.146a7.352,7.352,0,0,0-1.161.157,4.069,4.069,0,0,1-.932.1c-.732.058-1.466.109-2.2.162Z" transform="translate(-41.148 -109.654)"/><path class="a" d="M223.643,277.92c.077.387-.16.669-.317.976-.106.208-.221.413-.341.614-.152.254-.322.5-.467.753-.189.336-.355.686-.544,1.023-.15.269-.324.524-.477.791-.178.31-.34.63-.516.941-.205.363-.424.719-.626,1.084-.23.417-.442.844-.673,1.261-.139.251-.306.486-.448.735-.192.337-.371.681-.559,1.02-.142.255-.292.506-.435.761-.114.2-.222.411-.334.616-.09.163-.183.323-.274.485-.077.137-.15.276-.227.413-.094.166-.192.329-.285.5-.124.219-.244.441-.368.661-.088.156-.18.309-.269.464-.113.2-.222.4-.337.592s-.238.388-.355.583c-.053.087-.1.179-.149.268-.122.211-.25.419-.368.632-.138.25-.262.508-.4.756-.2.346-.411.682-.605,1.03s-.362.7-.555,1.047c-.182.324-.384.636-.57.957-.107.184-.193.38-.3.565-.115.2-.243.392-.361.591-.054.091-.094.191-.146.284-.155.279-.329.549-.464.838a1.651,1.651,0,0,1-.56.678,1.206,1.206,0,0,1-.445.189,1.262,1.262,0,0,1-1.005-.252,1.938,1.938,0,0,1-.333-.412,1.18,1.18,0,0,1-.109-.926,1.968,1.968,0,0,1,.283-.609q.236-.445.488-.882c.141-.243.3-.477.438-.721.155-.272.29-.554.446-.825.144-.25.313-.485.455-.736s.27-.53.415-.789c.193-.345.4-.68.6-1.024.148-.263.276-.536.425-.8.107-.189.24-.364.348-.553.137-.237.257-.484.39-.724.121-.218.254-.429.373-.648.1-.19.187-.391.294-.579.141-.247.3-.483.445-.73.115-.2.209-.413.323-.614.1-.175.219-.338.32-.512s.188-.36.289-.536c.119-.207.25-.407.37-.613.1-.165.181-.337.271-.5l.542-1c.122-.226.238-.457.369-.679.145-.247.309-.483.453-.731s.281-.529.428-.789c.188-.334.385-.662.574-1,.107-.189.2-.387.306-.575s.233-.371.347-.558c.054-.089.1-.184.152-.275.123-.222.248-.442.369-.666.138-.256.265-.517.409-.77.238-.419.5-.824.723-1.25a3.194,3.194,0,0,1,.527-.778,1.146,1.146,0,0,1,1.172-.28,1.193,1.193,0,0,1,.785.67C223.64,277.558,223.589,277.741,223.643,277.92Z" transform="translate(-118.294 -107.72)"/><path class="a" d="M187.773,257.991a8.084,8.084,0,0,1,.893.008,3.611,3.611,0,0,1,.675.19,3.144,3.144,0,0,1,.438.167,10.457,10.457,0,0,1,1.03.542,6.39,6.39,0,0,1,.682.585,2.9,2.9,0,0,1,.613.726c.207.354.425.7.61,1.07a2.72,2.72,0,0,1,.158.57,5.6,5.6,0,0,1,.211.911,2.143,2.143,0,0,1-.057,1.112.464.464,0,0,0-.022.118,5.016,5.016,0,0,1-.161.894,9.366,9.366,0,0,1-.551,1.15,4.124,4.124,0,0,1-.821,1.053,4.355,4.355,0,0,1-1.112.817,10.051,10.051,0,0,1-1.034.47,6.072,6.072,0,0,1-.918.173,5.929,5.929,0,0,1-1.627-.028,3.655,3.655,0,0,1-.7-.206,3.477,3.477,0,0,1-.513-.173,6.563,6.563,0,0,1-.727-.423,8.767,8.767,0,0,1-.815-.605,2.766,2.766,0,0,1-.41-.485c-.222-.3-.443-.61-.64-.929a2.175,2.175,0,0,1-.152-.456c-.043-.127-.085-.254-.136-.377a5.117,5.117,0,0,1-.22-2.386,4.138,4.138,0,0,1,.21-.786,3.567,3.567,0,0,1,.166-.539,4.929,4.929,0,0,1,.417-.75,6.732,6.732,0,0,1,.711-.88,7.348,7.348,0,0,1,.816-.654,3.276,3.276,0,0,1,.444-.283,7.464,7.464,0,0,1,.724-.344,5.583,5.583,0,0,1,.743-.233,2.071,2.071,0,0,1,.444-.027c.21,0,.42,0,.63,0Zm0,2.459-.009.054a2.5,2.5,0,0,0-1.444.381,3.735,3.735,0,0,0-.58.476,2.029,2.029,0,0,0-.539.8,1.806,1.806,0,0,0-.213.72,3.463,3.463,0,0,0,.1,1.2,3.3,3.3,0,0,0,.371.758,2.672,2.672,0,0,0,.881.816,2.13,2.13,0,0,0,.937.344,4,4,0,0,1,.428.078.6.6,0,0,0,.193-.017,1.447,1.447,0,0,1,.228-.057,2.209,2.209,0,0,0,1.1-.38,2.778,2.778,0,0,0,1-1.09,3.269,3.269,0,0,0,.314-1.011,1.622,1.622,0,0,0-.027-.663,5.742,5.742,0,0,0-.321-.917,1.832,1.832,0,0,0-.327-.5,4.528,4.528,0,0,0-.582-.515,1.364,1.364,0,0,0-.444-.244C188.491,260.587,188.131,260.526,187.773,260.45Z" transform="translate(-95.909 -92.227)"/><path class="a" d="M277.917,367.859a6.966,6.966,0,0,1-.872-.008,4.542,4.542,0,0,1-.744-.209c-.123-.038-.245-.082-.363-.132a5.366,5.366,0,0,1-.609-.272,4.2,4.2,0,0,1-1.139-.854c-.236-.275-.488-.536-.708-.824a3.371,3.371,0,0,1-.309-.565c-.123-.248-.247-.5-.35-.753a1.7,1.7,0,0,1-.129-.5,6.2,6.2,0,0,1-.123-1.544c.058-.326.136-.649.21-.972a5.218,5.218,0,0,1,.158-.6,3.086,3.086,0,0,1,.276-.6,8.457,8.457,0,0,1,.6-.83,4.254,4.254,0,0,1,1.109-1c.253-.15.491-.326.749-.466a2.757,2.757,0,0,1,.463-.151c.209-.068.415-.142.625-.208a1.089,1.089,0,0,1,.2-.032c.294-.035.588-.071.883-.1a1.019,1.019,0,0,1,.242.008c.16.022.318.054.478.079a5.8,5.8,0,0,1,.9.151c.344.114.657.314.995.45a4.2,4.2,0,0,1,1.138.809,3.728,3.728,0,0,1,.6.7,10.836,10.836,0,0,1,.619,1.018,2.662,2.662,0,0,1,.158.5,3.3,3.3,0,0,1,.216.745c.031.6.014,1.2,0,1.806a1.428,1.428,0,0,1-.1.4c-.062.19-.127.378-.2.563-.091.223-.189.443-.3.659a4.96,4.96,0,0,1-2.965,2.5c-.215.08-.434.153-.652.224a.543.543,0,0,1-.161.015c-.3,0-.6,0-.894,0Zm-.011-2.463.008-.053a2.5,2.5,0,0,0,1.429-.375,3.1,3.1,0,0,0,.711-.622,1.521,1.521,0,0,0,.379-.629,6,6,0,0,0,.231-.762,2.67,2.67,0,0,0-.127-1.333,2.091,2.091,0,0,0-.289-.588,3.038,3.038,0,0,0-.94-.86,7.368,7.368,0,0,0-.78-.31,2.662,2.662,0,0,0-.462-.1.839.839,0,0,0-.26,0,2.532,2.532,0,0,1-.386.082,1.849,1.849,0,0,0-.9.312,2.349,2.349,0,0,0-.85.759A2.251,2.251,0,0,0,275.2,362a.3.3,0,0,1-.032.135,1.087,1.087,0,0,0-.052.805,4.45,4.45,0,0,0,.343.942,2.478,2.478,0,0,0,.348.538,1.287,1.287,0,0,0,.514.429c.19.075.34.262.532.321A10.725,10.725,0,0,0,277.906,365.4Z" transform="translate(-170.761 -174.662)"/><path class="a" d="M348.128,429.465a1.234,1.234,0,0,1-1.272-1.254,1.3,1.3,0,0,1,1.281-1.284,1.269,1.269,0,1,1-.008,2.538Z" transform="translate(-232.486 -232.555)"/><path class="a" d="M156.221,237.322a1.271,1.271,0,0,1,2.541,0,1.3,1.3,0,0,1-1.316,1.3A1.242,1.242,0,0,1,156.221,237.322Z" transform="translate(-74.138 -74.026)"/></g></svg>