<svg width="74" height="64" viewBox="0 0 74 64" fill="none" xmlns="http://www.w3.org/2000/svg">
<path d="M69.4534 27.6133C70.7433 54.185 52.079 38.9043 42 53.1066C30.336 69.5422 8.71211 56.3951 4.64996 38.9043C-0.498642 -1.47103 65.0875 -8.4445 69.4534 27.6133Z" fill="#8EE29C"/>
<path d="M22.7261 31.9459H22.5V39.3119C23.4043 39.5351 24.3087 39.5351 25.4391 39.7584C27.7 39.9816 29.7348 40.428 31.9957 40.6512C32.4478 40.6512 32.9 40.8744 33.3522 40.8744V31.9459H33.1261C29.5087 31.9459 26.1174 31.9459 22.7261 31.9459ZM25.6652 21.4548C24.5348 21.678 23.6304 21.678 22.5 21.9012V29.2673C22.5 29.2673 22.5 29.2673 22.7261 29.2673C26.1174 29.2673 29.7348 29.2673 33.1261 29.2673H33.3522V20.3387C32.9 20.3387 32.2217 20.5619 31.7696 20.5619C29.7348 21.0084 27.7 21.2316 25.6652 21.4548ZM35.8391 41.3209C40.1348 41.9905 44.2043 42.4369 48.5 43.1066V31.9459H35.8391V41.3209ZM35.8391 19.8923V29.2673H48.5V18.1066C44.2043 18.7762 40.1348 19.2226 35.8391 19.8923Z" fill="black"/>
</svg>
