<svg xmlns="http://www.w3.org/2000/svg" width="64.186" height="63.44" viewBox="0 0 64.186 63.44"><defs><style>.a{fill:#f06421;}</style></defs><g transform="translate(-492 -119.081)"><path class="a" d="M556.186,159.705v2.758c-.035.2-.084.4-.1.607a20.747,20.747,0,0,1-2.731,8.7,21.046,21.046,0,0,1-9.819,8.881,21.212,21.212,0,0,1-23.759-4.464,1.4,1.4,0,0,0-1.095-.451q-6.957.026-13.914.006a5.741,5.741,0,0,1-5.678-7.542,17.059,17.059,0,0,1,1.654-2.849,5.866,5.866,0,0,1,.125-8.912,5.925,5.925,0,0,1,.089-9.1,3.253,3.253,0,0,1-.407-.29,5.775,5.775,0,0,1,4.156-9.909c.994-.021,1.99,0,3.09,0a5.9,5.9,0,0,1-.018-6.519h-.765c-3.009,0-6.017.007-9.025,0a5.507,5.507,0,0,1-4.838-2.4A14.852,14.852,0,0,1,492,125.481v-1.254a12.665,12.665,0,0,1,.592-1.831,5.649,5.649,0,0,1,5.395-3.3c3.761-.024,7.521-.006,11.282-.006,6.331,0,12.661-.015,18.992.005a5.763,5.763,0,0,1,5.481,8.086c-.128.3-.286.584-.46.935,3.166,0,6.255,0,9.345,0a12.647,12.647,0,0,1,1.5.1,5.729,5.729,0,0,1,2.061,10.622,6.42,6.42,0,0,1-3.237.811c-.946,0-1.891,0-2.872,0a1.637,1.637,0,0,0,1.236,1.282,12.3,12.3,0,0,1,2.165.807,21.045,21.045,0,0,1,12.1,14.527C555.86,157.39,555.986,158.557,556.186,159.705Zm-21.324,20.307a18.8,18.8,0,1,0-18.79-18.847A18.863,18.863,0,0,0,534.861,180.013Zm-21.734-58.418H499.275c-.564,0-1.13-.022-1.692.017a3.245,3.245,0,0,0-2.9,4.255,3.3,3.3,0,0,0,3.4,2.246q15.043,0,30.087,0a5.949,5.949,0,0,0,.626-.023,3.259,3.259,0,0,0-.555-6.493Q520.68,121.589,513.128,121.594Zm14.726,15.545h14.1c.5,0,1,.019,1.5-.016a3.246,3.246,0,0,0,2.9-4.259,3.3,3.3,0,0,0-3.4-2.242q-15.043,0-30.087,0a5.885,5.885,0,0,0-.626.024,3.259,3.259,0,0,0,.563,6.493Q520.332,137.145,527.854,137.14Zm8.278,2.848q0-.115.009-.23c-.444-.037-.887-.105-1.331-.106q-14.909-.009-29.818,0a7.408,7.408,0,0,0-.751.023,3.258,3.258,0,0,0,.523,6.493c4.615.006,9.23-.019,13.844.021a2.833,2.833,0,0,0,2.095-.817A20.48,20.48,0,0,1,533.287,140C534.231,139.929,535.184,139.987,536.132,139.987Zm-18.643,8.694c-4.347,0-8.712-.031-13.077.015a3.2,3.2,0,0,0-3.13,3.267,3.239,3.239,0,0,0,3.253,3.218c3.154.033,6.309.006,9.463.018a.5.5,0,0,0,.578-.411,13.232,13.232,0,0,1,.7-1.872C515.979,151.5,516.734,150.118,517.489,148.681Zm-3.408,18.054c-3.135,0-6.411-.027-9.686.012a3.165,3.165,0,0,0-2.967,2.294,3.241,3.241,0,0,0,3.18,4.194c4.091.028,8.182.008,12.273.007a1.314,1.314,0,0,0,.19-.016Zm-.391-9.01c-3.119,0-6.307-.034-9.493.019a2.881,2.881,0,0,0-2.438,1.541,3.226,3.226,0,0,0,2.726,4.915c2.981.06,5.965.017,8.947.016a1.53,1.53,0,0,0,.257-.037Z" transform="translate(0 0)"/><path class="a" d="M792.056,386.512a1.248,1.248,0,0,1,1.122-1.4,1.23,1.23,0,0,1,1.366,1.163,2.732,2.732,0,0,0,3.671,2.291,2.418,2.418,0,0,0,1.846-2.321,2.491,2.491,0,0,0-2.068-2.212,11.537,11.537,0,0,0-1.306-.142,4.889,4.889,0,0,1-4.381-6.3,4.771,4.771,0,0,1,3.138-3.088c.426-.148.64-.295.633-.8a1.237,1.237,0,1,1,2.469.007c0,.506.214.639.636.8a4.827,4.827,0,0,1,3.366,4.193,1.281,1.281,0,0,1-1.068,1.567c-.769.088-1.288-.37-1.412-1.245a2.53,2.53,0,0,0-2.019-2.263,2.967,2.967,0,0,0-3.08,1.041c-1.046,1.469.026,3.371,1.976,3.615a10.239,10.239,0,0,1,2.833.655,4.668,4.668,0,0,1,2.782,4.513,4.938,4.938,0,0,1-3.4,4.308c-.4.129-.613.249-.622.738a1.229,1.229,0,1,1-2.458-.008c0-.455-.185-.592-.569-.714A4.93,4.93,0,0,1,792.056,386.512Z" transform="translate(-262.44 -221.556)"/><path class="a" d="M887.028,351.067a17.648,17.648,0,0,1-1.818,8.2,1.268,1.268,0,0,1-1.644.74,1.294,1.294,0,0,1-.655-1.727,31.412,31.412,0,0,0,1.353-4.137,13.653,13.653,0,0,0-7.049-14.512c-.129-.068-.26-.134-.385-.207a1.28,1.28,0,0,1-.679-1.769,1.218,1.218,0,0,1,1.831-.434,24.172,24.172,0,0,1,3.419,2.29A15.7,15.7,0,0,1,887.028,351.067Z" transform="translate(-335.861 -190.588)"/><path class="a" d="M706.9,389.058a1.193,1.193,0,0,1,1.169,1.582c-.276.806-.659,1.575-.932,2.382a13.761,13.761,0,0,0,6.769,16.589c.828.423,1.129.919.992,1.544a1.242,1.242,0,0,1-1.86.823,15.47,15.47,0,0,1-6.014-5.071c-3.733-5.4-4.086-11.083-1.321-17A1.277,1.277,0,0,1,706.9,389.058Z" transform="translate(-185.327 -236.132)"/><path class="a" d="M841.63,326.415a1.269,1.269,0,0,1-1.28,1.259,1.249,1.249,0,1,1-.02-2.5A1.273,1.273,0,0,1,841.63,326.415Z" transform="translate(-303.563 -180.259)"/><path class="a" d="M809.8,565.177a1.249,1.249,0,1,1,.03,2.5,1.249,1.249,0,1,1-.03-2.5Z" transform="translate(-276.845 -390.173)"/></g></svg>