<svg width="19" height="18" viewBox="0 0 19 18" fill="none" xmlns="http://www.w3.org/2000/svg">
<path d="M13.5097 8.41685C11.4369 7.21034 9.39868 6.0383 7.32589 4.86627C7.1877 4.79732 7.04952 4.72838 6.87679 4.76285C6.70405 4.76285 6.53132 4.86627 6.42768 5.00415C6.32404 5.10757 6.25495 5.3144 6.25495 5.48676C6.2895 6.24514 6.25495 7.03799 6.25495 7.83084V10.1749C6.25495 10.9678 6.25495 11.7606 6.25495 12.5535C6.25495 12.6914 6.32404 12.8637 6.39314 13.0016C6.49678 13.174 6.70405 13.2774 6.91133 13.2774H6.94588C7.08406 13.2774 7.22225 13.2084 7.36044 13.1395L9.50232 11.933C10.8151 11.1401 12.1624 10.3817 13.4752 9.62337C13.717 9.51995 13.8897 9.27865 13.8897 9.03735C13.8897 8.76157 13.7515 8.52027 13.5097 8.41685ZM7.60226 11.4848V6.55538L11.886 9.00288L7.60226 11.4848ZM18.0008 8.45133C17.7244 3.55634 13.5443 -0.166609 8.63866 0.00574971C3.7676 0.21258 -0.101605 4.28025 0.00203437 9.17523C0.105674 14.0702 4.07852 17.9655 8.98412 18C9.1914 18 9.36413 17.9655 9.57141 17.9655C14.5116 17.6553 18.3117 13.4153 18.0008 8.45133ZM14.4079 14.4839C12.9915 15.8972 11.0224 16.6901 9.01867 16.6901H8.94958C4.70036 16.6556 1.28025 13.174 1.3148 8.9684C1.38389 4.72838 4.804 1.35015 9.01867 1.35015H9.08776C12.1969 1.35015 14.9952 3.24609 16.1352 6.14172C17.3098 9.00288 16.6189 12.3122 14.4079 14.4839Z" fill="#BFBFBF"/>
</svg>
