<svg xmlns="http://www.w3.org/2000/svg" width="16.531" height="16.531" viewBox="0 0 16.531 16.531">
  <g id="Group_3275" data-name="Group 3275" transform="translate(-805 -418)">
    <g id="Group_1912" data-name="Group 1912" transform="translate(805 418)">
      <path id="Path_3205" data-name="Path 3205" d="M25.411,16.886a1.179,1.179,0,0,0,1.934.573,1.184,1.184,0,0,1,1.92,1.245,1.189,1.189,0,0,0,1.32,1.537,1.193,1.193,0,0,1,.948,2.094,1.2,1.2,0,0,0,.287,2.013,1.2,1.2,0,0,1-.325,2.279,1.194,1.194,0,0,0-.837,1.85,1.189,1.189,0,0,1-1.495,1.74,1.183,1.183,0,0,0-1.7,1.1,1.181,1.181,0,0,1-2.19.649,1.177,1.177,0,0,0-2.016,0,1.181,1.181,0,0,1-2.19-.649,1.183,1.183,0,0,0-1.7-1.1,1.189,1.189,0,0,1-1.495-1.74,1.194,1.194,0,0,0-.837-1.85,1.2,1.2,0,0,1-.325-2.279,1.2,1.2,0,0,0,.287-2.013,1.193,1.193,0,0,1,.948-2.094,1.189,1.189,0,0,0,1.32-1.537,1.184,1.184,0,0,1,1.92-1.245,1.179,1.179,0,0,0,1.934-.573A1.18,1.18,0,0,1,25.411,16.886Z" transform="translate(-16.004 -16.005)" fill="#ffb42c"/>
      <g id="Group_1872" data-name="Group 1872" transform="translate(4.959 4.408)">
        <path id="Path_3208" data-name="Path 3208" d="M160.556,166.617a.551.551,0,0,1-.39-.941l5.51-5.51a.551.551,0,0,1,.779.779l-5.51,5.51A.549.549,0,0,1,160.556,166.617Z" transform="translate(-160.005 -159.453)" fill="#fafbfb"/>
        <path id="Path_3209" data-name="Path 3209" d="M177.107,146.209a1.1,1.1,0,1,1,1.1-1.1A1.1,1.1,0,0,1,177.107,146.209Zm0-1.1h0Z" transform="translate(-175.454 -144.005)" fill="#fafbfb"/>
        <path id="Path_3210" data-name="Path 3210" d="M273.107,306.209a1.1,1.1,0,1,1,1.1-1.1A1.1,1.1,0,0,1,273.107,306.209Zm0-1.1h0Z" transform="translate(-268.148 -298.495)" fill="#fafbfb"/>
      </g>
    </g>
  </g>
</svg>
