<svg xmlns="http://www.w3.org/2000/svg" width="618.106" height="359.516" viewBox="0 0 618.106 359.516">
  <g id="Group_4479" data-name="Group 4479" transform="translate(8269 -4788)">
    <g id="Group_3353" data-name="Group 3353" transform="translate(-8347.836 4725.987)">
      <g id="Background_Complete" data-name="Background Complete">
        <g id="Group_3267" data-name="Group 3267">
          <g id="Group_3265" data-name="Group 3265">
            <g id="Group_3264" data-name="Group 3264">
              <rect id="Rectangle_2093" data-name="Rectangle 2093" width="153.316" height="103.316" transform="translate(79.336 165.231)" fill="rgba(255,255,255,0.3)"/>
              <path id="Path_4202" data-name="Path 4202" d="M233.152,269.047H78.836V164.731H233.152Zm-153.316-1H232.152V165.731H79.836Z" fill="#dfe8ed"/>
            </g>
          </g>
          <g id="Group_3266" data-name="Group 3266">
            <path id="Path_4203" data-name="Path 4203" d="M94.151,173.048a3.531,3.531,0,1,1-3.531-3.53A3.531,3.531,0,0,1,94.151,173.048Z" fill="#37474f"/>
            <path id="Path_4204" data-name="Path 4204" d="M108.568,173.048a3.53,3.53,0,1,1-3.53-3.53A3.53,3.53,0,0,1,108.568,173.048Z" fill="#dfe8ed"/>
            <path id="Path_4205" data-name="Path 4205" d="M122.986,173.048a3.531,3.531,0,1,1-3.531-3.53A3.531,3.531,0,0,1,122.986,173.048Z" fill="#e5ac1c"/>
          </g>
          <rect id="Rectangle_2094" data-name="Rectangle 2094" width="153.316" height="1" transform="translate(79.336 180.295)" fill="#dfe8ed"/>
        </g>
        <g id="Group_3271" data-name="Group 3271">
          <g id="Group_3269" data-name="Group 3269">
            <g id="Group_3268" data-name="Group 3268">
              <rect id="Rectangle_2095" data-name="Rectangle 2095" width="153.316" height="103.316" transform="translate(541.33 237.311)" fill="rgba(255,255,255,0.5)"/>
              <path id="Path_4206" data-name="Path 4206" d="M695.146,341.128H540.83V236.811H695.146Zm-153.316-1H694.146V237.811H541.83Z" fill="#dfe8ed"/>
            </g>
          </g>
          <g id="Group_3270" data-name="Group 3270">
            <path id="Path_4207" data-name="Path 4207" d="M556.145,245.129a3.531,3.531,0,1,1-3.531-3.531A3.531,3.531,0,0,1,556.145,245.129Z" fill="#37474f"/>
            <path id="Path_4208" data-name="Path 4208" d="M570.562,245.129a3.531,3.531,0,1,1-3.531-3.531A3.531,3.531,0,0,1,570.562,245.129Z" fill="#ebebeb"/>
            <path id="Path_4209" data-name="Path 4209" d="M584.98,245.129a3.531,3.531,0,1,1-3.531-3.531A3.531,3.531,0,0,1,584.98,245.129Z" fill="#e5ac1c"/>
          </g>
          <rect id="Rectangle_2096" data-name="Rectangle 2096" width="153.316" height="1" transform="translate(541.33 252.376)" fill="#dfe8ed"/>
        </g>
        <g id="Group_3275" data-name="Group 3275">
          <path id="Path_4210" data-name="Path 4210" d="M187.082,266.625a16.221,16.221,0,0,1-16.233,16.234c-.289,0-.559,0-.829-.02l-28.881.058a16.234,16.234,0,0,1,0-32.467H169.75c.366-.019.733-.038,1.1-.038A16.233,16.233,0,0,1,187.082,266.625Z" fill="#ccdae2"/>
          <g id="Group_3274" data-name="Group 3274">
            <g id="IaQ7Yo">
              <g id="Group_3273" data-name="Group 3273">
                <g id="Group_3272" data-name="Group 3272">
                  <path id="Path_4211" data-name="Path 4211" d="M141.323,267.16a3.262,3.262,0,0,1,.562-1.692c.142-.23.3-.449.451-.672l.98-.982c.379-.273.749-.559,1.139-.817a14.111,14.111,0,0,1,5.143-2,32.7,32.7,0,0,1,12.779.016,13.925,13.925,0,0,1,5.076,1.971c.4.266.786.561,1.179.843l.946.945a11.385,11.385,0,0,1,.695,1.13,10.121,10.121,0,0,1,.4,1.219c-.15.012-.22.022-.29.023q-4.035.006-8.07.013a.317.317,0,0,1-.324-.192,2.8,2.8,0,0,0-2.387-1.523,56.75,56.75,0,0,0-7.3,0,2.806,2.806,0,0,0-2.382,1.531c-.064.112-.116.192-.274.193q-4.1-.008-8.194,0C141.419,267.171,141.378,267.165,141.323,267.16Z" fill="#fff"/>
                  <path id="Path_4212" data-name="Path 4212" d="M141.314,271.879q0-1.424,0-2.846c0-.073.006-.146.008-.2l8.27-.01c-.009.185-.027.4-.027.606,0,.808,0,1.617,0,2.425a.929.929,0,0,1-1.052,1.052l-6.162.006A.92.92,0,0,1,141.314,271.879Z" fill="#fff"/>
                  <path id="Path_4213" data-name="Path 4213" d="M162.369,271.922c.011-1.037.05-2.075.078-3.106l8.152-.012c0,.048.011.112.011.176,0,.966.005,1.93,0,2.895a.91.91,0,0,1-1.008,1.013q-3.117.006-6.235,0A.9.9,0,0,1,162.369,271.922Z" fill="#fff"/>
                </g>
              </g>
            </g>
          </g>
        </g>
        <g id="Group_3276" data-name="Group 3276">
          <path id="Path_4214" data-name="Path 4214" d="M685.894,240.528a4.5,4.5,0,0,1,.032-4.714q.358-.594.69-1.211t.632-1.256a4.486,4.486,0,0,1,3.9-2.623l5.8-.18-.587-18.889-5.837.18a4.469,4.469,0,0,1-4.04-2.384,25.9,25.9,0,0,0-1.444-2.342,4.534,4.534,0,0,1-.329-4.733l2.734-5.1-16.659-8.934-2.735,5.1a4.534,4.534,0,0,1-4.124,2.344,26.287,26.287,0,0,0-2.752.092,4.467,4.467,0,0,1-4.22-2.046l-3.079-4.961-16.059,9.961,3.069,4.954a4.415,4.415,0,0,1,.005,4.626q-.379.624-.729,1.275T639.5,211a4.43,4.43,0,0,1-3.877,2.563l-5.8.176.587,18.888,5.783-.183a4.417,4.417,0,0,1,4.031,2.287,26.378,26.378,0,0,0,1.585,2.558,4.417,4.417,0,0,1,.25,4.619l-2.734,5.1,16.66,8.935,2.734-5.1a4.534,4.534,0,0,1,4.129-2.344,26.119,26.119,0,0,0,2.757-.089,4.478,4.478,0,0,1,4.225,2.055l3.065,4.947,16.059-9.961Zm-27.988-3.893a15.484,15.484,0,1,1,18.049-5.46A15.5,15.5,0,0,1,657.906,236.635Z" fill="#dfe8ed"/>
          <path id="Path_4215" data-name="Path 4215" d="M619.1,184.668a3.155,3.155,0,0,1-1.541-2.922q.026-.486.025-.975t-.025-.982a3.145,3.145,0,0,1,1.536-2.912l3.52-2.031L616,163.379l-3.519,2.029a3.147,3.147,0,0,1-3.3-.115,18.518,18.518,0,0,0-1.707-.989,3.145,3.145,0,0,1-1.738-2.8v-4.054H592.49v4.054a3.145,3.145,0,0,1-1.738,2.8,18.391,18.391,0,0,0-1.707.989,3.147,3.147,0,0,1-3.3.115l-3.519-2.029-6.616,11.467,3.534,2.042a3.139,3.139,0,0,1,1.532,2.909q-.024.484-.024.974t.024.975a3.153,3.153,0,0,1-1.541,2.921l-3.525,2.029,6.616,11.467,3.509-2.028a3.147,3.147,0,0,1,3.3.112,18.314,18.314,0,0,0,1.715.991,3.146,3.146,0,0,1,1.741,2.8v4.053h13.243v-4.053a3.146,3.146,0,0,1,1.741-2.8,18.44,18.44,0,0,0,1.715-.991,3.145,3.145,0,0,1,3.3-.112l3.51,2.028,6.616-11.467Zm-19.982,6.953a10.844,10.844,0,1,1,10.839-10.85A10.854,10.854,0,0,1,599.117,191.621Z" fill="#dfe8ed"/>
          <path id="Path_4216" data-name="Path 4216" d="M138.866,153.955l6.616,11.467,3.509-2.027a3.143,3.143,0,0,1,3.3.112,18.3,18.3,0,0,0,1.715.99,3.146,3.146,0,0,1,1.741,2.8v4.052H168.99v-4.052a3.146,3.146,0,0,1,1.741-2.8,18.3,18.3,0,0,0,1.715-.99,3.143,3.143,0,0,1,3.3-.112l3.51,2.027,6.616-11.467-3.525-2.029a3.153,3.153,0,0,1-1.541-2.921q.024-.484.024-.975t-.024-.974a3.138,3.138,0,0,1,1.532-2.908l3.534-2.043-6.616-11.466-3.519,2.029a3.147,3.147,0,0,1-3.3-.116,18.158,18.158,0,0,0-1.707-.988,3.146,3.146,0,0,1-1.738-2.8v-4.053H155.747v4.053a3.146,3.146,0,0,1-1.738,2.8,18.158,18.158,0,0,0-1.707.988,3.149,3.149,0,0,1-3.3.116l-3.519-2.029L138.866,142.1l3.52,2.031a3.145,3.145,0,0,1,1.536,2.913c-.017.324-.025.652-.025.981s.008.652.025.975a3.154,3.154,0,0,1-1.541,2.922Zm12.658-5.925a10.844,10.844,0,1,1,10.839,10.85A10.837,10.837,0,0,1,151.524,148.03Z" fill="#dfe8ed"/>
        </g>
        <g id="Group_3280" data-name="Group 3280">
          <circle id="Ellipse_1557" data-name="Ellipse 1557" cx="58.812" cy="58.812" r="58.812" transform="matrix(0.242, -0.97, 0.97, 0.242, 274.642, 193.087)" fill="#dfe8ed"/>
          <circle id="Ellipse_1558" data-name="Ellipse 1558" cx="44.89" cy="44.89" r="44.89" transform="translate(291.463 182.856) rotate(-75.936)" fill="#fff" opacity="0.5"/>
          <path id="Path_6138" data-name="Path 6138" d="M32.079,0A32.079,32.079,0,1,1,0,32.079,32.079,32.079,0,0,1,32.079,0Z" transform="translate(306.969 173.485) rotate(-75.853)" fill="#dfe8ed"/>
          <circle id="Ellipse_1560" data-name="Ellipse 1560" cx="17.735" cy="17.735" r="17.735" transform="translate(324.364 163.047) rotate(-75.759)" fill="#fff" opacity="0.5"/>
          <circle id="Ellipse_1561" data-name="Ellipse 1561" cx="8.017" cy="8.017" r="8.017" transform="matrix(0.247, -0.969, 0.969, 0.247, 336.167, 156.007)" fill="#dfe8ed"/>
          <g id="Group_3279" data-name="Group 3279">
            <g id="Group_3278" data-name="Group 3278">
              <rect id="Rectangle_2097" data-name="Rectangle 2097" width="95.27" height="2.286" transform="translate(349.747 144.772) rotate(-45)" fill="#c7c7c7"/>
              <g id="Group_3277" data-name="Group 3277">
                <path id="Path_4217" data-name="Path 4217" d="M354.722,147.861l-8.806,2.359,2.359-8.806Z" fill="#a6a6a6"/>
              </g>
            </g>
            <path id="Path_4218" data-name="Path 4218" d="M429.191,73.83,416.56,86.461l-9.908,3.022,3.022-9.908,12.631-12.631-3.022,9.908Z" fill="#a6a6a6"/>
          </g>
        </g>
      </g>
      <g id="Characters">
        <g id="Group_3311" data-name="Group 3311">
          <g id="Group_3310" data-name="Group 3310">
            <g id="Group_3283" data-name="Group 3283">
              <g id="Group_3281" data-name="Group 3281">
                <path id="Path_4220" data-name="Path 4220" d="M244.115,255.961c17.1,34.509,42.4,68.947,49.188,75.458,18.218,17.486,66.858,30.055,81.195,30.453,6.187.172,14.748-40.951,10.187-45.746s-64.624-17.851-67.841-20.316c-2.236-1.714-30.883-28.943-49.874-45.107C243.367,230.614,239.625,246.9,244.115,255.961Z" fill="#f7c4a5"/>
              </g>
              <path id="Path_4221" data-name="Path 4221" d="M371.416,310.424l-15.5,48.948s-50.827-13.425-64.426-26.457-41.769-59.9-47.272-75.331-1.916-27.637,22.954-7.6S313.218,290.5,317.634,293.8,371.416,310.424,371.416,310.424Z" fill="#455a64"/>
              <g id="Group_3282" data-name="Group 3282">
                <path id="Path_4222" data-name="Path 4222" d="M355.676,312.381a2.5,2.5,0,1,0,2.1-2.847A2.5,2.5,0,0,0,355.676,312.381Z" fill="#263238"/>
                <path id="Path_4223" data-name="Path 4223" d="M343.225,308.794a2.5,2.5,0,1,0,2.1-2.847A2.5,2.5,0,0,0,343.225,308.794Z" fill="#263238"/>
              </g>
              <path id="Path_4224" data-name="Path 4224" d="M318.42,347.24c-11.13-4.32-21.74-9.35-26.93-14.32-13.6-13.04-41.77-59.9-47.27-75.34-3.52-9.87-3.33-18.41,3.77-18.06Z" fill="#263238"/>
            </g>
            <g id="Group_3285" data-name="Group 3285">
              <g id="Group_3284" data-name="Group 3284">
                <path id="Path_4225" data-name="Path 4225" d="M163.06,390.624l128.3.025c.514-4.689-25.887-135.423-38.452-151.811-2.69-3.5-11.557-4.478-19.1-3.54a33.614,33.614,0,0,0-5.8,1.186.885.885,0,0,1-.2.053,13.9,13.9,0,0,0-4.265,2.089C202.579,255.368,162.051,389.474,163.06,390.624Z" fill="#455a64"/>
              </g>
            </g>
            <g id="Group_3286" data-name="Group 3286">
              <path id="Path_4226" data-name="Path 4226" d="M242.474,268.392l5.455-10.622,7.036,7.684-1.721,7.644-6.95.894Z" fill="#263238"/>
              <path id="Path_4227" data-name="Path 4227" d="M246.294,273.991l-3.325,78.129,14.645,25.837,7.6-29.078L253.245,273.1Z" fill="#263238"/>
            </g>
            <g id="Group_3301" data-name="Group 3301">
              <g id="Group_3288" data-name="Group 3288">
                <g id="Group_3287" data-name="Group 3287">
                  <path id="Path_4228" data-name="Path 4228" d="M246.1,256.352c-2.021-.08-15.421-10.563-19.543-18.728-.279-.561.758-6.327,1.685-13.393.547-4.291,1.054-9.081,1.2-13.485.025-.9,3.048.86,3.048.86l5.654,1.567,18.7,5.208s-3.025,9.141-3.234,16.821a9.877,9.877,0,0,0,.129,1.814c.007.083.027.185.03.3C254.208,240.769,249.4,256.482,246.1,256.352Z" fill="#f7c4a5"/>
                </g>
                <path id="Path_4229" data-name="Path 4229" d="M253.733,237.016c.007.083.027.185.03.3a17.386,17.386,0,0,1-2.844.055c-18.586-1.036-20.119-24.764-20.119-24.764l7.341.565,18.7,5.208s-3.025,9.141-3.234,16.821A9.877,9.877,0,0,0,253.733,237.016Z" fill="#263238"/>
              </g>
              <g id="Group_3299" data-name="Group 3299">
                <path id="Path_4230" data-name="Path 4230" d="M239.681,229.869a.005.005,0,1,1,0-.01" fill="none" stroke="#f4a69d" stroke-linecap="round" stroke-linejoin="round" stroke-width="0"/>
                <g id="Group_3289" data-name="Group 3289">
                  <path id="Path_4231" data-name="Path 4231" d="M225.1,178.389c-2.8,9.855,2.911,38.062,10,44.24,10.278,8.957,26.836,9.516,34.377-2.777,7.311-11.915-.786-48.544-8.68-54.131C249.165,157.493,229.236,163.831,225.1,178.389Z" fill="#f7c4a5"/>
                </g>
                <g id="Group_3295" data-name="Group 3295">
                  <g id="Group_3290" data-name="Group 3290">
                    <path id="Path_4232" data-name="Path 4232" d="M253.031,194.806c-.029-.069-.131.12-.113.2.436,1.89.617,4.128-.979,5.1-.05.03-.025.125.037.1C254.017,199.495,253.747,196.527,253.031,194.806Z" fill="#263238"/>
                    <path id="Path_4233" data-name="Path 4233" d="M250.941,193.156c-3.1.372-2.133,6.553.743,6.209C254.515,199.026,253.543,192.844,250.941,193.156Z" fill="#263238"/>
                  </g>
                  <g id="Group_3291" data-name="Group 3291">
                    <path id="Path_4234" data-name="Path 4234" d="M264.166,193.377c0-.076.164.066.174.145.24,1.925.839,4.088,2.671,4.452.057.011.067.108,0,.109C264.852,198.118,264.085,195.238,264.166,193.377Z" fill="#263238"/>
                    <path id="Path_4235" data-name="Path 4235" d="M265.561,191.108c3.043-.718,4.256,5.421,1.437,6.086C264.223,197.849,263.01,191.709,265.561,191.108Z" fill="#263238"/>
                  </g>
                  <path id="Path_4236" data-name="Path 4236" d="M248.057,190.713a24.347,24.347,0,0,0,2.261-1.22,4.152,4.152,0,0,0,2.07-1.684,1.324,1.324,0,0,0-.46-1.549,3.279,3.279,0,0,0-3.319.18,4.81,4.81,0,0,0-2.42,2.491A1.411,1.411,0,0,0,248.057,190.713Z" fill="#263238"/>
                  <path id="Path_4237" data-name="Path 4237" d="M267.462,187.619a24.346,24.346,0,0,1-2.557-.251,4.154,4.154,0,0,1-2.559-.754,1.324,1.324,0,0,1-.175-1.606,3.28,3.28,0,0,1,3.131-1.117,4.82,4.82,0,0,1,3.2,1.363A1.412,1.412,0,0,1,267.462,187.619Z" fill="#263238"/>
                  <path id="Path_4238" data-name="Path 4238" d="M254.055,212.858c.529.376,1.084.922,1.788.871a5.113,5.113,0,0,0,1.983-.806.068.068,0,0,1,.1.086,2.611,2.611,0,0,1-2.267,1.422,2.062,2.062,0,0,1-1.772-1.457C253.838,212.867,253.978,212.8,254.055,212.858Z" fill="#263238"/>
                  <g id="Group_3292" data-name="Group 3292">
                    <path id="Path_4239" data-name="Path 4239" d="M261.35,208.153a7.832,7.832,0,0,1-2.72,2.888,3.531,3.531,0,0,1-2.093.464c-1.593-.162-1.852-1.559-1.76-2.8a8.4,8.4,0,0,1,.4-1.946A10.141,10.141,0,0,0,261.35,208.153Z" fill="#fff"/>
                  </g>
                  <g id="Group_3294" data-name="Group 3294">
                    <g id="Group_3293" data-name="Group 3293">
                      <path id="Path_4240" data-name="Path 4240" d="M255.166,206.808a6.6,6.6,0,0,0,4.809,2.217,8.3,8.3,0,0,0,2.362-.261,2.41,2.41,0,0,0,.44-.122c.137-.039.261-.075.409-.131a.48.48,0,0,0,.317-.489l0-.014a1.012,1.012,0,0,0-.049-.193l0-.014-.03-.167c-.192-1.481-.688-3.7-.688-3.7.582.185,3.522.989,3.358.225-1.383-6.316-2.922-13.341-5.632-19.335a.18.18,0,0,0-.342.1c1.089,6.124,3.248,12.014,4.44,18.148a11.556,11.556,0,0,0-3.225-.45c-.2.093,1.035,4.273,1.068,4.945a.238.238,0,0,1,0,.072c-2.427.706-4.412.252-7.079-1.034C255.159,206.521,255.028,206.674,255.166,206.808Z" fill="#263238"/>
                    </g>
                  </g>
                </g>
                <g id="Group_3296" data-name="Group 3296">
                  <path id="Path_4241" data-name="Path 4241" d="M228.416,200.386c6.733-1.007,6.256-13.428,6.256-13.428s11.291-3.584,11.7-12.537c0,0,12,5.406,20.178,1.015s4.938-13.89,3.677-15.839-5.481,2.628-5.481,2.628-1.354-5.445-2.913-5.792-2.674,3.231-2.674,3.231-11.666-2.108-21.716-.347-13.562,12.662-13.562,12.662-5.229,1.934-6.426,5.969S224.123,201.029,228.416,200.386Z" fill="#263238"/>
                  <path id="Path_4242" data-name="Path 4242" d="M231.961,187.441c9.12-.119,14.188-6.93,14.236-15.691a.085.085,0,0,1,.169-.011c.909,8.021-5.248,18.007-14.433,16.11A.207.207,0,0,1,231.961,187.441Z" fill="#263238"/>
                  <path id="Path_4243" data-name="Path 4243" d="M224.1,171.781a.1.1,0,0,1,.085.168c-2.334,1.527-5.075,2.816-6.5,5.355-1.725,3.066-.739,6.616.512,9.634,1.938,4.675,5.361,10.616,10.117,12.837.274.127.067.528-.207.416-5.655-2.309-9.877-10.049-11.429-15.66C214.938,178.249,218.388,174.023,224.1,171.781Z" fill="#263238"/>
                  <path id="Path_4244" data-name="Path 4244" d="M256.539,175.487c4.287,1.8,10.153,1.047,13.619-2.217,4.222-3.975,2.433-9.254-.265-13.477-.133-.207.154-.494.338-.3,3.366,3.571,4.475,9.577,1.125,13.559-3.463,4.114-10.386,5.006-15.114,3.03C255.847,175.918,256.145,175.321,256.539,175.487Z" fill="#263238"/>
                </g>
                <g id="Group_3297" data-name="Group 3297">
                  <path id="Path_4245" data-name="Path 4245" d="M251.438,206.028a8.3,8.3,0,1,1,7.643-10.642h0a8.3,8.3,0,0,1-7.643,10.641Zm-.586-15.474a7.188,7.188,0,1,0,7.165,5.147A7.174,7.174,0,0,0,250.852,190.554Z" fill="#455a64"/>
                  <path id="Path_4246" data-name="Path 4246" d="M270.235,202.994c-3.172.12-6.173-3.02-6.841-7.3a9.9,9.9,0,0,1,.839-6,5.168,5.168,0,0,1,8.742-1.364,9.912,9.912,0,0,1,2.624,5.461c.7,4.519-1.459,8.624-4.822,9.149A4.754,4.754,0,0,1,270.235,202.994Zm-1.426-15.39a3.47,3.47,0,0,0-.419.04,4.427,4.427,0,0,0-3.172,2.558,8.817,8.817,0,0,0-.729,5.324c.612,3.915,3.346,6.755,6.116,6.32s4.508-3.967,3.9-7.882a8.806,8.806,0,0,0-2.317-4.85A4.566,4.566,0,0,0,268.809,187.6Z" fill="#455a64"/>
                  <path id="Path_4247" data-name="Path 4247" d="M258.954,196.378l-.836-.729c1.081-1.238,3.737-3.091,6.072-1.261l-.684.873C261.416,193.618,259.054,196.266,258.954,196.378Z" fill="#455a64"/>
                  <path id="Path_4248" data-name="Path 4248" d="M222.759,204.185l-1.052-.351c.165-.491,1.67-4.816,4.056-5.6,2.23-.722,17.135-1.637,17.768-1.675l.066,1.107c-4.273.258-15.768,1.06-17.49,1.623C224.532,199.808,223.157,203,222.759,204.185Z" fill="#455a64"/>
                </g>
                <g id="Group_3298" data-name="Group 3298">
                  <path id="Path_4249" data-name="Path 4249" d="M232.7,201.641s-6.755-8.9-10.817-6.454,1.268,15.516,6.213,17.14a4.961,4.961,0,0,0,6.536-2.925Z" fill="#f7c4a5"/>
                  <path id="Path_4250" data-name="Path 4250" d="M223.505,198.9a.068.068,0,0,0-.021.132c3.472,1.25,5.4,4.348,6.783,7.584-1.066-1.225-2.477-1.863-4.123-.588-.087.068,0,.2.1.179a3.05,3.05,0,0,1,3.4.933,14.651,14.651,0,0,1,1.713,2.651c.172.3.718.114.587-.233-.009-.026-.02-.052-.031-.078C231.825,205.116,228.2,199.151,223.505,198.9Z" fill="#263238"/>
                </g>
              </g>
              <g id="Group_3300" data-name="Group 3300">
                <path id="Path_4251" data-name="Path 4251" d="M253.828,237.682l-6.681,16.39-20.242-20.7-5.763,6.616s19.774,32.86,19.9,31.378l6.759-14.058,9.692,9.811-.736-24.58Z" fill="#455a64"/>
                <path id="Path_4252" data-name="Path 4252" d="M257.818,254.949c-.258-4.054-.4-8.145-.849-12.183-.015-.143-.24-.208-.275-.039-.821,3.913.246,19.412.221,23.128l-.043-.043c-.4-.424-8.984-8.634-9.069-8.5-1.464,2.231-6.424,12.468-6.763,13.4-3.127-5.22-15.115-24.2-18.819-29.134a.141.141,0,0,0-.243.141c2.76,5.511,18.622,31.064,18.867,30.993a158.589,158.589,0,0,0,7.068-14.863c1.451,1.788,10.108,11.05,10.139,10.447A127.462,127.462,0,0,0,257.818,254.949Z" fill="#263238"/>
              </g>
            </g>
            <g id="Group_3305" data-name="Group 3305">
              <g id="Group_3304" data-name="Group 3304">
                <g id="Group_3302" data-name="Group 3302">
                  <path id="Path_4253" data-name="Path 4253" d="M295.768,408.662l-99.911,9.891-.318-77.458L295.45,331.2Z" fill="#f08f21"/>
                  <path id="Path_4254" data-name="Path 4254" d="M228.151,329.3l-32.7,3.237.086,8.56,34.993-3.464Z" fill="#f08f21"/>
                </g>
                <g id="Group_3303" data-name="Group 3303" opacity="0.1">
                  <path id="Path_4255" data-name="Path 4255" d="M295.768,408.662l-99.911,9.891-.318-77.458L295.45,331.2Z" fill="#f08f21"/>
                  <path id="Path_4256" data-name="Path 4256" d="M228.151,329.3l-32.7,3.237.086,8.56,34.993-3.464Z" fill="#f08f21"/>
                </g>
              </g>
              <path id="Path_4257" data-name="Path 4257" d="M295.7,408.669l-96.36,9.539-13.785-77.667,102.71-8.625Z" fill="#ebebeb"/>
              <path id="Path_4258" data-name="Path 4258" d="M295.7,408.669l-98.815,9.782L182.118,343.8l103.867-10.282Z" fill="#fff"/>
              <path id="Path_4259" data-name="Path 4259" d="M295.521,408.687,195.395,418.6l-14.61-73.039,100.126-9.912Z" fill="#f08f21"/>
            </g>
            <g id="Group_3309" data-name="Group 3309">
              <path id="Path_4260" data-name="Path 4260" d="M210.115,250.3c-34.15,30.984-58.792,84.4-58.037,98.788,1,19.013,35.443,51.518,57.87,60.929,5.676,2.382,27.616-44.056,19.315-46.475-8.759-2.552-29.015-20.918-30-21.751-2.106-1.778,14.215-42.409,21.046-67.073C228.021,246.872,224.489,237.261,210.115,250.3Z" fill="#f7a9a0"/>
              <g id="Group_3306" data-name="Group 3306">
                <path id="Path_4261" data-name="Path 4261" d="M197.267,402.915C218.983,418.6,248.518,422,253.615,421.48c4.343-.426,6.578-.688,6.578-.688,7.806-.614,10.61-4.315,10.61-4.315s9.236,1.946,11.339-3.44c2.376-6.034-11.058-7.587-17.924-12.959-15.731-12.309-34.649-34.205-38.833-38.205Z" fill="#f7c4a5"/>
                <path id="Path_4262" data-name="Path 4262" d="M238.667,398.764c4.7,3.531,9.228,7.121,14.384,10,5.656,3.154,11.628,5.241,17.655,7.517a.156.156,0,0,1-.088.3,68.092,68.092,0,0,1-32.273-17.417C238.142,398.959,238.431,398.587,238.667,398.764Z" fill="#263238"/>
                <path id="Path_4263" data-name="Path 4263" d="M229.858,407.179c4.766,3.181,13.177,8.719,30.387,13.429.056.015.048.115-.016.107a61.083,61.083,0,0,1-30.675-13.046C229.273,407.445,229.541,406.968,229.858,407.179Z" fill="#263238"/>
                <path id="Path_4264" data-name="Path 4264" d="M246.2,384.047c-1.414-2.415-.156-3.173,4.472-1.352,4.686,1.831,21.4,12.954,24.791,6.774,3.413-6.2-20.5-21.547-28.441-23.988-7.936-2.461-21.639-3.608-21.639-3.608C229.437,365.8,238.353,376.248,246.2,384.047Z" fill="#f7c4a5"/>
              </g>
              <g id="Group_3308" data-name="Group 3308">
                <path id="Path_4265" data-name="Path 4265" d="M198.053,406.411l27.205-45.675S199.8,342.883,199.675,341.1s17.893-50.995,23.337-75.214,2.745-35.774-21.09-8.771-54.41,72.428-52.788,91.9S198.053,406.411,198.053,406.411Z" fill="#455a64"/>
                <path id="Path_4266" data-name="Path 4266" d="M218.488,289.036c-.989,1.735-2.045,3.429-2.943,5.214q-.437.87-.874,1.743c.223-.7.451-1.4.674-2.1,1.4-4.389,2.749-8.8,3.926-13.254.029-.108-.142-.182-.187-.073-3.146,7.558-5.741,15.353-8.321,23.119q-3.9,11.733-7.365,23.605c-1.3,4.417-2.64,8.852-3.657,13.344-.023.1.116.128.152.037,1.5-3.847,2.77-7.8,4.071-11.713s2.612-7.829,3.887-11.754q3.047-9.386,6.039-18.786a21.045,21.045,0,0,0,2.183-3.767c.923-1.817,1.67-3.713,2.491-5.577A.043.043,0,0,0,218.488,289.036Z" fill="#263238"/>
                <g id="Group_3307" data-name="Group 3307">
                  <path id="Path_4267" data-name="Path 4267" d="M193.222,394.945a2.5,2.5,0,1,0,3.152-1.6A2.5,2.5,0,0,0,193.222,394.945Z" fill="#263238"/>
                  <path id="Path_4268" data-name="Path 4268" d="M183.712,386.146a2.5,2.5,0,1,0,3.152-1.6A2.5,2.5,0,0,0,183.712,386.146Z" fill="#263238"/>
                </g>
                <path id="Path_4269" data-name="Path 4269" d="M166.608,377.137c3.155,2.688,6.112,5.562,9.045,8.458,1.455,1.461,2.908,2.921,4.336,4.408s2.84,2.99,4.251,4.506a87.537,87.537,0,0,1-9.292-8.205A114.122,114.122,0,0,1,166.608,377.137Z" fill="#263238"/>
              </g>
            </g>
          </g>
        </g>
        <g id="Group_3345" data-name="Group 3345">
          <g id="Group_3344" data-name="Group 3344">
            <g id="Group_3312" data-name="Group 3312">
              <path id="Path_4270" data-name="Path 4270" d="M514.948,170.976c2.14-6.875,11.5-22.018,26.61-17.449,21.563,6.519,20.737,49.187,30.427,63.424,17.558,25.8,15.965,49.539-.642,51.786-18.612,2.518-34.483-18.7-29.812-60.916,2.92-26.4-3.428-38.823-8.776-38.534s-8.856,6.683-8.856,6.683Z" fill="#263238"/>
              <path id="Path_4271" data-name="Path 4271" d="M515.933,168.41a42.747,42.747,0,0,1,5.285-8.892,25.294,25.294,0,0,1,7.908-6.874,17.252,17.252,0,0,1,10.439-1.982,22.317,22.317,0,0,1,9.944,3.8,25.084,25.084,0,0,1,7.045,7.934,46.163,46.163,0,0,1,4.06,9.653,92.7,92.7,0,0,1,3.2,20.419,136.7,136.7,0,0,0-4.645-19.959,49.176,49.176,0,0,0-4.193-9.167,23.616,23.616,0,0,0-6.588-7.295,20.778,20.778,0,0,0-9.07-3.564,16.107,16.107,0,0,0-9.507,1.511,25.813,25.813,0,0,0-7.87,6.139,41.774,41.774,0,0,0-3.215,3.965Q517.261,166.2,515.933,168.41Z" fill="#263238"/>
              <path id="Path_4272" data-name="Path 4272" d="M542.782,193.239c-.17,4.217-.808,8.4-1.285,12.577-.539,4.174-1.057,8.345-1.454,12.517-.375,4.174-.668,8.351-.637,12.518a63.423,63.423,0,0,0,1.093,12.37,32.516,32.516,0,0,0,4.319,11.405,35.374,35.374,0,0,0,8.455,8.848,26.341,26.341,0,0,0,11.235,4.81,23.862,23.862,0,0,0,6.2.253,21.4,21.4,0,0,0,3.085-.5,11.069,11.069,0,0,0,2.952-1.048,15.541,15.541,0,0,1-5.973,2.06,24.542,24.542,0,0,1-6.392.179,26.165,26.165,0,0,1-6.259-1.508,28.345,28.345,0,0,1-5.717-3,33.363,33.363,0,0,1-4.969-4.118l-1.118-1.164-1.065-1.209a24.16,24.16,0,0,1-1.976-2.6,33.863,33.863,0,0,1-4.682-12.03c-1.6-8.469-1.112-17.062-.054-25.431.532-4.2,1.256-8.354,2.02-12.5C541.356,201.531,542.176,197.408,542.782,193.239Z" fill="#263238"/>
              <path id="Path_4273" data-name="Path 4273" d="M513.678,170.976c-.056-1.977,1.369-4.521,2.649-4.875s10.765,3.722,11.579,6.155-3.4,4.581-3.4,4.581Z" fill="#455a64"/>
            </g>
            <g id="Group_3319" data-name="Group 3319">
              <path id="Path_4274" data-name="Path 4274" d="M521,258.3c-5.634,12.261-47.557,69.9-68.37,71.469-21.78,1.647-74.026-33.948-79.034-36.911-13.73-8.126,24.553-45.6,31.174-38.948,11.065,11.123,37.509,32.088,43.976,30.671,13.591-2.978,41.906-26.758,61.991-39.132C522.853,237.978,527.232,244.731,521,258.3Z" fill="#f7b48f"/>
              <g id="Group_3316" data-name="Group 3316">
                <g id="Group_3314" data-name="Group 3314">
                  <path id="Path_4275" data-name="Path 4275" d="M376.885,294.764c-2.368-1.573-21.421-12.16-28.57-22.368-3.786-5.406-12.517-21.441-9.517-24.155,2.739-2.478,6.213,1.328,6.213,1.328s-3.789-7.206.059-10.606,9.376,3.325,9.376,3.325-3.351-7.684.73-10.8,8.506,4.576,8.506,4.576-3.391-6.883,1.051-8.036c5.344-1.388,10.163,12.007,15.343,17.159,1.177,1.17,25.537,22.015,25.537,22.015Z" fill="#f7b48f"/>
                  <g id="Group_3313" data-name="Group 3313">
                    <path id="Path_4276" data-name="Path 4276" d="M363.978,236.057c3.567,9.842,6.83,13.531,14.971,19.85.159.124.011.388-.167.274-8.535-5.462-13.3-9.5-15.289-19.976C363.395,235.692,363.808,235.589,363.978,236.057Z" fill="#263238"/>
                    <path id="Path_4277" data-name="Path 4277" d="M354.746,242.242c4.6,9.9,8.1,13.932,16.14,21.177.114.1-.047.306-.171.212-8.481-6.448-13.138-10.584-16.433-21.079C354.133,242.078,354.535,241.789,354.746,242.242Z" fill="#263238"/>
                    <path id="Path_4278" data-name="Path 4278" d="M345.409,249.907c5.143,9.263,8.794,13.85,17.5,19.882a.2.2,0,0,1-.2.333c-9.477-5.287-14.076-10.978-17.564-20.028C344.906,249.476,345.086,249.325,345.409,249.907Z" fill="#263238"/>
                  </g>
                </g>
                <g id="Group_3315" data-name="Group 3315">
                  <path id="Path_4279" data-name="Path 4279" d="M413.861,264.19s-5.406-11.951-8.939-16.678-23.183-17.494-26.181-13.407c-3.872,5.278,6.02,14.883,11.479,18.954,0,0-8.967,12.2-3.36,20.629S413.861,264.19,413.861,264.19Z" fill="#f7b48f"/>
                  <path id="Path_4280" data-name="Path 4280" d="M378.152,235.9c-.059,7.359,7.452,12.241,12.453,16.586a.606.606,0,0,1-.062.994c-3.417,5.364-6.675,13.926-4.089,20.121a.154.154,0,0,1-.273.142c-3.675-6.268-1.16-14.941,2.959-20.577-5.2-4.376-12.516-9.6-11.059-17.271A.036.036,0,0,1,378.152,235.9Z" fill="#263238"/>
                </g>
              </g>
              <g id="Group_3318" data-name="Group 3318">
                <path id="Path_4281" data-name="Path 4281" d="M520.426,261.78c-6.527,13.011-44.585,68.511-65.143,69.394s-63.626-16.668-63.626-16.668l31.908-48.588s22.086,15.938,25.551,16.065,49.85-30.516,60.687-37.249S531.04,240.619,520.426,261.78Z" fill="#f08f21"/>
                <g id="Group_3317" data-name="Group 3317">
                  <path id="Path_4282" data-name="Path 4282" d="M420.786,314.866a17.579,17.579,0,0,1,.113-4.438,17.381,17.381,0,0,1,1.1-4.3,17.389,17.389,0,0,1-.113,4.437A17.623,17.623,0,0,1,420.786,314.866Z" fill="#fff"/>
                  <path id="Path_4283" data-name="Path 4283" d="M484.3,305.136a17.616,17.616,0,0,1,.114-4.437,17.332,17.332,0,0,1,1.1-4.3,17.386,17.386,0,0,1-.113,4.437A17.58,17.58,0,0,1,484.3,305.136Z" fill="#fff"/>
                  <path id="Path_4284" data-name="Path 4284" d="M487.821,268.168a17.579,17.579,0,0,1-4.438-.113,17.381,17.381,0,0,1-4.3-1.1,19.734,19.734,0,0,1,8.737,1.217Z" fill="#fff"/>
                  <path id="Path_4285" data-name="Path 4285" d="M436.633,284.937a19.7,19.7,0,0,1-8.737-1.217,19.729,19.729,0,0,1,8.737,1.217Z" fill="#fff"/>
                  <path id="Path_4286" data-name="Path 4286" d="M444.1,330.08a2.108,2.108,0,0,1-.19.23c-.08-.01-.17-.02-.26-.04C443.8,330.21,443.95,330.14,444.1,330.08Z" fill="#fff"/>
                  <path id="Path_4287" data-name="Path 4287" d="M408.008,297.423a17.574,17.574,0,0,1,3.218-3.058,17.345,17.345,0,0,1,3.82-2.26,17.377,17.377,0,0,1-3.218,3.058A17.613,17.613,0,0,1,408.008,297.423Z" fill="#fff"/>
                  <path id="Path_4288" data-name="Path 4288" d="M461.234,286.379a17.537,17.537,0,0,1,3.218-3.057,17.329,17.329,0,0,1,3.82-2.26,19.725,19.725,0,0,1-7.038,5.317Z" fill="#fff"/>
                  <path id="Path_4289" data-name="Path 4289" d="M443.57,301.617a19.741,19.741,0,0,1,5.318,7.038,17.348,17.348,0,0,1-3.058-3.218A17.534,17.534,0,0,1,443.57,301.617Z" fill="#fff"/>
                  <path id="Path_4290" data-name="Path 4290" d="M494.106,278.827a17.6,17.6,0,0,1,3.057,3.218,17.372,17.372,0,0,1,2.261,3.82,17.378,17.378,0,0,1-3.058-3.218A17.559,17.559,0,0,1,494.106,278.827Z" fill="#fff"/>
                </g>
                <path id="Path_4291" data-name="Path 4291" d="M430.466,273.813c-4.019,7.264-7.889,14.6-12.226,21.685A234.326,234.326,0,0,1,404.563,316a.139.139,0,0,1-.232-.147c3.842-7.25,8.227-14.245,12.5-21.25,4.3-7.06,8.894-13.936,13.186-21C430.178,273.335,430.624,273.529,430.466,273.813Z" fill="#263238"/>
                <path id="Path_4292" data-name="Path 4292" d="M520.43,261.784c-6.53,13.011-44.59,68.511-65.15,69.39-4.99.21-11.31-.66-18.01-2.11,15.98-17.09,60.67-65.29,81.36-87.6C524.91,241.084,527.96,246.764,520.43,261.784Z" fill="#263238"/>
              </g>
            </g>
            <g id="Group_3321" data-name="Group 3321">
              <path id="Path_4293" data-name="Path 4293" d="M482.5,390.624H603.173s-46.922-118.791-71.909-142.69c-6.794-6.5-23.57-6.017-31.793,4.942-6.74,8.983-25.447,44.747-26.3,57.61-.816,12.893,9.24,25.563,9.24,25.563Z" fill="#f08f21"/>
              <g id="Group_3320" data-name="Group 3320">
                <path id="Path_4294" data-name="Path 4294" d="M497.919,346.113a19.7,19.7,0,0,1,1.217-8.737,17.348,17.348,0,0,1-.114,4.438A17.559,17.559,0,0,1,497.919,346.113Z" fill="#fff"/>
                <path id="Path_4295" data-name="Path 4295" d="M580.841,368.475a17.571,17.571,0,0,1,.113-4.437,17.377,17.377,0,0,1,1.1-4.3,17.383,17.383,0,0,1-.113,4.437A17.621,17.621,0,0,1,580.841,368.475Z" fill="#fff"/>
                <path id="Path_4296" data-name="Path 4296" d="M528.779,388.014a17.623,17.623,0,0,1,.114-4.438,17.4,17.4,0,0,1,1.1-4.3,17.394,17.394,0,0,1-.113,4.438A17.579,17.579,0,0,1,528.779,388.014Z" fill="#fff"/>
                <path id="Path_4297" data-name="Path 4297" d="M516.784,298.344a17.572,17.572,0,0,1,.113-4.437,17.38,17.38,0,0,1,1.1-4.3,17.4,17.4,0,0,1-.113,4.438A17.628,17.628,0,0,1,516.784,298.344Z" fill="#fff"/>
                <path id="Path_4298" data-name="Path 4298" d="M548.854,334.445a17.574,17.574,0,0,1,.113-4.437,17.383,17.383,0,0,1,1.1-4.3,19.728,19.728,0,0,1-1.217,8.736Z" fill="#fff"/>
                <path id="Path_4299" data-name="Path 4299" d="M484.3,305.136a17.616,17.616,0,0,1,.114-4.437,17.332,17.332,0,0,1,1.1-4.3,17.386,17.386,0,0,1-.113,4.437A17.58,17.58,0,0,1,484.3,305.136Z" fill="#fff"/>
                <path id="Path_4300" data-name="Path 4300" d="M526.741,340.642a17.579,17.579,0,0,1-4.438-.113,17.4,17.4,0,0,1-4.3-1.1,17.394,17.394,0,0,1,4.438.113A17.578,17.578,0,0,1,526.741,340.642Z" fill="#fff"/>
                <path id="Path_4301" data-name="Path 4301" d="M563.136,306.129a17.618,17.618,0,0,1-4.437-.114,17.4,17.4,0,0,1-4.3-1.1,17.4,17.4,0,0,1,4.438.113A17.584,17.584,0,0,1,563.136,306.129Z" fill="#fff"/>
                <path id="Path_4302" data-name="Path 4302" d="M498.194,381.227a17.624,17.624,0,0,1-4.438-.114,17.338,17.338,0,0,1-4.3-1.1,17.386,17.386,0,0,1,4.437.113A17.58,17.58,0,0,1,498.194,381.227Z" fill="#fff"/>
                <path id="Path_4303" data-name="Path 4303" d="M565.9,351.335a17.568,17.568,0,0,1-4.437-.113,17.38,17.38,0,0,1-4.3-1.1,17.385,17.385,0,0,1,4.437.114A17.577,17.577,0,0,1,565.9,351.335Z" fill="#fff"/>
                <path id="Path_4304" data-name="Path 4304" d="M508.771,367.733a17.608,17.608,0,0,1,3.218-3.058,17.375,17.375,0,0,1,3.821-2.26,17.378,17.378,0,0,1-3.218,3.058A17.619,17.619,0,0,1,508.771,367.733Z" fill="#fff"/>
                <path id="Path_4305" data-name="Path 4305" d="M554.4,376.452a17.607,17.607,0,0,1,3.218-3.058,17.376,17.376,0,0,1,3.821-2.26,17.443,17.443,0,0,1-3.218,3.058A17.619,17.619,0,0,1,554.4,376.452Z" fill="#fff"/>
                <path id="Path_4306" data-name="Path 4306" d="M566.484,333.764a17.6,17.6,0,0,1,3.217-3.058,17.375,17.375,0,0,1,3.821-2.26A17.4,17.4,0,0,1,570.3,331.5,17.6,17.6,0,0,1,566.484,333.764Z" fill="#fff"/>
                <path id="Path_4307" data-name="Path 4307" d="M494.434,318.42a17.569,17.569,0,0,1,3.217-3.058,17.376,17.376,0,0,1,3.821-2.26,17.406,17.406,0,0,1-3.218,3.057A17.6,17.6,0,0,1,494.434,318.42Z" fill="#fff"/>
                <path id="Path_4308" data-name="Path 4308" d="M541.093,289.038a17.568,17.568,0,0,1,3.218-3.057,17.356,17.356,0,0,1,3.821-2.261,17.379,17.379,0,0,1-3.218,3.058A17.564,17.564,0,0,1,541.093,289.038Z" fill="#fff"/>
                <path id="Path_4309" data-name="Path 4309" d="M485.61,353.56a17.4,17.4,0,0,1-3.17,3.02v-1.22A15.654,15.654,0,0,1,485.61,353.56Z" fill="#fff"/>
                <path id="Path_4310" data-name="Path 4310" d="M517.324,270.219a17.609,17.609,0,0,1,3.218-3.058,17.376,17.376,0,0,1,3.821-2.26,17.4,17.4,0,0,1-3.218,3.057A17.585,17.585,0,0,1,517.324,270.219Z" fill="#fff"/>
                <path id="Path_4311" data-name="Path 4311" d="M477.53,324.514a17.582,17.582,0,0,1,3.058,3.219,17.344,17.344,0,0,1,2.26,3.82,17.407,17.407,0,0,1-3.057-3.218A17.584,17.584,0,0,1,477.53,324.514Z" fill="#fff"/>
                <path id="Path_4312" data-name="Path 4312" d="M494.106,278.827a17.6,17.6,0,0,1,3.057,3.218,17.372,17.372,0,0,1,2.261,3.82,17.378,17.378,0,0,1-3.058-3.218A17.559,17.559,0,0,1,494.106,278.827Z" fill="#fff"/>
                <path id="Path_4313" data-name="Path 4313" d="M535.955,352.7a17.6,17.6,0,0,1,3.058,3.217,17.376,17.376,0,0,1,2.26,3.821,17.377,17.377,0,0,1-3.058-3.218A17.635,17.635,0,0,1,535.955,352.7Z" fill="#fff"/>
                <path id="Path_4314" data-name="Path 4314" d="M579.4,381.714a17.606,17.606,0,0,1,3.058,3.218,17.376,17.376,0,0,1,2.26,3.821,19.733,19.733,0,0,1-5.318-7.039Z" fill="#fff"/>
                <path id="Path_4315" data-name="Path 4315" d="M535.147,257.255a17.607,17.607,0,0,1,3.058,3.218,17.416,17.416,0,0,1,2.26,3.821,17.38,17.38,0,0,1-3.058-3.218A17.582,17.582,0,0,1,535.147,257.255Z" fill="#fff"/>
                <path id="Path_4316" data-name="Path 4316" d="M527.363,313.558a19.742,19.742,0,0,1,5.318,7.038,19.711,19.711,0,0,1-5.318-7.038Z" fill="#fff"/>
              </g>
            </g>
            <g id="Group_3334" data-name="Group 3334">
              <g id="Group_3322" data-name="Group 3322">
                <path id="Path_4317" data-name="Path 4317" d="M523.244,249.085c-.669,1.782-10.987,12.57-19.334,11.086-2.718-.488-.716-15.441-.716-15.441l-.105-1.138-1.452-15.925,19.693-9.3,2.828-1.2s.11,4.383.192,9.842c.005.254.01.507.012.778.013.308.028.6.027.888.023.816.042,1.648.045,2.478,0,.632.012,1.246-.008,1.909,0,.666-.019,1.312-.022,1.979A102.98,102.98,0,0,1,523.244,249.085Z" fill="#f7b48f"/>
                <path id="Path_4318" data-name="Path 4318" d="M524.35,227a32.075,32.075,0,0,1-21.261,16.59l-1.452-15.925,19.693-9.3,2.828-1.2S524.268,221.543,524.35,227Z" fill="#263238"/>
              </g>
              <g id="Group_3333" data-name="Group 3333">
                <path id="Path_4319" data-name="Path 4319" d="M481.384,204.211c-2.226,27.976,14.28,32.469,20.313,32.942,5.477.429,24.18,1.2,29.285-26.4s-7.2-37.476-19.673-39.122S483.61,176.233,481.384,204.211Z" fill="#f7b48f"/>
                <g id="Group_3329" data-name="Group 3329">
                  <path id="Path_4320" data-name="Path 4320" d="M486.1,198.264a18.275,18.275,0,0,0,1.9-.382,3.123,3.123,0,0,0,1.863-.759,1,1,0,0,0,.011-1.219,2.475,2.475,0,0,0-2.436-.6,3.642,3.642,0,0,0-2.295,1.264A1.065,1.065,0,0,0,486.1,198.264Z" fill="#263238"/>
                  <path id="Path_4321" data-name="Path 4321" d="M504.723,198.663a18.461,18.461,0,0,1-1.893-.418,3.137,3.137,0,0,1-1.849-.794,1,1,0,0,1,.013-1.219,2.479,2.479,0,0,1,2.446-.556,3.642,3.642,0,0,1,2.271,1.308A1.065,1.065,0,0,1,504.723,198.663Z" fill="#263238"/>
                  <g id="Group_3324" data-name="Group 3324">
                    <g id="Group_3323" data-name="Group 3323">
                      <path id="Path_4322" data-name="Path 4322" d="M500.34,205.716c.017-.072.147.1.142.174-.124,1.907.056,4.113,1.764,4.8.052.022.044.117-.02.106C500.127,210.434,499.918,207.5,500.34,205.716Z" fill="#263238"/>
                      <path id="Path_4323" data-name="Path 4323" d="M502.111,203.778c3.08-.133,3.118,6.036.265,6.158C499.568,210.057,499.53,203.888,502.111,203.778Z" fill="#263238"/>
                    </g>
                    <path id="Path_4324" data-name="Path 4324" d="M503.325,204.1c.54.345,1.072.959,1.722,1.018.752.07,1.316-.579,1.8-1.2.05-.065.1-.012.106.07.025,1.182-.422,2.4-1.688,2.581-1.155.168-1.992-.873-2.294-2.06C502.918,204.283,503.107,203.957,503.325,204.1Z" fill="#263238"/>
                  </g>
                  <g id="Group_3326" data-name="Group 3326">
                    <g id="Group_3325" data-name="Group 3325">
                      <path id="Path_4325" data-name="Path 4325" d="M489.735,205.294c-.016-.072-.148.093-.145.171.087,1.91-.134,4.112-1.854,4.771-.053.02-.046.116.017.106C489.859,210.016,490.124,207.09,489.735,205.294Z" fill="#263238"/>
                      <path id="Path_4326" data-name="Path 4326" d="M488,203.323c-3.077-.191-3.232,5.976-.382,6.153C490.424,209.649,490.579,203.482,488,203.323Z" fill="#263238"/>
                    </g>
                    <path id="Path_4327" data-name="Path 4327" d="M486.7,203.7c-.495.315-.992.9-1.575.92-.676.028-1.158-.652-1.573-1.3-.043-.067-.093-.017-.1.064-.062,1.178.3,2.416,1.424,2.67,1.027.233,1.811-.76,2.121-1.927C487.062,203.9,486.9,203.569,486.7,203.7Z" fill="#263238"/>
                  </g>
                  <path id="Path_4328" data-name="Path 4328" d="M500.48,220.836c-.434.471-.858,1.109-1.548,1.2a5.043,5.043,0,0,1-2.076-.374.067.067,0,0,0-.077.1,2.574,2.574,0,0,0,2.475.912,2.037,2.037,0,0,0,1.414-1.766C500.692,220.8,500.543,220.768,500.48,220.836Z" fill="#263238"/>
                  <g id="Group_3327" data-name="Group 3327">
                    <path id="Path_4329" data-name="Path 4329" d="M492.529,213.885s-.41,2.852-.418,4.2c0,.126.325.187.782.217.022.007.034.016.053,0a6.4,6.4,0,0,0,6.229-2.356c.093-.131-.077-.271-.2-.188a9.636,9.636,0,0,1-5.853,1.642c-.093-.373.866-4.86.652-4.878a11.732,11.732,0,0,0-3.061.676c.682-5.965,2.315-11.773,2.906-17.723a.184.184,0,0,0-.351-.089c-2.143,5.966-3.078,12.813-3.941,18.956C489.212,215.106,491.989,214.111,492.529,213.885Z" fill="#263238"/>
                  </g>
                  <g id="Group_3328" data-name="Group 3328">
                    <path id="Path_4330" data-name="Path 4330" d="M493.18,218.021a7.834,7.834,0,0,0,3.105,2.468,3.529,3.529,0,0,0,2.138.159c1.553-.388,1.609-1.808,1.34-3.027a8.434,8.434,0,0,0-.671-1.869A10.146,10.146,0,0,1,493.18,218.021Z" fill="#263238"/>
                    <path id="Path_4331" data-name="Path 4331" d="M496.285,220.489a3.529,3.529,0,0,0,2.138.159c1.553-.388,1.609-1.808,1.34-3.027C498.1,217.771,496.446,218.877,496.285,220.489Z" fill="#eb9481"/>
                  </g>
                </g>
                <g id="Group_3330" data-name="Group 3330">
                  <path id="Path_4332" data-name="Path 4332" d="M529.736,213.54a11.507,11.507,0,0,1-6.4-9.4,30.037,30.037,0,0,1-12.193-9.906c.186.576,1.517,4.737,2.263,6.836-17.7-3.39-23.118-16.97-23.118-16.97-5.77,5.707-6.934,9.369-7.773,11.195,0,0-.08-10.868,5.54-18.119,6.878-8.878,29.98-11.179,40.615.49C540.12,190.253,529.736,213.54,529.736,213.54Z" fill="#263238"/>
                  <path id="Path_4333" data-name="Path 4333" d="M499.957,198.076a32.648,32.648,0,0,0,9.071,3.378c.026.006.032-.033.008-.04a27.769,27.769,0,0,1-12.967-7.92,26.326,26.326,0,0,1-3.8-5.36,18.213,18.213,0,0,1-2.323-6.764.138.138,0,0,0-.274.022,21.31,21.31,0,0,0,1.374,6.987,19.477,19.477,0,0,0,3.908,5.882,22.372,22.372,0,0,0,5,3.815" fill="#263238"/>
                </g>
                <g id="Group_3332" data-name="Group 3332">
                  <g id="Group_3331" data-name="Group 3331">
                    <path id="Path_4334" data-name="Path 4334" d="M526.365,212.547s6.062-8.8,10.053-6.647-.524,14.887-5.178,16.657a4.747,4.747,0,0,1-6.378-2.506Z" fill="#f7b48f"/>
                    <path id="Path_4335" data-name="Path 4335" d="M535.033,209.517c.075-.008.09.1.026.124-3.263,1.349-4.963,4.4-6.148,7.55.965-1.218,2.285-1.891,3.916-.744.085.06,0,.194-.088.175a2.919,2.919,0,0,0-3.205,1.042,14.086,14.086,0,0,0-1.52,2.61c-.151.294-.681.14-.572-.2.008-.025.019-.051.027-.076C527.356,215.83,530.557,209.969,535.033,209.517Z" fill="#263238"/>
                  </g>
                  <path id="Path_4336" data-name="Path 4336" d="M527.342,221.921a2.046,2.046,0,1,0,2.046-2.046A2.046,2.046,0,0,0,527.342,221.921Z" fill="#fff"/>
                </g>
              </g>
            </g>
            <path id="Path_4337" data-name="Path 4337" d="M494.093,254.793s-5.728,16.255,4.625,17.408S536.1,253.365,536.1,253.365s-7.506-12.148-19.487-10.85C506.673,243.592,494.093,254.793,494.093,254.793Z" fill="#f7b48f"/>
            <g id="Group_3341" data-name="Group 3341">
              <g id="Group_3338" data-name="Group 3338">
                <path id="Path_4338" data-name="Path 4338" d="M542.973,273.828c-.019,20.084-11.539,80.291-22.62,88.4-22.173,16.229-74.164,15.112-88.5,15.36-6.189.107-14.319-41.1-9.707-45.851s67.954-6.494,71.2-8.925c2.254-1.69,20.132-31,30.484-49.842C537.814,247.5,542.983,263.714,542.973,273.828Z" fill="#ad6359"/>
                <g id="Group_3337" data-name="Group 3337">
                  <g id="Group_3335" data-name="Group 3335">
                    <path id="Path_4339" data-name="Path 4339" d="M433.175,329.544s-18.715-2.07-31.017-2.848c-6.864-.434-18.7-.129-23.885,1.858-7.76,2.973-38.318,20.362-34.261,27.861,3.672,6.79,13.008-.72,13.008-.72s-10.974,7.25-5.262,12.864c5.763,5.665,16.971-5.3,16.971-5.3s-12.184,6.888-5.516,12.3c5.789,4.7,20.068-6.528,20.068-6.528s-13.584,5.827-8.125,11.221c6.033,5.959,29.557-8.183,29.557-8.183,15.31,5.1,25.191,6.1,36.9,5.355C443.765,377.285,433.175,329.544,433.175,329.544Z" fill="#f7b48f"/>
                  </g>
                  <g id="Group_3336" data-name="Group 3336">
                    <path id="Path_4340" data-name="Path 4340" d="M365.319,365.734c.917-.824,1.855-1.624,2.774-2.445a60.4,60.4,0,0,1,5.56-4.561c1.916-1.344,3.885-2.6,5.9-3.792,2.124-1.264,4.39-2.317,6.479-3.632a.138.138,0,1,1,.14.237,63.964,63.964,0,0,0-6.007,4.183c-1.935,1.407-3.853,2.841-5.768,4.275-1.874,1.4-3.827,2.667-5.738,4.014-.952.672-1.876,1.386-2.8,2.1a19.489,19.489,0,0,1-2.674,1.98c-.1.051-.18-.08-.123-.158A15.154,15.154,0,0,1,365.319,365.734Z" fill="#263238"/>
                    <path id="Path_4341" data-name="Path 4341" d="M354.764,357.249c1.271-1.65,8.256-7.347,10.128-8.7a67.1,67.1,0,0,1,11.551-6.746.139.139,0,0,1,.139.236c-3.61,2.634-7.265,5.219-10.914,7.805-1.784,1.264-9.709,7.25-10.617,7.773C354.833,357.745,354.627,357.428,354.764,357.249Z" fill="#263238"/>
                    <path id="Path_4342" data-name="Path 4342" d="M375.028,373.967a94.685,94.685,0,0,1,9.672-8.005,86.131,86.131,0,0,1,11.508-5.706c.148-.047.274.156.139.237-3.675,2.186-7.376,4.3-10.945,6.661-1.739,1.15-8.4,6.134-10.161,7.088C375.083,374.328,374.915,374.1,375.028,373.967Z" fill="#263238"/>
                  </g>
                </g>
              </g>
              <g id="Group_3340" data-name="Group 3340">
                <path id="Path_4343" data-name="Path 4343" d="M445.786,380.618l-17.1-54.34s62.23-3.978,64.247-5.02,24.2-40.228,32.971-55.463,22.36-8.963,17.292,25.423c-5.1,34.6-10.694,61.476-18.446,69.472C515.344,370.39,480.941,380.386,445.786,380.618Z" fill="#f08f21"/>
                <g id="Group_3339" data-name="Group 3339">
                  <path id="Path_4344" data-name="Path 4344" d="M497.919,346.113a19.7,19.7,0,0,1,1.217-8.737,17.348,17.348,0,0,1-.114,4.438A17.559,17.559,0,0,1,497.919,346.113Z" fill="#fff"/>
                  <path id="Path_4345" data-name="Path 4345" d="M463.536,377.212a17.625,17.625,0,0,1,.114-4.438,17.381,17.381,0,0,1,1.1-4.3,17.386,17.386,0,0,1-.113,4.437A17.58,17.58,0,0,1,463.536,377.212Z" fill="#fff"/>
                  <path id="Path_4346" data-name="Path 4346" d="M516.784,298.344a17.572,17.572,0,0,1,.113-4.437,17.38,17.38,0,0,1,1.1-4.3,17.4,17.4,0,0,1-.113,4.438A17.628,17.628,0,0,1,516.784,298.344Z" fill="#fff"/>
                  <path id="Path_4347" data-name="Path 4347" d="M526.741,340.642a17.579,17.579,0,0,1-4.438-.113,17.4,17.4,0,0,1-4.3-1.1,17.394,17.394,0,0,1,4.438.113A17.578,17.578,0,0,1,526.741,340.642Z" fill="#fff"/>
                  <path id="Path_4348" data-name="Path 4348" d="M467,342.353a19.714,19.714,0,0,1-8.737-1.216,17.4,17.4,0,0,1,4.438.113A17.582,17.582,0,0,1,467,342.353Z" fill="#fff"/>
                  <path id="Path_4349" data-name="Path 4349" d="M508.771,367.733a17.608,17.608,0,0,1,3.218-3.058,17.375,17.375,0,0,1,3.821-2.26,17.378,17.378,0,0,1-3.218,3.058A17.619,17.619,0,0,1,508.771,367.733Z" fill="#fff"/>
                  <path id="Path_4350" data-name="Path 4350" d="M437.063,335.395a17.6,17.6,0,0,1,3.217-3.058,17.415,17.415,0,0,1,3.821-2.26,17.379,17.379,0,0,1-3.218,3.058A17.637,17.637,0,0,1,437.063,335.395Z" fill="#fff"/>
                  <path id="Path_4351" data-name="Path 4351" d="M501.47,313.1a17.253,17.253,0,0,1-3.22,3.06,20.36,20.36,0,0,1-2.88,1.83c.31-.48.65-1.01,1-1.58a.01.01,0,0,1,.01-.01c.41-.36.84-.71,1.27-1.04A17.566,17.566,0,0,1,501.47,313.1Z" fill="#fff"/>
                  <path id="Path_4352" data-name="Path 4352" d="M543.79,286.39c-.03.42-.08.84-.13,1.27a14.38,14.38,0,0,1-2.57,1.38A16.9,16.9,0,0,1,543.79,286.39Z" fill="#fff"/>
                  <path id="Path_4353" data-name="Path 4353" d="M478.573,358.878a17.575,17.575,0,0,1,3.218-3.058,17.369,17.369,0,0,1,3.82-2.26,17.374,17.374,0,0,1-3.218,3.057A17.577,17.577,0,0,1,478.573,358.878Z" fill="#fff"/>
                  <path id="Path_4354" data-name="Path 4354" d="M477.53,324.514a17.582,17.582,0,0,1,3.058,3.219,17.344,17.344,0,0,1,2.26,3.82,17.407,17.407,0,0,1-3.057-3.218A17.584,17.584,0,0,1,477.53,324.514Z" fill="#fff"/>
                  <path id="Path_4355" data-name="Path 4355" d="M540.46,264.29a17.457,17.457,0,0,1-3.05-3.21,18.419,18.419,0,0,1-1.94-3.11,4.936,4.936,0,0,1,.55.03,20.386,20.386,0,0,1,2.18,2.47A17.405,17.405,0,0,1,540.46,264.29Z" fill="#fff"/>
                  <path id="Path_4356" data-name="Path 4356" d="M527.363,313.558a19.742,19.742,0,0,1,5.318,7.038,19.711,19.711,0,0,1-5.318-7.038Z" fill="#fff"/>
                </g>
                <path id="Path_4357" data-name="Path 4357" d="M512.407,288.784c-2.027,3.038-3.9,6.172-5.779,9.3l-.157.262c.093-.237.188-.474.282-.711.61-1.555,1.148-3.145,1.81-4.678.04-.091-.1-.167-.136-.075-.674,1.51-1.425,2.979-2.066,4.505-.432,1.026-.824,2.068-1.187,3.121-1.392,2.32-2.784,4.641-4.151,6.976-1.843,3.147-3.672,6.3-5.527,9.444-.454.768-.9,1.541-1.362,2.3a3.036,3.036,0,0,1-1.614,1.494,12.906,12.906,0,0,1-2.551.338c-.911.1-1.819.206-2.728.317-4.142.5-8.254,1.186-12.389,1.727-.1.013-.1.164,0,.156,3.8-.284,7.616-.429,11.42-.738,1.872-.153,3.755-.283,5.619-.522a3.744,3.744,0,0,0,1.956-.7,5.631,5.631,0,0,0,1.25-1.647q5.652-9.783,11.3-19.57c2.127-3.7,4.288-7.382,6.249-11.174A.137.137,0,0,0,512.407,288.784Z" fill="#263238"/>
                <path id="Path_4358" data-name="Path 4358" d="M543.306,303.287a21.107,21.107,0,0,1-.889,3.674c-.295,1.071-.585,2.142-.911,3.2-.371,1.2-.783,2.391-1.2,3.577q1.26-7.939,2-15.958c.014-.161-.264-.193-.285-.032-1,7.465-2.378,14.9-3.942,22.271s-3.475,14.711-5.623,21.942c-1.056,3.558-2.174,7.11-3.422,10.606a29,29,0,0,1-4.359,8.531,21.962,21.962,0,0,1-8.292,5.869,95.227,95.227,0,0,1-10.181,3.991c-7.874,2.577-16.016,4.215-24.06,6.154-.084.02-.063.166.025.152a181.313,181.313,0,0,0,21.936-4.439,90.962,90.962,0,0,0,10.757-3.594c3.211-1.341,6.52-2.8,9.112-5.176a22.865,22.865,0,0,0,5.359-8.275c1.35-3.273,2.41-6.674,3.46-10.053,2.294-7.379,4.22-14.824,5.786-22.39q.681-3.291,1.248-6.593a42.286,42.286,0,0,0,2.179-6.458c.3-1.148.6-2.3.822-3.47s.306-2.386.631-3.515C543.49,303.2,543.316,303.169,543.306,303.287Z" fill="#263238"/>
                <path id="Path_4359" data-name="Path 4359" d="M456.615,376.236c-2.823-7.807-5.8-15.552-8.276-23.479a234.623,234.623,0,0,1-6.433-23.793.139.139,0,0,1,.264-.078c2.928,7.665,5.308,15.57,7.77,23.4,2.481,7.887,4.636,15.868,7.13,23.751C457.164,376.334,456.725,376.541,456.615,376.236Z" fill="#263238"/>
                <path id="Path_4360" data-name="Path 4360" d="M446.125,325.007a44.444,44.444,0,0,0-4.47.014c-1.489.037-2.978.1-4.466.161-2.977.127-5.951.349-8.92.6a.378.378,0,0,0-.35.483,12.782,12.782,0,0,0,1.523,3.108c.043.056.15.042.144-.043a10.473,10.473,0,0,0-.778-2.833c2.841-.187,5.684-.361,8.524-.578,1.486-.114,2.975-.21,4.461-.326,1.448-.113,2.93-.159,4.364-.39C446.279,325.187,446.23,325.015,446.125,325.007Z" fill="#263238"/>
              </g>
            </g>
            <g id="Group_3343" data-name="Group 3343">
              <path id="Path_4361" data-name="Path 4361" d="M378.957,313.362c3.709,1.84,20.659,2.54,25.606,8.616,3.289,4.04,2.964,8.129,4.881,20.2,1.663,10.475-7.025,7.981-9.516,2.621-3.918-8.431-7.29-17.674-7.29-17.674a66.48,66.48,0,0,0-8.676.132Z" fill="#f7c4a5"/>
              <g id="Group_3342" data-name="Group 3342">
                <path id="Path_4362" data-name="Path 4362" d="M391.18,352.99c5.867-3.721,24.644,19.973,15.262,26.252S384.534,357.2,391.18,352.99Z" fill="#f7c4a5"/>
                <path id="Path_4363" data-name="Path 4363" d="M381.666,358.037c5.867-3.72,24.644,19.973,15.262,26.252S375.021,362.252,381.666,358.037Z" fill="#f7c4a5"/>
                <path id="Path_4364" data-name="Path 4364" d="M374.933,358.968c5.851-2.565,19.615,21.585,10.214,25.984S368.306,361.872,374.933,358.968Z" fill="#f7c4a5"/>
                <path id="Path_4365" data-name="Path 4365" d="M368.041,358.3c6.154-.732,12.127,25.566,2.16,27S361.07,359.131,368.041,358.3Z" fill="#f7c4a5"/>
                <path id="Path_4366" data-name="Path 4366" d="M389.84,361.191A29.1,29.1,0,0,1,392.758,365c.974,1.408,1.934,2.836,2.768,4.333a41.068,41.068,0,0,1,2.2,4.42c.658,1.616,1.126,3.329,1.831,4.919a.138.138,0,1,1-.254.1,35.627,35.627,0,0,0-2.388-4.484c-.824-1.448-1.578-2.938-2.387-4.395-.788-1.42-1.539-2.86-2.35-4.267-.831-1.441-1.78-2.818-2.527-4.3A.118.118,0,0,1,389.84,361.191Z" fill="#263238"/>
                <path id="Path_4367" data-name="Path 4367" d="M380.066,361.058c.609,1.782,2.62,8.58,3.3,10.339s1.427,3.528,2.2,5.264c.782,1.763,1.47,3.631,2.408,5.317a.138.138,0,0,1-.241.136c-.945-1.7-2.037-3.287-2.9-5.037-.853-1.727-1.612-3.487-2.3-5.287a90.918,90.918,0,0,1-2.754-10.7C379.758,360.923,380.016,360.912,380.066,361.058Z" fill="#263238"/>
                <path id="Path_4368" data-name="Path 4368" d="M372.7,362.753c.468,2.539.777,5.106,1.256,7.646.236,1.253.48,2.5.71,3.758.111.607.21,1.216.319,1.823a10.862,10.862,0,0,0,.392,2.077c.068.168-.245.252-.272.036a15.144,15.144,0,0,0-.712-2.229c-.177-.589-.347-1.179-.5-1.776-.311-1.239-.555-2.483-.756-3.744a50.108,50.108,0,0,1-.78-7.546C372.361,362.607,372.665,362.557,372.7,362.753Z" fill="#263238"/>
              </g>
            </g>
          </g>
        </g>
      </g>
      <g id="Speech_Bubble" data-name="Speech Bubble">
        <g id="Group_3347" data-name="Group 3347">
          <path id="Path_4369" data-name="Path 4369" d="M464.2,194.586a22.516,22.516,0,0,0,3.851-12.437c0-15.756-17.3-28.532-38.633-28.532s-38.617,12.776-38.617,28.532,17.287,28.531,38.617,28.531c10.343,0,19.719-3,26.646-7.894l13.308,3.383Z" fill="#f08f21"/>
          <g id="Group_3346" data-name="Group 3346">
            <path id="Path_4370" data-name="Path 4370" d="M415.532,182.147a4.006,4.006,0,1,1-4.005-4.005A4.006,4.006,0,0,1,415.532,182.147Z" fill="#263238"/>
            <circle id="Ellipse_1562" data-name="Ellipse 1562" cx="4.005" cy="4.005" r="4.005" transform="translate(425.422 178.142)" fill="#263238"/>
            <path id="Path_4371" data-name="Path 4371" d="M451.333,182.147a4.006,4.006,0,1,1-4.005-4.005A4.006,4.006,0,0,1,451.333,182.147Z" fill="#263238"/>
          </g>
        </g>
      </g>
      <g id="Light_Bulb" data-name="Light Bulb">
        <g id="Group_3352" data-name="Group 3352">
          <g id="Group_3350" data-name="Group 3350">
            <path id="Path_4372" data-name="Path 4372" d="M324.767,109.006c-2.227,18.655-14.222,22.057-16.241,27.028a86.723,86.723,0,0,0-2.517,9.537l-19.5-.046a83.822,83.822,0,0,0-2.472-9.548c-1.984-4.982-13.975-8.44-16.1-27.105-1.406-12.264,7.857-31.6,28.488-31.552S326.218,96.748,324.767,109.006Z" fill="#f08f21"/>
            <g id="Group_3348" data-name="Group 3348">
              <rect id="Rectangle_2098" data-name="Rectangle 2098" width="1" height="31.547" transform="matrix(0.983, -0.181, 0.181, 0.983, 285.267, 115.874)" fill="#fff"/>
              <rect id="Rectangle_2099" data-name="Rectangle 2099" width="31.547" height="1" transform="translate(300.566 146.74) rotate(-79.307)" fill="#fff"/>
              <path id="Path_4373" data-name="Path 4373" d="M296.319,126.122h-.007c-1.528,0-3.068-1.221-4.335-3.429-.058-.1-.115-.2-.17-.305a2.351,2.351,0,0,1-1.672.913h0c-2.924-.007-4.079-6.03-4.127-6.286l.492-.092c.011.058,1.124,5.872,3.636,5.878h0a2.038,2.038,0,0,0,1.426-.894c-1.235-2.536-1.917-5.857-1.042-7.365a1.494,1.494,0,0,1,1.349-.789h0a1.766,1.766,0,0,1,1.606.919c.876,1.526.227,4.685-.93,6.678a7.054,7.054,0,0,1-.4.616c.084.162.171.322.261.478.68,1.185,2.092,3.174,3.9,3.178h.006c1.207,0,2.423-.95,3.425-2.675.083-.142.163-.288.24-.436a5.688,5.688,0,0,1-.686-.961c-1.2-2.1-1.446-5.206-.528-6.788a1.785,1.785,0,0,1,1.577-.989h0a1.382,1.382,0,0,1,1.23.761c.861,1.5.378,5.071-.989,7.881a2.819,2.819,0,0,0,1.953.816h0c1.783,0,3.368-4.255,3.828-5.9l.481.135c-.071.256-1.783,6.26-4.309,6.261h0a3.267,3.267,0,0,1-2.189-.853c-.058.108-.118.215-.179.32C299.4,124.532,298.1,126.122,296.319,126.122Zm4.028-11.849a1.3,1.3,0,0,0-1.144.74c-.826,1.422-.578,4.36.529,6.288a5.3,5.3,0,0,0,.494.721c1.222-2.621,1.681-5.916.921-7.24a.885.885,0,0,0-.8-.509Zm-8.479-.02a.991.991,0,0,0-.916.54c-.694,1.195-.245,4.119.944,6.661.075-.112.148-.231.221-.355,1.064-1.834,1.707-4.822.928-6.178a1.258,1.258,0,0,0-1.173-.668Z" fill="#fff"/>
            </g>
            <g id="Group_3349" data-name="Group 3349">
              <rect id="Rectangle_2100" data-name="Rectangle 2100" width="24.054" height="4.701" transform="translate(284.241 144.684) rotate(0.135)" fill="#455a64"/>
              <rect id="Rectangle_2101" data-name="Rectangle 2101" width="24.054" height="4.701" transform="translate(284.228 150.146) rotate(0.135)" fill="#455a64"/>
              <rect id="Rectangle_2102" data-name="Rectangle 2102" width="24.054" height="4.701" transform="translate(284.215 155.607) rotate(0.135)" fill="#455a64"/>
            </g>
          </g>
          <g id="Group_3351" data-name="Group 3351">
            <path id="Path_4374" data-name="Path 4374" d="M297.316,62.013a13.715,13.715,0,0,1,.44,3.893,13.577,13.577,0,0,1-.56,3.879,13.583,13.583,0,0,1-.439-3.894A13.752,13.752,0,0,1,297.316,62.013Z" fill="#263238"/>
            <path id="Path_4375" data-name="Path 4375" d="M275.513,67.342a15.351,15.351,0,0,1,3.782,6.79,13.564,13.564,0,0,1-2.327-3.152A13.739,13.739,0,0,1,275.513,67.342Z" fill="#263238"/>
            <path id="Path_4376" data-name="Path 4376" d="M259.3,82.858a13.687,13.687,0,0,1,3.592,1.566,13.549,13.549,0,0,1,3.079,2.424,13.607,13.607,0,0,1-3.592-1.566A13.785,13.785,0,0,1,259.3,82.858Z" fill="#263238"/>
            <path id="Path_4377" data-name="Path 4377" d="M253.009,104.4a13.75,13.75,0,0,1,3.893-.439,13.574,13.574,0,0,1,3.878.559,13.573,13.573,0,0,1-3.893.44A13.716,13.716,0,0,1,253.009,104.4Z" fill="#263238"/>
            <path id="Path_4378" data-name="Path 4378" d="M258.337,126.208a13.748,13.748,0,0,1,3.152-2.328,13.537,13.537,0,0,1,3.639-1.454,15.373,15.373,0,0,1-6.791,3.782Z" fill="#263238"/>
            <path id="Path_4379" data-name="Path 4379" d="M333.421,127.867a15.35,15.35,0,0,1-6.67-3.99,13.6,13.6,0,0,1,3.591,1.566A13.763,13.763,0,0,1,333.421,127.867Z" fill="#263238"/>
            <path id="Path_4380" data-name="Path 4380" d="M339.708,106.321a13.753,13.753,0,0,1-3.894.439,13.574,13.574,0,0,1-3.878-.559,13.575,13.575,0,0,1,3.894-.44A13.717,13.717,0,0,1,339.708,106.321Z" fill="#263238"/>
            <path id="Path_4381" data-name="Path 4381" d="M334.379,84.517a15.351,15.351,0,0,1-6.79,3.782,13.593,13.593,0,0,1,3.152-2.327A13.739,13.739,0,0,1,334.379,84.517Z" fill="#263238"/>
            <path id="Path_4382" data-name="Path 4382" d="M318.863,68.3a13.762,13.762,0,0,1-1.566,3.591,13.583,13.583,0,0,1-2.424,3.079,15.35,15.35,0,0,1,3.99-6.67Z" fill="#263238"/>
          </g>
        </g>
      </g>
    </g>
  </g>
</svg>
