<svg xmlns="http://www.w3.org/2000/svg" xmlns:xlink="http://www.w3.org/1999/xlink" width="438" height="443" viewBox="0 0 438 443">
  <defs>
    <clipPath id="clip-path">
      <rect id="Rectangle_3167" data-name="Rectangle 3167" width="438" height="443" transform="translate(-7139 6771)" fill="#fff"/>
    </clipPath>
  </defs>
  <g id="Mask_Group_75" data-name="Mask Group 75" transform="translate(7139 -6771)" clip-path="url(#clip-path)">
    <g id="Group_4480" data-name="Group 4480" transform="translate(-7760.929 6715.707)">
      <g id="Group_4300" data-name="Group 4300">
        <rect id="Rectangle_2456" data-name="Rectangle 2456" width="26.481" height="11.19" transform="translate(637.701 357.621)" fill="#ebebeb"/>
        <rect id="Rectangle_2457" data-name="Rectangle 2457" width="26.481" height="11.19" transform="translate(622.929 371.731)" fill="#ebebeb"/>
        <rect id="Rectangle_2458" data-name="Rectangle 2458" width="26.481" height="11.19" transform="translate(809.214 142.881)" fill="#ebebeb"/>
        <rect id="Rectangle_2459" data-name="Rectangle 2459" width="26.481" height="11.19" transform="translate(794.442 156.991)" fill="#ebebeb"/>
        <rect id="Rectangle_2460" data-name="Rectangle 2460" width="26.481" height="11.19" transform="translate(779.728 142.881)" fill="#ebebeb"/>
        <rect id="Rectangle_2461" data-name="Rectangle 2461" width="26.481" height="11.19" transform="translate(1033.766 371.731)" fill="#ebebeb"/>
        <rect id="Rectangle_2462" data-name="Rectangle 2462" width="26.481" height="11.19" transform="translate(1018.995 56.332)" fill="#ebebeb"/>
        <rect id="Rectangle_2463" data-name="Rectangle 2463" width="26.481" height="11.19" transform="translate(1033.766 70.442)" fill="#ebebeb"/>
        <rect id="Rectangle_2464" data-name="Rectangle 2464" width="26.481" height="11.19" transform="translate(637.701 56.332)" fill="#ebebeb"/>
      </g>
      <g id="Group_4319" data-name="Group 4319">
        <g id="Group_4301" data-name="Group 4301">
          <rect id="Rectangle_2465" data-name="Rectangle 2465" width="160.164" height="6.876" transform="translate(875.109 113.328)" fill="#ebebeb"/>
          <path id="Path_5817" data-name="Path 5817" d="M898.4,147.275h-6.238l-2.5-27.071H898.4Z" fill="#ebebeb"/>
          <path id="Path_5818" data-name="Path 5818" d="M1011.986,147.275h6.239l2.5-27.071h-8.742Z" fill="#ebebeb"/>
          <path id="Path_5819" data-name="Path 5819" d="M889.655,120.208h8.738v9.322h-7.878Z" fill="#dbdbdb"/>
          <path id="Path_5820" data-name="Path 5820" d="M1020.725,120.208l-.86,9.322h-7.878v-9.322Z" fill="#dbdbdb"/>
        </g>
        <g id="Group_4313" data-name="Group 4313">
          <g id="Group_4310" data-name="Group 4310">
            <g id="Group_4303" data-name="Group 4303">
              <path id="Path_5821" data-name="Path 5821" d="M933.108,72.071C926,81.7,918.59,92.867,916.785,104.938c-.021.183.271.242.314.061a71.649,71.649,0,0,1,3.143-9.665c4.672-1.285,9.258-2.342,11.712-6.979,2.5-4.768,2.185-10.983,1.709-16.177C933.63,71.9,933.252,71.886,933.108,72.071Z" fill="#ebebeb"/>
              <g id="Group_4302" data-name="Group 4302">
                <path id="Path_5822" data-name="Path 5822" d="M920.312,95.244a79.61,79.61,0,0,1,12.5-20.25c.035-.04.09.017.058.057a85.679,85.679,0,0,0-8.534,13.415c2.353-2.389,4.932-4.529,7.161-7.062.043-.049.113.022.071.072-2.213,2.655-4.631,5.542-7.514,7.508q-1.161,2.139-2.344,4.288c.194-.108.394-.205.592-.3.035-.017.066.035.031.053-.22.111-.437.228-.664.324-.375.677-.746,1.355-1.131,2.031C920.454,95.527,920.245,95.395,920.312,95.244Z" fill="#a6a6a6"/>
                <path id="Path_5823" data-name="Path 5823" d="M922.687,92.744a41.977,41.977,0,0,0,5.456-3.642c.046-.037.114.027.066.067a28.819,28.819,0,0,1-5.443,3.709C922.677,92.924,922.6,92.794,922.687,92.744Z" fill="#a6a6a6"/>
              </g>
            </g>
            <g id="Group_4305" data-name="Group 4305">
              <path id="Path_5824" data-name="Path 5824" d="M916.008,104.827c.014.147.263.144.259-.012.037-3.975,0-7.968.064-11.961,1.018-2.055,3.2-3.193,4.724-4.839a21.217,21.217,0,0,0,2.835-3.948A28.369,28.369,0,0,0,927.179,73.1c.419-4.252-1.194-18.283-2.986-17.8-.93.253-3.938,7.2-4.736,9.5a66.2,66.2,0,0,0-2.828,11.648A124.424,124.424,0,0,0,916.008,104.827Z" fill="#ebebeb"/>
              <g id="Group_4304" data-name="Group 4304">
                <path id="Path_5825" data-name="Path 5825" d="M915.979,87.679l.018-.015a89.849,89.849,0,0,1,2.412-14.987c1.142-5.255,2.478-10.2,5.183-14.891.05-.087.179-.01.134.078a55.327,55.327,0,0,0-4.164,11.43c.181-.283.4-.552.59-.819.074-.106.248-.008.175.1a7.4,7.4,0,0,1-.845,1.193.073.073,0,0,1-.035.016c-.931,3.756-1.6,7.6-2.172,11.431.043-.048.085-.1.128-.148.029-.031.078.009.058.045-.07.127-.15.254-.228.38-.288,1.946-.555,3.887-.823,5.812a27.373,27.373,0,0,0,8.09-10.75c.008-.02.04-.012.033.009a22.345,22.345,0,0,1-8.178,11.13c-.073.519-.145,1.038-.219,1.553-.015.108-.186.079-.186-.025,0-.458.024-.917.042-1.376A.107.107,0,0,1,915.979,87.679Z" fill="#a6a6a6"/>
                <path id="Path_5826" data-name="Path 5826" d="M917.611,80.392a80.114,80.114,0,0,0,7.056-12.154c.022-.049.106-.014.087.036a39.432,39.432,0,0,1-7.01,12.22C917.68,80.565,917.557,80.472,917.611,80.392Z" fill="#a6a6a6"/>
                <path id="Path_5827" data-name="Path 5827" d="M921.129,67.262c1.1-1.94,2.253-3.828,3.285-5.806.028-.056.1-.007.081.047a30.267,30.267,0,0,1-3.2,5.858C921.225,67.461,921.065,67.374,921.129,67.262Z" fill="#a6a6a6"/>
                <path id="Path_5828" data-name="Path 5828" d="M920.7,68.106a.017.017,0,0,1,0,.034A.017.017,0,0,1,920.7,68.106Z" fill="#a6a6a6"/>
              </g>
            </g>
            <g id="Group_4307" data-name="Group 4307">
              <path id="Path_5829" data-name="Path 5829" d="M914.063,94.641a40.447,40.447,0,0,1-.929,7.832c.041.283.082.566.123.857a37.357,37.357,0,0,0,1.4-8.729.267.267,0,0,0,.012-.27v-.009a57.841,57.841,0,0,0-.878-11.828c-1.231-7.305-3.92-14.316-9.015-19.791a.364.364,0,0,0-.563.116c-2.056,5.228-1.338,11.465.413,16.68a30.5,30.5,0,0,0,4.04,7.922C910.415,89.879,912.643,91.958,914.063,94.641Z" fill="#ebebeb"/>
              <g id="Group_4306" data-name="Group 4306">
                <path id="Path_5830" data-name="Path 5830" d="M905.38,65.149c4.828,7.837,8.188,17.128,8.6,26.385.008.164-.268.207-.291.039-.115-.832-.242-1.656-.375-2.477l-.008,0a31.6,31.6,0,0,1-5.479-6.323c-.025-.041.036-.091.069-.053a66.345,66.345,0,0,0,5.322,5.792q-.519-3.069-1.241-6.045c-.129-.148-.255-.3-.382-.449-.084-.1.056-.241.143-.143l.116.128a69.873,69.873,0,0,0-2.524-8.015,24.305,24.305,0,0,1-3.5-4.5.037.037,0,0,1,.064-.038c.72,1.01,1.416,2.026,2.233,2.964.326.373.683.722,1.02,1.087a61.72,61.72,0,0,0-3.953-8.24A.109.109,0,0,1,905.38,65.149Z" fill="#a6a6a6"/>
                <path id="Path_5831" data-name="Path 5831" d="M906.356,74.816c1.56,2.1,3.339,4.1,4.79,6.275.042.063-.049.127-.1.078a32.052,32.052,0,0,1-4.794-6.292C906.208,74.81,906.31,74.755,906.356,74.816Z" fill="#a6a6a6"/>
                <path id="Path_5832" data-name="Path 5832" d="M911.364,81.578l.067.066a.051.051,0,0,1-.072.072l-.066-.067A.05.05,0,0,1,911.364,81.578Z" fill="#a6a6a6"/>
              </g>
            </g>
            <g id="Group_4309" data-name="Group 4309">
              <path id="Path_5833" data-name="Path 5833" d="M897.069,78.233a24.054,24.054,0,0,0,5.1,11.955,12.687,12.687,0,0,0,4.132,3.224c1.79.885,3.663,1.9,5.515,2.632a36.238,36.238,0,0,1,1.952,6.935c.06-.2.119-.412.179-.614-1.189-10.208-7.794-18.932-16.243-24.533A.41.41,0,0,0,897.069,78.233Z" fill="#ebebeb"/>
              <g id="Group_4308" data-name="Group 4308">
                <path id="Path_5834" data-name="Path 5834" d="M899.988,81.249c-.059-.052.021-.159.086-.111A34.564,34.564,0,0,1,910.84,94.406c.061.139-.13.262-.21.122-.393-.688-.793-1.357-1.2-2.015h-.006a11.607,11.607,0,0,1-5.186-3.008c-.039-.035.018-.092.057-.057a11.835,11.835,0,0,0,2.44,1.713c.786.4,1.632.651,2.451.971-.715-1.135-1.46-2.222-2.238-3.277a22.5,22.5,0,0,1-5.795-3.258c-.055-.041-.007-.13.054-.094a57.915,57.915,0,0,0,5.387,2.88,48.326,48.326,0,0,0-3.8-4.434c-.656-.346-1.321-.694-1.956-1.065a.054.054,0,0,1,.042-.1,6.974,6.974,0,0,1,1.5.737C901.615,82.753,900.829,81.992,899.988,81.249Z" fill="#a6a6a6"/>
                <path id="Path_5835" data-name="Path 5835" d="M900.168,84.774a2.488,2.488,0,0,1,.325.232c.031.027-.009.067-.041.053a2.415,2.415,0,0,1-.339-.192C900.055,84.83,900.109,84.736,900.168,84.774Z" fill="#a6a6a6"/>
              </g>
            </g>
          </g>
          <g id="Group_4312" data-name="Group 4312">
            <g id="Group_4311" data-name="Group 4311">
              <path id="Path_5836" data-name="Path 5836" d="M924.327,113.328h-17.4l.857-11.4.328-3.72h14.874l.328,3.72Z" fill="#dbdbdb"/>
              <path id="Path_5837" data-name="Path 5837" d="M923.317,101.924H907.786l.328-3.72h14.874Z" fill="#c7c7c7"/>
            </g>
            <rect id="Rectangle_2466" data-name="Rectangle 2466" width="17.245" height="3.813" transform="translate(906.929 95.154)" fill="#dbdbdb"/>
          </g>
        </g>
        <g id="Group_4314" data-name="Group 4314">
          <rect id="Rectangle_2467" data-name="Rectangle 2467" width="41.407" height="10.427" transform="translate(966.605 71.895) rotate(90)" fill="#c7c7c7"/>
          <rect id="Rectangle_2468" data-name="Rectangle 2468" width="4.55" height="10.427" transform="translate(966.605 69.68) rotate(90)" fill="#dbdbdb"/>
          <rect id="Rectangle_2469" data-name="Rectangle 2469" width="1.688" height="10.427" transform="translate(966.605 80.061) rotate(90)" fill="#dbdbdb"/>
          <rect id="Rectangle_2470" data-name="Rectangle 2470" width="4.55" height="10.427" transform="translate(966.605 103.32) rotate(90)" fill="#dbdbdb"/>
        </g>
        <g id="Group_4315" data-name="Group 4315">
          <rect id="Rectangle_2471" data-name="Rectangle 2471" width="48.302" height="7.287" transform="translate(973.892 65) rotate(90)" fill="#dbdbdb"/>
          <rect id="Rectangle_2472" data-name="Rectangle 2472" width="18.578" height="4.373" transform="translate(972.404 69.541) rotate(90)" fill="#ebebeb"/>
        </g>
        <g id="Group_4316" data-name="Group 4316">
          <rect id="Rectangle_2473" data-name="Rectangle 2473" width="48.302" height="7.288" transform="matrix(0.711, 0.703, -0.703, 0.711, 991.45, 74.108)" fill="#c7c7c7"/>
          <rect id="Rectangle_2474" data-name="Rectangle 2474" width="18.578" height="4.373" transform="translate(1003.521 88.055) rotate(44.666)" fill="#dbdbdb"/>
        </g>
        <g id="Group_4317" data-name="Group 4317">
          <rect id="Rectangle_2475" data-name="Rectangle 2475" width="36.69" height="12.376" transform="translate(986.263 76.621) rotate(90)" fill="#a6a6a6"/>
          <rect id="Rectangle_2476" data-name="Rectangle 2476" width="3.42" height="12.376" transform="translate(986.263 106.001) rotate(90)" fill="#c7c7c7"/>
          <rect id="Rectangle_2477" data-name="Rectangle 2477" width="1.326" height="12.376" transform="translate(986.263 102.431) rotate(90)" fill="#c7c7c7"/>
        </g>
        <g id="Group_4318" data-name="Group 4318">
          <rect id="Rectangle_2478" data-name="Rectangle 2478" width="34.48" height="8.549" transform="translate(956.241 81.644) rotate(113.234)" fill="#a6a6a6"/>
          <rect id="Rectangle_2479" data-name="Rectangle 2479" width="3.214" height="8.549" transform="translate(945.349 107.016) rotate(113.233)" fill="#c7c7c7"/>
          <rect id="Rectangle_2480" data-name="Rectangle 2480" width="3.214" height="8.549" transform="matrix(-0.394, 0.919, -0.919, -0.394, 953.438, 88.175)" fill="#c7c7c7"/>
          <rect id="Rectangle_2481" data-name="Rectangle 2481" width="1.246" height="8.549" transform="matrix(-0.394, 0.919, -0.919, -0.394, 951.301, 93.151)" fill="#c7c7c7"/>
        </g>
      </g>
      <g id="Group_4320" data-name="Group 4320">
        <path id="Path_5838" data-name="Path 5838" d="M676.373,104.971v-48.5h48.5v48.5Zm2.287-46.217v43.929h43.929V58.754Z" fill="#c7c7c7"/>
        <rect id="Rectangle_2482" data-name="Rectangle 2482" width="15.186" height="34.24" transform="translate(719.428 78.99) rotate(90)" fill="#ebebeb"/>
        <rect id="Rectangle_2483" data-name="Rectangle 2483" width="11.47" height="33.135" transform="translate(697.677 164.073) rotate(180)" fill="#c7c7c7"/>
        <rect id="Rectangle_2484" data-name="Rectangle 2484" width="14.407" height="24.11" transform="translate(683.53 209.466) rotate(-90)" fill="#ebebeb"/>
        <path id="Path_5839" data-name="Path 5839" d="M676.373,170.129v-48.5h48.5v48.5Zm2.287-46.217v43.929h43.929V123.912Z" fill="#c7c7c7"/>
        <path id="Path_5840" data-name="Path 5840" d="M676.373,235.286v-48.5h48.5v48.5Zm2.287-46.216V233h43.929V189.07Z" fill="#c7c7c7"/>
        <rect id="Rectangle_2485" data-name="Rectangle 2485" width="17.544" height="17.544" transform="translate(709.397 71.947) rotate(90)" fill="#c7c7c7"/>
        <rect id="Rectangle_2486" data-name="Rectangle 2486" width="17.544" height="17.544" transform="translate(709.397 137.104) rotate(90)" fill="#ebebeb"/>
        <rect id="Rectangle_2487" data-name="Rectangle 2487" width="17.544" height="17.544" transform="translate(709.397 202.262) rotate(90)" fill="#c7c7c7"/>
      </g>
      <g id="Group_4321" data-name="Group 4321">
        <ellipse id="Ellipse_1597" data-name="Ellipse 1597" cx="180.388" cy="24.314" rx="180.388" ry="24.314" transform="translate(661.2 440.571)" fill="#f0dedb"/>
      </g>
      <g id="Group_4331" data-name="Group 4331">
        <g id="Group_4328" data-name="Group 4328">
          <g id="Group_4322" data-name="Group 4322">
            <path id="Path_5842" data-name="Path 5842" d="M678.023,248.454s24.991-3.5,19.149-33.668C697.172,214.786,669.25,221.054,678.023,248.454Z" fill="#29c0ff"/>
            <path id="Path_5843" data-name="Path 5843" d="M678.023,248.454s24.991-3.5,19.149-33.668C697.172,214.786,669.25,221.054,678.023,248.454Z" fill="#29a9ff"/>
            <path id="Path_5844" data-name="Path 5844" d="M679.286,242.156c.488-1.526,1.064-3.024,1.7-4.5.019-.193.048-.385.064-.571q.055-.623.1-1.246c.07-.9.127-1.8.18-2.7.106-1.8.222-3.606.249-5.41a.077.077,0,0,1,.153,0c.015,1.807.043,3.61-.027,5.416-.035.9-.087,1.8-.147,2.7-.013.2-.029.4-.043.6a53.554,53.554,0,0,1,5.011-8.568c.858-1.2,1.761-2.354,2.732-3.465,1-1.14,2.049-2.225,3.057-3.354.065-.073.173.039.105.11a44.766,44.766,0,0,0-4.817,6.4c-.758,1.15-1.475,2.33-2.158,3.529.078-.031.156-.06.232-.092.3-.122.592-.245.891-.36q1.019-.392,2.04-.772c1.341-.5,2.684-.987,4.02-1.495.08-.031.136.108.056.14-1.329.53-2.644,1.09-3.957,1.657-.645.278-1.291.554-1.936.833-.323.139-.649.27-.976.4a3.073,3.073,0,0,1-.662.234c-.5.9-1,1.813-1.463,2.739a65.055,65.055,0,0,0-3.054,7.2c-.061.173-.12.345-.18.518a14.621,14.621,0,0,1,2.048-.987c.86-.4,1.725-.783,2.586-1.179,1.752-.8,3.494-1.622,5.174-2.571a.077.077,0,0,1,.074.134c-1.718.938-3.4,1.936-5.121,2.87-.86.467-1.724.921-2.605,1.347a8.169,8.169,0,0,1-2.347.94,29.618,29.618,0,0,0-1.638,7.088c-.279,3.412-.247,6.851-.327,10.271,0,.06-.087.055-.091,0-.249-3.1-.389-6.232-.4-9.345A27.137,27.137,0,0,1,679.286,242.156Z" fill="#263238"/>
            <path id="Path_5845" data-name="Path 5845" d="M683.134,224.415a29.776,29.776,0,0,1,.249,5.32.038.038,0,0,1-.076,0c-.1-1.764-.116-3.523-.321-5.281C682.975,224.355,683.123,224.318,683.134,224.415Z" fill="#263238"/>
            <path id="Path_5846" data-name="Path 5846" d="M690.28,225.925a19.272,19.272,0,0,0,3.214-1.579c.081-.054.157.082.073.134a12.272,12.272,0,0,1-3.246,1.551C690.26,226.047,690.219,225.951,690.28,225.925Z" fill="#263238"/>
          </g>
          <path id="Path_5847" data-name="Path 5847" d="M677.225,296.349c.021-2.762.073-5.523.105-8.284.052-9.172.128-18.343.292-27.514q.2-10.921.509-21.839a.114.114,0,0,1,.063-.093q.015-2.983.031-5.965c0-.05.06-.075.12-.073s.12.026.119.077q.02,2.988.037,5.975a.118.118,0,0,1,.058.086c.367,12.957.7,25.917.772,38.877.015,2.635.014,5.27.025,7.9q.132,12.675.1,25.35c.009,1.346.025,2.691.03,4.036.027,7.731-.08,15.462-.083,23.193,0,.416-.462.623-.953.642-.56.023-1.158-.2-1.158-.676,0-8.526-.059-17.051-.058-25.576C677.205,307.1,677.185,301.722,677.225,296.349Z" fill="#263238"/>
          <g id="Group_4323" data-name="Group 4323">
            <path id="Path_5848" data-name="Path 5848" d="M687.662,287.959s12.02-8.906,23.428-2.889,13.2,29.215,13.2,29.215-16.752,2.4-27.3-7.645C686.82,296.964,687.662,287.959,687.662,287.959Z" fill="#29c0ff"/>
            <path id="Path_5849" data-name="Path 5849" d="M684.385,288.509a14.391,14.391,0,0,1,6.964-.909,10.108,10.108,0,0,1,1.473-.144q.848-.06,1.694-.127c1.168-.091,2.337-.16,3.505-.248,2.371-.177,4.75-.322,7.116-.56.085-.008.1.139.016.15-2.341.3-4.673.633-7.023.87-1.208.122-2.416.247-3.628.333-.284.021-.579.053-.879.086.359.081.717.165,1.067.264a28.484,28.484,0,0,1,5.447,2.214c.947.17,1.887.435,2.817.654,1.487.35,2.968.734,4.446,1.121,2.919.765,5.807,1.625,8.7,2.468.094.027.05.169-.045.146-2.894-.71-5.8-1.361-8.7-2.051-1.41-.335-2.821-.666-4.228-1.012-.363-.09-.733-.173-1.1-.256a35.223,35.223,0,0,1,8.544,7.429,46.386,46.386,0,0,1,5.938,9.364c.042.086-.079.169-.129.082a45.5,45.5,0,0,0-7.185-9.431c.052.16.106.32.157.48.224.708.445,1.416.668,2.124.445,1.415.9,2.829,1.318,4.251.028.1-.115.127-.148.037-.506-1.371-.987-2.752-1.472-4.131q-.355-1.016-.713-2.031c-.124-.35-.242-.7-.36-1.055-.037-.108-.08-.215-.116-.323a42.457,42.457,0,0,0-4.263-3.633,32.421,32.421,0,0,0-6.381-3.658c.042.209.079.418.122.616.118.548.24,1.1.353,1.644.235,1.138.456,2.279.678,3.42.453,2.326.733,4.681,1.17,7.009.018.1-.126.133-.148.037-.539-2.34-1.234-4.642-1.756-6.987-.26-1.173-.525-2.345-.769-3.521-.113-.549-.222-1.1-.333-1.649-.062-.306-.134-.612-.169-.92-.219-.087-.433-.187-.653-.269-3.153-1.168-6.639-2.015-10-1.37a9.829,9.829,0,0,0-7.235,5.8c-.109.262-.522.1-.461-.169A9.292,9.292,0,0,1,684.385,288.509Z" fill="#263238"/>
            <path id="Path_5850" data-name="Path 5850" d="M702.787,298.414q.51,2.285,1.014,4.57a33.691,33.691,0,0,1,.84,4.444c.005.059-.08.06-.1.011a34.259,34.259,0,0,1-1.021-4.477q-.444-2.254-.884-4.511C702.62,298.355,702.766,298.318,702.787,298.414Z" fill="#263238"/>
            <path id="Path_5851" data-name="Path 5851" d="M714.413,302.286c1.53.776,3.014,1.659,4.613,2.295a.076.076,0,1,1-.063.138,49.252,49.252,0,0,1-4.587-2.375C714.339,302.321,714.373,302.266,714.413,302.286Z" fill="#263238"/>
          </g>
          <g id="Group_4324" data-name="Group 4324">
            <path id="Path_5852" data-name="Path 5852" d="M684.959,271.6s14.691.937,21.525-8.751,5.3-23.522,5.3-23.522-15.431,1.875-21.56,8.832S684.959,271.6,684.959,271.6Z" fill="#29c0ff"/>
            <path id="Path_5853" data-name="Path 5853" d="M678.064,286.1c.508-1.574,1.139-3.125,1.733-4.669q.856-2.225,1.828-4.4a91.238,91.238,0,0,1,4.4-8.656c1.037-1.786,2.148-3.518,3.292-5.226.023-.261.075-.521.114-.783.069-.454.134-.909.2-1.363.146-.93.309-1.858.464-2.787.338-2.028.757-4.043,1.079-6.074.015-.1.167-.094.153,0-.3,2-.5,4.021-.779,6.027-.138.985-.266,1.972-.416,2.956-.054.356-.111.711-.167,1.066a105.76,105.76,0,0,1,7.267-9.426c.351-.406.714-.8,1.072-1.2.037-.112.092-.221.137-.336.108-.279.215-.559.319-.841.216-.582.427-1.167.637-1.752.412-1.15.781-2.311,1.094-3.493.025-.1.169-.051.146.044-.3,1.206-.61,2.41-.963,3.6-.17.576-.359,1.143-.562,1.708-.034.1-.07.189-.1.283,1.878-2.046,3.836-4.019,5.815-5.969.07-.069.173.041.1.111a105.2,105.2,0,0,0-10.41,12.751,9.52,9.52,0,0,1,1.088-.275c1.131-.22,2.272-.38,3.414-.525,2.394-.3,4.781-.607,7.164-.983.1-.015.135.129.038.148-2.277.449-4.533.961-6.794,1.48-1.067.246-2.137.455-3.211.666a20.676,20.676,0,0,0-2.579.735c-.237.34-.484.675-.718,1.016-1.078,1.57-2.113,3.17-3.126,4.784.5-.1,1-.2,1.5-.292q1.7-.332,3.414-.613c2.241-.369,4.483-.758,6.7-1.263a.076.076,0,0,1,.037.148c-2.247.528-4.473,1.144-6.7,1.737-1.075.286-2.16.549-3.246.789-.544.12-1.089.241-1.634.353a3.878,3.878,0,0,1-.661.113q-3.219,5.22-6.025,10.676-1.229,2.4-2.372,4.839c-.786,1.668-1.458,3.371-2.183,5.064C678.482,286.608,677.945,286.469,678.064,286.1Z" fill="#263238"/>
            <path id="Path_5854" data-name="Path 5854" d="M693.1,252.335q.42-2.1.886-4.194c.022-.1.165-.051.146.044q-.417,2.065-.793,4.138a41.322,41.322,0,0,1-.834,4.116.022.022,0,0,1-.044-.007A28.989,28.989,0,0,1,693.1,252.335Z" fill="#263238"/>
            <path id="Path_5855" data-name="Path 5855" d="M701.671,251.926c.681-.339,1.4-.614,2.111-.888.372-.145.743-.289,1.114-.437l.568-.227a2.733,2.733,0,0,0,.62-.272c.111-.083.182.111.071.129a2.776,2.776,0,0,0-.628.257c-.185.084-.371.166-.556.249-.357.159-.715.32-1.072.478a20.51,20.51,0,0,1-2.17.859A.081.081,0,0,1,701.671,251.926Z" fill="#263238"/>
          </g>
          <g id="Group_4325" data-name="Group 4325">
            <path id="Path_5856" data-name="Path 5856" d="M669.921,260.052s-8.892-16.608-22.418-19.18-21.8,11.345-21.8,11.345,9.865,12.6,22.278,14.8S669.921,260.052,669.921,260.052Z" fill="#29c0ff"/>
            <path id="Path_5857" data-name="Path 5857" d="M638.439,248.315a36.623,36.623,0,0,1,10.608.126c-.2-.111-.4-.222-.6-.323-1-.509-2-1.027-3-1.546-2.077-1.08-4.177-2.231-6.351-3.1a.076.076,0,1,1,.062-.137c2.116.985,4.309,1.811,6.432,2.787,1.061.488,2.1,1,3.138,1.544.667.354,1.406.688,2.062,1.111a37.376,37.376,0,0,1,8.6,2.856q-.846-.919-1.691-1.841c-1.261-1.381-2.5-2.829-3.886-4.087-.073-.066.038-.171.111-.1,1.416,1.285,2.91,2.475,4.283,3.812.666.648,1.3,1.321,1.924,2.013.309.344.62.7.914,1.069a35.65,35.65,0,0,1,18.135,24.488c.019.093-.116.146-.144.049a40.87,40.87,0,0,0-9.944-16.827,39.1,39.1,0,0,0-18.122-10.484,39.7,39.7,0,0,0-12.506-1.136A.134.134,0,0,1,638.439,248.315Z" fill="#263238"/>
            <path id="Path_5858" data-name="Path 5858" d="M625.7,252.219s9.868,12.6,22.284,14.8c9.468,1.679,17.258-3.26,20.42-5.691l.683-1.122s-6.4-5.4-18.516-8.512S625.7,252.219,625.7,252.219Z" fill="#29a9ff"/>
            <path id="Path_5859" data-name="Path 5859" d="M646.294,242.394a33.675,33.675,0,0,1,3.005,1.983,19.093,19.093,0,0,1,2.608,2.387c.071.078-.039.177-.116.11-.9-.779-1.8-1.56-2.732-2.3a28.619,28.619,0,0,0-2.845-2.051A.076.076,0,0,1,646.294,242.394Z" fill="#263238"/>
            <path id="Path_5860" data-name="Path 5860" d="M638.871,245.205c.5.209,1.013.389,1.514.6l1.506.625c.107.044.057.219-.053.175l-1.51-.612c-.5-.205-1-.436-1.5-.64C638.737,245.315,638.781,245.167,638.871,245.205Z" fill="#263238"/>
          </g>
          <g id="Group_4326" data-name="Group 4326">
            <path id="Path_5861" data-name="Path 5861" d="M671.7,280.953s-2.376,16.474-14.765,22.238-27.491,0-27.491,0S635.379,267.546,671.7,280.953Z" fill="#29c0ff"/>
            <path id="Path_5862" data-name="Path 5862" d="M637.975,292.474c1.143-.129,2.279-.325,3.41-.531q.834-.153,1.665-.315c.281-.055.575-.123.87-.174.333-.311.662-.628,1-.929a50.064,50.064,0,0,1,7.576-5.492,42.826,42.826,0,0,1,4.541-2.334l-.233.011c-1.36.058-2.719.114-4.078.177-2.72.126-5.438.186-8.155.362-.1.006-.094-.146,0-.152,2.728-.186,5.441-.485,8.165-.719q1.982-.171,3.962-.353c.68-.061,1.36-.119,2.041-.178.174-.015.349-.036.523-.055.706-.264,1.418-.513,2.138-.737a19.323,19.323,0,0,1,10.493-.579c3.117.8,6.227,2.841,7.034,6.126.028.114-.149.192-.2.078-1.162-2.746-4.21-4.128-6.961-4.7a16.563,16.563,0,0,0-5.61-.109,13.411,13.411,0,0,1-.625,2.49c-.343,1.159-.681,2.32-1.032,3.477-.7,2.314-1.476,4.606-2.161,6.924a.076.076,0,0,1-.146-.044c.575-2.312,1.061-4.645,1.618-6.962.274-1.138.56-2.272.842-3.408a19.349,19.349,0,0,1,.624-2.342,29.525,29.525,0,0,0-3.215.758,47.26,47.26,0,0,0-5.615,2.057c-.182,1.175-.444,2.339-.713,3.5-.339,1.455-.717,2.9-1.177,4.317a.073.073,0,0,1-.139-.042c.019-.09.037-.179.055-.269l0,0c.278-1.347.575-2.69.859-4.036.229-1.085.439-2.175.675-3.258-1.538.691-3.051,1.447-4.515,2.287-.03.335-.112.679-.16.985-.09.565-.193,1.128-.3,1.69-.233,1.271-.486,2.538-.791,3.794a59.7,59.7,0,0,1-2.129,7.165.075.075,0,0,1,0,.1l-.071.083c-.053.062-.141-.011-.125-.078.573-2.441,1.228-4.862,1.764-7.313.268-1.223.537-2.446.783-3.674.123-.614.235-1.229.352-1.845.032-.172.058-.361.085-.551a52.157,52.157,0,0,0-12.208,9.959c-.088.1-.263-.041-.182-.148a46.174,46.174,0,0,1,2.954-3.6c.623-.668,1.269-1.313,1.929-1.945l-.206.036c-.58.1-1.162.184-1.745.262-1.146.153-2.295.266-3.443.4C637.916,292.633,637.878,292.486,637.975,292.474Z" fill="#263238"/>
            <path id="Path_5863" data-name="Path 5863" d="M646.682,298.06h0c.019-.143.043-.286.071-.427.035-.183.124-.357.15-.539l0-.006c.255-1.1.47-2.21.669-3.324.014-.077.137-.054.134.022a13.479,13.479,0,0,1-.942,4.3c-.017.043-.1.039-.088-.015Z" fill="#263238"/>
            <path id="Path_5864" data-name="Path 5864" d="M657.051,297.8a.073.073,0,0,1,.073-.07c.348-1.458.683-2.918.983-4.388.159-.772.32-1.543.468-2.317q.118-.625.231-1.252a3.643,3.643,0,0,1,.267-1.071.076.076,0,0,1,.138.022,7.227,7.227,0,0,1-.31,2.211c-.152.8-.308,1.607-.485,2.406-.359,1.625-.767,3.245-1.225,4.844a.085.085,0,0,1-.165-.026Z" fill="#263238"/>
            <path id="Path_5865" data-name="Path 5865" d="M639.1,287.729c2.263-.31,4.524-.637,6.791-.912.1-.012.135.133.037.148-2.259.334-4.527.614-6.791.912C639.046,287.89,639.008,287.743,639.1,287.729Z" fill="#263238"/>
          </g>
          <g id="Group_4327" data-name="Group 4327">
            <path id="Path_5866" data-name="Path 5866" d="M678.043,242.315s7.579-33.258-28.154-46.716C649.889,195.6,639.989,239.376,678.043,242.315Z" fill="#29c0ff"/>
            <path id="Path_5867" data-name="Path 5867" d="M670.329,223.453c-.134-.086-.264-.168-.384-.234-.675-.371-1.346-.752-2.019-1.128l-4.145-2.318c-2.727-1.526-5.419-3.112-8.165-4.606-.087-.046-.006-.176.08-.129,2.75,1.5,5.55,2.9,8.318,4.359l4.1,2.165q.836.441,1.673.884c-1.192-2.261-2.466-4.477-3.865-6.612-1.868-2.848-3.913-5.562-6.045-8.217a.122.122,0,0,1,.177-.168,56.705,56.705,0,0,1,8.262,10.129c0-.117-.005-.235-.011-.346-.04-.828-.061-1.655-.074-2.483-.024-1.623.054-3.249.006-4.87,0-.1.148-.094.152,0,.067,1.6.259,3.191.35,4.787q.068,1.2.1,2.392c.013.431.054.922.038,1.395q1.1,1.757,2.111,3.564a61.611,61.611,0,0,1,3.194,6.7c.035-.829.086-1.656.134-2.484.108-1.821.329-3.634.406-5.456a.077.077,0,0,1,.153,0c-.038,1.822.046,3.644-.01,5.466-.028.911-.057,1.821-.116,2.73-.022.334-.04.675-.063,1.016a60.376,60.376,0,0,1,2.7,9.139,98.424,98.424,0,0,1,1.331,10.043c0,.024-.036.023-.038,0a54.1,54.1,0,0,0-1.9-8.955c-.443-1.57-.909-3.132-1.412-4.681-1.487-.7-2.91-1.574-4.346-2.37-1.49-.826-2.991-1.634-4.485-2.453-2.979-1.635-5.956-3.3-9.033-4.744-.089-.042-.008-.169.08-.13,3.117,1.411,6.256,2.754,9.314,4.29,1.523.765,3.021,1.582,4.506,2.419,1.24.7,2.516,1.4,3.7,2.2-.347-1.035-.708-2.066-1.1-3.085A88.916,88.916,0,0,0,670.329,223.453Z" fill="#263238"/>
            <path id="Path_5868" data-name="Path 5868" d="M673.341,215.849c.007-.1.159-.094.153,0-.129,1.9-.193,3.793-.394,5.685a.084.084,0,0,1-.168,0C673,219.633,673.2,217.746,673.341,215.849Z" fill="#263238"/>
            <path id="Path_5869" data-name="Path 5869" d="M656.209,222.2c2.238.9,4.493,1.756,6.719,2.687.062.026.034.127-.031.1-2.258-.846-4.486-1.767-6.732-2.644C656.074,222.311,656.118,222.164,656.209,222.2Z" fill="#263238"/>
            <path id="Path_5870" data-name="Path 5870" d="M652.813,206.861a58.775,58.775,0,0,1,6.355,3.41.1.1,0,0,1-.1.162c-2.073-1.212-4.184-2.375-6.335-3.442C652.645,206.947,652.726,206.821,652.813,206.861Z" fill="#263238"/>
          </g>
        </g>
        <g id="Group_4330" data-name="Group 4330">
          <rect id="Rectangle_2488" data-name="Rectangle 2488" width="51.533" height="54.319" transform="translate(704.885 368.551) rotate(180)" fill="#37474f"/>
          <g id="Group_4329" data-name="Group 4329">
            <rect id="Rectangle_2489" data-name="Rectangle 2489" width="2.637" height="93.041" transform="translate(705.795 333.453)" fill="#263238"/>
            <rect id="Rectangle_2490" data-name="Rectangle 2490" width="2.637" height="93.041" transform="translate(650.084 333.453)" fill="#263238"/>
            <rect id="Rectangle_2491" data-name="Rectangle 2491" width="2.637" height="93.041" transform="translate(676.537 333.453)" fill="#263238"/>
            <rect id="Rectangle_2492" data-name="Rectangle 2492" width="55.711" height="7.521" transform="translate(707.114 372.59) rotate(180)" fill="#263238"/>
          </g>
        </g>
      </g>
      <g id="Group_4341" data-name="Group 4341">
        <rect id="Rectangle_2493" data-name="Rectangle 2493" width="50.466" height="132.426" transform="translate(685.465 256.971)" fill="#29c0ff"/>
        <rect id="Rectangle_2494" data-name="Rectangle 2494" width="50.466" height="132.426" transform="translate(685.465 256.971)" fill="#29a9ff"/>
        <rect id="Rectangle_2495" data-name="Rectangle 2495" width="50.466" height="132.426" transform="translate(947.246 256.971)" fill="#29c0ff"/>
        <rect id="Rectangle_2496" data-name="Rectangle 2496" width="50.466" height="132.426" transform="translate(947.246 256.971)" fill="#29a9ff"/>
        <g id="Group_4335" data-name="Group 4335">
          <rect id="Rectangle_2497" data-name="Rectangle 2497" width="211.332" height="225.65" transform="translate(735.931 163.747)" fill="#29c0ff"/>
          <rect id="Rectangle_2498" data-name="Rectangle 2498" width="211.332" height="225.65" transform="translate(735.931 163.747)" fill="#29a9ff"/>
          <g id="Group_4332" data-name="Group 4332" opacity="0.2">
            <rect id="Rectangle_2499" data-name="Rectangle 2499" width="1.202" height="132.424" transform="translate(947.279 256.971)" fill="#29a9ff"/>
            <rect id="Rectangle_2500" data-name="Rectangle 2500" width="1.202" height="132.424" transform="translate(735.332 256.971)" fill="#29a9ff"/>
            <path id="Path_5871" data-name="Path 5871" d="M948.494,350.961H735.332V309.892H948.494Zm-211.93-1.231h210.7V311.123h-210.7Z" fill="#29a9ff"/>
          </g>
          <g id="Group_4333" data-name="Group 4333" opacity="0.2">
            <path id="Path_5872" data-name="Path 5872" d="M749.092,236.164a.836.836,0,0,0,0,1.671A.836.836,0,0,0,749.092,236.164Z" fill="#29a9ff"/>
            <path id="Path_5873" data-name="Path 5873" d="M750.52,338.407a.837.837,0,0,0,0,1.672A.837.837,0,0,0,750.52,338.407Z" fill="#29a9ff"/>
            <path id="Path_5874" data-name="Path 5874" d="M807.633,322.441a2.291,2.291,0,0,0-.129-.251.379.379,0,0,0-.649,0,2.484,2.484,0,0,0-.13.251C806.251,323.43,808.107,323.43,807.633,322.441Z" fill="#29a9ff"/>
            <path id="Path_5875" data-name="Path 5875" d="M724.21,340.512a2.471,2.471,0,0,0-.13-.25.378.378,0,0,0-.649,0,2.269,2.269,0,0,0-.129.25C722.828,341.5,724.684,341.5,724.21,340.512Z" fill="#29a9ff"/>
            <path id="Path_5876" data-name="Path 5876" d="M756.278,241.261a.639.639,0,0,0,0,1.277A.639.639,0,0,0,756.278,241.261Z" fill="#29a9ff"/>
            <path id="Path_5877" data-name="Path 5877" d="M711.793,306.067a.639.639,0,0,0,0,1.277A.639.639,0,0,0,711.793,306.067Z" fill="#29a9ff"/>
            <path id="Path_5878" data-name="Path 5878" d="M795.6,205.645a.889.889,0,0,0-1.248,0,1.228,1.228,0,0,0-.3,1.206.969.969,0,0,0,1.856,0A1.235,1.235,0,0,0,795.6,205.645Z" fill="#29a9ff"/>
            <path id="Path_5879" data-name="Path 5879" d="M757.519,333.678a.889.889,0,0,0-1.248,0,1.233,1.233,0,0,0-.3,1.207.97.97,0,0,0,1.856,0A1.234,1.234,0,0,0,757.519,333.678Z" fill="#29a9ff"/>
            <path id="Path_5880" data-name="Path 5880" d="M933.095,342.3a.836.836,0,0,0,0-1.671A.836.836,0,0,0,933.095,342.3Z" fill="#29a9ff"/>
            <path id="Path_5881" data-name="Path 5881" d="M882.354,230.742a.836.836,0,0,0,0-1.671A.836.836,0,0,0,882.354,230.742Z" fill="#29a9ff"/>
            <path id="Path_5882" data-name="Path 5882" d="M960.168,334.407a2.381,2.381,0,0,0,.13.251.378.378,0,0,0,.648,0,2.2,2.2,0,0,0,.13-.251C961.55,333.417,959.694,333.417,960.168,334.407Z" fill="#29a9ff"/>
            <path id="Path_5883" data-name="Path 5883" d="M856.86,284.057a.889.889,0,0,0,1.248,0,1.233,1.233,0,0,0,.3-1.207.97.97,0,0,0-1.856,0A1.234,1.234,0,0,0,856.86,284.057Z" fill="#29a9ff"/>
          </g>
          <g id="Group_4334" data-name="Group 4334" opacity="0.2">
            <path id="Path_5884" data-name="Path 5884" d="M736.534,350.961s53.22,10.379,105.309,10.379,105.4-10.379,105.4-10.379Z" fill="#29a9ff"/>
          </g>
        </g>
        <g id="Group_4340" data-name="Group 4340">
          <rect id="Rectangle_2501" data-name="Rectangle 2501" width="312.245" height="11.642" transform="translate(685.467 377.753)" fill="#37474f"/>
          <g id="Group_4337" data-name="Group 4337">
            <g id="Group_4336" data-name="Group 4336">
              <path id="Path_5885" data-name="Path 5885" d="M753.072,389.4l-12.833,26.278-12.893,26.411H716.123l4.17-26.411,4.145-26.278Z" fill="#37474f"/>
            </g>
            <path id="Path_5886" data-name="Path 5886" d="M724.441,389.4h28.632l-7.783,15.935H721.929Z" fill="#263238"/>
          </g>
          <g id="Group_4339" data-name="Group 4339">
            <g id="Group_4338" data-name="Group 4338">
              <path id="Path_5887" data-name="Path 5887" d="M962.25,442.086H951.027l-12.893-26.411L925.3,389.4h28.634l4.145,26.278Z" fill="#37474f"/>
            </g>
            <path id="Path_5888" data-name="Path 5888" d="M956.445,405.332H933.083L925.3,389.4h28.632Z" fill="#263238"/>
          </g>
        </g>
      </g>
      <g id="Group_4389" data-name="Group 4389">
        <g id="Group_4357" data-name="Group 4357">
          <g id="Group_4349" data-name="Group 4349">
            <g id="Group_4348" data-name="Group 4348">
              <g id="Group_4345" data-name="Group 4345">
                <path id="Path_5889" data-name="Path 5889" d="M964.885,332.627c-.915-2.769-49.946-67.551-53.294-68.8-.383-.165-22.3,15.433-22.3,15.433-.9,1.206-42.565-7.6-42.565-7.6l-.415,50.258,75.89-1.614s10.251,6.026,19.627,10.935c.016,0,.023.012.032,0,5.77,3.041,10.878,5.6,12.335,5.983C957.991,338.2,965.818,335.382,964.885,332.627Z" fill="#f7c4a5"/>
                <path id="Path_5890" data-name="Path 5890" d="M954.2,337.231c-1.463-.375-6.565-2.938-12.332-5.985-.012.012-.024,0-.037,0-9.369-4.909-19.622-10.942-19.622-10.942l-16.891.363L878.873,278c5.8,1.028,10.132,1.644,10.422,1.257,0,0,21.908-15.6,22.294-15.427,3.35,1.245,52.376,66.026,53.295,68.794S957.992,338.21,954.2,337.231Z" fill="#fff"/>
                <g id="Group_4344" data-name="Group 4344">
                  <path id="Path_5891" data-name="Path 5891" d="M965.333,332.713c-.964-2.838-50.215-67.583-53.654-68.866-1.3-.492-12.023,6.13-22.388,15.414l31.8,41.7s29.34,15.543,33.263,16.544S966.3,335.55,965.333,332.713Z" fill="#29c0ff"/>
                  <g id="Group_4343" data-name="Group 4343">
                    <g id="Group_4342" data-name="Group 4342">
                      <path id="Path_5892" data-name="Path 5892" d="M962.037,333.754c-8.523-10.65-41.892-54.412-49.507-65.588-.062-.09,0-.136.068-.051,8.678,10.372,41.691,54.4,49.617,65.505C962.382,333.854,962.216,333.979,962.037,333.754Z" fill="#263238"/>
                      <path id="Path_5893" data-name="Path 5893" d="M948.86,335.117a10.958,10.958,0,0,1-2.289-8.51,10.613,10.613,0,0,1,3.95-6.833c.066-.047.158.071.1.132A12.659,12.659,0,0,0,949,335.013.086.086,0,0,1,948.86,335.117Z" fill="#263238"/>
                      <path id="Path_5894" data-name="Path 5894" d="M924.772,323.542c-3.365-4.3-5.663-10.5-4.163-15.9.058-.21.354-.124.386.056a75.429,75.429,0,0,0,4.369,15.515A.343.343,0,0,1,924.772,323.542Z" fill="#263238"/>
                      <path id="Path_5895" data-name="Path 5895" d="M928.63,325.9c-3.365-4.3-5.662-10.5-4.163-15.9.058-.21.355-.124.386.056a75.442,75.442,0,0,0,4.369,15.515A.343.343,0,0,1,928.63,325.9Z" fill="#263238"/>
                      <path id="Path_5896" data-name="Path 5896" d="M932.489,328.26c-3.365-4.3-5.663-10.5-4.164-15.9.058-.21.355-.124.387.056a75.444,75.444,0,0,0,4.368,15.515A.343.343,0,0,1,932.489,328.26Z" fill="#263238"/>
                      <path id="Path_5897" data-name="Path 5897" d="M936.347,330.619c-3.365-4.3-5.663-10.5-4.163-15.9.058-.21.354-.124.386.056a75.446,75.446,0,0,0,4.369,15.515A.344.344,0,0,1,936.347,330.619Z" fill="#263238"/>
                      <path id="Path_5898" data-name="Path 5898" d="M904.324,278.773c-3.693-4.885,3.892-10.633,7.591-5.74S908.024,283.666,904.324,278.773Z" fill="#263238"/>
                    </g>
                    <path id="Path_5899" data-name="Path 5899" d="M922.855,331.864c1.241-4.645.428-9.665.215-14.385a.666.666,0,0,0-.945-.515.144.144,0,0,0-.228-.041,28.647,28.647,0,0,0-8.1,12.4c-.862,2.8-.536,6.922,2.96,7.734C920.058,337.822,922.13,334.576,922.855,331.864Zm-3.446,2.938c-5.055,3.164-4.668-3.862-3.951-5.9a30.885,30.885,0,0,1,1.724-3.815,85.831,85.831,0,0,1,4.574-7.345c-.037,2.325.125,4.633.174,6.957C921.987,327.471,922.2,333.059,919.409,334.8Z" fill="#263238"/>
                    <path id="Path_5900" data-name="Path 5900" d="M907.392,303.6c-2.577,2.5-.729,6.2,1.451,8.153A28.638,28.638,0,0,0,922.18,318.2a.143.143,0,0,0,.173-.152.666.666,0,0,0,.545-.928c-2.251-4.155-4.142-8.875-7.6-12.216C913.279,302.955,909.83,301.242,907.392,303.6ZM918.2,311.52c1.156,2.017,2.207,4.077,3.437,6.051a85.788,85.788,0,0,1-7.706-3.936,30.593,30.593,0,0,1-3.443-2.381c-1.664-1.375-5.618-7.2.345-7.09C914.118,304.221,916.819,309.116,918.2,311.52Z" fill="#263238"/>
                  </g>
                </g>
              </g>
              <g id="Group_4347" data-name="Group 4347">
                <path id="Path_5901" data-name="Path 5901" d="M844.431,256.254H810.367s-35.628-17.128-64.329-10.228c-32.9,7.911-37.108,49.237-12.515,63.849C764.682,328.388,903.336,324.8,903.336,324.8L873.361,274s-46.108-9.7-87.922-8.3l58.992,8.041Z" fill="#263238"/>
                <g id="Group_4346" data-name="Group 4346">
                  <path id="Path_5902" data-name="Path 5902" d="M875.357,277.277a1.177,1.177,0,0,1-.063-.26c-.017-.07-.034-.141-.052-.212-.041-.164-.085-.328-.131-.491a10.373,10.373,0,0,0-.348-.995c-.129-.328-.27-.648-.421-.967a7.477,7.477,0,0,0-.561-.9c-.02-.032-.054-.037-.08-.057a.5.5,0,0,0-.053-.037.306.306,0,0,0-.075-.031.527.527,0,0,0-.076-.031c-5.071-.943-39.525-5.873-44.649-6.458-5.165-.589-10.345-1.07-15.526-1.505a308.769,308.769,0,0,0-31.093-1.119c-.973.017-1.943.056-2.915.09-.2-.069-.426-.106-.638-.157-.5-.12-.992-.243-1.495-.34-.935-.179-1.879-.316-2.82-.46-1.962-.3-3.931-.508-5.883-.873-.118-.023-.165.156-.045.183,1.962.435,3.891,1,5.856,1.431.566.124,1.132.246,1.7.361-3.8.2-7.6.493-11.4.836-.119.011-.123.2,0,.189,5.164-.3,10.368-.341,15.54-.254,5.136.087,10.269.2,15.4.494,10.374.594,20.741,1.525,31.074,2.606,5.8.607,40.929,5.734,46.753,5.978a.417.417,0,0,0,.072-.012,3.286,3.286,0,0,0,.161.4c.159.317.32.629.492.938s.331.593.52.878c.094.141.188.282.286.422l.145.21a1.151,1.151,0,0,1,.151.219A.094.094,0,1,0,875.357,277.277Z" fill="#455a64"/>
                  <path id="Path_5903" data-name="Path 5903" d="M892.524,321.715c-1.856-2.969-3.438-6.136-5.136-9.2s-3.409-6.141-5.119-9.208c-3.411-6.12-15.652-26.7-16.861-28.141-.077-.091-.233.013-.2.119.576,1.593,8.217,15.22,9.976,18.258,3.517,6.077,7.212,12.034,10.856,18.034,1.041,1.714,2.118,3.4,3.172,5.109s2.176,3.377,3.146,5.127C892.422,321.92,892.589,321.819,892.524,321.715Z" fill="#455a64"/>
                  <path id="Path_5904" data-name="Path 5904" d="M865.061,280.289c-3.06-.734-6.193-1.212-9.285-1.8s-6.2-1.169-9.3-1.745q-9.3-1.727-18.634-3.3c-12.407-2.087-24.866-3.822-37.391-5.023-7.071-.677-14.159-1.125-21.242-1.644-.149-.011-.146.229.006.236,12.617.566,25.214,2.277,37.707,4.071q18.558,2.665,37.037,5.808,5.219.881,10.434,1.786c3.53.611,7.062,1.366,10.615,1.817C865.141,280.511,865.2,280.322,865.061,280.289Z" fill="#455a64"/>
                </g>
              </g>
            </g>
          </g>
          <g id="Group_4356" data-name="Group 4356">
            <g id="Group_4353" data-name="Group 4353">
              <path id="Path_5905" data-name="Path 5905" d="M900.3,497.942c-2.985-.3-77.265-33.685-79.293-36.748-.776-1.158,3.456-12.259,8.95-25.528,1.186-2.866,2.428-5.818,3.707-8.808,8.276-19.427,17.512-39.846,17.512-39.846L900.929,409.2l-18.882,39.235-4.138,8.616s22.722,25.5,24.586,29.1C904.343,489.745,903.285,498.24,900.3,497.942Z" fill="#f7c4a5"/>
              <path id="Path_5906" data-name="Path 5906" d="M900.3,497.942c-2.985-.3-77.265-33.685-79.293-36.748-.938-1.414,5.5-17.509,12.657-34.336l48.383,21.578-4.138,8.616s22.722,25.5,24.586,29.1C904.343,489.745,903.285,498.24,900.3,497.942Z" fill="#fff"/>
              <g id="Group_4352" data-name="Group 4352">
                <path id="Path_5907" data-name="Path 5907" d="M900.3,497.942c-2.985-.3-77.265-33.685-79.293-36.748-.776-1.158,3.456-12.259,8.95-25.528l47.952,21.386s22.722,25.5,24.586,29.1C904.343,489.745,903.285,498.24,900.3,497.942Z" fill="#29c0ff"/>
                <g id="Group_4351" data-name="Group 4351">
                  <g id="Group_4350" data-name="Group 4350">
                    <path id="Path_5908" data-name="Path 5908" d="M900.57,494.492c-12.314-5.9-62.538-28.546-75.159-33.445-.1-.04-.133.029-.035.078,12.078,6.117,62.483,28.353,75.1,33.571C900.745,494.806,900.83,494.616,900.57,494.492Z" fill="#263238"/>
                    <path id="Path_5909" data-name="Path 5909" d="M898.918,481.334a10.963,10.963,0,0,0-8.815-.308,10.626,10.626,0,0,0-5.771,5.4c-.031.076.105.139.151.068a12.67,12.67,0,0,1,14.365-5A.086.086,0,0,0,898.918,481.334Z" fill="#263238"/>
                    <path id="Path_5910" data-name="Path 5910" d="M882.182,460.461c-4.953-2.309-11.521-3.147-16.45-.463-.191.1-.041.374.142.364a75.509,75.509,0,0,1,16.118.751A.344.344,0,0,0,882.182,460.461Z" fill="#263238"/>
                    <path id="Path_5911" data-name="Path 5911" d="M885.355,463.69c-4.952-2.309-11.521-3.147-16.45-.463-.191.1-.04.374.142.364a75.509,75.509,0,0,1,16.118.751A.343.343,0,0,0,885.355,463.69Z" fill="#263238"/>
                    <path id="Path_5912" data-name="Path 5912" d="M888.529,466.919c-4.953-2.309-11.522-3.147-16.451-.463-.191.1-.04.374.142.364a75.584,75.584,0,0,1,16.119.751A.344.344,0,0,0,888.529,466.919Z" fill="#263238"/>
                    <path id="Path_5913" data-name="Path 5913" d="M891.7,470.148c-4.953-2.309-11.522-3.147-16.451-.463-.191.1-.04.374.142.364a75.586,75.586,0,0,1,16.119.751A.344.344,0,0,0,891.7,470.148Z" fill="#263238"/>
                    <path id="Path_5914" data-name="Path 5914" d="M833.9,450.646c-5.6-2.5-9.488,6.2-3.88,8.7S839.507,453.147,833.9,450.646Z" fill="#263238"/>
                  </g>
                  <path id="Path_5915" data-name="Path 5915" d="M893.545,449.583c-1.582-3.225-5.679-2.61-8.211-1.137a28.672,28.672,0,0,0-10.256,10.709.142.142,0,0,0,.091.212c-.054.406.233.895.716.8,4.651-.859,9.73-1.2,13.979-3.463C892.345,455.389,895.042,452.634,893.545,449.583Zm-10.875,7.844c-2.277.478-4.565.842-6.824,1.4a85.908,85.908,0,0,1,6.128-6.123,30.85,30.85,0,0,1,3.331-2.543c1.823-1.16,8.587-3.127,6.646,2.518C890.881,455.8,885.384,456.857,882.67,457.427Z" fill="#263238"/>
                  <path id="Path_5916" data-name="Path 5916" d="M861.865,455.437c4.04,2.617,9.071,3.393,13.632,4.648.473.131.8-.332.781-.74a.144.144,0,0,0,.11-.2,28.664,28.664,0,0,0-9.3-11.548c-2.4-1.685-6.425-2.649-8.278.429C857.056,450.933,859.507,453.909,861.865,455.437Zm-1.734-4.189c-1.45-5.79,5.12-3.251,6.837-1.94a30.775,30.775,0,0,1,3.1,2.82,85.751,85.751,0,0,1,5.581,6.625c-2.2-.754-4.45-1.313-6.678-1.984C866.316,455.968,860.931,454.441,860.131,451.248Z" fill="#263238"/>
                </g>
              </g>
            </g>
            <g id="Group_4355" data-name="Group 4355">
              <path id="Path_5917" data-name="Path 5917" d="M834.8,422.3l55.955,25.3s66.6-127.835,68.343-166.963c1.482-33.3-21.7-46.154-96.645-24.614l-18.361.233v12.667c8.06,1.064,29.558,4.44,29.558,4.44,15.643,5.9,20.681,8.342,20.428,8.851C855.069,360.984,834.8,422.3,834.8,422.3Z" fill="#263238"/>
              <g id="Group_4354" data-name="Group 4354">
                <path id="Path_5918" data-name="Path 5918" d="M903.245,268.159c-2.26,3.009-4.349,6.145-6.349,9.34-12.02-5.343-25.1-8.442-38.126-10.046q-5.526-.681-11.091-.988c-.152-.009-.145.226.005.235a167.29,167.29,0,0,1,38.795,7.385c3.485,1.072,6.9,2.317,10.336,3.541-2.4,3.846-4.664,7.782-6.839,11.747a234.72,234.72,0,0,0-10.943,22.84c-1.8,4.321-3.547,8.671-5.092,13.089-.043.125.163.207.218.086q10.251-22.865,22.387-44.753c2.285-4.119,4.666-8.181,6.9-12.331C903.507,268.185,903.332,268.044,903.245,268.159Z" fill="#455a64"/>
                <path id="Path_5919" data-name="Path 5919" d="M891.973,434.072c-3.263-1.268-6.426-2.86-9.618-4.3s-6.406-2.881-9.612-4.316C866.349,422.6,844.227,413.43,842.4,413c-.116-.027-.179.15-.084.212,1.414.932,15.69,7.279,18.917,8.661,6.455,2.765,12.979,5.327,19.489,7.955,1.859.75,3.733,1.46,5.6,2.2s3.763,1.4,5.587,2.225C892.015,434.3,892.088,434.116,891.973,434.072Z" fill="#455a64"/>
                <path id="Path_5920" data-name="Path 5920" d="M902.97,273.935c-4.416,8.39-8.175,17.167-12.011,25.834q-5.731,12.949-11.139,26.038-10.767,26.063-20.064,52.7c-3.516,10.042-6.8,20.16-10.008,30.3-.046.146.182.2.229.057,5.93-17.936,12.349-35.718,19.056-53.377q10.036-26.427,21.314-52.368,3.167-7.281,6.435-14.517c2.18-4.825,4.448-9.622,6.488-14.508C903.352,273.9,903.075,273.736,902.97,273.935Z" fill="#455a64"/>
              </g>
            </g>
          </g>
        </g>
        <g id="Group_4388" data-name="Group 4388">
          <g id="Group_4358" data-name="Group 4358">
            <path id="Path_5921" data-name="Path 5921" d="M808.67,255.191c1.225,1.295,79.006,3.077,79.4,2.586,1.065-1.339-8.981-50.7-17.109-69.563-10.422-24.188-16.277-26.364-19.767-27.8-4.463-1.842-12.584-1.407-14.546-.591-2.224.913-11.881,11.74-14.775,20.5C816.057,197.9,807.6,254.054,808.67,255.191Z" fill="#455a64"/>
            <path id="Path_5922" data-name="Path 5922" d="M857.528,164.721h-26.05c.48-.56.95-1.09,1.4-1.57h22.99C856.388,163.591,856.938,164.111,857.528,164.721Zm3.28,4.1h-32.58q-.555.765-1.11,1.56h34.74Q861.318,169.556,860.808,168.821Zm3.51,5.66h-39.77c-.3.52-.58,1.04-.85,1.56h41.47C864.878,175.5,864.588,174.981,864.318,174.481Zm2.95,5.67h-45.34c-.02.05-.04.11-.06.16-.15.44-.29.91-.44,1.4h46.59C867.768,181.171,867.518,180.661,867.268,180.151Zm2.64,5.66h-49.63c-.13.5-.27,1.02-.4,1.56h50.71C870.358,186.841,870.128,186.321,869.908,185.811Zm2.36,5.66h-53.38c-.11.52-.23,1.04-.35,1.57h54.31C872.658,192.5,872.458,191.981,872.268,191.471Zm1.99,5.67h-56.6q-.18.78-.33,1.56h57.44Q874.513,197.906,874.258,197.141Zm1.77,5.66H816.5c-.1.52-.21,1.04-.31,1.56H876.5C876.338,203.831,876.188,203.311,876.028,202.8Zm1.63,5.67h-62.25c-.1.52-.19,1.04-.29,1.56H878.1C877.948,209.511,877.808,208.991,877.658,208.471Zm1.53,5.66h-64.81c-.1.52-.19,1.04-.28,1.56h65.5C879.458,215.171,879.328,214.651,879.188,214.131Zm1.45,5.66h-67.25c-.09.52-.18,1.05-.27,1.57h67.9C880.888,220.841,880.758,220.311,880.638,219.791Zm1.37,5.67h-69.57c-.08.52-.17,1.04-.25,1.56h70.18Zm1.3,5.66h-71.77l-.24,1.56h72.36C883.548,232.161,883.428,231.641,883.308,231.121Zm1.25,5.66h-73.88c-.08.53-.15,1.06-.23,1.57h74.44C884.778,237.831,884.668,237.311,884.558,236.781Zm1.18,5.67h-75.86q-.12.81-.21,1.56h76.37C885.948,243.5,885.838,242.981,885.738,242.451Zm1.09,5.66h-77.69c-.06.55-.12,1.08-.17,1.57h78.14C887.018,249.181,886.928,248.651,886.828,248.111Zm.96,5.67H808.6a3.452,3.452,0,0,0,.07,1.41,1.167,1.167,0,0,0,.47.15h78.85C887.938,254.881,887.868,254.361,887.788,253.781Z" fill="#263238"/>
          </g>
          <g id="Group_4364" data-name="Group 4364">
            <g id="Group_4362" data-name="Group 4362">
              <path id="Path_5923" data-name="Path 5923" d="M864.077,166.959c33.54,25.207,62.542,60.187,59.758,71.259-2.945,11.708-26.131,24.816-46.6,27.487-4.194.547-17.166-30.2-12.871-31.613,3.346-1.1,18.563-5.427,20.382-7.514,1.265-1.451-22.349-34.671-30.033-52.015C846.671,156.412,855.1,160.21,864.077,166.959Z" fill="#f7c4a5"/>
              <g id="Group_4361" data-name="Group 4361">
                <g id="Group_4359" data-name="Group 4359">
                  <path id="Path_5924" data-name="Path 5924" d="M873.005,233.158s-12.8,1.287-21.129,2.523c-4.647.689-12.51,2.581-15.692,4.649-4.76,3.094-22.694,19.071-18.914,23.5,3.422,4.011,8.588-2.337,8.588-2.337s-6.3,6.409-1.681,9.344c4.66,2.963,10.583-5.964,10.583-5.964s-7.158,6.341-1.931,9.005c4.538,2.312,12.476-7.225,12.476-7.225s-8.244,5.831-3.827,8.655c4.881,3.121,18.579-9.684,18.579-9.684,10.956,1.223,17.7.478,25.418-1.688C886.892,263.542,873.005,233.158,873.005,233.158Z" fill="#f7c4a5"/>
                </g>
                <g id="Group_4360" data-name="Group 4360">
                  <path id="Path_5925" data-name="Path 5925" d="M832.835,267.018c.495-.681,1.007-1.35,1.5-2.029a41.456,41.456,0,0,1,3.064-3.841c1.088-1.171,2.225-2.288,3.4-3.374,1.239-1.148,2.6-2.175,3.811-3.351a.094.094,0,1,1,.127.138,43.542,43.542,0,0,0-3.416,3.652c-1.092,1.216-2.169,2.447-3.244,3.679-1.051,1.2-2.176,2.327-3.26,3.5-.541.585-1.056,1.194-1.57,1.8a13.354,13.354,0,0,1-1.5,1.7c-.057.048-.132-.027-.1-.088A10.325,10.325,0,0,1,832.835,267.018Z" fill="#263238"/>
                  <path id="Path_5926" data-name="Path 5926" d="M824.572,262.855A65.688,65.688,0,0,1,830.1,255.6a45.877,45.877,0,0,1,6.754-6.155.1.1,0,0,1,.127.138c-2.036,2.275-4.11,4.524-6.178,6.771-1.012,1.1-5.452,6.23-5.984,6.708C824.689,263.177,824.506,262.995,824.572,262.855Z" fill="#263238"/>
                  <path id="Path_5927" data-name="Path 5927" d="M840.5,271.133a64.462,64.462,0,0,1,5.32-6.728,58.668,58.668,0,0,1,6.874-5.454c.092-.053.205.065.126.138-2.143,1.984-4.314,3.926-6.362,6.012-1,1.016-4.739,5.3-5.776,6.185C840.584,271.366,840.44,271.238,840.5,271.133Z" fill="#263238"/>
                </g>
              </g>
            </g>
            <g id="Group_4363" data-name="Group 4363">
              <path id="Path_5928" data-name="Path 5928" d="M901.37,198.032,875.83,214.59s-18.949-29.337-23.867-43.236.819-13.929,14.221-3.861S901.37,198.032,901.37,198.032Z" fill="#455a64"/>
              <path id="Path_5929" data-name="Path 5929" d="M862.308,164.721h-12.02a7.7,7.7,0,0,1-.04-1.57h9.61C860.628,163.611,861.448,164.141,862.308,164.721Zm5.62,4.1h-16.78c.14.5.3,1.01.49,1.56h18.28C869.238,169.841,868.578,169.321,867.928,168.821Zm6.99,5.66H853.2c.21.5.44,1.02.68,1.56h22.9C876.158,175.511,875.538,174.981,874.918,174.481Zm6.65,5.67h-25.74q.375.765.78,1.56h26.75C882.768,181.191,882.168,180.671,881.568,180.151Zm6.43,5.66h-29.26c.28.51.56,1.04.85,1.56h30.14C889.158,186.861,888.588,186.341,888,185.811Zm6.27,5.66h-32.41c.3.52.6,1.05.89,1.57h33.23C895.438,192.541,894.868,192.021,894.268,191.471Zm6.15,5.67h-35.29c.31.53.61,1.05.92,1.56h34.29l1.03-.67S901.028,197.711,900.418,197.141ZM868.5,202.8c.32.53.64,1.06.94,1.56h22.17l2.4-1.56Zm3.47,5.67c.34.55.67,1.07.97,1.56h9.92l2.41-1.56Zm3.57,5.66c.19.3.29.46.29.46l.71-.46Z" fill="#263238"/>
              <path id="Path_5930" data-name="Path 5930" d="M895.567,194.371c-9.743,7.75-19.357,13.043-21.264,14.347-.09.062-.18-.091-.085-.148,1.938-1.182,12.353-8.84,21.255-14.362C895.576,194.144,895.66,194.3,895.567,194.371Z" fill="#263238"/>
              <path id="Path_5931" data-name="Path 5931" d="M877.468,213.457a14.643,14.643,0,0,0-1.552.8c-2.84-4.9-5.9-9.864-8.784-14.737q-2.123-3.583-4.243-7.167c-1.465-2.486-2.8-5.087-4.4-7.489a.065.065,0,0,0-.112.065c.987,2.38,2.267,4.664,3.485,6.941-.261-.349-.509-.707-.791-1.042-.629-.75-1.247-1.5-1.816-2.3-.087-.122-.292-.006-.2.118.543.761,1.028,1.548,1.511,2.349s1.011,1.562,1.548,2.328c.519.738,1.086,1.436,1.656,2.135.069.085.138.172.207.258.779,1.425,1.539,2.859,2.35,4.267,2.841,4.929,9.289,14.86,9.377,14.832a14.109,14.109,0,0,0,1.849-1.227C877.617,213.537,877.54,213.446,877.468,213.457Z" fill="#263238"/>
            </g>
          </g>
          <g id="Group_4370" data-name="Group 4370">
            <g id="Group_4367" data-name="Group 4367">
              <path id="Path_5932" data-name="Path 5932" d="M822.06,166c-27.226,14.146-52.785,31.346-57.582,43.294-3.018,7.519.706,21.143,3.745,29.342,1.479,3.992,39.128-11.544,36-14.851-7.738-8.182-8.968-11.466-8.141-13.121.529-1.059,30.318-26.92,38.676-38.579C846.4,155.84,833.971,159.809,822.06,166Z" fill="#f7c4a5"/>
              <g id="Group_4366" data-name="Group 4366">
                <path id="Path_5933" data-name="Path 5933" d="M818.444,260.71c-3.556,1.995-7.732-7.188-7.732-7.188a7.522,7.522,0,0,1-2.1,4.665c-2.26,2.121-6.576-.493-6.576-.493a9.273,9.273,0,0,1-3,4.567c-2.367,1.812-7.1-.2-7.1-.2a8.135,8.135,0,0,1-5.166,2.355c-5.222.163-9.659-6.468-12.522-10.654s-7.064-18.743-8.145-21.435l26.71-18.609s18.181,15.12,20.848,20.52C815.912,238.783,823.877,257.66,818.444,260.71Z" fill="#f7c4a5"/>
                <g id="Group_4365" data-name="Group 4365">
                  <path id="Path_5934" data-name="Path 5934" d="M810.772,253.393c-1.228-5.411-3.749-10.516-6.236-15.416a.1.1,0,0,0-.169.088c2.53,4.844,3.825,10.482,6.157,15.417A.134.134,0,0,0,810.772,253.393Z" fill="#263238"/>
                  <path id="Path_5935" data-name="Path 5935" d="M802.327,257.366a14.45,14.45,0,0,0-1.648-3.4q-1-1.746-2.055-3.456-2.113-3.426-4.4-6.744c-.067-.1-.234-.018-.168.088,1.4,2.279,2.764,4.579,4.067,6.915q.978,1.752,1.928,3.522A17.191,17.191,0,0,0,802,257.534.192.192,0,0,0,802.327,257.366Z" fill="#263238"/>
                  <path id="Path_5936" data-name="Path 5936" d="M791.883,261.959a10.075,10.075,0,0,0-1.647-2.985q-.995-1.541-1.973-3.093c-1.3-2.069-2.606-4.138-3.836-6.252-.062-.1-.23-.018-.169.088,1.239,2.154,2.449,4.324,3.708,6.466q.927,1.578,1.871,3.146a9.428,9.428,0,0,0,1.945,2.7A.067.067,0,0,0,791.883,261.959Z" fill="#263238"/>
                </g>
              </g>
            </g>
            <g id="Group_4369" data-name="Group 4369">
              <path id="Path_5937" data-name="Path 5937" d="M782.738,187.2l19.93,19.542s26.213-23.209,33.8-35.851,1.97-13.813-13.167-6.615S782.738,187.2,782.738,187.2Z" fill="#29c0ff"/>
              <g id="Group_4368" data-name="Group 4368">
                <path id="Path_5938" data-name="Path 5938" d="M782.738,187.2l19.93,19.542s26.213-23.209,33.8-35.851,1.97-13.813-13.167-6.615S782.738,187.2,782.738,187.2Z" fill="#455a64"/>
                <path id="Path_5939" data-name="Path 5939" d="M839.788,163.151a8.368,8.368,0,0,1-.35,1.57h-17.07c.31-.16.62-.3.93-.45.84-.4,1.65-.77,2.43-1.12Zm-25.41,5.67q-1.425.765-2.88,1.56h25.27c.32-.54.62-1.07.89-1.56Zm-10.2,5.66q-1.38.78-2.73,1.56h31.41c.41-.53.8-1.05,1.18-1.56Zm-9.77,5.67q-1.365.81-2.61,1.56h36.29c.46-.52.92-1.04,1.36-1.56Zm-9.42,5.66c-1.43.87-2.25,1.38-2.25,1.38l.18.18h39.92c.5-.52.99-1.04,1.48-1.56Zm2.11,5.66,1.6,1.57h28.55l1.57-1.57Zm5.78,5.67,1.59,1.56h16.92c.53-.5,1.08-1.03,1.65-1.56Zm5.77,5.66,1.59,1.56h5.07c.51-.46,1.08-.99,1.7-1.56Z" fill="#263238"/>
              </g>
              <path id="Path_5940" data-name="Path 5940" d="M806.813,201.632c-9.206-7.819-15.99-15.946-17.584-17.514-.075-.074.058-.185.13-.106,1.48,1.618,10.709,10.087,17.6,17.5C807.036,201.6,806.9,201.707,806.813,201.632Z" fill="#263238"/>
            </g>
            <path id="Path_5941" data-name="Path 5941" d="M824.434,175.644c-1.006,2.134-2,4.266-2.843,6.468.013-.148.024-.295.035-.443a27.73,27.73,0,0,1,.613-4.012c.034-.148-.193-.213-.227-.065-.3,1.329-.574,2.674-.789,4.02-.1.646-.162,1.3-.213,1.952-.005.067-.017.154-.027.233-.009.028-.02.055-.029.083-.964,2.928-1.579,5.929-2.41,8.891a.118.118,0,0,0,.226.064c.815-2.9,1.985-5.712,3.012-8.545s1.852-5.724,2.834-8.567C824.653,175.617,824.483,175.541,824.434,175.644Z" fill="#263238"/>
          </g>
          <g id="Group_4387" data-name="Group 4387">
            <g id="Group_4372" data-name="Group 4372">
              <g id="Group_4371" data-name="Group 4371">
                <path id="Path_5942" data-name="Path 5942" d="M838.462,173.307c4.376,1.206,12.2-5.26,15.4-10.617.216-.368-.212-4.34-.505-9.191-.166-2.945-.282-6.228-.171-9.231.025-.616-19,3.881-19,3.881a47.873,47.873,0,0,1,1.394,11.6,6.764,6.764,0,0,1-.174,1.227c-.009.057-.028.125-.035.2C834.9,163.5,834.233,172.138,838.462,173.307Z" fill="#f7c4a5"/>
              </g>
              <path id="Path_5943" data-name="Path 5943" d="M852.022,144.3c-1.061,5.045-4.671,17.194-14.73,17.051a11.372,11.372,0,0,1-1.923-.175.874.874,0,0,1,.032-.206,7.589,7.589,0,0,0,.178-1.223,47.874,47.874,0,0,0-1.4-11.606S847.907,144.9,852.022,144.3Z" fill="#263238"/>
            </g>
            <g id="Group_4386" data-name="Group 4386">
              <g id="Group_4373" data-name="Group 4373">
                <path id="Path_5944" data-name="Path 5944" d="M833.032,133.749c.089,4.615-3.121,8.419-7.169,8.5s-7.4-3.6-7.491-8.214,3.121-8.419,7.169-8.5S832.943,129.135,833.032,133.749Z" fill="#29c0ff"/>
                <ellipse id="Ellipse_1598" data-name="Ellipse 1598" cx="8.156" cy="9.297" rx="8.156" ry="9.297" transform="translate(818.925 125.014) rotate(-1.103)" fill="#c7c7c7"/>
              </g>
              <g id="Group_4374" data-name="Group 4374">
                <path id="Path_5945" data-name="Path 5945" d="M852.208,119.335c3.111,6.256,2.807,25.879-1.173,30.907-5.771,7.289-16.8,9.734-23.393,2.436-6.39-7.074-5.541-32.64-.948-37.372C833.46,108.336,847.612,110.094,852.208,119.335Z" fill="#f7c4a5"/>
              </g>
              <g id="Group_4380" data-name="Group 4380">
                <g id="Group_4375" data-name="Group 4375">
                  <path id="Path_5946" data-name="Path 5946" d="M836.748,136.381c.011-.05.1.064.1.118-.056,1.322.1,2.845,1.294,3.3.036.014.032.08-.013.074C836.673,139.648,836.483,137.624,836.748,136.381Z" fill="#263238"/>
                  <path id="Path_5947" data-name="Path 5947" d="M837.943,135.014c2.128-.139,2.249,4.126.278,4.255C836.281,139.4,836.16,135.13,837.943,135.014Z" fill="#263238"/>
                </g>
                <g id="Group_4376" data-name="Group 4376">
                  <path id="Path_5948" data-name="Path 5948" d="M829.353,136.631c-.011-.05-.1.065-.1.119.079,1.321-.052,2.846-1.235,3.319-.036.014-.031.081.013.073C829.486,139.9,829.64,137.869,829.353,136.631Z" fill="#263238"/>
                  <path id="Path_5949" data-name="Path 5949" d="M828.134,135.284c-2.129-.1-2.175,4.167-.2,4.26C829.874,139.636,829.919,135.369,828.134,135.284Z" fill="#263238"/>
                </g>
                <path id="Path_5950" data-name="Path 5950" d="M839.814,131.584a16.884,16.884,0,0,1-1.737-.233,2.838,2.838,0,0,1-1.726-.576.9.9,0,0,1-.08-1.1,2.237,2.237,0,0,1,2.161-.685A3.284,3.284,0,0,1,840.576,130,.962.962,0,0,1,839.814,131.584Z" fill="#263238"/>
                <path id="Path_5951" data-name="Path 5951" d="M826.089,132.226a16.334,16.334,0,0,0,1.682-.488,2.831,2.831,0,0,0,1.622-.824.9.9,0,0,0-.084-1.1,2.237,2.237,0,0,0-2.238-.358,3.3,3.3,0,0,0-1.972,1.313A.963.963,0,0,0,826.089,132.226Z" fill="#263238"/>
                <path id="Path_5952" data-name="Path 5952" d="M839.3,148.6c-.308.318-.611.753-1.089.807a3.494,3.494,0,0,1-1.43-.292.046.046,0,0,0-.055.069,1.777,1.777,0,0,0,1.7.67,1.408,1.408,0,0,0,1.006-1.2C839.45,148.576,839.348,148.55,839.3,148.6Z" fill="#263238"/>
                <g id="Group_4378" data-name="Group 4378">
                  <g id="Group_4377" data-name="Group 4377">
                    <path id="Path_5953" data-name="Path 5953" d="M837.8,144.68a4.5,4.5,0,0,1-2.946,2.087,5.678,5.678,0,0,1-1.617.12,1.562,1.562,0,0,1-.31-.027c-.1-.009-.184-.017-.29-.036a.329.329,0,0,1-.274-.288v-.01a.613.613,0,0,1,.009-.135v-.126c-.057-1.017,0-2.567,0-2.567-.367.2-2.238,1.1-2.223.571a67.731,67.731,0,0,1,1.359-13.665.122.122,0,0,1,.242.026c.035,4.241-.675,8.46-.708,12.721a7.9,7.9,0,0,1,2.1-.705c.146.038-.159,2.994-.1,3.448a.166.166,0,0,0,.01.049,6.24,6.24,0,0,0,4.616-1.578C837.771,144.487,837.878,144.573,837.8,144.68Z" fill="#263238"/>
                  </g>
                </g>
                <g id="Group_4379" data-name="Group 4379">
                  <path id="Path_5954" data-name="Path 5954" d="M833.825,146.354a5.343,5.343,0,0,0,2.184,1.6,2.4,2.4,0,0,0,1.462.049c1.047-.307,1.046-1.276.828-2.1a5.756,5.756,0,0,0-.508-1.255A6.917,6.917,0,0,1,833.825,146.354Z" fill="#263238"/>
                  <path id="Path_5955" data-name="Path 5955" d="M836.009,147.95a2.4,2.4,0,0,0,1.462.049c1.047-.307,1.046-1.276.828-2.1A2.483,2.483,0,0,0,836.009,147.95Z" fill="#ff98b9"/>
                </g>
              </g>
              <g id="Group_4382" data-name="Group 4382">
                <path id="Path_5956" data-name="Path 5956" d="M854.3,133.254c-1.286-.239-4.249-4.673-5.512-6.438-1.329-1.83-1.776-11.057-1.841-13.159a13.931,13.931,0,0,1,5.261,5.675C853.606,122.132,854.3,127.6,854.3,133.254Z" fill="#263238" opacity="0.2"/>
                <g id="Group_4381" data-name="Group 4381">
                  <path id="Path_5957" data-name="Path 5957" d="M830.794,120.891a6.651,6.651,0,0,0,6.08,2.218,6.783,6.783,0,0,0,5.195-4.074.053.053,0,0,1,.1.037,6.709,6.709,0,0,1-5.2,4.568,6.844,6.844,0,0,1-6.3-2.642C830.607,120.914,830.724,120.811,830.794,120.891Z" fill="#263238"/>
                  <path id="Path_5958" data-name="Path 5958" d="M837.576,104.454c3.849.062,7.4,2.172,8.818,4.787a7.449,7.449,0,0,1,.753,4.852c-.01.067-.148.054-.142-.013a8.183,8.183,0,0,0-3.9-7.373,10.546,10.546,0,0,0-9.334-1.067,6.674,6.674,0,0,0-3.567,2.9c-.074.139-.363.05-.3-.092C830.931,106.036,834.091,104.4,837.576,104.454Z" fill="#263238"/>
                  <path id="Path_5959" data-name="Path 5959" d="M815.266,112.927a8.48,8.48,0,0,1,3.591-4.585c2.353-1.476,5.025-1.276,7.676-1.021a.056.056,0,0,1-.01.111c-2.257-.208-4.559-.288-6.627.785a8.344,8.344,0,0,0-3.837,4.084,8.132,8.132,0,0,0,3.427,10.082,8.263,8.263,0,0,0,6.521.627c.084-.028.146.1.06.126a8.306,8.306,0,0,1-10.8-10.209Z" fill="#263238"/>
                  <path id="Path_5960" data-name="Path 5960" d="M853.505,123.15s3.586-6.921.49-10.877c-1.754-2.241-7.5-1.886-7.5-1.886a10.361,10.361,0,0,0-6.656-4.324c-4.821-1.051-10.509,1.816-10.509,1.816s-4.594-2.567-8.847-.078c-5.93,3.471-5.09,12.549.945,15.407,4.237,2.008,9.923-1.783,9.923-1.783.551.069,6.224,3.408,10.432-1.666,0,0,3.5,3.043,6.583.853A5.017,5.017,0,0,0,853.505,123.15Z" fill="#263238"/>
                </g>
              </g>
              <g id="Group_4383" data-name="Group 4383">
                <path id="Path_5961" data-name="Path 5961" d="M850.727,135.533s3.416-6.809,6.444-5.678,1.09,10.559-2.022,12.265a3.381,3.381,0,0,1-4.747-1.143Z" fill="#f7c4a5"/>
                <path id="Path_5962" data-name="Path 5962" d="M856.548,132.543c.052-.012.073.06.03.086-2.17,1.272-3.072,3.589-3.6,5.932a1.867,1.867,0,0,1,2.691-.909c.066.034.022.136-.045.132a2.081,2.081,0,0,0-2.16,1.05,10.065,10.065,0,0,0-.817,1.991c-.078.222-.466.166-.423-.083l.012-.056C851.748,137.753,853.433,133.3,856.548,132.543Z" fill="#263238"/>
              </g>
              <g id="Group_4385" data-name="Group 4385">
                <g id="Group_4384" data-name="Group 4384">
                  <path id="Path_5963" data-name="Path 5963" d="M843.3,149.181l6.223-2.492,5.106-6.032-.931-.787-4.91,5.8-5.941,2.379Z" fill="#c7c7c7"/>
                  <path id="Path_5964" data-name="Path 5964" d="M843.982,148.217c-.555-1.806-5.6-1.277-4.755,1.46S844.539,150.03,843.982,148.217Z" fill="#37474f"/>
                </g>
                <path id="Path_5965" data-name="Path 5965" d="M857.267,129.669s.934-10.055-1.873-15.688c-3.124-6.27-16.583-12.511-26.061-6.1,0,0,15.231-2.317,22.067,6.444,2.881,3.69,2.5,15.528,2.5,15.528Z" fill="#c7c7c7"/>
                <ellipse id="Ellipse_1599" data-name="Ellipse 1599" cx="9.297" cy="8.156" rx="9.297" ry="8.156" transform="translate(847.367 143.806) rotate(-87.942)" fill="#c7c7c7"/>
                <path id="Path_5966" data-name="Path 5966" d="M850.086,134.309c-.166,4.613,2.98,8.47,7.027,8.615s7.461-3.475,7.626-8.088-2.98-8.469-7.026-8.614S850.252,129.7,850.086,134.309Z" fill="#29c0ff"/>
              </g>
            </g>
          </g>
          <path id="Path_5967" data-name="Path 5967" d="M856.138,164.084a87.278,87.278,0,0,1-6.584,7.3c-2.25,2.1-4.947,3.992-8.028,4.3-2.981.3-5.969-.281-7.1-3.923-.9-2.888-.782-5.871-.3-9.582a.113.113,0,1,0-.222-.033c-.634,4.784-1.281,12.19,3.077,13.8,4.874,1.8,9.615-.743,13-4.128a44.966,44.966,0,0,0,6.257-7.67C856.261,164.1,856.181,164.034,856.138,164.084Z" fill="#263238"/>
        </g>
      </g>
      <g id="Group_4393" data-name="Group 4393">
        <g id="Group_4390" data-name="Group 4390">
          <rect id="Rectangle_2502" data-name="Rectangle 2502" width="88.927" height="3.989" transform="translate(792.264 273.564)" fill="#c7c7c7"/>
        </g>
        <g id="Group_4391" data-name="Group 4391">
          <path id="Path_5968" data-name="Path 5968" d="M862.163,273.564l3.044,3.989H792.264v-3.989Z" fill="#a6a6a6"/>
        </g>
        <g id="Group_4392" data-name="Group 4392">
          <path id="Path_5969" data-name="Path 5969" d="M858.359,277.548H771.694l-7.215-58.86h86.665Z" fill="#c7c7c7"/>
          <path id="Path_5970" data-name="Path 5970" d="M816.694,248.118a5.165,5.165,0,0,1-5.183,5.276,5.389,5.389,0,0,1-5.368-5.276,5.165,5.165,0,0,1,5.183-5.275A5.389,5.389,0,0,1,816.694,248.118Z" fill="#fff"/>
        </g>
      </g>
      <g id="Group_4396" data-name="Group 4396">
        <rect id="Rectangle_2503" data-name="Rectangle 2503" width="92.72" height="11.877" transform="translate(965.096 285.333)" fill="#455a64"/>
        <rect id="Rectangle_2504" data-name="Rectangle 2504" width="87.492" height="3.709" transform="translate(967.71 297.21)" fill="#37474f"/>
        <rect id="Rectangle_2505" data-name="Rectangle 2505" width="62.504" height="3.708" transform="translate(980.204 387.543)" fill="#455a64"/>
        <g id="Group_4394" data-name="Group 4394">
          <path id="Path_5971" data-name="Path 5971" d="M978.182,442.086h-4.637V300.919h12.637Z" fill="#455a64"/>
          <path id="Path_5972" data-name="Path 5972" d="M986.178,300.922l-.47,8.35h-12.16v-8.35Z" fill="#263238"/>
        </g>
        <g id="Group_4395" data-name="Group 4395">
          <path id="Path_5973" data-name="Path 5973" d="M1044.729,442.086h4.637V300.919h-12.637Z" fill="#455a64"/>
          <path id="Path_5974" data-name="Path 5974" d="M1036.733,300.922l.47,8.35h12.16v-8.35Z" fill="#263238"/>
        </g>
      </g>
      <g id="Group_4404" data-name="Group 4404">
        <g id="Group_4397" data-name="Group 4397">
          <rect id="Rectangle_2506" data-name="Rectangle 2506" width="71.464" height="12.176" transform="translate(967.71 255.711)" fill="#455a64"/>
          <rect id="Rectangle_2507" data-name="Rectangle 2507" width="6.661" height="12.176" transform="translate(1026.929 255.711)" fill="#ebebeb"/>
          <rect id="Rectangle_2508" data-name="Rectangle 2508" width="6.661" height="12.176" transform="translate(973.293 255.711)" fill="#ebebeb"/>
        </g>
        <g id="Group_4400" data-name="Group 4400">
          <rect id="Rectangle_2509" data-name="Rectangle 2509" width="78.416" height="17.445" transform="translate(971.333 267.888)" fill="#263238"/>
          <rect id="Rectangle_2510" data-name="Rectangle 2510" width="36.307" height="13.829" transform="translate(1049.743 283.521) rotate(180)" fill="#fff"/>
          <g id="Group_4398" data-name="Group 4398">
            <path id="Path_5975" data-name="Path 5975" d="M1049.743,272.537c-4.878-.1-18.153-.266-18.153-.266l-3.519.061q-7.317.054-14.634.2,7.317.148,14.634.205l3.519.062S1044.865,272.635,1049.743,272.537Z" fill="#dbdbdb"/>
            <path id="Path_5976" data-name="Path 5976" d="M1049.743,275.25c-4.878-.1-18.153-.266-18.153-.266l-3.519.061q-7.317.054-14.634.2,7.317.148,14.634.2l3.519.062S1044.865,275.348,1049.743,275.25Z" fill="#dbdbdb"/>
            <path id="Path_5977" data-name="Path 5977" d="M1049.743,277.963c-4.878-.1-18.153-.266-18.153-.266l-3.519.061q-7.317.054-14.634.205,7.317.148,14.634.2l3.519.062S1044.865,278.061,1049.743,277.963Z" fill="#dbdbdb"/>
            <path id="Path_5978" data-name="Path 5978" d="M1049.743,280.676c-4.878-.1-18.153-.266-18.153-.266l-3.519.061q-7.317.054-14.634.2,7.317.148,14.634.205l3.519.062S1044.865,280.774,1049.743,280.676Z" fill="#dbdbdb"/>
          </g>
          <g id="Group_4399" data-name="Group 4399">
            <path id="Path_5979" data-name="Path 5979" d="M977.2,278.983v-4.132a.38.38,0,0,1,.385-.386h2.291a.389.389,0,0,1,.385.386.4.4,0,0,1-.385.393h-1.9v1.281h1.631a.389.389,0,0,1,0,.777h-1.631v1.289h1.9a.389.389,0,0,1,0,.778H977.6c-.013,0-.013-.007-.013-.007l-.008.007A.385.385,0,0,1,977.2,278.983Z" fill="#29c0ff"/>
            <path id="Path_5980" data-name="Path 5980" d="M982.119,278.983a.389.389,0,0,1-.379.386.385.385,0,0,1-.385-.386v-4.076a.38.38,0,0,1,.155-.322.385.385,0,0,1,.532.084l2.262,3.13v-2.885a.382.382,0,0,1,.379-.378.386.386,0,0,1,.384.378v4.069a.388.388,0,0,1-.384.386.381.381,0,0,1-.288-.141.151.151,0,0,1-.035-.042l-2.241-3.109Z" fill="#29c0ff"/>
            <path id="Path_5981" data-name="Path 5981" d="M986.179,276.854a2.552,2.552,0,0,1,2.584-2.528,2.586,2.586,0,0,1,1.6.546.4.4,0,0,1,.077.567.408.408,0,0,1-.567.064,1.812,1.812,0,0,0-1.106-.378,1.737,1.737,0,0,0-1.261.51,1.661,1.661,0,0,0,0,2.424,1.734,1.734,0,0,0,1.261.511,1.938,1.938,0,0,0,.96-.266v-.96h-1a.4.4,0,0,1-.4-.4.394.394,0,0,1,.4-.392h1.393a.394.394,0,0,1,.406.392v1.548a.6.6,0,0,1-.02.119c-.008.015-.008.021-.015.035v.007a.322.322,0,0,1-.133.168,2.578,2.578,0,0,1-1.589.547A2.546,2.546,0,0,1,986.179,276.854Z" fill="#29c0ff"/>
            <path id="Path_5982" data-name="Path 5982" d="M991.743,278.983v-4.132a.385.385,0,0,1,.385-.386.39.39,0,0,1,.392.386v3.74h1.9a.389.389,0,0,1,0,.778h-2.291A.385.385,0,0,1,991.743,278.983Z" fill="#29c0ff"/>
            <path id="Path_5983" data-name="Path 5983" d="M995.768,274.851a.38.38,0,0,1,.385-.386.391.391,0,0,1,.392.386v4.132a.39.39,0,0,1-.392.386.379.379,0,0,1-.385-.386Z" fill="#29c0ff"/>
            <path id="Path_5984" data-name="Path 5984" d="M997.7,278.15a.366.366,0,0,1,.512-.049,2.281,2.281,0,0,0,1.337.539,1.519,1.519,0,0,0,.876-.258.634.634,0,0,0,.3-.5.4.4,0,0,0-.063-.224.663.663,0,0,0-.21-.211,2.809,2.809,0,0,0-.96-.329h-.014a3.789,3.789,0,0,1-.9-.273,1.493,1.493,0,0,1-.651-.546,1.069,1.069,0,0,1-.161-.575,1.292,1.292,0,0,1,.559-1.022,2.073,2.073,0,0,1,1.212-.371,2.743,2.743,0,0,1,1.527.56.36.36,0,0,1,.1.5.355.355,0,0,1-.5.106,2.031,2.031,0,0,0-1.128-.448,1.337,1.337,0,0,0-.784.237.558.558,0,0,0-.267.441.344.344,0,0,0,.05.2.659.659,0,0,0,.189.181,2.39,2.39,0,0,0,.876.309h.013a4.112,4.112,0,0,1,.967.294,1.63,1.63,0,0,1,.7.582,1.126,1.126,0,0,1,.168.6,1.356,1.356,0,0,1-.6,1.086,2.19,2.19,0,0,1-1.3.4,3.028,3.028,0,0,1-1.793-.7A.372.372,0,0,1,997.7,278.15Z" fill="#29c0ff"/>
            <path id="Path_5985" data-name="Path 5985" d="M1002.523,278.983v-4.132a.38.38,0,0,1,.385-.386.387.387,0,0,1,.393.386v1.681h1.813v-1.681a.381.381,0,0,1,.386-.386.387.387,0,0,1,.393.386v4.132a.387.387,0,0,1-.393.386.381.381,0,0,1-.386-.386V277.3H1003.3v1.681a.386.386,0,0,1-.393.386A.38.38,0,0,1,1002.523,278.983Z" fill="#29c0ff"/>
          </g>
        </g>
        <g id="Group_4402" data-name="Group 4402">
          <rect id="Rectangle_2511" data-name="Rectangle 2511" width="70.298" height="9.302" transform="translate(978.466 246.41)" fill="#29c0ff"/>
          <rect id="Rectangle_2512" data-name="Rectangle 2512" width="47.172" height="7.373" transform="translate(978.461 247.376)" fill="#fff"/>
          <path id="Path_5986" data-name="Path 5986" d="M981.514,253.232q5.514.057,11.03.08l11.029.024,11.03-.024q5.516-.021,11.03-.08-5.516-.057-11.03-.079l-11.03-.024-11.029.024Q987.029,253.174,981.514,253.232Z" fill="#dbdbdb"/>
          <path id="Path_5987" data-name="Path 5987" d="M981.514,251.786q5.514.057,11.03.079l11.029.024,11.03-.023q5.516-.021,11.03-.08-5.516-.057-11.03-.079l-11.03-.024-11.029.024Q987.029,251.728,981.514,251.786Z" fill="#dbdbdb"/>
          <path id="Path_5988" data-name="Path 5988" d="M981.514,250.34q5.514.056,11.03.079l11.029.024,11.03-.024q5.516-.021,11.03-.079-5.516-.059-11.03-.08l-11.03-.024-11.029.025Q987.029,250.281,981.514,250.34Z" fill="#dbdbdb"/>
          <path id="Path_5989" data-name="Path 5989" d="M981.514,248.893q5.514.057,11.03.079l11.029.025,11.03-.024q5.516-.021,11.03-.08-5.516-.057-11.03-.079l-11.03-.024-11.029.024Q987.029,248.835,981.514,248.893Z" fill="#dbdbdb"/>
          <g id="Group_4401" data-name="Group 4401">
            <path id="Path_5990" data-name="Path 5990" d="M1028.511,253.211v-4.132c0-.21.116-.385.266-.385h1.581c.141,0,.267.175.267.385s-.126.392-.267.392h-1.31v1.282h1.127c.145,0,.265.182.265.385s-.12.392-.265.392h-1.127v1.681c0,.21-.121.385-.271.385S1028.511,253.421,1028.511,253.211Z" fill="#37474f"/>
            <path id="Path_5991" data-name="Path 5991" d="M1033.677,253.015a.444.444,0,0,1-.169.491.337.337,0,0,1-.107.021h-.005a.277.277,0,0,1-.188-.078.662.662,0,0,1-.155-.245,2.624,2.624,0,0,1-.1-.84.756.756,0,0,0-.058-.3.573.573,0,0,0-.145-.2.79.79,0,0,0-.271-.169h-.57v1.52c0,.21-.121.385-.271.385s-.266-.175-.266-.385v-4.132c0-.217.116-.385.266-.385h.866c.575,0,1.035.672,1.035,1.505a1.8,1.8,0,0,1-.378,1.149,1.011,1.011,0,0,1,.17.259,1.765,1.765,0,0,1,.159.757,2.455,2.455,0,0,0,.02.413A.337.337,0,0,1,1033.677,253.015ZM1033,250.2c0-.406-.223-.728-.5-.728h-.595v1.443h.595C1032.777,250.914,1033,250.592,1033,250.2Z" fill="#37474f"/>
            <path id="Path_5992" data-name="Path 5992" d="M1034.462,253.211v-4.132c0-.217.116-.385.266-.385h1.582c.14,0,.266.168.266.385s-.126.392-.266.392H1035v1.282h1.127c.145,0,.266.182.266.385s-.121.392-.266.392H1035v1.289h1.311c.14,0,.266.175.266.392s-.126.385-.266.385h-1.568c-.01,0-.01-.006-.01-.006l0,.006C1034.578,253.6,1034.462,253.421,1034.462,253.211Z" fill="#37474f"/>
            <path id="Path_5993" data-name="Path 5993" d="M1037.863,253.211c0,.21-.121.385-.261.385s-.266-.175-.266-.385v-4.076a.46.46,0,0,1,.106-.322.219.219,0,0,1,.368.084l1.562,3.13v-2.885c0-.2.116-.378.262-.378s.265.175.265.378v4.069c0,.21-.121.385-.265.385a.246.246,0,0,1-.2-.14.224.224,0,0,1-.024-.042l-1.548-3.11Z" fill="#37474f"/>
            <path id="Path_5994" data-name="Path 5994" d="M1040.912,251.075c.005-1.387.808-2.514,1.774-2.522a1.5,1.5,0,0,1,1.119.547.554.554,0,0,1,.047.56.229.229,0,0,1-.386.077,1,1,0,0,0-.78-.385,1.113,1.113,0,0,0-.87.5,2.178,2.178,0,0,0-.353,1.219,2.144,2.144,0,0,0,.353,1.219,1.113,1.113,0,0,0,.87.5,1.01,1.01,0,0,0,.78-.385.234.234,0,0,1,.386.077.552.552,0,0,1-.047.56,1.5,1.5,0,0,1-1.119.546C1041.72,253.6,1040.917,252.469,1040.912,251.075Z" fill="#37474f"/>
            <path id="Path_5995" data-name="Path 5995" d="M1044.792,253.211v-4.132c0-.217.116-.385.267-.385s.27.168.27.385v1.681h1.253v-1.681c0-.217.116-.385.266-.385s.271.168.271.385v4.132c0,.217-.121.385-.271.385s-.266-.168-.266-.385V251.53h-1.253v1.681c0,.217-.121.385-.27.385S1044.792,253.428,1044.792,253.211Z" fill="#37474f"/>
          </g>
        </g>
        <g id="Group_4403" data-name="Group 4403">
          <path id="Path_5996" data-name="Path 5996" d="M982.67,263.8v-4.132a.38.38,0,0,1,.385-.386h.827a2.452,2.452,0,0,1,0,4.9h-.827A.384.384,0,0,1,982.67,263.8Zm.777-.392h.435a1.674,1.674,0,0,0,0-3.348h-.435Z" fill="#ebebeb"/>
          <path id="Path_5997" data-name="Path 5997" d="M987.4,259.664a.381.381,0,0,1,.386-.386.391.391,0,0,1,.392.386V263.8a.39.39,0,0,1-.392.385.38.38,0,0,1-.386-.385Z" fill="#ebebeb"/>
          <path id="Path_5998" data-name="Path 5998" d="M989.271,261.66a2.571,2.571,0,0,1,2.571-2.521,2.612,2.612,0,0,1,1.617.546.414.414,0,0,1,.07.56.41.41,0,0,1-.56.077,1.747,1.747,0,0,0-1.127-.385,1.853,1.853,0,0,0-1.261.5,1.73,1.73,0,0,0-.512,1.219,1.707,1.707,0,0,0,.512,1.219,1.853,1.853,0,0,0,1.261.5,1.76,1.76,0,0,0,1.127-.385.423.423,0,0,1,.56.077.413.413,0,0,1-.07.56,2.619,2.619,0,0,1-1.617.546A2.561,2.561,0,0,1,989.271,261.66Z" fill="#ebebeb"/>
          <path id="Path_5999" data-name="Path 5999" d="M997.882,260.056h-1.114v3.74a.379.379,0,0,1-.384.385A.385.385,0,0,1,996,263.8v-3.74h-1.106a.39.39,0,0,1-.385-.392.38.38,0,0,1,.385-.386h2.99a.385.385,0,0,1,.386.386A.4.4,0,0,1,997.882,260.056Z" fill="#ebebeb"/>
          <path id="Path_6000" data-name="Path 6000" d="M999.47,259.664a.38.38,0,0,1,.385-.386.391.391,0,0,1,.392.386V263.8a.39.39,0,0,1-.392.385.38.38,0,0,1-.385-.385Z" fill="#ebebeb"/>
          <path id="Path_6001" data-name="Path 6001" d="M1005.422,259.888a2.574,2.574,0,0,1,0,3.544,2.3,2.3,0,0,1-1.674.749,2.363,2.363,0,0,1-1.716-.749,2.612,2.612,0,0,1,0-3.544,2.337,2.337,0,0,1,1.716-.749A2.269,2.269,0,0,1,1005.422,259.888Zm-.091,1.772a1.812,1.812,0,0,0-.477-1.226,1.509,1.509,0,0,0-1.106-.5,1.526,1.526,0,0,0-1.135.5,1.783,1.783,0,0,0-.476,1.226,1.755,1.755,0,0,0,.476,1.219,1.533,1.533,0,0,0,1.135.5,1.516,1.516,0,0,0,1.106-.5A1.783,1.783,0,0,0,1005.331,261.66Z" fill="#ebebeb"/>
          <path id="Path_6002" data-name="Path 6002" d="M1008.095,263.8a.382.382,0,1,1-.764,0V259.72a.379.379,0,0,1,.154-.322.386.386,0,0,1,.533.084l2.261,3.13v-2.885a.382.382,0,0,1,.379-.378.387.387,0,0,1,.385.378V263.8a.388.388,0,0,1-.385.385.378.378,0,0,1-.287-.14.163.163,0,0,1-.035-.042l-2.241-3.11Z" fill="#ebebeb"/>
          <path id="Path_6003" data-name="Path 6003" d="M1015.221,263.026h-1.7l-.342.91a.393.393,0,0,1-.365.245.405.405,0,0,1-.132-.021.4.4,0,0,1-.232-.5l1.548-4.125a.391.391,0,0,1,.371-.245.383.383,0,0,1,.371.245l1.548,4.125a.4.4,0,0,1-.23.5.384.384,0,0,1-.134.021.378.378,0,0,1-.357-.245Zm-.287-.771-.568-1.505-.567,1.505Z" fill="#ebebeb"/>
          <path id="Path_6004" data-name="Path 6004" d="M1020.485,263.6a.386.386,0,0,1-.245.49.607.607,0,0,1-.153.021h-.008a.506.506,0,0,1-.272-.077.7.7,0,0,1-.225-.245,1.884,1.884,0,0,1-.147-.841.6.6,0,0,0-.083-.3.636.636,0,0,0-.211-.2,1.306,1.306,0,0,0-.392-.167h-.826V263.8a.391.391,0,0,1-.393.385.385.385,0,0,1-.386-.385v-4.132a.381.381,0,0,1,.386-.386h1.254a1.5,1.5,0,0,1,.952,2.655,1.085,1.085,0,0,1,.245.259,1.319,1.319,0,0,1,.232.756,1.85,1.85,0,0,0,.027.414A.377.377,0,0,1,1020.485,263.6Zm-.98-2.816a.722.722,0,0,0-.721-.728h-.861V261.5h.861A.719.719,0,0,0,1019.505,260.784Z" fill="#ebebeb"/>
          <path id="Path_6005" data-name="Path 6005" d="M1024.853,259.937l-1.436,1.968V263.8a.38.38,0,0,1-.385.385.389.389,0,0,1-.386-.385V261.9l-1.42-1.968a.367.367,0,0,1,.076-.532.372.372,0,0,1,.532.084l1.2,1.639,1.2-1.639a.384.384,0,0,1,.624.448Z" fill="#ebebeb"/>
        </g>
      </g>
    </g>
  </g>
</svg>
