<svg xmlns="http://www.w3.org/2000/svg" xmlns:xlink="http://www.w3.org/1999/xlink" width="438" height="394" viewBox="0 0 438 394">
  <defs>
    <clipPath id="clip-path">
      <rect id="Rectangle_3168" data-name="Rectangle 3168" width="438" height="394" transform="translate(-7145 7288)" fill="#fff"/>
    </clipPath>
  </defs>
  <g id="Mask_Group_74" data-name="Mask Group 74" transform="translate(7145 -7288)" clip-path="url(#clip-path)">
    <g id="Group_4481" data-name="Group 4481" transform="translate(-7176.341 7230.571)">
      <g id="Background_Complete" data-name="Background Complete">
        <g id="Group_4413" data-name="Group 4413">
          <g id="Group_4407" data-name="Group 4407">
            <rect id="Rectangle_2513" data-name="Rectangle 2513" width="166.633" height="7.306" transform="translate(219.303 119.059) rotate(180)" fill="#ebebeb"/>
            <g id="Group_4405" data-name="Group 4405">
              <rect id="Rectangle_2514" data-name="Rectangle 2514" width="7.31" height="24.168" transform="translate(202.651 119.063)" fill="#ebebeb"/>
              <rect id="Rectangle_2515" data-name="Rectangle 2515" width="7.31" height="7.47" transform="translate(202.651 119.063)" fill="#dbdbdb"/>
            </g>
            <g id="Group_4406" data-name="Group 4406">
              <rect id="Rectangle_2516" data-name="Rectangle 2516" width="7.31" height="24.168" transform="translate(62.007 119.063)" fill="#ebebeb"/>
              <rect id="Rectangle_2517" data-name="Rectangle 2517" width="7.31" height="7.47" transform="translate(62.007 119.063)" fill="#dbdbdb"/>
            </g>
          </g>
          <g id="Group_4412" data-name="Group 4412">
            <rect id="Rectangle_2518" data-name="Rectangle 2518" width="46.571" height="11.728" transform="translate(188.199 65.183) rotate(90)" fill="#c7c7c7"/>
            <rect id="Rectangle_2519" data-name="Rectangle 2519" width="5.118" height="11.728" transform="translate(188.199 62.693) rotate(90)" fill="#dbdbdb"/>
            <rect id="Rectangle_2520" data-name="Rectangle 2520" width="1.899" height="11.728" transform="translate(188.199 74.368) rotate(90)" fill="#dbdbdb"/>
            <rect id="Rectangle_2521" data-name="Rectangle 2521" width="5.117" height="13.189" transform="translate(188.199 100.528) rotate(90)" fill="#dbdbdb"/>
            <g id="Group_4408" data-name="Group 4408">
              <rect id="Rectangle_2522" data-name="Rectangle 2522" width="54.325" height="8.196" transform="translate(176.471 57.429) rotate(90)" fill="#dbdbdb"/>
              <rect id="Rectangle_2523" data-name="Rectangle 2523" width="20.894" height="4.919" transform="translate(174.868 62.536) rotate(90)" fill="#ebebeb"/>
            </g>
            <g id="Group_4409" data-name="Group 4409">
              <rect id="Rectangle_2524" data-name="Rectangle 2524" width="54.325" height="8.196" transform="matrix(-0.711, 0.703, -0.703, -0.711, 154.362, 73.574)" fill="#c7c7c7"/>
              <rect id="Rectangle_2525" data-name="Rectangle 2525" width="20.894" height="4.919" transform="matrix(-0.711, 0.703, -0.703, -0.711, 138.481, 86.929)" fill="#dbdbdb"/>
            </g>
            <g id="Group_4410" data-name="Group 4410">
              <rect id="Rectangle_2526" data-name="Rectangle 2526" width="41.265" height="13.919" transform="translate(168.281 70.499) rotate(90)" fill="#a6a6a6"/>
              <rect id="Rectangle_2527" data-name="Rectangle 2527" width="3.846" height="13.919" transform="translate(168.281 103.543) rotate(90)" fill="#c7c7c7"/>
              <rect id="Rectangle_2528" data-name="Rectangle 2528" width="1.491" height="13.919" transform="translate(168.281 99.527) rotate(90)" fill="#c7c7c7"/>
            </g>
            <g id="Group_4411" data-name="Group 4411">
              <rect id="Rectangle_2529" data-name="Rectangle 2529" width="38.78" height="9.615" transform="translate(197.814 72.984) rotate(90)" fill="#a6a6a6"/>
              <rect id="Rectangle_2530" data-name="Rectangle 2530" width="3.614" height="9.615" transform="translate(197.814 104.038) rotate(90)" fill="#c7c7c7"/>
              <rect id="Rectangle_2531" data-name="Rectangle 2531" width="3.615" height="9.615" transform="translate(197.814 80.977) rotate(90)" fill="#c7c7c7"/>
              <rect id="Rectangle_2532" data-name="Rectangle 2532" width="1.401" height="9.615" transform="translate(197.814 87.067) rotate(90)" fill="#c7c7c7"/>
            </g>
          </g>
        </g>
        <g id="Group_4419" data-name="Group 4419">
          <path id="Path_6006" data-name="Path 6006" d="M418.57,310.906H242.3V58.434H418.57Zm-171.13-5.144H413.426V63.578H247.44Z" fill="#ebebeb"/>
          <rect id="Rectangle_2533" data-name="Rectangle 2533" width="5.144" height="243.411" transform="translate(325.856 64.922)" fill="#ebebeb"/>
          <g id="Group_4418" data-name="Group 4418">
            <g id="Group_4414" data-name="Group 4414">
              <rect id="Rectangle_2534" data-name="Rectangle 2534" width="185.602" height="7.164" transform="translate(237.632 68.834)" fill="#ebebeb"/>
              <rect id="Rectangle_2535" data-name="Rectangle 2535" width="185.602" height="7.164" transform="translate(237.632 76.893)" fill="#ebebeb"/>
              <rect id="Rectangle_2536" data-name="Rectangle 2536" width="185.602" height="7.163" transform="translate(237.632 84.952)" fill="#ebebeb"/>
              <rect id="Rectangle_2537" data-name="Rectangle 2537" width="185.602" height="7.163" transform="translate(237.632 93.011)" fill="#ebebeb"/>
              <rect id="Rectangle_2538" data-name="Rectangle 2538" width="185.602" height="7.164" transform="translate(237.632 101.07)" fill="#ebebeb"/>
              <rect id="Rectangle_2539" data-name="Rectangle 2539" width="185.602" height="7.164" transform="translate(237.632 109.129)" fill="#ebebeb"/>
              <rect id="Rectangle_2540" data-name="Rectangle 2540" width="185.602" height="7.164" transform="translate(237.632 117.188)" fill="#ebebeb"/>
              <rect id="Rectangle_2541" data-name="Rectangle 2541" width="185.602" height="7.163" transform="translate(237.632 125.247)" fill="#ebebeb"/>
              <rect id="Rectangle_2542" data-name="Rectangle 2542" width="185.602" height="7.164" transform="translate(237.632 133.306)" fill="#ebebeb"/>
            </g>
            <g id="Group_4417" data-name="Group 4417">
              <g id="Group_4415" data-name="Group 4415">
                <rect id="Rectangle_2543" data-name="Rectangle 2543" width="1.286" height="139.396" transform="translate(406.669 67.381)" fill="#263238"/>
                <path id="Path_6007" data-name="Path 6007" d="M409.6,212.767h-4.566l1.145-6.559h2.276Z" fill="#263238"/>
              </g>
              <g id="Group_4416" data-name="Group 4416">
                <rect id="Rectangle_2544" data-name="Rectangle 2544" width="1.286" height="213.146" transform="translate(411.304 67.381)" fill="#263238"/>
                <path id="Path_6008" data-name="Path 6008" d="M414.229,285.349h-4.566l1.145-6.559h2.277Z" fill="#263238"/>
              </g>
            </g>
            <rect id="Rectangle_2545" data-name="Rectangle 2545" width="201.569" height="14.987" transform="translate(229.649 57.429)" fill="#dbdbdb"/>
          </g>
        </g>
        <g id="Group_4420" data-name="Group 4420">
          <rect id="Rectangle_2546" data-name="Rectangle 2546" width="26.481" height="11.19" transform="translate(46.113 291.365)" fill="#ebebeb"/>
          <rect id="Rectangle_2547" data-name="Rectangle 2547" width="26.481" height="11.19" transform="translate(31.341 305.475)" fill="#ebebeb"/>
          <rect id="Rectangle_2548" data-name="Rectangle 2548" width="26.481" height="11.19" transform="translate(147.943 207.329)" fill="#ebebeb"/>
          <rect id="Rectangle_2549" data-name="Rectangle 2549" width="26.481" height="11.19" transform="translate(133.171 221.439)" fill="#ebebeb"/>
          <rect id="Rectangle_2550" data-name="Rectangle 2550" width="26.481" height="11.19" transform="translate(118.457 207.329)" fill="#ebebeb"/>
          <rect id="Rectangle_2551" data-name="Rectangle 2551" width="26.481" height="11.19" transform="translate(442.178 305.475)" fill="#ebebeb"/>
          <rect id="Rectangle_2552" data-name="Rectangle 2552" width="26.481" height="11.19" transform="translate(427.407 87.009)" fill="#ebebeb"/>
          <rect id="Rectangle_2553" data-name="Rectangle 2553" width="26.481" height="11.19" transform="translate(442.178 101.119)" fill="#ebebeb"/>
          <rect id="Rectangle_2554" data-name="Rectangle 2554" width="26.481" height="11.19" transform="translate(46.113 87.009)" fill="#ebebeb"/>
        </g>
      </g>
      <g id="Shadow">
        <g id="Group_4421" data-name="Group 4421">
          <ellipse id="Ellipse_1600" data-name="Ellipse 1600" cx="195.202" cy="35.053" rx="195.202" ry="35.053" transform="translate(54.798 381.023)" fill="#ebebeb"/>
        </g>
        <ellipse id="Ellipse_1601" data-name="Ellipse 1601" cx="41.94" cy="8.282" rx="41.94" ry="8.282" transform="translate(62.56 378.747)" fill="#ebebeb"/>
      </g>
      <g id="Plant">
        <g id="Group_4428" data-name="Group 4428">
          <g id="Group_4423" data-name="Group 4423">
            <path id="Path_6009" data-name="Path 6009" d="M389.767,259.7c15.389,15.066,17.972,38.374,14.729,58.79-.084.463-.8.337-.8-.1,0-4.647.14-9.253.126-13.844-.084-.211-.154-.407-.239-.618-4.015-2.921-7.708-6.22-10-10.741-2.569-5.055-3.58-10.756-5.546-16.035-.183-.506.356-.357.709-.1,9.361,6.9,12.345,14.334,15.031,24.261a82.572,82.572,0,0,0-1.629-15.459c-2.022-9.421-6.023-18.759-12.791-25.751C389.107,259.837,389.5,259.43,389.767,259.7Z" fill="#263238"/>
            <g id="Group_4422" data-name="Group 4422">
              <path id="Path_6010" data-name="Path 6010" d="M386.875,261.453c-2.648.09-4.307,4.321-6.37,5.556a1.985,1.985,0,0,1-2.922-.459c-2.045-2.854.761-6.375,3.4-8.343-1.886.775-3.451,2.138-5.484,2.524a1.912,1.912,0,0,1-2.477-1.482c-.9-3.891,3.983-5.622,7.331-5.7-1.623-1.129-6.275-4.2-3.8-5.705,2.505-1.514,7.964,2.872,9.745,4.317,2.617,2.123,5.737,5.3,5.856,8.617C392.3,264.652,388.912,262.266,386.875,261.453Z" fill="#29a9ff"/>
              <path id="Path_6011" data-name="Path 6011" d="M386.875,261.453c-2.648.09-4.307,4.321-6.37,5.556a1.985,1.985,0,0,1-2.922-.459c-2.045-2.854.761-6.375,3.4-8.343-1.886.775-3.451,2.138-5.484,2.524a1.912,1.912,0,0,1-2.477-1.482c-.9-3.891,3.983-5.622,7.331-5.7-1.623-1.129-6.275-4.2-3.8-5.705,2.505-1.514,7.964,2.872,9.745,4.317,2.617,2.123,5.737,5.3,5.856,8.617C392.3,264.652,388.912,262.266,386.875,261.453Z" opacity="0.1"/>
              <path id="Path_6012" data-name="Path 6012" d="M387.641,262.106c-3.385-1.539-9.888.676-10.441-.6-1.12-2.608,4.076-4.4,6.881-4.743-2.584-.7-7.533-1.815-7.381-4.306.186-3.042,7.592-.426,11.34,2.448,4.723,3.622,4.692,7.115,3.911,7.815C390.88,263.675,388.2,262.36,387.641,262.106Z" fill="#29a9ff"/>
            </g>
          </g>
          <g id="Group_4425" data-name="Group 4425">
            <path id="Path_6013" data-name="Path 6013" d="M424.814,258.206c-15.951,14.469-19.419,37.662-16.954,58.186.066.467.787.367.8-.067.177-4.645.212-9.252.4-13.84.092-.207.169-.4.262-.608,4.123-2.766,7.939-5.922,10.4-10.353,2.76-4.954,3.987-10.612,6.152-15.812.2-.5-.342-.371-.705-.124-9.616,6.542-12.881,13.854-15.943,23.672a82.676,82.676,0,0,1,2.216-15.386c2.379-9.338,6.733-18.516,13.762-25.246C425.468,258.371,425.091,257.949,424.814,258.206Z" fill="#263238"/>
            <g id="Group_4424" data-name="Group 4424">
              <path id="Path_6014" data-name="Path 6014" d="M427.637,260.071c2.642.19,4.14,4.481,6.155,5.793a1.984,1.984,0,0,0,2.937-.347c2.151-2.774-.518-6.4-3.079-8.467,1.856.847,3.368,2.269,5.385,2.732a1.912,1.912,0,0,0,2.531-1.388c1.044-3.854-3.767-5.768-7.109-5.977,1.665-1.066,6.43-3.955,4.018-5.556-2.445-1.608-8.067,2.567-9.9,3.943-2.7,2.022-5.935,5.074-6.18,8.388C422.094,263.06,425.571,260.8,427.637,260.071Z" fill="#29a9ff"/>
              <path id="Path_6015" data-name="Path 6015" d="M427.637,260.071c2.642.19,4.14,4.481,6.155,5.793a1.984,1.984,0,0,0,2.937-.347c2.151-2.774-.518-6.4-3.079-8.467,1.856.847,3.368,2.269,5.385,2.732a1.912,1.912,0,0,0,2.531-1.388c1.044-3.854-3.767-5.768-7.109-5.977,1.665-1.066,6.43-3.955,4.018-5.556-2.445-1.608-8.067,2.567-9.9,3.943-2.7,2.022-5.935,5.074-6.18,8.388C422.094,263.06,425.571,260.8,427.637,260.071Z" opacity="0.1"/>
              <path id="Path_6016" data-name="Path 6016" d="M426.847,260.694c3.441-1.409,9.855,1.051,10.456-.208,1.219-2.563-3.9-4.548-6.7-5,2.608-.6,7.6-1.527,7.539-4.022-.07-3.047-7.57-.714-11.425,2.015-4.857,3.439-4.959,6.931-4.2,7.66C423.551,262.138,426.279,260.926,426.847,260.694Z" fill="#29a9ff"/>
            </g>
          </g>
          <g id="Group_4427" data-name="Group 4427">
            <path id="Path_6017" data-name="Path 6017" d="M408.5,296.421A156.919,156.919,0,0,1,403.55,319.3a.57.57,0,0,1-1.115-.225c1.048-7.051,2.958-13.971,4.006-21.021a105.931,105.931,0,0,0,1.225-21.582c-.672-11.88-3.9-24.519-11.651-33.815-.17-.22.191-.532.367-.327,15.521,18.1,13.052,40.286,13.038,42.274,2.2-7.492,4.461-16.08,12.773-23.709.359-.329.638-.172.579.387-1.487,13.9-5.35,21.152-13.407,28.581C409.136,292.065,408.853,294.257,408.5,296.421Z" fill="#263238"/>
            <g id="Group_4426" data-name="Group 4426">
              <path id="Path_6018" data-name="Path 6018" d="M395.875,244.739c-2.792-1.24-6.644,2.315-9.406,2.558a2.289,2.289,0,0,1-2.8-1.948c-.685-3.99,4-6.23,7.725-6.946-2.347-.145-4.657.482-6.961-.141a2.206,2.206,0,0,1-1.824-2.785c1.029-4.488,6.963-3.827,10.478-2.227-1.116-1.987-4.4-7.512-1.075-7.833,3.36-.31,6.817,6.988,7.937,9.383,1.647,3.521,3.288,8.384,1.738,11.889C399.895,250.789,397.58,246.608,395.875,244.739Z" fill="#29a9ff"/>
              <path id="Path_6019" data-name="Path 6019" d="M395.875,244.739c-2.792-1.24-6.644,2.315-9.406,2.558a2.289,2.289,0,0,1-2.8-1.948c-.685-3.99,4-6.23,7.725-6.946-2.347-.145-4.657.482-6.961-.141a2.206,2.206,0,0,1-1.824-2.785c1.029-4.488,6.963-3.827,10.478-2.227-1.116-1.987-4.4-7.512-1.075-7.833,3.36-.31,6.817,6.988,7.937,9.383,1.647,3.521,3.288,8.384,1.738,11.889C399.895,250.789,397.58,246.608,395.875,244.739Z" opacity="0.1"/>
              <path id="Path_6020" data-name="Path 6020" d="M396.341,245.8c-2.737-3.3-10.6-4.276-10.528-5.884.15-3.269,6.442-2.51,9.526-1.457-2.327-2.027-6.9-5.675-5.49-8.183,1.724-3.063,8.091,3.379,10.534,8.248,3.077,6.135,1.286,9.744.123,10.077C398.912,249.06,396.793,246.346,396.341,245.8Z" fill="#29a9ff"/>
            </g>
          </g>
          <path id="Path_6021" data-name="Path 6021" d="M418.714,300.6l6.846,52.3H383.9c.858-4.635,8.611-52.363,8.611-52.363Z" fill="#29a9ff"/>
        </g>
      </g>
      <g id="Notes">
        <g id="Group_4430" data-name="Group 4430">
          <path id="Path_6023" data-name="Path 6023" d="M346.308,408.177l30.168-17.813L414.807,403.2l-31.473,19.129Z" fill="#fff"/>
          <g id="Group_4429" data-name="Group 4429">
            <path id="Path_6024" data-name="Path 6024" d="M382.136,417.36c1.856-1.369,3.768-2.644,5.689-3.906s3.87-2.474,5.826-3.678c1.969-1.183,3.938-2.364,5.947-3.479l3.016-1.67c1.025-.526,2.031-1.08,3.071-1.58-.922.693-1.878,1.331-2.816,2L400,406.954c-1.915,1.27-3.871,2.474-5.828,3.676-1.969,1.183-3.938,2.364-5.948,3.479S384.206,416.343,382.136,417.36Z" fill="#dbdbdb"/>
            <path id="Path_6025" data-name="Path 6025" d="M387.121,410.12a59.893,59.893,0,0,1,6.75-4.687,59.075,59.075,0,0,1,7.27-3.834,59.255,59.255,0,0,1-6.751,4.688A59.9,59.9,0,0,1,387.121,410.12Z" fill="#dbdbdb"/>
            <path id="Path_6026" data-name="Path 6026" d="M373.047,414.464c1.855-1.369,3.767-2.644,5.688-3.9s3.871-2.475,5.827-3.678c1.968-1.184,3.937-2.365,5.947-3.48l3.016-1.67c1.024-.525,2.031-1.08,3.071-1.58-.922.693-1.878,1.331-2.816,2l-2.872,1.908c-1.915,1.27-3.87,2.474-5.827,3.677-1.969,1.182-3.938,2.363-5.948,3.478S375.116,413.448,373.047,414.464Z" fill="#dbdbdb"/>
            <path id="Path_6027" data-name="Path 6027" d="M371.885,410.96c3.157-2.379,6.471-4.5,9.824-6.555,3.368-2.031,6.776-4,10.342-5.7-3.155,2.381-6.469,4.5-9.823,6.555C378.858,407.288,375.451,409.253,371.885,410.96Z" fill="#dbdbdb"/>
            <path id="Path_6028" data-name="Path 6028" d="M375.829,404.353a41.592,41.592,0,0,1,5.579-3.976,41.156,41.156,0,0,1,6.1-3.122,41.118,41.118,0,0,1-5.58,3.976A41.586,41.586,0,0,1,375.829,404.353Z" fill="#dbdbdb"/>
          </g>
        </g>
        <g id="Group_4431" data-name="Group 4431">
          <path id="Path_6029" data-name="Path 6029" d="M282.606,421.3l47.664-18.617,45.991,27.73-47.423,19.28Z" fill="#fff"/>
          <path id="Path_6030" data-name="Path 6030" d="M328.168,444.044c3.105-1.485,6.251-2.868,9.4-4.236s6.326-2.684,9.5-3.99c3.187-1.283,6.374-2.565,9.591-3.775l4.826-1.811c1.622-.57,3.232-1.172,4.866-1.714-1.549.752-3.122,1.444-4.682,2.168l-4.721,2.07c-3.148,1.378-6.325,2.684-9.5,3.988-3.188,1.282-6.375,2.564-9.592,3.773S331.428,442.941,328.168,444.044Z" fill="#dbdbdb"/>
          <path id="Path_6031" data-name="Path 6031" d="M340.385,434.171c3.4-1.806,6.909-3.331,10.448-4.788,3.551-1.428,7.131-2.786,10.826-3.861-3.4,1.808-6.909,3.333-10.449,4.787C347.658,431.736,344.078,433.094,340.385,434.171Z" fill="#dbdbdb"/>
          <path id="Path_6032" data-name="Path 6032" d="M323.47,436.141c2.713-1.325,5.468-2.55,8.229-3.758s5.542-2.366,8.328-3.513c2.795-1.124,5.591-2.246,8.416-3.3L352.682,424c1.427-.49,2.841-1.012,4.279-1.475-1.353.673-2.73,1.285-4.094,1.929l-4.134,1.832c-2.757,1.218-5.543,2.365-8.329,3.51-2.8,1.123-5.592,2.246-8.417,3.3S326.339,435.2,323.47,436.141Z" fill="#dbdbdb"/>
          <path id="Path_6033" data-name="Path 6033" d="M321.252,432.137c2.506-1.242,5.054-2.382,7.608-3.507s5.13-2.2,7.709-3.26c2.589-1.04,5.178-2.079,7.8-3.045l3.929-1.447c1.323-.449,2.634-.929,3.969-1.349-1.25.63-2.524,1.2-3.784,1.8l-3.824,1.7c-2.55,1.135-5.13,2.2-7.71,3.259-2.589,1.039-5.178,2.077-7.8,3.043S323.914,431.277,321.252,432.137Z" fill="#dbdbdb"/>
          <path id="Path_6034" data-name="Path 6034" d="M309.376,432.058c3.1-1.485,6.251-2.868,9.4-4.236s6.326-2.684,9.5-3.99c3.187-1.283,6.374-2.565,9.591-3.774l4.826-1.812c1.622-.57,3.232-1.172,4.866-1.714-1.549.752-3.122,1.444-4.682,2.168l-4.721,2.07c-3.148,1.378-6.325,2.684-9.5,3.988-3.187,1.282-6.375,2.564-9.591,3.773S312.636,430.955,309.376,432.058Z" fill="#dbdbdb"/>
          <path id="Path_6035" data-name="Path 6035" d="M308.983,427.312c2.746-1.339,5.533-2.577,8.326-3.8s5.608-2.392,8.427-3.552c2.828-1.138,5.657-2.273,8.515-3.337l4.288-1.593c1.443-.5,2.873-1.026,4.328-1.495-1.369.679-2.763,1.3-4.143,1.949l-4.183,1.851c-2.79,1.232-5.609,2.392-8.428,3.551-2.829,1.136-5.657,2.272-8.515,3.335S311.884,426.355,308.983,427.312Z" fill="#dbdbdb"/>
          <path id="Path_6036" data-name="Path 6036" d="M299.98,426.065c3.1-1.485,6.251-2.868,9.4-4.236s6.326-2.684,9.5-3.99c3.187-1.283,6.374-2.565,9.591-3.774l4.826-1.812c1.622-.57,3.232-1.172,4.866-1.713-1.549.751-3.122,1.443-4.681,2.167l-4.722,2.07c-3.148,1.378-6.325,2.684-9.5,3.988-3.187,1.283-6.375,2.564-9.591,3.774S303.24,424.962,299.98,426.065Z" fill="#dbdbdb"/>
          <path id="Path_6037" data-name="Path 6037" d="M310.9,416.719c3.614-1.893,7.342-3.506,11.1-5.051,3.767-1.516,7.563-2.962,11.474-4.125-3.613,1.9-7.341,3.509-11.1,5.051C318.606,414.108,314.81,415.554,310.9,416.719Z" fill="#dbdbdb"/>
        </g>
        <g id="Group_4433" data-name="Group 4433">
          <path id="Path_6038" data-name="Path 6038" d="M181.381,395.32l136.8-36.023,63.645,34.116L248.008,438Z" fill="#29a9ff"/>
          <path id="Path_6039" data-name="Path 6039" d="M189.865,394.7l61,39.215,125.412-41.692-61.531-32.68s-37.532,4.94-39.278,5.482-18.3,7.417-18.3,7.417-23.22,4.039-24.8,4.568S189.865,394.7,189.865,394.7Z" fill="#fff"/>
          <g id="Group_4432" data-name="Group 4432">
            <path id="Path_6040" data-name="Path 6040" d="M257.173,372.446l7.448,4.829,7.4,4.894,14.74,9.888,14.642,10.032,7.286,5.067,7.242,5.132-7.448-4.828-7.4-4.893-14.739-9.889L271.7,382.644l-7.286-5.067Z" fill="#dbdbdb"/>
            <path id="Path_6041" data-name="Path 6041" d="M268.822,401.023c1.581-.516,3.186-.954,4.8-1.38s3.231-.812,4.854-1.19c1.628-.36,3.256-.718,4.9-1.02s3.28-.607,4.938-.823c-1.59.52-3.2.958-4.8,1.384s-3.226.811-4.846,1.186c-1.624.358-3.248.716-4.888,1.017S270.488,400.8,268.822,401.023Z" fill="#dbdbdb"/>
            <path id="Path_6042" data-name="Path 6042" d="M240.84,417.353c4.133-1.966,8.3-3.863,12.47-5.738,4.167-1.891,8.372-3.692,12.568-5.519,2.1-.916,4.21-1.785,6.348-2.633a10.659,10.659,0,0,1,1.685-.5l1.676-.388,3.351-.743c4.479-.94,8.959-1.864,13.464-2.681-4.431,1.151-8.882,2.206-13.327,3.284l-3.338.788a25.63,25.63,0,0,0-3.256.9c-2.112.846-4.2,1.779-6.316,2.654l-12.635,5.35C249.312,413.892,245.089,415.651,240.84,417.353Z" fill="#dbdbdb"/>
            <path id="Path_6043" data-name="Path 6043" d="M245.113,420.156c4-1.945,8.033-3.827,12.076-5.683,4.031-1.881,8.108-3.661,12.171-5.474q3.048-1.36,6.138-2.632c.52-.209,1.024-.424,1.585-.617.551-.175,1.1-.284,1.637-.417l3.257-.735c4.354-.919,8.712-1.812,13.094-2.6-4.305,1.131-8.633,2.161-12.952,3.216l-3.242.772c-.536.138-1.083.256-1.589.424-.49.175-1.008.4-1.518.61l-6.119,2.639c-4.088,1.749-8.145,3.573-12.243,5.3C253.322,416.723,249.229,418.465,245.113,420.156Z" fill="#dbdbdb"/>
            <path id="Path_6044" data-name="Path 6044" d="M249.35,422.477c4.084-1.788,8.193-3.513,12.312-5.212,4.11-1.725,8.26-3.347,12.4-5.005,2.083-.818,4.12-1.648,6.287-2.361l6.435-1.8c4.3-1.157,8.6-2.321,12.937-3.38-4.235,1.4-8.5,2.69-12.762,3.989l-6.414,1.879c-2.057.7-4.142,1.577-6.218,2.354-4.16,1.593-8.292,3.26-12.462,4.831C257.7,419.365,253.537,420.947,249.35,422.477Z" fill="#dbdbdb"/>
            <path id="Path_6045" data-name="Path 6045" d="M310.786,402.172q5.688-2.776,11.546-5.161c.978-.4,1.948-.808,2.942-1.174.5-.182.989-.363,1.528-.518l1.529-.408,6.106-1.622c4.068-1.1,8.154-2.121,12.231-3.182s8.166-2.073,12.259-3.077q-6.064,1.782-12.147,3.5c-4.058,1.131-8.107,2.3-12.174,3.4l-6.1,1.666-1.521.418c-.471.146-.968.337-1.454.524l-2.942,1.13C318.681,399.214,314.759,400.752,310.786,402.172Z" fill="#dbdbdb"/>
            <path id="Path_6046" data-name="Path 6046" d="M306.663,398.943q5.646-2.375,11.412-4.424c1.925-.683,3.824-1.4,5.831-1.929l5.9-1.611c3.929-1.088,7.875-2.113,11.815-3.161s7.891-2.057,11.846-3.053c-3.9,1.182-7.81,2.354-11.73,3.481s-7.831,2.283-11.761,3.373l-5.889,1.656c-.982.259-1.914.6-2.888.924l-2.9.972Q312.524,397.166,306.663,398.943Z" fill="#dbdbdb"/>
            <path id="Path_6047" data-name="Path 6047" d="M302.685,396.071c3.746-1.549,7.524-3.012,11.343-4.359,1.915-.67,3.8-1.381,5.767-1.96l5.91-1.442c3.933-.964,7.88-1.874,11.823-2.795s7.895-1.811,11.85-2.68c-3.908,1.063-7.818,2.113-11.739,3.118s-7.836,2.035-11.766,3c-1.958.5-3.94.969-5.877,1.485l-5.745,1.913Q308.509,394.321,302.685,396.071Z" fill="#dbdbdb"/>
            <path id="Path_6048" data-name="Path 6048" d="M299.284,393.946c3.593-1.936,7.29-3.639,11.053-5.225.472-.2.947-.383,1.438-.553a10.835,10.835,0,0,1,1.511-.418l2.986-.652,5.972-1.275c7.97-1.658,15.948-3.282,23.947-4.8-7.923,1.877-15.867,3.656-23.811,5.431l-5.961,1.315-2.975.672a16.561,16.561,0,0,0-2.831.964C306.845,390.909,303.114,392.543,299.284,393.946Z" fill="#dbdbdb"/>
            <path id="Path_6049" data-name="Path 6049" d="M295.554,391.353c3.594-1.935,7.29-3.638,11.053-5.225.472-.2.948-.383,1.438-.552a10.813,10.813,0,0,1,1.512-.419l2.985-.652,5.972-1.274c7.971-1.659,15.948-3.282,23.948-4.8-7.923,1.877-15.868,3.656-23.812,5.432l-5.961,1.315-2.975.671a16.549,16.549,0,0,0-2.83.964C303.116,388.317,299.385,389.951,295.554,391.353Z" fill="#dbdbdb"/>
            <path id="Path_6050" data-name="Path 6050" d="M291.824,388.76c3.594-1.935,7.291-3.638,11.053-5.225.472-.2.948-.382,1.439-.552a10.759,10.759,0,0,1,1.511-.418l2.985-.652,5.972-1.275c7.971-1.658,15.948-3.282,23.948-4.8-7.923,1.877-15.867,3.656-23.812,5.431l-5.961,1.315-2.974.671a16.619,16.619,0,0,0-2.831.964C299.386,385.724,295.655,387.358,291.824,388.76Z" fill="#dbdbdb"/>
            <path id="Path_6051" data-name="Path 6051" d="M288.1,386.168c3.593-1.936,7.29-3.638,11.053-5.225.472-.2.947-.383,1.438-.553a10.8,10.8,0,0,1,1.511-.418l2.986-.652,5.972-1.275c7.97-1.658,15.948-3.281,23.948-4.8-7.924,1.877-15.868,3.656-23.812,5.431l-5.961,1.315-2.975.672a16.557,16.557,0,0,0-2.831.964C295.656,383.132,291.925,384.766,288.1,386.168Z" fill="#dbdbdb"/>
            <path id="Path_6052" data-name="Path 6052" d="M283.285,384.085c3.593-1.936,7.29-3.638,11.053-5.225.472-.2.947-.383,1.438-.553a10.835,10.835,0,0,1,1.511-.418l2.986-.652,5.972-1.274c7.97-1.659,15.948-3.282,23.948-4.8-7.924,1.877-15.868,3.656-23.812,5.431l-5.961,1.316-2.975.671a16.56,16.56,0,0,0-2.831.964C290.846,381.049,287.115,382.683,283.285,384.085Z" fill="#dbdbdb"/>
            <path id="Path_6053" data-name="Path 6053" d="M278.605,382.023c3.594-1.935,7.29-3.638,11.053-5.224.472-.2.948-.384,1.438-.553a10.672,10.672,0,0,1,1.512-.418l2.985-.652,5.972-1.275c7.971-1.658,15.948-3.282,23.948-4.8-7.923,1.877-15.868,3.656-23.812,5.431l-5.961,1.315-2.975.671a16.468,16.468,0,0,0-2.83.965C286.166,378.987,282.436,380.621,278.605,382.023Z" fill="#dbdbdb"/>
            <path id="Path_6054" data-name="Path 6054" d="M274.875,379.431c3.588-1.932,7.278-3.633,11.035-5.217.471-.2.945-.384,1.435-.553a9.548,9.548,0,0,1,1.514-.414l2.992-.606,5.984-1.169c7.986-1.514,15.979-2.987,23.992-4.353-7.943,1.726-15.906,3.355-23.867,4.986l-5.973,1.21-2.979.624a15.919,15.919,0,0,0-2.822.958C282.425,376.4,278.7,378.031,274.875,379.431Z" fill="#dbdbdb"/>
            <path id="Path_6055" data-name="Path 6055" d="M271.146,376.838c3.582-1.929,7.266-3.627,11.016-5.209.471-.2.943-.385,1.432-.553a8.747,8.747,0,0,1,1.519-.411l3-.552,6-1.051c8-1.35,16.013-2.652,24.041-3.844-7.966,1.554-15.949,3.012-23.928,4.48l-5.985,1.091-2.983.571a15.266,15.266,0,0,0-2.813.952C278.683,373.813,274.964,375.44,271.146,376.838Z" fill="#dbdbdb"/>
            <path id="Path_6056" data-name="Path 6056" d="M267.416,374.245c3.575-1.924,7.252-3.621,11-5.2.469-.2.94-.385,1.428-.553a7.566,7.566,0,0,1,1.524-.4l3.011-.468,6.015-.856c4.012-.556,8.031-1.054,12.048-1.573s8.038-.988,12.063-1.441c-8,1.274-16.012,2.453-24.019,3.653l-6,.9-2.988.485a14.248,14.248,0,0,0-2.8.941C274.939,371.227,271.226,372.85,267.416,374.245Z" fill="#dbdbdb"/>
            <path id="Path_6057" data-name="Path 6057" d="M253.68,426.082c4.175-1.7,8.375-3.321,12.582-4.926,4.2-1.622,8.437-3.155,12.659-4.722,2.12-.781,4.221-1.529,6.393-2.248l6.467-1.946c4.322-1.258,8.645-2.517,13-3.681-4.253,1.487-8.539,2.877-12.824,4.269l-6.444,2.03c-2.1.7-4.221,1.527-6.339,2.267l-12.719,4.55C262.206,423.174,257.955,424.659,253.68,426.082Z" fill="#dbdbdb"/>
            <path id="Path_6058" data-name="Path 6058" d="M313.857,405.336c4.225-1.609,8.473-3.149,12.729-4.667,4.25-1.536,8.531-2.982,12.8-4.462,2.143-.738,4.268-1.442,6.461-2.117l6.529-1.814c4.362-1.17,8.725-2.341,13.117-3.415-4.3,1.4-8.628,2.7-12.956,4.006l-6.507,1.9c-2.122.663-4.267,1.44-6.408,2.137l-12.858,4.289C322.473,402.6,318.176,404,313.857,405.336Z" fill="#dbdbdb"/>
          </g>
        </g>
      </g>
      <g id="Trash">
        <g id="Group_4434" data-name="Group 4434">
          <path id="Path_6059" data-name="Path 6059" d="M189.775,412.621c3.336-.476,7.624-.476,7.862,1.43s-1.27,2.938-.794,3.891,3.177,2.7,4.447,3.971a9.275,9.275,0,0,1,2.224,3.97c0,.477.794,1.271,0,2.224s-1.241,2.386-1.891,3.1-.937,1.507,0,2.777.143,4.924-1.287,6.2-5.559-1.747-6.829-1.43-1.429.946-2.541,1.743-3.812,2.7-6.671,2.7-4.288-2.541-6.035-3.653-3.336-1.27-4.924-1.906a8.993,8.993,0,0,1-3.653-2.7c-.318-.635-1.429-.794-.953-2.541S170,430.171,170,428.742s.02-1.679.01-3.3-1.281-4.481-.169-5.752,1.906-3.176,3.653-3.176,7.306.953,7.306.953a14.833,14.833,0,0,0,1.588-2.065,4.6,4.6,0,0,1,3.85-2.224A11.558,11.558,0,0,0,189.775,412.621Z" fill="#fff"/>
          <path id="Path_6060" data-name="Path 6060" d="M170,428.742c2.27,1.047,4.583,1.988,6.906,2.9,2.3.955,4.613,1.888,6.944,2.745a63.975,63.975,0,0,0,6.98,2.265,5.512,5.512,0,0,0,1.452.169l1.4-.7a22.184,22.184,0,0,0,3.043-1.873,8.445,8.445,0,0,0,2.31-2.365,4.846,4.846,0,0,0,.338-.676l.1-.349.047-.157c-.008.009,0,.025,0,.01a2.839,2.839,0,0,0-.612-1.062,34.022,34.022,0,0,0-5.441-4.745c-1.98-1.478-4.046-2.863-6.154-4.174-1.043-.678-2.1-1.335-3.18-1.95-.54-.307-1.088-.6-1.645-.872-.277-.139-.557-.272-.845-.384-.265-.072-.635-.3-.845-.058.189-.3.609-.119.889-.094.311.064.616.151.919.243.6.2,1.187.428,1.769.667,1.165.48,2.308,1.006,3.442,1.554q3.357,1.721,6.562,3.742a29.377,29.377,0,0,1,6.053,4.8,4.043,4.043,0,0,1,1.1,2.205,1.953,1.953,0,0,1-.023.476l-.074.3-.159.55a6.987,6.987,0,0,1-.48,1.005,10.362,10.362,0,0,1-2.83,3.013,24.177,24.177,0,0,1-3.354,2.01l-.858.423-.426.205-.237.108a3.792,3.792,0,0,1-.467.138,6.02,6.02,0,0,1-2.252-.233,47.048,47.048,0,0,1-7.14-2.708A95.648,95.648,0,0,1,170,428.742Z" fill="#c7c7c7"/>
          <path id="Path_6061" data-name="Path 6061" d="M179.478,433.049a42.2,42.2,0,0,1,4.126-5.491c.742-.875,1.551-1.687,2.37-2.508.413-.407.861-.787,1.316-1.171a7.443,7.443,0,0,1,1.673-1.105,3.082,3.082,0,0,1,.314-.118,2.206,2.206,0,0,1,.67-.019,1.716,1.716,0,0,1,.875.47,6.34,6.34,0,0,1,.652.8,15.847,15.847,0,0,1,.958,1.515c.552,1.027,1.092,2.039,1.541,3.1a27.84,27.84,0,0,1,2.165,6.534l-3.608-5.77c-.61-.947-1.171-1.918-1.791-2.832-.3-.456-.6-.928-.907-1.326a4.807,4.807,0,0,0-.431-.512c.005.036.01,0,.155.071a.313.313,0,0,0,.246-.005.4.4,0,0,1-.078.045,6.151,6.151,0,0,0-1.16.755l-1.266,1.041-2.546,2.192C183.052,430.192,181.332,431.675,179.478,433.049Z" fill="#c7c7c7"/>
        </g>
        <g id="Group_4435" data-name="Group 4435">
          <path id="Path_6062" data-name="Path 6062" d="M128.188,428.439c-1.8.432-4.153.652-4.381-.38s.545-1.675.235-2.173a22.161,22.161,0,0,0-2.64-1.947,5.1,5.1,0,0,1-1.422-2.061c-.025-.261-.5-.656-.114-1.218s.557-1.372.877-1.8a1.041,1.041,0,0,0-.143-1.521c-.579-.648-.331-2.69.387-3.46s3.135.672,3.815.433.734-.592,1.3-1.086a6.829,6.829,0,0,1,3.516-1.824c1.566-.146,2.479,1.172,3.494,1.692a13.2,13.2,0,0,0,2.795.791,4.954,4.954,0,0,1,2.14,1.292c.207.332.824.362.653,1.343s-.582,1.284-.509,2.067.075.921.164,1.809.932,2.39.388,3.143-.881,1.838-1.838,1.928-4.052-.147-4.052-.147a8.076,8.076,0,0,0-.764,1.213,2.535,2.535,0,0,1-2,1.416A6.355,6.355,0,0,0,128.188,428.439Z" fill="#fff"/>
          <path id="Path_6063" data-name="Path 6063" d="M121.282,418.237c.964-1.033,2-1.952,2.981-2.919l.763-.693.389-.349a2.109,2.109,0,0,1,.768-.375,11.212,11.212,0,0,1,2.227-.28,21.89,21.89,0,0,1,4.328.241,7.027,7.027,0,0,1,2.322.717,2.358,2.358,0,0,1,1.028,1.427,4.407,4.407,0,0,1,.169,1.323,13.785,13.785,0,0,1-.98,4.391,18.416,18.416,0,0,1-.929,2,9.011,9.011,0,0,1-.617.987,2.576,2.576,0,0,1-1.165.9,10.841,10.841,0,0,1-4.453.288,30.068,30.068,0,0,1-4.164-.733c1.4-.1,2.794-.121,4.165-.292a12.419,12.419,0,0,0,3.774-.748c.267-.139.195-.137.4-.417a8.786,8.786,0,0,0,.426-.819,16.419,16.419,0,0,0,.7-1.837,12.75,12.75,0,0,0,.754-3.734,1.509,1.509,0,0,1,.472-.994,14.1,14.1,0,0,0-2.276-.523,28.579,28.579,0,0,0-3.968-.555,13.274,13.274,0,0,0-1.93-.01c-.127.012-.245.059-.2,0l-.441.283-.895.574C123.7,416.811,122.527,417.582,121.282,418.237Z" fill="#c7c7c7"/>
          <path id="Path_6064" data-name="Path 6064" d="M125.6,415.57c.078,1.337.04,2.62.126,3.794.052.543.173,1.211.316,1.25.019.03,0-.042-.051-.042.037-.022.006,0,.121-.005a4.752,4.752,0,0,0,.722-.082c1.124-.185,2.34-.522,3.571-.782a26.332,26.332,0,0,1,3.834-.625,15.972,15.972,0,0,1-7.07,3.471,6.233,6.233,0,0,1-1.183.056,2.759,2.759,0,0,1-.811-.187,1.774,1.774,0,0,1-.752-.672,3.526,3.526,0,0,1-.322-2.457A9.386,9.386,0,0,1,125.6,415.57Z" fill="#c7c7c7"/>
        </g>
        <g id="Group_4436" data-name="Group 4436">
          <path id="Path_6065" data-name="Path 6065" d="M110.507,402.062c-.932-2.823-.766-6.088-3.943-5.744s-5.082-3.627-6.512-4.58-6.511,0-7.623.953-1.588,2.806-2.7,3.627-2.7,2.091-4.13,3.362-3.494,3.017-2.859,6.194,2.065,4.262,3.018,5.863-.635,4.46.635,8.113,7.465,5.083,9.054,4.448,5.829-3.336,8.156-3.336,2.961,1.906,5.026.794,5.082-3.494,5.241-4.447-1.747-1.791-1.112-3.278,3.177-4.276,2.86-6.138S111.22,404.222,110.507,402.062Z" fill="#fff"/>
          <path id="Path_6066" data-name="Path 6066" d="M104.622,395.98a88.552,88.552,0,0,0-11.459,4.568,6.472,6.472,0,0,0-1.145.757c-.143.037-.239.726-.329,1.164-.174.993-.294,2.015-.4,3.032-.207,2.036-.361,4.09-.373,6.117a18.679,18.679,0,0,0,.16,2.949,2.5,2.5,0,0,0,.208.791,3.734,3.734,0,0,0,1.12.341,30.843,30.843,0,0,0,5.98.293,28.74,28.74,0,0,0,2.98-.234c.858-.14,2.025-.426,2.993-.6,2.024-.406,4.056-.8,6-1.3.472-.127.973-.251,1.364-.4a1.232,1.232,0,0,0,.238-.1s.1-.048.046-.015a.338.338,0,0,0-.147.2,1,1,0,0,0-.075.753.9.9,0,0,0,.2.349.755.755,0,0,0,.124.109l-.028-.014-.277-.105c-.881-.293-1.909-.531-2.9-.767l-6.042-1.342c-2.022-.446-4.046-.9-6.071-1.407-1.014-.262-2.025-.523-3.051-.88a5.132,5.132,0,0,1-1.707-.885,1.458,1.458,0,0,1-.177-.218,1.171,1.171,0,0,1-.152-.387,3.621,3.621,0,0,1-.007-.376,1.872,1.872,0,0,1,.113-.579,4.935,4.935,0,0,1,.365-.849,26.225,26.225,0,0,1,3.934-5.048c.37-.378.747-.75,1.149-1.109.2-.178.4-.357.628-.526a3.511,3.511,0,0,1,.348-.253,1.53,1.53,0,0,1,.521-.267,1.514,1.514,0,0,1,1.176.287,5.132,5.132,0,0,1,.682.544,12.528,12.528,0,0,1,1.1,1.183,79.315,79.315,0,0,1,6.753,10.472,98.374,98.374,0,0,0-7.521-9.792,14.534,14.534,0,0,0-1.065-1.035,2.747,2.747,0,0,0-.817-.522c.114-.072-.092.068-.147.111a2.747,2.747,0,0,0-.268.217c-.182.15-.36.323-.538.495-.354.347-.7.718-1.033,1.094a25.094,25.094,0,0,0-3.463,4.87,3.486,3.486,0,0,0-.223.582c-.011.066-.06.2-.032.177,0,0,0,.006-.012.011a.607.607,0,0,0-.081-.208.283.283,0,0,0-.052-.071,6.283,6.283,0,0,0,1.086.421c.937.294,1.93.548,2.923.784,1.991.471,4.011.887,6.034,1.3L111,412.146c1.027.23.357.206,1.445.546.137.044.284.1.449.166a2.3,2.3,0,0,1,.316.165,1.486,1.486,0,0,1,.277.226,1.259,1.259,0,0,1,.251.431,1.172,1.172,0,0,1-.082.846,2.128,2.128,0,0,1-.429.466,1.713,1.713,0,0,1-.29.175,2.868,2.868,0,0,1-.47.214,14.382,14.382,0,0,1-1.6.5c-2.069.5-4.107.857-6.143,1.235-1.069.179-1.912.387-3.1.571a30.282,30.282,0,0,1-3.2.2,32.4,32.4,0,0,1-6.383-.422,4.919,4.919,0,0,1-1.795-.656,2.016,2.016,0,0,1-.726-1.089,3.869,3.869,0,0,1-.18-.911,20.044,20.044,0,0,1-.035-3.243c.111-2.106.363-4.174.67-6.239.16-1.033.328-2.059.559-3.094.192-.528.068-1,.7-1.709a6.228,6.228,0,0,1,1.467-.892,51.992,51.992,0,0,1,5.907-2.079C100.6,396.961,102.593,396.4,104.622,395.98Z" fill="#c7c7c7"/>
        </g>
      </g>
      <g id="Character">
        <g id="Group_4472" data-name="Group 4472">
          <g id="Group_4471" data-name="Group 4471">
            <g id="Group_4439" data-name="Group 4439">
              <path id="Path_6067" data-name="Path 6067" d="M265.835,228.9c32.492,32.936,73.368,102.217,65.749,116.262-8.488,15.644-53.734-30.526-53.56-33.223.132-2.038-15.786-44.121-27.86-74.729C238.1,206.627,257.8,220.751,265.835,228.9Z" fill="#f7b48f"/>
              <g id="Group_4438" data-name="Group 4438">
                <path id="Path_6068" data-name="Path 6068" d="M277.721,311.986c-1.383-4.5-23.041-59.993-29.233-77.541s-.453-22.98,17.232-6.907S322.155,297.307,331,325.8c8.52,27.452-5.613,27.452-24.262,14.8C291.47,330.242,277.721,311.986,277.721,311.986Z" fill="#29a9ff"/>
                <g id="Group_4437" data-name="Group 4437">
                  <path id="Path_6069" data-name="Path 6069" d="M262.655,229.356a13.163,13.163,0,0,1-1.1,3.554,12.973,12.973,0,0,1-1.976,3.153,12.969,12.969,0,0,1,1.1-3.554A13.116,13.116,0,0,1,262.655,229.356Z" fill="#fff"/>
                  <path id="Path_6070" data-name="Path 6070" d="M318.207,302.511a14.384,14.384,0,0,1-3.077,6.707,13,13,0,0,1,1.1-3.554A13.134,13.134,0,0,1,318.207,302.511Z" fill="#fff"/>
                  <path id="Path_6071" data-name="Path 6071" d="M299.052,273.356a14.384,14.384,0,0,1-3.077,6.707,14.371,14.371,0,0,1,3.077-6.707Z" fill="#fff"/>
                  <path id="Path_6072" data-name="Path 6072" d="M280.332,271.166a14.41,14.41,0,0,1-6.707-3.077,12.973,12.973,0,0,1,3.555,1.1A13.13,13.13,0,0,1,280.332,271.166Z" fill="#fff"/>
                  <path id="Path_6073" data-name="Path 6073" d="M298.268,300.647a13.2,13.2,0,0,1-3.554-1.1,12.974,12.974,0,0,1-3.153-1.976,12.969,12.969,0,0,1,3.554,1.1A13.134,13.134,0,0,1,298.268,300.647Z" fill="#fff"/>
                  <path id="Path_6074" data-name="Path 6074" d="M283.685,250.151a13.162,13.162,0,0,1-3.554-1.1,13.028,13.028,0,0,1-3.152-1.976,14.374,14.374,0,0,1,6.706,3.077Z" fill="#fff"/>
                  <path id="Path_6075" data-name="Path 6075" d="M268.578,283.911a13.177,13.177,0,0,1,1.734,3.292,13.009,13.009,0,0,1,.832,3.627,12.948,12.948,0,0,1-1.734-3.292A13.13,13.13,0,0,1,268.578,283.911Z" fill="#fff"/>
                  <path id="Path_6076" data-name="Path 6076" d="M306.107,319.045a13.142,13.142,0,0,1,1.734,3.292,13,13,0,0,1,.832,3.626,14.391,14.391,0,0,1-2.566-6.918Z" fill="#fff"/>
                  <path id="Path_6077" data-name="Path 6077" d="M285.3,315.93a12.239,12.239,0,0,1-3.06,1.64c-.23-.27-.44-.53-.65-.78.03-.01.05-.02.08-.03A12.969,12.969,0,0,1,285.3,315.93Z" fill="#fff"/>
                  <path id="Path_6078" data-name="Path 6078" d="M322.515,338.555a13.159,13.159,0,0,1,3.292-1.734,12.973,12.973,0,0,1,3.626-.832,14.392,14.392,0,0,1-6.918,2.566Z" fill="#fff"/>
                  <path id="Path_6079" data-name="Path 6079" d="M263.04,255.58a13.034,13.034,0,0,1-3.3,1.73,14.229,14.229,0,0,1-2.5.69c-.06-.16-.12-.33-.18-.49a14.769,14.769,0,0,1,2.35-1.1A12.889,12.889,0,0,1,263.04,255.58Z" fill="#fff"/>
                </g>
              </g>
            </g>
            <g id="Group_4441" data-name="Group 4441">
              <g id="Group_4440" data-name="Group 4440">
                <path id="Path_6080" data-name="Path 6080" d="M273.838,352.757H150.3s19.636-96.889,67.012-138.827c5.856-5.183,19.064-4,27.681.277,3.078,1.53,14.122,16.982,17.275,31.592C265.4,260.394,274.183,352.321,273.838,352.757Z" fill="#29a9ff"/>
              </g>
              <path id="Path_6081" data-name="Path 6081" d="M263.344,251.843c.969,3.261,1.77,6.646,2.427,10.047.005-.132.015-.264.018-.4.05-1.91.066-3.857.267-5.755.011-.1.171-.129.188-.017a29.491,29.491,0,0,1,.157,5.8c-.05.911-.106,1.824-.184,2.736.26,1.526.492,3.052.683,4.566.363,2.884,1.332,13.617,1.415,15.751.017.449-.5.521-.625.056-.581-2.157-2.122-13.224-2.614-16.073a155.736,155.736,0,0,1-1.951-16.7C263.117,251.732,263.31,251.73,263.344,251.843Z" fill="#263238"/>
              <path id="Path_6082" data-name="Path 6082" d="M225.061,239.223a13.127,13.127,0,0,1-1.1,3.554,12.953,12.953,0,0,1-1.976,3.153,12.968,12.968,0,0,1,1.1-3.554A13.161,13.161,0,0,1,225.061,239.223Zm-16.739,49.2a12.974,12.974,0,0,0-1.1,3.555,12.992,12.992,0,0,0,1.976-3.153,13.163,13.163,0,0,0,1.1-3.554A13.129,13.129,0,0,0,208.322,288.422Zm-40.129,17.614a13,13,0,0,0-1.1,3.554,12.98,12.98,0,0,0,1.975-3.153,13.117,13.117,0,0,0,1.1-3.554A13.135,13.135,0,0,0,168.193,306.036Zm29.5,31.541a13.036,13.036,0,0,0-1.1,3.554,12.954,12.954,0,0,0,1.976-3.153,13.129,13.129,0,0,0,1.1-3.554A13.134,13.134,0,0,0,197.691,337.577Zm51.5-60.947a12.968,12.968,0,0,0-1.1,3.554,12.954,12.954,0,0,0,1.976-3.153,13.163,13.163,0,0,0,1.1-3.554A13.134,13.134,0,0,0,249.2,276.63ZM265.42,310.1a13,13,0,0,0-1.1,3.554,13,13,0,0,0,1.976-3.153,13.162,13.162,0,0,0,1.1-3.554A13.165,13.165,0,0,0,265.42,310.1Zm-39.267,24.12a13,13,0,0,0-1.1,3.554,13,13,0,0,0,1.976-3.153,13.162,13.162,0,0,0,1.1-3.554A13.166,13.166,0,0,0,226.153,334.224ZM188.517,268.97a13.037,13.037,0,0,0-1.1,3.554,13,13,0,0,0,1.977-3.152,13.162,13.162,0,0,0,1.1-3.554A13.129,13.129,0,0,0,188.517,268.97Zm46.7-11.009a13,13,0,0,0-3.554-1.1,12.972,12.972,0,0,0,3.153,1.976,13.162,13.162,0,0,0,3.554,1.1A13.2,13.2,0,0,0,235.22,257.961Zm7.791,39.75a12.933,12.933,0,0,0-3.554-1.1,12.979,12.979,0,0,0,3.153,1.975,13.163,13.163,0,0,0,3.554,1.1A13.135,13.135,0,0,0,243.011,297.711Zm-72.641,42.12a13,13,0,0,0-3.554-1.1,14.387,14.387,0,0,0,6.706,3.077A13.129,13.129,0,0,0,170.37,339.831Zm73.919,8.053a12.894,12.894,0,0,0-3.559-1.107,13.43,13.43,0,0,0,3.153,1.973c.259.111.5.221.756.332.664.037,1.31.092,1.973.129A13.839,13.839,0,0,0,244.289,347.884ZM198.14,307.65a13,13,0,0,0-3.554-1.1,12.994,12.994,0,0,0,3.152,1.975,13.17,13.17,0,0,0,3.555,1.1A13.135,13.135,0,0,0,198.14,307.65Zm37.08-84.88a12.968,12.968,0,0,0-3.554-1.1,12.973,12.973,0,0,0,3.153,1.976,13.163,13.163,0,0,0,3.554,1.1A13.115,13.115,0,0,0,235.22,222.77Zm8,18.439a12.985,12.985,0,0,0,1.735,3.292,13.044,13.044,0,0,0-.832-3.627,13.213,13.213,0,0,0-1.735-3.292A13.211,13.211,0,0,0,243.22,241.209Zm19.62,91.948a13.013,13.013,0,0,0,1.734,3.292,12.975,12.975,0,0,0-.832-3.626,13.143,13.143,0,0,0-1.734-3.292A13.133,13.133,0,0,0,262.84,333.157Zm-52.993-68.836a12.965,12.965,0,0,0,1.734,3.292,12.974,12.974,0,0,0-.832-3.626,13.159,13.159,0,0,0-1.734-3.292A13.124,13.124,0,0,0,209.847,264.321ZM225.1,304.8a13.014,13.014,0,0,0,1.734,3.292,12.989,12.989,0,0,0-.832-3.627,13.154,13.154,0,0,0-1.734-3.291A13.124,13.124,0,0,0,225.1,304.8ZM154.31,352.25c.01.17.02.34.04.51h.32Q154.5,352.5,154.31,352.25Zm34.78-.16a13.4,13.4,0,0,0-1.74-3.3,13.245,13.245,0,0,0,.83,3.63c.04.11.09.23.13.34h1C189.24,352.54,189.17,352.31,189.09,352.09Zm-7.1-28.526a13.012,13.012,0,0,0,1.734,3.292,12.989,12.989,0,0,0-.832-3.627,13.154,13.154,0,0,0-1.734-3.291A13.124,13.124,0,0,0,181.986,323.564ZM211.9,228.322a12.981,12.981,0,0,0,1.734,3.292,13.009,13.009,0,0,0-.832-3.626,13.175,13.175,0,0,0-1.734-3.292A13.124,13.124,0,0,0,211.9,228.322Zm33.06,93.35a13.013,13.013,0,0,0,3.292-1.734,12.974,12.974,0,0,0-3.627.832,13.177,13.177,0,0,0-3.292,1.734A13.131,13.131,0,0,0,244.963,321.672Zm-32.339,29.75a13,13,0,0,0,3.292-1.734,12.975,12.975,0,0,0-3.626.832A13.143,13.143,0,0,0,209,352.254,13.123,13.123,0,0,0,212.624,351.422Zm-55-26.942c-.08.28-.17.57-.25.84a10.1,10.1,0,0,0,1.68-1.03A9.643,9.643,0,0,0,157.62,324.48Zm28.2-34.262a13,13,0,0,0,3.292-1.734,12.974,12.974,0,0,0-3.626.832,13.142,13.142,0,0,0-3.292,1.734A13.124,13.124,0,0,0,185.821,290.218Zm25.927,32.737a13.012,13.012,0,0,0,3.292-1.734,12.981,12.981,0,0,0-3.627.832,13.153,13.153,0,0,0-3.291,1.734A13.167,13.167,0,0,0,211.748,322.955ZM227.149,276a12.949,12.949,0,0,0,3.292-1.734,14.369,14.369,0,0,0-6.918,2.567A13.161,13.161,0,0,0,227.149,276Zm32.6-18.687a12.99,12.99,0,0,0,3.291-1.734,12.974,12.974,0,0,0-3.626.832,13.177,13.177,0,0,0-3.292,1.734A13.132,13.132,0,0,0,259.745,257.311Zm-58.285-10.93a13.013,13.013,0,0,0,3.292-1.734,12.981,12.981,0,0,0-3.627.832,13.154,13.154,0,0,0-3.291,1.734A13.132,13.132,0,0,0,201.46,246.381Z" fill="#fff"/>
            </g>
            <g id="Group_4454" data-name="Group 4454">
              <g id="Group_4443" data-name="Group 4443">
                <g id="Group_4442" data-name="Group 4442">
                  <path id="Path_6083" data-name="Path 6083" d="M244.425,234.676c-7.476,1.461-19.748-10.358-24.41-19.728-.316-.644.909-7.236,2.017-15.315.653-4.906,1.265-10.384,1.463-15.423.035-1.034,31.3,8.917,31.3,8.917s-3.521,10.441-3.811,19.228a11.393,11.393,0,0,0,.136,2.076c.007.1.03.211.033.344C251.641,218.728,251.65,233.259,244.425,234.676Z" fill="#f7b48f"/>
                </g>
                <path id="Path_6084" data-name="Path 6084" d="M247.9,214.816a18.968,18.968,0,0,0,3.249-.044c0-.134-.024-.244-.032-.346a10.758,10.758,0,0,1-.13-2.075c.291-8.779,3.8-19.222,3.8-19.222s-25.378-8.079-30.433-8.926C225.11,190.064,229.28,213.673,247.9,214.816Z" fill="#263238"/>
              </g>
              <g id="Group_4453" data-name="Group 4453">
                <g id="Group_4444" data-name="Group 4444">
                  <path id="Path_6085" data-name="Path 6085" d="M215.723,153.289c-2.437,11.469,6.271,43.23,14.844,49.735,12.428,9.43,31.375,8.786,39.033-5.833,7.424-14.171-4.658-55.362-14.1-61.129C241.585,127.568,219.323,136.347,215.723,153.289Z" fill="#f7b48f"/>
                </g>
                <g id="Group_4449" data-name="Group 4449">
                  <g id="Group_4445" data-name="Group 4445">
                    <path id="Path_6086" data-name="Path 6086" d="M248.3,171.587c-.038-.077-.14.147-.113.234.644,2.124,1.023,4.665-.724,5.9-.054.038-.018.144.051.115C249.793,176.864,249.255,173.5,248.3,171.587Z" fill="#263238"/>
                    <path id="Path_6087" data-name="Path 6087" d="M245.789,169.865c-3.515.665-1.926,7.647,1.331,7.031C250.325,176.29,248.737,169.307,245.789,169.865Z" fill="#263238"/>
                  </g>
                  <g id="Group_4446" data-name="Group 4446">
                    <path id="Path_6088" data-name="Path 6088" d="M261.505,168.279c0-.087.193.063.21.152.424,2.179,1.275,4.6,3.395,4.876.066.008.085.118.01.124C262.656,173.639,261.557,170.41,261.505,168.279Z" fill="#263238"/>
                    <path id="Path_6089" data-name="Path 6089" d="M262.923,165.58c3.418-1.055,5.278,5.86,2.111,6.837C261.917,173.38,260.057,166.465,262.923,165.58Z" fill="#263238"/>
                  </g>
                  <path id="Path_6090" data-name="Path 6090" d="M242.66,169.191a27.762,27.762,0,0,0,2.847-.733,4.749,4.749,0,0,0,2.762-1.3,1.515,1.515,0,0,0-.084-1.847,3.757,3.757,0,0,0-3.738-.714,5.52,5.52,0,0,0-3.372,2.1A1.615,1.615,0,0,0,242.66,169.191Z" fill="#263238"/>
                  <path id="Path_6091" data-name="Path 6091" d="M264.823,161.45a27.7,27.7,0,0,1-2.939-.089,4.748,4.748,0,0,1-2.98-.662,1.513,1.513,0,0,1-.324-1.82,3.756,3.756,0,0,1,3.488-1.518,5.514,5.514,0,0,1,3.753,1.308A1.616,1.616,0,0,1,264.823,161.45Z" fill="#263238"/>
                  <path id="Path_6092" data-name="Path 6092" d="M250.873,191.373c.633.388,1.309.968,2.108.855a5.848,5.848,0,0,0,2.2-1.073.078.078,0,0,1,.119.09,2.987,2.987,0,0,1-2.479,1.8,2.361,2.361,0,0,1-2.136-1.526C250.625,191.4,250.78,191.316,250.873,191.373Z" fill="#263238"/>
                  <g id="Group_4448" data-name="Group 4448">
                    <g id="Group_4447" data-name="Group 4447">
                      <path id="Path_6093" data-name="Path 6093" d="M251.673,184.38a7.553,7.553,0,0,0,5.661,2.158,9.484,9.484,0,0,0,2.677-.482,2.679,2.679,0,0,0,.493-.173c.154-.055.292-.106.457-.18a.552.552,0,0,0,.324-.583l0-.016a1.06,1.06,0,0,0-.071-.217l0-.016-.047-.189c-.334-1.675-1.072-4.171-1.072-4.171.678.166,4.1.856,3.851,0-2.069-7.1-4.369-15.006-7.928-21.639a.205.205,0,0,0-.382.145c1.717,6.907,4.639,13.465,6.475,20.376a13.211,13.211,0,0,0-3.717-.264c-.221.122,1.512,4.8,1.6,5.563a.274.274,0,0,1,0,.082c-2.717,1-5.018.629-8.162-.632C251.642,184.052,251.5,184.237,251.673,184.38Z" fill="#263238"/>
                    </g>
                  </g>
                </g>
                <g id="Group_4450" data-name="Group 4450">
                  <path id="Path_6094" data-name="Path 6094" d="M221.93,181.639s-11.62-17.2-11.13-27.5c.222-4.656,6.38-8.092,6.38-8.092a10.484,10.484,0,0,1,2.785-10.7c5.22-5.431,18.547-4.935,18.547-4.935s7.981-12.858,20.4-8.535,5.174,18.512,5.174,18.512,4.782,6.114-5.879,11.611c-10.379,5.353-32.328,1.691-32.328,1.691a75.7,75.7,0,0,1,.784,22.5A6.893,6.893,0,0,1,221.93,181.639Z" fill="#263238"/>
                  <path id="Path_6095" data-name="Path 6095" d="M240.619,130.478a21.385,21.385,0,0,0-8.639-1.137,23.061,23.061,0,0,0-7.649,1.59c-4.3,1.79-8.031,5.209-8.527,10.054a8.929,8.929,0,0,0,2.035,6.651c.062.076.175-.038.107-.113-2.989-3.343-1.778-8.835.984-11.9,3.124-3.464,8.091-4.965,12.6-5.382a37.659,37.659,0,0,1,9.019.5A.137.137,0,0,0,240.619,130.478Z" fill="#263238"/>
                  <path id="Path_6096" data-name="Path 6096" d="M267.9,127.325c-1.181-3.355-4.21-5.4-7.542-6.283a17.776,17.776,0,0,0-11.5.975,22.407,22.407,0,0,0-9.074,7.454c-.052.071.071.162.125.091,4.307-5.638,11.315-9.078,18.463-7.934,3.2.512,6.443,1.984,8.059,4.933a10.7,10.7,0,0,1,.177,9.051c-1.474,3.451-4.389,6.15-7.432,8.232a.066.066,0,0,0,.069.113,20.626,20.626,0,0,0,7.466-7.043A11.656,11.656,0,0,0,267.9,127.325Z" fill="#263238"/>
                  <path id="Path_6097" data-name="Path 6097" d="M260.865,152.455a36.737,36.737,0,0,1-15.17,3.413,75.045,75.045,0,0,1-16.216-1.4c-3.112-.588-6.2-1.293-9.276-2.054-.1-.025-.131.119-.038.151a81.93,81.93,0,0,0,16.736,4.267,41.173,41.173,0,0,0,15.894-.937,34.979,34.979,0,0,0,8.132-3.335C260.993,152.517,260.932,152.422,260.865,152.455Z" fill="#263238"/>
                </g>
                <g id="Group_4451" data-name="Group 4451">
                  <path id="Path_6098" data-name="Path 6098" d="M249.053,184.308a8.874,8.874,0,1,1,6.984-12.148h0a8.879,8.879,0,0,1-6.984,12.147Zm-2.293-16.4a7.687,7.687,0,1,0,8.179,4.7A7.672,7.672,0,0,0,246.76,167.9Z" fill="#ebebeb"/>
                  <path id="Path_6099" data-name="Path 6099" d="M268.726,179.053c-3.363.469-6.894-2.548-8.066-7.027a10.589,10.589,0,0,1,.245-6.476,5.527,5.527,0,0,1,9.155-2.394,10.591,10.591,0,0,1,3.382,5.527c1.236,4.733-.623,9.334-4.145,10.256A5.145,5.145,0,0,1,268.726,179.053Zm-3.177-16.223a3.971,3.971,0,0,0-.442.088,4.731,4.731,0,0,0-3.1,3.063,9.426,9.426,0,0,0-.2,5.744c1.073,4.1,4.288,6.827,7.189,6.066s4.37-4.708,3.3-8.807a9.421,9.421,0,0,0-2.988-4.911A4.884,4.884,0,0,0,265.549,162.83Z" fill="#ebebeb"/>
                  <path id="Path_6100" data-name="Path 6100" d="M256.009,173.229l-.968-.686c1.016-1.434,3.642-3.691,6.325-2l-.634,1C258.331,170.027,256.1,173.1,256.009,173.229Z" fill="#ebebeb"/>
                  <path id="Path_6101" data-name="Path 6101" d="M218.337,185.439l-1.157-.26c.122-.54,1.258-5.3,3.712-6.39,2.3-1.009,18.056-3.59,18.726-3.7l.19,1.171c-4.519.736-16.664,2.828-18.435,3.613C219.752,180.591,218.633,184.134,218.337,185.439Z" fill="#ebebeb"/>
                </g>
                <g id="Group_4452" data-name="Group 4452">
                  <path id="Path_6102" data-name="Path 6102" d="M226.882,179.854s-8.4-9.636-12.849-6.531,2.65,17.617,8.42,19.087a5.675,5.675,0,0,0,7.236-3.845Z" fill="#f7b48f"/>
                  <path id="Path_6103" data-name="Path 6103" d="M216.171,177.432a.077.077,0,0,0-.013.152c4.06,1.159,6.495,4.547,8.331,8.133-1.312-1.315-2.972-1.935-4.753-.351-.093.083.021.232.128.2a3.491,3.491,0,0,1,3.95.8,16.865,16.865,0,0,1,2.161,2.894c.22.329.828.075.652-.311-.012-.029-.027-.058-.041-.087C226.152,183.889,221.551,177.36,216.171,177.432Z" fill="#263238"/>
                </g>
              </g>
            </g>
            <g id="Group_4460" data-name="Group 4460">
              <g id="Group_4457" data-name="Group 4457">
                <path id="Path_6104" data-name="Path 6104" d="M331.584,345.158c-7.314,10.461-27.222,12.455-76.879,22.183-6.871,1.346-29.416-44.591-22.152-46.406,9.149-2.285,45.15-9.172,47.847-9.343C303.141,310.147,336.544,338.063,331.584,345.158Z" fill="#f7b48f"/>
                <g id="Group_4456" data-name="Group 4456">
                  <path id="Path_6105" data-name="Path 6105" d="M242.485,318.67s-21.037,3.18-31.572,8.271c-14.108,6.818-23.481,18.512-27.112,23.651-7.582,10.724-18.5,41.9-10.068,46.608,7.631,4.263,17.179-28.165,17.179-28.165s-15.191,31.457-5.059,34.9,19.074-34.83,19.074-34.83-14.883,32.671-3.872,34.57c8.32,1.435,18.372-32.774,18.372-32.774s-12.6,28.17-4.1,30.014c9.385,2.039,20.645-28.956,20.645-28.956,22.378,1.055,33.465-7.6,40.62-14.69C278.319,355.553,242.485,318.67,242.485,318.67Z" fill="#f7b48f"/>
                  <g id="Group_4455" data-name="Group 4455">
                    <path id="Path_6106" data-name="Path 6106" d="M195.469,357.819c-1.918,3.631-3.884,7.293-5.473,11.081s-3.047,7.636-4.276,11.555c-3.014,9.613-3.4,16.1-3.331,15.706,1.594-9.421,7.072-23.071,8.662-26.861s2.981-7.642,4.564-11.425C195.655,357.78,195.515,357.733,195.469,357.819Z" fill="#263238"/>
                    <path id="Path_6107" data-name="Path 6107" d="M209.253,363.308c-2.248,4.741-4.654,9.366-6.694,14.209-2.03,4.819-3.534,9.569-5.227,14.514-.13.381.117.326.263-.051,1.889-4.874,4.012-9.235,5.957-14.087,1.94-4.834,3.705-9.781,5.818-14.541C209.4,363.278,209.288,363.236,209.253,363.308Z" fill="#263238"/>
                    <path id="Path_6108" data-name="Path 6108" d="M221.931,365.891c-3.808,7.071-6.306,14.836-8.575,22.51-.112.383.2.276.337-.108,2.71-7.537,4.782-13.468,8.484-22.27C222.235,365.886,222.011,365.742,221.931,365.891Z" fill="#263238"/>
                  </g>
                </g>
              </g>
              <g id="Group_4459" data-name="Group 4459">
                <path id="Path_6109" data-name="Path 6109" d="M238.1,318.67,281.6,367.119s43.993-10.1,50.475-21.384c4.266-7.427-28.888-37.4-53.9-33.895Z" fill="#29a9ff"/>
                <path id="Path_6110" data-name="Path 6110" d="M276.728,348.9a13.157,13.157,0,0,1-1.1,3.555,12.968,12.968,0,0,1-1.976,3.152,12.969,12.969,0,0,1,1.1-3.554A13.182,13.182,0,0,1,276.728,348.9Zm30.225-2.714a12.967,12.967,0,0,0-1.1,3.554,12.954,12.954,0,0,0,1.976-3.153,13.187,13.187,0,0,0,1.1-3.554A13.135,13.135,0,0,0,306.953,346.186ZM285.4,336.012a13,13,0,0,0-3.554-1.1,14.41,14.41,0,0,0,6.707,3.077A13.154,13.154,0,0,0,285.4,336.012Zm21.543-13.341a13.013,13.013,0,0,0,1.734,3.292,13,13,0,0,0-.832-3.626,13.142,13.142,0,0,0-1.734-3.292A13.133,13.133,0,0,0,306.939,322.671Zm-44.1,10.486a13.013,13.013,0,0,0,1.734,3.292,12.975,12.975,0,0,0-.832-3.626,13.143,13.143,0,0,0-1.734-3.292A13.133,13.133,0,0,0,262.84,333.157Zm-17.877-11.485a13.013,13.013,0,0,0,3.292-1.734,12.974,12.974,0,0,0-3.627.832,13.177,13.177,0,0,0-3.292,1.734A13.131,13.131,0,0,0,244.963,321.672Zm37.046-4.01a13.013,13.013,0,0,0,3.292-1.734,12.989,12.989,0,0,0-3.627.832,13.153,13.153,0,0,0-3.291,1.734A13.132,13.132,0,0,0,282.009,317.662Zm13.7,42.6a13.013,13.013,0,0,0,3.292-1.734,12.975,12.975,0,0,0-3.626.832,13.16,13.16,0,0,0-3.292,1.734A13.124,13.124,0,0,0,295.713,360.259ZM328.42,336.1a15.5,15.5,0,0,0-2.61.72,13.4,13.4,0,0,0-3.3,1.74,13.255,13.255,0,0,0,3.63-.84,14.221,14.221,0,0,0,2.58-1.24C328.62,336.36,328.52,336.23,328.42,336.1Z" fill="#fff"/>
                <g id="Group_4458" data-name="Group 4458">
                  <path id="Path_6111" data-name="Path 6111" d="M308.05,319.76c-4.033-2.922-15.387-9.735-29.866-7.92-.127.016-.131.223,0,.219,10.916-.308,25.648,5.4,29.77,7.881C308.062,320.005,308.152,319.833,308.05,319.76Z" fill="#263238"/>
                  <path id="Path_6112" data-name="Path 6112" d="M293.5,359.007c-4.5-5.583-9.291-10.921-14.1-16.245s-9.611-10.667-14.554-15.875c-2.793-2.942-5.57-5.9-8.464-8.747-.076-.075-.22.033-.15.12,4.489,5.575,9.265,10.939,14.028,16.286s9.611,10.674,14.492,15.939q4.137,4.464,8.464,8.748C293.362,359.374,293.632,359.17,293.5,359.007Z" fill="#263238"/>
                </g>
              </g>
            </g>
            <g id="Group_4462" data-name="Group 4462">
              <path id="Path_6113" data-name="Path 6113" d="M253.475,221.135a.055.055,0,0,0-.109.018c.875,6.681,2.464,22.2-8.122,21.979-4.265-.091-8.311-2.472-11.716-4.843a59.354,59.354,0,0,1-9.552-8.444,87.14,87.14,0,0,1-9.111-11.055c-.111-.168-.363.033-.245.2,2.777,3.929,5.15,8.048,8.306,11.714a51.558,51.558,0,0,0,10.321,9.362c3.637,2.427,7.934,4.785,12.436,4.667,4.282-.113,7.21-2.962,8.192-6.991C255.164,232.45,254.664,226.39,253.475,221.135Z" fill="#263238"/>
              <g id="Group_4461" data-name="Group 4461">
                <path id="Path_6114" data-name="Path 6114" d="M251.136,214.62,243.424,233.2,220.5,209.316l-6.66,7.5s22.262,37.788,22.424,36.094l7.879-16,10.978,11.323-.58-28.116Z" fill="#fff"/>
                <path id="Path_6115" data-name="Path 6115" d="M255.617,234.319c-.251-4.639-.375-9.318-.841-13.94-.016-.164-.272-.24-.314-.048-.981,4.466.075,22.2.006,26.449l-.048-.049c-.458-.489-10.181-9.968-10.28-9.821-1.7,2.536-7.479,14.19-7.877,15.251-3.52-6-17.026-27.829-21.209-33.515a.161.161,0,0,0-.28.158c3.1,6.331,20.965,35.721,21.245,35.643.189.149,7.371-14.2,8.241-16.921,1.64,2.06,11.441,12.743,11.483,12.054A145.763,145.763,0,0,0,255.617,234.319Z" fill="#263238"/>
              </g>
            </g>
            <g id="Group_4470" data-name="Group 4470">
              <g id="Group_4464" data-name="Group 4464">
                <path id="Path_6116" data-name="Path 6116" d="M292.973,285.771s4.769,10.808-2.864,13.462-10.6-8.782-10.6-8.782Z" fill="#455a64"/>
                <g id="Group_4463" data-name="Group 4463">
                  <path id="Path_6117" data-name="Path 6117" d="M252.385,212.431v-.01l1.7-11.434.538-3.776,2.8,2.608,8.428,7.924h.01v.02l27.268,78.454L279.663,290.9,252.4,212.432Z" fill="#455a64"/>
                  <path id="Path_6118" data-name="Path 6118" d="M254.081,200.984l.547-3.775,2.8,2.612Z" fill="#37474f"/>
                </g>
                <rect id="Rectangle_2555" data-name="Rectangle 2555" width="16.641" height="3.302" transform="matrix(-0.945, 0.328, -0.328, -0.945, 294.402, 286.241)" fill="#37474f"/>
                <rect id="Rectangle_2556" data-name="Rectangle 2556" width="16.641" height="3.302" transform="translate(293.203 282.793) rotate(160.832)" fill="#37474f"/>
                <path id="Path_6119" data-name="Path 6119" d="M292.119,279.674l-5.071,1.763-7.071-29.357,1.906-.542Z" fill="#37474f"/>
              </g>
              <g id="Group_4467" data-name="Group 4467">
                <path id="Path_6120" data-name="Path 6120" d="M195.623,237.292c-31.638,39.5-60.327,96.365-54.5,116.927,2.132,7.521,15.713,20.021,36.128,13.251,22.988-7.622,51.648-26.36,78.346-46.266,5.666-4.224-40.772-39.457-46.9-35.036-2.852,2.058-10.633,9.321-11.8,8.762-1.773-.847,7.581-20.3,15.518-50.8C220.769,212.025,209.376,220.119,195.623,237.292Z" fill="#f7b48f"/>
                <g id="Group_4466" data-name="Group 4466">
                  <path id="Path_6121" data-name="Path 6121" d="M275.249,233.787c4.288,5.236-9.518,14.712-9.518,14.712a12.49,12.49,0,0,1,8.232,2.087c4.118,3.082,1.091,10.891,1.091,10.891a15.394,15.394,0,0,1,8.331,3.585c3.645,3.346,1.714,11.661,1.714,11.661a13.5,13.5,0,0,1,5.34,7.766c1.773,8.488-7.786,17.655-13.8,23.542s-28.6,16.955-32.689,19.5l-38.124-38.292s19.47-34.081,27.527-40C240.138,244.252,268.7,225.785,275.249,233.787Z" fill="#f7b48f"/>
                  <g id="Group_4465" data-name="Group 4465">
                    <path id="Path_6122" data-name="Path 6122" d="M265.5,248.438c-8.489,3.569-16.108,9.163-23.4,14.642a.158.158,0,0,0,.192.251c7.189-5.534,16.031-9.277,23.425-14.513A.222.222,0,0,0,265.5,248.438Z" fill="#263238"/>
                    <path id="Path_6123" data-name="Path 6123" d="M274.433,261.1a24.02,24.02,0,0,0-5.09,3.676q-2.565,2.136-5.056,4.356-4.99,4.443-9.756,9.13c-.14.138.037.388.192.25,3.322-2.945,6.687-5.841,10.13-8.644q2.583-2.1,5.2-4.167a28.58,28.58,0,0,0,4.748-4.115A.319.319,0,0,0,274.433,261.1Z" fill="#263238"/>
                    <path id="Path_6124" data-name="Path 6124" d="M284.956,276.843c-1.679.686-3.094,2.337-4.406,3.554q-2.23,2.072-4.486,4.117c-3.006,2.728-6.013,5.454-9.113,8.075-.154.131.036.382.193.251,3.162-2.648,6.36-5.251,9.5-7.927q2.313-1.969,4.6-3.966c1.3-1.132,3.049-2.4,3.853-3.958C285.144,276.9,285.04,276.809,284.956,276.843Z" fill="#263238"/>
                  </g>
                </g>
                <path id="Path_6125" data-name="Path 6125" d="M243.671,329.91a48.487,48.487,0,0,1,5.669-4.756,47.922,47.922,0,0,1,6.257-3.95,47.951,47.951,0,0,1-5.668,4.757A48.49,48.49,0,0,1,243.671,329.91Z" fill="#263238"/>
              </g>
              <g id="Group_4469" data-name="Group 4469">
                <path id="Path_6126" data-name="Path 6126" d="M198.19,292.7s8.608-25.2,14.52-45.655,7.781-39.447-13.99-16.355c-21.7,23.016-60.693,91.138-60.122,117.935.166,7.8,8.525,22.8,30.095,22.306s80.258-36.108,80.258-36.108l-43.573-47.412Z" fill="#29a9ff"/>
                <path id="Path_6127" data-name="Path 6127" d="M208.27,290.55a8.893,8.893,0,0,1-1.05,1.43,9.722,9.722,0,0,1,.5-2.03Zm-40.077,15.486a13,13,0,0,0-1.1,3.554,12.98,12.98,0,0,0,1.975-3.153,13.117,13.117,0,0,0,1.1-3.554A13.135,13.135,0,0,0,168.193,306.036Zm29.5,31.541a13.036,13.036,0,0,0-1.1,3.554,12.954,12.954,0,0,0,1.976-3.153,13.129,13.129,0,0,0,1.1-3.554A13.134,13.134,0,0,0,197.691,337.577ZM142.244,342.1a13,13,0,0,0-1.1,3.554,13,13,0,0,0,1.976-3.153,13.162,13.162,0,0,0,1.1-3.554A13.178,13.178,0,0,0,142.244,342.1Zm83.909-7.875a13,13,0,0,0-1.1,3.554,13,13,0,0,0,1.976-3.153,13.162,13.162,0,0,0,1.1-3.554A13.166,13.166,0,0,0,226.153,334.224ZM188.517,268.97a13.037,13.037,0,0,0-1.1,3.554,13,13,0,0,0,1.977-3.152,13.162,13.162,0,0,0,1.1-3.554A13.129,13.129,0,0,0,188.517,268.97Zm-6.727-16.43a11.3,11.3,0,0,0,2.72.76,11.184,11.184,0,0,0-2.21-1.5Zm-29.46,51.65-.01-.01c-.14.29-.28.58-.41.88.01,0,.01.01.02.01a13.657,13.657,0,0,0,3.56,1.1A13.159,13.159,0,0,0,152.33,304.19Zm18.04,35.641a13,13,0,0,0-3.554-1.1,14.387,14.387,0,0,0,6.706,3.077A13.129,13.129,0,0,0,170.37,339.831Zm27.77-32.181a13,13,0,0,0-3.554-1.1,12.994,12.994,0,0,0,3.152,1.975,13.17,13.17,0,0,0,3.555,1.1A13.135,13.135,0,0,0,198.14,307.65Zm-43,48.23a12.951,12.951,0,0,0,1.735,3.292,13.01,13.01,0,0,0-.832-3.626,13.163,13.163,0,0,0-1.735-3.292A13.188,13.188,0,0,0,155.14,355.88Zm33.044-3.459a13,13,0,0,0,1.734,3.292,12.974,12.974,0,0,0-.832-3.626,13.142,13.142,0,0,0-1.734-3.292A13.123,13.123,0,0,0,188.184,352.421Zm-6.2-28.857a13.012,13.012,0,0,0,1.734,3.292,12.989,12.989,0,0,0-.832-3.627,13.154,13.154,0,0,0-1.734-3.291A13.124,13.124,0,0,0,181.986,323.564Zm-13.807-40.1a13.014,13.014,0,0,0,1.734,3.292,12.973,12.973,0,0,0-.832-3.627,13.177,13.177,0,0,0-1.734-3.292A13.131,13.131,0,0,0,168.179,283.459ZM211.9,228.322a12.981,12.981,0,0,0,1.734,3.292,13.009,13.009,0,0,0-.832-3.626,13.175,13.175,0,0,0-1.734-3.292A13.124,13.124,0,0,0,211.9,228.322ZM201.46,246.381a13.013,13.013,0,0,0,3.292-1.734,12.981,12.981,0,0,0-3.627.832,13.154,13.154,0,0,0-3.291,1.734A13.132,13.132,0,0,0,201.46,246.381Zm11.164,105.041a13,13,0,0,0,3.292-1.734,12.975,12.975,0,0,0-3.626.832A13.143,13.143,0,0,0,209,352.254,13.123,13.123,0,0,0,212.624,351.422Zm-56.865-25.4a13.012,13.012,0,0,0,3.292-1.734,12.973,12.973,0,0,0-3.627.832,13.176,13.176,0,0,0-3.292,1.734A13.131,13.131,0,0,0,155.759,326.024Zm18.348,37.091a12.985,12.985,0,0,0,3.292-1.735,13.024,13.024,0,0,0-3.627.832,13.157,13.157,0,0,0-3.291,1.735A13.168,13.168,0,0,0,174.107,363.115Zm11.714-72.9a13,13,0,0,0,3.292-1.734,12.974,12.974,0,0,0-3.626.832,13.142,13.142,0,0,0-3.292,1.734A13.124,13.124,0,0,0,185.821,290.218Zm25.927,32.737a13.012,13.012,0,0,0,3.292-1.734,12.981,12.981,0,0,0-3.627.832,13.153,13.153,0,0,0-3.291,1.734A13.167,13.167,0,0,0,211.748,322.955Z" fill="#fff"/>
                <g id="Group_4468" data-name="Group 4468">
                  <path id="Path_6128" data-name="Path 6128" d="M235.518,338.424c-4.5-5.583-9.291-10.921-14.1-16.245s-9.611-10.667-14.554-15.874c-2.793-2.943-5.569-5.9-8.464-8.748-.076-.075-.22.033-.15.12,4.489,5.576,9.265,10.939,14.028,16.286s9.611,10.675,14.492,15.94c2.758,2.975,5.571,5.9,8.464,8.747C235.38,338.791,235.65,338.588,235.518,338.424Z" fill="#263238"/>
                  <path id="Path_6129" data-name="Path 6129" d="M211.108,261.86c-.847,1.245-1.62,2.545-2.342,3.874.241-.684.49-1.365.728-2.049.965-2.774,1.855-5.57,2.783-8.354.058-.174-.232-.291-.3-.119-.981,2.408-2,4.8-2.955,7.22-.941,2.391-1.833,4.8-2.749,7.2-1.85,4.844-3.69,9.686-5.4,14.583-.967,2.773-1.865,5.558-2.674,8.381-.033.117.15.193.2.079,2.154-4.7,4.034-9.527,5.825-14.378q1.755-4.752,3.462-9.526c1.254-2.243,2.468-4.515,3.558-6.838A.078.078,0,0,0,211.108,261.86Z" fill="#263238"/>
                  <path id="Path_6130" data-name="Path 6130" d="M206.057,288.266c-.02-.029-.677-.536-.707-.566-2.15,1.88-4.48,3.52-6.7,5.29-1.18.95-9.94,7.9-12.94,10.43-7.11,6-14.04,12.23-20.82,18.61-3.39,3.19-6.72,6.45-10.01,9.74-3.32,3.31-6.63,6.63-9.78,10.11a.078.078,0,0,1-.12-.1c3.42-4.04,6.83-8.09,10.4-11.99a239.909,239.909,0,0,1,20.09-19.61q5.31-4.59,10.83-8.93c2.42-1.91,10.46-8.11,11.61-8.98,2.37-1.79,4.748-3.719,7.15-5.31.091-.061,1.087,1.187,1.117,1.206C206.257,288.237,206.107,288.356,206.057,288.266Z" fill="#263238"/>
                </g>
              </g>
            </g>
          </g>
        </g>
      </g>
      <g id="Mug">
        <g id="Group_4475" data-name="Group 4475">
          <g id="Group_4473" data-name="Group 4473">
            <rect id="Rectangle_2557" data-name="Rectangle 2557" width="23.67" height="3.694" transform="translate(92.667 382.081)" fill="#455a64"/>
            <rect id="Rectangle_2558" data-name="Rectangle 2558" width="23.67" height="2.437" transform="translate(92.667 382.081)" fill="#263238"/>
          </g>
          <g id="Group_4474" data-name="Group 4474">
            <path id="Path_6131" data-name="Path 6131" d="M64.572,372.15A13.07,13.07,0,0,0,80.3,377.16a16.892,16.892,0,0,0,3.346-1.76l-3.007-4.458a10.71,10.71,0,0,1-1.776,1.008c-5.636,2.556-9.205-1.888-9.906-2.9-3.245-4.559-4.406-14.974-1.119-18.98.217-.3,1.167-.766,4.979.045.7.159,1.5.336,2.4.584a9.575,9.575,0,0,0,2.164.467l.1-2.677.262-2.671c-.246-.045-.63-.155-1.131-.3a34.543,34.543,0,0,0-5.381-1.116c-2.8-.291-5.745.045-7.549,2.26C58.343,353.2,60.508,366.433,64.572,372.15Z" fill="#455a64"/>
            <path id="Path_6132" data-name="Path 6132" d="M80.64,370.942a10.71,10.71,0,0,1-1.776,1.008l1.437,5.21a16.892,16.892,0,0,0,3.346-1.76Z" opacity="0.1"/>
            <path id="Path_6133" data-name="Path 6133" d="M71.232,344.4l1.586,5.71c.7.159,1.5.336,2.4.584a9.575,9.575,0,0,0,2.164.467l.1-2.677.262-2.671c-.246-.045-.63-.155-1.131-.3A34.543,34.543,0,0,0,71.232,344.4Z" fill="#263238"/>
          </g>
          <path id="Path_6134" data-name="Path 6134" d="M135.986,337.423s-2.84,24.122-7.744,34.282c-4.905,10.144-11.75,11.281-16,11.281H96.765c-4.253,0-11.1-1.137-16-11.281-4.9-10.16-7.745-34.282-7.745-34.282Z" fill="#455a64"/>
          <path id="Path_6135" data-name="Path 6135" d="M132.937,355.976c-.225,1.028-.45,2.04-.675,3.069H76.739c-.225-1.029-.45-2.041-.675-3.069Z" fill="#37474f"/>
          <path id="Path_6136" data-name="Path 6136" d="M131.507,362.113c-.6,2.281-1.237,4.466-1.944,6.394H79.438c-.707-1.928-1.35-4.113-1.944-6.394Z" fill="#37474f"/>
        </g>
      </g>
    </g>
  </g>
</svg>
