<svg xmlns="http://www.w3.org/2000/svg" xmlns:xlink="http://www.w3.org/1999/xlink" width="438" height="427" viewBox="0 0 438 427">
  <defs>
    <clipPath id="clip-path">
      <rect id="Rectangle_3166" data-name="Rectangle 3166" width="438" height="427" transform="translate(-7141 6284)" fill="#fff"/>
    </clipPath>
    <clipPath id="clip-path-2">
      <path id="Path_5816" data-name="Path 5816" d="M366.95,337.93c.06,6.3-1.67,17.49-5.18,19.75a10.23,10.23,0,0,1-6.94,1.28s-3.38,5.41-7.08,5.25a11.557,11.557,0,0,1-6.3-2.52s-.18.4-.51.98v53.92A16.6,16.6,0,0,1,331.26,432a14.224,14.224,0,0,1-5.64,1.16H174.38c-8.48,0-15.34-7.41-15.34-16.57V174.45l-48.31,8.69-.56.1a4.623,4.623,0,0,1-1.39-.03c-4.3-.76-7.02-7.68-7.78-17.86-1.99.4-3.98.76-5.98,1.11-2.45.42-4.9.83-7.37,1.17l-3.7.5c-1.23.13-2.47.29-3.71.39,1.2-.32,2.42-.58,3.63-.88l3.65-.77c2.43-.52,4.88-.95,7.33-1.39,2.03-.34,4.05-.69,6.09-.98a92.875,92.875,0,0,1-.01-10.3l-4.21.21c-3.65.17-7.3.26-10.95.36-3.66.06-7.31.13-10.97.12s-7.31-.01-10.97-.14c3.65-.28,7.3-.46,10.96-.62,3.65-.18,7.3-.27,10.95-.36,3.66-.07,7.31-.14,10.97-.13l4.25.01a123.176,123.176,0,0,1,1.73-14.77l.03-.15c-2.09-.33-4.18-.68-6.27-1.03-4.22-.71-8.43-1.5-12.64-2.24-4.2-.83-8.41-1.61-12.6-2.48l-6.29-1.31c-2.08-.48-4.18-.92-6.26-1.43,2.12.29,4.24.63,6.35.94l6.34,1.05c4.22.7,8.43,1.5,12.64,2.24,4.2.83,8.41,1.61,12.6,2.48,2.07.43,4.14.86,6.21,1.31a122.064,122.064,0,0,1,4.16-16.54l-3.24-2.23c-3.06-2.1-6.07-4.26-9.08-6.42-2.99-2.18-5.99-4.37-8.94-6.61s-5.9-4.49-8.78-6.83c3.12,2,6.18,4.1,9.23,6.21s6.07,4.26,9.08,6.42c2.99,2.18,5.99,4.36,8.94,6.61l2.98,2.27a81.593,81.593,0,0,1,3.56-8.9c-1.41-1.25-2.79-2.55-4.16-3.85-1.59-1.53-3.17-3.06-4.7-4.65s-3.07-3.17-4.52-4.84c1.73,1.37,3.4,2.83,5.05,4.29s3.26,2.97,4.86,4.48c1.29,1.24,2.58,2.49,3.85,3.77,3.97-8.1,8.5-12.84,12.48-12.14a4.485,4.485,0,0,1,1.32.45v-.01l.06.04,34.09,19.84V92.53c0-18.66,6.86-19.57,15.34-19.57h30.3c1.76,0,3.2,2,3.2,4.48v1.07c0,5.81,3.18,5.83,7.08,5.83h70.06c3.94,0,7.1-.02,7.1-5.83V77.44c0-2.48,1.42-4.48,3.21-4.48h30.29c8.46,0,15.32,2.48,15.32,19.57V236.11a60.952,60.952,0,0,1,6,10.42c5.3,12.91,15.07,60.68,15.07,60.68l-2.15.17c.22,1.56.39,2.99.51,4.28v.01C361.91,317.09,366.9,332.22,366.95,337.93Z" fill="none"/>
    </clipPath>
  </defs>
  <g id="Mask_Group_76" data-name="Mask Group 76" transform="translate(7141 -6284)" clip-path="url(#clip-path)">
    <g id="Group_4479" data-name="Group 4479" transform="translate(-7168.563 6238.369)">
      <g id="Background_Complete" data-name="Background Complete">
        <g id="Group_4208" data-name="Group 4208">
          <path id="Path_5687" data-name="Path 5687" d="M60.388,228.006a28.991,28.991,0,1,1,37.275,17.073A28.99,28.99,0,0,1,60.388,228.006Z" fill="#fff"/>
          <path id="Path_5688" data-name="Path 5688" d="M102.679,219.784c-3.326,9.282-13.066,15.7-13.066,15.7s-10.958-4-16.326-12.263c-4.479-6.894-3.108-15.072,2.409-17.468,7.907-3.438,11.68,10.592,11.68,10.592s.434-14.521,8.93-13C102.226,204.4,105.446,212.042,102.679,219.784Z" fill="#dbdbdb"/>
        </g>
        <g id="Group_4210" data-name="Group 4210">
          <path id="Path_5689" data-name="Path 5689" d="M418.361,308.109a28.984,28.984,0,0,1-30.375-2.622,28.988,28.988,0,1,1,30.375,2.622Z" fill="#fff"/>
          <g id="Group_4209" data-name="Group 4209">
            <path id="Path_5690" data-name="Path 5690" d="M414.356,279.688a8.821,8.821,0,1,1-8.034-9.544A8.822,8.822,0,0,1,414.356,279.688Z" fill="#dbdbdb"/>
            <path id="Path_5691" data-name="Path 5691" d="M418.673,304.483l-.312,3.626a28.984,28.984,0,0,1-30.375-2.622l.31-3.613a15.244,15.244,0,0,1,30.377,2.609Z" fill="#dbdbdb"/>
          </g>
        </g>
        <g id="Group_4212" data-name="Group 4212">
          <path id="Path_6137" data-name="Path 6137" d="M31.847,0A31.847,31.847,0,1,1,0,31.847,31.847,31.847,0,0,1,31.847,0Z" transform="translate(350.077 61.592) rotate(-23.073)" fill="#fff"/>
          <g id="xsrjP0">
            <g id="Group_4211" data-name="Group 4211">
              <path id="Path_5692" data-name="Path 5692" d="M387.515,91.08c-.842-.529-1.575-1.3-2.7-1.19-.433.043-.337-.316-.34-.551q-.009-6.366-.009-12.725c0-.308.019-.562.356-.732,3.239-1.633,4.644-4.848,6.629-7.6a12.676,12.676,0,0,0,2.35-9.624c-.135-.955.31-1.383,1.17-1.578a2.127,2.127,0,0,1,2.421.761,17.09,17.09,0,0,1,1.85,5.559c.187,1.61-.389,3.176-.59,4.767-.148,1.165-.419,2.316-.64,3.5.284.206.614.1.919.1q5.375.009,10.751,0c1.51,0,2.249.434,2.459,1.436a2.872,2.872,0,0,1-1.561,3.107c-.267.135-.752.013-.785.433s.467.383.715.556c1.3.89,1.056,2.725-.445,3.786-.361.253-1.061.136-1.079.666-.008.422.647.417.944.715,1.046,1.034.526,2.967-1.038,3.747a4.783,4.783,0,0,0-.63.243c-.178.12-.352.253-.007.5,1.552,1.109,1.518,2.652-.044,3.778l-.467.335a3.03,3.03,0,0,1-1.887.413q-8.43.017-16.858,0A2,2,0,0,1,387.515,91.08Z" fill="#dbdbdb" fill-rule="evenodd"/>
              <path id="Path_5693" data-name="Path 5693" d="M371.536,83.6c0-2.694.013-5.392-.009-8.085,0-.549.052-.818.724-.81q4.934.06,9.86,0c.645-.007.745.215.741.788q-.027,8.136,0,16.271c0,.69-.184.885-.877.873-3.188-.036-6.377-.043-9.563.007-.794.012-.9-.266-.895-.96C371.561,88.99,371.536,86.3,371.536,83.6Z" fill="#dbdbdb" fill-rule="evenodd"/>
            </g>
          </g>
        </g>
        <g id="Group_4213" data-name="Group 4213">
          <path id="Path_5694" data-name="Path 5694" d="M113.331,377.589c1.646,10.675-4.381,21.941-4.381,21.941s-12.639,1.875-22.126-3.28c-7.913-4.3-10.865-12.89-6.805-18.078,5.819-7.441,16.779,4.1,16.779,4.1s-7.167-14.21,1.808-17.184C104.86,363.013,111.952,368.689,113.331,377.589Z" fill="#ebebeb"/>
          <path id="Path_5695" data-name="Path 5695" d="M135.391,351.318c-4.778,6.353-13.81,8.966-13.81,8.966s-7.483-5.694-9.642-13.341c-1.8-6.379,1.207-12.348,6.027-12.875,6.91-.758,6.464,10.946,6.464,10.946s3.8-11.078,9.981-7.878C138.717,339.365,139.371,346.018,135.391,351.318Z" fill="#ebebeb"/>
        </g>
      </g>
      <g id="Shadow">
        <g id="Group_4214" data-name="Group 4214">
          <ellipse id="Ellipse_1593" data-name="Ellipse 1593" cx="158.424" cy="21.213" rx="158.424" ry="21.213" transform="translate(91.576 430.194)" fill="#bedbd5"/>
        </g>
      </g>
      <g id="Device">
        <g id="Group_4238" data-name="Group 4238">
          <g id="Group_4237" data-name="Group 4237">
            <path id="Path_5697" data-name="Path 5697" d="M334.515,61.92H165.465a17.259,17.259,0,0,0-17.1,17.42V427.35a17.272,17.272,0,0,0,17.1,17.42h169.05a17.282,17.282,0,0,0,17.12-17.42V79.34A17.269,17.269,0,0,0,334.515,61.92Zm6.43,354.67c0,9.16-6.86,16.57-15.32,16.57H174.385c-8.48,0-15.34-7.41-15.34-16.57V92.53c0-18.66,6.86-19.57,15.34-19.57h30.29c1.76,0,3.2,2,3.2,4.48v1.07c0,5.81,3.18,5.83,7.09,5.83h70.06c3.94,0,7.09-.02,7.09-5.83V77.44c0-2.48,1.42-4.48,3.21-4.48h30.3c8.46,0,15.32,2.48,15.32,19.57Z" fill="#263238"/>
            <path id="Path_5698" data-name="Path 5698" d="M259.551,77.083h-19.11a1.18,1.18,0,0,1-1.181-1.18h0a1.181,1.181,0,0,1,1.181-1.181h19.11a1.181,1.181,0,0,1,1.181,1.181h0A1.18,1.18,0,0,1,259.551,77.083Z" fill="#fff"/>
            <line id="Line_6" data-name="Line 6" x1="0.57" transform="translate(158.475 396.05)" fill="none"/>
            <g id="Group_4236" data-name="Group 4236">
              <path id="Path_5699" data-name="Path 5699" d="M340.945,92.53V416.59c0,9.16-6.86,16.57-15.32,16.57H174.385c-8.48,0-15.34-7.41-15.34-16.57V92.53c0-18.66,6.86-19.57,15.34-19.57h30.29c1.76,0,3.2,2,3.2,4.48v1.07c0,5.81,3.18,5.83,7.09,5.83h70.06c3.94,0,7.09-.02,7.09-5.83V77.44c0-2.48,1.42-4.48,3.21-4.48h30.3C334.085,72.96,340.945,75.44,340.945,92.53Z" fill="#fff"/>
              <path id="Path_5700" data-name="Path 5700" d="M340.94,92.53v24.18H159.04V92.53c0-18.66,6.86-19.57,15.34-19.57h30.3c1.76,0,3.2,2,3.2,4.48v1.07c0,5.81,3.18,5.83,7.08,5.83h70.06c3.94,0,7.1-.02,7.1-5.83V77.44c0-2.48,1.42-4.48,3.21-4.48h30.29C334.08,72.96,340.94,75.44,340.94,92.53Z" fill="#29a9ff"/>
              <g id="Group_4215" data-name="Group 4215">
                <path id="Path_5701" data-name="Path 5701" d="M176.279,104.9,170.9,99.87l5.374-5.035.834.888-4.425,4.147,4.425,4.147Z" fill="#fff"/>
                <path id="Path_5702" data-name="Path 5702" d="M324.436,105.256h-3.6V104.01a.3.3,0,0,0-.169-.267,4.462,4.462,0,0,1-.4-.233.305.305,0,0,0-.316-.014l-1.082.624-1.8-3.115,1.082-.623a.3.3,0,0,0,.143-.282c0-.075-.005-.152-.005-.23s0-.154.006-.23a.305.305,0,0,0-.145-.283l-1.081-.623,1.8-3.114,1.08.623a.3.3,0,0,0,.317-.013,4.019,4.019,0,0,1,.4-.233.3.3,0,0,0,.169-.267V94.484h3.6V95.73a.3.3,0,0,0,.169.267,4.15,4.15,0,0,1,.4.233.3.3,0,0,0,.316.013l1.08-.623,1.8,3.114-1.083.624a.3.3,0,0,0-.144.283c0,.078.005.153.005.229s0,.15,0,.225a.3.3,0,0,0,.141.284l1.084.627-1.8,3.114-1.082-.624a.305.305,0,0,0-.316.014,4.331,4.331,0,0,1-.4.233.3.3,0,0,0-.169.267Zm-2.846-.75h2.1v-.5a1.049,1.049,0,0,1,.578-.935,3.688,3.688,0,0,0,.333-.193,1.046,1.046,0,0,1,1.1-.035l.432.248,1.048-1.815-.436-.251a1.042,1.042,0,0,1-.515-.97l0-.189,0-.194a1.043,1.043,0,0,1,.519-.968l.432-.249-1.047-1.814-.43.248a1.048,1.048,0,0,1-1.1-.035,3.422,3.422,0,0,0-.333-.192,1.047,1.047,0,0,1-.58-.936v-.5h-2.1v.5a1.048,1.048,0,0,1-.579.936,3.2,3.2,0,0,0-.333.192,1.052,1.052,0,0,1-1.1.035l-.43-.248L318.1,98.459l.43.249a1.053,1.053,0,0,1,.519.971c0,.065-.005.128-.005.191s0,.127,0,.19a1.051,1.051,0,0,1-.517.972l-.431.249,1.046,1.814.432-.248a1.043,1.043,0,0,1,1.1.036,3.372,3.372,0,0,0,.332.191,1.051,1.051,0,0,1,.578.936Zm1.047-1.932a2.705,2.705,0,1,1,2.707-2.7A2.706,2.706,0,0,1,322.637,102.574Zm0-4.661a1.955,1.955,0,1,0,1.957,1.957A1.958,1.958,0,0,0,322.637,97.913Z" fill="#fff"/>
              </g>
              <g id="Group_4219" data-name="Group 4219">
                <g id="u5Zjqx">
                  <g id="Group_4216" data-name="Group 4216">
                    <path id="Path_5703" data-name="Path 5703" d="M199.448,80.238l-.293.291-.165.167a3.982,3.982,0,0,0-5.644,0c-.052-.054-.1-.111-.158-.165l-.289-.291-.008,0v-.007l.021-.017c.123-.11.243-.223.37-.328a4.577,4.577,0,0,1,1.991-.927c.187-.034.377-.052.567-.075.064-.008.483-.009.5-.008.129.009.258.015.386.029a4.376,4.376,0,0,1,1.041.248,4.557,4.557,0,0,1,.7.33,4.4,4.4,0,0,1,.672.47c.1.09.206.185.309.278Z" fill="#fff"/>
                    <path id="Path_5704" data-name="Path 5704" d="M194.275,81.616l-.463-.459a3.263,3.263,0,0,1,1.882-.945,3.3,3.3,0,0,1,2.831.938l-.465.463a2.675,2.675,0,0,0-3.785,0Z" fill="#fff"/>
                    <path id="Path_5705" data-name="Path 5705" d="M197.6,82.077l-.46.46a1.368,1.368,0,0,0-1.939,0l-.46-.459A2.009,2.009,0,0,1,197.6,82.077Z" fill="#fff"/>
                  </g>
                  <path id="Path_5706" data-name="Path 5706" d="M196.584,82.955a.415.415,0,1,1-.415-.416A.415.415,0,0,1,196.584,82.955Z" fill="#fff"/>
                </g>
                <g id="Group_4217" data-name="Group 4217">
                  <path id="Path_5707" data-name="Path 5707" d="M170.9,81.123a1.205,1.205,0,1,1,1.205,1.205A1.2,1.2,0,0,1,170.9,81.123Z" fill="#fff"/>
                  <path id="Path_5708" data-name="Path 5708" d="M174.7,81.123a1.206,1.206,0,1,1,1.205,1.205A1.2,1.2,0,0,1,174.7,81.123Z" fill="#fff"/>
                  <path id="Path_5709" data-name="Path 5709" d="M178.5,81.123a1.206,1.206,0,1,1,1.205,1.205A1.2,1.2,0,0,1,178.5,81.123Z" fill="#fff"/>
                  <path id="Path_5710" data-name="Path 5710" d="M182.3,81.123a1.205,1.205,0,1,1,1.205,1.205A1.205,1.205,0,0,1,182.3,81.123Z" fill="#fff"/>
                  <path id="Path_5711" data-name="Path 5711" d="M186.093,81.123a1.205,1.205,0,1,1,1.205,1.205A1.205,1.205,0,0,1,186.093,81.123Z" fill="#fff"/>
                </g>
                <g id="Group_4218" data-name="Group 4218">
                  <path id="Path_5712" data-name="Path 5712" d="M327.3,83.754h-9.814V79.208H327.3Zm-9.314-.5H326.8V79.708h-8.814Z" fill="#fff"/>
                  <rect id="Rectangle_2436" data-name="Rectangle 2436" width="6.326" height="3.002" transform="translate(318.298 79.981)" fill="#fff"/>
                  <rect id="Rectangle_2437" data-name="Rectangle 2437" width="0.873" height="2.432" transform="translate(327.304 80.266)" fill="#fff"/>
                </g>
              </g>
              <path id="Path_5713" data-name="Path 5713" d="M186.683,413.349H185.3V419.7h-2.584v-3.236H178.14V419.7h-2.584v-6.351h-1.383l6.255-6.464Z" fill="#ebebeb"/>
              <g id="Group_4220" data-name="Group 4220">
                <rect id="Rectangle_2438" data-name="Rectangle 2438" width="15.077" height="2.154" transform="translate(310.75 406.885)" fill="#ebebeb"/>
                <rect id="Rectangle_2439" data-name="Rectangle 2439" width="15.077" height="2.154" transform="translate(310.75 412.216)" fill="#ebebeb"/>
                <rect id="Rectangle_2440" data-name="Rectangle 2440" width="15.077" height="2.154" transform="translate(310.75 417.546)" fill="#ebebeb"/>
              </g>
              <g id="Group_4225" data-name="Group 4225">
                <g id="Group_4223" data-name="Group 4223">
                  <g id="Group_4222" data-name="Group 4222">
                    <path id="Path_5714" data-name="Path 5714" d="M186.39,148.523a9.985,9.985,0,0,1-2.927,1.225,10.147,10.147,0,1,1,2.927-1.225Z" fill="#dbdbdb"/>
                    <g id="Group_4221" data-name="Group 4221">
                      <path id="Path_5715" data-name="Path 5715" d="M184.141,138.731a3.088,3.088,0,1,1-3.088-3.088A3.088,3.088,0,0,1,184.141,138.731Z" fill="#fff"/>
                      <path id="Path_5716" data-name="Path 5716" d="M186.39,147.249v1.274a9.985,9.985,0,0,1-2.927,1.225,10.091,10.091,0,0,1-7.746-1.229v-1.27a5.337,5.337,0,0,1,10.673,0Z" fill="#fff"/>
                    </g>
                  </g>
                </g>
                <g id="Group_4224" data-name="Group 4224">
                  <rect id="Rectangle_2441" data-name="Rectangle 2441" width="64.513" height="5.32" transform="translate(203.928 130.323)" fill="#ebebeb"/>
                  <rect id="Rectangle_2442" data-name="Rectangle 2442" width="56.31" height="3.524" transform="translate(203.928 139.193)" fill="#ebebeb"/>
                  <rect id="Rectangle_2443" data-name="Rectangle 2443" width="93.111" height="3.524" transform="translate(203.928 145.977)" fill="#ebebeb"/>
                </g>
              </g>
              <g id="Group_4226" data-name="Group 4226">
                <rect id="Rectangle_2444" data-name="Rectangle 2444" width="181.87" height="127.361" transform="translate(340.915 285.807) rotate(180)" fill="#ebebeb"/>
                <path id="Path_5717" data-name="Path 5717" d="M180.3,194.651a15.067,15.067,0,1,0,15.067-15.068A15.067,15.067,0,0,0,180.3,194.651Z" fill="#dbdbdb"/>
                <path id="Path_5718" data-name="Path 5718" d="M239.8,258.1H340.94l-50.569-68.545Z" fill="#c7c7c7"/>
                <path id="Path_5719" data-name="Path 5719" d="M200.155,258.429h83.5l-41.75-44.636Z" fill="#dbdbdb"/>
                <rect id="Rectangle_2445" data-name="Rectangle 2445" width="181.87" height="27.44" transform="translate(159.045 258.367)" fill="#dbdbdb"/>
              </g>
              <g id="Group_4231" data-name="Group 4231">
                <g id="Group_4229" data-name="Group 4229">
                  <g id="Group_4228" data-name="Group 4228">
                    <path id="Path_5720" data-name="Path 5720" d="M186.39,352.965a9.985,9.985,0,0,1-2.927,1.225,10.147,10.147,0,1,1,2.927-1.225Z" fill="#dbdbdb"/>
                    <g id="Group_4227" data-name="Group 4227">
                      <path id="Path_5721" data-name="Path 5721" d="M184.141,343.173a3.088,3.088,0,1,1-3.088-3.088A3.088,3.088,0,0,1,184.141,343.173Z" fill="#fff"/>
                      <path id="Path_5722" data-name="Path 5722" d="M186.39,351.691v1.274a9.985,9.985,0,0,1-2.927,1.225,10.087,10.087,0,0,1-7.746-1.23v-1.269a5.337,5.337,0,0,1,10.673,0Z" fill="#fff"/>
                    </g>
                  </g>
                </g>
                <g id="Group_4230" data-name="Group 4230">
                  <rect id="Rectangle_2446" data-name="Rectangle 2446" width="82.969" height="5.32" transform="translate(203.928 334.765)" fill="#ebebeb"/>
                  <rect id="Rectangle_2447" data-name="Rectangle 2447" width="105.914" height="3.524" transform="translate(203.928 343.634)" fill="#ebebeb"/>
                  <rect id="Rectangle_2448" data-name="Rectangle 2448" width="36.081" height="3.524" transform="translate(203.928 350.419)" fill="#ebebeb"/>
                </g>
              </g>
              <g id="Group_4232" data-name="Group 4232">
                <rect id="Rectangle_2449" data-name="Rectangle 2449" width="181.87" height="31.11" transform="translate(159.045 362.89)" fill="#ebebeb"/>
                <path id="Path_5723" data-name="Path 5723" d="M209.545,394h-28.36a15.069,15.069,0,0,1,28.36,0Z" fill="#dbdbdb"/>
              </g>
              <g id="Group_4234" data-name="Group 4234">
                <circle id="Ellipse_1594" data-name="Ellipse 1594" cx="6.02" cy="6.02" r="6.02" transform="translate(171.092 293.284)" fill="#ebebeb"/>
                <g id="xsrjP0-2" data-name="xsrjP0">
                  <g id="Group_4233" data-name="Group 4233">
                    <path id="Path_5724" data-name="Path 5724" d="M176.292,301.7c-.159-.1-.3-.246-.511-.225-.082.008-.064-.06-.064-.1,0-.8,0-1.6,0-2.406,0-.058,0-.106.067-.138.612-.309.878-.917,1.253-1.436a2.4,2.4,0,0,0,.445-1.82c-.026-.18.058-.261.221-.3a.4.4,0,0,1,.457.144,3.234,3.234,0,0,1,.35,1.051,3.787,3.787,0,0,1-.112.9c-.027.22-.079.438-.121.661.054.039.117.019.174.019.678,0,1.355,0,2.033,0,.285,0,.425.082.464.272a.542.542,0,0,1-.295.587c-.05.025-.142,0-.148.082s.088.072.135.105c.245.168.2.515-.084.716-.068.048-.2.025-.2.126,0,.079.122.078.178.135a.458.458,0,0,1-.2.708.889.889,0,0,0-.119.046c-.033.023-.066.048,0,.094a.4.4,0,0,1-.008.714l-.089.064a.581.581,0,0,1-.357.078q-1.593,0-3.186,0A.38.38,0,0,1,176.292,301.7Z" fill="#fff" fill-rule="evenodd"/>
                    <path id="Path_5725" data-name="Path 5725" d="M173.271,300.285c0-.509,0-1.019,0-1.528,0-.1.009-.155.136-.153q.933.01,1.864,0c.122,0,.141.041.14.149q0,1.539,0,3.076c0,.131-.035.168-.166.165-.6-.006-1.205-.008-1.807,0-.15,0-.171-.051-.17-.182C173.276,301.3,173.271,300.8,173.271,300.285Z" fill="#fff" fill-rule="evenodd"/>
                  </g>
                </g>
              </g>
              <g id="Group_4235" data-name="Group 4235">
                <path id="Path_5726" data-name="Path 5726" d="M183.909,300.733a6.02,6.02,0,1,1,7.277,4.42A6.02,6.02,0,0,1,183.909,300.733Z" fill="#29a9ff"/>
                <path id="Path_5727" data-name="Path 5727" d="M192.83,300.057a7.715,7.715,0,0,1-3.074,2.922,7.7,7.7,0,0,1-3.071-2.922c-.758-1.531-.278-3.184.918-3.545,1.714-.519,2.153,2.466,2.153,2.466s.44-2.985,2.156-2.466C193.107,296.873,193.587,298.526,192.83,300.057Z" fill="#fff"/>
              </g>
              <rect id="Rectangle_2450" data-name="Rectangle 2450" width="85.445" height="3.478" transform="translate(204.925 298.518)" fill="#ebebeb"/>
              <path id="Path_5728" data-name="Path 5728" d="M159.045,319.272l22.734-.182,22.734-.066,45.467-.126,45.467.125,22.734.066,22.734.184-22.734.184-22.734.066-45.467.125-45.467-.126-22.734-.066Z" fill="#ebebeb"/>
            </g>
          </g>
        </g>
      </g>
      <g id="Icons">
        <g id="Group_4239" data-name="Group 4239">
          <rect id="Rectangle_2451" data-name="Rectangle 2451" width="63.497" height="63.497" transform="translate(62.272 272.76) rotate(-14.929)" fill="#455a64"/>
          <path id="Path_5729" data-name="Path 5729" d="M97.164,303.271l-8.226,2.194c-.857-3.215-1.665-6.246-2.519-9.447l8.069-2.151c-.155-.727-.263-1.3-.4-1.86-.6-2.495-1.37-4.963-1.795-7.488-.938-5.556,1.37-10.27,6.534-12.441,3.22-1.353,6.78-1.9,10.276-2.832.781,2.93,1.494,5.605,2.292,8.6-1.247.332-2.494.638-3.724,1a17.878,17.878,0,0,0-3.251,1.1,3.2,3.2,0,0,0-1.826,3.686c.548,2.438,1.264,4.838,1.961,7.454l9.381-2.5c.428,3.195.856,6.156,1.171,9.129.031.288-.59.829-1,.95-2.246.665-4.52,1.236-6.974,1.891L113.6,324.79l-9.987,2.663C101.475,319.441,99.344,311.447,97.164,303.271Z" fill="#fff"/>
        </g>
        <g id="Group_4241" data-name="Group 4241">
          <rect id="Rectangle_2452" data-name="Rectangle 2452" width="63.671" height="63.671" transform="translate(363.314 322.73) rotate(5.657)" fill="#29a9ff"/>
          <g id="Group_4240" data-name="Group 4240">
            <path id="Path_5730" data-name="Path 5730" d="M416.437,346.981c.6-6.346-2.953-10.84-9.236-11.523q-13.035-1.422-26.1-2.585c-6.159-.544-10.55,3.135-11.251,9.268-.49,4.335-.871,8.687-1.3,13.028-.421,4.249-.87,8.5-1.258,12.752-.588,6.489,2.956,11.027,9.369,11.728q12.9,1.418,25.824,2.558c6.3.553,10.742-3.188,11.395-9.452Q415.228,359.878,416.437,346.981Zm-6.722,25.439c-.441,4-2.82,6.01-6.838,5.64q-12.917-1.2-25.818-2.557c-4.029-.422-5.991-2.852-5.617-6.847q1.233-13.029,2.58-26.047c.41-3.975,2.861-6.039,6.835-5.673q12.918,1.189,25.818,2.557c3.98.422,5.968,2.915,5.619,6.885-.381,4.346-.849,8.684-1.279,13.025S410.194,368.083,409.715,372.42Z" fill="#fff"/>
            <path id="Path_5731" data-name="Path 5731" d="M393.1,345.317a12.241,12.241,0,1,0,10.879,13.559A12.223,12.223,0,0,0,393.1,345.317Zm-2.163,20.276a8.263,8.263,0,0,1-7.191-8.809,8.159,8.159,0,0,1,16.239,1.6A8.27,8.27,0,0,1,390.933,365.593Z" fill="#fff"/>
            <path id="Path_5732" data-name="Path 5732" d="M408.927,346.594a2.536,2.536,0,0,1-3.154,2.231,2.563,2.563,0,0,1-2.349-3.3c.294-1.69,1.482-2.369,3.195-2.3C408.319,343.694,409.244,344.78,408.927,346.594Z" fill="#fff"/>
          </g>
        </g>
        <g id="Group_4242" data-name="Group 4242">
          <rect id="Rectangle_2453" data-name="Rectangle 2453" width="47.352" height="47.351" transform="translate(373.617 174.731) rotate(19.587)" fill="#455a64"/>
          <path id="Path_5733" data-name="Path 5733" d="M367.065,209.968a16.3,16.3,0,0,0,11,.472c-3.658-2.7-4.847-4.538-4.614-7.082l2.8.844c-2.794-2.395-3.922-5.246-2.907-8.886l2.564,1.757c-1.64-4.792-1.21-7.9,1.526-9.977a21.71,21.71,0,0,0,11.954,12.448c.138-.473.236-.831.347-1.184a7.1,7.1,0,0,1,6.289-5.34,7.184,7.184,0,0,1,7.394,3.682,1.508,1.508,0,0,0,1.446.875c1.252-.022,2.5-.027,3.881-.039a7.49,7.49,0,0,1-3.931,2.5l.006.227,3.711.337c.029.061.058.123.088.183-1.194.573-2.365,1.2-3.588,1.694a1.928,1.928,0,0,0-1.279,1.253,21.117,21.117,0,0,1-25.2,13.5,21.434,21.434,0,0,1-10.95-6.612C367.412,210.411,367.242,210.186,367.065,209.968Z" fill="#fff"/>
        </g>
        <g id="Group_4244" data-name="Group 4244">
          <rect id="Rectangle_2454" data-name="Rectangle 2454" width="41.148" height="41.148" transform="matrix(0.949, -0.316, 0.316, 0.949, 357.209, 112.653)" fill="#29a9ff"/>
          <g id="Group_4243" data-name="Group 4243">
            <path id="Path_5734" data-name="Path 5734" d="M373.5,144.957c-.126-2.451-.267-4.72-.341-6.993a2.432,2.432,0,0,0-.789-1.79,15.224,15.224,0,1,1,25.488-15.136,15.348,15.348,0,0,1-9.03,18.467,16.327,16.327,0,0,1-7.61,1.034,2.407,2.407,0,0,0-1.407.353C377.746,142.176,375.719,143.518,373.5,144.957Zm2.367-4.564c1.3-.844,2.391-1.6,3.532-2.259a2.167,2.167,0,0,1,1.327-.26,13.539,13.539,0,0,0,6.325-.425c7.477-2.348,11.162-11.249,7.332-18.018a11.87,11.87,0,0,0-12.171-6.419,12.07,12.07,0,0,0-10.958,8.863c-1.642,5.123-.242,9.588,3.718,13.257a2.351,2.351,0,0,1,.652,1.351C375.772,137.721,375.788,138.974,375.867,140.393Z" fill="#fff"/>
            <path id="Path_5735" data-name="Path 5735" d="M374.983,121.829c.541-1.648,1.944-1.826,3.117-.6.459.481.587.652,1.068,1.215a1.858,1.858,0,0,1,.358,2.41c-.361.633-.177,1.023.357,1.435a10.674,10.674,0,0,0,5.612,2.238,1.016,1.016,0,0,0,1.228-.737c.762-1.937.786-1.927,2.857-1.681.238.028.477.059.715.088a1.768,1.768,0,0,1,1.459,2.831,4.248,4.248,0,0,1-3.712,2.329,15.5,15.5,0,0,1-10.985-3.739,5.861,5.861,0,0,1-2.188-2.9A5.116,5.116,0,0,1,374.983,121.829Z" fill="#fff"/>
          </g>
        </g>
      </g>
      <g id="Character">
        <g id="Group_4299" data-name="Group 4299">
          <g id="Group_4298" data-name="Group 4298" clip-path="url(#clip-path-2)">
            <g id="Group_4297" data-name="Group 4297">
              <g id="Group_4296" data-name="Group 4296">
                <g id="Group_4260" data-name="Group 4260">
                  <g id="Group_4252" data-name="Group 4252">
                    <g id="Group_4248" data-name="Group 4248">
                      <path id="Path_5736" data-name="Path 5736" d="M154.578,667.389c3.486,1.125,102.853-.163,106.6-2.617,1.441-.908,2.1-15.4,2.388-32.928,0-.183,0-.366,0-.549.068-3.613.115-7.334.12-11.1,0-.519,0-1.038.019-1.555l-4.822-51.55-66.471.666,6.56,51.065.077,2.022.4,10.571.039,1.087S161.68,650,157.839,653.136C154.029,656.256,151.091,666.28,154.578,667.389Z" fill="#f7b48f"/>
                      <path id="Path_5737" data-name="Path 5737" d="M154.578,667.389c3.486,1.125,102.853-.163,106.6-2.617,1.441-.908,2.1-15.4,2.388-32.928,0-.183,0-.366,0-.549.068-3.613.115-7.334.12-11.1,0-.519,0-1.038.019-1.555l-64.733.181.077,2.022.4,10.571.039,1.087S161.68,650,157.839,653.136C154.029,656.256,151.091,666.28,154.578,667.389Z" fill="#ebebeb"/>
                      <g id="Group_4247" data-name="Group 4247">
                        <path id="Path_5738" data-name="Path 5738" d="M154.569,667.383c1.794.577,28.79.516,55.178-.016,5.305-.106,10.58-.228,15.611-.364,18.819-.517,34.369-1.292,35.813-2.235,1.429-.9,2.082-14.988,2.371-32.2,0-.243.015-.486.015-.729,0-.183,0-.38.015-.563H263.5l-64.041.122.031,1.094s-37.819,17.5-41.65,20.627C154.022,656.256,151.088,666.273,154.569,667.383Z" fill="#a6a6a6"/>
                        <g id="Group_4246" data-name="Group 4246">
                          <g id="Group_4245" data-name="Group 4245">
                            <path id="Path_5739" data-name="Path 5739" d="M155.653,663.522c16.745-.629,84.342-1.583,100.942-.932.135,0,.136.1,0,.1-16.583.986-84.186,1.392-100.94,1.1C155.3,663.79,155.3,663.535,155.653,663.522Z" fill="#263238"/>
                            <path id="Path_5740" data-name="Path 5740" d="M192.322,631.685c6.575-1.316,14.65-.408,19.747,4.223.2.179-.06.457-.275.392a92.726,92.726,0,0,0-19.435-3.783A.421.421,0,0,1,192.322,631.685Z" fill="#263238"/>
                            <path id="Path_5741" data-name="Path 5741" d="M187.6,634.614c6.576-1.316,14.65-.408,19.748,4.222.2.18-.061.458-.275.393a92.744,92.744,0,0,0-19.436-3.783A.421.421,0,0,1,187.6,634.614Z" fill="#263238"/>
                            <path id="Path_5742" data-name="Path 5742" d="M182.88,637.543c6.576-1.316,14.651-.408,19.748,4.223.2.179-.06.457-.275.392a92.722,92.722,0,0,0-19.435-3.783A.421.421,0,0,1,182.88,637.543Z" fill="#263238"/>
                          </g>
                        </g>
                        <path id="Path_5743" data-name="Path 5743" d="M209.747,667.367c5.305-.106,10.58-.228,15.611-.364,18.819-.517,34.369-1.292,35.813-2.235,1.429-.9,2.082-14.988,2.371-32.2,0-.243.015-.486.015-.729,0-.183,0-.38.015-.563H263.5C254.726,637.438,223.808,658.019,209.747,667.367Z" fill="#263238"/>
                      </g>
                    </g>
                    <g id="Group_4251" data-name="Group 4251">
                      <path id="Path_5744" data-name="Path 5744" d="M195.094,631.631h71.564s-14.41-167.145-13.848-170.064c.715-3.739,4.941-20.658,10.565-42.759,1.763-6.917,3.663-14.334,5.639-22.026,5.336-20.794,11.218-43.519,16.341-63.3,7.692-29.626,13.7-52.64,13.7-52.64H238.4s-7.068,22.406-15.975,51.561C207.908,379.788,188.512,445,186.6,460.853,183.5,486.45,195.094,631.631,195.094,631.631Z" fill="#455a64"/>
                      <g id="Group_4250" data-name="Group 4250">
                        <g id="Group_4249" data-name="Group 4249">
                          <path id="Path_5745" data-name="Path 5745" d="M198.264,619.421c10.929-.228,7.789-.317,18.721-.422,5.349-.052,40.5-.358,45.5.47a.116.116,0,0,1,0,.223c-5,.827-40.149.521-45.5.47-10.932-.106-7.792-.2-18.721-.423A.159.159,0,0,1,198.264,619.421Z" fill="#263238"/>
                        </g>
                        <path id="Path_5746" data-name="Path 5746" d="M239.345,451.351c2.347-10.345,5.852-20.483,8.9-30.637q9.3-30.948,18.72-61.863,4.7-15.461,9.44-30.908,2.4-7.8,4.826-15.589c1.593-5.079,3.4-10.115,4.842-15.24.584-2.084.9-.939.155,1.708-1.509,5.337-3,10.681-4.555,16.005q-4.623,15.818-9.306,31.617Q263.066,377.893,253.6,409.3q-4.724,15.75-9.473,31.493a129.021,129.021,0,0,0-3.868,15.234,70.159,70.159,0,0,0-.632,16.3c.686,10.949,1.955,21.882,2.966,32.8l3.039,32.84q3.024,32.676,5.995,65.358c.248,2.762.49,5.523.7,8.288.071.925-1.327.855-1.425-.035-2.357-21.541-4.164-43.152-6.187-64.727q-3.02-32.2-6.032-64.4c-.5-5.389-1.077-10.789-1.081-16.208A66.858,66.858,0,0,1,239.345,451.351Z" fill="#263238"/>
                      </g>
                    </g>
                    <path id="Path_5747" data-name="Path 5747" d="M245.286,280.847c4.211,32.575,12.237,93.651,18.089,137.961,13.68-53.689,35.676-137.961,35.676-137.961Z" fill="#263238"/>
                  </g>
                  <g id="Group_4259" data-name="Group 4259">
                    <g id="Group_4256" data-name="Group 4256">
                      <path id="Path_5748" data-name="Path 5748" d="M230.389,668.347c3.482,1.138,102.853.212,106.61-2.229,1.445-.9,2.154-15.39,2.508-32.919l.006-.549c.081-3.612.141-7.333.161-11.1,0-.519.006-1.038.024-1.555.232-25.3-1.593-51.55-1.593-51.55l-64.953.423,1.814,51.072.068,2.022.363,10.572.035,1.088S237.554,650.986,233.7,654.1C229.881,657.211,226.906,667.225,230.389,668.347Z" fill="#f7b48f"/>
                      <path id="Path_5749" data-name="Path 5749" d="M230.389,668.347c3.482,1.138,102.853.212,106.61-2.229,1.445-.9,2.154-15.39,2.508-32.919l.006-.549c.081-3.612.141-7.333.161-11.1,0-.519.006-1.038.024-1.555l-64.732-.055.068,2.022.363,10.572.035,1.088S237.554,650.986,233.7,654.1C229.881,657.211,226.906,667.225,230.389,668.347Z" fill="#ebebeb"/>
                      <g id="Group_4255" data-name="Group 4255">
                        <path id="Path_5750" data-name="Path 5750" d="M230.389,668.347c3.482,1.138,102.853.212,106.61-2.229,1.445-.9,2.154-15.39,2.508-32.919l.006-.549-64.116-.119.035,1.088S237.554,650.986,233.7,654.1C229.881,657.211,226.906,667.225,230.389,668.347Z" fill="#a6a6a6"/>
                        <g id="Group_4254" data-name="Group 4254">
                          <g id="Group_4253" data-name="Group 4253">
                            <path id="Path_5751" data-name="Path 5751" d="M231.478,664.483c16.747-.567,84.347-1.275,100.945-.563.135.006.136.1,0,.105-16.586.925-84.19,1.085-100.943.733C231.127,664.75,231.124,664.495,231.478,664.483Z" fill="#263238"/>
                            <path id="Path_5752" data-name="Path 5752" d="M268.263,632.78c6.58-1.291,14.651-.354,19.732,4.295.2.18-.062.457-.276.392a92.618,92.618,0,0,0-19.422-3.854A.422.422,0,0,1,268.263,632.78Z" fill="#263238"/>
                            <path id="Path_5753" data-name="Path 5753" d="M263.532,635.692c6.58-1.292,14.651-.355,19.732,4.294.2.181-.063.458-.276.392a92.743,92.743,0,0,0-19.422-3.854A.421.421,0,0,1,263.532,635.692Z" fill="#263238"/>
                            <path id="Path_5754" data-name="Path 5754" d="M258.8,638.6c6.581-1.292,14.652-.355,19.732,4.294.2.181-.061.457-.276.392a92.726,92.726,0,0,0-19.421-3.854A.421.421,0,0,1,258.8,638.6Z" fill="#263238"/>
                          </g>
                        </g>
                      </g>
                    </g>
                    <g id="Group_4257" data-name="Group 4257">
                      <path id="Path_5755" data-name="Path 5755" d="M240.361,280.847s1.4,29.018,8.041,52c.532,1.9,1.11,3.769,1.733,5.563a107.829,107.829,0,0,1,17.481,8.984s.7,23.348,1.4,49.386c.776,29.109,1.581,61.578,1.414,68.464-.608,25.765,3.222,167.434,3.222,167.434l71.55.289s-12.936-158.208-12.845-167.647c.137-15.171-3.466-82.22-6.247-131.121-1.7-30.127-3.1-53.354-3.1-53.354Z" fill="#455a64"/>
                      <path id="Path_5756" data-name="Path 5756" d="M276.1,619.952c10.93-.181,7.791-.283,18.723-.342,5.349-.029,40.5-.185,45.5.664a.116.116,0,0,1,0,.222c-5,.807-40.151.351-45.5.276-10.931-.151-7.791-.227-18.719-.5A.16.16,0,0,1,276.1,619.952Z" fill="#263238"/>
                      <path id="Path_5757" data-name="Path 5757" d="M316.994,291.216c1.317,39.918,2.713,79.84,4.5,119.74,1.791,40.038,4.2,80.061,7.555,120,1.872,22.314,3.636,53.7,6.044,75.963.016.15-.212.2-.232.051-5.21-39.6-8.114-88.56-10.676-128.408s-4.3-79.752-5.656-119.652c-.768-22.57-1.356-45.148-2.031-67.721C316.487,290.868,316.984,290.9,316.994,291.216Z" fill="#263238"/>
                    </g>
                    <g id="Group_4258" data-name="Group 4258">
                      <path id="Path_5758" data-name="Path 5758" d="M247.161,336.683A132.848,132.848,0,0,1,267.616,347.4a.237.237,0,0,1-.215.421c-6.9-3.354-13.95-6.583-20.659-10.312A.462.462,0,0,1,247.161,336.683Z" fill="#263238"/>
                    </g>
                    <path id="Path_5759" data-name="Path 5759" d="M242.88,304.583c.57,3.068,1.314,6.1,1.976,9.153.621,2.861,1.079,5.78,1.835,8.608a14.65,14.65,0,0,0,4.009,7.214c1.123,1.043,2.359,1.966,3.556,2.922.644.515,1.342,1.01,2.012,1.531-.087-.4-.157-.817-.231-1.234q-.306-1.744-.6-3.491-.651-3.876-1.243-7.761c-.778-5.09-1.495-10.234-2.557-15.273a.164.164,0,0,1,.318-.079c1.268,4.993,2.668,9.933,3.772,14.969.541,2.47,2.474,14.664,2.56,15.527.088.891.163,1.785.194,2.68a10.634,10.634,0,0,1,0,2.738c-.052.222-.321.186-.415.036l-.013.009a10.763,10.763,0,0,1-.775-2.65c-.224-.87-.421-1.753-.577-2.638-.057-.319-.1-.646-.146-.973-1.2-.73-2.319-1.7-3.442-2.508-1.211-.876-2.444-1.73-3.588-2.693a13.748,13.748,0,0,1-4.379-6.843,49.784,49.784,0,0,1-1.436-8.763c-.388-3.465-.672-6.949-1.155-10.4C242.533,304.458,242.841,304.374,242.88,304.583Z" fill="#263238"/>
                  </g>
                </g>
                <g id="Group_4295" data-name="Group 4295">
                  <g id="Group_4274" data-name="Group 4274">
                    <g id="Group_4273" data-name="Group 4273">
                      <path id="Path_5760" data-name="Path 5760" d="M253.824,200.239c-4.1,32.679-11.264,87.489-22.85,91.923-2.007.768-10.54,2.46-16.373-4.106-9.835-11.071-26.834-48.38-31.584-60.382-2.107-5.322,32.589-22.688,35.56-17.338,4.161,7.492,8.529,18.77,9.357,18.394,1.383-.627,3.743-14.542,13.012-34.079C252.463,170.375,255.349,188.091,253.824,200.239Z" fill="#f7b48f"/>
                      <g id="Group_4271" data-name="Group 4271">
                        <path id="Path_5761" data-name="Path 5761" d="M172.945,214.772c3.416,7.337,16.272,19.61,20.512,21.378s25.832-19.394,25.282-24.076-13.964-28.5-21.365-32.16S169.406,207.17,172.945,214.772Z" fill="#f7b48f"/>
                        <g id="Group_4261" data-name="Group 4261">
                          <path id="Path_5762" data-name="Path 5762" d="M217.168,207.616s-.712-10.5,1.785-19.436c2.1-7.511,6.067-18.426,2.071-19.706-8.205-2.629-18.088,24.6-18.088,24.6S200.5,205.78,208.4,209.1A8.511,8.511,0,0,0,217.168,207.616Z" fill="#f7b48f"/>
                        </g>
                        <g id="Group_4268" data-name="Group 4268">
                          <g id="Group_4263" data-name="Group 4263">
                            <g id="Group_4262" data-name="Group 4262">
                              <path id="Path_5763" data-name="Path 5763" d="M195.189,216.3l-12.172-2.145,6.213-35.251,15.4,2.715Z" fill="#29a9ff"/>
                              <path id="Path_5764" data-name="Path 5764" d="M204.631,181.62l-3.6,13.231-5.848,21.455-12.173-2.146,6.214-35.255Z" fill="#29a9ff"/>
                              <path id="Path_5765" data-name="Path 5765" d="M204.631,181.62l-3.6,13.231-14.177-2.5,2.37-13.447Z" opacity="0.1"/>
                            </g>
                            <rect id="Rectangle_2455" data-name="Rectangle 2455" width="19.461" height="14.783" transform="translate(188.55 169.14) rotate(9.996)" fill="#29a9ff"/>
                          </g>
                          <g id="Group_4266" data-name="Group 4266">
                            <g id="Group_4264" data-name="Group 4264">
                              <path id="Path_5766" data-name="Path 5766" d="M221.486,169.461l-15.15-1.137,4.153-23.559,14.625,4.111Z" fill="#29a9ff"/>
                            </g>
                            <path id="Path_5767" data-name="Path 5767" d="M203.653,138.751l-6.128,34.768-25.508-1.411-61.847,11.13,14.716-83.495L179.2,131.356Z" fill="#29a9ff"/>
                            <ellipse id="Ellipse_1595" data-name="Ellipse 1595" cx="42.602" cy="13.694" rx="42.602" ry="13.694" transform="matrix(0.174, -0.985, 0.985, 0.174, 95.294, 180.833)" fill="#29a9ff"/>
                            <ellipse id="Ellipse_1596" data-name="Ellipse 1596" cx="37.82" cy="11.211" rx="37.82" ry="11.211" transform="matrix(0.174, -0.985, 0.985, 0.174, 97.997, 175.709)" opacity="0.2"/>
                            <path id="Path_5768" data-name="Path 5768" d="M124.845,142.041c-.483,2.74-1.043,5.391-1.667,7.93a8.457,8.457,0,0,1-12.44-8.865l.694-3.938a8.451,8.451,0,0,1,14.666-4.133C125.809,135.939,125.389,138.959,124.845,142.041Z" fill="#29a9ff"/>
                            <g id="Group_4265" data-name="Group 4265">
                              <path id="Path_5769" data-name="Path 5769" d="M210.661,177.819l-29.3-2.2,8.03-45.56,28.283,7.951Z" fill="#29a9ff"/>
                              <path id="Path_5770" data-name="Path 5770" d="M210.661,177.819l-29.3-2.2,8.03-45.56,28.283,7.951Z" opacity="0.2"/>
                            </g>
                            <path id="Path_5771" data-name="Path 5771" d="M127.786,106.151a26.459,26.459,0,0,1,2.956,9.062,60.317,60.317,0,0,1,.752,9.556c.046,1.6-.056,3.2-.1,4.795-.132,1.592-.217,3.189-.388,4.778-.2,1.584-.336,3.178-.581,4.756s-.465,3.161-.747,4.733a105.023,105.023,0,0,1-4.967,18.493,54.625,54.625,0,0,1-4.16,8.64,22.689,22.689,0,0,1-6.35,7.092,23.431,23.431,0,0,0,5.964-7.321,54.553,54.553,0,0,0,3.886-8.657,111.3,111.3,0,0,0,4.728-18.41,114.2,114.2,0,0,0,2.015-18.9,60.627,60.627,0,0,0-.493-9.486A27.554,27.554,0,0,0,127.786,106.151Z" opacity="0.2"/>
                          </g>
                          <g id="Group_4267" data-name="Group 4267">
                            <path id="Path_5772" data-name="Path 5772" d="M97.327,98.9c1.737,1.372,3.4,2.824,5.048,4.288s3.262,2.968,4.866,4.48c1.587,1.53,3.173,3.061,4.705,4.648l2.3,2.384c.74.821,1.5,1.617,2.223,2.459-.876-.678-1.707-1.4-2.562-2.105l-2.488-2.181c-1.658-1.456-3.262-2.968-4.864-4.482-1.586-1.531-3.172-3.061-4.7-4.649S98.779,100.572,97.327,98.9Z" fill="#263238"/>
                            <path id="Path_5773" data-name="Path 5773" d="M109.63,163.421c-2.414.629-4.847,1.149-7.283,1.653s-4.88.952-7.327,1.39c-2.451.414-4.9.826-7.368,1.162l-3.7.5c-1.239.13-2.472.295-3.716.4,1.205-.325,2.421-.585,3.632-.879l3.65-.775c2.433-.515,4.88-.953,7.328-1.389,2.451-.413,4.9-.825,7.368-1.16S107.145,163.643,109.63,163.421Z" fill="#263238"/>
                            <path id="Path_5774" data-name="Path 5774" d="M63.834,154.754c3.649-.288,7.3-.466,10.952-.627s7.305-.267,10.959-.361c3.653-.07,7.307-.138,10.963-.129l5.483.017c1.829.043,3.657.051,5.486.123-1.824.154-3.65.244-5.475.367l-5.477.262c-3.652.172-7.305.266-10.958.359-3.654.069-7.308.137-10.963.127S67.493,154.878,63.834,154.754Z" fill="#263238"/>
                            <path id="Path_5775" data-name="Path 5775" d="M76.919,99.629c3.123,2.006,6.182,4.1,9.232,6.208s6.066,4.26,9.076,6.423c3,2.181,5.991,4.365,8.94,6.611l4.423,3.372c1.452,1.153,2.925,2.279,4.36,3.457-1.568-.994-3.1-2.041-4.648-3.06l-4.585-3.146c-3.056-2.1-6.067-4.261-9.076-6.425-2.995-2.182-5.99-4.365-8.939-6.612S79.8,101.969,76.919,99.629Z" fill="#263238"/>
                            <path id="Path_5776" data-name="Path 5776" d="M109.142,139.684c-4.245-.584-8.47-1.276-12.691-1.984s-8.428-1.5-12.642-2.245c-4.2-.825-8.408-1.608-12.6-2.472l-6.285-1.317c-2.088-.475-4.182-.916-6.265-1.421,2.124.282,4.237.627,6.356.939l6.335,1.042c4.222.709,8.428,1.5,12.642,2.247,4.2.828,8.408,1.607,12.6,2.475S104.973,138.694,109.142,139.684Z" fill="#263238"/>
                          </g>
                        </g>
                        <g id="Group_4270" data-name="Group 4270">
                          <path id="Path_5777" data-name="Path 5777" d="M207.625,187.838c-.463,4.263-5.222,1.277-5.222,1.277s5.815,5.949,3.638,10.16c-2.109,4.053-7.731.243-8.138-.025.3.318,5.505,5.924,2.882,9.93-2.73,4.161-7.717-.633-8.038-.944.194.39,2.669,5.591-.016,8.181-4.616,4.449-11.311-8.675-16.311-10.068,0,0-3.328,8.205-3.475,8.423,0,0-6.625-12.356-4.369-19a4.476,4.476,0,0,1,4.685-3.083s-2.576-3.748-.61-6.967c1.014-1.65,4.554-1.5,4.554-1.5s-1.937-3.087-.01-5.841c1.531-2.2,4.845-1.707,4.845-1.707s-.486-3.827,1.81-5.569C188.471,167.589,208.608,178.709,207.625,187.838Z" fill="#f7b48f"/>
                          <g id="Group_4269" data-name="Group 4269">
                            <path id="Path_5778" data-name="Path 5778" d="M182.576,176.681a.06.06,0,0,1,.037-.115c7.515,2.041,15.146,6.586,20.064,12.683.162.2-.093.549-.313.363A81.711,81.711,0,0,0,182.576,176.681Z" fill="#263238"/>
                            <path id="Path_5779" data-name="Path 5779" d="M177.128,184.135c-.082-.036-.022-.173.07-.147,7.732,2.145,16.187,7.5,21.028,15.2.166.264.051.667-.164.378C194.455,194.689,183.92,187.16,177.128,184.135Z" fill="#263238"/>
                            <path id="Path_5780" data-name="Path 5780" d="M192.9,208.89c-4.928-7.2-11.668-12.1-19.313-16.128-.1-.053-.015-.188.08-.167,4.278.954,8.883,4.033,12.264,6.731a23.005,23.005,0,0,1,7.221,9.391C193.213,208.866,193.005,209.043,192.9,208.89Z" fill="#263238"/>
                          </g>
                          <path id="Path_5781" data-name="Path 5781" d="M202.549,189.107c.193.241-.371.259-.185.505.781,1.036,4.949,7.675,3.128,9.8-1.464,1.7-4.759.908-5.906.109l-2.884-2.011,2.01,2.892a14.352,14.352,0,0,1,2.042,4.189,5.142,5.142,0,0,1-.312,4.2,2.939,2.939,0,0,1-3.429,1.387,8.9,8.9,0,0,1-3.752-2.4l-2.935-2.957,1.8,3.738a13.469,13.469,0,0,1,1.092,3.272,5.56,5.56,0,0,1-.19,3.208,2.648,2.648,0,0,1-2.271,1.622,5.855,5.855,0,0,1-3.059-1.173,46.043,46.043,0,0,1-5.461-4.726c-.887-.836-1.777-1.678-2.708-2.476a8.7,8.7,0,0,0-3.107-1.926,9.4,9.4,0,0,1,2.879,2.174c.857.858,1.675,1.759,2.5,2.661a39.3,39.3,0,0,0,5.328,5.118,6.834,6.834,0,0,0,3.623,1.523,3.754,3.754,0,0,0,3.443-2.263,6.811,6.811,0,0,0,.344-3.974,14.871,14.871,0,0,0-1.162-3.662l-1.136.78a10.208,10.208,0,0,0,4.4,2.883,4.259,4.259,0,0,0,2.879-.157,4.808,4.808,0,0,0,2.122-1.9,6.49,6.49,0,0,0,.4-5.312,15.611,15.611,0,0,0-2.318-4.572l-.874.881c1.492.967,5.08,2.251,7.681-.1C209.456,196.866,203.689,190.243,202.549,189.107Z" fill="#263238"/>
                          <path id="Path_5782" data-name="Path 5782" d="M202.4,189.115a8.627,8.627,0,0,0,2.572.556,1.99,1.99,0,0,0,1.821-.87,4.057,4.057,0,0,0,.378-2.272c-.062-.861-.171-1.764-.321-2.692a6.839,6.839,0,0,1,1.247,2.548,4.011,4.011,0,0,1-.289,3.056,2.852,2.852,0,0,1-1.329,1.07,2.968,2.968,0,0,1-1.615.088A4.615,4.615,0,0,1,202.4,189.115Z" fill="#263238"/>
                        </g>
                      </g>
                      <g id="Group_4272" data-name="Group 4272">
                        <path id="Path_5783" data-name="Path 5783" d="M180.3,239.453l37.928-30.5s9.2,19,9.737,18.922,6.557-25.288,16.534-40.993,12.386,1.337,10.267,14.306-12.1,84.783-21.075,91.366-17.4-1.656-21.03-5.155C207.66,282.574,180.3,239.453,180.3,239.453Z" fill="#29a9ff"/>
                        <path id="Path_5784" data-name="Path 5784" d="M187.6,242.876c1.187-1.219,13.11-10.512,15.743-12.475s5.273-3.923,7.914-5.879c2.728-2.021,5.41-4.214,8.292-6.012a.119.119,0,0,1,.148.186c-2.494,2.3-5.317,4.305-7.986,6.4q-3.951,3.1-7.911,6.188c-2.642,2.055-14.636,10.986-16.085,11.785C187.592,243.135,187.519,242.959,187.6,242.876Z" fill="#263238"/>
                        <path id="Path_5785" data-name="Path 5785" d="M227.964,227.871c1.051,2.239,1.963,4.535,2.839,6.843s1.676,4.645,2.427,7c.726,2.361,1.43,4.73,2,7.138a64.155,64.155,0,0,1,1.374,7.287c-.369-1.183-.671-2.375-1.053-3.549-.331-1.184-.7-2.359-1.063-3.534l-2.207-7.042-2.2-7.05-1.085-3.534C228.66,230.24,228.287,229.065,227.964,227.871Z" fill="#263238"/>
                      </g>
                    </g>
                  </g>
                  <g id="Group_4275" data-name="Group 4275">
                    <path id="Path_5786" data-name="Path 5786" d="M228.143,306.11c1.642,1.627,102.485-3.708,102.971-4.362,1.323-1.778-34.742-109.106-58.384-126.086-5.084-3.652-18.738,1.239-22.245,4.758-2.2,2.207-6.991,16.157-10.124,27.694C234.09,231.209,226.714,304.681,228.143,306.11Z" fill="#fff"/>
                  </g>
                  <g id="Group_4289" data-name="Group 4289">
                    <path id="Path_5787" data-name="Path 5787" d="M252.562,175.888c-3.995,2.966-7.067,18.308,2.078,20.386s17.625-12.366,18.872-17.032S261.208,169.469,252.562,175.888Z" fill="#29a9ff"/>
                    <g id="Group_4288" data-name="Group 4288">
                      <g id="Group_4277" data-name="Group 4277">
                        <g id="Group_4276" data-name="Group 4276">
                          <path id="Path_5788" data-name="Path 5788" d="M255.3,194.174c5.671.728,14.282-8.725,17.315-15.971.2-.5-1.035-5.375-2.261-11.372-.73-3.642-1.456-7.715-1.851-11.48l-23.008,8.213s3.149,7.647,3.8,14.214a8.571,8.571,0,0,1,0,1.562c0,.072-.012.16-.008.259C249.112,182.584,249.817,193.467,255.3,194.174Z" fill="#f7b48f"/>
                        </g>
                        <path id="Path_5789" data-name="Path 5789" d="M267.411,155.742c-.242,4.777-2.054,21.993-15.693,23.735a16.463,16.463,0,0,1-2.434.127.956.956,0,0,1,.011-.265,8.807,8.807,0,0,0,0-1.558c-.657-6.565-3.808-14.216-3.808-14.216Z" fill="#263238"/>
                      </g>
                      <g id="Group_4287" data-name="Group 4287">
                        <g id="Group_4278" data-name="Group 4278">
                          <path id="Path_5790" data-name="Path 5790" d="M268.886,127.141c3.356,8.135,1.237,32.763-4.209,38.728-7.895,8.647-21.969,10.742-29.606.99-7.4-9.453-4.073-41.5,2.117-47.039C246.3,111.662,263.93,115.123,268.886,127.141Z" fill="#f7b48f"/>
                        </g>
                        <path id="Path_5791" data-name="Path 5791" d="M265.254,165.576c.006,0,.006-.009,0-.009" fill="none" stroke="#f4a69d" stroke-linecap="round" stroke-linejoin="round" stroke-width="0"/>
                        <g id="Group_4284" data-name="Group 4284">
                          <g id="Group_4279" data-name="Group 4279">
                            <path id="Path_5792" data-name="Path 5792" d="M247.144,144.153c.019-.062.124.089.116.157-.187,1.655-.123,3.582,1.334,4.255.045.021.033.1-.022.092C246.761,148.25,246.7,145.691,247.144,144.153Z" fill="#263238"/>
                            <path id="Path_5793" data-name="Path 5793" d="M248.767,142.54c2.685.014,2.46,5.384-.028,5.371C246.291,147.9,246.516,142.528,248.767,142.54Z" fill="#263238"/>
                          </g>
                          <g id="Group_4280" data-name="Group 4280">
                            <path id="Path_5794" data-name="Path 5794" d="M237.831,143.812c-.01-.064-.133.073-.134.141-.017,1.666-.317,3.57-1.845,4.06-.047.015-.046.1.01.093C237.709,147.925,238.082,145.392,237.831,143.812Z" fill="#263238"/>
                            <path id="Path_5795" data-name="Path 5795" d="M236.419,142.012c-2.667-.315-3.1,5.042-.631,5.334C238.219,147.634,238.654,142.276,236.419,142.012Z" fill="#263238"/>
                          </g>
                          <path id="Path_5796" data-name="Path 5796" d="M250.989,140.174a21.083,21.083,0,0,1-2.049-.82,3.564,3.564,0,0,1-1.93-1.235,1.138,1.138,0,0,1,.24-1.367,2.822,2.822,0,0,1,2.851-.171,4.145,4.145,0,0,1,2.308,1.89A1.212,1.212,0,0,1,250.989,140.174Z" fill="#263238"/>
                          <path id="Path_5797" data-name="Path 5797" d="M234.455,139.221a20.813,20.813,0,0,0,2.158-.464,3.564,3.564,0,0,0,2.11-.893,1.136,1.136,0,0,0-.008-1.388,2.817,2.817,0,0,0-2.781-.647,4.142,4.142,0,0,0-2.593,1.475A1.212,1.212,0,0,0,234.455,139.221Z" fill="#263238"/>
                          <path id="Path_5798" data-name="Path 5798" d="M249.273,159.726c-.414.373-.834.893-1.44.918a4.4,4.4,0,0,1-1.771-.493.058.058,0,0,0-.075.082,2.24,2.24,0,0,0,2.073.992,1.772,1.772,0,0,0,1.37-1.417C249.46,159.713,249.334,159.672,249.273,159.726Z" fill="#263238"/>
                          <g id="Group_4282" data-name="Group 4282">
                            <g id="Group_4281" data-name="Group 4281">
                              <path id="Path_5799" data-name="Path 5799" d="M247.734,154.672a5.669,5.669,0,0,1-3.886,2.362,7.127,7.127,0,0,1-2.042.008,2.059,2.059,0,0,1-.387-.061c-.121-.02-.23-.039-.362-.072a.414.414,0,0,1-.318-.386v-.012a.755.755,0,0,1,.022-.17v-.012l.009-.146c.019-1.282.225-3.225.225-3.225-.478.215-2.909,1.188-2.843.521.563-5.526,1.189-11.67,2.916-17.05a.154.154,0,0,1,.3.055c-.331,5.332-1.6,10.57-2.015,15.92a9.961,9.961,0,0,1,2.707-.7c.18.06-.465,3.747-.427,4.324a.2.2,0,0,0,.008.062c2.141.365,3.79-.217,5.939-1.575C247.712,154.427,247.839,154.544,247.734,154.672Z" fill="#263238"/>
                            </g>
                          </g>
                          <g id="Group_4283" data-name="Group 4283">
                            <path id="Path_5800" data-name="Path 5800" d="M242.76,156.723a6.673,6.673,0,0,0,2.761,1.945,3,3,0,0,0,1.825.03c1.3-.406,1.278-1.616.989-2.638a7.192,7.192,0,0,0-.662-1.556A8.636,8.636,0,0,1,242.76,156.723Z" fill="#263238"/>
                            <path id="Path_5801" data-name="Path 5801" d="M245.521,158.668a3,3,0,0,0,1.825.03c1.3-.406,1.278-1.616.989-2.638A3.1,3.1,0,0,0,245.521,158.668Z" fill="#f392b9"/>
                          </g>
                        </g>
                        <path id="Path_5802" data-name="Path 5802" d="M269.416,147.559c.6-2.151,6.155-25.33,5.543-27.857-.558-2.3-3.074-1.36-3.112-1.491-.042-.148-.114-2.229-1.413-3.013a3.52,3.52,0,0,0-2.812.051s-.4-2.211-1.787-2.81a2.808,2.808,0,0,0-2.717.586,3.7,3.7,0,0,0-2.222-2.636,2.4,2.4,0,0,0-2.684,1.021s-.589-2.109-2.041-2.516-2.7,1.151-2.7,1.151a3.184,3.184,0,0,0-2.559-1.945,2.779,2.779,0,0,0-2.446,1.9s-1.044-1.859-2.7-1.906-2.227,2.014-2.227,2.014-.676-1.84-2.233-1.719-1.925,2.3-1.925,2.3-.874-2.023-2.705-1.43c-2.812.912-3.165,14.353-3.807,20.193,0,0,.787-2.793,1.98-2.9s2.087,1.8,4.311,2.289c3.17.7,8.447-3.019,12.817-2.085,4.247.908,7.395,5.369,8.926,12.04C262.627,146.318,267.987,152.665,269.416,147.559Z" fill="#263238"/>
                        <g id="Group_4285" data-name="Group 4285">
                          <path id="Path_5803" data-name="Path 5803" d="M248.175,152.376a6.863,6.863,0,0,1-5.526-7.963h0a6.853,6.853,0,1,1,5.526,7.964Zm-4.625-7.8a5.937,5.937,0,1,0,5.425-4.867A5.947,5.947,0,0,0,243.55,144.575Z" fill="#29a9ff"/>
                          <path id="Path_5804" data-name="Path 5804" d="M233.719,151.663c-2.809-.131-4.953-3.308-4.778-7.083a8.187,8.187,0,0,1,1.667-4.719,4.27,4.27,0,0,1,7.3.339,8.17,8.17,0,0,1,1.225,4.853c-.165,3.572-2.349,6.419-4.965,6.605A3.967,3.967,0,0,1,233.719,151.663Zm-2.394-11.23a7.27,7.27,0,0,0-1.47,4.19c-.15,3.27,1.6,6.018,3.907,6.124s4.305-2.466,4.458-5.736a7.279,7.279,0,0,0-1.075-4.308,3.655,3.655,0,0,0-2.833-1.817,2.879,2.879,0,0,0-.348.005A3.774,3.774,0,0,0,231.325,140.433Z" fill="#29a9ff"/>
                          <path id="Path_5805" data-name="Path 5805" d="M242.842,145.216l.621-.674c-1-.92-3.345-2.2-5.1-.493l.639.656C240.573,143.169,242.75,145.132,242.842,145.216Z" fill="#29a9ff"/>
                          <path id="Path_5806" data-name="Path 5806" d="M273.264,148.391l.833-.382c-.179-.388-1.8-3.806-3.831-4.232-1.9-.394-14.218.187-14.741.213l.044.915c3.532-.171,13.044-.54,14.508-.231C271.417,144.955,272.832,147.453,273.264,148.391Z" fill="#29a9ff"/>
                        </g>
                        <g id="Group_4286" data-name="Group 4286">
                          <path id="Path_5807" data-name="Path 5807" d="M263.961,146.711s4.894-8.252,8.6-6.564.435,13.364-3.626,15.232a4.26,4.26,0,0,1-5.863-1.856Z" fill="#f7b48f"/>
                          <path id="Path_5808" data-name="Path 5808" d="M271.54,143.47c.066-.011.087.082.03.111-2.84,1.4-4.178,4.237-5.047,7.134.79-1.149,1.932-1.832,3.462-.9.08.049.016.173-.068.162a2.621,2.621,0,0,0-2.808,1.128,12.681,12.681,0,0,0-1.2,2.429c-.118.273-.6.168-.524-.141l.019-.07C265.048,149.591,267.558,144.147,271.54,143.47Z" fill="#263238"/>
                        </g>
                      </g>
                    </g>
                  </g>
                  <g id="Group_4294" data-name="Group 4294">
                    <g id="Group_4293" data-name="Group 4293">
                      <g id="Group_4292" data-name="Group 4292">
                        <path id="Path_5809" data-name="Path 5809" d="M286.975,182.679c32.634,22.44,56.188,57.623,58.455,65.055,5.485,17.986,13.681,49.7,14.943,63.941.467,5.266-40.113,4.283-40.788-1.329-2.116-17.574-9.675-55.812-9.868-56.47-1.352-4.624-12.863-24.655-24.711-46.448S273.24,173.235,286.975,182.679Z" fill="#f7b48f"/>
                        <g id="Group_4291" data-name="Group 4291">
                          <path id="Path_5810" data-name="Path 5810" d="M322.818,365.843c4.145,1.416,6.832-2.239,6.832-2.239a9.342,9.342,0,0,0,5.454,3.258c3.808.554,6.346-5.175,6.346-5.175a11.515,11.515,0,0,0,6.3,2.52c3.7.163,7.083-5.252,7.083-5.252a10.21,10.21,0,0,0,6.936-1.274c3.508-2.264,5.239-13.451,5.18-19.749s-6.126-24.107-6.939-27.618l-40.425.032s-7.77,28.318-6.649,35.713C313.88,352.289,318.165,364.255,322.818,365.843Z" fill="#f7b48f"/>
                          <g id="Group_4290" data-name="Group 4290">
                            <path id="Path_5811" data-name="Path 5811" d="M329,363.326c-2.593-6.383-3.158-13.185-4.108-19.943a.118.118,0,0,1,.234-.03c.867,6.732,3.058,13.2,4.19,19.887A.166.166,0,0,1,329,363.326Z" fill="#263238"/>
                            <path id="Path_5812" data-name="Path 5812" d="M340.921,361.558a17.908,17.908,0,0,1-.741-4.637q-.225-2.487-.364-4.98c-.189-3.327-.3-6.659-.317-9.991,0-.148.225-.186.234-.031.194,3.316.438,6.628.772,9.933q.249,2.48.54,4.956a21.421,21.421,0,0,1,.328,4.69A.238.238,0,0,1,340.921,361.558Z" fill="#263238"/>
                            <path id="Path_5813" data-name="Path 5813" d="M354.821,358.815a12.5,12.5,0,0,1-.444-4.211q-.083-2.275-.189-4.551c-.143-3.034-.287-6.067-.536-9.093-.012-.151.221-.183.234-.031.268,3.074.578,6.144.819,9.22q.179,2.265.33,4.533a11.72,11.72,0,0,1-.061,4.132A.084.084,0,0,1,354.821,358.815Z" fill="#263238"/>
                          </g>
                        </g>
                      </g>
                      <path id="Path_5814" data-name="Path 5814" d="M317.654,310.789l44.351-3.578s-9.77-47.772-15.068-60.684-31.691-44.761-59.209-63.633c-18.72-12.837-17.571-1.858-8.92,15.148s29.011,55.906,29.97,58.982S317.654,310.789,317.654,310.789Z" fill="#29a9ff"/>
                      <path id="Path_5815" data-name="Path 5815" d="M318.432,301.64c1.659-.385,16.711-1.771,19.987-2s6.557-.455,9.836-.677c3.387-.228,6.829-.626,10.225-.583a.119.119,0,0,1,.024.236c-3.342.591-6.8.754-10.176,1.075q-5,.476-10,.938c-3.334.3-18.251,1.347-19.9,1.237C318.286,301.854,318.32,301.666,318.432,301.64Z" fill="#263238"/>
                    </g>
                  </g>
                </g>
              </g>
            </g>
          </g>
        </g>
      </g>
    </g>
  </g>
</svg>
