<svg xmlns="http://www.w3.org/2000/svg" width="84" height="134" viewBox="0 0 84 134">
  <g id="Group_2470" data-name="Group 2470" transform="translate(-21179 1075)">
    <circle id="Ellipse_1082" data-name="Ellipse 1082" cx="1.5" cy="1.5" r="1.5" transform="translate(21242 -1075)" fill="#71b7a9"/>
    <circle id="Ellipse_1232" data-name="Ellipse 1232" cx="1.5" cy="1.5" r="1.5" transform="translate(21242 -1005)" fill="#71b7a9"/>
    <circle id="Ellipse_1132" data-name="Ellipse 1132" cx="1.5" cy="1.5" r="1.5" transform="translate(21197 -1075)" fill="#71b7a9"/>
    <circle id="Ellipse_1233" data-name="Ellipse 1233" cx="1.5" cy="1.5" r="1.5" transform="translate(21197 -1005)" fill="#71b7a9"/>
    <circle id="Ellipse_1113" data-name="Ellipse 1113" cx="1.5" cy="1.5" r="1.5" transform="translate(21233 -1075)" fill="#71b7a9"/>
    <circle id="Ellipse_1234" data-name="Ellipse 1234" cx="1.5" cy="1.5" r="1.5" transform="translate(21233 -1005)" fill="#71b7a9"/>
    <circle id="Ellipse_1126" data-name="Ellipse 1126" cx="1.5" cy="1.5" r="1.5" transform="translate(21188 -1075)" fill="#71b7a9"/>
    <circle id="Ellipse_1235" data-name="Ellipse 1235" cx="1.5" cy="1.5" r="1.5" transform="translate(21188 -1005)" fill="#71b7a9"/>
    <circle id="Ellipse_1121" data-name="Ellipse 1121" cx="1.5" cy="1.5" r="1.5" transform="translate(21224 -1075)" fill="#71b7a9"/>
    <circle id="Ellipse_1236" data-name="Ellipse 1236" cx="1.5" cy="1.5" r="1.5" transform="translate(21224 -1005)" fill="#71b7a9"/>
    <circle id="Ellipse_1122" data-name="Ellipse 1122" cx="1.5" cy="1.5" r="1.5" transform="translate(21179 -1075)" fill="#71b7a9"/>
    <circle id="Ellipse_1237" data-name="Ellipse 1237" cx="1.5" cy="1.5" r="1.5" transform="translate(21179 -1005)" fill="#71b7a9"/>
    <circle id="Ellipse_1087" data-name="Ellipse 1087" cx="1.5" cy="1.5" r="1.5" transform="translate(21242 -1066)" fill="#71b7a9"/>
    <circle id="Ellipse_1210" data-name="Ellipse 1210" cx="1.5" cy="1.5" r="1.5" transform="translate(21242 -996)" fill="#71b7a9"/>
    <circle id="Ellipse_1133" data-name="Ellipse 1133" cx="1.5" cy="1.5" r="1.5" transform="translate(21197 -1066)" fill="#71b7a9"/>
    <circle id="Ellipse_1211" data-name="Ellipse 1211" cx="1.5" cy="1.5" r="1.5" transform="translate(21197 -996)" fill="#71b7a9"/>
    <circle id="Ellipse_1112" data-name="Ellipse 1112" cx="1.5" cy="1.5" r="1.5" transform="translate(21233 -1066)" fill="#71b7a9"/>
    <circle id="Ellipse_1212" data-name="Ellipse 1212" cx="1.5" cy="1.5" r="1.5" transform="translate(21233 -996)" fill="#71b7a9"/>
    <circle id="Ellipse_1127" data-name="Ellipse 1127" cx="1.5" cy="1.5" r="1.5" transform="translate(21188 -1066)" fill="#71b7a9"/>
    <circle id="Ellipse_1213" data-name="Ellipse 1213" cx="1.5" cy="1.5" r="1.5" transform="translate(21188 -996)" fill="#71b7a9"/>
    <circle id="Ellipse_1120" data-name="Ellipse 1120" cx="1.5" cy="1.5" r="1.5" transform="translate(21224 -1066)" fill="#71b7a9"/>
    <circle id="Ellipse_1214" data-name="Ellipse 1214" cx="1.5" cy="1.5" r="1.5" transform="translate(21224 -996)" fill="#71b7a9"/>
    <circle id="Ellipse_1123" data-name="Ellipse 1123" cx="1.5" cy="1.5" r="1.5" transform="translate(21179 -1066)" fill="#71b7a9"/>
    <circle id="Ellipse_1225" data-name="Ellipse 1225" cx="1.5" cy="1.5" r="1.5" transform="translate(21179 -996)" fill="#71b7a9"/>
    <circle id="Ellipse_1090" data-name="Ellipse 1090" cx="1.5" cy="1.5" r="1.5" transform="translate(21242 -1057)" fill="#71b7a9"/>
    <circle id="Ellipse_1192" data-name="Ellipse 1192" cx="1.5" cy="1.5" r="1.5" transform="translate(21242 -987)" fill="#71b7a9"/>
    <circle id="Ellipse_1134" data-name="Ellipse 1134" cx="1.5" cy="1.5" r="1.5" transform="translate(21197 -1057)" fill="#71b7a9"/>
    <circle id="Ellipse_1193" data-name="Ellipse 1193" cx="1.5" cy="1.5" r="1.5" transform="translate(21197 -987)" fill="#71b7a9"/>
    <circle id="Ellipse_1111" data-name="Ellipse 1111" cx="1.5" cy="1.5" r="1.5" transform="translate(21233 -1057)" fill="#71b7a9"/>
    <circle id="Ellipse_1194" data-name="Ellipse 1194" cx="1.5" cy="1.5" r="1.5" transform="translate(21233 -987)" fill="#71b7a9"/>
    <circle id="Ellipse_1128" data-name="Ellipse 1128" cx="1.5" cy="1.5" r="1.5" transform="translate(21188 -1057)" fill="#71b7a9"/>
    <circle id="Ellipse_1215" data-name="Ellipse 1215" cx="1.5" cy="1.5" r="1.5" transform="translate(21188 -987)" fill="#71b7a9"/>
    <circle id="Ellipse_1119" data-name="Ellipse 1119" cx="1.5" cy="1.5" r="1.5" transform="translate(21224 -1057)" fill="#71b7a9"/>
    <circle id="Ellipse_1195" data-name="Ellipse 1195" cx="1.5" cy="1.5" r="1.5" transform="translate(21224 -987)" fill="#71b7a9"/>
    <circle id="Ellipse_1124" data-name="Ellipse 1124" cx="1.5" cy="1.5" r="1.5" transform="translate(21179 -1057)" fill="#71b7a9"/>
    <circle id="Ellipse_1226" data-name="Ellipse 1226" cx="1.5" cy="1.5" r="1.5" transform="translate(21179 -987)" fill="#71b7a9"/>
    <circle id="Ellipse_1093" data-name="Ellipse 1093" cx="1.5" cy="1.5" r="1.5" transform="translate(21242 -1049)" fill="#71b7a9"/>
    <circle id="Ellipse_1164" data-name="Ellipse 1164" cx="1.5" cy="1.5" r="1.5" transform="translate(21242 -979)" fill="#71b7a9"/>
    <circle id="Ellipse_1135" data-name="Ellipse 1135" cx="1.5" cy="1.5" r="1.5" transform="translate(21197 -1049)" fill="#71b7a9"/>
    <circle id="Ellipse_1196" data-name="Ellipse 1196" cx="1.5" cy="1.5" r="1.5" transform="translate(21197 -979)" fill="#71b7a9"/>
    <circle id="Ellipse_1110" data-name="Ellipse 1110" cx="1.5" cy="1.5" r="1.5" transform="translate(21233 -1049)" fill="#71b7a9"/>
    <circle id="Ellipse_1165" data-name="Ellipse 1165" cx="1.5" cy="1.5" r="1.5" transform="translate(21233 -979)" fill="#71b7a9"/>
    <circle id="Ellipse_1129" data-name="Ellipse 1129" cx="1.5" cy="1.5" r="1.5" transform="translate(21188 -1049)" fill="#71b7a9"/>
    <circle id="Ellipse_1216" data-name="Ellipse 1216" cx="1.5" cy="1.5" r="1.5" transform="translate(21188 -979)" fill="#71b7a9"/>
    <circle id="Ellipse_1118" data-name="Ellipse 1118" cx="1.5" cy="1.5" r="1.5" transform="translate(21224 -1049)" fill="#71b7a9"/>
    <circle id="Ellipse_1166" data-name="Ellipse 1166" cx="1.5" cy="1.5" r="1.5" transform="translate(21224 -979)" fill="#71b7a9"/>
    <circle id="Ellipse_1125" data-name="Ellipse 1125" cx="1.5" cy="1.5" r="1.5" transform="translate(21179 -1049)" fill="#71b7a9"/>
    <circle id="Ellipse_1227" data-name="Ellipse 1227" cx="1.5" cy="1.5" r="1.5" transform="translate(21179 -979)" fill="#71b7a9"/>
    <circle id="Ellipse_1096" data-name="Ellipse 1096" cx="1.5" cy="1.5" r="1.5" transform="translate(21242 -1040)" fill="#71b7a9"/>
    <circle id="Ellipse_1167" data-name="Ellipse 1167" cx="1.5" cy="1.5" r="1.5" transform="translate(21242 -970)" fill="#71b7a9"/>
    <circle id="Ellipse_1136" data-name="Ellipse 1136" cx="1.5" cy="1.5" r="1.5" transform="translate(21197 -1040)" fill="#71b7a9"/>
    <circle id="Ellipse_1197" data-name="Ellipse 1197" cx="1.5" cy="1.5" r="1.5" transform="translate(21197 -970)" fill="#71b7a9"/>
    <circle id="Ellipse_1109" data-name="Ellipse 1109" cx="1.5" cy="1.5" r="1.5" transform="translate(21233 -1040)" fill="#71b7a9"/>
    <circle id="Ellipse_1168" data-name="Ellipse 1168" cx="1.5" cy="1.5" r="1.5" transform="translate(21233 -970)" fill="#71b7a9"/>
    <circle id="Ellipse_1130" data-name="Ellipse 1130" cx="1.5" cy="1.5" r="1.5" transform="translate(21188 -1040)" fill="#71b7a9"/>
    <circle id="Ellipse_1217" data-name="Ellipse 1217" cx="1.5" cy="1.5" r="1.5" transform="translate(21188 -970)" fill="#71b7a9"/>
    <circle id="Ellipse_1117" data-name="Ellipse 1117" cx="1.5" cy="1.5" r="1.5" transform="translate(21224 -1040)" fill="#71b7a9"/>
    <circle id="Ellipse_1169" data-name="Ellipse 1169" cx="1.5" cy="1.5" r="1.5" transform="translate(21224 -970)" fill="#71b7a9"/>
    <circle id="Ellipse_1131" data-name="Ellipse 1131" cx="1.5" cy="1.5" r="1.5" transform="translate(21179 -1040)" fill="#71b7a9"/>
    <circle id="Ellipse_1228" data-name="Ellipse 1228" cx="1.5" cy="1.5" r="1.5" transform="translate(21179 -970)" fill="#71b7a9"/>
    <circle id="Ellipse_1099" data-name="Ellipse 1099" cx="1.5" cy="1.5" r="1.5" transform="translate(21242 -1031)" fill="#71b7a9"/>
    <circle id="Ellipse_1170" data-name="Ellipse 1170" cx="1.5" cy="1.5" r="1.5" transform="translate(21242 -961)" fill="#71b7a9"/>
    <circle id="Ellipse_1137" data-name="Ellipse 1137" cx="1.5" cy="1.5" r="1.5" transform="translate(21197 -1031)" fill="#71b7a9"/>
    <circle id="Ellipse_1198" data-name="Ellipse 1198" cx="1.5" cy="1.5" r="1.5" transform="translate(21197 -961)" fill="#71b7a9"/>
    <circle id="Ellipse_1108" data-name="Ellipse 1108" cx="1.5" cy="1.5" r="1.5" transform="translate(21233 -1031)" fill="#71b7a9"/>
    <circle id="Ellipse_1171" data-name="Ellipse 1171" cx="1.5" cy="1.5" r="1.5" transform="translate(21233 -961)" fill="#71b7a9"/>
    <circle id="Ellipse_1138" data-name="Ellipse 1138" cx="1.5" cy="1.5" r="1.5" transform="translate(21188 -1031)" fill="#71b7a9"/>
    <circle id="Ellipse_1218" data-name="Ellipse 1218" cx="1.5" cy="1.5" r="1.5" transform="translate(21188 -961)" fill="#71b7a9"/>
    <circle id="Ellipse_1116" data-name="Ellipse 1116" cx="1.5" cy="1.5" r="1.5" transform="translate(21224 -1031)" fill="#71b7a9"/>
    <circle id="Ellipse_1172" data-name="Ellipse 1172" cx="1.5" cy="1.5" r="1.5" transform="translate(21224 -961)" fill="#71b7a9"/>
    <circle id="Ellipse_1139" data-name="Ellipse 1139" cx="1.5" cy="1.5" r="1.5" transform="translate(21179 -1031)" fill="#71b7a9"/>
    <circle id="Ellipse_1229" data-name="Ellipse 1229" cx="1.5" cy="1.5" r="1.5" transform="translate(21179 -961)" fill="#71b7a9"/>
    <circle id="Ellipse_1102" data-name="Ellipse 1102" cx="1.5" cy="1.5" r="1.5" transform="translate(21242 -1022)" fill="#71b7a9"/>
    <circle id="Ellipse_1173" data-name="Ellipse 1173" cx="1.5" cy="1.5" r="1.5" transform="translate(21242 -952)" fill="#71b7a9"/>
    <circle id="Ellipse_1140" data-name="Ellipse 1140" cx="1.5" cy="1.5" r="1.5" transform="translate(21197 -1022)" fill="#71b7a9"/>
    <circle id="Ellipse_1199" data-name="Ellipse 1199" cx="1.5" cy="1.5" r="1.5" transform="translate(21197 -952)" fill="#71b7a9"/>
    <circle id="Ellipse_1107" data-name="Ellipse 1107" cx="1.5" cy="1.5" r="1.5" transform="translate(21233 -1022)" fill="#71b7a9"/>
    <circle id="Ellipse_1174" data-name="Ellipse 1174" cx="1.5" cy="1.5" r="1.5" transform="translate(21233 -952)" fill="#71b7a9"/>
    <circle id="Ellipse_1141" data-name="Ellipse 1141" cx="1.5" cy="1.5" r="1.5" transform="translate(21188 -1022)" fill="#71b7a9"/>
    <circle id="Ellipse_1219" data-name="Ellipse 1219" cx="1.5" cy="1.5" r="1.5" transform="translate(21188 -952)" fill="#71b7a9"/>
    <circle id="Ellipse_1115" data-name="Ellipse 1115" cx="1.5" cy="1.5" r="1.5" transform="translate(21224 -1022)" fill="#71b7a9"/>
    <circle id="Ellipse_1175" data-name="Ellipse 1175" cx="1.5" cy="1.5" r="1.5" transform="translate(21224 -952)" fill="#71b7a9"/>
    <circle id="Ellipse_1142" data-name="Ellipse 1142" cx="1.5" cy="1.5" r="1.5" transform="translate(21179 -1022)" fill="#71b7a9"/>
    <circle id="Ellipse_1230" data-name="Ellipse 1230" cx="1.5" cy="1.5" r="1.5" transform="translate(21179 -952)" fill="#71b7a9"/>
    <circle id="Ellipse_1105" data-name="Ellipse 1105" cx="1.5" cy="1.5" r="1.5" transform="translate(21242 -1014)" fill="#71b7a9"/>
    <circle id="Ellipse_1176" data-name="Ellipse 1176" cx="1.5" cy="1.5" r="1.5" transform="translate(21242 -944)" fill="#71b7a9"/>
    <circle id="Ellipse_1150" data-name="Ellipse 1150" cx="1.5" cy="1.5" r="1.5" transform="translate(21197 -1014)" fill="#71b7a9"/>
    <circle id="Ellipse_1200" data-name="Ellipse 1200" cx="1.5" cy="1.5" r="1.5" transform="translate(21197 -944)" fill="#71b7a9"/>
    <circle id="Ellipse_1106" data-name="Ellipse 1106" cx="1.5" cy="1.5" r="1.5" transform="translate(21233 -1014)" fill="#71b7a9"/>
    <circle id="Ellipse_1177" data-name="Ellipse 1177" cx="1.5" cy="1.5" r="1.5" transform="translate(21233 -944)" fill="#71b7a9"/>
    <circle id="Ellipse_1151" data-name="Ellipse 1151" cx="1.5" cy="1.5" r="1.5" transform="translate(21188 -1014)" fill="#71b7a9"/>
    <circle id="Ellipse_1220" data-name="Ellipse 1220" cx="1.5" cy="1.5" r="1.5" transform="translate(21188 -944)" fill="#71b7a9"/>
    <circle id="Ellipse_1114" data-name="Ellipse 1114" cx="1.5" cy="1.5" r="1.5" transform="translate(21224 -1014)" fill="#71b7a9"/>
    <circle id="Ellipse_1178" data-name="Ellipse 1178" cx="1.5" cy="1.5" r="1.5" transform="translate(21224 -944)" fill="#71b7a9"/>
    <circle id="Ellipse_1152" data-name="Ellipse 1152" cx="1.5" cy="1.5" r="1.5" transform="translate(21179 -1014)" fill="#71b7a9"/>
    <circle id="Ellipse_1231" data-name="Ellipse 1231" cx="1.5" cy="1.5" r="1.5" transform="translate(21179 -944)" fill="#71b7a9"/>
    <circle id="Ellipse_1083" data-name="Ellipse 1083" cx="1.5" cy="1.5" r="1.5" transform="translate(21251 -1075)" fill="#71b7a9"/>
    <circle id="Ellipse_1238" data-name="Ellipse 1238" cx="1.5" cy="1.5" r="1.5" transform="translate(21251 -1005)" fill="#71b7a9"/>
    <circle id="Ellipse_1143" data-name="Ellipse 1143" cx="1.5" cy="1.5" r="1.5" transform="translate(21206 -1075)" fill="#71b7a9"/>
    <circle id="Ellipse_1239" data-name="Ellipse 1239" cx="1.5" cy="1.5" r="1.5" transform="translate(21206 -1005)" fill="#71b7a9"/>
    <circle id="Ellipse_1086" data-name="Ellipse 1086" cx="1.5" cy="1.5" r="1.5" transform="translate(21251 -1066)" fill="#71b7a9"/>
    <circle id="Ellipse_1221" data-name="Ellipse 1221" cx="1.5" cy="1.5" r="1.5" transform="translate(21251 -996)" fill="#71b7a9"/>
    <circle id="Ellipse_1144" data-name="Ellipse 1144" cx="1.5" cy="1.5" r="1.5" transform="translate(21206 -1066)" fill="#71b7a9"/>
    <circle id="Ellipse_1222" data-name="Ellipse 1222" cx="1.5" cy="1.5" r="1.5" transform="translate(21206 -996)" fill="#71b7a9"/>
    <circle id="Ellipse_1089" data-name="Ellipse 1089" cx="1.5" cy="1.5" r="1.5" transform="translate(21251 -1057)" fill="#71b7a9"/>
    <circle id="Ellipse_1201" data-name="Ellipse 1201" cx="1.5" cy="1.5" r="1.5" transform="translate(21251 -987)" fill="#71b7a9"/>
    <circle id="Ellipse_1145" data-name="Ellipse 1145" cx="1.5" cy="1.5" r="1.5" transform="translate(21206 -1057)" fill="#71b7a9"/>
    <circle id="Ellipse_1202" data-name="Ellipse 1202" cx="1.5" cy="1.5" r="1.5" transform="translate(21206 -987)" fill="#71b7a9"/>
    <circle id="Ellipse_1092" data-name="Ellipse 1092" cx="1.5" cy="1.5" r="1.5" transform="translate(21251 -1049)" fill="#71b7a9"/>
    <circle id="Ellipse_1179" data-name="Ellipse 1179" cx="1.5" cy="1.5" r="1.5" transform="translate(21251 -979)" fill="#71b7a9"/>
    <circle id="Ellipse_1146" data-name="Ellipse 1146" cx="1.5" cy="1.5" r="1.5" transform="translate(21206 -1049)" fill="#71b7a9"/>
    <circle id="Ellipse_1203" data-name="Ellipse 1203" cx="1.5" cy="1.5" r="1.5" transform="translate(21206 -979)" fill="#71b7a9"/>
    <circle id="Ellipse_1095" data-name="Ellipse 1095" cx="1.5" cy="1.5" r="1.5" transform="translate(21251 -1040)" fill="#71b7a9"/>
    <circle id="Ellipse_1180" data-name="Ellipse 1180" cx="1.5" cy="1.5" r="1.5" transform="translate(21251 -970)" fill="#71b7a9"/>
    <circle id="Ellipse_1147" data-name="Ellipse 1147" cx="1.5" cy="1.5" r="1.5" transform="translate(21206 -1040)" fill="#71b7a9"/>
    <circle id="Ellipse_1204" data-name="Ellipse 1204" cx="1.5" cy="1.5" r="1.5" transform="translate(21206 -970)" fill="#71b7a9"/>
    <circle id="Ellipse_1098" data-name="Ellipse 1098" cx="1.5" cy="1.5" r="1.5" transform="translate(21251 -1031)" fill="#71b7a9"/>
    <circle id="Ellipse_1181" data-name="Ellipse 1181" cx="1.5" cy="1.5" r="1.5" transform="translate(21251 -961)" fill="#71b7a9"/>
    <circle id="Ellipse_1148" data-name="Ellipse 1148" cx="1.5" cy="1.5" r="1.5" transform="translate(21206 -1031)" fill="#71b7a9"/>
    <circle id="Ellipse_1205" data-name="Ellipse 1205" cx="1.5" cy="1.5" r="1.5" transform="translate(21206 -961)" fill="#71b7a9"/>
    <circle id="Ellipse_1101" data-name="Ellipse 1101" cx="1.5" cy="1.5" r="1.5" transform="translate(21251 -1022)" fill="#71b7a9"/>
    <circle id="Ellipse_1182" data-name="Ellipse 1182" cx="1.5" cy="1.5" r="1.5" transform="translate(21251 -952)" fill="#71b7a9"/>
    <circle id="Ellipse_1149" data-name="Ellipse 1149" cx="1.5" cy="1.5" r="1.5" transform="translate(21206 -1022)" fill="#71b7a9"/>
    <circle id="Ellipse_1206" data-name="Ellipse 1206" cx="1.5" cy="1.5" r="1.5" transform="translate(21206 -952)" fill="#71b7a9"/>
    <circle id="Ellipse_1104" data-name="Ellipse 1104" cx="1.5" cy="1.5" r="1.5" transform="translate(21251 -1014)" fill="#71b7a9"/>
    <circle id="Ellipse_1162" data-name="Ellipse 1162" cx="1.5" cy="1.5" r="1.5" transform="translate(21251 -944)" fill="#71b7a9"/>
    <circle id="Ellipse_1153" data-name="Ellipse 1153" cx="1.5" cy="1.5" r="1.5" transform="translate(21206 -1014)" fill="#71b7a9"/>
    <circle id="Ellipse_1207" data-name="Ellipse 1207" cx="1.5" cy="1.5" r="1.5" transform="translate(21206 -944)" fill="#71b7a9"/>
    <circle id="Ellipse_1084" data-name="Ellipse 1084" cx="1.5" cy="1.5" r="1.5" transform="translate(21260 -1075)" fill="#71b7a9"/>
    <circle id="Ellipse_1240" data-name="Ellipse 1240" cx="1.5" cy="1.5" r="1.5" transform="translate(21260 -1005)" fill="#71b7a9"/>
    <circle id="Ellipse_1154" data-name="Ellipse 1154" cx="1.5" cy="1.5" r="1.5" transform="translate(21215 -1075)" fill="#71b7a9"/>
    <circle id="Ellipse_1241" data-name="Ellipse 1241" cx="1.5" cy="1.5" r="1.5" transform="translate(21215 -1005)" fill="#71b7a9"/>
    <circle id="Ellipse_1085" data-name="Ellipse 1085" cx="1.5" cy="1.5" r="1.5" transform="translate(21260 -1066)" fill="#71b7a9"/>
    <circle id="Ellipse_1223" data-name="Ellipse 1223" cx="1.5" cy="1.5" r="1.5" transform="translate(21260 -996)" fill="#71b7a9"/>
    <circle id="Ellipse_1155" data-name="Ellipse 1155" cx="1.5" cy="1.5" r="1.5" transform="translate(21215 -1066)" fill="#71b7a9"/>
    <circle id="Ellipse_1224" data-name="Ellipse 1224" cx="1.5" cy="1.5" r="1.5" transform="translate(21215 -996)" fill="#71b7a9"/>
    <circle id="Ellipse_1088" data-name="Ellipse 1088" cx="1.5" cy="1.5" r="1.5" transform="translate(21260 -1057)" fill="#71b7a9"/>
    <circle id="Ellipse_1208" data-name="Ellipse 1208" cx="1.5" cy="1.5" r="1.5" transform="translate(21260 -987)" fill="#71b7a9"/>
    <circle id="Ellipse_1156" data-name="Ellipse 1156" cx="1.5" cy="1.5" r="1.5" transform="translate(21215 -1057)" fill="#71b7a9"/>
    <circle id="Ellipse_1209" data-name="Ellipse 1209" cx="1.5" cy="1.5" r="1.5" transform="translate(21215 -987)" fill="#71b7a9"/>
    <circle id="Ellipse_1091" data-name="Ellipse 1091" cx="1.5" cy="1.5" r="1.5" transform="translate(21260 -1049)" fill="#71b7a9"/>
    <circle id="Ellipse_1183" data-name="Ellipse 1183" cx="1.5" cy="1.5" r="1.5" transform="translate(21260 -979)" fill="#71b7a9"/>
    <circle id="Ellipse_1157" data-name="Ellipse 1157" cx="1.5" cy="1.5" r="1.5" transform="translate(21215 -1049)" fill="#71b7a9"/>
    <circle id="Ellipse_1184" data-name="Ellipse 1184" cx="1.5" cy="1.5" r="1.5" transform="translate(21215 -979)" fill="#71b7a9"/>
    <circle id="Ellipse_1094" data-name="Ellipse 1094" cx="1.5" cy="1.5" r="1.5" transform="translate(21260 -1040)" fill="#71b7a9"/>
    <circle id="Ellipse_1185" data-name="Ellipse 1185" cx="1.5" cy="1.5" r="1.5" transform="translate(21260 -970)" fill="#71b7a9"/>
    <circle id="Ellipse_1158" data-name="Ellipse 1158" cx="1.5" cy="1.5" r="1.5" transform="translate(21215 -1040)" fill="#71b7a9"/>
    <circle id="Ellipse_1186" data-name="Ellipse 1186" cx="1.5" cy="1.5" r="1.5" transform="translate(21215 -970)" fill="#71b7a9"/>
    <circle id="Ellipse_1097" data-name="Ellipse 1097" cx="1.5" cy="1.5" r="1.5" transform="translate(21260 -1031)" fill="#71b7a9"/>
    <circle id="Ellipse_1187" data-name="Ellipse 1187" cx="1.5" cy="1.5" r="1.5" transform="translate(21260 -961)" fill="#71b7a9"/>
    <circle id="Ellipse_1159" data-name="Ellipse 1159" cx="1.5" cy="1.5" r="1.5" transform="translate(21215 -1031)" fill="#71b7a9"/>
    <circle id="Ellipse_1188" data-name="Ellipse 1188" cx="1.5" cy="1.5" r="1.5" transform="translate(21215 -961)" fill="#71b7a9"/>
    <circle id="Ellipse_1100" data-name="Ellipse 1100" cx="1.5" cy="1.5" r="1.5" transform="translate(21260 -1022)" fill="#71b7a9"/>
    <circle id="Ellipse_1189" data-name="Ellipse 1189" cx="1.5" cy="1.5" r="1.5" transform="translate(21260 -952)" fill="#71b7a9"/>
    <circle id="Ellipse_1160" data-name="Ellipse 1160" cx="1.5" cy="1.5" r="1.5" transform="translate(21215 -1022)" fill="#71b7a9"/>
    <circle id="Ellipse_1190" data-name="Ellipse 1190" cx="1.5" cy="1.5" r="1.5" transform="translate(21215 -952)" fill="#71b7a9"/>
    <circle id="Ellipse_1103" data-name="Ellipse 1103" cx="1.5" cy="1.5" r="1.5" transform="translate(21260 -1014)" fill="#71b7a9"/>
    <circle id="Ellipse_1163" data-name="Ellipse 1163" cx="1.5" cy="1.5" r="1.5" transform="translate(21260 -944)" fill="#71b7a9"/>
    <circle id="Ellipse_1161" data-name="Ellipse 1161" cx="1.5" cy="1.5" r="1.5" transform="translate(21215 -1014)" fill="#71b7a9"/>
    <circle id="Ellipse_1191" data-name="Ellipse 1191" cx="1.5" cy="1.5" r="1.5" transform="translate(21215 -944)" fill="#71b7a9"/>
  </g>
</svg>
