<svg xmlns="http://www.w3.org/2000/svg" width="55" height="55" viewBox="0 0 55 55">
  <g id="Group_5981" data-name="Group 5981" transform="translate(-0.109 0.034)">
    <g id="pinterest" transform="translate(-0.001 0)">
      <circle id="Ellipse_2496" data-name="Ellipse 2496" cx="27.5" cy="27.5" r="27.5" transform="translate(0.11 -0.034)" fill="#e60023" opacity="0.1"/>
      <g id="Group_5980" data-name="Group 5980" transform="translate(20.111 17.966)">
        <path id="Path_6186" data-name="Path 6186" d="M38.035,39.027c-1.212-.094-1.721-.694-2.671-1.271-.522,2.74-1.16,5.366-3.051,6.738-.584-4.141.856-7.251,1.525-10.553-1.14-1.92.137-5.784,2.542-4.832,2.96,1.171-2.563,7.138,1.145,7.883,3.871.778,5.451-6.717,3.051-9.155-3.469-3.52-10.1-.08-9.281,4.959.2,1.232,1.471,1.606.508,3.306-2.22-.492-2.882-2.243-2.8-4.577a7.47,7.47,0,0,1,6.739-6.866c4.181-.468,8.1,1.535,8.646,5.468.609,4.438-1.887,9.245-6.358,8.9Z" transform="translate(-29 -24.593)" fill="#e60023"/>
      </g>
    </g>
  </g>
</svg>
