<svg xmlns="http://www.w3.org/2000/svg" width="30" height="30.001" viewBox="0 0 30 30.001">
  <path id="Subtraction_1" data-name="Subtraction 1" d="M14.974,30A14.842,14.842,0,0,1,4.683,25.874,15.083,15.083,0,0,1,.03,15.891,14.8,14.8,0,0,1,3.757,5.1,15.069,15.069,0,0,1,8.334,1.572,14.812,14.812,0,0,1,14.09.028C14.4.009,14.7,0,15.01,0A15.018,15.018,0,0,1,30,14.846a14.55,14.55,0,0,1-.992,5.545,15.051,15.051,0,0,1-13.082,9.58C15.606,29.991,15.287,30,14.974,30ZM11.354,8a.838.838,0,0,0-.6.244.953.953,0,0,0-.255.7c.018,1.428.014,2.879.011,4.283v.013q0,.86,0,1.72,0,.6,0,1.194v.06c0,1.56,0,3.173.008,4.761a1.15,1.15,0,0,0,.177.608.758.758,0,0,0,.652.353,1.176,1.176,0,0,0,.575-.17l2.7-1.56.019-.011c2.518-1.455,5.122-2.96,7.693-4.422a.992.992,0,0,0,.528-.82.9.9,0,0,0-.519-.769c-3.5-2.014-7.041-4.06-10.468-6.039A1.04,1.04,0,0,0,11.354,8Z" transform="translate(0 0)" fill="#fff"/>
</svg>
