<svg width="62" height="60" viewBox="0 0 62 60" fill="none" xmlns="http://www.w3.org/2000/svg">
<ellipse cx="30.7143" cy="30" rx="30.7143" ry="30" fill="white" fill-opacity="0.7"/>
<circle cx="30.7141" cy="30.8608" r="21.2637" fill="#FF5300"/>
<path d="M25.0468 30.8784C25.0468 29.2565 25.0468 27.6365 25.0468 26.0146C25.0488 24.4042 26.1895 23.7374 27.6663 24.4811C30.9026 26.1126 34.1369 27.7499 37.3752 29.3814C37.9624 29.6773 38.3776 30.077 38.4072 30.7612C38.4408 31.5049 38.0395 31.9641 37.395 32.2908C35.2144 33.3919 33.0397 34.5027 30.8611 35.6096C29.752 36.1726 28.6449 36.7434 27.5279 37.2968C26.2231 37.9463 25.0607 37.2641 25.0508 35.8344C25.0369 34.1818 25.0468 32.5291 25.0468 30.8784Z" fill="white"/>
</svg>
