<svg width="47" height="47" viewBox="0 0 47 47" fill="none" xmlns="http://www.w3.org/2000/svg">
<path opacity="0.4" d="M23.3912 0C36.3344 0 46.7824 10.4481 46.7824 23.3912C46.7824 36.3344 36.3344 46.7824 23.3912 46.7824C10.4481 46.7824 0 36.3344 0 23.3912C0 10.4481 10.4481 0 23.3912 0Z" fill="white"/>
<path d="M23.3917 6.37939C32.8255 6.37939 40.4035 13.9574 40.4035 23.3912C40.4035 32.825 32.8255 40.403 23.3917 40.403C13.9579 40.403 6.37988 32.825 6.37988 23.3912C6.37988 13.9574 13.9579 6.37939 23.3917 6.37939Z" fill="white"/>
<path d="M29.1502 23.0866C29.477 23.2726 29.5424 23.6445 29.3463 23.9544C29.281 24.0164 29.2156 24.0784 29.1502 24.1404L19.8699 30.0913C19.5431 30.2772 19.151 30.2153 18.9549 29.9053C18.8896 29.7813 18.8242 29.6574 18.8242 29.5334V17.6316C18.8242 17.2597 19.0856 17.0117 19.4778 17.0117C19.6085 17.0117 19.7392 17.0737 19.8699 17.1357L29.1502 23.0866Z" fill="#E24F1E"/>
</svg>
