<svg width="70" height="50" viewBox="0 0 70 50" fill="none" xmlns="http://www.w3.org/2000/svg">
<g clip-path="url(#clip0_1_29)">
<path d="M51.4999 0H38.2961C37.1608 0 36.2405 0.923857 36.2405 2.06349V47.9365C36.2405 49.0761 37.1608 50 38.2961 50H51.4999C52.6352 50 53.5555 49.0761 53.5555 47.9365V2.06349C53.5555 0.923857 52.6352 0 51.4999 0Z" fill="url(#paint0_linear_1_29)"/>
<g filter="url(#filter0_d_1_29)">
<path d="M43.3563 47.9365V49.9999H41.3006H28.0968C26.9615 49.9999 26.0412 49.0761 26.0412 47.9365V14.5238C26.0412 13.3841 26.9615 12.4603 28.0968 12.4603H41.3006C42.4359 12.4603 43.3563 13.3841 43.3563 14.5238V47.9365Z" fill="black"/>
</g>
<path d="M43.3563 47.9365V49.9999H41.3006H28.0968C26.9615 49.9999 26.0412 49.0761 26.0412 47.9365V14.5238C26.0412 13.3841 26.9615 12.4603 28.0968 12.4603H41.3006C42.4359 12.4603 43.3563 13.3841 43.3563 14.5238V47.9365Z" fill="url(#paint1_linear_1_29)"/>
<path fill-rule="evenodd" clip-rule="evenodd" d="M33.3151 47.9364V49.9999H31.2594H18.0557C16.9204 49.9999 16 49.0761 16 47.9364V27.0634C16 25.9238 16.9204 24.9999 18.0557 24.9999H31.2594C32.3947 24.9999 33.3151 25.9238 33.3151 27.0634V47.9364Z" fill="url(#paint2_linear_1_29)"/>
</g>
<defs>
<filter id="filter0_d_1_29" x="26.0412" y="2.46027" width="57.3151" height="77.5397" filterUnits="userSpaceOnUse" color-interpolation-filters="sRGB">
<feFlood flood-opacity="0" result="BackgroundImageFix"/>
<feColorMatrix in="SourceAlpha" type="matrix" values="0 0 0 0 0 0 0 0 0 0 0 0 0 0 0 0 0 0 127 0" result="hardAlpha"/>
<feOffset dx="20" dy="10"/>
<feGaussianBlur stdDeviation="10"/>
<feColorMatrix type="matrix" values="0 0 0 0 0 0 0 0 0 0 0 0 0 0 0 0 0 0 0.0530212 0"/>
<feBlend mode="normal" in2="BackgroundImageFix" result="effect1_dropShadow_1_29"/>
<feBlend mode="normal" in="SourceGraphic" in2="effect1_dropShadow_1_29" result="shape"/>
</filter>
<linearGradient id="paint0_linear_1_29" x1="44.898" y1="0" x2="44.898" y2="50" gradientUnits="userSpaceOnUse">
<stop stop-color="#EBBB14"/>
<stop offset="1" stop-color="#B25400"/>
</linearGradient>
<linearGradient id="paint1_linear_1_29" x1="34.6987" y1="12.4603" x2="34.6987" y2="49.9999" gradientUnits="userSpaceOnUse">
<stop stop-color="#F9E583"/>
<stop offset="1" stop-color="#DE9800"/>
</linearGradient>
<linearGradient id="paint2_linear_1_29" x1="24.6575" y1="24.9999" x2="24.6575" y2="49.9999" gradientUnits="userSpaceOnUse">
<stop stop-color="#F9E68B"/>
<stop offset="1" stop-color="#F3CD32"/>
</linearGradient>
<clipPath id="clip0_1_29">
<rect width="70" height="50" fill="white"/>
</clipPath>
</defs>
</svg>
