<svg width="18" height="18" viewBox="0 0 18 18" fill="none" xmlns="http://www.w3.org/2000/svg">
<path d="M14.503 0H2.63692C1.15864 0 0 1.08216 0 2.38076V15.6192C0 16.2325 0.279673 16.8457 0.759112 17.3146C1.23855 17.7475 1.91776 18 2.59696 18H14.6629C16.0213 18 17.1 16.99 17.1 15.7635V2.38076C17.1 1.08216 15.9414 0 14.503 0ZM5.43365 1.22645H11.6664V3.03006C11.6664 3.17435 11.5465 3.28257 11.3867 3.28257H5.71332C5.5535 3.28257 5.43365 3.17435 5.43365 3.03006V1.22645ZM15.422 16.485C15.2222 16.6653 14.9425 16.7735 14.6629 16.7735H2.59696C2.27734 16.7735 1.95771 16.6653 1.71799 16.4489C1.47827 16.2325 1.35841 15.9439 1.35841 15.6192V2.38076C1.35841 1.76754 1.91776 1.22645 2.59696 1.22645H4.03528V3.03006C4.07523 3.82365 4.79439 4.50902 5.71332 4.50902H11.3867C12.3056 4.50902 13.0248 3.82365 13.0248 3.03006V1.22645H14.4631C15.1822 1.22645 15.7416 1.73146 15.7416 2.38076V15.7635C15.7416 16.0521 15.6217 16.3046 15.422 16.485ZM4.23505 8.51303H7.9507C8.31028 8.51303 8.62991 8.22445 8.62991 7.8998C8.62991 7.53908 8.31028 7.28657 7.9507 7.28657H4.23505C3.87547 7.28657 3.55584 7.53908 3.55584 7.8998C3.55584 8.22445 3.87547 8.51303 4.23505 8.51303ZM12.865 10.1002H4.23505C3.99533 10.1002 3.75561 10.2084 3.63575 10.3888C3.51589 10.6052 3.51589 10.8577 3.63575 11.0381C3.75561 11.2184 3.99533 11.3627 4.23505 11.3267H12.865C13.2245 11.3267 13.5042 11.0381 13.5042 10.7134C13.5042 10.3888 13.2245 10.1363 12.865 10.1002ZM12.865 12.9138H4.23505C3.87547 12.9138 3.55584 13.2024 3.55584 13.5271C3.55584 13.8878 3.87547 14.1764 4.23505 14.1764H12.865C13.2645 14.1764 13.5442 13.8878 13.5442 13.5271C13.5442 13.2024 13.2645 12.9138 12.865 12.9138Z" fill="#BFBFBF"/>
</svg>
