<svg width="42" height="42" viewBox="0 0 42 42" fill="none" xmlns="http://www.w3.org/2000/svg">
<mask id="mask0_3402_408" style="mask-type:alpha" maskUnits="userSpaceOnUse" x="0" y="0" width="42" height="42">
<rect width="42" height="42" fill="#D9D9D9"/>
</mask>
<g mask="url(#mask0_3402_408)">
<path d="M21.615 4.00146C20.228 4.00767 18.9038 4.1261 17.7393 4.3323C14.3055 4.93884 13.6822 6.20823 13.6822 8.54974V11.6419H21.7933V12.6724H10.6386C8.2812 12.6724 6.21538 14.0894 5.57117 16.7839C4.82601 19.8729 4.79339 21.8028 5.57117 25.0281C6.14782 27.4298 7.52477 29.1395 9.8822 29.1395H12.6714V25.4335C12.6714 22.7561 14.9881 20.3932 17.7389 20.3932H25.841C28.0963 20.3932 29.8981 18.5359 29.8981 16.2725V8.54858C29.8981 6.35035 28.0435 4.70042 25.841 4.33113C24.4474 4.09931 23.0017 3.99369 21.6146 4.00029L21.615 4.00146ZM17.2279 6.48781C18.0659 6.48781 18.7501 7.18367 18.7501 8.03834C18.7501 8.89029 18.0659 9.57954 17.2279 9.57954C16.3872 9.57954 15.7061 8.89068 15.7061 8.03834C15.7061 7.18367 16.3872 6.48781 17.2279 6.48781V6.48781Z" fill="#35668F"/>
<path d="M30.9102 12.6699V16.2734C30.9102 19.0662 28.5427 21.4166 25.8428 21.4166H17.7407C15.5211 21.4166 13.6836 23.3159 13.6836 25.537V33.2609C13.6836 35.4591 15.5952 36.7522 17.7407 37.3816C20.3082 38.1369 22.772 38.2732 25.8428 37.3816C27.8849 36.7906 29.8999 35.6005 29.8999 33.2609V30.1692H21.7977V29.1386H33.9569C36.3144 29.1386 37.1943 27.4945 38.014 25.0271C38.8609 22.486 38.8248 20.0412 38.014 16.7829C37.4311 14.436 36.3186 12.6711 33.9569 12.6711H30.9133L30.9102 12.6699ZM26.3542 32.2322C27.1949 32.2322 27.876 32.9211 27.876 33.7735C27.876 34.6285 27.1949 35.324 26.3542 35.324C25.5158 35.324 24.832 34.6285 24.832 33.7735C24.832 32.9215 25.5162 32.2322 26.3542 32.2322Z" fill="#F2BB30"/>
</g>
</svg>
