<svg xmlns="http://www.w3.org/2000/svg" width="40.3" height="47.083" viewBox="0 0 40.3 47.083">
  <g id="Group_6033" data-name="Group 6033" transform="translate(2.401 0.15)">
    <path id="Path_3124" data-name="Path 3124" d="M31.943,0H3.556A5.819,5.819,0,0,0-2.251,5.832v35.1a5.819,5.819,0,0,0,5.79,5.848h28.8a5.42,5.42,0,0,0,5.408-5.432V5.848A5.819,5.819,0,0,0,31.96,0ZM9.8,2.339H25.7V7.531a1.134,1.134,0,0,1-1.144,1.124H10.969A1.135,1.135,0,0,1,9.8,7.559V2.339ZM35.41,41.334a3.078,3.078,0,0,1-3.046,3.11H3.556A3.477,3.477,0,0,1,.088,40.957V5.848A3.478,3.478,0,0,1,3.534,2.339H7.457V7.531a3.476,3.476,0,0,0,3.489,3.463H24.531a3.476,3.476,0,0,0,3.511-3.441V2.339h3.9A3.477,3.477,0,0,1,35.41,5.826Zm0,0" fill="#1f2430" stroke="#1f2430" stroke-width="0.3"/>
    <path id="Path_3125" data-name="Path 3125" d="M89.955,208.589H98.81a1.17,1.17,0,1,0,0-2.339H89.955a1.17,1.17,0,0,0,0,2.339Zm0,0" transform="translate(-82.518 -186.952)" fill="#1f2430" stroke="#1f2430" stroke-width="0.3"/>
    <path id="Path_3126" data-name="Path 3126" d="M110.58,286.25H89.955a1.17,1.17,0,0,0,0,2.339H110.58a1.17,1.17,0,1,0,0-2.339Zm0,0" transform="translate(-82.518 -259.467)" fill="#1f2430" stroke="#1f2430" stroke-width="0.3"/>
    <path id="Path_3127" data-name="Path 3127" d="M110.58,366.25H89.955a1.17,1.17,0,0,0,0,2.339H110.58a1.17,1.17,0,0,0,0-2.339Zm0,0" transform="translate(-82.518 -331.981)" fill="#1f2430" stroke="#1f2430" stroke-width="0.3"/>
  </g>
</svg>
