<svg width="50" height="51" viewBox="0 0 50 51" fill="none" xmlns="http://www.w3.org/2000/svg">
<circle cx="25" cy="25.726" r="25" fill="#CFF0E5"/>
<path d="M10.9849 26.5944C10.9849 26.0064 10.9849 25.4184 10.9849 24.8507C11.0051 24.7696 11.0254 24.6682 11.0254 24.5871C11.1267 23.9179 11.1875 23.2285 11.3497 22.5594C13.1331 15.0369 20.4292 10.4341 27.9886 12.0359C34.1903 13.3539 38.8111 18.8691 38.9935 25.1954C39.0948 28.8654 37.9801 32.1299 35.5684 34.9078C33.3999 37.4018 30.6639 38.9428 27.4009 39.5308C26.8942 39.6119 26.3673 39.6728 25.8606 39.7336C25.2729 39.7336 24.6852 39.7336 24.1177 39.7336C24.0569 39.7133 23.9961 39.693 23.9353 39.693C21.5236 39.5105 19.2942 38.7806 17.2878 37.4221C13.9641 35.1917 11.9374 32.1096 11.1875 28.1557C11.1065 27.6488 11.0659 27.1216 10.9849 26.5944ZM25.0094 13.6581C18.362 13.6581 12.9507 19.0516 12.9507 25.7225C12.9507 32.3732 18.3214 37.7465 24.9892 37.787C31.6367 37.8073 37.0479 32.4138 37.0681 25.7428C37.0681 19.0921 31.6772 13.6783 25.0094 13.6581Z" fill="#1F2430"/>
<path d="M24.604 18.6871C25.5768 18.6871 26.3064 18.8087 26.9954 19.1332C28.6573 19.9239 29.2045 21.6272 28.3533 23.2493C27.9682 23.959 27.421 24.5267 26.7928 25.0336C26.6306 25.1553 26.4685 25.2972 26.3064 25.4391C25.901 25.8244 25.6781 26.311 25.6578 26.8585C25.6578 27.041 25.6578 27.2235 25.6376 27.4059C25.6376 27.7709 25.4957 27.9737 25.1512 28.0751C25.0904 28.0953 25.0296 28.1156 24.9688 28.1359C23.9554 28.3184 23.5704 28.0142 23.5501 26.9801C23.5298 25.7636 23.9554 24.7497 24.9282 23.9995C25.2322 23.7562 25.5362 23.5129 25.8402 23.2493C26.1848 22.9249 26.428 22.5396 26.428 22.053C26.428 21.5866 26.2253 21.2419 25.7997 21.0189C24.8472 20.512 23.692 20.7958 23.084 21.6677C22.6381 22.2963 22.0504 22.3977 21.5234 21.911C21.1586 21.5866 21.1181 21.1608 21.26 20.735C21.5234 19.8834 22.1517 19.3765 22.9218 19.0318C23.5298 18.7885 24.1784 18.6871 24.604 18.6871Z" fill="#1F2430"/>
<path d="M26.0028 30.8736C26.0028 31.6442 25.3543 32.2933 24.6044 32.2933C23.8343 32.2933 23.1858 31.6442 23.206 30.8533C23.206 30.0826 23.8546 29.4539 24.6247 29.4539C25.3746 29.4539 26.0028 30.1029 26.0028 30.8736Z" fill="#1F2430"/>
</svg>
