<svg xmlns="http://www.w3.org/2000/svg" width="50.005" height="36.005" viewBox="0 0 50.005 36.005">
  <path id="_copy_4" data-name="“ copy 4" d="M222,4212.806c0,6.6,4.509,13.2,11.784,13.2,5.841,0,10.862-4.367,10.862-10.36,0-4.571-3.177-9.853-8.1-10.258-1.025-.1-3.279-.1-3.279-1.524,0-1.93,2.869-4.469,7.48-7.211,1.435-.914,4.406-2.336,4.406-4.266,0-1.523-1.127-2.641-3.484-2.335-2.254.3-5.738,1.828-10.35,5.688C226.508,4199.7,222,4206.305,222,4212.806Zm26.847,0c0,6.6,4.509,13.2,11.784,13.2,5.841,0,10.862-4.367,10.862-10.36,0-4.571-3.177-9.853-8.1-10.258-1.025-.1-3.279-.1-3.279-1.524,0-1.93,2.869-4.469,7.48-7.211,1.435-.914,4.406-2.336,4.406-4.266,0-1.523-1.127-2.641-3.484-2.335-2.254.3-5.738,1.828-10.349,5.688C253.355,4199.7,248.846,4206.305,248.846,4212.806Z" transform="translate(-221.999 -4190.004)" fill="#1ac48b"/>
</svg>
