<svg xmlns="http://www.w3.org/2000/svg" width="563" height="563.732" viewBox="0 0 563 563.732">
  <g id="Group_4224" data-name="Group 4224" transform="translate(10650 -8923)">
    <rect id="Rectangle_3163" data-name="Rectangle 3163" width="563" height="563" transform="translate(-10650 8923)" fill="none"/>
    <g id="Group_4223" data-name="Group 4223" transform="translate(-10718 8752.025)">
      <circle id="Ellipse_1242" data-name="Ellipse 1242" cx="30" cy="30" r="30" transform="translate(561 191)" fill="#f6c07a"/>
      <path id="Subtraction_15" data-name="Subtraction 15" d="M22.889,41.927A26.481,26.481,0,0,1,9.6,38.37,27.309,27.309,0,0,1,0,28.989L45.682,0A27.788,27.788,0,0,1,47.7,25.22a27.292,27.292,0,0,1-5.771,8.7,26.818,26.818,0,0,1-8.559,5.862A26.4,26.4,0,0,1,22.889,41.927Z" transform="translate(501.685 692.78)" fill="#0099fe"/>
      <path id="Subtraction_19" data-name="Subtraction 19" d="M15.078,27.927a17.3,17.3,0,0,1-8.753-2.369A18.084,18.084,0,0,1,0,19.309L30.093,0a18.691,18.691,0,0,1,1.33,16.8,18.2,18.2,0,0,1-3.8,5.792,17.661,17.661,0,0,1-5.638,3.9A17.225,17.225,0,0,1,15.078,27.927Z" transform="matrix(0.899, 0.438, -0.438, 0.899, 296.005, 660.602)" fill="#0099fe"/>
      <path id="Subtraction_16" data-name="Subtraction 16" d="M18.2,32.655A21.424,21.424,0,0,1,0,22.579L36.327,0a21.3,21.3,0,0,1-9.79,30.981A21.37,21.37,0,0,1,18.2,32.655Z" transform="translate(209.197 170.975) rotate(90)" fill="#f06222"/>
      <circle id="Ellipse_2413" data-name="Ellipse 2413" cx="11" cy="11" r="11" transform="translate(78 378)" fill="#00adb9"/>
    </g>
  </g>
</svg>
