<svg id="comment" xmlns="http://www.w3.org/2000/svg" width="30" height="30" viewBox="0 0 30 30">
  <path id="Path_3435" data-name="Path 3435" d="M321.054,4.688h-2.636V1.758a1.758,1.758,0,0,0-3.516,0V3.4a2.04,2.04,0,0,1-1.448,1.96l-1.482.456v9.123c0,.023,0,.046,0,.069a2.764,2.764,0,0,0,1.954.81h7.129a2.637,2.637,0,0,0,2.637-2.637V7.324A2.637,2.637,0,0,0,321.054,4.688Z" transform="translate(-293.69 0)" fill="#fff"/>
  <path id="Path_3436" data-name="Path 3436" d="M224.637,91.133h-1.758a.879.879,0,0,1-.879-.879V80.879a.879.879,0,0,1,.879-.879h1.758a.879.879,0,0,1,.879.879v9.375A.879.879,0,0,1,224.637,91.133Z" transform="translate(-208.992 -75.313)" fill="#fff"/>
  <path id="Path_3437" data-name="Path 3437" d="M20.234,184.207a4.488,4.488,0,0,1-2.647-.856,2.63,2.63,0,0,1-1.942.856H13.887a2.637,2.637,0,0,1-2.637-2.637V177H.879a.879.879,0,0,0-.879.879v17.844a.907.907,0,0,0,.41.771.879.879,0,0,0,.956-.012l3.294-2.2H23.145a.879.879,0,0,0,.879-.879v-9.2ZM4.395,181.395h4.98a.879.879,0,0,1,0,1.758H4.395a.879.879,0,0,1,0-1.758Zm15.234,9.668H4.395a.879.879,0,0,1,0-1.758H19.629a.879.879,0,0,1,0,1.758Zm0-3.955H4.395a.879.879,0,0,1,0-1.758H19.629a.879.879,0,0,1,0,1.758Z" transform="translate(0 -166.629)" fill="#fff"/>
</svg>
