<svg id="Group_2675" data-name="Group 2675" xmlns="http://www.w3.org/2000/svg" width="50" height="50" viewBox="0 0 50 50">
  <g id="Group_2674" data-name="Group 2674" transform="translate(0.803 1.605)" opacity="0.23">
    <path id="Path_3534" data-name="Path 3534" d="M29.315,164.77l-.256,2.144-1.113,2.6,2.012-2.817Zm0,0" transform="translate(-25.944 -149.16)" fill="#00be7e"/>
    <path id="Path_3535" data-name="Path 3535" d="M27.945,267.922l1.113,2.6.452,3.789.447-3.574Zm0,0" transform="translate(-25.944 -241.439)" fill="#00be7e"/>
    <path id="Path_3536" data-name="Path 3536" d="M83.913,33.77,83.186,27.7l-4.914-3.661-3.673-4.9-6.088-.725L62.873,16l-5.638,2.406-6.088.725-3.67,4.9L42.561,27.7l-.4,3.342h8.987v1.671h1.675a7.529,7.529,0,0,0,7.538-7.52V21.849h1.675a3.346,3.346,0,0,1,3.35,3.342v7.52h9.071A2.6,2.6,0,0,1,77.1,35.033a2.509,2.509,0,0,1-2.5,2.691h.7a2.6,2.6,0,0,1,2.647,2.323,2.509,2.509,0,0,1-2.5,2.691H74.6a2.507,2.507,0,1,1,0,5.013H72.924a2.507,2.507,0,1,1,0,5.013H51.147v1.671H48.635l-3.2-1.2,2.036,1.517,3.673,4.9,6.09.725,5.636,2.406,5.638-2.406,6.088-.725,3.67-4.9,4.917-3.664.727-6.075,2.412-5.622Zm0,0" transform="translate(-38.733 -16)" fill="#00be7e"/>
    <path id="Path_3537" data-name="Path 3537" d="M40,160l.16.478.057-.478Zm0,0" transform="translate(-36.79 -144.954)" fill="#00be7e"/>
    <path id="Path_3538" data-name="Path 3538" d="M10,212.078l-2,2.8,2,2.8-1.2-2.8Zm0,0" transform="translate(-8 -191.485)" fill="#00be7e"/>
    <path id="Path_3539" data-name="Path 3539" d="M40.355,331.625,40,334.472l3.358,1.259L40.6,333.671Zm0,0" transform="translate(-36.79 -298.53)" fill="#00be7e"/>
  </g>
  <path id="Path_3540" data-name="Path 3540" d="M49.832,24.5,46,19.372l.763-6.361a.833.833,0,0,0-.5-.866L40.37,9.633,37.852,3.74a.833.833,0,0,0-.866-.5L30.626,4,25.5.166a.833.833,0,0,0-1,0L19.372,4l-6.36-.763a.833.833,0,0,0-.866.5L9.633,9.633,3.741,12.146a.833.833,0,0,0-.5.866L4,19.372.166,24.5a.833.833,0,0,0,0,1L4,30.626l-.763,6.361a.833.833,0,0,0,.5.866l5.891,2.513,2.513,5.894a.833.833,0,0,0,.866.5l6.361-.763L24.5,49.832a.833.833,0,0,0,1,0L30.626,46l6.36.763a.833.833,0,0,0,.866-.5l2.513-5.894,5.892-2.512a.834.834,0,0,0,.5-.866L46,30.626,49.832,25.5A.833.833,0,0,0,49.832,24.5ZM4.969,36.564,5.7,30.493a.833.833,0,0,0-.16-.6L1.873,25,5.54,20.1a.831.831,0,0,0,.16-.6L5.457,17.5H12.5V39.166H10.873a.826.826,0,0,0-.278-.2ZM44.461,29.9a.834.834,0,0,0-.16.6l.728,6.071-5.626,2.4a.833.833,0,0,0-.44.439l-2.4,5.626L30.493,44.3a.833.833,0,0,0-.6.161L25,48.125l-4.9-3.667a.834.834,0,0,0-.5-.167.813.813,0,0,0-.1.006l-6.071.729-1.789-4.194h2.522V39.166H35a3.334,3.334,0,0,0,2.769-5.187,3.333,3.333,0,0,0,1.449-5.289,3.385,3.385,0,0,0,.638-.5A3.29,3.29,0,0,0,39.194,23a3.313,3.313,0,0,0,.795-2.41A3.416,3.416,0,0,0,36.524,17.5H28.332V10.832a4.172,4.172,0,0,0-4.167-4.167H22.5a.833.833,0,0,0-.833.833v3.333A6.674,6.674,0,0,1,15,17.5h-.833V15.832H5.257l-.288-2.4,5.626-2.4a.835.835,0,0,0,.44-.439l2.4-5.626,6.071.729a.827.827,0,0,0,.6-.161L25,1.873l4.9,3.667a.827.827,0,0,0,.6.161l6.071-.729,2.4,5.626a.833.833,0,0,0,.439.439l5.626,2.4L44.3,19.508a.833.833,0,0,0,.16.6L48.125,25ZM27.5,19.166h9.025a1.769,1.769,0,0,1,1.8,1.547,1.634,1.634,0,0,1-.483,1.3,1.651,1.651,0,0,1-1.178.489H35a.833.833,0,1,0,0,1.667h2.358a1.769,1.769,0,0,1,1.8,1.547,1.634,1.634,0,0,1-.483,1.3A1.651,1.651,0,0,1,37.5,27.5H35a.833.833,0,1,0,0,1.667h1.667a1.667,1.667,0,0,1,0,3.333h-2.5a.833.833,0,0,0,0,1.667H35A1.667,1.667,0,0,1,35,37.5H14.166V19.166H15a8.342,8.342,0,0,0,8.333-8.333v-2.5h.833a2.5,2.5,0,0,1,2.5,2.5v7.5A.833.833,0,0,0,27.5,19.166Zm0,0" transform="translate(0.001 0.001)" fill="#00be7e"/>
</svg>
