<svg width="50" height="50" viewBox="0 0 50 50" fill="none" xmlns="http://www.w3.org/2000/svg">
<path d="M25 50C38.8071 50 50 38.8071 50 25C50 11.1929 38.8071 0 25 0C11.1929 0 0 11.1929 0 25C0 38.8071 11.1929 50 25 50Z" fill="#DAE9F9"/>
<g clip-path="url(#clip0_1705_228)">
<path d="M30.0996 24.2001C29.8996 24.0001 29.6996 23.9001 29.3996 23.8001C29.2996 23.7001 29.0996 23.6001 28.9996 23.5001C27.8996 22.8001 26.8996 22.1001 25.7996 21.4001C24.6996 20.7001 23.6996 20.0001 22.5996 19.3001C22.3996 19.1001 22.0996 19.0001 21.6996 19.1001C21.3996 19.1001 21.1996 19.3001 20.9996 19.5001C20.8996 19.6001 20.8996 19.9001 20.8996 20.2001V30.2001C20.8996 30.6001 21.0996 31.0001 21.4996 31.2001C21.6996 31.3001 21.8996 31.3001 22.0996 31.3001C22.2996 31.3001 22.4996 31.2001 22.6996 31.1001C23.2996 30.7001 23.7996 30.4001 24.3996 30.0001C26.3996 28.7001 28.2996 27.4001 30.1996 26.1001C30.4996 25.9001 30.6996 25.5001 30.6996 25.2001C30.5996 24.8001 30.4996 24.5001 30.0996 24.2001ZM22.4996 29.2001V21.0001C22.9996 21.3001 23.4996 21.6001 23.8996 22.0001C25.4996 23.0001 26.9996 24.1001 28.5996 25.1001C26.5996 26.5001 24.4996 27.9001 22.4996 29.2001ZM25.0996 11.1001C17.3996 11.1001 11.0996 17.4001 11.0996 25.1001C11.0996 32.9001 17.3996 39.1001 25.0996 39.2001C32.7996 39.2001 39.1996 32.9001 39.1996 25.2001C39.1996 17.4001 32.8996 11.1001 25.0996 11.1001ZM25.0996 37.6001C18.1996 37.6001 12.5996 32.0001 12.6996 25.1001C12.6996 18.2001 18.2996 12.6001 25.1996 12.6001C32.0996 12.6001 37.6996 18.2001 37.6996 25.1001C37.5996 32.1001 31.9996 37.7001 25.0996 37.6001Z" fill="#1F2430" stroke="#1F2430" stroke-width="0.2"/>
</g>
<defs>
<clipPath id="clip0_1705_228">
<rect width="28.3" height="28.3" fill="white" transform="translate(11 11)"/>
</clipPath>
</defs>
</svg>
