<svg width="50" height="50" viewBox="0 0 50 50" fill="none" xmlns="http://www.w3.org/2000/svg">
<path d="M25 50C38.8071 50 50 38.8071 50 25C50 11.1929 38.8071 0 25 0C11.1929 0 0 11.1929 0 25C0 38.8071 11.1929 50 25 50Z" fill="#CFF0E5"/>
<mask id="path-2-inside-1_1705_227" fill="white">
<path fill-rule="evenodd" clip-rule="evenodd" d="M38.4462 27.3978C38.1338 27.0884 37.8215 26.9337 37.5091 26.6243L37.1968 26.4696C37.0406 26.3149 36.8844 26.1602 36.8844 25.8508V23.6851C36.8844 23.3757 37.0406 23.0663 37.1968 22.9116C37.5091 22.7569 37.6653 22.4475 37.9776 22.2928L38.29 21.8287C38.9147 21.3646 39.0708 20.4365 38.6023 19.663C37.8215 18.4254 37.0406 17.0331 36.1036 15.6409C35.6351 14.8674 34.6981 14.558 33.9172 14.8674C33.6049 15.0221 33.2925 15.0221 33.1363 15.1768C32.9802 15.1768 32.6678 15.3315 32.5117 15.3315C32.3555 15.4862 32.0431 15.3315 31.887 15.3315C31.2623 15.0221 30.4814 14.558 30.0129 14.2486C29.7006 14.4033 29.5444 14.0939 29.3882 13.7845C29.2321 13.3204 29.0759 12.8564 28.9197 12.2376C28.7636 11.4641 28.1389 11 27.358 11H22.5167C21.7359 11 20.955 11.6188 20.7988 12.3923C20.6427 12.8564 20.4865 13.3204 20.4865 13.7845V13.9392C20.3303 14.0939 20.1742 14.4033 20.018 14.4033H19.8618C19.5495 14.7127 19.2371 14.8674 18.7686 15.1768L18.4563 15.3315C18.3001 15.4862 17.9878 15.4862 17.6754 15.6409C17.3631 15.6409 16.8946 15.4862 16.5822 15.3315C16.2699 15.1768 15.9575 15.1768 15.6452 15.0221H15.3329C14.7082 15.0221 14.0835 15.3315 13.7711 15.7956C12.678 17.3425 11.8971 18.7348 11.2724 19.9724C10.8039 20.5912 10.9601 21.5193 11.5848 21.9834L12.2094 22.6022L12.678 23.0663C12.9903 23.221 12.9903 23.3757 13.1465 23.6851C13.1465 24.4586 13.1465 25.0773 13.3026 25.6961C13.3026 26.0055 13.1465 26.3149 12.9903 26.6243C12.5218 26.9337 12.2094 27.3978 11.7409 27.7072C10.9601 28.1713 10.8039 28.9448 11.2724 29.5635C12.2094 31.1105 12.9903 32.5028 13.7711 33.7403C14.0835 34.5138 15.0205 34.8232 15.6452 34.5138L16.2699 34.3591C16.5822 34.2044 16.8946 34.2044 17.2069 34.0497C17.5193 33.895 17.8316 34.0497 17.9878 34.2044C18.7686 34.6685 19.3933 34.9779 19.8618 35.2873C20.018 35.442 20.1742 35.5967 20.1742 35.9061V36.2155C20.3303 36.6796 20.3303 37.1436 20.4865 37.6077C20.6427 38.3812 21.2674 38.8453 22.0482 38.8453C23.7661 38.8453 25.484 38.8453 27.0457 39C27.8265 39 28.6074 38.5359 28.7636 37.7624L28.9197 37.453C29.0759 37.1436 29.0759 36.6796 29.2321 36.3702C29.2321 36.0608 29.5444 35.7514 29.7006 35.7514C30.3253 35.442 30.95 34.9779 31.4185 34.6685H31.5746C31.887 34.3591 32.5117 34.3591 32.824 34.5138C33.1363 34.6685 33.6049 34.6685 33.9172 34.8232L34.3857 34.9779C35.1666 35.1326 35.9474 34.8232 36.2598 34.2044C37.0406 32.8122 37.8215 31.4199 38.6023 30.0276C39.227 28.7901 39.0708 27.8619 38.4462 27.3978ZM22.6729 36.8343C22.6729 36.5249 22.5167 36.3702 22.5167 36.0608C22.5167 35.9061 22.3606 35.7514 22.3606 35.442C22.2044 34.6685 21.7359 33.895 20.955 33.4309L20.4865 33.1215C20.018 32.8122 19.5495 32.5028 19.081 32.1934C18.3001 31.7293 17.5193 31.7293 16.7384 31.884L16.4261 32.0387C16.1137 32.1934 15.8014 32.1934 15.489 32.3481C14.8643 31.2652 14.0835 30.0276 13.3026 28.6354C13.4588 28.4807 13.615 28.326 13.7711 28.326C13.7711 28.326 14.0835 28.1713 14.2397 28.0166C15.0205 27.3978 15.3329 26.4696 15.3329 25.5414C15.3329 25.3867 15.3329 25.0773 15.3329 24.9227C15.3329 24.4586 15.3329 23.9945 15.3329 23.5304C15.3329 22.7569 15.0205 21.9834 14.3958 21.5193L13.3026 20.7459H13.1465L13.3026 20.5912L13.9273 19.663L14.3958 18.7348C14.7082 18.116 15.0205 17.6519 15.489 17.0331C15.6452 17.1878 15.9575 17.1878 16.2699 17.3425L16.7384 17.4972C17.5193 17.6519 18.3001 17.6519 19.081 17.3425C19.7056 16.8785 20.3303 16.5691 21.1112 16.105C21.892 15.7956 22.3606 15.0221 22.5167 14.2486C22.5167 14.0939 22.6729 13.7845 22.6729 13.6298C22.6729 13.4751 22.8291 13.1657 22.8291 13.011H27.2018C27.2018 13.3204 27.358 13.6298 27.358 13.9392C27.358 14.0939 27.5142 14.2486 27.5142 14.4033C27.6704 15.1768 28.1389 15.7956 28.9197 16.2597C29.5444 16.7238 30.3253 17.0331 30.95 17.3425C31.7308 17.6519 32.5117 17.8066 33.2925 17.4972L33.761 17.3425C33.9172 17.1878 34.2295 17.1878 34.5419 17.0331C35.3227 18.2707 35.9474 19.3536 36.7283 20.5912C36.5721 20.7459 36.4159 20.9006 36.2598 21.0552C36.1036 21.2099 35.9474 21.3646 35.7912 21.5193C35.1666 22.1381 34.8542 22.9116 34.8542 23.6851C34.8542 23.8398 34.8542 23.9945 34.8542 24.1492C34.8542 24.768 34.8542 25.3867 34.8542 26.0055C34.8542 26.779 35.1666 27.3978 35.7912 27.8619C36.1036 28.1713 36.5721 28.4807 36.8844 28.7901C36.2598 29.8729 35.4789 31.1105 34.8542 32.5028C34.5419 32.5028 34.3857 32.3481 34.0734 32.3481C33.761 32.3481 33.6049 32.1934 33.4487 32.1934C32.6678 32.0387 31.887 32.0387 31.1061 32.5028C30.95 32.6575 30.7938 32.6575 30.6376 32.8122C30.1691 32.9669 29.8568 33.2762 29.5444 33.4309C29.0759 33.7403 28.6074 34.2044 28.1389 34.5138C27.8265 34.8232 27.5142 35.2873 27.5142 35.7514C27.5142 35.9061 27.358 36.0608 27.358 36.3702C27.358 36.5249 27.2018 36.8343 27.2018 36.9889C25.3278 36.8343 23.9223 36.8343 22.6729 36.8343ZM29.2321 20.7459C28.1389 19.663 26.5772 19.0442 25.0155 19.0442C21.7359 19.0442 18.9248 21.674 18.9248 24.9227C18.9248 26.4696 19.5495 28.0166 20.6427 29.0994C21.892 30.1823 23.4537 30.8011 25.0155 30.8011C26.5772 30.8011 28.1389 30.1823 29.3882 29.0994C31.7308 26.9337 31.7308 23.221 29.5444 21.0552C29.3882 20.9006 29.3882 20.9006 29.2321 20.7459ZM22.2044 21.9834C22.8291 21.3646 23.9223 20.9006 25.0155 20.9006C26.1087 20.9006 27.2018 21.3646 27.9827 22.1381C28.7636 22.9116 29.2321 23.9945 29.0759 25.0773C28.9197 27.2431 27.2018 28.7901 25.0155 28.9448C23.9223 28.9448 22.8291 28.4807 22.0482 27.7072C21.2674 26.9337 20.7988 25.8508 20.955 24.768C20.955 23.6851 21.4235 22.7569 22.2044 21.9834Z"/>
</mask>
<path fill-rule="evenodd" clip-rule="evenodd" d="M38.4462 27.3978C38.1338 27.0884 37.8215 26.9337 37.5091 26.6243L37.1968 26.4696C37.0406 26.3149 36.8844 26.1602 36.8844 25.8508V23.6851C36.8844 23.3757 37.0406 23.0663 37.1968 22.9116C37.5091 22.7569 37.6653 22.4475 37.9776 22.2928L38.29 21.8287C38.9147 21.3646 39.0708 20.4365 38.6023 19.663C37.8215 18.4254 37.0406 17.0331 36.1036 15.6409C35.6351 14.8674 34.6981 14.558 33.9172 14.8674C33.6049 15.0221 33.2925 15.0221 33.1363 15.1768C32.9802 15.1768 32.6678 15.3315 32.5117 15.3315C32.3555 15.4862 32.0431 15.3315 31.887 15.3315C31.2623 15.0221 30.4814 14.558 30.0129 14.2486C29.7006 14.4033 29.5444 14.0939 29.3882 13.7845C29.2321 13.3204 29.0759 12.8564 28.9197 12.2376C28.7636 11.4641 28.1389 11 27.358 11H22.5167C21.7359 11 20.955 11.6188 20.7988 12.3923C20.6427 12.8564 20.4865 13.3204 20.4865 13.7845V13.9392C20.3303 14.0939 20.1742 14.4033 20.018 14.4033H19.8618C19.5495 14.7127 19.2371 14.8674 18.7686 15.1768L18.4563 15.3315C18.3001 15.4862 17.9878 15.4862 17.6754 15.6409C17.3631 15.6409 16.8946 15.4862 16.5822 15.3315C16.2699 15.1768 15.9575 15.1768 15.6452 15.0221H15.3329C14.7082 15.0221 14.0835 15.3315 13.7711 15.7956C12.678 17.3425 11.8971 18.7348 11.2724 19.9724C10.8039 20.5912 10.9601 21.5193 11.5848 21.9834L12.2094 22.6022L12.678 23.0663C12.9903 23.221 12.9903 23.3757 13.1465 23.6851C13.1465 24.4586 13.1465 25.0773 13.3026 25.6961C13.3026 26.0055 13.1465 26.3149 12.9903 26.6243C12.5218 26.9337 12.2094 27.3978 11.7409 27.7072C10.9601 28.1713 10.8039 28.9448 11.2724 29.5635C12.2094 31.1105 12.9903 32.5028 13.7711 33.7403C14.0835 34.5138 15.0205 34.8232 15.6452 34.5138L16.2699 34.3591C16.5822 34.2044 16.8946 34.2044 17.2069 34.0497C17.5193 33.895 17.8316 34.0497 17.9878 34.2044C18.7686 34.6685 19.3933 34.9779 19.8618 35.2873C20.018 35.442 20.1742 35.5967 20.1742 35.9061V36.2155C20.3303 36.6796 20.3303 37.1436 20.4865 37.6077C20.6427 38.3812 21.2674 38.8453 22.0482 38.8453C23.7661 38.8453 25.484 38.8453 27.0457 39C27.8265 39 28.6074 38.5359 28.7636 37.7624L28.9197 37.453C29.0759 37.1436 29.0759 36.6796 29.2321 36.3702C29.2321 36.0608 29.5444 35.7514 29.7006 35.7514C30.3253 35.442 30.95 34.9779 31.4185 34.6685H31.5746C31.887 34.3591 32.5117 34.3591 32.824 34.5138C33.1363 34.6685 33.6049 34.6685 33.9172 34.8232L34.3857 34.9779C35.1666 35.1326 35.9474 34.8232 36.2598 34.2044C37.0406 32.8122 37.8215 31.4199 38.6023 30.0276C39.227 28.7901 39.0708 27.8619 38.4462 27.3978ZM22.6729 36.8343C22.6729 36.5249 22.5167 36.3702 22.5167 36.0608C22.5167 35.9061 22.3606 35.7514 22.3606 35.442C22.2044 34.6685 21.7359 33.895 20.955 33.4309L20.4865 33.1215C20.018 32.8122 19.5495 32.5028 19.081 32.1934C18.3001 31.7293 17.5193 31.7293 16.7384 31.884L16.4261 32.0387C16.1137 32.1934 15.8014 32.1934 15.489 32.3481C14.8643 31.2652 14.0835 30.0276 13.3026 28.6354C13.4588 28.4807 13.615 28.326 13.7711 28.326C13.7711 28.326 14.0835 28.1713 14.2397 28.0166C15.0205 27.3978 15.3329 26.4696 15.3329 25.5414C15.3329 25.3867 15.3329 25.0773 15.3329 24.9227C15.3329 24.4586 15.3329 23.9945 15.3329 23.5304C15.3329 22.7569 15.0205 21.9834 14.3958 21.5193L13.3026 20.7459H13.1465L13.3026 20.5912L13.9273 19.663L14.3958 18.7348C14.7082 18.116 15.0205 17.6519 15.489 17.0331C15.6452 17.1878 15.9575 17.1878 16.2699 17.3425L16.7384 17.4972C17.5193 17.6519 18.3001 17.6519 19.081 17.3425C19.7056 16.8785 20.3303 16.5691 21.1112 16.105C21.892 15.7956 22.3606 15.0221 22.5167 14.2486C22.5167 14.0939 22.6729 13.7845 22.6729 13.6298C22.6729 13.4751 22.8291 13.1657 22.8291 13.011H27.2018C27.2018 13.3204 27.358 13.6298 27.358 13.9392C27.358 14.0939 27.5142 14.2486 27.5142 14.4033C27.6704 15.1768 28.1389 15.7956 28.9197 16.2597C29.5444 16.7238 30.3253 17.0331 30.95 17.3425C31.7308 17.6519 32.5117 17.8066 33.2925 17.4972L33.761 17.3425C33.9172 17.1878 34.2295 17.1878 34.5419 17.0331C35.3227 18.2707 35.9474 19.3536 36.7283 20.5912C36.5721 20.7459 36.4159 20.9006 36.2598 21.0552C36.1036 21.2099 35.9474 21.3646 35.7912 21.5193C35.1666 22.1381 34.8542 22.9116 34.8542 23.6851C34.8542 23.8398 34.8542 23.9945 34.8542 24.1492C34.8542 24.768 34.8542 25.3867 34.8542 26.0055C34.8542 26.779 35.1666 27.3978 35.7912 27.8619C36.1036 28.1713 36.5721 28.4807 36.8844 28.7901C36.2598 29.8729 35.4789 31.1105 34.8542 32.5028C34.5419 32.5028 34.3857 32.3481 34.0734 32.3481C33.761 32.3481 33.6049 32.1934 33.4487 32.1934C32.6678 32.0387 31.887 32.0387 31.1061 32.5028C30.95 32.6575 30.7938 32.6575 30.6376 32.8122C30.1691 32.9669 29.8568 33.2762 29.5444 33.4309C29.0759 33.7403 28.6074 34.2044 28.1389 34.5138C27.8265 34.8232 27.5142 35.2873 27.5142 35.7514C27.5142 35.9061 27.358 36.0608 27.358 36.3702C27.358 36.5249 27.2018 36.8343 27.2018 36.9889C25.3278 36.8343 23.9223 36.8343 22.6729 36.8343ZM29.2321 20.7459C28.1389 19.663 26.5772 19.0442 25.0155 19.0442C21.7359 19.0442 18.9248 21.674 18.9248 24.9227C18.9248 26.4696 19.5495 28.0166 20.6427 29.0994C21.892 30.1823 23.4537 30.8011 25.0155 30.8011C26.5772 30.8011 28.1389 30.1823 29.3882 29.0994C31.7308 26.9337 31.7308 23.221 29.5444 21.0552C29.3882 20.9006 29.3882 20.9006 29.2321 20.7459ZM22.2044 21.9834C22.8291 21.3646 23.9223 20.9006 25.0155 20.9006C26.1087 20.9006 27.2018 21.3646 27.9827 22.1381C28.7636 22.9116 29.2321 23.9945 29.0759 25.0773C28.9197 27.2431 27.2018 28.7901 25.0155 28.9448C23.9223 28.9448 22.8291 28.4807 22.0482 27.7072C21.2674 26.9337 20.7988 25.8508 20.955 24.768C20.955 23.6851 21.4235 22.7569 22.2044 21.9834Z" fill="#1F2430" stroke="#CFF0E5" stroke-width="0.2" mask="url(#path-2-inside-1_1705_227)"/>
</svg>
