<svg width="50" height="50" viewBox="0 0 50 50" fill="none" xmlns="http://www.w3.org/2000/svg">
<path d="M25 50C38.8071 50 50 38.8071 50 25C50 11.1929 38.8071 0 25 0C11.1929 0 0 11.1929 0 25C0 38.8071 11.1929 50 25 50Z" fill="#FEE1D4"/>
<path d="M27.6385 30H23.3613C23.159 30 23 29.8 23 29.5652V28.4348C23 28.1913 23.1662 28 23.3613 28H27.6385C27.8408 28 27.9998 28.2 27.9998 28.4348V29.5652C28.007 29.8 27.8408 30 27.6385 30Z" stroke="#1F2430" stroke-width="1.3" stroke-miterlimit="10" stroke-linecap="round" stroke-linejoin="round"/>
<path d="M27 30H24.5V35H27V30Z" stroke="#1F2430" stroke-width="1.3" stroke-miterlimit="10" stroke-linecap="round" stroke-linejoin="round"/>
<path d="M29.4548 39H21.5452C21.2413 39 21 38.5325 21 37.9437V36.0563C21 35.4675 21.2413 35 21.5452 35H29.4548C29.7587 35 30 35.4675 30 36.0563V37.9437C30 38.5152 29.7587 39 29.4548 39Z" stroke="#1F2430" stroke-width="1.3" stroke-miterlimit="10" stroke-linecap="round" stroke-linejoin="round"/>
<path d="M28.9902 34.5C28.9902 34.5 28.7696 31.6552 31.2318 29.4052C33.6939 27.1552 35 25.2069 35 21.9224C35 18.6379 32.079 13 25.5309 13H25.4691C18.9299 13 16 18.6293 16 21.9138C16 25.1983 17.3061 27.1466 19.7682 29.3966C22.2304 31.6466 22.0098 34.4914 22.0098 34.4914" stroke="#1F2430" stroke-width="1.3" stroke-miterlimit="10" stroke-linecap="round" stroke-linejoin="round"/>
<path d="M26 9V11" stroke="#1F2430" stroke-width="1.3" stroke-miterlimit="10" stroke-linecap="round" stroke-linejoin="round"/>
<path d="M39 23H37" stroke="#1F2430" stroke-width="1.3" stroke-miterlimit="10" stroke-linecap="round" stroke-linejoin="round"/>
<path d="M14 23H12" stroke="#1F2430" stroke-width="1.3" stroke-miterlimit="10" stroke-linecap="round" stroke-linejoin="round"/>
<path d="M35 33L33 31" stroke="#1F2430" stroke-width="1.3" stroke-miterlimit="10" stroke-linecap="round" stroke-linejoin="round"/>
<path d="M18 15L16 13" stroke="#1F2430" stroke-width="1.3" stroke-miterlimit="10" stroke-linecap="round" stroke-linejoin="round"/>
<path d="M35 13L33 15" stroke="#1F2430" stroke-width="1.3" stroke-miterlimit="10" stroke-linecap="round" stroke-linejoin="round"/>
<path d="M18 31L16 33" stroke="#1F2430" stroke-width="1.3" stroke-miterlimit="10" stroke-linecap="round" stroke-linejoin="round"/>
<path d="M29 39L27.875 40.622C27.7143 40.8557 27.3929 41 27.0536 41H23.9464C23.5982 41 23.2857 40.8557 23.125 40.622L22 39" stroke="#1F2430" stroke-width="1.3" stroke-miterlimit="10" stroke-linecap="round" stroke-linejoin="round"/>
</svg>
