<svg width="50" height="50" viewBox="0 0 50 50" fill="none" xmlns="http://www.w3.org/2000/svg">
<path d="M0 25C0 11.1929 11.1929 0 25 0H45C47.7614 0 50 2.23858 50 5V25C50 38.8071 38.8071 50 25 50C11.1929 50 0 38.8071 0 25Z" fill="#FFF4D9"/>
<g clip-path="url(#clip0_635_6)">
<path d="M29.4 21.3C29.2 21.4 29 21.5 28.8 21.7C27.4 23.2 25.9 24.9 24.2 26.8C24 27 23.9 27.1 23.7 27.1C23.6 27.1 23.4 27 23.2 26.9L22.6 26.3C22.2 25.9 21.8 25.5 21.4 25.1C21.2 24.9 21 24.8 20.7 24.8C20.5 24.8 20.2 24.9 20.1 25.1C19.7 25.5 19.8 26 20.1 26.4C20.8 27.2 21.7 28 22.6 28.9C22.9 29.2 23.3 29.3 23.7 29.4C24.2 29.4 24.6 29.2 25 28.8C25.7 28 26.4 27.2 27.2 26.4L27.7 25.9C28 25.6 28.3 25.2 28.6 24.9C29.2 24.3 29.7 23.7 30.3 23C30.4 22.8 30.5 22.7 30.5 22.5C30.5 22.3 30.5 22.1 30.4 22C30.2 21.4 29.8 21.2 29.4 21.3ZM35.2 15.1C32.5 12.5 28.9 11 25.2 11C17.4 11 11 17.3 11 25.1C11 32.9 17.3 39.2 25.1 39.3C25.1 39.3 25.1 39.3 25.2 39.3C28.9 39.3 32.5 37.8 35.1 35.2C37.8 32.5 39.3 29 39.3 25.2C39.3 21.4 37.8 17.8 35.2 15.1ZM33.9 33.9C31.6 36.2 28.5 37.5 25.2 37.5H25.1C18.3 37.5 12.7 32 12.8 25.1C12.8 18.3 18.4 12.7 25.2 12.7C28.5 12.7 31.6 14 34 16.3C36.3 18.6 37.6 21.8 37.6 25.1C37.5 28.5 36.2 31.6 33.9 33.9Z" fill="#1F2430"/>
</g>
<defs>
<clipPath id="clip0_635_6">
<rect width="28.3" height="28.3" fill="white" transform="translate(11 11)"/>
</clipPath>
</defs>
</svg>
