<svg xmlns="http://www.w3.org/2000/svg" xmlns:xlink="http://www.w3.org/1999/xlink" width="80" height="80" viewBox="0 0 80 80">
  <defs>
    <linearGradient id="linear-gradient" x1="0.5" x2="0.5" y2="1" gradientUnits="objectBoundingBox">
      <stop offset="0" stop-color="#f06421"/>
      <stop offset="1" stop-color="#ff8e52"/>
    </linearGradient>
  </defs>
  <g id="Group_3687" data-name="Group 3687" transform="translate(-231 -628)">
    <circle id="Ellipse_1565" data-name="Ellipse 1565" cx="40" cy="40" r="40" transform="translate(231 628)" fill="url(#linear-gradient)"/>
    <g id="business-and-finance" transform="translate(250 644)">
      <g id="Group_24" data-name="Group 24" transform="translate(24.606 23.77)">
        <g id="Group_23" data-name="Group 23">
          <path id="Path_56" data-name="Path 56" d="M303.4,262.12a1.578,1.578,0,1,1,1.8-1.562.82.82,0,0,0,1.641,0,3.264,3.264,0,0,0-2.625-3.11v-.427a.82.82,0,0,0-1.641,0v.427a3.264,3.264,0,0,0-2.625,3.11,3.334,3.334,0,0,0,3.445,3.2,1.578,1.578,0,1,1-1.8,1.562.82.82,0,0,0-1.641,0,3.264,3.264,0,0,0,2.625,3.11v.354a.82.82,0,0,0,1.641,0v-.354a3.264,3.264,0,0,0,2.625-3.11A3.334,3.334,0,0,0,303.4,262.12Z" transform="translate(-299.954 -256.201)" fill="#fff"/>
        </g>
      </g>
      <g id="Group_26" data-name="Group 26" transform="translate(31.494 20.865)">
        <g id="Group_25" data-name="Group 25">
          <path id="Path_57" data-name="Path 57" d="M389.466,224.73a10.688,10.688,0,0,0-4.366-3.864.82.82,0,0,0-.711,1.479,9.031,9.031,0,0,1,4.068,12.37.82.82,0,1,0,1.448.771,10.676,10.676,0,0,0-.439-10.755Z" transform="translate(-383.924 -220.785)" fill="#fff"/>
        </g>
      </g>
      <g id="Group_28" data-name="Group 28" transform="translate(28.465 19.898)">
        <g id="Group_27" data-name="Group 27">
          <path id="Path_58" data-name="Path 58" d="M347.875,209h-.055a.82.82,0,0,0,0,1.641h.051a.82.82,0,0,0,0-1.641Z" transform="translate(-347 -209.001)" fill="#fff"/>
        </g>
      </g>
      <g id="Group_30" data-name="Group 30" transform="translate(17.391 25.125)">
        <g id="Group_29" data-name="Group 29">
          <path id="Path_59" data-name="Path 59" d="M218.762,286.287a9.031,9.031,0,0,1-4.067-12.37.82.82,0,0,0-1.448-.771,10.669,10.669,0,0,0,4.8,14.619.82.82,0,1,0,.711-1.479Z" transform="translate(-212.002 -272.711)" fill="#fff"/>
        </g>
      </g>
      <g id="Group_32" data-name="Group 32" transform="translate(25.953 39.586)">
        <g id="Group_31" data-name="Group 31">
          <path id="Path_60" data-name="Path 60" d="M317.249,449H317.2a.82.82,0,0,0-.007,1.641h.055a.82.82,0,0,0,0-1.641Z" transform="translate(-316.378 -448.999)" fill="#fff"/>
        </g>
      </g>
      <g id="Group_34" data-name="Group 34" transform="translate(0 3)">
        <g id="Group_33" data-name="Group 33">
          <path id="Path_61" data-name="Path 61" d="M31.78,17.123a3.765,3.765,0,0,0-.364-.67h2.136a3.773,3.773,0,1,0,0-7.547H26.982A3.771,3.771,0,0,0,23.871,3H3.773a3.773,3.773,0,1,0,0,7.547h6.569a3.763,3.763,0,0,0,0,4.266H8.2a3.771,3.771,0,0,0-2.345,6.727,3.767,3.767,0,0,0,0,5.906,3.767,3.767,0,0,0,0,5.906A3.771,3.771,0,0,0,8.2,40.078H17.87A13.942,13.942,0,1,0,31.78,17.123Zm1.771-6.576a2.133,2.133,0,1,1,0,4.266h-20.1a2.133,2.133,0,1,1,0-4.266ZM3.773,8.906a2.133,2.133,0,1,1,0-4.266h20.1a2.133,2.133,0,1,1,0,4.266ZM8.2,16.453H28.3a2.132,2.132,0,0,1,.931.214c-.388-.033-.78-.05-1.177-.05a13.9,13.9,0,0,0-9.868,4.1H8.2a2.133,2.133,0,1,1,0-4.266Zm0,5.906h8.582a13.906,13.906,0,0,0-2.108,4.266H8.2a2.133,2.133,0,0,1,0-4.266Zm0,5.906h6.1a13.956,13.956,0,0,0-.051,4.266H8.2a2.133,2.133,0,1,1,0-4.266Zm0,10.172a2.133,2.133,0,0,1,0-4.266h6.381a13.89,13.89,0,0,0,1.968,4.266Zm19.852,4.43a12.3,12.3,0,1,1,12.3-12.3A12.319,12.319,0,0,1,28.055,42.867Z" transform="translate(0 -3)" fill="#fff"/>
        </g>
      </g>
    </g>
  </g>
</svg>
