<svg width="26" height="18" viewBox="0 0 26 18" fill="none" xmlns="http://www.w3.org/2000/svg">
<path d="M12.8511 17.9741C9.99856 17.9741 7.14599 18.0323 4.29341 17.9741C2.48872 17.9741 0.916899 16.8098 0.334741 15.1216C0.101878 14.5394 -0.0145539 13.899 0.0436618 13.3169C-0.0145539 11.6286 -0.0145539 9.94035 0.0436618 8.25209C0.0436618 8.01923 0.101878 7.78636 0.218309 7.49528C1.09155 5.57416 2.023 3.65304 2.89624 1.73192C3.30375 0.684036 4.35163 -0.0145539 5.45773 0.0436618C10.3479 -0.0145539 15.238 -0.0145539 20.1863 0.0436618C21.2924 -0.0145539 22.2821 0.62582 22.6896 1.6737C23.6793 3.65304 24.6107 5.57416 25.5422 7.49528C25.6586 7.78636 25.7168 8.01923 25.7168 8.3103C25.7168 9.94035 25.7168 11.5704 25.7168 13.2586C25.775 14.8887 24.96 16.5187 23.5046 17.392C22.806 17.7995 21.991 18.0323 21.176 17.9741C18.4399 17.9741 15.6455 17.9741 12.8511 17.9741ZM2.31408 7.2042H7.61171C8.07744 7.14599 8.54317 7.49528 8.60138 8.01923C8.77603 8.95068 9.29997 9.88213 9.94035 10.5807C11.3957 11.8615 13.4333 12.0943 15.0633 11.0464C16.1112 10.3479 16.8098 9.24176 17.0427 8.01923C17.1009 7.49528 17.5666 7.14599 18.0323 7.2042H23.3882C23.33 7.08777 23.33 7.02956 23.2718 6.97134C22.5732 5.45773 21.8746 4.00234 21.176 2.48872C21.0013 2.08121 20.6521 1.84835 20.1863 1.84835C15.2962 1.84835 10.4061 1.84835 5.57416 1.84835C5.10844 1.84835 4.70092 2.08121 4.52628 2.48872C3.82769 4.00234 3.1291 5.45773 2.43051 6.97134C2.37229 7.02956 2.37229 7.08777 2.31408 7.2042ZM1.79014 9.06711V9.12533C1.79014 10.5807 1.73192 12.0943 1.79014 13.5497C1.79014 14.2483 2.08121 14.8887 2.54694 15.4126C3.01267 15.9366 3.71126 16.1694 4.40985 16.1694C7.14599 16.2277 9.88213 16.1694 12.5601 16.1694C15.5291 16.1694 18.4981 16.1694 21.4089 16.1694C22.7478 16.1112 23.7957 15.0051 23.8539 13.7244C23.9121 12.1525 23.9121 10.6389 23.9121 9.12533C23.9121 9.06711 23.9121 9.06711 23.8539 9.06711L23.7957 9.00889C22.1074 9.00889 20.4192 9.00889 18.7891 9.00889C18.6727 9.06711 18.6145 9.12533 18.5563 9.18354C18.4399 9.47462 18.3234 9.7657 18.207 10.0568C17.1009 12.6183 14.3065 14.0155 11.6286 13.3751C9.47462 12.9094 7.78636 11.3375 7.14599 9.24176C7.08777 9.06711 7.02956 9.00889 6.85491 9.00889C5.22487 9.00889 3.65304 9.00889 2.023 9.00889C1.96478 9.06711 1.84835 9.06711 1.79014 9.06711Z" fill="#BFBFBF"/>
</svg>
