<svg width="42" height="42" viewBox="0 0 42 42" fill="none" xmlns="http://www.w3.org/2000/svg">
<mask id="mask0_3402_402" style="mask-type:alpha" maskUnits="userSpaceOnUse" x="0" y="0" width="42" height="42">
<rect width="42" height="42" fill="#D9D9D9"/>
</mask>
<g mask="url(#mask0_3402_402)">
<g clip-path="url(#clip0_3402_402)">
<path fill-rule="evenodd" clip-rule="evenodd" d="M10.5837 11.3086V15.5114C9.96349 15.5022 9.34795 15.6201 8.77536 15.8576C8.20278 16.0952 7.68535 16.4474 7.25506 16.8924C6.82477 17.3374 6.49085 17.8657 6.27401 18.4446C6.05717 19.0235 5.96202 19.6406 5.99449 20.2576C6.0664 22.8169 6.05417 25.3778 6.04195 27.9388C6.03504 29.3855 6.02814 30.8323 6.0364 32.2789C6.093 33.3475 6.36048 34.3946 6.8235 35.3603C7.28652 36.3259 7.93608 37.1912 8.73497 37.9067C9.53385 38.6222 10.4664 39.1739 11.4794 39.5302C12.4924 39.8865 13.566 40.0405 14.6388 39.9834C19.0003 40.0037 23.3619 40.0037 27.7234 39.9834C28.8037 40.048 29.8861 39.8983 30.9078 39.543C31.9295 39.1877 32.8702 38.6339 33.6754 37.9137C34.4806 37.1934 35.1341 36.3211 35.5983 35.3473C36.0624 34.3735 36.3279 33.3177 36.3792 32.2409C36.3932 29.4936 36.3885 26.7471 36.3839 24.0003C36.3815 22.6268 36.3792 21.2532 36.3792 19.8795C36.392 19.4568 36.3405 19.0347 36.2266 18.6274C35.9178 17.7151 35.327 16.9236 34.539 16.3663C33.7509 15.8089 32.806 15.5143 31.8396 15.5247C31.8396 15.0967 31.8415 14.6735 31.8435 14.2532C31.8473 13.4215 31.851 12.6015 31.8396 11.7798C31.8541 11.1027 31.8158 10.4256 31.7252 9.75438C30.9622 5.29318 26.4379 1.10179 19.1669 2.16769C16.8517 2.35633 14.6899 3.39703 13.1031 5.08695C11.5163 6.77687 10.6181 8.99487 10.5837 11.3086ZM11.276 18.3101H21.225V18.3082C24.5744 18.3069 27.9206 18.3088 31.2636 18.3139C32.8334 18.3158 33.337 18.7414 33.337 20.1094C33.337 21.4445 33.3389 22.7794 33.3408 24.1143C33.3446 26.7838 33.3484 29.453 33.337 32.1231C33.3156 32.8423 33.1479 33.5497 32.8442 34.2025C32.5405 34.8553 32.107 35.44 31.57 35.9211C31.0329 36.4023 30.4035 36.7699 29.7198 37.0018C29.036 37.2337 28.3121 37.325 27.5919 37.2702C25.5862 37.2792 23.5805 37.2839 21.5747 37.2844C21.6453 37.2671 21.7147 37.2446 21.7823 37.2172C21.9805 37.1366 22.1592 37.0149 22.3064 36.86C22.4536 36.7051 22.5659 36.5207 22.6357 36.319C22.7056 36.1174 22.7313 35.9033 22.7113 35.6909C22.7361 34.5262 22.7456 33.3615 22.7113 32.1987C22.668 31.8338 22.7123 31.4638 22.8406 31.1193C22.969 30.7747 23.1777 30.4655 23.4495 30.217C23.7204 29.9395 23.9324 29.6105 24.0731 29.2497C24.2139 28.8889 24.2803 28.5035 24.2686 28.1166C24.2569 27.7297 24.1671 27.349 24.0048 26.9973C23.8425 26.6456 23.6107 26.3301 23.3235 26.0693C22.7633 25.5278 22.0162 25.2207 21.2357 25.2112C20.4552 25.2016 19.7007 25.4904 19.1274 26.018C18.8357 26.2735 18.5981 26.5845 18.4287 26.9326C18.2593 27.2808 18.1614 27.6592 18.1408 28.0455C18.1202 28.4319 18.1773 28.8184 18.3087 29.1825C18.4401 29.5466 18.6432 29.8809 18.906 30.1657C19.2047 30.4331 19.4322 30.7699 19.5683 31.1462C19.7045 31.5225 19.745 31.9266 19.6862 32.3223C19.6633 32.592 19.6709 32.8652 19.6785 33.1384C19.6823 33.275 19.6862 33.4116 19.6862 33.5477L19.6728 33.5496C19.6728 33.7902 19.6709 34.0309 19.669 34.2718C19.6651 34.754 19.6613 35.2367 19.6728 35.7194C19.6568 35.9237 19.6833 36.1291 19.7505 36.3227C19.8177 36.5163 19.9242 36.6941 20.0635 36.845C20.2027 36.9958 20.3717 37.1164 20.5598 37.1993C20.6409 37.2351 20.7249 37.2635 20.8107 37.2844C18.8392 37.2838 16.8677 37.279 14.8963 37.2702C14.1616 37.3358 13.4213 37.2491 12.7219 37.0157C12.0226 36.7822 11.3795 36.4069 10.8329 35.9135C10.2864 35.4202 9.8483 34.8194 9.5464 34.149C9.24449 33.4787 9.08528 32.7533 9.07875 32.0186V20.2576C9.08066 18.711 9.53648 18.3101 11.276 18.3101ZM28.7997 14.0569C28.7976 14.5536 28.7954 15.057 28.7954 15.5703L13.6336 15.5665C13.684 14.8279 13.6555 14.0863 13.6271 13.3462C13.5652 11.7329 13.5035 10.1264 14.2592 8.5726C15.6974 5.6314 19.1879 4.21019 23.1362 4.91509C24.6666 5.13615 26.0709 5.88449 27.1048 7.03001C28.1387 8.17552 28.7369 9.64576 28.7954 11.1851C28.808 12.1339 28.8039 13.0827 28.7997 14.0569Z" fill="url(#paint0_linear_3402_402)"/>
</g>
</g>
<defs>
<linearGradient id="paint0_linear_3402_402" x1="21.1884" y1="2" x2="21.1884" y2="39.9986" gradientUnits="userSpaceOnUse">
<stop stop-color="#3068A9"/>
<stop offset="1" stop-color="#9B3397"/>
</linearGradient>
<clipPath id="clip0_3402_402">
<rect width="30.4" height="38" fill="white" transform="translate(6 2)"/>
</clipPath>
</defs>
</svg>
