<svg xmlns="http://www.w3.org/2000/svg" width="32" height="31.997" viewBox="0 0 32 31.997">
  <g id="Group_3135" data-name="Group 3135" transform="translate(-41.964 -320.041)">
    <path id="Path_204" data-name="Path 204" d="M77.824,398.987c0-1.391-.027-2.782.008-4.172a3.321,3.321,0,0,1,3.1-3.3,3.18,3.18,0,0,1,3.431,2.787,52.336,52.336,0,0,1,.009,9.365,3.137,3.137,0,0,1-3.5,2.819,3.28,3.28,0,0,1-3.045-3.332C77.8,401.769,77.823,400.378,77.824,398.987Z" transform="translate(-27.377 -54.466)" fill="#e51952"/>
    <path id="Path_205" data-name="Path 205" d="M49.514,362.4c-1.392,0-2.786.024-4.177-.007a3.35,3.35,0,1,1-.016-6.7q4.118-.065,8.239,0a3.47,3.47,0,0,1,3.464,3.357,3.4,3.4,0,0,1-3.564,3.347C52.144,362.409,50.829,362.4,49.514,362.4Z" transform="translate(0 -27.199)" fill="#23bbe6"/>
    <path id="Path_206" data-name="Path 206" d="M121.027,391.487c1.356,0,2.713-.024,4.069.006a3.4,3.4,0,0,1,3.442,3.356,3.34,3.34,0,0,1-3.358,3.308c-2.75.052-5.5.047-8.253,0a3.261,3.261,0,0,1-3.346-3.4,3.332,3.332,0,0,1,3.378-3.273c.039,0,.078,0,.116,0Z" transform="translate(-54.575 -54.554)" fill="#f6af00"/>
    <path id="Path_207" data-name="Path 207" d="M120.019,327.917c0,1.391.022,2.782-.006,4.172a3.295,3.295,0,0,1-6.586.155q-.1-4.342,0-8.689a3.169,3.169,0,0,1,3.446-3.128,3.2,3.2,0,0,1,3.145,3.317c.014.7,0,1.391,0,2.086S120.02,327.222,120.019,327.917Z" transform="translate(-54.535 -0.296)" fill="#39ac7a"/>
    <path id="Path_208" data-name="Path 208" d="M46.575,391.483c2.124,0,2.125,0,2.124,2.11,0,.425.013.85-.008,1.274a3.35,3.35,0,1,1-3.392-3.381C45.723,391.464,46.15,391.483,46.575,391.483Z" transform="translate(-0.021 -54.552)" fill="#e51952"/>
    <path id="Path_209" data-name="Path 209" d="M148.922,360.395a5.88,5.88,0,0,1,.308-2.5,3.307,3.307,0,0,1,3.942-1.846,3.329,3.329,0,0,1-.7,6.536c-.848.048-1.706-.044-2.551.028s-1.1-.273-1.006-1.057A9.535,9.535,0,0,0,148.922,360.395Z" transform="translate(-81.659 -27.398)" fill="#39ac7a"/>
    <path id="Path_210" data-name="Path 210" d="M82.1,326.738a4.616,4.616,0,0,1-3.012-.578,3.415,3.415,0,0,1-1.242-3.814,3.54,3.54,0,0,1,3.193-2.3,3.445,3.445,0,0,1,3.211,2.56,16.038,16.038,0,0,1,.18,3.465c.023.5-.218.693-.7.677C83.19,326.725,82.647,326.739,82.1,326.738Z" transform="translate(-27.273)" fill="#23bbe6"/>
    <path id="Path_211" data-name="Path 211" d="M115.721,427.26c.427,0,.854-.021,1.279,0a3.244,3.244,0,0,1,3.084,3.289,3.29,3.29,0,0,1-6.565.336c-.072-.924.006-1.859-.043-2.785-.034-.648.174-.927.849-.86.461.046.93.009,1.395.009Z" transform="translate(-54.61 -81.86)" fill="#f6af00"/>
  </g>
</svg>
