<svg width="31" height="38" viewBox="0 0 31 38" fill="none" xmlns="http://www.w3.org/2000/svg">
<path fill-rule="evenodd" clip-rule="evenodd" d="M29.8682 1.6002C28.5207 2.66978 24.5277 5.69666 16.4371 10.1484C10.9819 13.1454 6.14957 16.9779 3.35756 21.6293C1.03834 25.5132 0.0777935 30.019 1.3907 35.1199C1.43359 35.2579 1.91849 36.1364 2.60668 36.0133L2.65238 36.0142C4.12015 35.7699 31.9753 30.4876 29.8682 1.6002ZM16.1294 9.54782C26.2538 3.99485 29.9326 0.687274 29.9326 0.687274C29.9792 0.642514 30.0715 0.598688 30.1172 0.599622C30.3 0.603354 30.48 0.744165 30.4763 0.926937C33.1083 30.9679 4.28893 36.459 2.77453 36.7481L2.72883 36.7472C1.44383 36.9952 0.744464 35.4267 0.744464 35.4267L0.745396 35.381C-0.608537 30.0507 0.355745 25.3621 2.77008 21.2973C5.65627 16.5107 10.5819 12.5887 16.1294 9.54782Z" fill="#B5B364"/>
<path fill-rule="evenodd" clip-rule="evenodd" d="M30.1543 0.921604C30.1543 0.921604 29.9688 1.05495 29.6424 1.36827C29.1472 3.23236 28.4702 5.04702 27.7027 6.81412L27.0435 3.28082C26.9045 3.36941 26.7656 3.45799 26.6266 3.54657L27.4145 7.49392C26.6014 9.26008 25.6987 10.933 24.7055 12.5584L24.4939 5.01152C24.355 5.10011 24.216 5.1887 24.0314 5.27635L24.2346 13.2344C23.1957 14.8588 22.0664 16.4357 20.8933 17.9203L20.3284 7.53205L19.9115 7.79781L20.5175 18.4154C19.4861 19.6743 18.4557 20.8875 17.3805 22.054L15.9343 10.0479C15.7954 10.1365 15.6564 10.2251 15.5184 10.268L16.9599 22.5026C15.8847 23.6691 14.7657 24.7434 13.6933 25.7728L11.3967 12.8808C11.2577 12.9694 11.1188 13.058 10.9798 13.1466L13.2746 26.13C12.0166 27.2928 10.8062 28.3652 9.64333 29.3471L6.88607 16.6285C6.74619 16.7628 6.65293 16.8523 6.51305 16.9866L9.27125 29.6595C8.24827 30.5071 7.27192 31.31 6.34406 31.9767L3.08788 21.305C2.99276 21.4859 2.89857 21.6211 2.80345 21.802L5.97291 32.2434C4.85855 33.0892 3.885 33.755 3.09702 34.2875L0.57186 28.1105C0.520568 28.3837 0.51497 28.6579 0.462745 28.9768L2.7725 34.5094C1.84557 35.1304 1.2441 35.4839 1.19747 35.5286C1.33082 35.7142 1.50892 35.9464 1.73366 36.1338C1.91923 36.0005 2.52071 35.6471 3.44763 35.026L6.27314 35.4494C6.54916 35.3636 6.87088 35.2788 7.14784 35.1473L3.95772 34.6707C4.79233 34.0935 5.81344 33.3373 7.02012 32.4477L12.3103 33.0585C12.5415 32.9261 12.7719 32.8394 13.0031 32.707L7.48452 32.0915C8.27343 31.5133 9.06422 30.8438 9.94732 30.1304L16.9356 30.4103C17.1211 30.2769 17.3067 30.1436 17.4923 30.0102L10.4126 29.7285C11.6221 28.7018 12.8782 27.6304 14.1381 26.3762L21.6318 26.5292C21.7716 26.3949 21.9115 26.2607 22.0514 26.1264L14.6034 25.9743C15.6758 24.9448 16.7958 23.8249 17.871 22.6583L25.0961 22.5316C25.1903 22.3964 25.2845 22.2612 25.3796 22.0803L18.2915 22.2098C19.3668 21.0432 20.3972 19.83 21.4295 18.5255L27.7538 17.7404C27.8023 17.6042 27.8974 17.4233 27.9459 17.2872L21.8044 18.076C23.0241 16.5467 24.1544 14.9241 25.1951 13.2083L29.7131 11.335C29.7625 11.1531 29.7663 10.9704 29.8157 10.7885L25.6203 12.5313C26.5668 10.9507 27.4229 9.32257 28.1885 7.64686L30.2568 7.09484C30.2596 6.95776 30.2634 6.77499 30.2662 6.63791L28.4282 7.10321C29.1472 5.47225 29.7757 3.79374 30.2681 2.06673C30.2299 1.70025 30.1916 1.33377 30.1543 0.921604Z" fill="#B5B364"/>
</svg>
