<svg width="452" height="310" viewBox="0 0 452 310" fill="none" xmlns="http://www.w3.org/2000/svg">
<path d="M152.999 140.9C142.599 134.5 128.399 129.6 119.899 124.4C100.999 112.7 110.799 96.9999 127.499 90.9999C172.599 74.8999 180.699 109.7 163.099 111.8C158.499 112.4 158.599 115.6 162.399 114.6C166.399 113.4 169.599 112 171.799 110.1C180.499 102.9 177.099 91.3999 167.199 86.4999C157.099 81.4999 136.199 82.2999 122.099 87.1999C101.599 94.4999 88.8988 115.2 109.799 129.1C120.299 136.1 139.199 141.2 147.799 148.2C164.699 161.9 154.799 186.1 131.299 198.4C103.299 213 52.8988 209.3 53.1988 174.6C53.3988 165.6 55.9988 156.2 61.0988 148.4C63.5988 144.4 66.9988 140.8 70.7988 137.9C75.3988 134.4 71.3988 134.9 69.3988 135.8C55.6988 142.2 44.6988 161.4 45.3988 174.7C47.7988 214.2 107.599 218.2 139.299 199.3C162.799 185 181.599 158.6 152.999 140.9Z" fill="#2aa0d1"/>
<path d="M278.402 144.5C281.602 144.5 284.602 142 285.102 138.7C285.702 135.5 283.502 132.9 280.202 132.9C277.102 132.9 274.002 135.4 273.502 138.7C273.102 141.9 275.202 144.5 278.402 144.5Z" fill="#2aa0d1"/>
<path d="M200.101 160.8C212.001 144.1 220.401 152.8 211.201 170.1C203.601 184 188.201 199.5 181.401 192.7C187.901 180.4 194.801 168.2 200.101 160.8ZM380.701 193.9L371.901 195L372.301 194.1C372.101 194.2 372.101 194.3 371.901 194.4C374.901 183.3 375.501 171.5 373.701 160.3C371.501 161.9 367.001 159.5 365.001 165.9C362.401 174.8 348.701 196.2 340.401 192.7C333.101 189.5 341.001 172.5 351.201 161C359.801 151.5 370.101 145.9 373.801 155.8C375.401 160 380.201 155.8 375.401 151.8C364.901 143.5 351.101 148.3 342.801 158.2C339.101 162.6 335.701 167.9 333.401 173.2C329.501 180.8 322.001 194.5 315.601 194.5C313.801 194.5 312.201 193.3 313.401 187.5C315.201 177.7 330.301 151.3 330.301 151.3C325.501 149.7 311.101 158.5 304.301 164.5C299.901 168.3 295.401 173.6 292.601 177.2C297.601 167.1 305.301 153.1 309.501 150.8C307.501 151.2 305.501 150.4 303.601 150.2C299.101 150 297.301 152.3 293.701 159.1C291.901 162.5 290.101 165.9 288.401 169.4C288.201 169.6 287.901 170 287.701 170.5C283.801 178.4 279.101 187 274.501 191.7C272.901 193.1 270.301 194.7 268.201 194.3C264.301 194.1 264.001 190.1 265.201 185.4C265.401 184.4 266.801 181.4 266.801 181.4L278.101 155.2C279.701 151.8 279.701 150.3 275.101 150.3L267.401 150.5C268.001 151.2 269.901 153.7 268.801 156.4L262.601 172.2C259.101 179.4 251.301 194 246.101 193.8C237.701 193.4 252.001 167.7 254.101 163.4C255.701 159.9 258.001 154.5 257.101 152.6C250.201 153.3 243.001 153.4 237.801 153.2C240.201 151.6 244.701 147.7 245.501 143.8C247.501 134.4 238.301 130.9 236.901 138.8C234.101 154.5 226.401 175.7 215.301 190.3C214.501 191.5 215.301 193.1 216.501 192.1C223.401 185.5 230.101 169.9 233.401 161.1L235.001 156.6C242.901 156.8 247.701 158.6 245.801 163.2C244.201 166.7 239.201 174 237.101 179.7C231.501 194.3 240.101 198.5 244.801 197.4C250.101 196.1 254.601 190.7 258.401 184.7C257.501 191 259.301 197.6 267.401 197.6C271.101 197.6 274.501 195.3 277.501 192.1C276.401 194.2 275.401 196.5 274.301 198.6C275.701 197.8 276.901 197.9 279.101 197.8C282.101 197.8 283.301 197.6 284.401 195.7C292.301 180.2 299.101 172.3 303.901 167.9C314.701 157.8 317.201 161.6 313.801 167.1C309.901 173.4 307.201 178.2 306.101 181.8C301.901 194.9 308.601 198.2 313.501 198.2C320.301 198.2 326.101 191.1 330.401 183.7C329.901 189.5 331.901 194.6 337.701 197.1C349.001 200.5 360.101 181.6 364.701 172.8C365.101 174.4 365.101 178.8 364.501 184.3C363.901 189.7 363.001 194.7 361.401 199.5L361.501 199.7L359.901 204.1L359.701 204.2C357.701 208.9 355.101 213.5 351.801 218.2C347.901 223.4 343.501 228.5 339.101 231.9C335.701 234.4 327.401 239.2 321.401 239.2C309.701 239.2 314.801 225.1 323.901 219.1C332.601 213.3 344.101 209.2 354.201 205.8L356.101 201.7C346.401 205.2 335.401 208.1 323.701 215C317.001 218.9 311.501 224.3 311.501 231.1C311.501 238.4 315.901 241.9 324.701 241.9C344.601 241.9 362.801 218 369.301 200.4C421.701 180.5 397.801 337.5 274.801 253C286.401 240.6 294.601 226.4 298.201 211.9C299.201 206 288.701 201 289.201 206.6C289.701 211.3 286.001 236.3 271.501 250.8L268.801 253.6L268.701 253.7C262.801 259.5 256.101 265 248.801 269.7C227.101 283.8 199.901 292.6 170.901 291.4C143.601 290.3 127.201 279.2 120.501 265.4C117.801 259.8 116.601 253.7 117.001 247.6C117.401 241.5 119.401 235.5 122.801 230.1C129.501 219.4 141.801 210.9 159.201 208.1C159.601 208 159.901 208 160.401 207.9C160.601 207.9 160.601 207.9 160.801 207.8C161.301 207.7 161.801 207.6 162.301 207.6C162.501 207.6 162.601 207.6 162.801 207.5C163.301 207.4 163.801 207.4 164.401 207.3C164.601 207.3 164.701 207.3 164.901 207.3C165.501 207.2 166.001 207.2 166.501 207.1C169.101 206.9 171.901 206.9 174.801 207C175.901 207 176.901 207.1 178.001 207.2C179.101 207.3 180.101 207.4 181.101 207.5C181.201 207.5 181.301 207.5 181.401 207.5C208.401 210.7 234.001 228.8 258.901 246.4C260.801 247.7 262.701 249 264.601 250.4L267.001 247.4C265.001 246 263.101 244.7 261.201 243.3C234.801 224.6 207.701 205.4 178.301 203.3C177.601 203.2 177.001 203.2 176.301 203.2L179.701 194.8C189.601 200.7 202.001 196 209.701 186.7C220.001 174.4 227.801 151.9 214.501 148.2C205.001 145.6 193.601 164.9 189.401 171.8C191.201 167 193.201 159.6 193.301 154.9C193.501 148 192.301 148.7 188.301 149.1C187.101 149.3 181.401 150.3 181.401 150.3C184.801 151 183.201 161.6 180.601 167.8C179.901 169.4 178.501 172.7 177.801 174.1C176.801 176.1 179.401 175.3 181.001 172.9C179.801 178.7 174.401 190.9 168.501 203.1C144.701 204 128.101 214.4 119.701 227.8C115.901 233.8 113.801 240.5 113.301 247.1C112.801 253.8 114.001 260.5 117.101 266.7C124.301 281.7 141.901 293.7 170.801 294.8C200.601 296 228.701 287.1 251.001 272.5C258.801 267.4 265.901 261.6 272.101 255.4C394.401 339.3 425.901 195 380.701 193.9Z" fill="#2aa0d1"/>
<path d="M160 220.6L160.1 220.8C160.1 220.8 159.2 222.9 160.8 223C162.4 223.2 167.3 223.2 168.4 223.1C168.6 223.1 168.8 223 169.1 222.8L173.5 211.6C170.9 210.5 168.1 210.1 165.6 210C163.6 213.8 161.7 217.4 160 220.6Z" fill="#2aa0d1"/>
<path fill-rule="evenodd" clip-rule="evenodd" d="M25.1992 287.8C25.1992 287.8 34.6992 282 59.0992 274.2C83.4992 266.3 104.299 251.3 102.699 225.2C102.699 225.2 101.999 222.1 99.6992 222.1C97.3992 222.1 31.8992 221.5 25.1992 287.8Z" fill="#93934E"/>
<path fill-rule="evenodd" clip-rule="evenodd" d="M25.1992 287.8C25.1992 287.8 25.6992 287.6 26.4992 287C28.3992 283.2 30.5992 279.5 32.9992 276L32.8992 283.9C33.1992 283.7 33.5992 283.6 33.8992 283.4L33.9992 274.5C36.4992 271 39.1992 267.7 41.9992 264.6L39.2992 281.1C39.6992 280.9 39.9992 280.8 40.3992 280.6L43.2992 263.2C46.1992 260 49.2992 257.1 52.4992 254.4L49.4992 277.2L50.5992 276.8L53.6992 253.4C56.3992 251.1 59.1992 248.9 61.9992 246.9L59.9992 273.7C60.2992 273.6 60.6992 273.5 60.9992 273.4L62.9992 246.2C65.8992 244.2 68.5992 242.2 71.3992 240.4L70.9992 269.4C71.2992 269.2 71.6992 269.1 71.9992 268.9L72.3992 239.7C75.5992 237.7 78.6992 235.9 81.5992 234.2L82.3992 263C82.6992 262.8 82.9992 262.5 83.3992 262.3L82.5992 233.6C85.1992 232.2 87.5992 230.9 89.8992 229.8L92.4992 254.3C92.7992 254 93.0992 253.6 93.2992 253.3L90.6992 229.3C93.4992 227.9 95.8992 226.8 97.7992 226L100.699 240.4C100.899 239.8 101.099 239.2 101.299 238.6L98.6992 225.6C100.999 224.6 102.499 224.1 102.599 224C102.399 223.5 102.099 222.9 101.699 222.5C101.199 222.7 99.7992 223.3 97.4992 224.2L91.5992 222.1C90.8992 222.2 90.1992 222.3 89.5992 222.3L96.3992 224.7C94.3992 225.6 91.6992 226.8 88.7992 228.2L77.4992 224.7C76.9992 224.9 76.3992 225 75.7992 225.2L87.4992 228.9C85.4992 229.9 83.4992 230.9 81.2992 232.1L66.1992 228.6C65.6992 228.8 65.1992 229.1 64.7992 229.2L80.0992 232.7C77.0992 234.4 73.8992 236.3 70.5992 238.4L54.3992 234.9C53.9992 235.1 53.6992 235.4 53.2992 235.7L69.4992 239.2C66.6992 241 63.8992 243 60.9992 245.1L45.2992 242.4C44.9992 242.7 44.7992 242.9 44.4992 243.2L59.8992 245.8C57.0992 247.9 54.2992 250.1 51.5992 252.5L37.4992 251.6C37.2992 251.9 36.9992 252.2 36.8992 252.5L50.5992 253.4C47.3992 256.3 44.1992 259.3 41.0992 262.6L30.4992 264.8C30.2992 265.2 30.1992 265.6 29.9992 265.9L39.8992 263.9C37.1992 266.9 34.5992 270.1 32.1992 273.5L27.4992 273.8C27.3992 274.1 27.2992 274.5 27.2992 274.8L31.4992 274.5C29.1992 277.7 27.1992 281.1 25.4992 284.7C25.3992 286.1 25.1992 287 25.1992 287.8Z" fill="#605F34"/>
<path fill-rule="evenodd" clip-rule="evenodd" d="M378.3 159.3C378.3 159.3 378.3 155.1 376.3 145.9C374.3 136.7 374.8 127 382.1 121.8C382.1 121.8 383.1 121.3 383.5 122.1C383.7 122.7 395 142.6 378.3 159.3Z" fill="#605F34"/>
<path fill-rule="evenodd" clip-rule="evenodd" d="M377.898 170.3C377.898 170.3 382.798 169.5 393.998 169.8C405.198 170.1 416.398 167.5 420.998 157.9C420.998 157.9 421.298 156.7 420.398 156.4C419.498 156.2 393.798 147.3 377.898 170.3Z" fill="#605F34"/>
<path fill-rule="evenodd" clip-rule="evenodd" d="M393.398 156C393.398 156 395.998 150.9 399.398 138.5C402.798 126.1 409.598 114.8 421.698 113.1C421.698 113.1 423.098 113.1 423.198 114.3C423.298 115.5 424.098 146.6 393.398 156Z" fill="#93934E"/>
<path fill-rule="evenodd" clip-rule="evenodd" d="M437.801 118.5C438.001 118 438.501 117.7 439.001 117.8C439.501 118 439.801 118.5 439.701 119C434.401 138 419.701 144.8 405.301 151.5C392.301 157.6 379.501 163.5 374.601 178.4C374.401 178.9 373.901 179.2 373.401 179C373.101 178.9 372.801 178.6 372.701 178.2C370.901 167.1 378.001 158.2 385.101 149.2C393.301 138.8 401.501 128.6 394.701 115.2C394.501 114.8 394.701 114.2 395.101 113.9C395.501 113.7 396.101 113.9 396.401 114.3C403.801 128.7 395.201 139.4 386.601 150.2C380.601 157.7 374.701 165.1 374.401 173.7C380.401 160.9 392.301 155.4 404.501 149.6C418.401 143.3 432.701 136.7 437.801 118.5Z" fill="#605F34"/>
<path fill-rule="evenodd" clip-rule="evenodd" d="M447.5 133.2C452.1 129.1 453.6 111.9 449.2 109.1C444.6 106.6 430.5 116.7 429.2 122.7C427.5 130.8 441.2 138.7 447.5 133.2Z" fill="#E1B263"/>
<path fill-rule="evenodd" clip-rule="evenodd" d="M424.699 120C425.899 113.9 440.099 104 444.699 106.4C449.099 109.2 447.599 126.4 442.999 130.5C436.799 136.2 423.099 128.2 424.699 120Z" fill="#E1B263"/>
<path fill-rule="evenodd" clip-rule="evenodd" d="M443.199 130.6C447.399 126.3 450.399 109.9 446.999 107.7C443.399 105.9 430.799 116.7 429.199 122.5C426.899 130.4 437.399 136.6 443.199 130.6Z" fill="#E8C668"/>
<path fill-rule="evenodd" clip-rule="evenodd" d="M391.501 103.9C394.301 102.9 397.401 104.3 398.401 107.2C399.401 110 398.001 113.1 395.101 114.1C392.301 115.1 389.201 113.7 388.201 110.8C387.201 108 388.701 104.9 391.501 103.9Z" fill="#E8C668"/>
<path fill-rule="evenodd" clip-rule="evenodd" d="M397.2 119.5C387.6 120.1 386.4 113.9 388.3 110.8C390 107.6 394.7 107.4 397.2 119.5Z" fill="#E1B263"/>
<path fill-rule="evenodd" clip-rule="evenodd" d="M397.199 119.5C405.199 113.6 401.699 108 398.199 107C394.899 106 391.599 109 397.199 119.5Z" fill="#E1B263"/>
<path fill-rule="evenodd" clip-rule="evenodd" d="M310.699 290.9C322.199 300.5 327.899 303.3 327.899 303.3C327.999 303.4 328.099 303.4 328.099 303.5C328.199 303.7 328.099 304 327.899 304.1C292.899 321.6 272.699 289.4 271.599 287.6V287.5C270.699 286 272.299 284.5 272.299 284.5L272.399 284.4C278.199 280.3 284.299 279.2 290.299 280.2C297.299 281.5 304.399 285.6 310.699 290.9ZM326.699 303.7C324.699 302.6 319.199 299.2 310.099 291.6C303.899 286.5 296.999 282.4 289.999 281.3C284.199 280.4 278.299 281.4 272.799 285.3C272.699 285.4 271.799 286.4 272.299 287.2V287.3C273.399 288.8 292.899 319.9 326.699 303.7Z" fill="#B5B364"/>
<path fill-rule="evenodd" clip-rule="evenodd" d="M327.7 303.7C327.7 303.7 327.5 303.6 326.9 303.3C324.4 303.6 321.9 303.7 319.4 303.5L323.3 301.1C323.1 301 322.9 300.9 322.8 300.7L318.4 303.4C315.9 303.3 313.4 302.9 311 302.5L320 298.7C319.8 298.6 319.6 298.5 319.5 298.3L310 302.3C307.5 301.8 305.1 301.2 302.8 300.5L315 294.9L314.5 294.5L302 300.2C300 299.5 298 298.9 296.1 298.1L309.9 290.7C309.7 290.6 309.6 290.5 309.4 290.3L295.4 297.8C293.5 297 291.7 296.3 289.9 295.4L304.3 286.5C304.1 286.4 303.9 286.3 303.8 286.1L289.2 295C287.2 294.1 285.4 293.1 283.6 292.2L297.6 282.9C297.4 282.8 297.2 282.7 297 282.6L283 291.9C281.5 291.1 280.1 290.2 278.9 289.5L290.2 280.5C290 280.4 289.7 280.4 289.4 280.4L278.3 289.2C276.8 288.3 275.5 287.4 274.5 286.7L280.7 280.7C280.3 280.8 280 280.9 279.6 281L274 286.4C272.8 285.6 272.1 285 272 285C271.8 285.2 271.6 285.5 271.5 285.9C271.7 286.1 272.4 286.6 273.6 287.4L274.4 291C274.6 291.3 274.9 291.6 275.2 291.9L274.3 287.8C275.4 288.5 276.8 289.5 278.4 290.4L280.2 297.1C280.4 297.3 280.7 297.5 280.9 297.8L279.1 290.9C280.2 291.6 281.3 292.2 282.7 292.9L285.7 301.5C285.9 301.7 286.2 301.9 286.5 302L283.5 293.4C285.3 294.3 287.2 295.4 289.3 296.3L292.6 305.4C292.8 305.5 293.1 305.6 293.3 305.7L290 296.6C291.8 297.4 293.6 298.2 295.6 299L299.2 307.6C299.4 307.7 299.6 307.7 299.9 307.8L296.4 299.3C298.3 300 300.3 300.7 302.3 301.3L306.3 308.6C306.5 308.6 306.7 308.6 307 308.6L303.2 301.6C305.6 302.3 308.1 302.9 310.7 303.4L315.1 308C315.3 307.9 315.6 307.9 315.8 307.9L311.7 303.6C314 304 316.4 304.3 318.8 304.4L320.4 306.6C320.6 306.5 320.8 306.5 321 306.4L319.5 304.4C321.8 304.5 324.1 304.5 326.4 304.2C326.8 304.1 327.3 303.9 327.7 303.7Z" fill="#B5B364"/>
<path fill-rule="evenodd" clip-rule="evenodd" d="M394 267.7C394 267.7 394.8 268.7 395.6 271.6C396.4 274.5 398.5 276.8 403 275.8C403 275.8 403.5 275.6 403.6 275.3C403.5 275 405.1 266.7 394 267.7Z" fill="#605F34"/>
<path fill-rule="evenodd" clip-rule="evenodd" d="M418.5 263.6C418.5 263.6 419.4 264.5 420.8 267.2C422.1 269.9 424.6 271.7 428.8 269.9C428.8 269.9 429.3 269.6 429.3 269.3C429.3 269.1 429.3 260.5 418.5 263.6Z" fill="#93934E"/>
<path fill-rule="evenodd" clip-rule="evenodd" d="M400.5 266.8C400.5 266.8 401 265.6 401.2 262.6C401.4 259.6 402.9 257 407.5 256.9C407.5 256.9 408.1 257 408.2 257.2C408.3 257.6 411.7 265.4 400.5 266.8Z" fill="#93934E"/>
<path fill-rule="evenodd" clip-rule="evenodd" d="M435.699 265.7C435.699 265.7 436.899 265.2 438.999 263.1C441.099 261.1 444.099 260.1 447.399 263.3C447.399 263.3 447.699 263.7 447.699 264C447.699 264.3 444.799 272.3 435.699 265.7Z" fill="#93934E"/>
<path fill-rule="evenodd" clip-rule="evenodd" d="M443.701 270.3C443.901 270.6 444.001 271 443.801 271.3C443.601 271.6 443.101 271.6 442.801 271.4C431.001 260.6 418.801 263.4 407.301 266.1C398.001 268.3 389.101 270.3 381.201 265.1C380.901 264.9 380.801 264.4 380.901 264.1C381.101 263.8 381.601 263.7 381.901 263.9C389.301 268.8 398.001 266.8 407.001 264.7C418.901 261.9 431.401 259 443.701 270.3Z" fill="#605F34"/>
<path fill-rule="evenodd" clip-rule="evenodd" d="M383.898 265.8C383.898 265.8 384.298 267.1 384.298 270C384.198 273 385.598 275.8 390.198 276C390.198 276 390.798 276 390.898 275.7C391.098 275.6 394.998 268 383.898 265.8Z" fill="#93934E"/>
<path fill-rule="evenodd" clip-rule="evenodd" d="M405.898 265.6C405.898 265.6 406.798 266.5 407.998 269.3C409.198 272 411.698 273.9 415.898 272.3C415.898 272.3 416.398 272 416.398 271.7C416.498 271.4 416.798 262.8 405.898 265.6Z" fill="#605F34"/>
<path fill-rule="evenodd" clip-rule="evenodd" d="M432.898 264.9C432.898 264.9 433.298 266.2 433.098 269.1C432.898 272.1 434.198 274.9 438.798 275.4C438.798 275.4 439.398 275.4 439.498 275.1C439.598 274.9 443.898 267.4 432.898 264.9Z" fill="#605F34"/>
<path fill-rule="evenodd" clip-rule="evenodd" d="M442.5 269.8C442.5 269.8 442.9 271.1 442.7 274C442.5 277 443.8 279.8 448.4 280.3C448.4 280.3 449 280.3 449.1 280C449.3 279.8 453.5 272.2 442.5 269.8Z" fill="#605F34"/>
<path fill-rule="evenodd" clip-rule="evenodd" d="M390.102 267.4C390.102 267.4 390.802 266.3 391.402 263.3C392.002 260.3 393.902 258 398.402 258.5C398.402 258.5 399.002 258.7 399.102 258.9C399.002 259.3 401.302 267.6 390.102 267.4Z" fill="#605F34"/>
<path fill-rule="evenodd" clip-rule="evenodd" d="M412.398 264C412.398 264 412.898 262.8 413.098 259.8C413.298 256.8 414.798 254.2 419.398 254.1C419.398 254.1 419.998 254.2 420.098 254.4C420.198 254.7 423.598 262.6 412.398 264Z" fill="#605F34"/>
<path fill-rule="evenodd" clip-rule="evenodd" d="M425.5 262.8C425.5 262.8 426.5 261.9 427.8 259.3C429.2 256.6 431.6 254.8 435.8 256.6C435.8 256.6 436.3 256.9 436.3 257.2C436.3 257.3 436.2 265.9 425.5 262.8Z" fill="#605F34"/>
<path d="M205.4 263.1V262.6H207.6V244.1H205.4V243.6H219.8V249.8H219.3C219.3 247.4 218.9 245.8 218.2 245.1C217.5 244.4 215.9 244 213.4 244H210.7V252.6H212.3C213.7 252.6 214.7 252.3 215.3 251.8C215.8 251.2 216.1 250.2 216.1 248.8H216.6V257H216.1C216.1 255.5 215.8 254.5 215.3 253.9C214.8 253.3 213.8 253 212.3 253H210.7V262.5H213.1C214.6 262.5 215.8 262.4 216.6 262.3C217.4 262.1 218.1 261.8 218.6 261.2C219.1 260.7 219.5 260 219.6 259.2C219.8 258.4 219.9 257.2 220 255.6H220.5L220.2 262.9H205.4V263.1ZM188.7 263.1V262.6H190.9V244.1H188.7V243.6H196.8V244.1H194V262.6H195.5C197 262.6 198.2 262.5 199 262.4C199.8 262.2 200.5 261.9 201 261.3C201.5 260.7 201.9 260.1 202 259.3C202.2 258.5 202.3 257.3 202.4 255.8H202.9L202.6 263.1H188.7ZM176.6 247.3L173.8 255.3H179.2L176.7 247.3H176.6ZM172.7 258.7C172.5 259.3 172.4 259.9 172.4 260.5C172.4 261.1 172.5 261.5 172.7 261.8C172.9 262.1 173.3 262.3 173.7 262.4C174.4 262.6 175.3 262.7 176.5 262.7H177V263.2H168.1V262.7C169.2 262.7 170 262.4 170.5 261.8C171.1 261.2 171.5 260.3 172 259L176.9 244.9C177 244.5 177.2 244.1 177.3 243.9C177.6 243.3 178 243.1 178.7 243.1H178.8L184.9 262.7H187V263.2H179.2V262.7H181.4L179.3 255.9H173.6L172.7 258.7ZM160.8 263.1C162 263.1 163 262.7 163.7 262C164.4 261.3 164.8 260.3 164.8 259.2C164.8 258.1 164.4 257.2 163.7 256.5C163 255.8 162.1 255.3 161.1 254.9C160.1 254.5 159.1 254 158 253.6C157 253.1 156.1 252.5 155.4 251.6C154.7 250.7 154.3 249.7 154.3 248.4C154.3 246.7 154.8 245.4 155.8 244.4C156.8 243.4 158.2 243 159.9 243C160.8 243 161.8 243.2 162.9 243.5C164 243.8 164.7 244 164.8 244C165.4 244 165.7 243.7 165.8 243H166.2V249.6H165.7C165.4 247.8 164.8 246.3 163.9 245.2C163 244.1 161.7 243.6 160.1 243.6C159 243.6 158.2 243.9 157.5 244.6C156.9 245.2 156.5 246.1 156.5 247.1C156.5 248.1 156.9 249 157.6 249.7C158.3 250.4 159.2 250.9 160.2 251.3C161.2 251.7 162.2 252.1 163.3 252.6C164.3 253.1 165.2 253.7 165.9 254.6C166.6 255.5 167 256.5 167 257.8C167 259.6 166.4 261 165.1 262.1C163.8 263.2 162.3 263.7 160.4 263.7C159.5 263.7 158.5 263.5 157.5 263.2C156.5 262.9 155.9 262.7 155.7 262.7C155.1 262.7 154.8 263 154.7 263.7H154.3L154 256.3H154.5C155.1 260.9 157.2 263.1 160.8 263.1Z" fill="white"/>
<path d="M317.403 105.069C320.512 105.069 322.171 106.124 322.171 108.339C322.171 108.972 321.963 109.5 321.549 109.922C321.134 110.344 320.72 110.555 320.098 110.555C319.58 110.555 319.165 110.45 318.75 110.133C318.439 109.817 318.232 109.395 318.232 108.972C318.232 108.445 318.336 108.128 318.647 107.812C318.958 107.495 319.269 107.284 319.787 107.284C320.512 107.284 320.927 107.601 321.031 108.128C321.031 108.339 321.134 108.445 321.342 108.445C321.549 108.445 321.653 108.339 321.653 108.128C321.653 107.495 321.342 106.968 320.823 106.546C320.305 106.018 319.372 105.807 318.232 105.807C317.092 105.807 316.159 106.018 315.33 106.44C314.604 106.862 314.19 107.495 314.19 108.339C314.19 109.078 314.501 109.711 315.123 110.239C315.745 110.766 316.47 111.083 317.299 111.399C318.129 111.716 318.958 112.032 319.891 112.454C320.72 112.771 321.445 113.298 322.067 113.931C322.689 114.564 323 115.408 323 116.252C323 117.835 322.482 118.995 321.342 119.839C320.201 120.578 318.854 121 317.196 121C315.537 121 314.19 120.683 313.257 120.156C312.221 119.523 311.806 118.679 311.806 117.518C311.806 116.885 312.013 116.358 312.428 115.936C312.842 115.514 313.361 115.303 313.879 115.303C314.397 115.303 314.915 115.514 315.226 115.83C315.537 116.147 315.745 116.569 315.745 116.991C315.745 117.413 315.641 117.835 315.33 118.151C315.019 118.468 314.708 118.573 314.294 118.573C313.568 118.573 313.153 118.257 313.05 117.729C313.05 117.518 312.946 117.413 312.739 117.413C312.531 117.413 312.531 117.518 312.531 117.729C312.531 118.362 312.842 118.995 313.568 119.523C314.293 120.05 315.33 120.367 316.677 120.367C319.683 120.367 321.134 119.417 321.134 117.413C321.134 116.147 320.098 115.197 318.025 114.459C317.196 114.142 316.263 113.826 315.434 113.509C314.604 113.193 313.879 112.665 313.257 112.032C312.635 111.399 312.324 110.555 312.324 109.711C312.324 108.339 312.842 107.284 313.879 106.546C314.708 105.491 315.952 105.069 317.403 105.069ZM297.813 112.982V114.142C297.813 115.83 298.124 117.202 298.746 118.362C299.368 119.523 300.301 120.05 301.648 120.05C303.099 120.05 303.929 119.206 304.343 117.624C304.654 116.252 304.758 114.986 304.758 113.615C304.758 112.243 304.758 111.294 304.654 110.555C304.551 109.817 304.447 109.183 304.24 108.445C304.032 107.706 303.721 107.073 303.203 106.651C302.789 106.229 302.167 106.018 301.545 106.018C300.923 106.018 300.301 106.229 299.783 106.757C299.264 107.179 298.85 107.812 298.643 108.55C298.124 110.028 297.813 111.505 297.813 112.982ZM297.917 108.55H298.124C298.539 107.495 299.057 106.651 299.783 106.018C300.508 105.385 301.441 105.069 302.374 105.069C304.24 105.069 305.587 105.807 306.52 107.284C307.453 108.761 307.867 110.661 307.867 112.876C307.867 115.092 307.349 117.096 306.416 118.573C305.483 120.05 304.032 120.789 302.167 120.789C300.197 120.789 298.85 119.945 298.021 118.151H297.813V120.156H292.942V119.734H295.015V98.844H292.838V98.422H293.46C295.119 98.422 296.466 98.3165 297.813 98V108.55H297.917ZM286.412 114.986V112.876C286.205 112.876 285.894 112.876 285.376 112.876C284.961 112.876 284.443 112.876 283.821 112.982C283.199 113.087 282.577 113.193 281.955 113.509C280.608 114.037 279.986 115.092 279.986 116.78C279.986 117.835 280.193 118.573 280.711 119.206C281.23 119.839 281.955 120.156 282.992 120.156C284.028 120.156 284.857 119.628 285.479 118.679C286.101 117.624 286.412 116.358 286.412 114.986ZM283.095 105.069C285.583 105.069 287.241 105.596 287.967 106.757C288.796 107.917 289.211 109.817 289.211 112.665V118.257C289.211 119.101 289.418 119.523 289.729 119.523C290.454 119.523 290.973 118.257 291.284 115.83L291.802 115.936C291.491 119.206 290.454 120.789 288.692 120.789C288.174 120.789 287.759 120.578 287.449 120.261C287.138 119.839 287.034 119.417 286.93 118.995C286.827 118.573 286.827 117.94 286.827 117.307H286.619C286.308 118.468 285.79 119.312 284.961 119.945C284.132 120.578 283.095 120.895 281.748 120.895C280.504 120.895 279.364 120.578 278.327 119.839C277.395 119.101 276.876 118.151 276.876 116.78C276.876 115.83 277.187 114.986 277.706 114.353C278.846 112.982 281.541 112.349 285.583 112.349C285.79 112.349 285.997 112.349 286.308 112.349V110.766C286.308 109.078 285.998 107.812 285.479 106.968C284.961 106.124 283.925 105.702 282.577 105.702C281.23 105.702 280.193 106.018 279.571 106.546C278.949 107.073 278.638 107.706 278.638 108.339C278.638 108.55 278.742 108.656 278.846 108.656C279.053 108.656 279.157 108.55 279.157 108.339C279.26 107.812 279.675 107.495 280.4 107.495C280.815 107.495 281.23 107.706 281.437 108.023C281.748 108.339 281.852 108.761 281.852 109.183C281.852 109.606 281.644 110.028 281.333 110.344C281.022 110.661 280.504 110.872 279.986 110.872C279.468 110.872 278.949 110.661 278.535 110.239C278.12 109.817 277.913 109.289 277.913 108.656C277.913 107.495 278.431 106.546 279.364 106.018C280.504 105.385 281.644 105.069 283.095 105.069ZM272.627 119.734H274.7V120.156H267.859V119.734H269.932V98.844H267.652V98.422H268.274C269.932 98.422 271.279 98.3165 272.627 98V119.734ZM253.867 108.023C253.867 107.073 254.177 106.335 254.903 105.807C255.629 105.28 256.354 105.069 257.183 105.069C258.116 105.069 259.153 105.174 260.396 105.385C261.64 105.596 262.573 105.702 263.298 105.702C264.024 105.702 264.646 105.596 265.268 105.491L265.371 105.702L256.769 119.734C259.36 120.156 261.018 120.367 261.951 120.367C262.884 120.367 263.609 120.156 264.335 119.839C265.061 119.417 265.371 118.784 265.371 117.94C265.371 117.729 265.268 117.624 265.061 117.624C264.853 117.624 264.853 117.729 264.75 117.94C264.646 118.468 264.231 118.784 263.506 118.784C263.091 118.784 262.677 118.573 262.469 118.257C262.158 117.94 262.055 117.518 262.055 117.096C262.055 116.569 262.262 116.252 262.573 115.936C262.884 115.619 263.402 115.408 263.92 115.408C264.439 115.408 264.957 115.619 265.371 116.041C265.786 116.463 265.993 116.991 265.993 117.624C265.993 118.784 265.579 119.523 264.853 120.05C264.128 120.578 263.195 120.895 262.158 120.895C261.122 120.895 259.982 120.789 258.634 120.578C257.287 120.367 256.147 120.261 255.525 120.261C254.903 120.261 254.177 120.367 253.556 120.472L253.452 120.261L262.055 106.229C259.463 105.807 257.909 105.596 257.287 105.596C256.665 105.596 256.043 105.807 255.421 106.124C254.903 106.44 254.592 106.968 254.592 107.706C254.592 107.917 254.696 108.023 254.799 108.023C255.007 108.023 255.11 107.917 255.11 107.706C255.214 107.179 255.628 106.862 256.354 106.862C256.769 106.862 257.183 107.073 257.391 107.39C257.701 107.706 257.805 108.128 257.805 108.55C257.805 108.972 257.598 109.394 257.287 109.711C256.976 110.028 256.458 110.239 255.939 110.239C255.421 110.239 254.903 110.028 254.488 109.606C254.074 109.183 253.867 108.656 253.867 108.023ZM246.3 102.22C245.989 101.904 245.782 101.376 245.782 100.849C245.782 100.321 245.989 99.8991 246.3 99.4771C246.611 99.1606 247.129 98.9496 247.648 98.9496C248.166 98.9496 248.58 99.1606 248.995 99.4771C249.306 99.7936 249.513 100.321 249.513 100.849C249.513 101.376 249.306 101.798 248.995 102.22C248.684 102.537 248.166 102.748 247.648 102.748C247.129 102.748 246.715 102.537 246.3 102.22ZM249.099 119.734H251.172V120.156H244.331V119.734H246.404V106.124H244.227V105.596H244.849C246.507 105.596 247.959 105.491 249.202 105.174V119.734H249.099ZM232.826 119.734V120.156H225.985V119.734H228.058V98.844H225.881V98.422H226.503C228.162 98.422 229.613 98.3165 230.857 98V108.445H231.064C231.375 107.39 231.997 106.651 232.826 106.018C233.655 105.385 234.588 105.069 235.624 105.069C237.386 105.069 238.63 105.596 239.356 106.757C239.978 107.812 240.392 109.5 240.392 111.61V119.839H242.465V120.261H235.521V119.839H237.594V112.032C237.594 109.606 237.386 108.023 237.075 107.284C236.868 106.968 236.661 106.651 236.246 106.335C235.935 106.018 235.417 105.913 234.795 105.913C234.173 105.913 233.551 106.124 232.93 106.651C232.308 107.179 231.893 107.812 231.582 108.656C231.064 110.133 230.753 111.927 230.753 114.037V119.734H232.826ZM222.876 104.225C223.083 103.697 223.187 103.17 223.187 102.537C223.187 102.009 223.083 101.482 222.876 101.165C222.668 100.849 222.357 100.638 221.839 100.427C221.114 100.216 220.077 100.11 218.937 100.11H218.419V99.5826H227.643V100.11C226.503 100.11 225.674 100.427 225.156 101.06C224.638 101.693 224.119 102.642 223.705 104.014L218.833 118.89C218.73 119.312 218.522 119.734 218.419 119.945C218.108 120.578 217.59 120.789 216.968 120.789H216.864L212.511 106.546L208.469 118.89C208.365 119.312 208.158 119.734 208.054 119.945C207.743 120.578 207.328 120.789 206.603 120.789H206.499L200.177 100.11H198V99.5826H206.085V100.11H203.804L208.469 116.463H208.676L212.2 105.596L210.541 100.11H208.365V99.5826H216.449V100.11H214.169L218.833 116.463H219.041L222.876 104.225Z" fill="white"/>
<path fill-rule="evenodd" clip-rule="evenodd" d="M96.1969 87.8674C96.1969 87.8674 97.0969 81.9674 101.697 69.4674C106.297 56.8674 107.497 43.1674 98.1969 34.2674C98.1969 34.2674 96.997 33.3674 96.297 34.3674C95.697 35.2674 75.8969 61.1674 96.1969 87.8674Z" fill="#605F34"/>
<path fill-rule="evenodd" clip-rule="evenodd" d="M101.3 113.667C101.3 113.667 94.4997 111.467 78.6997 109.867C62.7997 108.167 47.4996 102.067 42.9996 87.6674C42.9996 87.6674 42.6997 85.8674 44.0997 85.6674C45.4997 85.3674 83.3997 77.8674 101.3 113.667Z" fill="#605F34"/>
<path fill-rule="evenodd" clip-rule="evenodd" d="M75.3995 80.4673C75.3995 80.4673 72.7995 72.8673 70.3995 54.6673C67.9995 36.5673 60.6995 19.1673 43.8995 14.3673C43.8995 14.3673 41.8995 14.1673 41.5995 15.6673C41.2995 17.2673 33.9995 61.0673 75.3995 80.4673Z" fill="#93934E"/>
<path fill-rule="evenodd" clip-rule="evenodd" d="M59.399 75.0673C59.399 75.0673 58.899 74.4673 58.299 72.8673C57.699 71.2673 56.299 69.9673 53.799 70.8673C53.799 70.8673 53.499 70.9673 53.499 71.1673C53.399 71.3673 52.899 76.3673 59.399 75.0673Z" fill="#605F34"/>
<path fill-rule="evenodd" clip-rule="evenodd" d="M45.2997 78.8676C45.2997 78.8676 44.6997 78.3676 43.7997 76.8676C42.8997 75.3676 41.2996 74.4676 38.9996 75.7676C38.9996 75.7676 38.6997 75.9676 38.7997 76.1676C38.5997 76.3676 39.0997 81.3676 45.2997 78.8676Z" fill="#93934E"/>
<path fill-rule="evenodd" clip-rule="evenodd" d="M55.5983 75.9673C55.5983 75.9673 55.3983 76.6673 55.3983 78.4673C55.4983 80.2673 54.6983 81.8673 52.0983 82.1673C52.0983 82.1673 51.7983 82.1673 51.6983 82.0673C51.5983 81.8673 49.1983 77.4673 55.5983 75.9673Z" fill="#93934E"/>
<path fill-rule="evenodd" clip-rule="evenodd" d="M35.0992 78.6675C35.0992 78.6675 34.3993 79.0675 33.2993 80.3675C32.1993 81.6675 30.4992 82.3675 28.3992 80.7675C28.3992 80.7675 28.1992 80.5675 28.1992 80.3675C28.1992 80.2675 29.3992 75.3675 35.0992 78.6675Z" fill="#93934E"/>
<path fill-rule="evenodd" clip-rule="evenodd" d="M30.1969 76.4671C29.9969 76.3671 29.9969 76.0671 30.0969 75.8671C30.1969 75.6671 30.4969 75.6671 30.6969 75.7671C38.1969 81.3671 45.1969 78.9671 51.6969 76.7671C56.9969 74.9671 62.0969 73.2671 66.9969 75.7671C67.1969 75.8671 67.2969 76.1671 67.1969 76.2671C67.0969 76.4671 66.7969 76.5671 66.5969 76.4671C61.9969 74.0671 57.0969 75.7671 51.8969 77.4671C45.1969 79.8671 37.9969 82.3671 30.1969 76.4671Z" fill="#605F34"/>
<path fill-rule="evenodd" clip-rule="evenodd" d="M65.2998 75.5676C65.2998 75.5676 64.9998 74.8676 64.7998 73.1676C64.6998 71.3676 63.6997 69.8676 60.9997 69.9676C60.9997 69.9676 60.6998 70.0676 60.5998 70.1676C60.5998 70.3676 58.7998 74.9676 65.2998 75.5676Z" fill="#93934E"/>
<path fill-rule="evenodd" clip-rule="evenodd" d="M52.497 76.9672C52.497 76.9672 51.897 76.4672 50.997 74.9672C50.097 73.4672 48.597 72.4671 46.197 73.6671C46.197 73.6671 45.897 73.8672 45.997 74.0672C45.997 74.2672 46.297 79.2672 52.497 76.9672Z" fill="#605F34"/>
<path fill-rule="evenodd" clip-rule="evenodd" d="M36.7981 79.0672C36.7981 79.0672 36.498 78.3672 36.398 76.6672C36.298 74.8672 35.398 73.3672 32.698 73.3672C32.698 73.3672 32.3981 73.4672 32.2981 73.5672C32.2981 73.5672 30.1981 78.1672 36.7981 79.0672Z" fill="#605F34"/>
<path fill-rule="evenodd" clip-rule="evenodd" d="M30.8996 76.6673C30.8996 76.6673 30.5996 75.9673 30.4996 74.2673C30.3996 72.4673 29.4996 70.9673 26.7996 70.9673C26.7996 70.9673 26.4996 71.0673 26.3996 71.1673C26.3996 71.2673 24.3996 75.9673 30.8996 76.6673Z" fill="#605F34"/>
<path fill-rule="evenodd" clip-rule="evenodd" d="M61.5967 75.0674C61.5967 75.0674 61.2967 75.7674 61.0967 77.4674C60.8967 79.2674 59.9967 80.7674 57.2967 80.6674C57.2967 80.6674 56.8966 80.5674 56.8966 80.4674C56.8966 80.2674 55.0967 75.5674 61.5967 75.0674Z" fill="#605F34"/>
<path fill-rule="evenodd" clip-rule="evenodd" d="M48.7975 78.3672C48.7975 78.3672 48.5975 79.0672 48.5975 80.8672C48.5975 82.6672 47.8975 84.2672 45.2975 84.5672C45.2975 84.5672 44.9975 84.5672 44.8975 84.4672C44.7975 84.1672 42.3975 79.7672 48.7975 78.3672Z" fill="#605F34"/>
<path fill-rule="evenodd" clip-rule="evenodd" d="M41.298 79.8674C41.298 79.8674 40.7979 80.4674 40.1979 82.0674C39.5979 83.7674 38.1979 84.9674 35.6979 84.1674C35.6979 84.1674 35.398 83.9674 35.298 83.8674C35.298 83.6674 34.798 78.6674 41.298 79.8674Z" fill="#605F34"/>
<path fill-rule="evenodd" clip-rule="evenodd" d="M20.2 18.5672C20.1 17.8672 19.5 17.3672 18.7 17.3672C18 17.4672 17.5 18.0672 17.5 18.8672C21.2 46.7672 40.5 59.2672 59.6 71.7672C76.8 82.9672 93.7 93.8672 97.6 115.767C97.7 116.467 98.4 116.967 99.1 116.867C99.6 116.767 100 116.367 100.1 115.867C104.8 100.467 96.6001 86.4672 88.3 72.5672C78.7001 56.3672 69.2 40.1672 81.5 22.6672C81.9 22.0672 81.8 21.1672 81.2 20.8672C80.6 20.4672 79.7 20.5672 79.4 21.1672C66.1 40.0672 76.1 56.8672 86.1 73.9672C93 85.5672 99.9 97.3672 98.8 109.667C93 90.4672 77.2 80.0672 61 69.7672C42.6 57.4672 23.7 45.2672 20.2 18.5672Z" fill="#605F34"/>
<path fill-rule="evenodd" clip-rule="evenodd" d="M3.59739 37.3673C-2.10261 30.6673 -0.802627 6.06734 5.89737 2.96734C12.8974 0.46734 30.8973 17.3673 31.4973 26.0673C32.3974 37.9673 11.2974 46.4673 3.59739 37.3673Z" fill="#E1B263"/>
<path fill-rule="evenodd" clip-rule="evenodd" d="M38.2974 23.3675C37.7974 14.6675 19.7974 -2.33255 12.6974 0.267452C5.89741 3.36745 4.59742 27.9674 10.3974 34.6674C17.9974 43.7674 38.9974 35.2675 38.2974 23.3675Z" fill="#E1B263"/>
<path fill-rule="evenodd" clip-rule="evenodd" d="M10.1975 34.6674C5.19745 27.7674 4.09747 4.06737 9.39747 1.56737C14.7975 -0.232629 30.5975 17.5674 31.6975 25.9674C33.1975 37.6674 17.0975 44.1674 10.1975 34.6674Z" fill="#E8C668"/>
<path fill-rule="evenodd" clip-rule="evenodd" d="M96.2994 12.9673C92.8994 10.3673 87.9994 11.0673 85.3994 14.4673C82.7994 17.8673 83.4994 22.7673 86.8994 25.3673C90.2994 27.9673 95.1994 27.2673 97.7994 23.8673C100.399 20.3673 99.5994 15.5673 96.2994 12.9673Z" fill="#E8C668"/>
<path fill-rule="evenodd" clip-rule="evenodd" d="M81.8984 31.6674C95.1984 36.7674 99.1985 27.8674 97.5984 22.9674C95.9984 18.4674 89.9984 17.0674 81.8984 31.6674Z" fill="#E1B263"/>
<path fill-rule="evenodd" clip-rule="evenodd" d="M81.9965 31.6675C73.1965 19.8675 81.1965 13.5675 86.4965 14.2675C90.9965 14.7675 93.4965 20.3675 81.9965 31.6675Z" fill="#E1B263"/>
</svg>
