<svg width="95" height="90" viewBox="0 0 95 90" fill="none" xmlns="http://www.w3.org/2000/svg">
<mask id="mask0" style="mask-type:alpha" maskUnits="userSpaceOnUse" x="0" y="0" width="95" height="90">
<path d="M0 0H95V90H0V0Z" fill="#F9E5E4"/>
</mask>
<g mask="url(#mask0)">
<path d="M0 0H95V90H0V0Z" fill="#F9E5E4"/>
<path d="M-0.5 0H95L3.5 90H-0.5V0Z" fill="url(#paint0_linear)"/>
<path d="M62.1998 0H94.7998V32.4L88.9998 32.2V9.6L7.9998 90H0.299805L85.1998 5.8H62.3998L62.1998 0Z" fill="url(#paint1_linear)"/>
<path d="M59.9 45.5H81.5V67L77.7 66.9V51.9L39.1 90H34L75.1 49.3H60L59.9 45.5Z" fill="url(#paint2_linear)"/>
</g>
<defs>
<linearGradient id="paint0_linear" x1="47.25" y1="-0.0014" x2="47.25" y2="89.9987" gradientUnits="userSpaceOnUse">
<stop stop-color="#DB4239"/>
<stop offset="1" stop-color="#DB4239"/>
</linearGradient>
<linearGradient id="paint1_linear" x1="85.7369" y1="-5.2425" x2="23.4801" y2="103.267" gradientUnits="userSpaceOnUse">
<stop stop-color="#FFA030"/>
<stop offset="1" stop-color="#DB4239"/>
</linearGradient>
<linearGradient id="paint2_linear" x1="77.8673" y1="43.4144" x2="46.8927" y2="97.4011" gradientUnits="userSpaceOnUse">
<stop stop-color="#FFA030"/>
<stop offset="1" stop-color="#DB4239"/>
</linearGradient>
</defs>
</svg>
