<svg xmlns="http://www.w3.org/2000/svg" width="22.335" height="21.135" viewBox="0 0 22.335 21.135">
  <path id="Shape_36_copy_5" data-name="Shape 36 copy 5" d="M390.038,1492.309c.083-.493.179-1.076.279-1.656.288-1.656.58-3.311.859-4.969a.391.391,0,0,0-.116-.286c-.842-.823-1.692-1.637-2.539-2.455q-1.1-1.06-2.2-2.123a1.163,1.163,0,0,1-.166-.206c-.307-.464-.164-.886.381-1,.562-.12,1.137-.185,1.707-.267q2.173-.314,4.346-.62a1.714,1.714,0,0,1,.369-.046c.432.034.6-.232.766-.571.884-1.805,1.788-3.6,2.688-5.4a2.632,2.632,0,0,1,.269-.454.562.562,0,0,1,.932-.02,1.87,1.87,0,0,1,.257.4q1.419,2.853,2.826,5.711a.5.5,0,0,0,.438.307c1.459.2,2.916.411,4.373.617l2,.283a.972.972,0,0,1,.106.01c.288.072.591.138.689.466a.737.737,0,0,1-.286.753c-1.475,1.428-2.947,2.862-4.439,4.274a1.022,1.022,0,0,0-.4,1.072c.389,2,.709,4,1.054,6.007a1.75,1.75,0,0,1,.03.209c.033.667-.417.968-1.018.666-.626-.313-1.243-.641-1.863-.966q-2.014-1.052-4.024-2.108a.411.411,0,0,0-.435,0q-2.867,1.512-5.741,3.011c-.063.033-.124.069-.189.1C390.426,1493.286,390.029,1493.019,390.038,1492.309Z" transform="translate(-386 -1471.997)" fill="#ffb42c"/>
</svg>
