<svg xmlns="http://www.w3.org/2000/svg" xmlns:xlink="http://www.w3.org/1999/xlink" width="14.006" height="13.249" viewBox="0 0 14.006 13.249">
  <defs>
    <clipPath id="clip-path">
      <path id="Shape_36_copy_5" data-name="Shape 36 copy 5" d="M388.531,1484.729c.052-.309.112-.674.175-1.038.18-1.038.364-2.075.539-3.115a.245.245,0,0,0-.073-.18c-.528-.516-1.06-1.026-1.591-1.539q-.689-.665-1.377-1.331a.734.734,0,0,1-.1-.129c-.193-.291-.1-.556.239-.629s.713-.116,1.07-.167q1.362-.2,2.724-.389a1.077,1.077,0,0,1,.231-.029c.271.021.376-.145.48-.358.554-1.132,1.121-2.257,1.685-3.384a1.648,1.648,0,0,1,.169-.284.352.352,0,0,1,.584-.013,1.169,1.169,0,0,1,.161.25q.89,1.788,1.772,3.58a.314.314,0,0,0,.274.192c.914.126,1.828.257,2.741.387l1.255.177a.592.592,0,0,1,.066.007c.18.045.371.087.432.292a.462.462,0,0,1-.179.472c-.925.9-1.847,1.794-2.782,2.679a.641.641,0,0,0-.248.672c.244,1.251.444,2.51.661,3.765a1.1,1.1,0,0,1,.019.131c.021.418-.261.606-.638.418-.392-.2-.779-.4-1.168-.605q-1.262-.66-2.523-1.321a.258.258,0,0,0-.273,0q-1.8.947-3.6,1.888c-.039.021-.078.043-.119.061C388.774,1485.342,388.525,1485.174,388.531,1484.729Z" transform="translate(393 -938.997)" fill="#d8dbdd"/>
    </clipPath>
  </defs>
  <g id="Group_3275" data-name="Group 3275" transform="translate(-1468.719 -559)">
    <path id="Shape_36_copy_5-2" data-name="Shape 36 copy 5" d="M388.531,1484.729c.052-.309.112-.674.175-1.038.18-1.038.364-2.075.539-3.115a.245.245,0,0,0-.073-.18c-.528-.516-1.06-1.026-1.591-1.539q-.689-.665-1.377-1.331a.734.734,0,0,1-.1-.129c-.193-.291-.1-.556.239-.629s.713-.116,1.07-.167q1.362-.2,2.724-.389a1.077,1.077,0,0,1,.231-.029c.271.021.376-.145.48-.358.554-1.132,1.121-2.257,1.685-3.384a1.648,1.648,0,0,1,.169-.284.352.352,0,0,1,.584-.013,1.169,1.169,0,0,1,.161.25q.89,1.788,1.772,3.58a.314.314,0,0,0,.274.192c.914.126,1.828.257,2.741.387l1.255.177a.592.592,0,0,1,.066.007c.18.045.371.087.432.292a.462.462,0,0,1-.179.472c-.925.9-1.847,1.794-2.782,2.679a.641.641,0,0,0-.248.672c.244,1.251.444,2.51.661,3.765a1.1,1.1,0,0,1,.019.131c.021.418-.261.606-.638.418-.392-.2-.779-.4-1.168-.605q-1.262-.66-2.523-1.321a.258.258,0,0,0-.273,0q-1.8.947-3.6,1.888c-.039.021-.078.043-.119.061C388.774,1485.342,388.525,1485.174,388.531,1484.729Z" transform="translate(1082.725 -912.996)" fill="#ffb42c"/>
    <g id="Group_3274" data-name="Group 3274" transform="translate(71)">
      <g id="Mask_Group_13" data-name="Mask Group 13" transform="translate(618.719 26)" clip-path="url(#clip-path)">
        <rect id="Rectangle_1379" data-name="Rectangle 1379" width="7" height="13.25" transform="translate(786 533)" fill="#d8dbdd"/>
      </g>
    </g>
  </g>
</svg>
