<svg xmlns="http://www.w3.org/2000/svg" width="50" height="50" viewBox="0 0 50 50">
  <g id="Group_2919" data-name="Group 2919" transform="translate(-1370 -2046)">
    <circle id="Ellipse_1249" data-name="Ellipse 1249" cx="25" cy="25" r="25" transform="translate(1370 2046)" fill="#e94b35" opacity="0.2"/>
    <path id="Path_2838" data-name="Path 2838" d="M-622.928-262.129c-.351.934-.665,1.767-.975,2.6-.373,1-.527,1.054-1.427.455-.734-.489-1.475-.969-2.2-1.473a.509.509,0,0,0-.6-.042c-1.159.593-2.327,1.167-3.489,1.753-.258.13-.511.241-.765.011s-.183-.515-.067-.8q1.719-4.173,3.433-8.348c.208-.505.145-.668-.366-.862-.356-.135-.727-.231-1.078-.377a1.446,1.446,0,0,1-.973-1.757,8.8,8.8,0,0,1,.194-1.006.929.929,0,0,0-.276-.932c-.211-.235-.433-.462-.629-.709a1.53,1.53,0,0,1,.035-2.148,4.372,4.372,0,0,1,.471-.532,1.168,1.168,0,0,0,.346-1.352,6.044,6.044,0,0,1-.165-.851,1.35,1.35,0,0,1,.737-1.484,9.924,9.924,0,0,1,1.25-.47.966.966,0,0,0,.688-.69,8.529,8.529,0,0,1,.326-.97,1.409,1.409,0,0,1,1.82-.983,2.256,2.256,0,0,0,2.567-.676,1.46,1.46,0,0,1,2.193-.006,6.6,6.6,0,0,1,.617.554,1.038,1.038,0,0,0,1.082.291c.269-.063.537-.129.808-.18a1.5,1.5,0,0,1,1.838.98,8.282,8.282,0,0,1,.313.932,1.028,1.028,0,0,0,.766.764,7.52,7.52,0,0,1,1.073.384,1.391,1.391,0,0,1,.851,1.607,10.73,10.73,0,0,1-.212,1.122.863.863,0,0,0,.253.861c.221.244.449.483.655.739a1.524,1.524,0,0,1,.017,2.087,4.96,4.96,0,0,1-.522.592,1.174,1.174,0,0,0-.361,1.316,5.922,5.922,0,0,1,.172.849,1.383,1.383,0,0,1-.826,1.585c-.4.188-.839.3-1.255.463-.5.194-.564.354-.367.833l3.424,8.311c.025.061.078.124.073.181a1.538,1.538,0,0,1-.111.652c-.158.244-.435.186-.678.065-1.164-.582-2.335-1.152-3.489-1.755a.641.641,0,0,0-.775.043c-.785.554-1.593,1.076-2.4,1.605-.534.352-.834.251-1.04-.354C-622.28-260.167-622.583-261.091-622.928-262.129Zm-7.163-14.837a6.635,6.635,0,0,1-.39.922,5.239,5.239,0,0,1-.611.721c-.549.63-.547.732.022,1.348a.711.711,0,0,0,.056.056,2.327,2.327,0,0,1,.723,2.635c-.264.91-.184,1.041.742,1.266a2.381,2.381,0,0,1,1.906,1.866c.266,1.023.311,1.039,1.339.769a2.355,2.355,0,0,1,2.514.676c.714.75.873.749,1.588.01a2.323,2.323,0,0,1,2.432-.7c1.123.284,1.163.259,1.466-.853a2.269,2.269,0,0,1,1.706-1.718c1.068-.305,1.191-.243.861-1.5a2.2,2.2,0,0,1,.675-2.362,5.773,5.773,0,0,0,.417-.473.5.5,0,0,0-.015-.74c-.219-.246-.435-.494-.659-.736a1.889,1.889,0,0,1-.466-1.793c.065-.3.125-.592.188-.887a.546.546,0,0,0-.424-.719c-.277-.083-.552-.174-.828-.259a1.912,1.912,0,0,1-1.36-1.359c-.081-.277-.18-.549-.266-.825a.532.532,0,0,0-.711-.427c-.229.057-.467.08-.694.144a2.032,2.032,0,0,1-2.162-.582c-.182-.189-.391-.352-.591-.523a.494.494,0,0,0-.712,0c-.25.215-.5.434-.74.654a1.829,1.829,0,0,1-1.741.5c-.293-.071-.591-.128-.889-.175-.547-.086-.7-.038-.808.482a2.735,2.735,0,0,1-2.319,2.351c-.606.125-.647.3-.51.925C-630.266-277.877-630.193-277.477-630.091-276.965Zm7.346,12,1.64,4.91c.855-.569,1.659-1.092,2.449-1.636a.779.779,0,0,1,.882-.051c.8.41,1.6.805,2.4,1.2.1.048.2.079.376.147l-2.686-6.523a1.452,1.452,0,0,1-1.635.7,4.4,4.4,0,0,1-.81-.167,1.144,1.144,0,0,0-1.214.335C-621.756-265.67-622.225-265.358-622.746-264.962Zm-5.563-1.934L-631-260.363c.211-.1.327-.145.439-.2.766-.381,1.537-.751,2.294-1.149a.847.847,0,0,1,.985.056c.784.548,1.589,1.063,2.378,1.586.048-.042.078-.056.086-.077.3-.786.546-1.6.9-2.352a2.852,2.852,0,0,0,.049-2.477,1.849,1.849,0,0,0-2.325-1.32C-626.969-266.132-627.745-266.03-628.308-266.9Z" transform="translate(2018.225 2342.474)" fill="#e94b35"/>
    <path id="Path_2839" data-name="Path 2839" d="M-579.521-236.954a6.418,6.418,0,0,1-6.387,6.527,6.434,6.434,0,0,1-6.22-6.577,6.4,6.4,0,0,1,6.367-6.5A6.406,6.406,0,0,1-579.521-236.954Zm-6.328,5.427a5.376,5.376,0,0,0,5.292-5.428,5.388,5.388,0,0,0-5.105-5.455,5.361,5.361,0,0,0-5.429,5.4A5.381,5.381,0,0,0-585.849-231.527Z" transform="translate(1981.057 2305.012)" fill="#e94b35"/>
  </g>
</svg>
