<svg xmlns="http://www.w3.org/2000/svg" width="50" height="50" viewBox="0 0 50 50">
  <g id="Group_2917" data-name="Group 2917" transform="translate(-510 -2046)">
    <circle id="Ellipse_1247" data-name="Ellipse 1247" cx="25" cy="25" r="25" transform="translate(510 2046)" fill="#00bd86" opacity="0.2"/>
    <path id="Path_2840" data-name="Path 2840" d="M-571.935,448.43c1.486,1.483,2.926,2.919,4.365,4.356.583.582.585.958.009,1.536q-1.02,1.023-2.042,2.043c-.607.607-.973.611-1.569.015-1.438-1.438-2.875-2.877-4.353-4.355l-1.578,2.528a1.139,1.139,0,0,1-.23.346,1.972,1.972,0,0,1-.8.444c-.359.037-.609-.25-.727-.609q-.586-1.784-1.177-3.566-1.484-4.495-2.97-8.989c-.131-.4-.235-.786.109-1.128s.74-.233,1.131-.1q6.166,2.04,12.334,4.076c.424.139.8.312.839.809.037.448-.269.689-.617.9C-570.106,447.282-571,447.845-571.935,448.43Zm2.918,5.012a2.32,2.32,0,0,1-.439-.275q-2.118-2.1-4.22-4.216a.829.829,0,0,1,.151-1.43c.271-.18.55-.349.826-.521l1.426-.889-9.786-3.225,3.226,9.784c.5-.8.924-1.5,1.365-2.189s.939-.729,1.516-.153q2.094,2.091,4.186,4.184c.116.116.237.226.339.324Z" transform="translate(1114.904 1626.942)" fill="#00bd86"/>
    <path id="Path_2841" data-name="Path 2841" d="M-681.774,442.624c-.574,0-1.148.013-1.721,0-.6-.017-.961-.357-.949-.853.012-.462.39-.768.977-.771q1.721-.007,3.443,0c.605,0,.962.315.964.828,0,.478-.338.779-.947.8C-680.6,442.637-681.185,442.624-681.774,442.624Z" transform="translate(1206.672 1626.726)" fill="#00bd86"/>
    <path id="Path_2842" data-name="Path 2842" d="M-653.094,368.135a4.419,4.419,0,0,1,.732.457c.834.809,1.65,1.638,2.469,2.463a.862.862,0,0,1,.086,1.238.8.8,0,0,1-1.167-.037c-.9-.874-1.8-1.753-2.645-2.68a1.062,1.062,0,0,1-.108-.886C-653.656,368.468-653.329,368.328-653.094,368.135Z" transform="translate(1178.863 1692.749)" fill="#00bd86"/>
    <path id="Path_2843" data-name="Path 2843" d="M-537.759,373.542c-.21-.17-.522-.3-.614-.53a.916.916,0,0,1,.081-.8c.895-.966,1.832-1.9,2.778-2.812a.759.759,0,0,1,1.091.043.744.744,0,0,1,.043,1.053c-.912.951-1.851,1.876-2.794,2.8A2.078,2.078,0,0,1-537.759,373.542Z" transform="translate(1074.336 1691.796)" fill="#00bd86"/>
    <path id="Path_2844" data-name="Path 2844" d="M-650.68,483.659a2.966,2.966,0,0,1,.681.506.681.681,0,0,1-.094.9q-1.342,1.385-2.727,2.728a.812.812,0,0,1-1.167-.054.788.788,0,0,1,.063-1.091q1.3-1.327,2.63-2.629A3.262,3.262,0,0,1-650.68,483.659Z" transform="translate(1179.227 1588.062)" fill="#00bd86"/>
    <path id="Path_2845" data-name="Path 2845" d="M-580.821,342.363c0,.573.006,1.147,0,1.72a.855.855,0,0,1-.819.934.8.8,0,0,1-.792-.894q-.018-1.813,0-3.626a.79.79,0,0,1,.824-.86.816.816,0,0,1,.784.868C-580.808,341.123-580.821,341.743-580.821,342.363Z" transform="translate(1114.223 1718.591)" fill="#00bd86"/>
  </g>
</svg>
