<svg xmlns="http://www.w3.org/2000/svg" width="50" height="50" viewBox="0 0 50 50">
  <g id="Group_2918" data-name="Group 2918" transform="translate(-940 -2046)">
    <circle id="Ellipse_1248" data-name="Ellipse 1248" cx="25" cy="25" r="25" transform="translate(940 2046)" fill="#ffa900" opacity="0.2"/>
    <path id="Shape_56" data-name="Shape 56" d="M523.436,808.081A2.257,2.257,0,0,1,521,805.627q0-9.134,0-18.268A2.229,2.229,0,0,1,523.32,785q7.677-.007,15.355,0a2.229,2.229,0,0,1,2.255,2.294c.006.91,0,1.821,0,2.732l.08.038c.271-.277.539-.557.815-.83a.949.949,0,0,1,1.513-.006q.653.653,1.3,1.314a.965.965,0,0,1-.006,1.508c-1.156,1.169-2.322,2.329-3.471,3.507a.833.833,0,0,0-.219.522c-.013,3.028-.007,6.055-.012,9.083a5.474,5.474,0,0,1-.07,1.172,2.19,2.19,0,0,1-2.334,1.746q-4.89,0-9.78,0h-5.307Zm-.077-21.987a1.155,1.155,0,0,0-1.281,1.289q0,9.167,0,18.334a1.142,1.142,0,0,0,1.239,1.259H538.6a1.119,1.119,0,0,0,1.233-1.251q0-3.883,0-7.766v-1.064c-.148.143-.237.224-.321.309q-2.927,2.96-5.857,5.917a1.266,1.266,0,0,1-.618.425,22.1,22.1,0,0,1-2.255.1.446.446,0,0,1-.44-.5c0-.574-.014-1.149.015-1.721a1.329,1.329,0,0,1,.323-.955q4.488-4.508,8.954-9.038a.735.735,0,0,0,.19-.463c.015-1.2.009-2.408.008-3.613a1.129,1.129,0,0,0-1.258-1.264h-15.22Zm16.77,6.437c-2.741,2.766-5.466,5.549-8.234,8.286-.544.537-.415,1.108-.444,1.74a5.186,5.186,0,0,1,.741-.032,1.065,1.065,0,0,0,.918-.41q3.568-3.625,7.159-7.225l1.3-1.308-1.231-1.246C540.289,792.379,540.207,792.452,540.13,792.53Zm1.1-1.072,1.141,1.162,1.314-1.325-1.143-1.168Zm-16.025,12.208a.545.545,0,1,1-.034-1.087q1.65-.016,3.3,0a.531.531,0,0,1,.553.583.526.526,0,0,1-.586.5c-.544,0-1.089,0-1.633,0h-.96Zm2.1-4.389c-.689,0-1.378,0-2.067,0-.385,0-.628-.215-.627-.541a.569.569,0,0,1,.631-.551q2.1-.007,4.2,0a.567.567,0,0,1,.627.554c0,.325-.243.535-.631.536h-2.133Zm-1.965-4.4a.773.773,0,0,1-.494-.127.655.655,0,0,1-.2-.516c.045-.168.25-.308.412-.421a.383.383,0,0,1,.233-.028c.032,0,.064,0,.094,0h8.033c.067,0,.134,0,.2,0a.565.565,0,0,1,.577.536.556.556,0,0,1-.592.553c-.825.005-1.65,0-2.475,0h-3.589Q526.442,794.887,525.341,794.88Zm11.132-4.385H525.427a2.2,2.2,0,0,1-.333-.011.521.521,0,0,1-.472-.492.5.5,0,0,1,.388-.555,1.225,1.225,0,0,1,.362-.035q5.59,0,11.18,0a1.135,1.135,0,0,1,.331.027.505.505,0,0,1,.407.542.517.517,0,0,1-.482.514,1.157,1.157,0,0,1-.176.011Z" transform="translate(434.004 1275.002)" fill="#ffa900"/>
  </g>
</svg>
