<svg xmlns="http://www.w3.org/2000/svg" width="48.248" height="20" viewBox="0 0 48.248 20">
  <g id="Group_2334" data-name="Group 2334" transform="translate(269.574 -687.613)">
    <path id="Path_3305" data-name="Path 3305" d="M310.5,787.689c0,.7,0,1.382,0,2.067,0,.489-.007.978,0,1.466,0,.147-.027.223-.19.256-.987.2-1.973.415-2.958.627-.147.031-.233,0-.212-.17a.978.978,0,0,0,0-.118q0-7.486,0-14.972c0-.3,0-.3.308-.3.813,0,1.627.006,2.44,0,.173,0,.238.059.263.216.031.191.076.38.119.592.19-.14.356-.271.532-.388a3.889,3.889,0,0,1,4.606.264,5.542,5.542,0,0,1,1.881,3.327,8.963,8.963,0,0,1-.362,4.975,4.323,4.323,0,0,1-2.383,2.62,3.779,3.779,0,0,1-3.705-.277c-.092-.06-.186-.118-.279-.177C310.556,787.687,310.547,787.689,310.5,787.689Zm0-5.269h.007c0,.757.006,1.514,0,2.27a.461.461,0,0,0,.2.4,1.91,1.91,0,0,0,2.922-.494,4.406,4.406,0,0,0,.5-2.832,3.638,3.638,0,0,0-.473-1.473,1.9,1.9,0,0,0-3.009-.47.418.418,0,0,0-.141.33C310.5,780.907,310.5,781.664,310.5,782.421Z" transform="translate(-549.35 -84.503)" fill="#6772e5"/>
    <path id="Path_3306" data-name="Path 3306" d="M543.938,783.424c-1.018,0-2.037,0-3.055,0-.177,0-.22.032-.2.219a2.052,2.052,0,0,0,1.9,1.771,7.025,7.025,0,0,0,3.735-.591c.21-.1.213-.019.211.151-.005.733-.008,1.466,0,2.2a.33.33,0,0,1-.21.348,6.937,6.937,0,0,1-2.185.659,7.744,7.744,0,0,1-2.937-.1,4.722,4.722,0,0,1-3.552-3.362,7.922,7.922,0,0,1,.255-5.609,4.781,4.781,0,0,1,2.182-2.437,4.589,4.589,0,0,1,6.258,1.733,7.3,7.3,0,0,1,.844,2.853c.066.654.026,1.307.037,1.96,0,.164-.048.214-.214.213C545.99,783.42,544.964,783.424,543.938,783.424Zm-1.613-2.461c.505,0,1.01-.009,1.515,0,.2.006.238-.064.228-.243a2.463,2.463,0,0,0-.251-1,1.624,1.624,0,0,0-2.809-.182,2.413,2.413,0,0,0-.381,1.224c-.013.169.028.2.182.2C541.314,780.958,541.819,780.963,542.325,780.963Z" transform="translate(-768.558 -84.282)" fill="#6772e5"/>
    <path id="Path_3307" data-name="Path 3307" d="M-269.422,786.129q0-.662,0-1.324c0-.279,0-.273.24-.155a8.075,8.075,0,0,0,3.507.945,1.921,1.921,0,0,0,.74-.135.71.71,0,0,0,.266-1.152,2.128,2.128,0,0,0-.815-.51c-.742-.309-1.522-.524-2.237-.9a3.066,3.066,0,0,1-1.7-1.837,3.532,3.532,0,0,1,2.229-4.407,6.541,6.541,0,0,1,2.746-.342,9.373,9.373,0,0,1,2.537.519.254.254,0,0,1,.208.283q-.014,1.348,0,2.7c0,.192-.031.233-.22.141a7.09,7.09,0,0,0-3.336-.743,1.366,1.366,0,0,0-.529.11.624.624,0,0,0-.2,1.036,2.689,2.689,0,0,0,1.082.561,14.118,14.118,0,0,1,2.125.856,3.037,3.037,0,0,1,1.641,2.141,3.507,3.507,0,0,1-2.378,4.192,7.063,7.063,0,0,1-3.241.3,9.751,9.751,0,0,1-2.489-.629.231.231,0,0,1-.176-.257C-269.417,787.059-269.422,786.594-269.422,786.129Z" transform="translate(0 -84.473)" fill="#6772e5"/>
    <path id="Path_3308" data-name="Path 3308" d="M-70.6,731.995c0,.89,0,1.741,0,2.592,0,.125-.074.158-.164.2a4.369,4.369,0,0,1-1.282.311,5.05,5.05,0,0,1-1.832-.064,3.316,3.316,0,0,1-2.516-2.921c-.023-.236-.031-.471-.031-.707q0-3.619.006-7.238c0-.993.016-1.986.022-2.979,0-.118,0-.2.157-.232.987-.2,1.973-.417,2.957-.633.176-.038.157.07.156.174-.009.8-.008,1.608-.035,2.411-.009.252.073.3.3.292.679-.015,1.358,0,2.037-.01.182,0,.224.053.222.227q-.013,1.206,0,2.413c0,.165-.046.215-.212.213-.7-.008-1.406,0-2.109-.008-.192,0-.24.061-.239.244.006,1.5,0,3,.005,4.494a1.765,1.765,0,0,0,.2.867,1.361,1.361,0,0,0,1.384.57A3.987,3.987,0,0,0-70.6,731.995Z" transform="translate(-183.989 -31.148)" fill="#6772e5"/>
    <path id="Path_3309" data-name="Path 3309" d="M71.5,779.186c.1-.129.168-.232.246-.328a2.275,2.275,0,0,1,2.409-.674.161.161,0,0,1,.139.182q0,1.4,0,2.79c0,.152-.061.133-.174.11a2.425,2.425,0,0,0-1.986.352.864.864,0,0,0-.405.783c.018,2.42.005,4.84.016,7.26,0,.25-.074.3-.3.293-.939-.013-1.879-.01-2.818,0-.185,0-.244-.051-.244-.24q.007-5.628,0-11.256c0-.193.062-.235.242-.233q1.232.013,2.463,0c.154,0,.224.038.25.2C71.376,778.667,71.44,778.91,71.5,779.186Z" transform="translate(-321.921 -86.183)" fill="#6772e5"/>
    <path id="Path_3310" data-name="Path 3310" d="M213.424,786.781c0,1.875,0,3.75.005,5.626,0,.213-.06.262-.265.259-.955-.011-1.91-.009-2.865,0-.182,0-.244-.046-.244-.238q.008-5.637,0-11.275c0-.189.067-.217.233-.216.955.007,1.91.009,2.865,0,.21,0,.278.045.277.268C213.42,783.062,213.424,784.921,213.424,786.781Z" transform="translate(-456.874 -88.894)" fill="#6772e5"/>
    <path id="Path_3311" data-name="Path 3311" d="M213.458,688.97c0,.386,0,.772,0,1.158a.185.185,0,0,1-.177.221c-1,.21-2,.428-3,.647-.145.032-.2-.009-.194-.163q.009-1.181,0-2.363a.178.178,0,0,1,.167-.207c1.017-.21,2.034-.421,3.048-.641.154-.033.153.036.153.143C213.456,688.167,213.458,688.569,213.458,688.97Z" transform="translate(-456.908 0)" fill="#6772e5"/>
  </g>
</svg>
