<svg xmlns="http://www.w3.org/2000/svg" width="1601" height="240" viewBox="0 0 1601 240">
  <path id="Intersection_2" data-name="Intersection 2" d="M1558.165,239a79.554,79.554,0,0,0,22.493-9.637c9.866-6.247,10.255-15.306.844-22.5-15.836-12.038-39.332-19.194-62.763-19.194a103.531,103.531,0,0,0-27.649,3.558c-14.019,3.681-22,10.714-23.107,20.352-.843,8.645,4.349,15.967,15.9,22.379A65.791,65.791,0,0,0,1496.153,239h-5.469a64.9,64.9,0,0,1-8.422-3.846c-11.163-6.081-17.848-13.817-16.875-23.662,1.234-10.714,10.516-18.118,24.665-21.841a110.767,110.767,0,0,1,28.688-3.682c23.884,0,47.965,7.115,64.776,19.856,10.579,8.066,9.281,18.2-1.039,24.737A80.233,80.233,0,0,1,1564.391,239ZM1434.4,239c-6.268-6.975-10.433-14.729-11.589-22.915-2.921-20.269,9.866-39.753,36.867-48.605,24.468-8.066,50.106-11.417,76.327-11.417,10.385,0,20.834.5,31.415,1.448,11.3,1.108,21.9,3.78,32.582,6.318v1.77l-3.766-.89c-9.541-2.275-19.21-4.55-29.141-5.543-10.709-.993-21.159-1.49-31.09-1.49-27.519,0-52.118,3.723-75.159,11.293-24.86,8.149-38.424,26.1-35.5,46.95,1.206,8.409,5.631,16.2,12.112,23.081Zm-35.07,0a73.549,73.549,0,0,1-3.519-7.238c-3.57-8.4-5.322-15.926-5.322-23.041v-4.095c0-7.446,0-15.14,2.272-22.793,4.673-15.843,18.3-27.053,40.434-33.3,12.462-3.6,25.7-5.957,38.424-8.232,3.766-.662,7.529-1.323,11.294-2.027,19.732-3.681,45.692-8.977,70.032-17.539,23.738-8.368,39.274-20.607,47.057-37.29v5.177c-8.437,14.4-23.353,25.72-45.823,33.6-22.457,7.9-46.342,13.154-70.551,17.622-16.552,3.144-33.427,5.626-49.393,10.176-21.29,6.039-34.335,16.629-38.943,32.141-2.661,8.852-2.142,17.7-2.272,26.557,0,7.694,2.142,15.306,5.322,22.628A71.71,71.71,0,0,0,1402.1,239Zm-37.494,0a178.123,178.123,0,0,1-10.16-29.617c-2.336-8.893-4.349-17.787-9.736-26.143-4.218-6.453-11.619-9.969-21.029-9.969a40.217,40.217,0,0,0-5.841.413,67.709,67.709,0,0,0-15.512,4.013c-15.577,5.584-23.431,15.3-29.336,25.936-6.365,11.409-7.854,23.419-9.389,35.367h-2.544l.055-.412c1.428-11.79,3.051-23.992,9.41-35.492,5.453-9.8,13.242-20.6,30.505-26.847a74.609,74.609,0,0,1,16.227-4.178,42.059,42.059,0,0,1,6.425-.5c10.515,0,18.888,3.971,23.432,11.086,5.063,7.818,7.2,16.216,9.346,24.365l.519,2.11c2.545,9.388,5.549,19.624,10.344,29.865Zm-138.761,0q.134-2.377.219-4.756c.454-10.3,1.1-20.642,3.829-30.9,6.037-22.793,22.134-41.531,49.134-55.8,12.267-6.494,25.377-12,38.294-17.746,35.243-15.72,40.37-41.987,32.777-64.531-1.233-3.309-4.154-6.081-7.27-8.687-8.5-6.908-19.99-8.687-32.257-9.845-8.308-.7-16.681-.868-25.118-.868-7.465,0-14.8.166-22.2.166-2.012,0-4.024-.041-6.036-.083a185.948,185.948,0,0,1-27.649-2.275c-36.866-6.205-67.177-19.856-92.879-38.512A73.976,73.976,0,0,1,1127.587,0h3.223q2.457,2.149,5.121,4.084c27.258,19.814,57.181,32.224,91.516,37.974a177.835,177.835,0,0,0,27,2.275h6.036c3.765,0,7.4,0,11.1-.041,3.634-.041,7.334-.083,11.1-.083,6.944,0,16.16.124,25.508.91,11.487,1.075,24.469,2.813,33.88,10.424,3.245,2.689,6.425,5.667,7.789,9.39,4.479,13.361,10.255,46.578-33.815,66.185l-7.076,3.144c-10.383,4.592-21.093,9.266-31.09,14.52-26.025,13.816-42.251,32.224-48.158,54.768-2.791,10.507-3.375,20.932-3.894,30.735-.055,1.543-.119,3.116-.2,4.714ZM1187,239c-.008-1.39-.029-2.852-.05-4.425-.065-2.482-.065-5.17-.065-8.108-1.1-17.167,1.752-32.886,8.633-46.661,8.567-17.043,22.781-33.465,43.486-50.343,7.853-6.37,15.707-12.575,23.56-18.9l2.4-1.944a35.919,35.919,0,0,0,7.076-7.984c5.127-7.818,3.18-11.417-8.7-16.174-4.284-1.7-9.672-2.482-14.409-3.061-29.466-4.178-57.961-11.086-81.975-17.291-21.353-5.46-39.267-9.6-59.258-9.6v-1.7c21.289,0,40.76,4.757,60.232,9.762,26.676,6.867,53.545,13.237,81.585,17.209,5.193.661,10.645,1.448,15.188,3.226,13.37,5.378,15.123,10.093,9.735,18.284a36.859,36.859,0,0,1-7.4,8.315c-8.633,6.949-17.329,13.9-26.027,20.931-18.368,14.933-33.685,31.149-43.032,49.764-7.853,15.926-9.411,32.389-8.568,46.123,0,4.928.122,8.951.161,12.574Zm-71.483,0c-.094-9.134.252-18.279-.611-27.466-1.948-18.78-1.493-37.6-1.493-56.382a125.305,125.305,0,0,0-4.35-30.115c-3.049-12.368-8.89-24.2-13.37-36.361-3.115-8.314-7.789-16.381-7.2-25.274.389-6.494,5.97-10.259,15.641-10.507,1.168-.083,2.4-.083,3.57-.083v1.7h-3.44c-10.386.29-12.981,5.005-13.177,8.976-.389,6.537,2.143,12.493,4.8,18.9.778,1.985,1.623,3.93,2.336,5.874,1.427,4.136,3.115,8.19,4.739,12.2,3.308,7.9,6.62,16.008,8.7,24.323,2.921,11.623,4.283,21.3,4.348,30.362v8.935c-.129,15.553-.129,31.6,1.494,47.323a198.74,198.74,0,0,1,.649,20.517c-.025,2.329-.04,4.694-.024,7.072Zm-38.481,0a382.94,382.94,0,0,0-9.965-42.234c-3.115-10.8-4.674-22.006-6.166-32.844l-.649-4.468c-2.985-21.1-12.916-37.808-30.441-51.294-5.842-4.467-12.267-8.563-18.627-12.616-3.894-2.482-7.853-5.047-11.748-7.653-13.825-9.473-23.107-20.6-28.3-34.045-1.752-4.343-3.44-8.811-5.062-13.237-2.336-6.37-4.738-12.989-7.594-19.483A229.313,229.313,0,0,0,947.769,0h2.761a228.264,228.264,0,0,1,10.483,20.713c4.673,10.838,8.243,21.841,12.592,32.762,5,12.823,13.955,23.868,27.779,33.258,10.06,6.866,20.965,13.2,30.44,20.352,19.537,15.058,28.3,32.762,31.09,52.2,1.688,12.493,3.181,24.985,6.686,37.23A385.918,385.918,0,0,1,1079.662,239Zm-36.485,0a119.1,119.1,0,0,0-7.62-16.628c-8.827-15.967-19.991-31.065-32.128-45.957-11.748-14.6-27.065-26.805-49.587-34.21-10.644-3.516-19.017-5.709-26.546-5.709-9.736,0-18.044,3.723-27.844,13.279a453.611,453.611,0,0,1-48.549,41.2c-17.849,13.154-38.164,24.53-59.193,35.368A213.661,213.661,0,0,0,767.107,239H763.59a206.684,206.684,0,0,1,23.868-13.939c25.377-13.071,43.551-23.909,58.8-35.161a444.447,444.447,0,0,0,48.419-41.076c10-9.8,19.017-13.941,29.986-13.941,8.177-.041,17.069,2.358,27.715,5.833a105.46,105.46,0,0,1,50.755,34.912c14.278,17.539,24.534,32.224,32.257,46.206A121.17,121.17,0,0,1,1043.207,239Zm-39.828,0q-9.1-13.5-26.595-25.811c-13.954-9.762-30.117-14.85-48.1-15.016H924.99c-17.654,0-32.517,5.75-47.38,12.162-18.952,8.438-36.8,18.366-53.935,28L822.5,239H818.57c18.639-10.432,37.2-21.011,57.548-29.989,14.927-6.453,30.375-12.493,48.873-12.493h1.168c19.991.166,36.607,6.247,49.912,15.554,11.875,8.346,21.2,17.317,27.535,26.928ZM931.2,239a51.093,51.093,0,0,0-7.96-1.819l-1.039-.165a45.8,45.8,0,0,0-7.334-.828l-1.493.041a97.531,97.531,0,0,0-19.14,2.77h-6.649a104.591,104.591,0,0,1,25.6-4.425l1.688-.083a54.28,54.28,0,0,1,8.957,1.076A53.062,53.062,0,0,1,936.5,239Zm-240.725,0a136.042,136.042,0,0,0,.86-19.855,32.091,32.091,0,0,1,2.336-13.154c3.506-8.81,11.748-13.94,25.184-15.429a146.48,146.48,0,0,1,16.485-.7h7.789c45.3-.124,79.509-27.8,72.3-58.368-4.284-18.118-14.8-34.789-25.508-51.5-8.373-12.865-17.589-25.523-23.82-39.132-6.231-13.734-6.36-26.929,6.491-39.215Q773.467.806,774.381,0h3.255q-1.471,1.241-2.835,2.553c-11.1,10.59-13.111,22.628-6.231,37.85,4.8,10.549,11.618,20.642,18.108,30.487,1.883,2.813,3.83,5.625,5.647,8.48,9.931,15.471,21.225,33.052,25.7,51.873,3.7,15.843-3.245,31.687-19.083,43.476-14.539,10.755-34.334,16.712-55.818,16.795h-7.789a135.6,135.6,0,0,0-16.032.7c-12.267,1.323-19.86,6.04-23.041,14.189a29.322,29.322,0,0,0-2.336,12.74A138.055,138.055,0,0,1,693.075,239Zm-59.386,0c-1.418-10.558-5.822-21.406-14.135-34.746-9.411-14.975-25.118-24.613-46.861-28.584-26.482-5.005-56.533-10.548-83.4-20.642a371.271,371.271,0,0,1-55.039-25.853c-33.556-19.483-57.181-44.262-78.535-67.964a541.1,541.1,0,0,1-37.969-46.7c-3.629-5.079-6.811-9.89-9.586-14.508h2.767c2.819,4.658,5.9,9.25,9.156,13.805a538.376,538.376,0,0,0,37.9,46.578c22.067,24.571,45.368,48.605,78.08,67.551a354.4,354.4,0,0,0,54.585,25.606c26.026,9.8,54.325,15.223,82.818,20.559,23.5,4.261,39.137,14.6,48.484,29.535C626.426,214.977,632.059,226.6,633.7,239Zm-59.352,0c-.45-9.242-6.029-17.454-17.221-25.563-11.943-8.563-26.351-15.016-41.475-21.386-22-9.431-44.719-19.235-67.89-28.625l-2.532-1.076c-10.709-4.343-21.808-8.852-34.075-10.962a48.605,48.605,0,0,0-7.269-.662c-9.217,0-14.019,4.054-14.409,12.038-.454,9.266,2.142,18.283,5,26.681,2.985,8.521,6.88,17,10.644,25.192,3.375,7.28,6.88,14.85,9.736,22.461q.353.95.682,1.9h-2.66q-.269-.765-.554-1.529c-5.971-16.05-14.733-31.479-20.381-47.654-3.05-8.893-5.516-17.911-5.062-27.136.455-8.976,6.361-13.651,17.006-13.651a48.36,48.36,0,0,1,7.983.786c13.63,2.357,25.443,7.363,37.32,12.2,22.846,9.307,45.434,18.987,67.955,28.667,14.928,6.329,29.661,12.782,41.928,21.676,10.533,7.585,17.356,16.04,17.867,26.638Zm-200.6,0q-.152-1.819-.432-3.639a151.642,151.642,0,0,0-11.358-37.478c-8.568-19.773-16.486-39.67-30.57-58.078-4.674-6.122-10.19-12-17.719-16.546-11.488-6.743-24.988-11.211-39.721-13.9-26.417-4.674-53.611-4.426-80.547-6.37-11.942-.91-24.015-1.779-35.178-5.253-9.8-2.979-18.952-8.728-17.329-17.746,1.1-6.7,4.478-12.741,9.346-18.491,8.373-9.555,18.368-18.242,28.688-26.722C189.71,23.663,202.671,12.426,212.654,0h2.906c-10.084,12.76-23.335,24.274-37.233,35.77-9.671,8.025-19.861,16.794-28.363,26.475-5.127,6.039-8.048,11.913-9.086,17.953-1.687,9.183,9.216,13.981,15.836,16.091,10.709,3.309,22.587,4.137,34.4,5.047,8.308.579,16.875.993,25.118,1.406,18.368.869,37.385,1.779,55.753,5.005,15.836,2.813,29.6,7.694,40.825,14.313,8.827,5.336,14.668,12.285,18.368,17.043,12.851,16.794,20.7,35.119,28.363,52.907l2.272,5.419A149.163,149.163,0,0,1,373.3,235.2q.285,1.892.436,3.8Zm-30.892,0c1.252-9.747.069-20.136-3.55-31.561-7.009-22.007-16.1-38.843-28.948-52.99-15.252-16.96-37.32-26.764-65.553-29.163-9.087-.828-18.368-1.2-27.455-1.2-32.452,0-64.969,4.923-99.5,15.1-4.868,1.407-9.671,2.9-14.539,4.343-15.058,4.633-30.505,9.39-46.926,12.286A269.383,269.383,0,0,1,13.4,160.034c-2.466.083-4.868.249-7.334.413-1.933.157-3.917.331-6.069.437V159.2c4.448-.208,8.841-.724,13.273-.823A265.1,265.1,0,0,0,53.059,154.2c21.419-3.723,40.955-10.673,61.141-16.547,32.452-9.555,65.813-15.264,100.537-15.264,9.152,0,18.433.413,27.779,1.283,29.6,2.482,52.054,12.823,67.5,29.949,14.928,16.5,23.3,34.747,29.208,53.486,3.313,10.489,4.974,21.165,3.637,31.892Zm-33.138,0a63.624,63.624,0,0,0,1.873-18.365c-.908-19.235-8.437-37.105-23.885-53.28-15.447-16.05-37.9-22.668-64.45-22.668-1.363,0-2.791,0-4.219.083a186.144,186.144,0,0,0-55.753,10.217c-16.1,5.378-30.829,12.245-45.3,19.318C81.229,191.141,43,201.193,1.72,206.2c-.563.062-1.137.146-1.72.233v-1.694c.436-.07.863-.127,1.265-.153,43.292-5.253,80.028-15.595,112.545-31.6,16.226-7.942,30.246-14.313,45.628-19.483A192.1,192.1,0,0,1,216.3,143.074c1.493,0,2.921-.041,4.349-.041,29.272,0,51.664,7.86,66.657,23.455,15.188,15.885,23.3,34.086,24.275,54.107A65.1,65.1,0,0,1,309.715,239Zm-29.454,0c2.393-7.353,4.056-15.064,3.418-22.915-1.427-17.5-8.437-30.032-21.937-39.587-11.034-7.777-24.21-11.789-39.2-11.789a101.187,101.187,0,0,0-18.563,1.861c-18.757,3.558-36.8,10.672-55.039,21.717-31.934,19.318-68.67,35.079-112.286,48.067q-4.184,1.252-8.516,2.646H19.88q6.5-2.174,13.124-4.135c40.76-12.162,78.21-27.592,111.571-47.778,16.292-9.845,34.594-18.076,56.013-22.131A108.957,108.957,0,0,1,219.93,163.1c15.317,0,29.272,3.888,41.149,12.327,15.967,11.21,21.354,25.564,22.587,40.58.635,7.789-.939,15.438-3.362,23Zm-43,0c1.088-7.144,1.672-14.443-.375-21.633a18.457,18.457,0,0,0-4.868-8.728c-4.608-4.675-11.358-7.239-18.757-7.239a36.569,36.569,0,0,0-7.789.868c-15.187,3.227-27.974,9.639-37.385,14.851-14.172,7.757-29.2,14.939-44.034,21.881H117.1c15.879-7.394,31.649-14.88,46.619-23.164,11.618-6.37,23.95-12.037,38.293-15.1a39.168,39.168,0,0,1,8.633-.951c8.373,0,15.772,2.813,20.965,7.983a19.413,19.413,0,0,1,5.192,9.349c2.14,7.345,1.54,14.608.417,21.881Zm300-95.347C492.4,139.723,459.818,124,433.6,101.625c-13.306-11.417-24.34-23.868-35.438-36.195-16.356-18.118-34.269-35.575-46.991-55.1-2.227-3.406-4.338-6.846-6.258-10.33h2.761c1.718,3.077,3.677,6.287,5.9,9.668,9.736,14.933,22.717,28.915,35.309,42.4,3.894,4.136,7.724,8.314,11.552,12.492l1.3,1.489c10.449,11.623,21.289,23.744,33.944,34.582,28.429,24.241,60.946,37.809,99.37,41.366a160.653,160.653,0,0,0,16.291.828c22.327,0,40.046-4.881,54.325-14.809,8.892-6.288,13.63-14.479,17.719-22.379,7.465-13.858,11.813-28.584,16.032-42.9l.974-3.309A177.168,177.168,0,0,1,670.165,0h2.864q-.257.346-.519.692a177.86,177.86,0,0,0-29.6,59.029c-4.608,15.637-8.957,31.439-17.069,46.5-4.349,8.273-9.217,16.464-18.3,22.917-15.967,11.168-35.438,15.388-56.208,15.388C545.881,144.521,540.3,144.19,534.653,143.653ZM711.194,124c-16.226,0-27.2-7.28-29.661-15.429-3.635-12.079-1.1-23.455,10.58-33.383a24.344,24.344,0,0,1,15.836-5.419,27.8,27.8,0,0,1,12.2,2.772c14.084,6.908,21.029,16.629,22.586,28.087,1.948,14.561-9.41,23.372-29.272,23.372ZM694.189,76.185c-10.58,9.017-13.89,19.525-10.125,32.059,2.077,6.826,11.488,14.147,27.13,14.147a22.046,22.046,0,0,0,2.272-.083c8.373,0,15.252-1.7,19.861-4.881,5.386-3.764,7.788-9.514,6.815-16.67-1.558-11.583-8.827-20.642-21.613-26.847a23.384,23.384,0,0,0-10.58-2.44A21.215,21.215,0,0,0,694.189,76.185ZM471.566,105.1c-17.135-10.052-28.493-22.917-38.553-35.244-8.827-10.631-18.044-21.3-27.066-31.6-5.647-6.536-11.358-13.072-16.94-19.607A174.4,174.4,0,0,1,375.095,0h2.8a172.531,172.531,0,0,0,13.381,17.817c14.668,17.167,29.726,34,44.005,51.253,10.384,12.658,21.548,25.151,38.034,34.789,17.46,10.217,36.866,17.374,60.1,17.374,1.817,0,3.635-.041,5.582-.165,18.174-.786,33.556-5.874,45.109-15.678,14.084-11.872,19.536-25.936,22.911-40.538,2.791-12.079,3.7-24.241,5-36.485A282.481,282.481,0,0,1,616.618,0h2.616a275.217,275.217,0,0,0-4.619,28.49l-.583,5.336c-1.039,10.259-2.077,20.89-4.414,31.272-3.116,13.237-8.243,28.5-23.431,41.284-11.748,10.01-27.585,15.512-46.992,16.381-2.012.082-3.894.124-5.776.124C512.261,122.887,492.011,117.054,471.566,105.1Zm960.655,13.154c-20.444-2.9-26.676-6.7-32.517-20.27a44.76,44.76,0,0,1-3.5-21.014c-1.039-4.219.649-8.977,1.233-13.775a73.982,73.982,0,0,1,7.14-23.992c4.413-8.687,12.981-12.823,26.221-13.94q7.691-.621,15.188-.621V26.3c-5.062,0-10,.206-14.8.579C1418.462,27.952,1411,31.882,1407.1,39.7a74.26,74.26,0,0,0-7.14,23.62c-.131,1.406-.389,2.813-.584,4.178-.65,3.309-1.3,6.453-.519,9.556a43.059,43.059,0,0,0,3.375,20.517c5.516,12.865,10.969,16.215,30.57,19.07a90.016,90.016,0,0,0,12.722.786c10.774,0,21.417-1.613,33.88-4.095,18.563-3.64,31.8-8.48,41.669-15.347,14.474-10.052,22-22.462,20.509-34.168-1.3-9.762-8.762-18.284-21.548-24.737a96.152,96.152,0,0,0-27.13-8.314c-12.657-2.069-29.4-4.468-46.926-4.468V24.643c16.1,0,31.933,1.944,47.574,4.509A98.075,98.075,0,0,1,1521.53,37.8c32.842,16.34,27.454,43.31,1.427,61.3-11.682,8.066-26.87,12.7-42.772,15.843-11.424,2.275-22.976,4.178-34.659,4.178A96.467,96.467,0,0,1,1432.221,118.254ZM478.9,86.981c-11.424-8.232-19.861-18.036-27.065-28.211-11.553-16.133-24.08-31.81-37.516-47.24-3.311-3.764-6.444-7.6-9.312-11.53h2.869c2.563,3.45,5.457,7,8.715,10.7,14.215,16.339,26.482,31.851,37.58,47.4,8.567,12,17.069,20.849,26.676,27.8,14.084,10.135,29.077,15.058,45.627,15.058,2.467,0,5.063-.083,7.594-.331,14.668-1.323,26.611-7.115,35.308-17.208,7.4-8.645,11.228-18.987,12.137-32.638.649-9.39-.324-19.07-1.3-28.377-.2-2.4-.39-4.84-.649-7.239-.408-5.023-.468-10.126-.423-15.17h2.6c-.041,5.032.019,10.064.419,15.087C583.2,27.042,584.954,39,584.111,50.869c-.779,11.623-3.7,23.123-12.4,33.34-8.5,9.762-20.509,16.547-37.319,18.077-2.726.249-5.323.372-7.919.372C507.653,102.659,492.141,96.537,478.9,86.981Zm396.7.951a73.617,73.617,0,0,1-33.037-20.724c-7.074-7.736-12.332-15.926-13.046-25.151-.39-3.309,1.1-6.37,2.336-9.556,4.154-10.134,23.561-20.642,41.41-20.642A35.017,35.017,0,0,1,888.449,15,30.962,30.962,0,0,1,902.793,27.5c6.62,10.714,7.464,21.841,4.673,33.217-1.882,7.859-3.7,15.76-9.736,22.71A16.26,16.26,0,0,1,884.62,89.5,31.5,31.5,0,0,1,875.6,87.932ZM834.319,32.875l-.26.951c-1.168,2.73-2.272,5.419-2.011,8.149.649,7.86,4.738,15.595,12.851,24.323a69.464,69.464,0,0,0,31.868,20.1,25.476,25.476,0,0,0,7.853,1.407,13.516,13.516,0,0,0,10.839-5.171c5.712-6.577,7.529-14.189,9.346-21.593l.13-.579c2.921-11.955,1.428-22.5-4.543-32.389A29.343,29.343,0,0,0,886.956,16.37a31.387,31.387,0,0,0-13.694-2.813C857.295,13.557,838.408,22.905,834.319,32.875Zm-596.6,39.339c-7.14-1.324-12.657-6.164-12.657-10.838,0-5,1.168-6.494,10.125-12.575a37.97,37.97,0,0,1,21.029-6.5v1.655a34.28,34.28,0,0,0-19.147,6c-8.826,6-9.411,6.991-9.411,11.417,0,4.054,4.8,8.149,10.71,9.225a106.72,106.72,0,0,0,16.94,1.448,80.6,80.6,0,0,0,12.332-.911c5.063-.7,8.892-2.564,11.034-5.253,2.466-3.061,2.336-6.991-.39-10.962-4.673-6.949-12.721-10.962-22.067-10.962V42.306c9.93,0,19.147,4.137,24.468,11.955,5.777,8.563.39,16.546-12.461,18.491a85.591,85.591,0,0,1-12.916.993A109.161,109.161,0,0,1,237.714,72.214Zm272.534-7.529a34.106,34.106,0,0,1-14.019-9.679,77.982,77.982,0,0,1-13.435-19.153C476,23.215,466.945,11.244,457.574,0h2.936c9.413,11.358,18.1,22.942,24.75,35.274a77.305,77.305,0,0,0,13.176,18.863,31.1,31.1,0,0,0,13.111,9.1,26.4,26.4,0,0,0,8.567,1.53,16.289,16.289,0,0,0,13.37-6.205,22.13,22.13,0,0,0,4.154-18.449c-1.817-9.348-4.933-18.449-8.307-27.591C527.8,8.367,526.4,4.193,525.187,0h2.633c1.141,3.913,2.484,7.953,4.042,12.15,3.245,8.77,6.491,18.2,8.373,27.8a23.423,23.423,0,0,1-4.414,19.318c-3.569,4.592-9.151,7.2-15.707,7.2A30.485,30.485,0,0,1,510.249,64.685ZM29.758,51.448Q14.879,49.78,0,48.185v-1.72l1.006.1,29.207,3.227a156.744,156.744,0,0,0,16.357.91,131.986,131.986,0,0,0,54.065-11.376C124.4,28.722,143.06,15.5,156.284,0h2.934c-13.968,16.693-33.406,30.061-57.091,40.693A135.354,135.354,0,0,1,46.57,52.317,166.3,166.3,0,0,1,29.758,51.448ZM1592.147,27.29c-6.685-7.86-17.2-13.485-33.88-18.366-11.423-3.309-23.69-5.419-35.632-7.4L1513.677.03l-.141-.03h10.082c12.122,2.046,24.193,4.069,35.688,7.434,14.279,4.137,27,9.6,35.114,19.028A67.172,67.172,0,0,1,1600,33.957v4.851A61.558,61.558,0,0,0,1592.147,27.29ZM1198.953,4q-3.455-1.871-6.674-4h3.624q2.275,1.428,4.737,2.76c22.522,12.162,48.03,16.05,74.965,16.05,5.453,0,10.97-.166,16.486-.456,16.746-.91,33.492-1.82,50.236-2.937,11.035-.828,21.938-1.572,32.713-3.434,8.438-1.53,14.278-4.84,17.459-10.466q.417-.758.805-1.519h2.745q-.524,1.046-1.085,2.057c-3.375,6.039-9.67,9.8-19.211,11.5-10.905,1.945-22.068,2.689-33.167,3.475-17.135,1.2-34.269,2.11-50.236,2.978-5.842.29-11.552.456-16.746.456C1244.063,20.465,1219.723,15.253,1198.953,4Z" transform="translate(0.5 0.5)" fill="#fff" stroke="rgba(0,0,0,0)" stroke-miterlimit="10" stroke-width="1" opacity="0.252"/>
</svg>
