<svg xmlns="http://www.w3.org/2000/svg" width="28" height="28" viewBox="0 0 28 28">
  <g id="Group_2188" data-name="Group 2188" transform="translate(-1468 -1103)">
    <g id="Group_2187" data-name="Group 2187" transform="translate(1470 1105)">
      <circle id="Ellipse_1370" data-name="Ellipse 1370" cx="14" cy="14" r="14" transform="translate(-2 -2)" fill="#00be7e" opacity="0.4"/>
    </g>
    <circle id="Ellipse_1317" data-name="Ellipse 1317" cx="10" cy="10" r="10" transform="translate(1472 1107)" fill="#00be7e"/>
    <g id="Group_1788" data-name="Group 1788" transform="translate(1477.502 1113.402)">
      <path id="Path_3149" data-name="Path 3149" d="M910.062,345.875a.683.683,0,0,0-.986,0l-5.168,5.329-2.257-2.328a.683.683,0,0,0-.987,0h0a.735.735,0,0,0,0,1.017l2.659,2.742a.71.71,0,0,0,.083.1.7.7,0,0,0,1,0h0a.718.718,0,0,0,.083-.1l5.569-5.743A.735.735,0,0,0,910.062,345.875Z" transform="translate(-900.459 -345.664)" fill="#fff"/>
    </g>
  </g>
</svg>
