<svg xmlns="http://www.w3.org/2000/svg" xmlns:xlink="http://www.w3.org/1999/xlink" width="80" height="80" viewBox="0 0 80 80">
  <defs>
    <linearGradient id="linear-gradient" x1="0.5" x2="0.5" y2="1" gradientUnits="objectBoundingBox">
      <stop offset="0" stop-color="#2aa0d1"/>
      <stop offset="1" stop-color="#ff8e52"/>
    </linearGradient>
  </defs>
  <g id="Group_3686" data-name="Group 3686" transform="translate(-830 -628)">
    <circle id="Ellipse_1566" data-name="Ellipse 1566" cx="40" cy="40" r="40" transform="translate(830 628)" fill="url(#linear-gradient)"/>
    <g id="communications" transform="translate(824 646)">
      <g id="Group_36" data-name="Group 36" transform="translate(54.696 34.435)">
        <g id="Group_35" data-name="Group 35" transform="translate(0)">
          <path id="Path_62" data-name="Path 62" d="M356.87,396a.87.87,0,1,0,.87.87A.87.87,0,0,0,356.87,396Z" transform="translate(-356 -396)" fill="#fff"/>
        </g>
      </g>
      <g id="Group_38" data-name="Group 38" transform="translate(26)">
        <g id="Group_37" data-name="Group 37" transform="translate(0)">
          <path id="Path_63" data-name="Path 63" d="M57.706,31.623l-4.133-1.377-1.484-2.968a9.524,9.524,0,0,0,2.578-5.038l.185-1.109h1.583a2.612,2.612,0,0,0,2.609-2.609V13.043a13.043,13.043,0,0,0-26.087,0v5.478A2.613,2.613,0,0,0,34.7,20.981V22A2.612,2.612,0,0,0,37.3,24.609h.764a9.434,9.434,0,0,0,1.459,2.259c.123.142.252.279.383.412l-1.483,2.966-4.133,1.377A12.817,12.817,0,0,0,26,43.652a.87.87,0,0,0,.87.87H65.13a.87.87,0,0,0,.87-.87A12.817,12.817,0,0,0,57.706,31.623Zm-.4-13.1a.871.871,0,0,1-.87.87H55.108c.221-1.712.368-3.534.428-5.329,0-.051,0-.1,0-.15H57.3Zm-21.739.87a.871.871,0,0,1-.87-.87V13.913h1.765q0,.136.009.274V14.2h0c.061,1.745.206,3.52.422,5.195H35.565ZM37.3,22.87a.871.871,0,0,1-.87-.87v-.87h.713l.185,1.109c.035.211.079.421.129.63Zm-.868-10.7H34.729a11.3,11.3,0,0,1,22.543,0H55.564a8.807,8.807,0,0,0-8.785-8.7H45.222A8.807,8.807,0,0,0,36.436,12.174Zm8.785-6.957h1.557A7.071,7.071,0,0,1,53.826,12.3c0,.274,0,.512-.007.729,0,0,0,.006,0,.009l-1.088-.155A13.973,13.973,0,0,1,44.876,8.95a.87.87,0,0,0-.615-.255,7.867,7.867,0,0,0-6.049,2.862A7.069,7.069,0,0,1,45.222,5.217ZM39.264,22.87a49.7,49.7,0,0,1-1.043-8.439l1.17-1.561a6.121,6.121,0,0,1,4.526-2.425A15.728,15.728,0,0,0,52.486,14.6l1.28.183c-.086,1.816-.26,3.639-.511,5.315v0c-.08.539-.142.886-.3,1.854a7.386,7.386,0,0,1-5.242,5.94,6.842,6.842,0,0,1-7.68-3.285H41.8a2.613,2.613,0,0,0,2.459,1.739H46a2.609,2.609,0,1,0,0-5.217H44.261A2.61,2.61,0,0,0,41.8,22.87Zm4.923,6.784a8.722,8.722,0,0,0,3.234.073l-1.537,1.625Zm.5,2.962-2.758,2.917a33.132,33.132,0,0,1-1.947-4.515l1.036-2.071Zm6.142-3.964,1.183,2.366a33.123,33.123,0,0,1-1.947,4.516l-2.952-2.952Zm-7.441-4.913a.87.87,0,0,1,.87-.87H46a.87.87,0,0,1,0,1.739H44.261A.871.871,0,0,1,43.391,23.739ZM27.774,42.783a10.989,10.989,0,0,1,7.07-9.51l3.66-1.22a34.858,34.858,0,0,0,2.475,5.369l0,.009h0a34.866,34.866,0,0,0,2.38,3.635l1.07,1.717ZM46,42.007l-1.179-1.893q-.02-.032-.042-.062a33.154,33.154,0,0,1-1.959-2.927l3.1-3.279,3.268,3.268a33.118,33.118,0,0,1-1.966,2.939C47.179,40.109,47.24,40.019,46,42.007Zm1.566.775,1.07-1.717a34.855,34.855,0,0,0,2.4-3.664l.013-.023,0,0A34.83,34.83,0,0,0,53.5,32.053l3.66,1.22a10.989,10.989,0,0,1,7.07,9.51H47.566Z" transform="translate(-26)" fill="#fff"/>
        </g>
      </g>
      <g id="Group_40" data-name="Group 40" transform="translate(57.751 36.095)">
        <g id="Group_39" data-name="Group 39">
          <path id="Path_64" data-name="Path 64" d="M395,418.257a8.694,8.694,0,0,0-2.462-2.988.87.87,0,0,0-1.06,1.378,6.945,6.945,0,0,1,1.966,2.387.87.87,0,0,0,1.556-.777Z" transform="translate(-391.139 -415.088)" fill="#fff"/>
        </g>
      </g>
    </g>
  </g>
</svg>
