<svg xmlns="http://www.w3.org/2000/svg" width="70" height="70" viewBox="0 0 70 70">
  <g id="Group_2" data-name="Group 2" transform="translate(-171 -200)">
    <rect id="Rectangle_1" data-name="Rectangle 1" width="70" height="70" transform="translate(171 200)" fill="none"/>
    <g id="Group_1" data-name="Group 1" transform="translate(-298 -2605)">
      <path id="Path_3769" data-name="Path 3769" d="M38.125,6.112a17.439,17.439,0,0,0-3.943,0c-2.52,2.214-7.637,8.119-8.128,19.584a4.48,4.48,0,0,1,1.067,2.885,4.516,4.516,0,1,1,9.032,0,4.516,4.516,0,1,1,9.032,0A4.475,4.475,0,0,1,46.253,25.7c-.49-11.466-5.607-17.37-8.128-19.585Z" transform="translate(471.233 2804.645)" fill="#f6e0d8"/>
      <path id="Path_3770" data-name="Path 3770" d="M40.375,5.8,39.21,1H35.177L34.013,5.8A19.207,19.207,0,0,0,18,24.71v4.516h2.258a3.387,3.387,0,1,1,6.774,0H29.29a3.391,3.391,0,0,1,3.387-3.387V45.032h2.258V26.719a3.368,3.368,0,0,1,1.129,2.506h2.258a3.37,3.37,0,0,1,1.129-2.506V45.032H41.71V25.839A3.391,3.391,0,0,1,45.1,29.226h2.258a3.387,3.387,0,1,1,6.774,0h2.258V24.71A19.207,19.207,0,0,0,40.375,5.8ZM36.952,3.258h.483l.558,2.3c-.268-.011-.53-.041-.8-.041s-.532.029-.8.041ZM54.129,24.712a5.639,5.639,0,0,0-7.9,1.13,5.64,5.64,0,0,0-9.032,0,5.64,5.64,0,0,0-9.032,0,5.639,5.639,0,0,0-7.9-1.13v0a16.935,16.935,0,0,1,33.871,0Z" transform="translate(470.194 2804)" fill="#51596c"/>
      <path id="Path_3771" data-name="Path 3771" d="M23.293,49.161H44.958a3.358,3.358,0,0,0,.016-4.516A3.385,3.385,0,0,0,42.452,39H26.645a5.628,5.628,0,0,0-3.352,10.161Z" transform="translate(470.581 2808.903)" fill="#f6e0d8"/>
      <path id="Path_3772" data-name="Path 3772" d="M25,43H44.194v2.258H25Z" transform="translate(471.097 2809.419)" fill="#51596c"/>
      <path id="Path_3773" data-name="Path 3773" d="M71,48.677H20.471L5.988,34H5.516A4.521,4.521,0,0,0,1,38.516v.472L16.017,53.824a5.613,5.613,0,0,0,3.967,1.628h.209v11.29h6.774V55.452H56.323v11.29H63.1V55.452H71ZM24.71,64.484H22.452V55.452H24.71Zm36.129,0H58.581V55.452h2.258Zm7.9-11.29H19.984a3.372,3.372,0,0,1-2.38-.977L3.3,38.085A2.267,2.267,0,0,1,5.085,36.3l13.78,13.965a2.276,2.276,0,0,0,1.607.672H68.742Z" transform="translate(468 2808.258)" fill="#51596c"/>
    </g>
  </g>
</svg>
