<svg xmlns="http://www.w3.org/2000/svg" width="55" height="55" viewBox="0 0 55 55">
  <g id="tumblr" transform="translate(-61.483 0.034)">
    <circle id="Ellipse_2497" data-name="Ellipse 2497" cx="27.5" cy="27.5" r="27.5" transform="translate(61.483 -0.034)" fill="#35465c" opacity="0.1"/>
    <g id="Group_5979" data-name="Group 5979" transform="translate(20.499 17.245)">
      <path id="Path_6190" data-name="Path 6190" d="M40.154,26.393V22.966H37.942a1.191,1.191,0,0,0-.074.43.65.65,0,0,0-.05.2,3.313,3.313,0,0,1-2,2.641,1.864,1.864,0,0,1-.965.153v2.763h1.625c.026,3.888.026,5.892.026,5.994v.23a3.288,3.288,0,0,0,2.665,3.095,7.557,7.557,0,0,0,2,.254,9.434,9.434,0,0,0,2.614-.456V35.02c-.5.152-.965.281-1.371.406A1.915,1.915,0,0,1,40.431,35a1.048,1.048,0,0,1-.152-.281,6.989,6.989,0,0,1-.122-1.242V29.155h3.525V26.393Z" transform="translate(29.217 -20.34)" fill="#35465c"/>
    </g>
  </g>
</svg>
