<svg xmlns="http://www.w3.org/2000/svg" width="40" height="40" viewBox="0 0 40 40">
  <g id="Group_3109" data-name="Group 3109" transform="translate(-393 -582)">
    <circle id="Ellipse_6" data-name="Ellipse 6" cx="20" cy="20" r="20" transform="translate(393 582)" fill="#0072ff"/>
    <path id="Shape_3_copy" data-name="Shape 3 copy" d="M1451.028,2900.7c6.04,0,9.343-5.435,9.343-10.146,0-.153,0-.306-.01-.464a7.028,7.028,0,0,0,1.637-1.848,6.076,6.076,0,0,1-1.888.561,3.536,3.536,0,0,0,1.446-1.973,6.3,6.3,0,0,1-2.083.867,3.1,3.1,0,0,0-4.644-.153,3.765,3.765,0,0,0-.949,3.408,9.1,9.1,0,0,1-6.767-3.724,3.757,3.757,0,0,0,1.014,4.76,3.052,3.052,0,0,1-1.491-.447v.044a3.511,3.511,0,0,0,2.636,3.494,3.031,3.031,0,0,1-1.481.06,3.334,3.334,0,0,0,3.067,2.475,6.212,6.212,0,0,1-4.86,1.483,8.762,8.762,0,0,0,5.031,1.6" transform="translate(-1040.996 -2291.575)" fill="#fff"/>
  </g>
</svg>
