<svg xmlns="http://www.w3.org/2000/svg" width="55" height="55" viewBox="0 0 55 55">
  <g id="Group_5998" data-name="Group 5998" transform="translate(-0.453 0.034)">
    <circle id="Ellipse_6" data-name="Ellipse 6" cx="27.5" cy="27.5" r="27.5" transform="translate(0.453 -0.034)" fill="#01a0ff" opacity="0.1"/>
    <path id="Shape_3_copy" data-name="Shape 3 copy" d="M1452.277,2904.208c7.539,0,11.663-6.785,11.663-12.665,0-.191,0-.382-.012-.579a8.775,8.775,0,0,0,2.043-2.307,7.583,7.583,0,0,1-2.356.7,4.416,4.416,0,0,0,1.8-2.463,7.87,7.87,0,0,1-2.6,1.082,3.875,3.875,0,0,0-5.8-.191,4.7,4.7,0,0,0-1.185,4.254,11.356,11.356,0,0,1-8.448-4.649,4.689,4.689,0,0,0,1.266,5.941,3.807,3.807,0,0,1-1.861-.558v.054a4.383,4.383,0,0,0,3.29,4.362,3.784,3.784,0,0,1-1.849.075,4.162,4.162,0,0,0,3.829,3.09,7.756,7.756,0,0,1-6.067,1.851,10.939,10.939,0,0,0,6.28,2" transform="translate(-1427.545 -2867.609)" fill="#01a0ff"/>
  </g>
</svg>
