<svg xmlns="http://www.w3.org/2000/svg" width="65.011" height="70.004" viewBox="0 0 65.011 70.004">
  <path id="Shape_20" data-name="Shape 20" d="M934.945,767.712c-.685-.78-.74-1.527-.176-2.045.6-.554,1.381-.428,2.076.373a28.33,28.33,0,0,0,16.07,9.665c11.235,2.242,20.831-.914,28.667-9.316.169-.182.327-.376.493-.562.689-.766,1.4-.914,2.014-.421s.611,1.328-.114,2.11a46.846,46.846,0,0,1-3.377,3.427c-6.125,5.37-13.308,7.97-22.511,8.057A31.654,31.654,0,0,1,934.945,767.712Zm-7.662-1.426c-.409-.691-.14-1.316.852-1.937q8.483-5.308,16.97-10.611l5.125-3.207c-1.526-.291-2.835-.541-4.146-.788-.87-.164-1.742-.319-2.612-.486-.914-.175-1.341-.682-1.234-1.445a1.322,1.322,0,0,1,1.692-1.046c1.88.332,3.757.689,5.634,1.034q2.082.385,4.164.766c1.256.229,1.643.822,1.3,2.056q-1.33,4.755-2.679,9.5c-.264.93-.883,1.369-1.606,1.174-.812-.221-1.12-.858-.847-1.847.566-2.054,1.154-4.1,1.727-6.152.049-.176.06-.365.112-.7-.371.224-.626.374-.877.531q-10.492,6.562-20.983,13.127c-.117.073-.232.15-.35.222a2.407,2.407,0,0,1-1.221.423A1.143,1.143,0,0,1,927.284,766.286Zm62.4.191q-8.8-5.5-17.6-11.007c-1.381-.863-2.763-1.725-4.309-2.69.522,1.869.995,3.563,1.468,5.257.148.533.3,1.064.444,1.6.253.949-.071,1.659-.843,1.867-.68.184-1.341-.3-1.6-1.211q-1.291-4.548-2.561-9.1c-.075-.266-.148-.533-.217-.8a1.291,1.291,0,0,1,1.116-1.817q5.142-.941,10.292-1.846a1.235,1.235,0,0,1,1.617.991,1.306,1.306,0,0,1-1.21,1.5c-2.2.4-4.411.786-6.617,1.178-.13.023-.257.061-.61.146,1.529.961,2.883,1.815,4.24,2.665q8.8,5.505,17.594,11.008c.047.03.092.062.139.092,1.03.651,1.314,1.282.9,1.993a1.121,1.121,0,0,1-1.007.606A2.415,2.415,0,0,1,989.682,766.477Zm-60.112-7.615a32.024,32.024,0,0,1-2.375-12.248c.346-11.2,5.031-20.1,14.27-26.518a30.561,30.561,0,0,1,12.612-5.026c1.168-.193,1.812.087,1.973.922s-.347,1.414-1.474,1.6A28.12,28.12,0,0,0,941,723.6c-8.1,6.646-11.878,15.21-11.112,25.709a27.757,27.757,0,0,0,2.035,8.6c.385.935.156,1.633-.6,1.959a1.321,1.321,0,0,1-.521.118C930.3,759.993,929.881,759.616,929.57,758.862Zm57.977.811c-.743-.261-1-.984-.624-1.948a29.77,29.77,0,0,0-7.835-33,28.633,28.633,0,0,0-14.655-7.1,5.714,5.714,0,0,1-.728-.163,1.223,1.223,0,0,1-.905-1.533,1.208,1.208,0,0,1,1.526-.907c13.064,2.521,21.731,10.072,25.877,22.729a31.7,31.7,0,0,1,1.333,9.681,31.365,31.365,0,0,1-2.265,11.233,1.447,1.447,0,0,1-1.284,1.083A1.322,1.322,0,0,1,987.548,759.673ZM958.17,740.958q-3.588-3.923-7.151-7.871a1.3,1.3,0,0,1-.081-1.976c.559-.532,1.292-.452,1.959.27,1.448,1.566,2.875,3.151,4.312,4.727.256.281.515.557.942,1.019v-1.174q.008-12.466.016-24.931c0-.277-.011-.555.009-.832A1.176,1.176,0,0,1,959.331,709a1.22,1.22,0,0,1,1.338,1.088,5.3,5.3,0,0,1,.025.83q0,12.466-.007,24.931v1.058a6.709,6.709,0,0,0,.528-.455q2.157-2.36,4.308-4.729a5.94,5.94,0,0,1,.578-.6,1.25,1.25,0,0,1,1.806,1.724c-.823.972-1.7,1.9-2.556,2.84-1.583,1.742-3.161,3.489-4.752,5.224a1.8,1.8,0,0,1-1.24.736A1.705,1.705,0,0,1,958.17,740.958Z" transform="translate(-927.099 -708.997)" fill="#1ac48b"/>
</svg>
