<svg xmlns="http://www.w3.org/2000/svg" width="70" height="70" viewBox="0 0 70 70">
  <g id="Group_3247" data-name="Group 3247" transform="translate(20096 4086)">
    <circle id="Ellipse_1399" data-name="Ellipse 1399" cx="35" cy="35" r="35" transform="translate(-20096 -4086)" fill="#dfe6ef"/>
    <g id="Group_2659" data-name="Group 2659" transform="translate(-20074 -4067)">
      <path id="Path_3532" data-name="Path 3532" d="M-72.01,428.021c-1.84-.1-3.566-.168-5.286-.309a23.426,23.426,0,0,1-5.034-.9,5.739,5.739,0,0,1-1.923-.921,1.277,1.277,0,0,1-.541-1.04,18.955,18.955,0,0,1,2.085-9.033,11.7,11.7,0,0,1,3.834-4.273.584.584,0,0,1,.822.023,9.913,9.913,0,0,0,3.788,1.67,10.113,10.113,0,0,0,8.1-1.652c.394-.276.5-.275.9-.006a12.415,12.415,0,0,1,4.64,6.139,18.359,18.359,0,0,1,1.1,5.009c.057.706.081,1.414.117,2.121a1.2,1.2,0,0,1-.515,1.024,6.273,6.273,0,0,1-2.283,1.036,22.561,22.561,0,0,1-4.431.765C-68.466,427.817-70.293,427.913-72.01,428.021Z" transform="translate(84.795 -395.653)" fill="#fff"/>
      <path id="Path_3533" data-name="Path 3533" d="M29.515,82.7a7.583,7.583,0,1,1-7.6,7.3A7.565,7.565,0,0,1,29.515,82.7Z" transform="translate(-16.81 -82.696)" fill="#fff"/>
    </g>
  </g>
</svg>
