<svg width="398" height="342" viewBox="0 0 398 342" fill="none" xmlns="http://www.w3.org/2000/svg">
<g filter="url(#filter0_d_1110_1333)">
<path d="M243.076 155.295C243.977 154.694 244.277 153.794 244.727 152.893C246.378 149.591 247.279 145.989 248.029 142.536C248.93 138.334 249.83 133.981 250.731 129.778C250.881 128.878 251.031 128.127 251.331 127.377C251.782 125.876 252.532 125.425 254.033 125.575C256.435 125.726 258.086 127.227 259.286 129.178C259.887 130.078 260.337 131.129 260.787 132.33C261.388 131.729 261.388 130.979 261.538 130.379C262.589 125.876 263.939 121.373 265.591 116.87C266.791 113.868 268.142 110.866 270.093 108.164C272.795 104.412 275.947 103.962 279.55 106.813C281.951 108.765 283.602 111.316 284.653 114.018C286.304 118.071 287.204 122.273 287.355 126.626C287.655 133.38 286.904 139.985 286.304 146.739C285.553 154.694 285.103 162.649 285.253 170.755C285.253 172.706 285.553 174.807 286.004 176.758C286.154 177.209 286.154 177.809 286.754 178.259C287.655 177.359 287.955 176.308 288.405 175.257C289.606 171.955 290.356 168.503 291.107 165.051C291.707 161.599 292.458 158.297 293.058 154.844C293.208 153.944 293.208 153.193 293.058 152.293C291.107 142.086 292.908 132.33 297.411 123.024C298.462 121.073 299.662 119.271 301.314 117.77C305.816 113.568 313.621 115.819 315.423 121.223C317.224 126.626 317.524 131.88 315.873 137.283C315.573 138.484 314.972 139.534 314.222 140.585C312.421 143.137 309.869 144.037 306.867 142.987C306.417 142.837 306.117 142.536 305.516 142.536C305.066 142.837 305.216 143.287 305.216 143.737C304.916 149.741 305.366 155.595 307.618 161.298C308.068 162.349 308.518 163.55 309.119 164.45C309.569 165.051 309.869 165.051 310.469 164.601C311.22 164 311.82 163.1 312.271 162.349C313.321 160.548 313.922 158.597 314.372 156.495C315.573 151.092 316.473 145.688 316.773 140.135C316.773 139.534 316.924 138.934 317.674 138.784C318.425 138.634 319.175 138.784 319.475 139.534C319.775 140.135 319.775 140.735 319.775 141.486C319.775 145.538 319.325 149.441 318.875 153.343C318.575 156.195 318.274 159.047 317.524 161.749C317.224 162.95 316.924 164.15 316.323 165.201C314.972 167.753 312.871 169.254 309.869 169.254C307.317 169.404 304.916 168.653 302.664 167.152C300.563 165.801 298.762 164 297.111 161.899C296.811 161.449 296.51 160.848 296.06 160.548C295.46 160.698 295.61 161.298 295.61 161.749C294.859 166.102 294.259 170.454 293.208 174.807C292.908 176.158 292.458 177.509 291.857 178.86C289.306 183.963 283.302 184.714 279.7 180.361C276.998 177.209 275.647 173.456 274.596 169.404C272.945 162.649 272.795 155.895 273.095 148.991C273.546 140.585 274.596 132.33 275.197 124.074C275.497 119.722 275.497 115.519 274.897 111.166C274.746 110.566 274.746 109.965 274.596 109.365C273.546 109.515 273.095 110.266 272.645 110.866C270.544 113.268 269.193 115.969 267.992 118.971C265.891 124.525 264.54 130.228 263.639 135.932C262.739 141.636 262.889 147.189 262.889 152.893C262.889 154.994 262.889 157.096 262.889 159.197C262.739 161.298 261.838 162.349 259.737 162.799C256.885 163.4 254.483 162.499 252.682 160.248C251.181 158.447 250.431 156.345 249.981 154.094C249.83 153.193 249.68 152.293 249.53 151.392C248.93 151.692 248.93 152.143 248.78 152.593C248.329 153.794 247.879 154.994 247.429 156.045C245.628 159.948 241.725 161.148 237.973 159.197C237.072 158.747 236.172 157.996 234.971 157.396C234.671 159.497 234.37 161.449 233.92 163.55C233.47 165.801 233.17 168.053 232.419 170.154C231.969 171.355 231.519 172.556 230.618 173.606C228.217 176.908 223.714 177.659 220.412 175.257C219.361 174.507 218.46 173.456 217.56 172.255C215.608 169.404 214.408 166.252 213.357 162.949C213.057 161.899 212.757 160.848 212.456 159.797C211.856 159.948 211.856 160.548 211.856 160.848C211.406 163.85 210.955 166.702 210.205 169.704C209.905 171.055 209.454 172.406 208.704 173.756C206.302 178.259 201.049 179.31 196.996 176.158C195.045 174.657 193.694 172.706 192.644 170.454C189.942 165.501 188.741 160.098 188.591 154.544C188.291 147.339 189.041 140.285 189.642 133.08C189.942 129.928 190.242 126.776 190.092 123.774C190.092 123.174 189.942 122.574 189.792 121.823C188.891 122.123 188.591 122.874 188.141 123.324C186.34 125.726 185.139 128.577 184.238 131.429C182.137 137.733 181.236 144.338 181.086 151.092C180.936 153.343 180.936 155.445 180.786 157.696C180.486 161.599 177.484 163.25 173.882 161.599C172.381 160.848 171.48 159.647 170.579 158.297C170.279 157.696 169.829 157.246 169.529 156.495C169.078 156.796 168.928 157.396 168.778 157.846C168.178 159.197 167.728 160.548 166.977 161.749C164.275 166.252 159.622 168.053 154.519 166.252C152.568 165.651 150.917 164.45 149.416 163.1C148.966 162.649 148.665 162.199 147.915 161.899C147.465 162.499 147.465 163.4 147.315 164C146.714 166.402 145.964 168.953 144.763 171.205C143.712 173.156 142.061 174.807 139.81 175.408C137.108 176.158 134.706 175.408 132.605 173.606C130.954 172.105 129.753 170.154 128.703 168.203C128.402 167.602 128.252 167.002 127.652 166.552C127.202 167.753 126.901 168.803 126.451 169.854C124.8 173.456 121.798 175.408 118.196 175.107C116.094 174.957 114.443 174.057 112.942 172.706C110.541 170.454 109.04 167.753 107.839 164.751C106.788 162.199 106.188 159.497 105.888 156.796C105.888 156.495 105.738 156.045 105.738 155.745C105.137 156.045 105.137 156.495 105.137 156.946C104.387 159.647 103.787 162.349 102.436 164.901C100.184 169.404 95.6813 171.055 91.1784 168.803C88.4767 167.452 86.6755 165.201 85.6248 162.499C85.0245 160.848 84.5742 159.197 84.5742 157.396C84.274 152.293 85.1745 147.339 87.1258 142.686C87.8763 140.735 89.0771 138.934 90.578 137.433C94.0302 134.131 99.884 133.531 103.787 135.932C104.687 136.533 105.438 137.283 106.188 138.184C106.939 138.033 106.788 137.433 106.788 137.133C107.539 134.131 108.139 130.979 108.89 127.977C109.49 125.575 110.391 124.975 112.792 124.975C116.995 124.975 119.697 127.527 120.147 131.729C120.447 135.182 119.997 138.634 119.547 142.086C118.646 149.141 117.896 156.195 118.646 163.25C118.796 165.201 119.096 167.002 119.847 168.803C120.147 169.554 120.447 170.304 121.198 170.755C122.248 169.854 122.849 168.803 123.299 167.602C124.35 164.901 124.95 162.049 125.551 159.197C125.701 158.747 125.701 158.146 125.551 157.696C124.05 149.291 124.5 140.885 125.1 132.33C125.551 126.026 126.301 119.872 127.652 113.718C127.802 112.967 127.652 112.517 127.051 112.067C124.5 110.566 122.098 108.915 119.397 107.714C115.644 105.913 111.742 105.613 107.839 106.663C104.837 107.564 101.985 108.765 99.4337 110.566C97.7827 111.767 96.1316 112.967 95.3811 114.919C95.0809 115.819 94.4805 115.519 93.8801 115.369C93.2798 115.219 92.9796 114.769 93.1297 114.168C93.2798 113.418 93.7301 112.817 94.1803 112.367C95.5312 110.716 97.1823 109.365 99.1335 108.314C103.787 105.763 108.74 103.962 114.293 104.712C117.295 105.162 119.997 106.213 122.549 107.564C124.5 108.615 126.301 109.665 128.102 110.716C128.853 110.266 128.853 109.365 129.003 108.765C130.203 105.012 131.704 101.56 133.806 98.408C135.907 95.256 138.609 92.5542 141.911 90.603C144.913 88.9519 147.915 88.5016 151.067 90.1527C153.468 91.3534 154.819 93.3047 154.819 95.8563C154.969 103.661 151.967 109.965 145.513 114.468C144.012 115.519 142.361 116.119 140.56 116.269C139.509 116.42 139.209 116.87 139.059 117.77C138.459 121.823 138.009 125.876 137.558 129.928C136.808 139.985 136.207 150.041 136.207 160.248C136.207 162.799 136.357 165.201 137.108 167.602C137.408 168.803 137.858 169.854 138.459 170.905C139.059 171.805 139.359 171.805 139.96 170.905C140.41 170.154 140.86 169.404 141.161 168.653C142.812 164.901 143.712 160.998 144.613 157.096C144.763 156.495 144.613 156.045 144.463 155.595C142.511 148.991 142.812 142.236 144.162 135.482C144.613 133.08 145.363 130.679 146.264 128.427C147.014 126.776 147.765 125.125 148.966 123.774C152.418 119.722 158.872 119.271 162.774 122.724C163.825 123.624 164.576 124.675 164.876 126.026C165.776 129.628 165.626 133.23 164.275 136.833C162.925 140.285 160.973 141.486 157.221 141.336C156.32 141.336 156.17 141.636 156.02 142.386C155.42 147.94 155.87 153.343 157.221 158.597C157.521 159.647 157.821 160.548 158.422 161.449C159.472 163.1 159.923 163.1 161.273 161.899C162.024 161.148 162.774 160.248 163.375 159.347C165.026 156.796 166.077 153.944 167.127 151.242C167.427 150.491 167.277 149.741 167.277 148.991C166.677 142.686 167.578 136.683 169.529 130.679C169.979 129.328 170.429 128.127 171.18 126.926C172.831 124.675 175.533 123.924 178.084 124.975C179.435 125.575 180.186 126.776 180.186 128.277C180.186 129.628 180.186 131.129 180.486 132.63C180.636 132.03 180.936 131.429 181.086 130.829C182.137 127.677 183.338 124.525 184.989 121.673C185.439 120.922 185.739 120.322 186.19 119.722C188.291 116.87 190.242 116.269 193.694 117.47C196.696 118.671 198.648 120.922 199.998 123.774C201.199 126.476 201.649 129.478 201.8 132.48C201.95 136.232 201.499 139.985 201.199 143.737C200.749 150.191 200.148 156.645 200.148 163.1C200.148 165.651 200.299 168.053 201.049 170.454C201.349 171.655 201.8 172.856 202.55 173.756C203 174.357 203.451 174.357 203.901 173.756C204.651 172.856 205.252 171.805 205.702 170.755C206.753 168.053 207.353 165.351 207.953 162.499C208.704 158.747 209.304 154.994 209.905 151.392C210.355 149.141 210.355 146.739 210.355 144.338C210.205 135.782 210.805 127.076 211.706 118.521C212.006 115.669 212.306 112.817 212.456 109.965C212.456 109.515 212.606 109.215 212.306 108.765C211.556 108.615 211.106 109.065 210.505 109.215C205.252 111.166 199.998 112.217 194.445 111.767C188.441 111.166 182.887 109.215 178.234 105.162C174.632 102.01 172.531 98.1078 171.33 93.6049C171.33 93.4548 171.33 93.3047 171.33 93.1546C171.18 92.254 170.88 91.3534 171.93 90.7531C172.681 90.3028 174.032 90.603 174.782 91.3534C175.232 91.8037 175.683 92.4041 175.983 92.8544C177.184 94.5055 178.384 96.1565 179.735 97.6575C185.589 104.562 192.944 107.264 201.95 105.463C205.402 104.712 208.554 103.661 211.856 102.611C212.907 102.31 213.207 101.71 213.357 100.659C213.657 95.1059 213.807 89.5523 213.807 83.9987C213.807 83.2482 213.657 82.4977 213.357 81.7473C212.907 80.8467 213.357 80.2463 214.408 80.3964C215.759 80.5465 216.809 81.297 217.71 82.1976C219.211 83.6985 220.111 85.3496 221.012 87.1507C222.213 89.7024 222.963 92.4041 223.714 95.1059C223.864 95.7062 223.864 96.4567 224.314 97.0571C225.365 96.6068 226.415 96.0064 227.466 95.5562C233.17 92.8544 238.873 90.0026 244.877 88.2014C249.38 86.8506 254.033 86.2502 258.686 87.3008C260.487 87.7511 261.988 88.5016 263.339 89.5523C263.789 89.8525 264.09 90.1527 264.39 90.603C264.84 91.3534 264.54 92.1039 263.639 92.254C262.889 92.4041 262.288 92.1039 261.688 91.6536C258.386 89.2521 254.784 88.9519 250.881 89.8525C247.579 90.603 244.427 91.9538 241.425 93.3047C236.172 95.8563 231.068 98.7082 225.815 101.56C224.914 102.01 224.614 102.611 224.614 103.661C225.365 112.817 224.314 121.973 223.564 131.129C222.813 140.585 221.912 150.041 222.213 159.647C222.363 162.649 222.513 165.651 223.413 168.503C223.714 169.704 224.164 170.905 224.914 171.955C225.365 172.556 225.815 172.706 226.265 171.955C227.166 170.905 227.616 169.554 228.217 168.353C229.417 165.351 230.018 162.049 230.618 158.897C230.768 158.447 230.768 157.996 230.918 157.546C231.519 154.994 231.519 152.593 230.318 150.191C228.967 147.49 228.967 144.488 229.117 141.486C229.267 138.033 229.717 134.581 230.618 131.279C230.918 130.078 231.369 129.028 231.969 127.977C232.569 126.926 233.32 126.176 234.521 126.026C236.172 125.726 237.973 125.876 239.474 126.776C240.975 127.677 241.875 128.878 242.025 130.679C242.176 132.33 242.176 133.981 242.025 135.632C241.725 140.735 241.725 145.838 241.725 150.942C242.476 152.443 242.326 153.944 243.076 155.295ZM97.6326 164.3C98.6832 163.4 99.2836 162.349 99.7339 161.298C101.835 156.645 103.186 151.992 104.537 147.039C104.687 146.589 104.837 145.989 104.537 145.538C103.636 143.737 102.436 142.236 100.634 141.035C96.8821 148.39 95.9815 156.195 97.6326 164.3ZM150.016 94.9558C145.964 96.907 140.11 108.464 140.41 114.018C146.864 112.817 152.868 101.56 150.016 94.9558ZM310.77 123.324C310.169 123.774 310.019 124.074 309.869 124.375C308.068 128.277 307.017 132.48 306.417 136.683C306.417 136.983 306.267 137.283 306.417 137.583C306.417 138.484 307.618 140.135 308.368 140.135C309.419 140.135 309.719 139.234 310.169 138.634C310.319 138.334 310.469 138.033 310.62 137.733C312.721 133.08 312.421 128.427 310.77 123.324ZM159.923 127.827C158.272 130.979 157.671 134.131 157.071 137.583C156.921 138.184 157.371 138.484 157.821 138.784C158.272 139.084 158.722 138.934 159.022 138.634C159.322 138.334 159.622 138.033 159.923 137.583C161.724 134.431 161.574 131.129 159.923 127.827Z" fill="#FFF3F6"/>
<path d="M146.262 224.039C147.612 222.688 148.663 221.637 149.564 220.437C150.014 219.986 150.014 219.236 150.164 218.635C151.215 211.581 152.566 204.676 154.667 197.922C155.868 193.869 157.519 190.117 159.77 186.515C164.573 178.86 171.178 176.909 179.433 180.661C182.885 182.312 185.887 184.563 188.439 187.415C192.191 191.618 194.743 196.571 196.394 201.825C196.844 203.175 197.445 203.776 198.795 203.776C200.747 203.926 202.548 204.376 204.199 205.127C204.799 205.427 205.25 205.427 205.85 204.977C210.203 201.674 215.156 201.825 219.209 205.427C219.359 205.577 219.509 205.577 219.659 205.727C220.259 205.727 220.109 205.127 220.259 204.827C221.01 203.175 221.76 202.875 223.561 203.175C226.563 203.776 228.665 205.727 230.015 208.429C230.916 210.23 231.366 212.181 231.516 214.283C232.117 219.836 231.817 225.54 231.817 231.093C231.817 233.345 231.817 235.596 232.267 237.848C232.417 238.748 232.717 239.649 233.168 240.399C234.068 239.799 234.518 239.049 234.819 238.148C236.62 234.245 237.67 230.193 238.721 226.14C238.871 225.54 238.721 224.939 238.571 224.339C237.22 218.035 238.421 211.881 240.822 206.027C241.123 205.277 241.573 204.676 242.023 204.076C242.624 203.326 243.374 202.875 244.275 202.575C246.526 201.975 250.128 203.326 251.329 205.277C251.779 206.177 251.93 207.078 251.779 207.979C251.479 211.281 251.179 214.583 250.879 217.885C250.579 220.737 250.579 223.739 250.729 226.741C250.729 227.041 250.579 227.341 251.029 227.641C251.629 227.491 251.93 226.891 252.23 226.29C254.631 222.838 256.132 219.086 257.483 215.183C257.633 214.433 257.633 213.832 257.633 213.082C257.633 211.281 257.483 209.48 257.333 207.678C257.333 206.327 257.333 204.977 257.633 203.626C258.084 201.524 259.434 200.774 261.536 201.074C264.688 201.524 266.939 203.326 267.99 206.327C269.341 209.78 270.241 213.382 270.842 217.134C272.493 227.341 272.793 237.548 272.042 247.754C272.042 248.505 272.042 249.255 271.892 249.855C271.742 250.756 272.042 251.356 272.793 251.807C279.097 255.259 282.849 260.963 286.302 267.117C286.602 267.567 286.902 268.167 286.602 268.768C286.152 269.518 285.401 269.518 284.651 269.518C283.6 269.368 282.699 268.918 281.949 268.167C281.048 267.267 280.148 266.216 279.397 265.165C277.296 262.764 275.195 260.362 272.943 258.111C272.493 257.66 272.042 257.06 271.292 256.76C270.842 257.36 270.842 258.111 270.692 258.711C268.44 272.37 263.637 285.128 255.532 296.385C251.629 301.789 247.277 306.742 241.873 310.494C237.971 313.196 233.768 315.298 229.115 316.048C220.409 317.399 212.904 314.997 207.051 308.093C198.795 298.337 197.445 284.228 203.448 272.37C208.101 263.514 215.006 257.06 223.711 252.407C233.768 247.004 244.425 245.052 255.832 246.253C257.333 246.403 257.483 246.403 257.483 244.902C257.933 238.748 257.933 232.594 257.783 226.29C257.783 225.99 257.783 225.84 257.483 225.54C257.033 225.99 256.883 226.591 256.583 227.191C255.832 228.692 255.232 230.193 254.181 231.394C252.53 233.345 250.429 234.245 248.027 233.795C245.926 233.495 243.974 232.744 242.473 231.243C242.173 230.943 241.873 230.643 241.273 230.493C240.973 231.694 240.672 232.895 240.372 234.095C239.772 236.347 239.021 238.748 238.121 241C236.32 245.052 232.117 246.403 228.214 244.002C227.164 243.401 226.263 242.501 225.513 241.45C222.361 237.097 220.409 232.294 219.359 227.041C219.359 226.741 219.359 226.29 219.058 225.99C218.458 226.29 218.608 226.891 218.458 227.341C218.008 229.592 217.407 231.994 216.507 234.095C214.405 238.598 210.053 239.499 206.3 236.197C204.349 234.396 202.998 232.144 202.098 229.743C199.396 222.838 200.146 215.934 203.148 209.179C203.298 208.729 203.598 208.279 203.749 207.828C203.749 207.828 203.749 207.678 203.749 207.528C202.098 206.478 200.146 206.478 198.195 206.177C197.745 206.027 197.595 206.478 197.595 206.928C197.745 208.279 198.045 209.63 198.045 210.98C198.795 221.187 196.994 231.093 193.242 240.549C189.039 251.206 183.035 260.662 174.93 268.618C170.877 272.52 166.375 275.672 160.971 277.323C156.618 278.674 152.265 278.824 147.913 277.323C141.759 275.222 138.006 270.569 135.905 264.565C134.104 259.312 134.104 253.758 135.004 248.355V248.204C135.755 246.103 135.305 244.152 134.404 242.05C131.852 235.296 130.501 228.242 129.901 221.037C129.301 212.932 129.751 204.827 131.552 196.721C132.453 192.969 133.503 189.367 135.154 185.764C135.755 184.413 136.655 183.063 137.706 181.862C138.607 180.811 139.807 180.211 141.308 180.061C144.761 179.76 146.562 181.261 146.112 184.714C145.361 190.267 144.761 195.971 144.611 201.674C144.46 208.879 144.911 216.234 146.262 224.039ZM249.678 248.955C244.575 249.105 239.622 249.555 234.969 251.206C224.312 254.659 215.456 260.512 209.302 269.968C203.899 278.374 202.248 287.38 205.55 296.986C207.201 301.789 209.903 305.841 213.955 308.993C219.659 313.496 226.113 313.947 232.417 310.344C234.819 308.993 236.92 307.192 238.871 305.241C243.974 299.988 247.427 293.534 249.978 286.779C252.83 279.424 254.481 271.77 255.682 264.115C256.432 259.762 256.883 255.409 257.333 250.906C257.483 250.006 257.183 249.555 256.132 249.405C253.881 249.105 251.629 249.105 249.678 248.955ZM138.757 250.906C138.306 251.657 138.306 252.407 138.306 253.007C138.156 255.109 138.306 257.21 138.757 259.161C139.657 264.265 141.759 268.918 146.112 272.07C150.014 275.072 154.217 275.522 158.87 273.571C161.421 272.37 163.673 270.719 165.774 268.768C169.076 265.616 171.628 262.013 173.729 257.961C178.082 249.705 180.934 240.85 183.035 231.694C184.686 224.039 185.737 216.384 185.437 208.579C185.287 206.027 185.287 206.027 182.735 206.478C172.078 208.429 162.922 213.232 154.817 220.286C154.067 220.887 153.766 221.637 153.616 222.688C153.616 224.339 153.466 226.14 153.316 227.791C153.016 236.797 153.316 245.953 156.168 254.659C157.069 257.36 155.568 258.711 153.616 259.462C151.065 260.362 148.813 259.912 146.562 258.561C144.911 257.66 143.56 256.46 142.509 254.959C141.008 253.908 139.958 252.557 138.757 250.906ZM154.367 215.934C155.117 215.934 155.568 215.333 156.018 214.883C162.022 210.53 168.326 207.228 175.53 205.277C178.082 204.526 180.784 204.226 183.335 203.926C184.236 203.776 184.536 203.476 184.386 202.575C183.936 200.174 183.335 197.772 182.435 195.37C181.234 192.369 179.883 189.517 177.632 187.115C176.131 185.464 174.18 184.263 171.928 184.263C169.376 184.263 167.125 185.464 165.324 187.115C163.373 189.066 161.722 191.318 160.521 193.719C157.519 199.573 155.868 205.877 154.667 212.331C154.517 213.532 154.067 214.733 154.367 215.934ZM211.854 234.095C213.205 233.045 213.805 231.694 214.255 230.343C216.507 224.489 217.407 218.185 218.608 212.031C218.608 211.731 218.758 211.281 218.308 210.98C217.107 210.38 216.057 210.68 215.456 211.881C215.006 212.632 214.706 213.382 214.405 214.132C212.904 218.335 211.854 222.688 211.253 227.191C211.103 229.442 210.953 231.694 211.854 234.095ZM148.963 226.591C148.213 227.341 147.012 227.941 147.162 229.142C147.312 231.093 147.763 233.045 148.663 234.846C148.663 232.144 149.113 229.442 148.963 226.591Z" fill="#FFF3F6"/>
<path d="M77.0698 76.3437C78.7208 75.1429 80.3719 73.9421 82.023 72.7413C87.4264 68.8388 92.8299 65.2365 98.8338 62.3847C103.487 60.1332 108.29 58.6323 113.393 58.182C121.348 57.5816 128.403 59.5329 134.106 65.6868C141.011 73.3417 140.411 82.1974 136.658 89.1019C135.007 92.1038 132.756 94.5053 129.754 96.1564C127.052 97.6574 124.35 97.6574 121.348 96.7568C120.598 96.6067 119.997 96.1564 119.547 95.7061C119.097 95.2558 118.797 94.6554 119.097 93.9049C119.397 93.3046 119.997 92.8543 120.598 93.0044C120.898 93.0044 121.198 93.0044 121.498 93.1545C122.249 93.4547 122.699 93.1545 122.999 92.7042C127.352 87.751 130.204 82.0473 130.504 75.293C130.654 72.5912 129.754 70.0396 128.103 67.7882C126.001 65.0864 123.45 63.5855 119.847 63.5855C115.795 63.5855 112.192 64.6361 108.44 66.1371C103.787 68.0884 99.4342 70.64 95.2315 73.3417C90.1282 76.7939 85.175 80.3963 80.0717 83.9986C79.1711 84.599 79.021 85.1994 79.3212 86.0999C81.1224 93.1545 82.1731 100.359 82.9235 107.714C83.3738 112.217 83.674 116.72 83.9742 121.223C84.4245 129.478 84.4245 137.583 83.9742 145.838C83.5239 154.094 82.9235 162.349 80.8222 170.454C80.2218 172.856 79.6214 175.107 78.4206 177.209C75.5688 182.312 70.0152 183.663 65.062 180.511C62.9607 179.16 61.3096 177.509 59.8087 175.557C55.4559 170.154 52.604 164.15 50.0524 157.846C45.9998 147.94 42.9979 137.583 40.146 127.226C39.2454 123.774 38.0447 120.322 36.3936 117.17C35.3429 115.219 34.1422 113.267 32.341 112.067C31.5905 111.466 31.5905 111.016 32.1909 110.265C32.6412 109.665 33.3917 109.515 34.1422 109.365C36.2435 109.065 38.3449 109.215 40.2961 109.965C46.1499 112.217 50.8029 115.669 53.5046 121.523C56.2064 127.376 58.1576 133.38 59.8087 139.534C62.0601 148.09 64.0114 156.795 66.8632 165.351C67.6137 167.752 68.5143 170.304 69.5649 172.706C70.1653 174.207 71.0659 175.557 72.1166 176.758C72.717 177.359 73.1673 177.359 73.6175 176.608C74.368 175.407 74.9684 174.056 75.4187 172.706C76.9197 168.503 77.5201 164.15 78.1204 159.647C79.4713 148.24 79.9216 136.682 79.6214 125.125C79.6214 113.117 78.5707 101.26 76.1692 89.5522C76.0191 88.8017 76.0191 88.2013 75.5688 87.4508C74.6682 87.6009 74.2179 88.0512 73.4675 88.5015C70.4655 90.3026 67.3135 91.9537 64.0114 93.0044C61.1595 93.905 58.1576 94.2051 55.1557 93.7549C51.1031 93.0044 47.951 90.903 45.9998 87.1506C45.0992 85.1994 44.4988 83.2481 44.1986 81.1468C43.4481 74.2423 44.3487 67.7882 47.8009 61.6342C48.4013 60.5835 49.1518 59.5329 49.9023 58.6323C53.5046 54.5797 58.4578 53.529 63.2609 56.0806C65.9626 57.4315 67.9139 59.5329 69.715 61.9344C72.4168 65.6868 74.5181 69.8895 76.1692 74.2423C76.3193 74.9928 76.4694 75.7433 77.0698 76.3437ZM49.452 75.1429C49.452 76.794 49.452 78.445 49.9023 79.946C50.2025 80.9967 50.5027 82.0473 50.8029 83.098C51.4033 84.8992 52.4539 86.5502 53.9549 87.751C55.0056 88.6516 56.2063 88.9518 57.5572 88.6516C58.758 88.3514 59.9588 87.9011 61.0094 87.3007C65.2121 85.1994 68.8145 82.4976 72.5669 79.7959C73.1673 79.3456 73.4675 78.8953 73.1673 78.1448C71.3661 72.7413 69.4148 67.6381 66.1127 62.9851C65.062 61.4841 63.8613 59.9831 62.2102 58.9325C59.9588 57.2814 57.8574 57.2814 55.606 58.9325C54.2551 59.9831 53.3545 61.1839 52.4539 62.6849C50.3526 66.5874 49.452 70.7901 49.452 75.1429Z" fill="#FFF3F6"/>
<path d="M225.966 53.5291C225.365 57.2815 224.915 60.8839 224.915 64.4862C224.915 67.7883 224.915 71.0904 225.065 74.3925C225.065 75.143 225.065 75.8935 225.065 76.7941C225.065 77.8448 224.765 78.8954 223.564 79.1956C222.213 79.4958 221.013 79.1956 220.262 77.9949C219.662 77.0943 219.212 76.0436 218.761 74.9929C217.41 71.5407 216.66 67.9384 216.059 64.3361C214.709 56.0808 215.009 47.8255 216.81 39.7202C214.709 39.27 214.258 39.5701 214.108 41.5214C213.808 46.3245 211.407 50.0769 207.654 52.7786C206.153 53.8293 204.952 53.9794 202.551 53.5291C202.101 54.1295 201.95 54.7299 201.95 55.4804C201.65 61.184 201.8 66.7376 201.95 72.4413C201.95 74.2424 202.251 75.8935 201.95 77.6947C201.65 79.796 199.399 80.6966 197.598 79.4958C196.847 79.0455 196.397 78.4451 195.947 77.5446C194.446 74.6927 193.695 71.3906 193.245 68.2386C192.644 64.6363 192.344 61.1841 192.194 57.5817C192.194 56.5311 191.894 56.0808 190.693 56.2309C189.342 56.381 188.142 55.6305 187.241 54.7299C185.44 53.0788 184.389 50.8274 183.338 48.5759C183.188 49.4765 183.038 50.5272 182.888 51.4278C182.138 55.3303 181.087 56.0808 177.034 55.3303C177.034 56.8313 177.034 58.3322 177.034 59.9833C177.184 64.3361 177.485 68.6889 177.785 73.0417C177.935 74.8428 178.085 76.644 178.085 78.4452C178.085 79.3457 177.935 80.0962 177.785 80.9968C177.184 83.2482 175.233 84.1488 172.982 83.2482C171.481 82.6479 170.43 81.4471 169.53 80.0962C166.227 75.7434 164.877 70.6401 163.976 65.3868C163.376 61.3341 162.925 57.4316 162.325 53.379C162.025 51.728 161.574 50.0769 160.674 48.5759C160.073 47.5253 159.473 47.5253 158.573 48.2757C157.222 49.3264 156.771 50.8274 156.771 52.4784C156.621 55.9307 156.621 59.3829 157.972 62.685C158.723 64.3361 159.173 66.1372 159.773 67.7883C160.374 69.7396 159.623 70.49 157.672 70.49C156.171 70.49 155.12 69.8897 154.22 68.6889C152.419 66.2873 151.218 63.7357 150.017 61.034C147.615 55.6305 145.664 50.227 144.013 44.5233C144.013 44.3732 143.863 44.2231 143.713 44.073C142.962 44.3732 142.662 45.1237 142.212 45.8742C140.711 47.8255 139.51 49.9268 138.46 52.3284C137.559 54.4297 136.959 56.6812 138.309 58.9326C137.259 59.0827 136.959 58.6324 136.809 58.032C136.358 56.8312 136.358 55.6305 136.658 54.4297C137.109 52.1783 138.159 50.227 139.36 48.2757C140.411 46.6247 141.462 45.1237 142.512 43.6228C143.113 42.8723 143.263 42.1218 143.113 41.0711C142.062 36.1179 141.311 31.0146 141.612 25.9114C141.912 21.2584 142.662 16.9056 144.614 12.7029C145.214 11.352 145.964 10.1512 146.865 9.10056C150.317 5.04795 156.021 5.79844 158.272 10.6015C159.623 13.3033 159.623 16.1551 159.173 19.0069C158.573 22.4591 156.921 25.311 155.12 28.3129C153.619 30.8646 151.818 33.116 150.017 35.5175C149.417 36.268 149.116 37.1686 149.417 38.2193C150.617 43.7729 152.419 49.3264 154.52 54.5798C154.52 54.7299 154.67 54.7299 154.97 54.7299C155.12 53.379 155.27 52.1783 155.42 50.9775C155.571 49.9268 155.871 49.0262 156.471 48.2757C157.522 46.6247 159.173 45.8742 161.124 46.1744C164.276 46.6247 166.227 48.5759 167.428 51.4278C168.929 55.0301 169.53 58.9326 169.98 62.8351C170.58 67.338 171.181 71.8409 172.381 76.3438C172.982 78.2951 173.582 80.2463 174.933 81.8974C175.834 80.6966 175.834 79.3457 175.834 78.145C175.984 73.492 175.684 68.839 175.533 64.3361C175.383 61.6343 175.233 58.9326 175.233 56.381C175.233 55.3303 174.933 54.5798 174.333 53.6792C171.631 49.4765 171.781 45.1237 173.882 40.921C175.233 38.0692 177.785 37.1686 180.787 38.0692C181.387 38.2193 181.988 38.6696 182.288 37.6189C182.588 36.8684 183.489 36.8684 184.239 37.0185C186.34 37.4688 187.541 38.6696 188.442 40.4707C189.492 42.7222 189.643 45.1237 189.943 47.5253C190.243 49.3264 190.543 51.1276 190.843 52.9287C190.843 53.2289 190.993 53.6792 191.444 53.9794C192.194 53.5291 192.044 52.7786 192.194 52.1783C192.494 48.5759 192.644 44.9736 193.245 41.5214C193.545 39.7202 193.845 38.0692 194.596 36.4181C195.196 34.9172 195.947 34.4669 197.297 34.617C198.798 34.7671 199.549 35.3674 199.699 36.8684C199.999 40.3206 199.699 43.7729 199.549 47.2251C199.399 52.9287 199.099 58.4823 199.699 64.186C199.699 64.4862 199.699 64.6363 199.999 64.9365C199.999 63.4355 200.149 61.7844 200.149 60.2835C200.299 56.9813 200.9 53.6792 200.9 50.3771C200.9 48.726 201.8 47.3752 202.101 45.7241C202.551 43.0224 203.301 40.4707 204.352 38.0692C204.802 37.0185 205.253 35.9678 206.003 34.9172C207.654 32.6657 210.356 32.6657 212.157 34.9172C212.907 35.9678 213.508 37.0185 213.808 38.2193C213.958 38.9698 214.408 39.1199 215.159 39.1199C216.81 39.1199 217.861 38.6696 218.161 36.8684C218.161 36.4181 218.461 35.9678 218.761 35.6676C219.512 34.4669 219.962 34.1667 221.013 34.3168C222.514 34.617 223.264 35.3674 223.414 36.7183C223.564 38.5195 223.414 40.1705 223.114 41.9717C222.213 49.3264 222.364 56.6812 223.114 64.186C223.564 63.4355 223.414 62.8351 223.564 62.3848C223.714 61.7844 223.714 61.1841 223.714 60.5837C224.315 54.2796 225.365 47.9756 227.617 41.9717C228.067 40.921 228.517 39.8703 229.268 38.8197C231.219 36.268 234.521 36.1179 235.872 38.9698C236.923 40.921 237.974 41.0711 239.625 40.4707C239.925 40.3206 240.075 40.3206 240.375 40.3206C241.126 40.3206 241.276 39.8703 241.276 39.27C241.126 37.6189 241.576 37.3187 243.077 37.769C245.478 38.5195 246.979 40.1705 247.58 42.7222C248.18 45.2738 247.58 47.8255 247.28 50.5272C247.129 51.8781 246.679 53.2289 246.829 54.7299C248.03 54.2796 248.63 53.5291 249.081 52.6285C251.182 48.8761 252.683 44.8235 252.833 40.4707C252.833 39.7202 252.833 38.9698 252.983 38.0692C253.133 36.8684 253.884 36.4181 255.085 36.8684C256.586 37.3187 257.486 38.3694 257.936 39.8703C258.687 42.7222 259.137 45.4239 259.437 48.2757C259.738 50.9775 259.738 53.5291 259.888 56.2309C260.038 58.032 259.888 58.032 261.989 58.032C265.591 57.8819 269.194 58.1821 272.646 58.9326C273.697 59.2328 274.747 59.3829 275.498 60.4336C275.348 61.034 274.897 60.8839 274.747 60.7338C270.394 58.7825 265.741 58.9326 261.088 59.2328C260.188 59.2328 260.038 59.8332 259.888 60.5837C259.587 64.9365 258.537 69.1392 256.435 73.0417C254.334 76.9442 251.482 80.2463 247.73 82.6479C246.529 83.3983 245.178 83.9987 243.677 83.9987C241.276 84.1488 239.324 82.948 238.724 80.5465C238.124 78.2951 238.424 76.0436 239.174 73.7922C241.276 68.2386 245.178 64.3361 250.131 61.3341C250.732 61.034 251.182 60.5837 251.782 60.4336C253.434 59.9833 253.884 58.9326 253.734 57.2815C253.584 54.5798 253.434 51.8781 253.283 49.3264C253.283 49.0262 253.283 48.726 252.833 48.4258C252.533 49.0262 252.383 49.6266 252.233 50.227C251.632 51.728 251.182 53.2289 250.281 54.7299C248.931 56.9813 247.28 57.7318 245.028 57.2815C242.927 56.8312 241.276 55.1802 240.976 52.7786C240.675 50.5272 240.976 48.4258 241.126 46.1744C241.276 45.1237 241.426 43.923 241.426 42.8723C241.576 41.6715 241.276 41.5214 240.075 41.8216C239.775 41.8216 239.625 41.9717 239.324 42.1218C237.523 42.5721 237.673 42.5721 237.673 44.3732C237.673 47.5253 236.923 50.5272 234.521 52.9287C231.519 55.3303 229.568 55.6305 225.966 53.5291ZM253.133 61.1841C252.833 61.1841 252.683 61.1841 252.533 61.1841C251.632 61.6343 250.732 62.2347 249.831 62.685C245.328 65.6869 242.026 69.5895 240.525 74.6927C239.925 76.644 239.775 78.5952 240.825 80.3964C241.576 81.8974 242.627 82.3477 244.128 81.4471C245.628 80.5465 246.979 79.3457 248.03 77.9949C250.732 74.3925 252.233 70.1898 252.833 65.837C253.133 64.4862 253.434 62.8351 253.133 61.1841ZM149.417 34.617C149.867 34.7671 150.017 34.3168 150.167 34.1667C151.518 32.2154 152.869 30.4143 154.07 28.3129C155.721 25.6112 157.072 22.7593 157.672 19.4572C158.122 16.3052 157.972 13.3033 156.171 10.6015C155.12 8.95046 154.22 8.95046 152.869 10.3013C151.668 11.5021 150.918 12.853 150.467 14.504C148.966 18.7067 148.666 23.2096 148.666 27.5624C148.666 29.8139 148.666 32.2154 149.417 34.617ZM210.656 42.1218C207.804 44.073 205.253 45.7241 203.601 48.4258C203.151 49.1763 202.851 49.9268 202.851 50.6773C202.851 52.1783 203.902 52.9287 205.102 52.0282C208.555 49.7767 210.206 46.4746 210.656 42.1218ZM203.752 44.9736C205.703 43.7729 207.054 42.7222 208.705 41.6715C210.956 40.1705 210.956 40.1705 210.356 37.4688C210.356 37.1686 210.206 36.8684 210.056 36.5682C209.755 35.9678 209.755 34.9172 209.005 34.7671C208.104 34.617 207.654 35.3674 207.204 35.9678C205.403 38.5195 204.652 41.5214 203.752 44.9736ZM232.72 44.3732C230.469 45.2738 228.818 46.6247 227.767 48.5759C227.167 49.6266 227.167 50.6773 227.767 51.728C228.367 52.9287 228.968 53.0788 229.868 52.0282C231.82 49.7767 232.57 47.2251 232.72 44.3732ZM179.886 53.0788C180.937 51.8781 181.087 50.5272 181.387 49.4765C181.988 47.075 182.288 44.5233 182.438 41.9717C182.438 41.6715 182.588 41.2212 182.138 41.0711C181.687 40.921 181.387 40.921 181.087 41.3713C180.787 41.8216 180.487 42.2719 180.337 42.7222C179.886 44.073 179.436 45.2738 179.286 46.6247C179.136 48.726 178.986 50.8274 179.886 53.0788ZM228.367 44.3732C230.169 43.923 231.369 43.0224 232.72 42.2719C233.02 42.1218 233.02 41.8216 232.87 41.5214C232.72 40.6208 232.72 39.5701 231.97 38.8197C230.018 40.3206 229.268 42.1218 228.367 44.3732Z" fill="#FFF3F6"/>
<path d="M340.337 97.9576C340.037 102.461 338.686 106.513 336.885 110.566C336.585 111.466 336.135 112.217 335.684 112.967C335.084 114.018 335.084 114.919 335.534 115.969C337.936 122.123 340.637 127.977 343.039 133.981C343.639 135.332 343.639 135.332 345.29 134.881C347.692 134.131 350.093 133.681 352.645 134.431C353.546 134.581 354.296 134.881 354.897 135.632C355.197 136.082 355.497 136.532 355.197 136.983C354.897 137.433 354.296 137.283 353.996 136.983C350.994 135.182 348.442 136.833 345.741 137.883C345.14 138.184 345.29 138.634 345.44 139.234C345.891 140.435 346.341 141.636 346.641 142.987C348.292 147.79 349.643 152.743 350.093 157.846C350.544 162.649 349.943 167.152 347.542 171.505C344.84 176.158 340.187 178.259 334.934 177.209C331.932 176.608 329.68 174.957 328.329 172.255C326.979 169.704 326.528 167.002 326.528 164.15C326.528 156.946 328.48 150.341 332.832 144.488C333.583 143.437 333.883 142.536 333.433 141.336C331.782 136.683 330.281 131.879 328.78 127.226C328.48 126.476 328.33 125.725 327.279 125.425C326.228 125.125 326.228 124.375 326.829 123.624C327.279 122.874 327.129 122.123 326.979 121.373C325.928 118.071 325.027 114.618 324.727 111.016C324.127 105.763 324.877 100.809 327.579 96.1565C328.329 94.8056 329.38 93.6048 330.581 92.7043C334.634 89.7023 339.587 91.6536 340.337 96.6068C340.337 96.7569 340.337 97.3572 340.337 97.9576ZM335.084 147.189C334.333 147.64 334.183 148.24 333.883 148.69C332.382 151.392 331.331 154.094 330.731 157.096C329.981 160.848 329.83 164.751 330.881 168.503C331.331 170.154 332.082 171.805 333.583 173.006C335.984 174.957 338.386 174.357 339.287 171.205C339.887 169.404 339.737 167.452 339.437 165.651C338.836 161.599 337.936 157.546 337.035 153.643C336.435 151.542 335.984 149.441 335.084 147.189ZM333.883 109.965C334.483 109.965 334.483 109.665 334.634 109.365C336.135 105.913 337.035 102.461 337.185 98.7081C337.185 97.8075 337.035 96.7569 336.885 95.8563C336.885 95.406 336.885 94.6555 336.285 94.6555C335.684 94.5054 335.384 95.1058 335.084 95.5561C334.483 96.4567 334.033 97.5073 333.733 98.558C332.532 102.31 332.832 106.063 333.883 109.965Z" fill="#FFF3F6"/>
<path d="M319.625 105.613C319.625 105.763 319.625 106.213 319.625 106.513C319.475 107.564 318.725 107.864 317.674 107.564C316.773 107.264 315.873 106.663 315.723 105.613C315.423 104.262 314.672 102.911 313.772 101.86C313.321 101.41 312.871 100.809 313.321 100.209C313.772 99.6087 314.372 99.6087 315.122 99.7588C317.974 100.209 319.625 102.31 319.625 105.613Z" fill="#FFF3F6"/>
<path d="M237.525 121.223C236.925 121.223 236.174 121.073 235.724 120.772C234.973 120.322 234.523 119.722 234.673 118.821C234.823 117.921 235.274 117.47 236.174 117.17C237.225 116.87 239.026 117.47 239.777 118.221C240.377 118.821 240.227 119.722 239.626 120.322C239.026 121.073 238.276 121.223 237.525 121.223Z" fill="#FFF3F6"/>
<path d="M309.867 51.8779C310.168 52.6284 310.468 53.2288 310.768 53.9792C311.218 54.8798 311.519 55.6303 311.969 56.3808C313.019 58.332 313.92 59.9831 314.821 61.334C315.121 61.7843 315.271 62.0845 315.571 62.3847C316.322 63.5854 317.672 64.0357 319.023 63.7355C319.324 63.5854 319.774 63.5854 320.224 63.4353C321.725 63.1351 323.676 62.5347 325.628 61.9344C326.678 61.6342 327.729 61.334 328.78 60.8837C329.38 60.7336 329.83 60.4334 330.431 60.2833C332.232 59.5328 334.183 58.6322 335.834 57.7317C338.086 56.5309 340.037 55.0299 341.688 53.3789C342.739 52.1781 343.639 50.9773 344.24 49.6264C344.54 48.7259 344.84 47.9754 344.99 47.0748C345.29 45.1235 344.99 43.1723 344.24 41.3711C344.089 40.9208 343.789 40.4706 343.639 40.0203C343.189 39.1197 342.589 38.3692 341.838 37.6187C340.937 36.7181 339.737 35.9677 338.536 35.3673C337.785 35.0671 337.035 34.917 336.284 34.7669C333.583 34.3166 330.731 34.917 328.479 36.418C328.479 36.418 328.479 36.4179 328.479 36.2679C327.879 33.5661 326.378 31.1646 323.977 29.5135C323.376 29.0632 322.776 28.763 322.025 28.4628C320.674 27.8624 319.324 27.7124 317.973 27.5623C317.222 27.5623 316.322 27.7124 315.571 27.8625C314.971 28.0125 314.37 28.1626 313.77 28.4628C311.969 29.2133 310.468 30.4141 309.267 31.9151C308.817 32.6655 308.366 33.416 307.916 34.3166C307.316 35.6675 307.016 37.1684 307.016 38.8195C307.016 41.0709 307.316 43.4725 308.066 46.0241C308.366 48.1255 309.117 50.0767 309.867 51.8779Z" fill="#FFF3F6"/>
<path d="M92.3787 31.3146C92.829 31.4647 93.4293 31.6148 93.8796 31.7649C94.48 31.915 95.0804 32.0651 95.6808 32.2152C97.1818 32.5154 98.3825 32.8156 99.4332 32.9657C99.7334 32.9657 100.034 33.1158 100.334 33.1158C101.234 33.2659 102.135 32.8156 102.585 31.915C102.735 31.6148 102.885 31.4647 103.036 31.1645C103.486 30.2639 104.086 29.0632 104.687 27.7123C104.987 27.1119 105.287 26.3614 105.587 25.6109C105.737 25.3107 105.887 24.8604 106.037 24.5603C106.488 23.3595 106.788 22.0086 107.088 20.6577C107.388 19.0067 107.538 17.3556 107.388 15.7046C107.238 14.6539 107.088 13.6032 106.638 12.7026C106.338 12.1022 106.037 11.652 105.587 11.2017C104.687 10.151 103.636 9.40051 102.285 9.10031C101.985 8.95022 101.685 8.95022 101.384 8.80012C100.784 8.65002 100.034 8.65002 99.2831 8.65002C98.3825 8.80012 97.4819 8.95022 96.7315 9.40051C96.2812 9.7007 95.8309 9.8508 95.3806 10.3011C93.8796 11.5019 92.9791 13.303 92.6789 15.1042C91.0278 14.2036 89.0765 13.9034 87.2754 14.5038C86.8251 14.6539 86.3748 14.804 85.9245 15.1042C85.0239 15.5545 84.2735 16.1549 83.6731 16.7552C83.3729 17.2055 82.9226 17.6558 82.7725 18.1061C82.6224 18.5564 82.3222 18.8566 82.3222 19.3069C81.8719 20.5077 81.8719 21.8585 82.1721 23.2094C82.3222 23.8098 82.4723 24.4102 82.7725 24.8605C83.2228 25.761 83.8232 26.5115 84.7237 27.262C85.9245 28.3127 87.2754 29.2132 88.9265 29.9637C89.827 30.414 91.0278 30.8643 92.3787 31.3146Z" fill="#FFF3F6"/>
<path d="M91.328 220.136C91.6282 220.436 91.7783 220.736 92.0784 221.037C92.3786 221.487 92.6788 221.787 92.979 222.087C93.7295 222.988 94.48 223.738 95.0804 224.189C95.2305 224.339 95.3806 224.489 95.5307 224.639C96.1311 225.089 96.8815 225.239 97.4819 224.939C97.632 224.789 97.9322 224.789 98.0823 224.639C98.8328 224.189 99.7334 223.738 100.634 223.138C101.084 222.838 101.685 222.538 102.135 222.087C102.435 221.937 102.585 221.787 102.885 221.487C103.786 220.887 104.536 220.136 105.287 219.386C106.188 218.485 107.088 217.434 107.688 216.384C108.139 215.633 108.439 214.883 108.439 214.132C108.439 213.682 108.439 213.232 108.439 212.631C108.289 211.581 107.839 210.68 107.238 209.779C107.088 209.629 106.938 209.329 106.788 209.179C106.338 208.879 106.037 208.429 105.437 208.278C104.837 207.978 104.086 207.678 103.336 207.678C102.885 207.678 102.585 207.678 102.135 207.678C100.634 207.828 99.2831 208.579 98.2324 209.629C97.632 208.278 96.4312 207.228 94.9303 206.778C94.6301 206.627 94.1798 206.627 93.8796 206.477C93.1291 206.327 92.3786 206.477 91.6282 206.627C91.1779 206.778 90.8777 206.928 90.4274 207.078C90.1272 207.228 89.827 207.378 89.5268 207.678C88.7763 208.278 88.0258 209.179 87.7256 210.08C87.5756 210.53 87.4255 210.98 87.4255 211.431C87.2754 212.181 87.4255 213.082 87.5755 213.832C87.8757 215.033 88.4761 216.234 89.0765 217.434C89.9771 218.335 90.7276 219.236 91.328 220.136Z" fill="#FFF3F6"/>
<path d="M312.119 221.787C308.817 224.639 304.465 224.939 302.213 222.388C299.962 219.836 300.712 215.483 304.014 212.631C307.316 209.78 311.669 209.479 313.921 212.031C316.172 214.583 315.422 218.935 312.119 221.787Z" fill="#FFF3F6"/>
<path d="M379.693 115.255C381.968 114.795 383.333 112.051 382.742 109.126C382.152 106.201 379.828 104.202 377.553 104.662C375.278 105.121 373.913 107.865 374.503 110.79C375.094 113.716 377.418 115.714 379.693 115.255Z" fill="#FFF3F6"/>
<path d="M21.9834 105.763C19.1316 106.663 16.2797 105.463 15.6793 103.361C15.0789 101.11 16.73 98.7082 19.5818 97.8077C22.4337 96.9071 25.2855 98.1078 25.8859 100.209C26.4863 102.461 24.8352 104.862 21.9834 105.763Z" fill="#FFF3F6"/>
<path d="M262.74 18.2564C258.388 16.4552 255.986 12.2525 257.337 8.8003C258.688 5.34808 263.341 3.99721 267.694 5.79837C272.046 7.59953 274.448 11.8022 273.097 15.2544C271.896 18.7067 267.093 20.0575 262.74 18.2564Z" fill="#FFF3F6"/>
</g>
<defs>
<filter id="filter0_d_1110_1333" x="0.556641" y="0" width="397.324" height="341.408" filterUnits="userSpaceOnUse" color-interpolation-filters="sRGB">
<feFlood flood-opacity="0" result="BackgroundImageFix"/>
<feColorMatrix in="SourceAlpha" type="matrix" values="0 0 0 0 0 0 0 0 0 0 0 0 0 0 0 0 0 0 127 0" result="hardAlpha"/>
<feOffset dy="10"/>
<feGaussianBlur stdDeviation="7.5"/>
<feComposite in2="hardAlpha" operator="out"/>
<feColorMatrix type="matrix" values="0 0 0 0 0 0 0 0 0 0 0 0 0 0 0 0 0 0 0.25 0"/>
<feBlend mode="normal" in2="BackgroundImageFix" result="effect1_dropShadow_1110_1333"/>
<feBlend mode="normal" in="SourceGraphic" in2="effect1_dropShadow_1110_1333" result="shape"/>
</filter>
</defs>
</svg>
