<svg width="270" height="84" viewBox="0 0 270 84" fill="none" xmlns="http://www.w3.org/2000/svg">
<path d="M103.833 50.4286C104.27 50.1367 104.415 49.6988 104.634 49.2609C105.434 47.6553 105.87 45.9038 106.234 44.2252C106.67 42.1818 107.106 40.0653 107.543 38.0219C107.616 37.584 107.688 37.2191 107.834 36.8542C108.052 36.1243 108.416 35.9054 109.143 35.9784C110.307 36.0514 111.107 36.7812 111.689 37.7299C111.98 38.1678 112.198 38.6787 112.416 39.2625C112.707 38.9706 112.707 38.6057 112.78 38.3138C113.289 36.1244 113.943 33.9349 114.743 31.7455C115.325 30.2859 115.98 28.8263 116.925 27.5126C118.235 25.6881 119.762 25.4692 121.508 26.8558C122.671 27.8045 123.471 29.0452 123.98 30.3589C124.781 32.3293 125.217 34.3728 125.29 36.4893C125.435 39.7734 125.071 42.9845 124.781 46.2687C124.417 50.1367 124.199 54.0046 124.271 57.9456C124.271 58.8944 124.417 59.9161 124.635 60.8648C124.708 61.0838 124.708 61.3757 124.999 61.5946C125.435 61.1568 125.581 60.6459 125.799 60.135C126.381 58.5295 126.744 56.8509 127.108 55.1723C127.399 53.4938 127.763 51.8882 128.054 50.2096C128.126 49.7718 128.126 49.4069 128.054 48.969C127.108 44.0063 127.981 39.2625 130.163 34.7377C130.672 33.789 131.254 32.9132 132.054 32.1834C134.236 30.1399 138.018 31.2346 138.891 33.8619C139.764 36.4893 139.909 39.0436 139.109 41.6709C138.963 42.2547 138.673 42.7656 138.309 43.2765C137.436 44.5171 136.2 44.955 134.745 44.4442C134.527 44.3712 134.381 44.2252 134.09 44.2252C133.872 44.3712 133.945 44.5901 133.945 44.8091C133.799 47.7283 134.018 50.5745 135.109 53.3478C135.327 53.8587 135.545 54.4425 135.836 54.8804C136.054 55.1723 136.2 55.1723 136.491 54.9534C136.854 54.6615 137.145 54.2236 137.363 53.8587C137.872 52.9829 138.163 52.0342 138.382 51.0124C138.963 48.3851 139.4 45.7578 139.545 43.0575C139.545 42.7656 139.618 42.4737 139.982 42.4007C140.345 42.3277 140.709 42.4007 140.855 42.7656C141 43.0575 141 43.3494 141 43.7144C141 45.6848 140.782 47.5823 140.564 49.4798C140.418 50.8665 140.273 52.2531 139.909 53.5668C139.764 54.1506 139.618 54.7344 139.327 55.2453C138.673 56.486 137.654 57.2158 136.2 57.2158C134.963 57.2888 133.799 56.9239 132.708 56.1941C131.69 55.5372 130.817 54.6615 130.017 53.6397C129.872 53.4208 129.726 53.1289 129.508 52.9829C129.217 53.0559 129.29 53.3478 129.29 53.5668C128.926 55.6832 128.635 57.7996 128.126 59.9161C127.981 60.5729 127.763 61.2297 127.472 61.8866C126.235 64.3679 123.326 64.7328 121.58 62.6164C120.271 61.0838 119.616 59.2593 119.107 57.2888C118.307 54.0046 118.235 50.7205 118.38 47.3634C118.598 43.2765 119.107 39.2625 119.398 35.2486C119.544 33.1321 119.544 31.0887 119.253 28.9722C119.18 28.6803 119.18 28.3884 119.107 28.0965C118.598 28.1694 118.38 28.5343 118.162 28.8263C117.144 29.994 116.489 31.3076 115.907 32.7672C114.889 35.4675 114.234 38.2408 113.798 41.0141C113.361 43.7873 113.434 46.4876 113.434 49.2609C113.434 50.2826 113.434 51.3043 113.434 52.3261C113.361 53.3478 112.925 53.8587 111.907 54.0776C110.525 54.3695 109.361 53.9317 108.488 52.8369C107.761 51.9612 107.397 50.9394 107.179 49.8447C107.106 49.4069 107.034 48.969 106.961 48.5311C106.67 48.677 106.67 48.896 106.597 49.1149C106.379 49.6988 106.161 50.2826 105.943 50.7935C105.07 52.691 103.179 53.2748 101.361 52.3261C100.924 52.1071 100.488 51.7422 99.9059 51.4503C99.7604 52.472 99.6149 53.4208 99.3967 54.4425C99.1785 55.5372 99.0331 56.6319 98.6694 57.6537C98.4512 58.2375 98.233 58.8214 97.7966 59.3322C96.6329 60.9378 94.4509 61.3027 92.8508 60.135C92.3416 59.7701 91.9052 59.2593 91.4688 58.6754C90.5233 57.2888 89.9414 55.7562 89.4323 54.1506C89.2868 53.6397 89.1414 53.1289 88.9959 52.618C88.705 52.691 88.705 52.9829 88.705 53.1289C88.4868 54.5885 88.2686 55.9751 87.9049 57.4347C87.7595 58.0916 87.5413 58.7484 87.1776 59.4052C86.0139 61.5946 83.4682 62.1055 81.5044 60.5729C80.5589 59.8431 79.9043 58.8944 79.3952 57.7996C78.086 55.3913 77.5041 52.764 77.4314 50.0637C77.2859 46.5606 77.6496 43.1305 77.9405 39.6274C78.086 38.0948 78.2314 36.5622 78.1587 35.1026C78.1587 34.8107 78.086 34.5188 78.0132 34.1539C77.5768 34.2998 77.4314 34.6647 77.2132 34.8837C76.3404 36.0514 75.7585 37.438 75.3221 38.8246C74.3039 41.8898 73.8675 45.101 73.7947 48.3851C73.722 49.4798 73.722 50.5016 73.6493 51.5963C73.5038 53.4938 72.0491 54.2966 70.3035 53.4938C69.5762 53.1289 69.1398 52.545 68.7034 51.8882C68.5579 51.5963 68.3397 51.3773 68.1943 51.0124C67.9761 51.1584 67.9034 51.4503 67.8306 51.6693C67.5397 52.3261 67.3215 52.9829 66.9578 53.5668C65.6486 55.7562 63.3939 56.6319 60.921 55.7562C59.9755 55.4643 59.1754 54.8804 58.4481 54.2236C58.2299 54.0046 58.0844 53.7857 57.7207 53.6397C57.5025 53.9317 57.5025 54.3695 57.4298 54.6615C57.1389 55.8292 56.7752 57.0698 56.1933 58.1645C55.6842 59.1133 54.8842 59.9161 53.7932 60.208C52.484 60.5729 51.3202 60.208 50.302 59.3322C49.5019 58.6024 48.92 57.6537 48.4109 56.7049C48.2654 56.413 48.1927 56.1211 47.9018 55.9021C47.6836 56.486 47.5381 56.9969 47.3199 57.5077C46.5199 59.2593 45.0652 60.208 43.3196 60.062C42.3013 59.9891 41.5013 59.5512 40.774 58.8944C39.6102 57.7996 38.8829 56.486 38.301 55.0264C37.7919 53.7857 37.501 52.472 37.3555 51.1584C37.3555 51.0124 37.2828 50.7935 37.2828 50.6475C36.9918 50.7935 36.9918 51.0124 36.9918 51.2314C36.6282 52.545 36.3372 53.8587 35.6826 55.0994C34.5916 57.2888 32.4097 58.0916 30.2277 56.9969C28.9185 56.34 28.0457 55.2453 27.5366 53.9317C27.2456 53.1289 27.0274 52.3261 27.0274 51.4503C26.882 48.969 27.3184 46.5606 28.2639 44.2982C28.6275 43.3494 29.2094 42.4737 29.9367 41.7439C31.6096 40.1383 34.4462 39.8464 36.3372 41.0141C36.7736 41.306 37.1373 41.6709 37.501 42.1088C37.8646 42.0358 37.7919 41.7439 37.7919 41.5979C38.1556 40.1383 38.4465 38.6057 38.8102 37.1461C39.1011 35.9784 39.5375 35.6865 40.7012 35.6865C42.7377 35.6865 44.0469 36.9271 44.2651 38.9706C44.4106 40.6492 44.1924 42.3277 43.9742 44.0063C43.5378 47.4364 43.1741 50.8665 43.5378 54.2966C43.6105 55.2453 43.756 56.1211 44.1197 56.9969C44.2651 57.3618 44.4106 57.7267 44.7743 57.9456C45.2834 57.5077 45.5743 56.9969 45.7925 56.413C46.3017 55.0994 46.5926 53.7127 46.8835 52.3261C46.9563 52.1071 46.9563 51.8152 46.8835 51.5963C46.1562 47.5093 46.3744 43.4224 46.6653 39.2625C46.8835 36.1973 47.2472 33.2051 47.9018 30.2129C47.9745 29.848 47.9018 29.6291 47.6109 29.4101C46.3744 28.6803 45.2107 27.8775 43.9015 27.2937C42.0831 26.4179 40.1921 26.2719 38.301 26.7828C36.8464 27.2207 35.4644 27.8045 34.228 28.6803C33.4279 29.2642 32.6279 29.848 32.2642 30.7968C32.1187 31.2346 31.8278 31.0887 31.5369 31.0157C31.2459 30.9427 31.1005 30.7238 31.1732 30.4318C31.2459 30.0669 31.4641 29.775 31.6823 29.5561C32.3369 28.7533 33.137 28.0965 34.0825 27.5856C36.3372 26.3449 38.7374 25.4692 41.4286 25.8341C42.8832 26.053 44.1924 26.5639 45.4289 27.2207C46.3744 27.7316 47.2472 28.2424 48.12 28.7533C48.4836 28.5344 48.4836 28.0965 48.5564 27.8045C49.1382 25.98 49.8656 24.3015 50.8838 22.7689C51.9021 21.2363 53.2113 19.9226 54.8114 18.9739C56.2661 18.1711 57.7207 17.9521 59.2481 18.7549C60.4119 19.3388 61.0665 20.2875 61.0665 21.5282C61.1392 25.3232 59.6845 28.3884 56.557 30.5778C55.8297 31.0887 55.0296 31.3806 54.1568 31.4536C53.6477 31.5266 53.5022 31.7455 53.4295 32.1834C53.1386 34.1539 52.9204 36.1243 52.7022 38.0948C52.3385 42.9845 52.0476 47.8743 52.0476 52.8369C52.0476 54.0776 52.1203 55.2453 52.484 56.413C52.6294 56.9969 52.8476 57.5077 53.1386 58.0186C53.4295 58.4565 53.575 58.4565 53.8659 58.0186C54.0841 57.6537 54.3023 57.2888 54.4478 56.9239C55.2478 55.0994 55.6842 53.2019 56.1206 51.3044C56.1933 51.0124 56.1206 50.7935 56.0479 50.5745C55.1023 47.3634 55.2478 44.0793 55.9024 40.7951C56.1206 39.6274 56.4843 38.4597 56.9207 37.365C57.2843 36.5622 57.648 35.7594 58.2299 35.1026C59.9027 33.1321 63.0302 32.9132 64.9213 34.5918C65.4304 35.0296 65.7941 35.5405 65.9396 36.1973C66.376 37.9489 66.3032 39.7004 65.6486 41.452C64.994 43.1305 64.0485 43.7144 62.2302 43.6414C61.7938 43.6414 61.721 43.7873 61.6483 44.1522C61.3574 46.8525 61.5756 49.4798 62.2302 52.0342C62.3756 52.545 62.5211 52.9829 62.812 53.4208C63.3212 54.2236 63.5394 54.2236 64.194 53.6397C64.5576 53.2748 64.9213 52.837 65.2122 52.3991C66.0123 51.1584 66.5214 49.7718 67.0306 48.4581C67.176 48.0932 67.1033 47.7283 67.1033 47.3634C66.8124 44.2982 67.2488 41.379 68.1943 38.4597C68.4125 37.8029 68.6307 37.2191 68.9943 36.6352C69.7944 35.5405 71.1036 35.1756 72.3401 35.6865C72.9947 35.9784 73.3583 36.5622 73.3583 37.292C73.3583 37.9489 73.3583 38.6787 73.5038 39.4085C73.5765 39.1166 73.722 38.8246 73.7947 38.5327C74.3039 37.0001 74.8857 35.4675 75.6858 34.0809C75.904 33.716 76.0494 33.4241 76.2676 33.1321C77.2859 31.7455 78.2314 31.4536 79.9043 32.0374C81.359 32.6213 82.3045 33.716 82.9591 35.1026C83.5409 36.4163 83.7591 37.8759 83.8319 39.3355C83.9046 41.16 83.6864 42.9845 83.5409 44.8091C83.3227 47.9472 83.0318 51.0854 83.0318 54.2236C83.0318 55.4643 83.1045 56.6319 83.4682 57.7996C83.6137 58.3835 83.8319 58.9673 84.1955 59.4052C84.4137 59.6971 84.6319 59.6971 84.8501 59.4052C85.2138 58.9673 85.5047 58.4565 85.7229 57.9456C86.2321 56.6319 86.523 55.3183 86.8139 53.9317C87.1776 52.1071 87.4685 50.2826 87.7595 48.5311C87.9777 47.4364 87.9777 46.2687 87.9777 45.101C87.9049 40.9411 88.1959 36.7082 88.6323 32.5483C88.7777 31.1617 88.9232 29.775 88.9959 28.3884C88.9959 28.1694 89.0686 28.0235 88.9232 27.8045C88.5595 27.7316 88.3413 27.9505 88.0504 28.0235C85.5047 28.9722 82.9591 29.4831 80.268 29.2642C77.3586 28.9722 74.6675 28.0235 72.4128 26.053C70.6672 24.5204 69.6489 22.6229 69.0671 20.4335C69.0671 20.3605 69.0671 20.2875 69.0671 20.2145C68.9944 19.7767 68.8489 19.3388 69.358 19.0468C69.7217 18.8279 70.3763 18.9739 70.7399 19.3388C70.9581 19.5577 71.1763 19.8496 71.3218 20.0686C71.9037 20.8714 72.4855 21.6742 73.1401 22.404C75.9767 25.7611 79.5406 27.0747 83.9046 26.199C85.5775 25.8341 87.1049 25.3232 88.705 24.8123C89.2141 24.6664 89.3596 24.3744 89.4323 23.8636C89.5778 21.1633 89.6505 18.463 89.6505 15.7627C89.6505 15.3978 89.5778 15.0329 89.4323 14.668C89.2141 14.2301 89.4323 13.9382 89.9415 14.0112C90.596 14.0842 91.1052 14.4491 91.5416 14.8869C92.2689 15.6168 92.7053 16.4195 93.1417 17.2953C93.7236 18.536 94.0872 19.8496 94.4509 21.1633C94.5236 21.4552 94.5236 21.8201 94.7418 22.112C95.251 21.8931 95.7601 21.6012 96.2692 21.3822C99.0331 20.0686 101.797 18.6819 104.706 17.8062C106.888 17.1494 109.143 16.8574 111.398 17.3683C112.27 17.5872 112.998 17.9521 113.652 18.463C113.871 18.609 114.016 18.7549 114.162 18.9739C114.38 19.3388 114.234 19.7037 113.798 19.7767C113.434 19.8496 113.143 19.7037 112.852 19.4847C111.252 18.317 109.507 18.1711 107.616 18.609C106.015 18.9739 104.488 19.6307 103.033 20.2875C100.488 21.5282 98.0148 22.9148 95.4691 24.3015C95.0327 24.5204 94.8873 24.8123 94.8873 25.3232C95.2509 29.775 94.7418 34.2269 94.3782 38.6787C94.0145 43.2765 93.5781 47.8743 93.7236 52.545C93.7963 54.0046 93.869 55.4643 94.3054 56.8509C94.4509 57.4347 94.6691 58.0186 95.0328 58.5294C95.251 58.8214 95.4692 58.8943 95.6874 58.5294C96.1238 58.0186 96.3419 57.3618 96.6329 56.7779C97.2147 55.3183 97.5057 53.7127 97.7966 52.1801C97.8693 51.9612 97.8693 51.7422 97.9421 51.5233C98.233 50.2826 98.233 49.1149 97.6511 47.9472C96.9965 46.6336 96.9965 45.174 97.0693 43.7144C97.142 42.0358 97.3602 40.3572 97.7966 38.7517C97.9421 38.1678 98.1603 37.6569 98.4512 37.1461C98.7421 36.6352 99.1058 36.2703 99.6877 36.1973C100.488 36.0514 101.361 36.1243 102.088 36.5622C102.815 37.0001 103.252 37.584 103.324 38.4597C103.397 39.2625 103.397 40.0653 103.324 40.8681C103.179 43.3494 103.179 45.8308 103.179 48.3121C103.543 49.0419 103.47 49.7718 103.833 50.4286ZM33.3552 54.8074C33.8643 54.3695 34.1552 53.8587 34.3734 53.3478C35.3917 51.0854 36.0463 48.823 36.7009 46.4146C36.7736 46.1957 36.8464 45.9038 36.7009 45.6848C36.2645 44.8091 35.6826 44.0793 34.8099 43.4954C32.9915 47.0715 32.5551 50.8665 33.3552 54.8074ZM58.739 21.0903C56.7752 22.0391 53.9386 27.6586 54.0841 30.3589C57.2116 29.775 60.1209 24.3015 58.739 21.0903ZM136.636 34.8837C136.345 35.1026 136.272 35.2486 136.2 35.3945C135.327 37.292 134.818 39.3355 134.527 41.379C134.527 41.5249 134.454 41.6709 134.527 41.8169C134.527 42.2547 135.109 43.0575 135.472 43.0575C135.981 43.0575 136.127 42.6196 136.345 42.3277C136.418 42.1818 136.491 42.0358 136.563 41.8898C137.582 39.6274 137.436 37.365 136.636 34.8837ZM63.5394 37.0731C62.7393 38.6057 62.4484 40.1383 62.1574 41.8169C62.0847 42.1088 62.3029 42.2547 62.5211 42.4007C62.7393 42.5467 62.9575 42.4737 63.103 42.3277C63.2484 42.1818 63.3939 42.0358 63.5394 41.8169C64.4122 40.2843 64.3394 38.6787 63.5394 37.0731Z" fill="#CD2149"/>
<path d="M183.143 38.3519C183.805 37.6843 184.32 37.1651 184.762 36.5717C184.982 36.3491 184.982 35.9783 185.056 35.6816C185.571 32.1953 186.233 28.7832 187.263 25.4453C187.852 23.4425 188.661 21.5881 189.765 19.8079C192.12 16.0249 195.357 15.0606 199.404 16.915C201.096 17.7309 202.568 18.8436 203.819 20.2529C205.658 22.3299 206.909 24.7777 207.718 27.3738C207.939 28.0414 208.233 28.3381 208.896 28.3381C209.852 28.4123 210.735 28.6348 211.544 29.0057C211.839 29.1541 212.059 29.1541 212.354 28.9315C214.487 27.2997 216.916 27.3738 218.902 29.1541C218.976 29.2282 219.049 29.2282 219.123 29.3024C219.417 29.3024 219.344 29.0057 219.417 28.8574C219.785 28.0414 220.153 27.8931 221.036 28.0414C222.508 28.3381 223.538 29.3024 224.2 30.6376C224.641 31.5277 224.862 32.492 224.936 33.5304C225.23 36.275 225.083 39.0937 225.083 41.8382C225.083 42.9508 225.083 44.0635 225.304 45.1761C225.377 45.6212 225.524 46.0662 225.745 46.4371C226.187 46.1404 226.407 45.7695 226.554 45.3245C227.437 43.3959 227.952 41.3931 228.467 39.3904C228.541 39.0937 228.467 38.797 228.394 38.5003C227.732 35.3849 228.32 32.3436 229.498 29.4508C229.645 29.0799 229.865 28.7832 230.086 28.4865C230.38 28.1156 230.748 27.8931 231.19 27.7447C232.294 27.448 234.059 28.1156 234.648 29.0799C234.869 29.5249 234.942 29.97 234.869 30.4151C234.722 32.0469 234.574 33.6788 234.427 35.3107C234.28 36.72 234.28 38.2035 234.354 39.6871C234.354 39.8354 234.28 39.9838 234.501 40.1321C234.795 40.058 234.942 39.7612 235.09 39.4645C236.267 37.7585 237.003 35.9041 237.665 33.9755C237.738 33.6046 237.738 33.3079 237.738 32.937C237.738 32.0469 237.665 31.1568 237.591 30.2667C237.591 29.5991 237.591 28.9315 237.738 28.264C237.959 27.2255 238.621 26.8546 239.651 27.003C241.197 27.2255 242.3 28.1156 242.815 29.5991C243.478 31.3052 243.919 33.0854 244.213 34.9398C245.023 39.9838 245.17 45.0277 244.802 50.0717C244.802 50.4426 244.802 50.8135 244.728 51.1102C244.655 51.5553 244.802 51.8519 245.17 52.0745C248.26 53.7805 250.1 56.5992 251.792 59.6404C251.939 59.863 252.086 60.1597 251.939 60.4564C251.718 60.8273 251.35 60.8273 250.983 60.8273C250.467 60.7531 250.026 60.5306 249.658 60.1597C249.217 59.7146 248.775 59.1954 248.407 58.6762C247.377 57.4893 246.347 56.3025 245.243 55.1899C245.023 54.9674 244.802 54.6706 244.434 54.5223C244.213 54.819 244.213 55.1899 244.14 55.4866C243.036 62.2366 240.682 68.5416 236.708 74.1048C234.795 76.7751 232.661 79.2229 230.013 81.0773C228.1 82.4125 226.039 83.451 223.758 83.8219C219.491 84.4894 215.812 83.3026 212.942 79.8905C208.896 75.0691 208.233 68.0965 211.176 62.2366C213.457 57.8602 216.842 54.6706 221.11 52.3712C226.039 49.7008 231.263 48.7366 236.855 49.33C237.591 49.4041 237.665 49.4041 237.665 48.6624C237.886 45.6212 237.886 42.5799 237.812 39.4645C237.812 39.3162 237.812 39.242 237.665 39.0937C237.444 39.3162 237.37 39.6129 237.223 39.9096C236.855 40.6514 236.561 41.3931 236.046 41.9865C235.237 42.9508 234.207 43.3959 233.029 43.1733C231.999 43.025 231.043 42.6541 230.307 41.9123C230.16 41.764 230.013 41.6156 229.718 41.5415C229.571 42.1349 229.424 42.7283 229.277 43.3217C228.982 44.4343 228.615 45.6212 228.173 46.7338C227.29 48.7366 225.23 49.4041 223.317 48.2173C222.802 47.9206 222.36 47.4756 221.993 46.9563C220.447 44.8052 219.491 42.4316 218.976 39.8354C218.976 39.6871 218.976 39.4645 218.829 39.3162C218.534 39.4645 218.608 39.7613 218.534 39.9838C218.314 41.0964 218.019 42.2832 217.578 43.3217C216.548 45.547 214.414 45.992 212.574 44.3602C211.618 43.4701 210.956 42.3574 210.514 41.1706C209.19 37.7585 209.558 34.3464 211.029 31.0085C211.103 30.7859 211.25 30.5634 211.324 30.3409C211.324 30.3409 211.324 30.2667 211.324 30.1925C210.514 29.6733 209.558 29.6733 208.601 29.5249C208.38 29.4508 208.307 29.6733 208.307 29.8958C208.38 30.5634 208.528 31.231 208.528 31.8986C208.896 36.9426 208.013 41.8382 206.173 46.5113C204.113 51.7778 201.17 56.4509 197.197 60.3822C195.21 62.3108 193.003 63.8685 190.354 64.6844C188.22 65.352 186.086 65.4262 183.952 64.6844C180.936 63.6459 179.096 61.3465 178.066 58.3794C177.183 55.7833 177.183 53.0388 177.625 50.3684V50.2943C177.992 49.2558 177.772 48.2915 177.33 47.253C176.079 43.9151 175.417 40.4288 175.123 36.8684C174.829 32.8629 175.049 28.8574 175.932 24.8518C176.374 22.9974 176.889 21.2172 177.698 19.437C177.992 18.7694 178.434 18.1018 178.949 17.5084C179.39 16.9892 179.979 16.6925 180.715 16.6183C182.407 16.47 183.29 17.2117 183.069 18.9178C182.702 21.6623 182.407 24.481 182.334 27.2997C182.26 30.8601 182.481 34.4947 183.143 38.3519ZM233.839 50.6651C231.337 50.7393 228.909 50.9618 226.628 51.7778C221.404 53.4838 217.063 56.3767 214.046 61.0498C211.397 65.2037 210.588 69.6542 212.207 74.4015C213.016 76.7751 214.34 78.7779 216.327 80.3356C219.123 82.5609 222.287 82.7834 225.377 81.0032C226.554 80.3356 227.584 79.4455 228.541 78.4812C231.043 75.885 232.735 72.6954 233.986 69.3575C235.384 65.7229 236.193 61.9399 236.782 58.1569C237.15 56.0058 237.37 53.8547 237.591 51.6294C237.665 51.1844 237.518 50.9618 237.003 50.8877C235.899 50.7393 234.795 50.7393 233.839 50.6651ZM179.464 51.6294C179.243 52.0003 179.243 52.3712 179.243 52.6679C179.17 53.7064 179.243 54.7448 179.464 55.7091C179.906 58.2311 180.936 60.5306 183.069 62.0883C184.982 63.5718 187.043 63.7943 189.324 62.83C190.574 62.2366 191.678 61.4207 192.708 60.4564C194.327 58.8987 195.578 57.1185 196.608 55.1157C198.742 51.036 200.14 46.6596 201.17 42.1349C201.979 38.3519 202.494 34.5689 202.347 30.7118C202.273 29.4508 202.273 29.4508 201.023 29.6733C195.799 30.6376 191.31 33.0112 187.337 36.4975C186.969 36.7942 186.822 37.1651 186.748 37.6843C186.748 38.5003 186.675 39.3904 186.601 40.2063C186.454 44.6569 186.601 49.1816 187.999 53.4838C188.441 54.819 187.705 55.4866 186.748 55.8575C185.497 56.3025 184.394 56.08 183.29 55.4124C182.481 54.9673 181.819 54.3739 181.303 53.6322C180.568 53.1129 180.053 52.4454 179.464 51.6294ZM187.116 34.3464C187.484 34.3464 187.705 34.0497 187.926 33.8272C190.869 31.6761 193.959 30.0442 197.491 29.0799C198.742 28.709 200.066 28.5607 201.317 28.4123C201.758 28.3381 201.906 28.1898 201.832 27.7447C201.611 26.5579 201.317 25.3711 200.875 24.1843C200.287 22.7007 199.625 21.2914 198.521 20.1046C197.785 19.2886 196.829 18.6952 195.725 18.6952C194.474 18.6952 193.37 19.2886 192.487 20.1046C191.531 21.0689 190.722 22.1815 190.133 23.3683C188.661 26.2612 187.852 29.3766 187.263 32.5662C187.19 33.1596 186.969 33.753 187.116 34.3464ZM215.297 43.3217C215.959 42.8025 216.253 42.1349 216.474 41.4673C217.578 38.5744 218.019 35.459 218.608 32.4178C218.608 32.2695 218.681 32.0469 218.461 31.8986C217.872 31.6019 217.357 31.7502 217.063 32.3436C216.842 32.7145 216.695 33.0854 216.548 33.4563C215.812 35.5332 215.297 37.6843 215.003 39.9096C214.929 41.0222 214.855 42.1349 215.297 43.3217ZM184.467 39.6129C184.099 39.9838 183.511 40.2805 183.584 40.8739C183.658 41.8382 183.879 42.8025 184.32 43.6926C184.32 42.3574 184.541 41.0222 184.467 39.6129Z" fill="#CD2149"/>
<path d="M22.3077 10.526C23.1206 9.94209 23.9334 9.35819 24.7463 8.7743C27.4065 6.87664 30.0667 5.12495 33.0225 3.7382C35.3132 2.64339 37.6778 1.91352 40.1903 1.69456C44.1067 1.40261 47.5797 2.35145 50.3877 5.34391C53.7869 9.06625 53.4913 13.3725 51.644 16.7299C50.8311 18.1896 49.7227 19.3574 48.2448 20.1603C46.9147 20.8901 45.5846 20.8901 44.1067 20.4522C43.7372 20.3792 43.4416 20.1603 43.22 19.9413C42.9983 19.7223 42.8505 19.4304 42.9983 19.0655C43.1461 18.7735 43.4416 18.5546 43.7372 18.6275C43.885 18.6275 44.0328 18.6275 44.1806 18.7005C44.5501 18.8465 44.7717 18.7005 44.9195 18.4816C47.0625 16.073 48.4665 13.2995 48.6143 10.0151C48.6882 8.70131 48.2448 7.46053 47.432 6.36573C46.3974 5.05196 45.1412 4.32209 43.3677 4.32209C41.3726 4.32209 39.5991 4.833 37.7517 5.56287C35.461 6.5117 33.3181 7.75248 31.249 9.06625C28.7366 10.7449 26.2981 12.4966 23.7856 14.2483C23.3423 14.5403 23.2684 14.8322 23.4162 15.2701C24.3029 18.7005 24.8202 22.2039 25.1896 25.7803C25.4113 27.9699 25.5591 30.1595 25.7069 32.3491C25.9286 36.3634 25.9286 40.3047 25.7069 44.319C25.4852 48.3332 25.1896 52.3475 24.1551 56.2888C23.8595 57.4566 23.564 58.5514 22.9728 59.5732C21.5688 62.0548 18.8347 62.7117 16.3962 61.1789C15.3616 60.5221 14.5488 59.7192 13.8098 58.7704C11.6669 56.1428 10.2629 53.2234 9.00669 50.1579C7.01153 45.3408 5.53364 40.3047 4.12964 35.2686C3.68627 33.5899 3.09511 31.9112 2.28227 30.3784C1.76501 29.4296 1.17385 28.4808 0.287113 27.8969C-0.0823609 27.6049 -0.0823597 27.386 0.213219 27.021C0.434903 26.7291 0.804377 26.6561 1.17385 26.5831C2.20838 26.4371 3.2429 26.5101 4.20353 26.8751C7.08543 27.9699 9.37617 29.6486 10.7063 32.4951C12.0364 35.3416 12.997 38.261 13.8098 41.2535C14.9183 45.4138 15.8789 49.647 17.2829 53.8073C17.6524 54.9751 18.0957 56.2158 18.613 57.3836C18.9086 58.1135 19.352 58.7704 19.8692 59.3543C20.1648 59.6462 20.3865 59.6462 20.6082 59.2813C20.9776 58.6974 21.2732 58.0405 21.4949 57.3836C22.2338 55.34 22.5294 53.2234 22.825 51.0338C23.4901 45.4867 23.7117 39.8668 23.564 34.2468C23.564 28.4078 23.0467 22.6418 21.8644 16.9488C21.7905 16.5839 21.7905 16.292 21.5688 15.927C21.1254 16 20.9037 16.219 20.5343 16.4379C19.0564 17.3138 17.5046 18.1166 15.8789 18.6275C14.4749 19.0655 12.997 19.2114 11.5191 18.9925C9.52395 18.6275 7.97217 17.6057 7.01153 15.781C6.56817 14.8322 6.27259 13.8834 6.1248 12.8616C5.75532 9.50417 6.19869 6.36573 7.89827 3.37326C8.19385 2.86235 8.56332 2.35144 8.9328 1.91352C10.7063 -0.0571254 13.1448 -0.568035 15.5094 0.672744C16.8395 1.32963 17.8002 2.35145 18.6869 3.51924C20.017 5.34391 21.0515 7.38754 21.8644 9.50417C21.9383 9.8691 22.0122 10.234 22.3077 10.526ZM8.71111 9.94209C8.71111 10.7449 8.71111 11.5478 8.9328 12.2777C9.08059 12.7886 9.22837 13.2995 9.37616 13.8104C9.67174 14.6862 10.189 15.4891 10.928 16.073C11.4452 16.5109 12.0364 16.6569 12.7014 16.5109C13.2926 16.3649 13.8837 16.146 14.401 15.854C16.4701 14.8322 18.2435 13.5185 20.0909 12.2047C20.3865 11.9857 20.5343 11.7668 20.3865 11.4018C19.4997 8.7743 18.5391 6.29274 16.9134 4.03014C16.3962 3.30027 15.805 2.57041 14.9922 2.0595C13.8837 1.25664 12.8492 1.25664 11.7408 2.0595C11.0757 2.57041 10.6324 3.1543 10.189 3.88417C9.15448 5.78183 8.71111 7.82547 8.71111 9.94209Z" fill="#CD2149"/>
<path d="M151.7 20.4088C151.554 22.7074 150.895 24.7762 150.018 26.8449C149.872 27.3047 149.652 27.6878 149.433 28.0709C149.14 28.6072 149.14 29.0669 149.36 29.6033C150.53 32.7447 151.846 35.7329 153.016 38.7977C153.309 39.4873 153.309 39.4873 154.113 39.2575C155.283 38.8744 156.453 38.6445 157.696 39.0276C158.135 39.1042 158.501 39.2575 158.793 39.6406C158.939 39.8704 159.086 40.1003 158.939 40.3302C158.793 40.56 158.501 40.4834 158.354 40.3302C156.892 39.4107 155.649 40.2535 154.332 40.7899C154.04 40.9431 154.113 41.173 154.186 41.4795C154.406 42.0924 154.625 42.7054 154.771 43.395C155.576 45.8468 156.234 48.3753 156.453 50.9804C156.672 53.4323 156.38 55.7309 155.21 57.9529C153.894 60.3281 151.627 61.4008 149.067 60.8645C147.605 60.558 146.508 59.7152 145.85 58.336C145.191 57.0334 144.972 55.6543 144.972 54.1985C144.972 50.5207 145.923 47.1494 148.043 44.1612C148.409 43.6248 148.555 43.1651 148.336 42.5522C147.532 40.1769 146.8 37.7251 146.069 35.3498C145.923 34.9667 145.85 34.5836 145.338 34.4304C144.826 34.2771 144.826 33.894 145.118 33.5109C145.338 33.1278 145.265 32.7447 145.191 32.3616C144.68 30.676 144.241 28.9137 144.095 27.0748C143.802 24.3931 144.168 21.8646 145.484 19.4894C145.85 18.7998 146.361 18.1868 146.946 17.7271C148.921 16.1947 151.334 17.1907 151.7 19.7192C151.7 19.7958 151.7 20.1023 151.7 20.4088ZM149.14 45.5404C148.775 45.7702 148.702 46.0767 148.555 46.3066C147.824 47.6857 147.312 49.0649 147.02 50.5973C146.654 52.5128 146.581 54.505 147.093 56.4205C147.312 57.2633 147.678 58.1061 148.409 58.7191C149.579 59.7152 150.749 59.4087 151.188 57.7996C151.48 56.8802 151.407 55.8841 151.261 54.9647C150.969 52.8959 150.53 50.8272 150.091 48.835C149.798 47.7623 149.579 46.6897 149.14 45.5404ZM148.555 26.5385C148.848 26.5385 148.848 26.3852 148.921 26.232C149.652 24.4697 150.091 22.7074 150.164 20.7919C150.164 20.3322 150.091 19.7958 150.018 19.3361C150.018 19.1063 150.018 18.7232 149.725 18.7232C149.433 18.6465 149.287 18.953 149.14 19.1829C148.848 19.6426 148.628 20.179 148.482 20.7153C147.897 22.6308 148.043 24.5463 148.555 26.5385Z" fill="#CD2149"/>
<path d="M141 24.969C141 25.0441 141 25.2693 141 25.4194C140.954 25.9448 140.722 26.0949 140.399 25.9448C140.121 25.7947 139.844 25.4945 139.797 24.969C139.705 24.2935 139.474 23.618 139.196 23.0925C139.057 22.8674 138.919 22.5671 139.057 22.2669C139.196 21.9666 139.381 21.9666 139.612 22.0417C140.491 22.2669 141 23.3177 141 24.969Z" fill="#CD2149"/>
<path d="M256.123 17.0579C256.241 17.3684 256.36 17.6167 256.478 17.9272C256.655 18.2997 256.773 18.6101 256.951 18.9205C257.364 19.7277 257.719 20.4106 258.074 20.9694C258.192 21.1556 258.251 21.2798 258.369 21.404C258.665 21.9007 259.197 22.0869 259.729 21.9627C259.847 21.9007 260.024 21.9007 260.202 21.8386C260.793 21.7144 261.561 21.4661 262.33 21.2177C262.743 21.0935 263.157 20.9694 263.571 20.7831C263.807 20.721 263.985 20.5969 264.221 20.5348C264.93 20.2243 265.699 19.8518 266.349 19.4793C267.236 18.9826 268.004 18.3618 268.654 17.6788C269.068 17.1821 269.423 16.6854 269.659 16.1267C269.777 15.7541 269.896 15.4437 269.955 15.0712C270.073 14.2641 269.955 13.457 269.659 12.7119C269.6 12.5257 269.482 12.3394 269.423 12.1531C269.245 11.7806 269.009 11.4702 268.713 11.1598C268.359 10.7873 267.886 10.4768 267.413 10.2285C267.117 10.1043 266.822 10.0422 266.526 9.98013C265.462 9.79387 264.339 10.0422 263.453 10.6631C263.453 10.6631 263.453 10.6631 263.453 10.601C263.216 9.48344 262.625 8.49007 261.679 7.80712C261.443 7.62086 261.206 7.49669 260.911 7.37252C260.379 7.12417 259.847 7.06209 259.315 7C259.019 7 258.665 7.06209 258.369 7.12417C258.133 7.18626 257.896 7.24834 257.66 7.37252C256.951 7.68295 256.36 8.17964 255.887 8.8005C255.709 9.11093 255.532 9.42136 255.355 9.79387C255.118 10.3526 255 10.9735 255 11.6565C255 12.5877 255.118 13.5811 255.414 14.6366C255.532 15.5058 255.828 16.3129 256.123 17.0579Z" fill="#CD2149"/>
<path d="M242.524 24.6937C242.579 24.8386 242.634 24.9545 242.69 25.0993C242.772 25.2732 242.828 25.418 242.91 25.5629C243.103 25.9396 243.269 26.2583 243.434 26.519C243.49 26.606 243.517 26.6639 243.572 26.7219C243.71 26.9536 243.958 27.0406 244.207 26.9826C244.262 26.9536 244.345 26.9536 244.427 26.9247C244.703 26.8667 245.062 26.7508 245.42 26.6349C245.614 26.577 245.807 26.519 246 26.4321C246.11 26.4031 246.193 26.3452 246.303 26.3162C246.634 26.1714 246.993 25.9975 247.296 25.8237C247.71 25.5919 248.069 25.3022 248.372 24.9834C248.565 24.7517 248.731 24.5199 248.841 24.2591C248.896 24.0853 248.951 23.9404 248.979 23.7666C249.034 23.3899 248.979 23.0132 248.841 22.6656C248.813 22.5786 248.758 22.4917 248.731 22.4048C248.648 22.231 248.538 22.0861 248.4 21.9412C248.234 21.7674 248.013 21.6225 247.793 21.5066C247.655 21.4487 247.517 21.4197 247.379 21.3907C246.882 21.3038 246.358 21.4197 245.945 21.7094C245.945 21.7094 245.945 21.7094 245.945 21.6805C245.834 21.1589 245.558 20.6954 245.117 20.3767C245.007 20.2897 244.896 20.2318 244.758 20.1738C244.51 20.0579 244.262 20.029 244.014 20C243.876 20 243.71 20.029 243.572 20.0579C243.462 20.0869 243.352 20.1159 243.241 20.1738C242.91 20.3187 242.634 20.5505 242.414 20.8402C242.331 20.9851 242.248 21.13 242.165 21.3038C242.055 21.5646 242 21.8543 242 22.173C242 22.6076 242.055 23.0712 242.193 23.5637C242.248 23.9694 242.386 24.346 242.524 24.6937Z" fill="#CD2149"/>
</svg>
