<svg width="29" height="32" viewBox="0 0 29 32" fill="none" xmlns="http://www.w3.org/2000/svg">
<path opacity="0.5" d="M12.8972 9.23364C14.9386 8.56887 16.8418 7.5255 18.5077 6.15194C21.0972 3.95072 24.5499 3.07024 26.7078 9.23364C28.8657 15.397 30.1605 26.4031 20.6657 29.9251C11.1708 33.447 5.12867 29.9251 2.10759 24.2019C-0.913494 18.4787 -0.481911 12.7556 5.12867 10.9946C10.7392 9.23364 11.6024 9.67388 12.8972 9.23364Z" fill="#7FE3C7"/>
<path d="M14.125 21.7667C11.7334 21.7667 9.4117 20.9383 7.56837 19.445C5.74837 17.9517 4.4767 15.875 3.9867 13.5767C3.9167 13.215 3.87003 12.8417 3.83503 12.48L3.7417 11.71V11.1033L3.7767 10.7067C3.80003 10.415 3.82337 10.1233 3.87003 9.83167C4.18503 7.81333 5.0367 6.01667 6.37837 4.5C7.98837 2.70333 9.99503 1.58333 12.3634 1.16333C12.6317 1.11667 12.9117 1.08167 13.18 1.04667L13.565 1H14.755L15.1167 1.04667C15.3967 1.08167 15.6534 1.11667 15.91 1.16333C18.0917 1.53667 19.9817 2.52833 21.545 4.115C23.295 5.9 24.2867 8.035 24.4734 10.4617C24.7534 13.9617 23.5517 16.925 20.9267 19.2467C19.305 20.6817 17.3684 21.51 15.1517 21.72C14.8017 21.755 14.4634 21.7667 14.125 21.7667ZM14.1484 2.21333C11.71 2.21333 9.4117 3.17 7.67337 4.90833C5.93503 6.64667 4.9667 8.95667 4.9667 11.395C4.9667 13.845 5.92337 16.1433 7.6617 17.8817C9.40003 19.62 11.71 20.5767 14.16 20.5767C19.2117 20.5767 23.3417 16.4583 23.3534 11.4067C23.365 8.98 22.4084 6.68167 20.67 4.93167C18.92 3.18167 16.61 2.21333 14.16 2.21333H14.1484ZM11.9317 16.2133C11.3134 16.2133 10.7767 15.7233 10.7184 15.105C10.7067 14.9883 10.695 14.86 10.695 14.7317V7.93C10.695 7.195 11.255 6.62333 11.955 6.62333C12.06 6.62333 12.165 6.635 12.2584 6.65833C12.3984 6.69333 12.5384 6.75167 12.7017 6.845C14.5684 7.91833 16.5634 9.06167 18.5117 10.1933C18.9784 10.4617 19.2584 10.835 19.34 11.2783C19.4217 11.6867 19.27 12.06 18.8967 12.375C18.815 12.445 18.7334 12.4917 18.64 12.55L12.8417 15.91C12.69 16.0033 12.5267 16.0733 12.3517 16.1317C12.2117 16.1783 12.0717 16.2133 11.9317 16.2133ZM11.92 7.895L11.9084 8V14.7667L11.92 14.9183L12.06 14.965L12.2234 14.8833L17.9634 11.57C18.045 11.5233 18.0917 11.5 18.115 11.4767L18.22 11.3717L18.1034 11.29L17.94 11.185L12.0134 7.76667L11.92 7.895Z" fill="#1F2430" stroke="#1F2430" stroke-width="0.2"/>
</svg>
