<svg xmlns="http://www.w3.org/2000/svg" width="40" height="40" viewBox="0 0 40 40">
  <g id="Group_3107" data-name="Group 3107" transform="translate(-485 -582)">
    <circle id="Ellipse_7" data-name="Ellipse 7" cx="20" cy="20" r="20" transform="translate(485 582)" fill="#33bc48"/>
    <g id="Group_3106" data-name="Group 3106" transform="translate(375.668 375.036)">
      <path id="Path_187" data-name="Path 187" d="M119.332,236.913c.185-.552.349-1.043.515-1.532.384-1.133.764-2.268,1.158-3.4a.535.535,0,0,0-.05-.492A9.865,9.865,0,1,1,125,235.339a.629.629,0,0,0-.522-.041c-1.618.52-3.239,1.029-4.859,1.541C119.545,236.86,119.475,236.876,119.332,236.913Zm2.427-2.367c.146-.043.234-.066.32-.094.885-.28,1.769-.567,2.657-.836a.524.524,0,0,1,.378.042,8.235,8.235,0,1,0,2.917-15.031,8.174,8.174,0,0,0-5.394,12.64.508.508,0,0,1,.069.51C122.391,232.679,122.087,233.584,121.759,234.546Z" transform="translate(0 0)" fill="#fff"/>
      <path id="Path_188" data-name="Path 188" d="M217.194,309.7a.363.363,0,0,1,.411.241c.232.532.461,1.066.68,1.6.08.2-.042.363-.149.515a2.872,2.872,0,0,1-.334.391.337.337,0,0,0-.056.476,5.28,5.28,0,0,0,2.65,2.241.3.3,0,0,0,.381-.082c.2-.242.406-.478.594-.727a.3.3,0,0,1,.388-.122c.549.251,1.1.506,1.633.781a.381.381,0,0,1,.126.3c-.026.853-.472,1.322-1.426,1.582a2.982,2.982,0,0,1-1.718-.25,7.269,7.269,0,0,1-3.807-2.972,4.336,4.336,0,0,1-.834-1.688,2.034,2.034,0,0,1,.635-2.011,2.773,2.773,0,0,1,.8-.34Z" transform="translate(-89.953 -86.631)" fill="#fff"/>
    </g>
  </g>
</svg>
