<svg width="41" height="41" viewBox="0 0 41 41" fill="none" xmlns="http://www.w3.org/2000/svg">
<g filter="url(#filter0_f_2262_208)">
<path d="M14.4586 29.5464L14.8597 29.784C16.5441 30.7836 18.4754 31.3124 20.4449 31.3133H20.4491C26.4974 31.3133 31.4198 26.392 31.4224 20.3432C31.4234 17.4121 30.2831 14.6557 28.2113 12.5823C27.1951 11.5597 25.9862 10.7489 24.6546 10.1967C23.3229 9.64448 21.895 9.3619 20.4534 9.36529C14.4003 9.36529 9.47773 14.2861 9.47558 20.3345C9.47259 22.3998 10.0542 24.4238 11.1532 26.1725L11.4142 26.5874L10.3055 30.6352L14.4586 29.5464ZM7.1355 33.7711L9.00867 26.9319C7.85344 24.9305 7.24567 22.6598 7.24639 20.3336C7.24944 13.0562 13.1717 7.13574 20.4492 7.13574C23.9808 7.13754 27.2956 8.51187 29.7885 11.0066C32.2815 13.5014 33.6532 16.8174 33.6519 20.3441C33.6487 27.621 27.7255 33.5425 20.4491 33.5425H20.4433C18.2339 33.5416 16.0628 32.9873 14.1344 31.9358L7.1355 33.7711Z" fill="#B3B3B3"/>
</g>
<path d="M7 33.6354L8.87317 26.7962C7.71595 24.7899 7.1081 22.5139 7.11089 20.1978C7.11394 12.9204 13.0362 7 20.3137 7C23.8453 7.00179 27.1601 8.37613 29.653 10.8709C32.146 13.3656 33.5176 16.6817 33.5164 20.2084C33.5132 27.4852 27.59 33.4068 20.3136 33.4068H20.3078C18.0984 33.4059 15.9273 32.8516 13.9989 31.8001L7 33.6354Z" fill="white"/>
<path d="M20.3176 9.2305C14.2646 9.2305 9.34201 14.1513 9.33986 20.1997C9.33687 22.265 9.91848 24.289 11.0174 26.0378L11.2785 26.4528L10.1698 30.5006L14.3231 29.4116L14.7241 29.6492C16.4085 30.6488 18.3399 31.1775 20.3094 31.1785H20.3135C26.3619 31.1785 31.2845 26.2572 31.2868 20.2085C31.2914 18.7668 31.0099 17.3385 30.4587 16.0063C29.9076 14.6741 29.0976 13.4645 28.0757 12.4475C27.0595 11.4249 25.8506 10.6141 24.5189 10.0619C23.1873 9.50966 21.7593 9.22709 20.3176 9.2305V9.2305Z" fill="url(#paint0_linear_2262_208)"/>
<path fill-rule="evenodd" clip-rule="evenodd" d="M17.0137 14.6802C16.7665 14.1309 16.5063 14.1198 16.2714 14.1103L15.639 14.1025C15.4191 14.1025 15.0616 14.1851 14.7594 14.5153C14.4573 14.8454 13.6047 15.6434 13.6047 17.2664C13.6047 18.8895 14.7869 20.4578 14.9516 20.6781C15.1163 20.8985 17.2337 24.3353 20.5869 25.6576C23.3735 26.7565 23.9405 26.5379 24.5456 26.483C25.1506 26.4281 26.4973 25.685 26.772 24.9147C27.0468 24.1444 27.047 23.4844 26.9646 23.3464C26.8822 23.2084 26.6622 23.1264 26.3321 22.9613C26.0019 22.7962 24.3803 21.9983 24.0779 21.8881C23.7756 21.7779 23.5558 21.7232 23.3356 22.0533C23.1154 22.3835 22.484 23.1262 22.2914 23.3464C22.0989 23.5666 21.9067 23.5942 21.5765 23.4293C21.2464 23.2644 20.1841 22.9159 18.9237 21.7921C17.9431 20.9177 17.2811 19.8378 17.0884 19.5078C16.8957 19.1778 17.0679 18.9991 17.2334 18.8347C17.3814 18.6869 17.5632 18.4495 17.7284 18.2569C17.8937 18.0644 17.9481 17.9268 18.0579 17.707C18.1677 17.4871 18.113 17.2941 18.0304 17.1292C17.9479 16.9642 17.3069 15.3328 17.0137 14.6803" fill="white"/>
<defs>
<filter id="filter0_f_2262_208" x="0.0734982" y="0.0737424" width="40.6404" height="40.7597" filterUnits="userSpaceOnUse" color-interpolation-filters="sRGB">
<feFlood flood-opacity="0" result="BackgroundImageFix"/>
<feBlend mode="normal" in="SourceGraphic" in2="BackgroundImageFix" result="shape"/>
<feGaussianBlur stdDeviation="3.531" result="effect1_foregroundBlur_2262_208"/>
</filter>
<linearGradient id="paint0_linear_2262_208" x1="20.0899" y1="10.5476" x2="20.2012" y2="29.3036" gradientUnits="userSpaceOnUse">
<stop stop-color="#57D163"/>
<stop offset="1" stop-color="#23B33A"/>
</linearGradient>
</defs>
</svg>
