<svg xmlns="http://www.w3.org/2000/svg" width="489.091" height="331" viewBox="0 0 489.091 331">
  <g id="Group_2935" data-name="Group 2935" transform="translate(-947.68 -5433)">
    <path id="Path_148" data-name="Path 148" d="M213.5,314h-1.882c5.7,162.53,120.954,297.338,273.182,331h9.4C338.381,614.934,219.307,478.8,213.5,314Zm410.61,331h9.39a342.213,342.213,0,0,0,67.209-22.379v-2.088A339.75,339.75,0,0,1,624.109,645Z" transform="translate(736.063 5119)" fill="#fff"/>
    <path id="Path_149" data-name="Path 149" d="M503.77,524.323c-117.365,0-213.609-93.24-220.1-210.323H281.8C288.287,432.129,385.36,526.226,503.77,526.226a219.833,219.833,0,0,0,141.553-51.589v-2.474A217.967,217.967,0,0,1,503.77,524.323Z" transform="translate(791.445 5119)" fill="#fff"/>
    <path id="Path_150" data-name="Path 150" d="M542.435,314c-6.137,47.038-46.036,83.467-94.19,83.467s-88.064-36.43-94.2-83.467h-1.891c6.146,48.1,46.891,85.369,96.092,85.369S538.18,362.1,544.326,314Z" transform="translate(846.971 5119)" fill="#fff"/>
  </g>
</svg>
