<svg width="42" height="42" viewBox="0 0 42 42" fill="none" xmlns="http://www.w3.org/2000/svg">
<mask id="mask0_3402_392" style="mask-type:alpha" maskUnits="userSpaceOnUse" x="0" y="0" width="42" height="42">
<rect width="42" height="42" fill="#D9D9D9"/>
</mask>
<g mask="url(#mask0_3402_392)">
<path d="M18.4296 15.7301L15.8896 18.2344C15.663 17.984 15.4126 17.6739 15.1144 17.4116C14.4228 16.708 13.6715 16.0521 12.8726 15.4678C10.7499 14.168 8.03103 14.2872 6.03956 15.7778C3.29682 17.817 2.72442 21.7045 4.76359 24.4592C6.80276 27.2139 10.6903 27.7743 13.445 25.7352C13.7073 25.5444 13.9577 25.3178 14.1843 25.0793C16.7601 22.4916 19.3478 19.9039 21.9355 17.3162C23.1757 16.076 24.3921 14.8119 25.668 13.6075C27.5522 11.7711 30.128 10.8409 32.7515 11.0436C36.5197 11.139 39.8706 13.4882 41.2301 17.0061C43.317 21.943 41.0154 27.6312 36.0904 29.7181C35.2438 30.0759 34.3494 30.3144 33.4312 30.4217C30.5215 30.8152 27.5879 29.8254 25.513 27.7505C24.9168 27.19 24.3444 26.6057 23.76 26.0214C23.6766 25.9498 23.6169 25.8544 23.5573 25.7948L26.0616 23.3025C26.3835 23.6245 26.7294 23.9703 27.0752 24.328C27.8384 25.1985 28.7566 25.914 29.7941 26.4387C32.9542 27.7982 36.6151 26.3195 37.9746 23.1594C38.2012 22.6347 38.3443 22.0861 38.4277 21.5137C38.869 18.2702 36.6867 15.2651 33.467 14.6688C31.4159 14.2157 29.2813 14.8835 27.8384 16.4099C24.6186 19.6057 21.4347 22.8374 18.203 26.0333C17.2848 27.0111 16.295 27.9174 15.2456 28.7522C10.8215 31.793 4.75166 30.6721 1.7108 26.2479C-1.33006 21.8238 -0.209115 15.754 4.21504 12.7131C8.12643 10.03 13.3973 10.5428 16.7005 13.9414C17.2609 14.5496 17.8453 15.1458 18.4296 15.7301Z" fill="url(#paint0_linear_3402_392)"/>
</g>
<defs>
<linearGradient id="paint0_linear_3402_392" x1="0" y1="11" x2="46.5" y2="31" gradientUnits="userSpaceOnUse">
<stop stop-color="#564EAB"/>
<stop offset="1" stop-color="#CF4646"/>
</linearGradient>
</defs>
</svg>
