<svg width="353" height="417" viewBox="0 0 353 417" fill="none" xmlns="http://www.w3.org/2000/svg">
<g filter="url(#filter0_i_1267_847)">
<path d="M62.9393 416.63C62.6611 409.497 63.032 381.614 81.0215 347.804C101.886 308.435 137.216 261.563 143.614 248.224C150.012 234.885 165.684 214.598 163.365 207.651C161.047 200.703 148.529 186.16 141.945 182.177C132.857 176.712 124.697 163.187 119.597 153.183C117.001 148.088 110.046 147.347 106.337 151.701C100.402 158.648 90.109 162.909 81.3925 165.596C65.2575 170.598 21.9528 159.389 10.2689 137.713C0.810434 120.206 -6.05156 86.0244 8.32153 63.7927C20.84 44.4325 29.093 36.3735 55.4282 31.6492C73.1395 28.4997 97.5274 38.7819 109.119 45.2662C112.735 47.3041 117.279 46.3778 119.875 43.1356C126.088 35.2619 137.587 21.5523 147.694 14.9754C173.102 -1.60583 208.339 0.154191 208.339 0.154191C208.339 0.154191 241.722 1.08052 263.05 13.1227C284.378 25.1649 286.232 26.0913 289.941 30.7229C293.651 35.3545 305.705 55.7336 308.487 62.2179C311.269 68.7022 311.269 80.7444 313.124 84.4497C314.978 88.155 314.978 89.0813 318.688 93.7129C321.284 96.9551 329.722 103.717 334.544 107.608C336.77 109.368 339.273 110.85 341.87 111.962C344.745 113.166 348.546 114.926 350.216 115.945C352.997 117.797 352.997 119.65 352.997 123.355C352.997 127.061 352.07 130.766 349.288 132.619C346.506 134.471 340.943 134.471 340.943 134.471C340.943 134.471 340.015 138.177 340.943 140.029C341.87 141.882 349.288 145.587 349.288 145.587C349.288 145.587 350.401 149.478 348.917 153.276C347.434 157.074 345.023 158.185 345.023 158.185C345.023 158.185 347.99 159.019 350.03 162.354C352.07 165.596 351.328 168.653 351.328 168.653C351.328 168.653 348.176 172.45 348.083 174.396C347.99 176.434 352.348 180.139 352.719 186.438C353.09 192.737 352.719 194.59 350.679 197.554C348.639 200.518 345.672 203.297 336.955 204.131C328.239 205.057 298.38 202.741 290.405 205.983C282.43 209.133 275.754 216.729 272.415 222.194C268.984 227.659 244.689 259.618 238.105 279.163C231.429 298.708 228.554 311.584 229.667 314.549C230.78 317.513 239.218 322.608 245.153 334.465C251.088 346.229 265.09 378.65 270.561 389.303C274.919 397.64 282.801 411.349 286.047 417H62.9393V416.63Z" fill="white"/>
</g>
<mask id="mask0_1267_847" style="mask-type:alpha" maskUnits="userSpaceOnUse" x="0" y="0" width="353" height="417">
<path d="M62.807 416.629C62.5291 409.497 62.8996 381.614 80.8703 347.804C101.713 308.435 137.005 261.563 143.397 248.224C149.789 234.885 165.444 214.598 163.128 207.651C160.812 200.703 148.307 186.16 141.73 182.177C132.652 176.712 124.5 163.187 119.405 153.183C116.812 148.088 109.864 147.347 106.159 151.701C100.23 158.648 89.9483 162.909 81.2408 165.596C65.1228 170.598 21.8634 159.389 10.1918 137.713C0.743248 120.206 -6.11155 86.0244 8.24647 63.7926C20.7518 44.4325 28.9961 36.3735 55.3037 31.6492C72.9965 28.4997 97.3588 38.7819 108.938 45.2662C112.551 47.3041 117.09 46.3778 119.683 43.1356C125.89 35.2619 137.376 21.5523 147.473 14.9754C172.854 -1.60583 208.055 0.154191 208.055 0.154191C208.055 0.154191 241.402 1.08052 262.708 13.1227C284.013 25.1649 285.866 26.0913 289.571 30.7229C293.276 35.3545 305.319 55.7336 308.098 62.2179C310.877 68.7022 310.877 80.7444 312.729 84.4497C314.582 88.155 314.582 89.0813 318.287 93.7129C320.881 96.955 329.31 103.717 334.127 107.608C336.35 109.368 338.852 110.85 341.445 111.961C344.317 113.166 348.115 114.926 349.782 115.945C352.561 117.797 352.561 119.65 352.561 123.355C352.561 127.061 351.635 130.766 348.856 132.619C346.077 134.471 340.519 134.471 340.519 134.471C340.519 134.471 339.593 138.176 340.519 140.029C341.445 141.882 348.856 145.587 348.856 145.587C348.856 145.587 349.967 149.478 348.485 153.276C347.003 157.073 344.595 158.185 344.595 158.185C344.595 158.185 347.559 159.019 349.597 162.354C351.635 165.596 350.894 168.653 350.894 168.653C350.894 168.653 347.744 172.45 347.652 174.396C347.559 176.434 351.913 180.139 352.283 186.438C352.654 192.737 352.283 194.59 350.245 197.554C348.207 200.518 345.243 203.297 336.536 204.131C327.828 205.057 298.001 202.741 290.034 205.983C282.068 209.133 275.398 216.729 272.064 222.194C268.636 227.659 244.366 259.617 237.79 279.163C231.12 298.708 228.248 311.584 229.36 314.549C230.472 317.513 238.901 322.608 244.83 334.464C250.758 346.229 264.746 378.65 270.211 389.303C274.565 397.64 282.438 411.349 285.681 417H62.807V416.629Z" fill="white"/>
</mask>
<g mask="url(#mask0_1267_847)">
<path d="M296.427 92.4161C298.28 90.7487 300.225 90.3782 302.634 89.3593C303.745 88.8961 305.32 88.8961 307.08 88.9887C305.32 88.6182 303.097 88.2477 299.762 88.0624C295.13 87.7845 290.314 85.4687 286.516 82.7824C282.718 80.096 279.661 75.7423 279.846 71.1107C279.754 72.4075 278.457 73.4265 277.16 73.6118C275.863 73.797 274.566 73.3339 273.362 72.7781C271.231 71.8517 268.823 69.7212 266.878 67.9612C267.063 68.1464 267.063 68.2391 267.063 68.2391C267.063 68.2391 261.69 80.3739 255.762 90.7487C263.265 87.8771 271.602 87.5066 279.568 88.5256C285.404 89.3593 290.962 90.7487 296.427 92.4161Z" fill="#DBBACD"/>
<path d="M292.347 137.713C291.513 127.431 282.713 112.795 282.713 112.795C282.713 112.795 292.347 98.252 294.663 94.6393C295.218 93.713 295.867 93.0646 296.423 92.5088C290.865 90.8414 285.307 89.4519 279.656 88.7108C271.69 87.6919 263.353 88.0624 255.85 90.934C253.626 94.8246 251.403 98.3446 249.365 101.031C241.677 110.757 232.691 116.871 232.691 116.871C232.691 116.871 246.308 115.296 265.113 124.374C283.917 133.452 291.884 158.463 291.884 158.463C291.884 158.463 293.18 147.996 292.347 137.713Z" fill="#E6D0DC"/>
<path d="M319.307 85.4687C319.307 84.7276 319.029 83.5234 318.659 82.4118C318.196 81.0223 318.751 79.4476 319.956 78.6139C320.326 78.336 320.697 77.9654 320.974 77.5023C322.179 75.6496 321.067 74.7233 320.419 74.1675C319.678 73.5191 317.547 72.9633 317.547 72.9633C317.547 72.9633 320.511 71.4812 321.16 70.277C322.549 67.6832 319.122 68.0538 318.659 66.479C318.566 66.0159 318.844 64.9043 318.844 64.9043C318.844 64.9043 321.067 63.3295 322.734 61.6621C325.699 58.5126 318.659 55.8263 317.177 54.5294C315.694 53.2326 314.12 50.4536 313.471 48.8789C312.823 47.3041 313.101 46.0999 313.657 43.9694C314.12 41.8388 313.842 40.0788 313.471 38.5967C310.692 28.3145 304.115 23.1271 304.115 23.1271C304.115 23.1271 296.89 21.1818 293.463 32.0198C291.425 38.3188 289.572 47.2115 286.978 52.121C284.385 57.0305 282.069 57.1231 280.031 57.2158C277.993 57.2158 277.9 56.5674 274.751 54.1589C271.601 51.8431 268.822 51.9357 266.043 53.881C263.264 55.7337 263.265 57.4011 263.172 60.5506C263.172 63.2369 266.136 67.1275 266.97 68.1464C268.915 69.9064 271.324 72.037 273.454 72.9633C274.658 73.5191 275.955 73.9822 277.252 73.797C278.549 73.6117 279.846 72.6854 279.938 71.2959C279.846 75.9275 282.81 80.2813 286.608 82.9676C290.406 85.6539 295.223 87.9697 299.854 88.2476C303.096 88.4329 305.412 88.8034 307.172 89.174C310.507 89.4519 314.305 90.3782 316.158 90.1003C318.937 89.5445 319.307 87.136 319.307 85.4687Z" fill="#88ADA2"/>
<path d="M312.821 4.69324C315.137 5.52694 317.268 6.63852 319.12 8.30591C320.973 9.97329 322.177 12.1965 322.362 14.6049C322.548 17.0134 321.529 19.3292 320.139 21.1818C318.842 22.9418 317.268 24.5166 315.23 25.2576C313.192 26.0913 310.876 26.0913 308.931 25.0724C310.969 27.1103 310.969 29.8893 309.487 32.3903C308.004 34.8914 304.855 36.1883 302.076 35.3546C305.133 34.984 307.078 38.782 306.615 41.8388C305.967 45.9147 302.354 49.3421 298.278 49.62C294.202 49.9905 290.034 47.3041 288.644 43.4136C290.219 47.3968 291.794 51.6579 290.96 55.8263C290.126 59.9948 285.958 63.8853 281.882 62.6811C284.198 60.4579 288.644 62.218 289.663 65.3675C290.775 68.4243 289.385 71.8517 287.347 74.4454C285.68 76.576 283.457 78.4286 280.771 78.9844C278.084 79.5402 275.027 78.5213 273.73 76.1128C275.861 77.2244 276.602 80.0034 275.954 82.3192C275.305 84.635 273.638 86.4876 271.785 87.9698C267.987 91.2119 262.615 93.6203 257.983 91.6751C256.871 95.6583 252.054 97.8814 247.979 98.0667C244.088 98.252 239.92 97.233 237.048 94.5467C234.176 91.8603 232.88 87.3213 234.547 83.8013C233.435 86.395 230.101 87.5066 227.322 86.7655C224.543 86.1171 222.32 84.0792 220.467 81.9487C217.873 78.9844 215.65 75.557 215.372 71.6665C215.094 67.7759 217.317 63.5148 221.023 62.4959C217.41 61.5695 214.168 58.6979 213.427 55.0853C212.686 51.4726 214.168 47.4894 217.132 45.2662C218.707 44.062 221.115 43.5062 222.505 44.8957C218.151 45.081 213.983 42.1167 212.5 38.0409C211.018 33.9651 212.315 29.1482 215.372 26.0913C217.503 24.0534 221.301 23.0345 223.153 25.2576C220.004 25.3503 217.41 22.2008 217.41 19.0513C217.503 15.9018 219.633 13.0302 222.412 11.548C225.469 9.88066 229.823 9.78803 232.046 12.4744C228.433 8.8617 229.545 2.19217 233.435 -1.1426C237.326 -4.47736 243.995 -3.64367 247.052 0.524786C245.107 -1.88366 246.311 -5.58895 248.534 -7.62687C253.351 -12.2585 262.429 -11.1469 265.949 -5.40369C264.467 -7.4416 265.116 -10.4985 266.876 -12.3511C268.636 -14.2038 271.322 -14.8522 273.823 -14.9448C276.417 -14.9448 279.196 -14.2964 281.141 -12.5364C283.086 -10.7764 284.198 -7.99739 283.364 -5.49632C285.032 -8.92372 288.366 -11.5174 292.164 -12.0732C295.962 -12.629 300.038 -10.869 301.891 -7.53423C303.836 -4.2921 303.188 0.339522 300.316 2.8406C301.798 0.154257 304.855 -1.51313 307.912 -1.04996C311.154 -0.679435 313.748 1.82164 312.821 4.69324Z" fill="#CA5C45"/>
<path d="M340.063 109.461C340.063 109.461 346.084 120.206 345.991 125.764C345.899 131.322 345.065 133.73 345.621 135.398C346.084 137.065 346.362 139.103 348.215 141.419C350.067 143.827 350.252 144.198 351.735 144.846C353.217 145.587 354.884 146.606 355.069 147.533C355.255 148.459 355.347 149.293 354.143 150.312C352.939 151.331 350.252 152.72 350.252 152.72C350.252 152.72 350.067 153.832 350.716 154.665C351.364 155.499 352.661 156.055 352.661 156.055C352.661 156.055 352.846 157.259 352.29 158.185C351.827 159.112 350.53 159.76 350.53 159.76C350.53 159.76 351.549 160.038 351.92 160.964C352.29 161.891 352.661 163.651 352.198 163.929C351.735 164.114 350.808 164.114 350.623 165.133C350.438 166.152 351.086 167.634 351.457 169.579C351.827 171.617 351.271 173.47 349.975 174.303C348.678 175.044 347.01 175.878 345.899 175.693C344.787 175.508 334.32 173.284 331.355 173.748C328.484 174.211 326.909 174.581 325.056 177.082C323.296 179.583 320.61 183.937 319.499 187.365C318.387 190.792 315.886 198.203 316.164 200.889C316.349 203.483 316.72 204.779 317.183 205.706C317.739 206.632 322.092 212.005 323.204 214.969C324.223 217.933 325.056 219.879 325.056 219.879L267.532 219.23C267.532 219.23 267.346 214.506 274.201 204.316C281.056 194.034 285.873 186.346 287.355 181.807C288.837 177.268 295.414 156.425 294.951 150.312C294.395 144.198 293.469 139.659 295.136 137.528C296.711 135.398 302.917 134.657 305.789 136.417C308.661 138.177 309.587 131.6 309.587 131.6C309.587 131.6 311.162 123.541 318.572 117.057C326.075 110.48 340.063 109.461 340.063 109.461Z" fill="#5666A4"/>
<path d="M278.737 109.368C273.179 112.332 269.382 117.89 267.529 123.911C265.676 129.932 265.584 136.324 266.232 142.623C266.51 136.695 268.177 130.766 270.956 125.486C268.363 132.341 266.973 140.029 269.567 146.884C270.864 150.126 272.994 152.998 275.032 155.87C281.146 164.577 286.704 174.303 287.445 184.863C287.26 184.771 287.537 184.586 287.445 184.678C293.559 174.396 298.375 162.91 296.152 151.145C295.782 148.922 295.041 146.699 294.948 144.476C294.855 142.253 295.319 139.751 296.893 138.177C299.024 136.139 302.451 135.954 305.138 137.25C307.824 138.547 309.769 140.863 311.344 143.364C312.919 145.865 314.308 148.644 314.216 151.516C319.032 145.032 321.811 138.269 322.46 130.21C323.294 129.469 324.035 128.543 324.405 127.524C326.258 131.6 327.184 136.139 326.999 140.585C328.296 135.768 328.481 130.581 327.369 125.671C328.11 126.412 328.759 127.153 329.315 127.987C329.87 126.968 330.148 125.764 329.963 124.56C333.854 127.431 337.652 130.396 341.45 133.452C340.986 131.229 339.967 129.099 338.578 127.246C341.82 128.45 344.136 131.322 346.637 133.73C349.138 136.139 352.658 138.177 355.993 137.158C352.751 136.046 349.972 133.638 348.304 130.581C349.416 131.044 350.435 131.415 351.546 131.878C350.713 129.84 349.972 127.802 349.138 125.764C349.786 126.412 350.62 126.876 351.454 127.246C350.25 124.93 348.86 122.614 347.378 120.391C348.767 118.724 348.675 116.315 347.656 114.37C346.637 112.518 344.97 111.128 343.117 110.016C343.765 108.164 343.117 106.033 341.82 104.459C340.523 102.976 338.763 101.865 337.096 100.939C332.094 97.9743 326.999 95.01 321.997 92.1384C321.07 91.5826 320.144 91.0268 319.032 90.9342C317.921 90.7489 316.902 91.0268 315.79 91.3974C312.826 92.2311 309.955 93.3427 307.268 94.7321C305.693 91.8605 301.247 90.9342 298.005 91.2121C294.763 91.49 291.706 93.1574 288.834 94.7321C286.982 95.8437 285.129 96.9553 283.647 98.4374C280.312 101.587 278.182 105.014 278.737 109.368Z" fill="#31222F"/>
<path d="M217.223 3.21118C217.223 3.21118 223.244 13.9565 223.152 19.5145C223.059 25.0724 222.225 27.4809 222.781 29.1483C223.244 30.8156 223.522 32.8535 225.375 35.1694C227.227 37.5778 227.413 37.9483 228.895 38.5968C230.377 39.3378 232.044 40.3568 232.229 41.2831C232.415 42.2094 232.507 43.0431 231.303 44.0621C230.099 45.081 227.413 46.4705 227.413 46.4705C227.413 46.4705 227.227 47.5821 227.876 48.4158C228.524 49.2495 229.821 49.8053 229.821 49.8053C229.821 49.8053 230.006 51.0095 229.451 51.9358C228.987 52.8621 227.691 53.5106 227.691 53.5106C227.691 53.5106 228.709 53.7885 229.08 54.7148C229.451 55.6411 229.821 57.4011 229.358 57.679C228.895 57.9569 227.968 57.8643 227.783 58.8832C227.598 59.8096 228.246 61.3843 228.617 63.3296C228.987 65.3675 228.432 67.2202 227.135 68.0539C225.838 68.7949 224.17 69.6286 223.059 69.4433C221.947 69.2581 211.48 67.0349 208.516 67.4981C205.644 67.9612 204.069 68.3318 202.217 70.8328C200.457 73.3339 197.77 77.6876 196.659 81.115C195.547 84.5424 193.046 91.953 193.324 94.6394C193.509 97.2331 193.88 98.5299 194.343 99.4562C194.899 100.383 199.252 105.755 200.364 108.719C201.383 111.684 202.217 113.629 202.217 113.629L144.692 112.981C144.692 112.981 144.507 108.256 151.361 98.0668C158.216 87.7846 163.033 80.0961 164.515 75.5571C165.997 71.0181 172.574 50.1758 172.111 44.0621C171.555 37.9483 170.629 33.4093 172.296 31.2788C173.871 29.1483 180.077 28.4072 182.949 30.1672C185.821 31.9272 186.747 25.3503 186.747 25.3503C186.747 25.3503 188.322 17.2913 195.732 10.807C203.143 4.23014 217.223 3.21118 217.223 3.21118Z" fill="#5666A4"/>
<path d="M155.812 3.11853C150.254 6.08277 146.456 11.6407 144.603 17.6618C142.75 23.6829 142.658 30.0746 143.306 36.3736C143.584 30.4451 145.252 24.5166 148.03 19.2366C145.437 26.0914 144.047 33.7799 146.641 40.6346C147.938 43.8768 150.068 46.7484 152.106 49.62C158.22 58.3274 163.778 68.0538 164.519 78.6139C164.334 78.5213 164.612 78.336 164.519 78.4287C170.633 68.1465 175.45 56.6601 173.227 44.8957C172.856 42.6726 172.115 40.4494 172.022 38.2262C171.93 36.003 172.393 33.502 173.968 31.9272C176.098 29.8893 179.526 29.704 182.212 31.0009C184.898 32.2977 186.843 34.6135 188.418 37.1146C189.993 39.6157 191.382 42.3947 191.29 45.2663C196.107 38.782 198.886 32.0198 199.534 23.9608C200.368 23.2198 201.109 22.2934 201.479 21.2745C203.332 25.3503 204.258 29.8893 204.073 34.3356C205.37 29.5188 205.555 24.3314 204.444 19.4218C205.185 20.1629 205.833 20.904 206.389 21.7376C206.945 20.7187 207.223 19.5145 207.037 18.3102C210.928 21.1818 214.726 24.1461 218.524 27.203C218.061 24.9798 217.042 22.8492 215.652 20.9966C218.894 22.2008 221.21 25.0724 223.711 27.4808C226.212 29.8893 229.732 31.9272 233.067 30.9082C229.825 29.7967 227.046 27.3882 225.379 24.3313C226.49 24.7945 227.509 25.165 228.621 25.6282C227.787 23.5903 227.046 21.5524 226.212 19.5145C226.861 20.1629 227.694 20.6261 228.528 20.9966C227.324 18.6808 225.934 16.365 224.452 14.1418C225.842 12.4744 225.749 10.066 224.73 8.12068C223.711 6.26803 222.044 4.87855 220.191 3.76696C220.84 1.91431 220.191 -0.216237 218.894 -1.79099C217.597 -3.27311 215.837 -4.38469 214.17 -5.31102C209.168 -8.27526 204.073 -11.2395 199.071 -14.1111C198.145 -14.6669 197.218 -15.2227 196.107 -15.4079C194.995 -15.5932 193.976 -15.3153 192.865 -14.9448C189.9 -14.1111 187.029 -12.9995 184.342 -11.61C182.768 -14.4816 178.321 -15.4079 175.079 -15.1301C171.837 -14.8522 168.78 -13.1848 165.909 -11.61C164.056 -10.4984 162.203 -9.38684 160.721 -7.90473C157.479 -4.66259 155.256 -1.23519 155.812 3.11853Z" fill="#31222F"/>
<path d="M278.177 168.56C280.03 166.893 281.975 166.522 284.384 165.503C285.495 165.04 287.07 165.04 288.83 165.133C287.07 164.762 284.847 164.391 281.512 164.206C276.88 163.928 272.064 161.613 268.266 158.926C264.468 156.24 261.411 151.886 261.596 147.254C261.504 148.551 260.207 149.57 258.91 149.756C257.613 149.941 256.316 149.478 255.112 148.922C252.981 147.996 250.573 145.865 248.628 144.105C248.813 144.29 248.813 144.383 248.813 144.383C248.813 144.383 243.44 156.518 237.512 166.893C245.015 164.021 253.352 163.65 261.318 164.669C267.061 165.503 272.712 166.893 278.177 168.56Z" fill="#DBBACD"/>
<path d="M274.097 213.857C273.263 203.575 264.463 188.939 264.463 188.939C264.463 188.939 274.097 174.396 276.412 170.783C276.968 169.857 277.617 169.208 278.172 168.653C272.615 166.985 267.057 165.596 261.406 164.855C253.44 163.836 245.103 164.206 237.6 167.078C235.376 170.968 233.153 174.488 231.115 177.175C223.427 186.901 214.441 193.015 214.441 193.015C214.441 193.015 228.058 191.44 246.863 200.518C265.667 209.596 273.634 234.607 273.634 234.607C273.634 234.607 274.93 224.139 274.097 213.857Z" fill="#E6D0DC"/>
<path d="M301.057 161.612C301.057 160.871 300.779 159.667 300.409 158.556C299.946 157.166 300.501 155.591 301.706 154.758C302.076 154.48 302.447 154.109 302.724 153.646C303.929 151.793 302.817 150.867 302.169 150.311C301.428 149.663 299.297 149.107 299.297 149.107C299.297 149.107 302.261 147.625 302.91 146.421C304.299 143.827 300.872 144.198 300.409 142.623C300.316 142.16 300.594 141.048 300.594 141.048C300.594 141.048 302.817 139.473 304.484 137.806C307.449 134.656 300.409 131.97 298.927 130.673C297.444 129.376 295.87 126.597 295.221 125.023C294.573 123.448 294.851 122.244 295.407 120.113C295.962 117.983 295.592 116.223 295.221 114.74C292.442 104.458 285.865 99.2709 285.865 99.2709C285.865 99.2709 278.64 97.3256 275.213 108.164C273.175 114.463 271.322 123.355 268.728 128.265C266.135 133.174 263.819 133.267 261.781 133.36C259.743 133.36 259.65 132.711 256.501 130.303C253.351 127.987 250.572 128.08 247.793 130.025C245.015 131.877 245.015 133.545 244.922 136.694C244.922 139.381 247.886 143.271 248.72 144.29C250.665 146.05 253.074 148.181 255.204 149.107C256.408 149.663 257.705 150.126 259.002 149.941C260.299 149.756 261.596 148.829 261.688 147.44C261.596 152.071 264.56 156.425 268.358 159.111C272.156 161.798 276.973 164.114 281.604 164.391C284.846 164.577 287.162 164.947 288.922 165.318C292.257 165.596 296.055 166.522 297.908 166.244C300.687 165.688 300.964 163.28 301.057 161.612Z" fill="#E6D0DC"/>
<path d="M294.571 80.837C296.887 81.6707 299.018 82.7823 300.87 84.4497C302.63 86.1171 303.927 88.3403 304.112 90.7487C304.298 93.1572 303.279 95.473 301.889 97.3256C300.592 99.0856 299.018 100.66 296.98 101.401C294.942 102.235 292.626 102.235 290.681 101.216C292.719 103.254 292.719 106.033 291.237 108.534C289.754 111.035 286.605 112.332 283.826 111.498C286.883 111.128 288.828 114.926 288.365 117.983C287.717 122.058 284.104 125.486 280.028 125.764C275.952 126.042 271.784 123.448 270.394 119.557C271.969 123.541 273.544 127.802 272.71 131.97C271.876 136.139 267.708 140.029 263.632 138.825C265.948 136.602 270.394 138.362 271.413 141.511C272.525 144.568 271.135 147.996 269.097 150.589C267.43 152.72 265.207 154.572 262.521 155.128C259.834 155.684 256.777 154.665 255.48 152.257C257.611 153.368 258.352 156.147 257.704 158.463C257.055 160.779 255.388 162.631 253.535 164.114C249.737 167.356 244.365 169.764 239.733 167.819C238.621 171.802 233.804 174.025 229.729 174.21C225.838 174.396 221.67 173.377 218.798 170.69C215.926 168.004 214.63 163.465 216.297 159.945C215.185 162.539 211.851 163.65 209.072 162.909C206.293 162.261 204.069 160.223 202.217 158.092C199.623 155.128 197.4 151.701 197.122 147.81C196.844 143.92 199.067 139.659 202.773 138.64C199.16 137.713 195.918 134.842 195.177 131.229C194.436 127.616 195.918 123.633 198.882 121.41C200.457 120.206 202.865 119.65 204.255 121.04C199.901 121.225 195.733 118.261 194.25 114.185C192.768 110.109 194.065 105.292 197.122 102.235C199.253 100.197 203.051 99.1783 204.903 101.401C201.754 101.494 199.16 98.3446 199.16 95.1951C199.253 92.0456 201.383 89.174 204.162 87.6918C207.219 86.0245 211.573 85.9318 213.796 88.6182C210.183 85.0055 211.295 78.336 215.185 75.0012C219.076 71.6664 225.745 72.5001 228.802 76.6686C226.857 74.2601 228.061 70.5548 230.284 68.5169C235.101 63.8853 244.179 64.9969 247.699 70.7401C246.217 68.7022 246.866 65.6453 248.626 63.7927C250.386 61.94 253.072 61.2916 255.573 61.199C258.167 61.199 260.946 61.8474 262.891 63.6074C264.836 65.3674 265.948 68.1464 265.114 70.6475C266.782 67.2201 270.116 64.6264 273.914 64.0706C277.712 63.5148 281.788 65.2748 283.641 68.6096C285.586 71.8517 284.938 76.4833 282.066 78.9844C283.548 76.2981 286.605 74.6307 289.662 75.0938C292.904 75.4644 295.498 77.9654 294.571 80.837Z" fill="#2A1A40"/>
<path d="M233.339 131.322C233.339 131.322 230.375 128.728 228.707 126.412C227.04 124.096 226.577 123.17 226.114 121.225C225.558 119.279 226.114 119.094 226.391 116.593C226.669 114.092 226.114 112.332 224.817 106.959C223.52 101.679 218.24 94.0835 218.24 94.0835C218.24 94.0835 170.164 89.915 161.178 108.256C152.193 126.505 165.161 143.364 165.161 143.364C165.161 143.364 166.18 148.088 166.366 154.109C166.551 160.13 163.401 164.299 159.326 169.764C155.25 175.229 148.58 183.844 143.115 199.129C137.65 214.413 140.336 232.198 140.336 232.198L220.833 232.384L213.793 217.285C213.793 217.285 188.597 185.882 188.783 181.158C188.968 176.434 191.562 171.895 195.267 165.781C198.972 159.667 202.307 158.834 203.789 157.907C205.271 156.981 207.309 157.259 211.107 157.537C214.998 157.815 221.667 158.834 223.242 158.185C224.817 157.537 226.299 154.48 226.299 152.998C226.206 151.608 225.372 149.663 225.558 149.2C225.743 148.829 226.391 148.922 226.669 148.922C225.372 147.069 222.686 144.661 221.575 144.198C223.52 143.364 227.781 141.141 229.17 139.288C228.893 138.918 228.522 138.362 228.615 137.713C228.707 136.602 229.263 136.972 230.838 135.861C232.413 134.749 233.061 134.564 233.339 133.174C233.617 131.97 233.339 131.322 233.339 131.322Z" fill="#C85A44"/>
<path d="M221.668 144.476C222.687 144.846 225.466 147.255 226.763 149.2H226.855C226.948 149.2 227.504 149.107 228.152 148.181C228.801 147.162 228.43 146.236 228.06 145.587C227.689 144.939 226.392 144.012 226.392 144.012L228.245 143.457C228.245 143.457 229.079 142.993 229.449 141.882C229.82 140.77 229.542 140.029 229.542 140.029C229.542 140.029 229.356 139.937 229.171 139.659C227.874 141.419 223.613 143.642 221.668 144.476Z" fill="#31222F"/>
<path d="M229.632 134.657C230.003 134.286 230.466 133.823 231.022 133.73C231.3 133.73 231.578 133.823 231.578 134.101C231.578 134.194 231.485 134.379 231.392 134.471C230.929 134.842 230.373 135.12 229.725 135.305C229.169 135.49 228.521 135.768 227.965 135.954C228.335 135.49 229.076 135.12 229.632 134.657Z" fill="#31222F"/>
<path d="M225.464 112.517C225.835 112.703 226.113 112.981 226.113 113.444C226.113 113.814 226.113 114.277 225.927 114.648C225.649 115.111 225.094 115.296 224.538 115.111L220.925 113.629C220.647 113.536 220.369 113.536 220.091 113.629L214.07 115.76C214.07 115.76 219.628 112.24 220.462 111.962C221.851 111.313 224.352 112.147 225.464 112.517Z" fill="#31222F"/>
<path d="M208.049 79.7255C199.712 76.1129 180.352 70.3697 163.4 78.1508C157.657 80.7445 154.23 83.3382 152.099 85.3761C150.988 84.5424 149.598 83.894 148.301 83.4308C147.282 83.1529 146.263 83.5235 145.8 84.4498C145.615 84.7277 145.522 85.0056 145.337 85.3761C143.484 83.9866 140.983 82.875 137.371 82.7824C128.385 82.5971 117.455 85.5614 113.749 97.6962C110.044 109.831 120.326 147.81 91.7029 169.301C90.0356 170.598 86.145 171.987 87.6271 174.118C88.8313 175.878 95.5009 176.804 97.5388 177.267C104.301 178.842 111.341 179.491 118.288 179.027C121.716 178.842 128.756 177.267 128.756 177.267C130.331 176.804 131.813 176.156 133.202 175.415C137.741 173.006 141.632 168.838 142.743 163.743C143.114 162.261 143.021 146.606 139.223 129.562C135.24 111.776 134.684 103.532 137 99.9194C137.927 98.4373 141.447 98.5299 141.539 98.7152C141.632 98.9931 141.261 99.9194 141.724 100.568C142.188 101.124 144.874 101.402 146.449 101.772C146.171 104.922 145.893 109.646 146.078 114.926C146.356 124.282 148.95 137.528 155.434 143.179C161.918 148.829 167.847 147.718 167.847 147.718C167.847 147.718 178.592 145.772 179.148 133.545C179.704 121.317 179.704 120.299 183.131 117.705C186.559 115.204 193.043 118.261 197.026 117.149C201.009 116.037 204.9 110.943 207.493 105.292C209.068 101.772 210.921 98.9931 212.218 97.3257C212.959 96.3067 214.163 95.7509 215.367 95.8436L220.369 96.9552C220.277 96.8625 221.481 85.654 208.049 79.7255Z" fill="#31222F"/>
<path d="M149.785 98.8079C150.897 110.294 154.602 121.781 162.013 130.673C164.514 133.73 167.571 136.417 171.276 137.806" stroke="#422E40" stroke-miterlimit="10"/>
<path d="M152.844 87.9698C162.848 82.7824 173.686 78.4287 184.895 78.1508C196.196 77.8729 208.053 82.134 214.722 91.212" stroke="#422E40" stroke-miterlimit="10"/>
<path d="M205.736 105.385C186.469 109.09 165.719 103.81 150.527 91.4899C160.717 89.0814 174.334 86.1172 184.709 85.8393C195.176 85.5614 205.921 87.5067 214.629 93.2499" stroke="#422E40" stroke-miterlimit="10"/>
<path d="M141.999 87.5067C136.812 86.8583 131.069 86.3025 126.715 89.2667C123.658 91.3046 121.713 94.732 120.879 98.3447C120.045 101.957 120.045 105.663 120.231 109.275C120.694 122.244 121.991 135.583 117.544 147.81C114.024 157.537 106.892 165.874 97.9062 170.876" stroke="#422E40" stroke-miterlimit="10"/>
<path d="M142.554 90.8413C136.348 92.3234 131.346 97.6961 130.234 103.902C129.215 109.831 131.439 115.759 133.291 121.41C136.255 130.766 137.367 141.511 137.46 151.33C137.552 160.686 131.531 177.453 96.2383 176.248" stroke="#422E40" stroke-miterlimit="10"/>
<path d="M138.759 90.0077C131.07 90.3782 125.42 97.8814 124.215 105.477C122.919 113.073 124.957 120.669 126.161 128.265C127.272 135.12 127.921 142.252 126.902 149.107C125.883 156.055 123.289 162.817 118.658 168.004C113.47 173.747 105.689 175.693 95.7773 175.507" stroke="#422E40" stroke-miterlimit="10"/>
<path d="M178.039 129.469C172.573 127.894 167.664 124.467 163.866 120.299C160.068 116.037 157.104 111.035 154.695 105.941" stroke="#422E40" stroke-miterlimit="10"/>
<path d="M169.977 145.495C165.901 144.754 162.659 141.604 160.25 138.269C154.97 130.859 152.377 121.873 150.895 112.795" stroke="#422E40" stroke-miterlimit="10"/>
<path d="M210.362 99.3637C204.434 96.5847 197.857 95.6584 191.373 94.7321C180.905 93.25 170.345 91.8605 159.785 92.1384" stroke="#422E40" stroke-miterlimit="10"/>
<path d="M155.059 99.3636C158.579 103.254 162.191 106.96 166.452 110.016C170.713 113.073 175.623 115.296 180.81 115.852C181.644 115.945 182.663 116.13 182.848 116.964" stroke="#422E40" stroke-miterlimit="10"/>
<path d="M163.041 196.535C160.725 187.92 159.521 179.12 160.725 170.32C161.373 165.688 162.763 161.242 163.689 156.703C168.228 134.286 161.929 110.943 151.554 90.5635C155.723 101.494 154.519 114.185 149.794 124.837C146.274 132.896 140.439 139.751 135.529 147.162C128.952 157.166 124.135 168.282 121.356 179.954C120.059 185.419 119.226 190.977 119.596 196.535H163.041Z" fill="#31222F"/>
<path d="M74.2061 124.559C67.5365 129.932 60.867 135.675 56.4206 142.993C51.9743 150.311 50.1216 159.76 53.4564 167.634C54.2901 169.486 55.4017 171.339 57.0691 172.45C58.7365 173.655 60.867 174.118 62.9049 174.581C68.8334 175.878 74.9471 177.267 80.9682 176.526C85.7851 175.878 90.4167 173.933 94.7705 171.895C136.27 152.627 172.86 122.707 200.093 85.9318C204.54 79.9107 208.894 73.3338 209.079 65.8306C209.264 57.6789 202.317 48.7862 193.794 51.6578C183.234 55.1778 172.86 61.2916 163.041 66.3864C142.939 76.7612 123.579 88.5255 104.96 101.401C94.3999 108.812 84.1177 116.5 74.2061 124.559Z" fill="#DD9456"/>
<path d="M143.587 92.5087C143.587 92.5087 148.034 102.142 133.398 124.93C118.762 147.718 125.246 155.684 111.907 163.465C103.107 168.56 86.4332 177.916 84.3027 179.676C84.3027 179.676 80.3195 173.933 80.1342 162.539C79.8563 151.145 90.5091 131.877 103.2 118.724C115.89 105.662 143.587 92.5087 143.587 92.5087Z" fill="#31222F"/>
<path d="M156.927 196.535C157.019 194.775 157.019 191.811 156.556 189.032C155.908 184.493 153.406 182.918 147.571 179.305C141.735 175.693 132.194 174.303 132.194 174.303C132.194 174.303 133.305 173.377 135.343 169.579C137.381 165.781 139.604 158.556 141.272 155.128C142.939 151.701 143.31 153.368 146.089 152.812C148.868 152.257 157.482 152.812 160.91 151.793C164.337 150.774 164.152 149.941 164.8 148.181C165.449 146.328 165.171 144.846 164.522 143.179C163.874 141.511 164.337 141.419 164.708 140.585C165.171 139.751 165.912 140.214 166.838 139.195C167.765 138.084 167.023 136.694 166.097 135.49C165.171 134.286 163.967 134.749 163.967 134.749C163.967 134.749 164.522 134.471 165.634 133.545C166.746 132.618 166.838 132.063 167.023 130.951C167.209 129.84 166.931 129.469 166.005 127.524C165.078 125.578 165.356 125.764 165.727 124.004C166.097 122.244 166.56 123.263 168.32 121.966C170.08 120.762 170.451 119.002 170.08 117.242C169.71 115.481 169.061 115.667 167.857 114.463C166.653 113.351 165.078 112.054 163.04 109.182C160.91 106.311 159.335 106.218 159.057 104.18C158.779 102.142 161.28 99.1782 160.817 97.6961C160.354 96.214 155.167 87.136 155.167 87.136L108.202 108.256C108.202 108.256 117.928 142.808 110.24 156.332C102.551 169.857 89.2123 174.581 79.5785 183.381C69.8521 192.181 67.6289 196.257 67.6289 196.257L70.5005 196.35H156.927V196.535Z" fill="#5666A4"/>
<path d="M118.859 108.812C103.482 119.743 89.6795 133.545 81.25 150.404C83.01 132.433 94.4964 116.778 108.299 105.199C129.882 87.136 158.691 76.3907 186.851 76.1128C162.489 81.3928 138.96 94.5466 118.859 108.812Z" fill="#DD9456"/>
<path d="M87.3633 120.391L75.599 100.197C72.7274 95.2876 72.7274 89.2665 75.599 84.4496C78.1001 80.2811 82.3612 75.0937 89.6791 69.1653C101.999 59.2536 112.467 54.5293 118.117 52.4914C120.896 51.4725 123.953 51.9356 126.269 53.6957L153.503 73.519L87.3633 120.391Z" fill="#DD9456"/>
<path d="M144.605 101.309C144.605 101.309 145.254 98.8076 146.736 97.8813C148.218 96.9549 152.479 95.5654 155.629 96.4918C158.778 97.4181 159.241 97.4181 158.778 99.2707C158.408 101.123 158.037 102.606 157.203 102.05C156.37 101.494 154.795 99.1781 152.387 98.9928C149.978 98.9928 144.605 101.309 144.605 101.309Z" fill="#31222F"/>
<path d="M163.319 120.762C163.782 120.391 164.245 119.928 164.801 119.65C165.357 119.372 166.005 119.187 166.561 119.187C166.839 119.187 167.024 119.279 167.21 119.465C167.395 119.743 167.302 120.113 167.117 120.391C166.654 120.947 165.913 121.225 165.264 121.41C164.523 121.595 163.782 121.688 163.226 122.058C163.041 122.151 162.949 122.244 162.763 122.336C161.466 122.614 163.134 120.947 163.319 120.762Z" fill="#31222F"/>
<path d="M145.627 67.3129C147.479 68.795 150.166 70.8329 152.018 72.315C126.915 83.153 104.22 97.1405 84.3041 115.852C83.4704 114.463 82.1735 113.351 81.3398 111.962C95.7905 89.3594 119.412 73.4266 145.627 67.3129Z" fill="#31222F"/>
<path d="M75.5887 -8.73871C85.3151 -5.77447 93.8373 3.5814 92.3552 13.5857C91.5215 19.051 88.0941 23.59 85.7783 28.5921C83.4625 33.5943 82.6288 40.0786 86.3341 44.0618C82.6288 44.0618 79.5719 40.8196 78.2751 37.3922C76.9782 33.8722 77.0708 30.0743 76.7929 26.369C76.515 22.6637 75.5887 18.7731 72.9024 16.0868C69.1044 12.2888 62.9907 12.5667 57.8033 11.1773C49.2811 8.86144 42.3337 1.26559 40.8516 -7.53449C52.0601 -9.66503 64.4728 -12.1661 75.5887 -8.73871Z" fill="#3D4C8D"/>
<path d="M76.0501 78.2431C77.5322 76.1125 79.4775 75.2789 81.7007 73.7041C82.7196 72.963 84.387 72.5925 86.147 72.3146C84.2944 72.3146 81.8859 72.4999 78.5512 73.0557C73.7343 73.7967 68.3616 72.5925 63.9152 70.7399C59.3763 68.8872 55.3931 65.1819 54.4667 60.4577C54.652 61.8472 53.5404 57.864 52.3362 58.3271C51.0393 58.7903 51.9657 54.5292 50.5762 54.2513C48.2604 53.7881 44.833 56.1039 42.4245 54.7145C42.6098 54.8997 38.4413 55.2703 38.4413 55.2703C38.4413 55.2703 38.1634 74.0746 34.5508 85.9316C41.4982 81.3 49.9278 78.9841 58.2647 78.2431C64.1005 77.5947 70.1216 77.7799 76.0501 78.2431Z" fill="#CC877B"/>
<path d="M82.3521 125.115C79.11 114.833 66.8825 102.05 66.8825 102.05C66.8825 102.05 73.2742 85.0053 74.7563 80.8368C75.1268 79.8179 75.59 78.8916 76.0531 78.2431C70.032 77.78 64.1036 77.6873 58.0825 78.2431C49.7455 79.0768 41.316 81.3926 34.3686 85.9316C33.0717 90.378 31.5896 94.5464 30.0148 97.6959C24.4569 109.275 16.6758 117.612 16.6758 117.612C16.6758 117.612 30.1075 112.888 51.4129 117.797C72.7184 122.707 86.428 146.235 86.428 146.235C86.428 146.235 85.5016 135.397 82.3521 125.115Z" fill="#D99083"/>
<path d="M94.0216 69.721C93.929 67.961 91.7984 63.6073 91.7984 63.6073C91.7984 63.6073 91.0573 61.1988 93.7437 60.643C95.4111 60.3651 95.1332 57.3083 93.651 56.5672C92.8174 56.104 91.0573 56.3819 91.0573 56.3819C91.0573 56.3819 92.0763 55.9188 93.0026 54.9925C94.0216 53.9735 94.3921 52.3987 93.651 51.0093C93.3732 50.3608 91.7984 50.6387 91.6131 50.1756C91.4279 49.7124 91.6131 48.5082 91.6131 48.5082C91.6131 48.5082 93.6511 46.6555 95.3184 44.7103C96.8932 42.765 96.43 41.3755 95.8742 41.2829C94.0216 40.7271 90.5942 39.0597 88.9268 37.8555C87.2594 36.6512 85.3141 33.8723 84.5731 32.2975C83.832 30.7228 83.9246 29.4259 84.2952 27.1101C84.5731 24.7943 85.592 24.4238 85.0362 22.9416C80.9604 12.6595 72.1603 6.54572 72.1603 6.54572C72.1603 6.54572 64.5645 5.24886 61.9708 16.7353C60.4887 23.4974 59.3771 32.8533 57.1539 38.226C54.9307 43.5987 52.5223 43.8766 50.3917 44.1545C48.3538 44.4324 48.0759 43.6913 44.6485 41.5608C41.2211 39.4302 38.2569 39.8934 35.5705 42.0239C32.8842 44.2471 32.9768 45.9145 33.2547 49.1566C33.44 51.9356 36.96 55.6409 37.8863 56.6598C40.1095 58.3272 42.7959 60.2725 45.1117 61.0136C46.4085 61.4767 47.798 61.8473 49.1875 61.4767C50.577 61.1988 51.7812 59.9946 51.7812 58.6978C52.0591 63.5146 55.5791 67.7757 59.8402 70.1842C64.1013 72.5926 69.1961 74.5379 74.1056 74.3526C77.533 74.26 79.9415 74.3526 81.7015 74.6305C85.2215 74.6305 89.2047 75.1863 91.15 74.7232C94.0216 73.9821 94.1142 71.481 94.0216 69.721Z" fill="#D99083"/>
<path d="M62.9901 45.0808C61.0448 58.1419 47.4279 68.4241 49.0026 81.5779C50.2068 91.6749 59.9332 98.437 64.5649 107.515C69.3818 117.149 68.1775 128.728 64.8428 139.01C62.7122 145.587 59.6554 152.071 54.4679 156.61C47.15 163.002 21.954 178.101 -13.0611 155.313C-22.0464 149.385 -28.8086 137.065 -28.8086 123.818C-28.8086 109.738 -22.9728 96.3991 -11.1158 84.079C-3.51995 76.2052 9.91175 71.8515 3.61275 43.4134C-8.33683 -10.406 41.0362 -13.0924 51.5963 -11.3324C69.3818 -8.36812 77.4408 -2.43965 68.6407 7.56465C64.287 12.4742 61.508 13.4005 60.9522 20.9963C60.3964 29.0554 64.1943 36.8365 62.9901 45.0808Z" fill="#3D4C8D"/>
<path d="M235.656 273.42C230.283 273.42 224.911 273.049 219.631 272.401C213.424 271.66 207.311 270.548 201.29 269.344C187.209 266.565 176.279 261.841 162.477 258.043C169.795 254.893 174.334 247.297 176.371 239.609C178.409 231.92 178.502 223.861 179.614 215.988C180.91 206.724 183.597 197.646 187.58 189.217C192.582 178.564 197.955 166.059 223.058 164.577C249.366 163.002 252.515 183.937 252.515 189.773C252.515 202.556 241.307 215.71 238.065 228.03C234.081 242.851 234.267 258.691 238.435 273.42C237.694 274.253 236.582 273.42 235.656 273.42Z" fill="#3D4C8D"/>
<path d="M253.531 253.041C255.013 250.91 256.958 250.076 259.181 248.502C260.2 247.761 261.867 247.39 263.628 247.112C261.775 247.112 259.366 247.297 256.032 247.853C251.215 248.594 245.842 247.39 241.396 245.537C236.857 243.685 232.874 239.979 231.947 235.255C232.132 236.645 231.021 232.661 229.817 233.125C228.52 233.588 229.446 229.327 228.057 229.049C225.741 228.586 222.313 230.901 219.905 229.512C220.09 229.697 215.922 230.068 215.922 230.068C215.922 230.068 215.644 248.872 212.031 260.729C218.979 256.097 227.408 253.782 235.745 253.041C241.581 252.392 247.602 252.577 253.531 253.041Z" fill="#CC877B"/>
<path d="M259.833 299.912C256.59 289.63 244.363 276.847 244.363 276.847C244.363 276.847 250.755 259.803 252.237 255.634C252.607 254.615 253.07 253.689 253.534 253.04C247.512 252.577 241.584 252.485 235.563 253.04C227.226 253.874 218.796 256.19 211.849 260.729C210.552 265.175 209.07 269.344 207.495 272.493C201.937 284.072 194.156 292.409 194.156 292.409C194.156 292.409 207.588 287.685 228.893 292.595C250.106 297.504 263.908 321.033 263.908 321.033C263.908 321.033 262.982 310.195 259.833 299.912Z" fill="#D99083"/>
<path d="M271.502 244.518C271.409 242.758 269.278 238.405 269.278 238.405C269.278 238.405 268.537 235.996 271.224 235.44C272.891 235.162 272.613 232.106 271.131 231.365C270.297 230.901 268.537 231.179 268.537 231.179C268.537 231.179 269.556 230.716 270.483 229.79C271.502 228.771 271.872 227.196 271.131 225.807C270.853 225.158 269.278 225.436 269.093 224.973C268.908 224.51 269.093 223.306 269.093 223.306C269.093 223.306 271.131 221.453 272.798 219.508C274.373 217.562 273.91 216.173 273.354 216.08C271.502 215.524 268.074 213.857 266.407 212.653C264.739 211.449 262.794 208.67 262.053 207.095C261.312 205.52 261.405 204.223 261.775 201.907C262.053 199.592 263.072 199.221 262.516 197.739C258.626 187.364 249.918 181.25 249.918 181.25C249.918 181.25 242.322 179.954 239.729 191.44C238.246 198.202 237.135 207.558 234.912 212.931C232.689 218.211 230.28 218.581 228.15 218.859C226.112 219.137 225.834 218.396 222.406 216.265C218.979 214.135 216.015 214.598 213.328 216.729C210.642 218.952 210.735 220.619 211.013 223.861C211.198 226.64 214.718 230.346 215.644 231.365C217.867 233.032 220.554 234.977 222.87 235.718C224.166 236.181 225.556 236.552 226.945 236.181C228.335 235.904 229.539 234.699 229.539 233.402C229.817 238.219 233.337 242.48 237.598 244.889C241.859 247.297 246.954 249.243 251.863 249.057C255.291 248.965 257.699 249.057 259.459 249.335C262.979 249.335 266.963 249.891 268.908 249.428C271.501 248.779 271.594 246.278 271.502 244.518Z" fill="#D99083"/>
<path d="M271.32 192.459C271.32 192.459 269.56 198.11 259.741 200.888C241.215 206.169 222.781 203.297 222.781 203.297C222.781 203.297 221.299 177.73 229.08 173.747C262.15 156.795 271.32 192.459 271.32 192.459Z" fill="#3D4C8D"/>
<path d="M205.281 198.388C209.912 200.703 214.544 203.946 216.675 208.67C218.805 213.394 217.416 220.064 212.599 222.194C210.283 223.213 206.948 223.584 206.392 226.085C206.207 226.826 206.392 227.567 206.485 228.215C207.597 234.051 209.079 239.887 208.894 245.815C208.801 251.744 206.948 257.95 202.595 261.934C199.167 264.99 194.443 266.658 191.757 270.363C191.293 271.011 190.83 271.845 190.83 272.679C190.83 273.42 191.108 274.161 191.479 274.902C197.037 287.593 201.112 302.599 195.184 315.197C191.664 322.793 184.902 328.536 177.121 331.686C169.432 334.835 160.817 335.576 152.573 334.743C146.922 334.187 140.716 332.519 137.844 327.61C134.51 321.959 137.103 314.641 140.994 309.454C144.885 304.267 150.072 299.913 152.758 293.892C155.723 287.222 155.074 279.441 153.314 272.308C151.554 265.176 148.868 258.228 148.034 251.003C147.108 243.87 148.034 236.46 150.628 229.697C152.573 224.51 156 219.323 161.28 217.655C164.893 216.544 168.784 217.192 172.582 216.822C176.38 216.451 180.548 214.506 181.289 210.8C182.401 205.15 174.434 196.35 182.864 192.644C188.792 189.865 200.186 195.794 205.281 198.388Z" fill="#CA5C45"/>
<path d="M210.372 212.468C210.372 212.468 217.226 218.489 219.079 223.491C220.932 228.586 222.692 234.885 222.321 235.811C221.951 236.737 220.005 238.312 220.283 239.609C220.469 240.813 223.433 244.055 225.285 246.927C227.138 249.706 228.898 251.095 228.991 252.578C229.083 254.06 229.176 254.616 228.064 255.634C226.953 256.561 223.248 256.839 223.248 256.839C223.248 256.839 222.877 257.58 223.525 258.784C224.174 259.988 224.822 260.544 224.822 261.1C224.822 261.656 224.915 262.026 223.896 263.138C222.784 264.249 222.136 264.249 222.136 264.249C222.136 264.249 223.989 265.176 224.359 266.009C224.73 266.843 225.1 267.769 224.359 268.325C223.618 268.881 221.951 268.974 221.858 270.178C221.765 271.382 222.599 273.79 222.229 274.902C221.858 276.106 221.302 277.681 219.079 278.237C216.763 278.7 208.148 275.458 204.721 276.477C201.294 277.496 201.201 276.106 197.403 283.609C193.605 291.02 188.788 307.231 189.066 309.917C189.344 312.696 193.883 315.197 196.106 319.18C198.329 323.163 210.835 346.97 210.835 346.97C210.835 346.97 144.139 345.117 142.194 345.303C140.342 345.488 139.323 332.797 141.824 328.073C144.325 323.349 155.441 307.694 156.737 304.452C158.034 301.21 172.763 260.081 172.763 260.081L174.245 257.209C174.245 257.209 170.076 254.338 168.409 250.632C166.742 246.834 167.483 238.497 170.076 238.127C172.763 237.756 174.245 238.312 175.357 239.609C176.468 240.906 176.468 240.906 176.468 240.906C176.468 240.906 182.304 225.622 189.344 218.767C196.477 212.005 210.372 212.468 210.372 212.468Z" fill="#E6D0DC"/>
<path d="M202.777 197.461C194.162 193.015 184.436 190.514 174.895 191.44C165.261 192.367 155.905 197.091 150.347 205.057C147.198 209.596 142.659 215.432 141.269 220.805C139.602 227.474 135.156 253.689 132.099 259.988C120.149 284.536 117.555 293.984 101.437 310.751C89.4878 327.054 76.1488 342.246 61.6055 356.233C78.2793 362.347 95.4163 368.553 113.109 368.183C124.41 367.905 136.73 365.219 146.271 371.24C160.444 346.414 169.893 318.81 174.061 290.557C175.265 282.035 171.097 254.986 168.781 251.837C168.133 250.354 167.484 248.78 167.114 247.205C166.743 245.723 166.651 244.055 166.836 242.573C167.392 240.721 168.596 239.146 170.541 238.59C172.301 238.034 174.246 238.498 176.006 238.775C176.84 238.868 195.922 236.83 202.407 231.272C207.965 226.455 211.67 219.693 213.059 212.468C214.449 204.872 209.076 200.703 202.777 197.461Z" fill="#CA5C45"/>
<path d="M203.236 206.354C185.728 206.539 168.591 216.636 160.069 232.013C155.16 240.813 153.122 250.818 150.528 260.544C140.524 298.894 121.627 336.595 89.3906 359.661" stroke="#31222F" stroke-miterlimit="10"/>
<path d="M199.995 203.019C189.713 195.701 174.706 199.407 165.443 207.929C156.18 216.451 151.27 228.586 146.731 240.35C137.561 263.971 128.575 287.871 115.885 309.732C103.194 331.686 86.335 351.787 64.5664 364.663" stroke="#31222F" stroke-miterlimit="10"/>
<path d="M208.242 212.375C198.701 223.491 181.008 223.676 170.078 233.31C159.332 242.851 157.665 258.691 155.349 272.864C153.682 283.331 151.273 293.614 148.865 303.988C146.734 313.066 144.604 322.33 140.25 330.667C134.136 342.524 124.039 351.787 114.035 360.679" stroke="#31222F" stroke-miterlimit="10"/>
<path d="M176.47 255.079C169.523 255.449 164.15 261.285 164.428 268.233C164.799 275.18 170.635 280.553 177.582 280.275C184.53 279.904 189.902 274.068 189.624 267.121C189.346 260.174 183.418 254.801 176.47 255.079ZM177.489 273.883C172.95 274.068 169.06 270.548 168.782 266.009C168.597 261.47 172.117 257.58 176.656 257.302C181.195 257.117 185.085 260.637 185.363 265.176C185.641 269.807 182.121 273.698 177.489 273.883Z" fill="#31222F"/>
<path d="M174.247 251.929C173.877 253.504 174.062 255.079 174.618 256.561" stroke="#31222F" stroke-width="1.0006" stroke-miterlimit="10" stroke-linecap="round" stroke-linejoin="round"/>
<path d="M200.182 202.927C200.089 201.445 200.46 199.87 201.293 198.573" stroke="#31222F" stroke-width="1.0006" stroke-miterlimit="10" stroke-linecap="round" stroke-linejoin="round"/>
<path d="M203.055 206.632C203.055 204.501 203.981 202.278 205.463 200.796" stroke="#31222F" stroke-width="1.0006" stroke-miterlimit="10" stroke-linecap="round" stroke-linejoin="round"/>
<path d="M208.059 212.653C208.151 211.264 208.151 209.967 208.522 208.577C208.8 207.28 209.448 205.984 210.467 205.057" stroke="#31222F" stroke-width="1.0006" stroke-miterlimit="10" stroke-linecap="round" stroke-linejoin="round"/>
<path d="M21.6714 49.2493C30.9347 41.4682 44.0885 40.6345 56.2233 40.7272C59.5581 40.7272 63.1708 40.9124 65.9497 42.7651C67.3392 43.6914 68.4508 44.9882 69.3771 46.2851C74.7498 53.1399 78.3625 61.2916 80.0299 69.8137C76.973 63.4221 69.8403 59.9947 62.9855 58.4199C56.1307 56.7526 49.0906 56.4747 42.1432 56.1041C33.7137 55.7336 25.1915 55.5483 17.3177 58.9757C17.0398 54.8073 18.3367 52.0283 21.6714 49.2493Z" fill="#262626"/>
<path d="M74.6578 126.042C76.0473 124.004 77.9926 123.263 80.0305 121.688C81.0495 120.947 82.6242 120.576 84.2916 120.391C82.5316 120.391 80.2158 120.576 76.9736 121.039C72.342 121.781 67.2472 120.576 62.8935 118.816C58.5398 117.056 54.6492 113.536 53.8155 108.905C54.0008 110.201 52.9818 111.498 51.685 111.961C50.4808 112.425 49.0913 112.239 47.7944 111.961C45.5712 111.498 42.6996 110.016 40.3838 108.719C40.5691 108.905 40.6617 108.905 40.6617 108.905C40.6617 108.905 38.068 121.966 34.6406 133.36C41.3102 128.913 49.3692 126.69 57.4282 125.949C63.1714 125.486 68.9146 125.578 74.6578 126.042Z" fill="#DBBACD"/>
<path d="M80.5877 171.061C77.5308 161.242 65.6739 148.922 65.6739 148.922C65.6739 148.922 71.7876 132.618 73.2697 128.543C73.6403 127.524 74.1034 126.69 74.5666 126.042C68.8234 125.671 63.0802 125.486 57.337 126.042C49.2779 126.783 41.3116 129.006 34.5494 133.452C33.2525 137.713 31.863 141.696 30.3809 144.753C25.0083 155.869 17.5977 163.836 17.5977 163.836C17.5977 163.836 30.5662 159.297 50.9453 164.021C71.3244 168.745 84.5709 191.347 84.5709 191.347C84.5709 191.347 83.7372 180.88 80.5877 171.061Z" fill="#E6D0DC"/>
<path d="M18.4308 56.0116C14.4477 57.3084 10.4645 58.8832 7.22233 61.5695C1.20123 66.6643 -1.20722 75.0012 -1.85564 82.875C-2.41144 90.7487 -1.57775 98.8077 -2.50407 106.682C-3.70829 116.686 -7.78412 126.597 -6.11673 136.509C-5.46831 140.585 -3.80092 144.383 -1.29985 147.718C-0.55879 148.644 0.274903 149.663 1.20123 150.311C2.96124 151.516 5.09179 151.793 7.1297 152.071C25.193 154.295 43.9048 151.423 60.5786 144.012C57.7996 142.715 54.8354 141.326 53.168 138.732C51.0375 135.583 51.3153 131.507 51.9638 127.894C52.6122 124.189 53.6312 120.484 52.9827 116.778C52.3343 113.073 50.0185 109.924 48.5364 106.496C47.1469 103.069 46.5911 98.7151 48.9995 95.9361C50.2964 94.454 52.2417 93.713 53.7238 92.4161C57.3365 89.4519 58.1702 84.3571 58.0775 79.7255C57.9849 75.0938 57.3365 70.3696 58.8186 65.9232C59.7449 63.2369 61.6902 60.7358 64.2839 59.5316C66.4144 58.5126 68.3597 59.3463 70.3976 58.9758C67.8965 52.8621 55.8543 52.3989 50.6669 52.0284C39.8289 51.38 28.8057 52.6768 18.4308 56.0116Z" fill="#262626"/>
<path d="M95.4072 114.092C95.0366 112.425 92.5356 108.534 92.5356 108.534C92.5356 108.534 93.0914 107.793 93.6472 105.663C94.203 103.532 94.0177 103.532 93.4619 102.791C92.8135 102.05 91.1461 102.328 91.1461 102.328C91.1461 102.328 92.6282 100.938 92.8135 99.7341C92.9987 98.4372 92.6282 96.6772 92.165 96.1214C91.7945 95.5656 90.8682 96.2141 90.6829 95.7509C90.4977 95.3804 90.4977 94.1761 90.4977 94.1761C90.4977 94.1761 92.2577 92.1382 93.5545 90.1003C94.8514 88.0624 94.3882 89.2666 93.9251 87.7845C93.4619 86.395 88.2745 85.2834 86.5145 84.3571C84.7545 83.4308 82.6239 81.0223 81.6049 79.6329C80.6786 78.2434 80.6786 76.9465 80.6786 74.7233C80.6786 72.5002 81.5123 72.037 80.8639 70.6475C75.8617 61.199 66.7838 56.5674 66.7838 56.5674C66.7838 56.5674 59.3732 56.2895 58.3542 67.5906C57.7984 74.1675 57.8911 83.2455 56.4089 88.6182C54.9268 93.9909 52.7036 94.6393 50.7584 95.1025C48.8131 95.5656 48.5352 94.9172 44.9225 93.3424C41.4025 91.7677 38.6235 92.5088 36.3077 94.9172C34.0845 97.3256 34.3624 98.993 35.0109 102.05C35.5666 104.644 39.2719 107.793 40.3835 108.627C42.6993 109.924 45.4783 111.406 47.7941 111.869C49.091 112.147 50.4805 112.332 51.6847 111.869C52.8889 111.406 54.0005 110.202 53.8152 108.812C54.7416 113.444 58.6321 116.964 62.8932 118.724C67.2469 120.484 72.3417 121.688 76.9733 120.947C80.2155 120.391 82.5313 120.206 84.2913 120.298C87.6261 119.835 91.5166 119.928 93.2766 119.187C95.963 118.168 95.6851 115.852 95.4072 114.092Z" fill="#E6D0DC"/>
<path d="M224.638 387.821C226.491 386.153 228.436 385.783 230.845 384.764C231.956 384.301 233.531 384.301 235.291 384.393C233.531 384.023 231.308 383.652 227.973 383.467C223.341 383.189 218.525 380.873 214.727 378.187C210.929 375.501 207.872 371.147 208.057 366.515C207.964 367.812 206.668 368.831 205.371 369.016C204.074 369.202 202.777 368.738 201.573 368.183C199.442 367.256 197.034 365.126 195.089 363.366C195.274 363.551 195.274 363.644 195.274 363.644C195.274 363.644 189.901 375.778 183.973 386.153C191.476 383.282 199.813 382.911 207.779 383.93C213.615 384.764 219.173 386.153 224.638 387.821Z" fill="#AD4F3B"/>
<path d="M220.563 433.118C219.729 422.836 210.929 408.2 210.929 408.2C210.929 408.2 220.563 393.657 222.879 390.044C223.435 389.118 224.083 388.469 224.639 387.913C219.081 386.246 213.523 384.856 207.872 384.115C199.906 383.096 191.569 383.467 184.066 386.339C181.843 390.229 179.62 393.749 177.582 396.435C169.893 406.162 155.535 418.111 155.535 418.111C155.535 418.111 173.228 412.831 192.032 421.909C210.837 430.987 220.1 453.775 220.1 453.775C220.1 453.775 221.397 443.4 220.563 433.118Z" fill="#CA5C45"/>
<path d="M247.518 380.873C247.518 380.132 247.24 378.928 246.87 377.816C246.406 376.427 246.962 374.852 248.166 374.018C248.537 373.741 248.908 373.37 249.185 372.907C250.39 371.054 249.278 370.128 248.63 369.572C247.889 368.924 245.758 368.368 245.758 368.368C245.758 368.368 248.722 366.886 249.371 365.682C250.76 363.088 247.333 363.458 246.87 361.884C246.777 361.42 247.055 360.309 247.055 360.309C247.055 360.309 249.278 358.734 250.945 357.067C253.91 353.917 246.87 351.231 245.387 349.934C243.905 348.637 242.331 345.858 241.682 344.283C241.034 342.709 241.312 341.504 241.867 339.374C242.331 337.243 242.053 335.483 241.682 334.001C238.903 323.719 232.326 318.532 232.326 318.532C232.326 318.532 225.101 316.586 221.674 327.424C219.636 333.723 217.783 342.616 215.189 347.526C212.596 352.435 210.28 352.528 208.242 352.62C206.204 352.62 206.111 351.972 202.962 349.563C199.812 347.155 197.033 347.34 194.254 349.286C191.475 351.138 191.475 352.806 191.383 355.955C191.383 358.641 194.347 362.532 195.181 363.551C197.126 365.311 199.534 367.442 201.665 368.368C202.869 368.924 204.166 369.387 205.463 369.202C206.76 369.016 208.057 368.09 208.149 366.7C208.057 371.332 211.021 375.686 214.819 378.372C218.617 381.058 223.434 383.374 228.065 383.652C231.307 383.837 233.623 384.208 235.383 384.579C238.718 384.856 242.516 385.783 244.369 385.505C247.148 384.856 247.518 382.541 247.518 380.873Z" fill="#CA5C45"/>
<path d="M241.032 300.098C243.348 300.931 245.479 302.043 247.331 303.71C249.184 305.378 250.388 307.601 250.573 310.009C250.759 312.418 249.74 314.734 248.35 316.586C247.053 318.346 245.479 319.921 243.441 320.662C241.403 321.496 239.087 321.496 237.142 320.477C239.18 322.515 239.18 325.294 237.698 327.795C236.215 330.296 233.066 331.593 230.287 330.759C233.344 330.389 235.289 334.186 234.826 337.243C234.177 341.319 230.565 344.747 226.489 345.024C222.413 345.395 218.245 342.709 216.855 338.818C218.43 342.801 220.005 347.062 219.171 351.231C218.337 355.399 214.169 359.29 210.093 358.086C212.409 355.862 216.855 357.622 217.874 360.772C218.986 363.829 217.596 367.256 215.558 369.85C213.891 371.981 211.668 373.833 208.981 374.389C206.295 374.945 203.238 373.926 201.941 371.517C204.072 372.629 204.813 375.408 204.165 377.724C203.516 380.04 201.849 381.892 199.996 383.374C196.198 386.616 190.826 389.025 186.194 387.08C185.082 391.063 180.265 393.286 176.19 393.471C172.299 393.657 168.131 392.638 165.259 389.951C162.387 387.265 161.091 382.726 162.758 379.206C161.646 381.8 158.312 382.911 155.533 382.17C152.754 381.522 150.53 379.484 148.678 377.353C146.084 374.389 143.861 370.962 143.583 367.071C143.305 363.18 145.528 358.919 149.234 357.9C145.621 356.974 142.379 354.102 141.638 350.49C140.897 346.877 142.379 342.894 145.343 340.671C146.918 339.467 149.326 338.911 150.716 340.3C146.362 340.485 142.194 337.521 140.711 333.445C139.229 329.37 140.526 324.553 143.583 321.496C145.714 319.458 149.511 318.439 151.364 320.662C148.215 320.755 145.621 317.605 145.621 314.456C145.714 311.306 147.844 308.435 150.623 306.953C153.68 305.285 158.034 305.193 160.257 307.879C156.644 304.266 157.756 297.597 161.646 294.262C165.537 290.927 172.206 291.761 175.263 295.929C173.318 293.521 174.522 289.816 176.745 287.778C181.562 283.146 190.64 284.258 194.16 290.001C192.678 287.963 193.327 284.906 195.087 283.053C196.847 281.201 199.533 280.552 202.034 280.46C204.628 280.46 207.407 281.108 209.352 282.868C211.297 284.628 212.409 287.407 211.575 289.908C213.243 286.481 216.577 283.887 220.375 283.331C224.173 282.776 228.249 284.536 230.102 287.87C232.047 291.112 231.399 295.744 228.527 298.245C230.009 295.559 233.066 293.891 236.123 294.355C239.365 294.725 241.959 297.226 241.032 300.098Z" fill="#2A1A40"/>
<path d="M171.737 378.928C171.737 378.928 168.773 376.335 167.106 374.019C165.438 371.703 164.975 370.777 164.512 368.831C163.956 366.886 164.512 366.701 164.79 364.2C165.068 361.699 164.512 359.939 163.215 354.566C161.918 349.286 156.638 341.69 156.638 341.69C156.638 341.69 108.562 337.522 99.5767 355.863C90.5913 374.111 103.56 390.97 103.56 390.97C103.56 390.97 104.579 395.695 104.764 401.716C104.949 407.737 101.8 411.905 97.724 417.371C93.6482 422.836 86.9787 431.451 81.5133 446.735C76.048 462.02 78.7344 479.805 78.7344 479.805L159.232 479.99L152.192 464.891C152.192 464.891 126.996 433.489 127.181 428.764C127.366 424.04 129.96 419.501 133.665 413.388C137.371 407.274 140.705 406.44 142.188 405.514C143.67 404.587 145.708 404.865 149.506 405.143C153.396 405.421 160.066 406.44 161.64 405.792C163.215 405.143 164.697 402.086 164.697 400.604C164.605 399.215 163.771 397.269 163.956 396.806C164.141 396.436 164.79 396.528 165.068 396.528C163.771 394.676 161.085 392.267 159.973 391.804C161.918 390.97 166.179 388.747 167.569 386.895C167.291 386.524 166.92 385.968 167.013 385.32C167.106 384.208 167.661 384.579 169.236 383.467C170.811 382.356 171.459 382.17 171.737 380.781C172.015 379.484 171.737 378.928 171.737 378.928Z" fill="#D99083"/>
<path d="M160.074 392.082C161.093 392.452 163.872 394.861 165.169 396.806H165.262C165.354 396.806 165.91 396.714 166.558 395.787C167.207 394.768 166.836 393.842 166.466 393.193C166.095 392.545 164.798 391.619 164.798 391.619L166.651 391.063C166.651 391.063 167.485 390.6 167.855 389.488C168.226 388.377 167.948 387.636 167.948 387.636C167.948 387.636 167.763 387.543 167.577 387.265C166.281 389.025 162.019 391.156 160.074 392.082Z" fill="#31222F"/>
<path d="M167.945 382.17C168.315 381.8 168.778 381.337 169.334 381.244C169.612 381.244 169.89 381.337 169.89 381.615C169.89 381.707 169.797 381.892 169.705 381.985C169.242 382.356 168.686 382.634 168.037 382.819C167.482 383.004 166.833 383.282 166.277 383.467C166.741 383.004 167.482 382.634 167.945 382.17Z" fill="#31222F"/>
<path d="M163.87 360.124C164.241 360.309 164.519 360.587 164.519 361.05C164.519 361.421 164.519 361.884 164.334 362.254C164.056 362.718 163.5 362.903 162.944 362.718L159.331 361.235C159.053 361.143 158.776 361.143 158.498 361.235L152.477 363.366C152.477 363.366 158.035 359.846 158.868 359.568C160.258 358.827 162.666 359.661 163.87 360.124Z" fill="#31222F"/>
<path d="M146.358 327.332C138.021 323.719 118.661 317.976 101.709 325.757C95.9658 328.351 92.5384 330.945 90.4078 332.983C89.2963 332.149 87.9068 331.501 86.6099 331.037C85.591 330.759 84.572 331.13 84.1088 332.056C83.9236 332.334 83.831 332.612 83.6457 332.983C81.793 331.593 79.292 330.482 75.6793 330.389C66.694 330.204 55.7633 333.168 52.058 345.303C48.3527 357.438 58.6349 395.417 30.0115 416.908C28.3441 418.204 24.4536 419.594 25.9357 421.725C27.1399 423.485 33.8095 424.411 35.8474 424.874C42.6095 426.449 49.6496 427.097 56.597 426.634C60.0244 426.449 67.0645 424.874 67.0645 424.874C68.6392 424.411 70.1214 423.762 71.5108 423.021C76.0498 420.613 79.9404 416.444 81.052 411.35C81.4225 409.868 81.3299 394.213 77.532 377.168C73.5488 359.383 72.993 351.139 75.3088 347.526C76.2351 346.044 79.7551 346.136 79.8478 346.322C79.9404 346.6 79.5699 347.526 80.033 348.174C80.4962 348.73 83.1825 349.008 84.7573 349.379C84.4794 352.528 84.2015 357.252 84.3867 362.532C84.6646 371.888 87.2583 385.135 93.7426 390.785C100.227 396.436 106.155 395.324 106.155 395.324C106.155 395.324 116.901 393.379 117.456 381.152C118.012 369.017 118.012 367.905 121.44 365.311C124.867 362.81 131.351 365.867 135.335 364.756C139.318 363.644 143.208 358.549 145.802 352.899C147.377 349.379 149.229 346.6 150.526 344.932C151.267 343.913 152.472 343.358 153.676 343.45L158.678 344.562C158.678 344.376 159.882 333.261 146.358 327.332Z" fill="#E6D0DC"/>
<path d="M88.1797 346.414C89.2913 357.901 92.9966 369.387 100.407 378.28C102.908 381.337 105.965 384.023 109.67 385.413" stroke="white" stroke-miterlimit="10"/>
<path d="M91.2383 335.576C101.243 330.389 112.081 326.035 123.289 325.757C134.59 325.479 146.447 329.741 153.117 338.819" stroke="white" stroke-miterlimit="10"/>
<path d="M144.131 352.899C124.863 356.604 104.114 351.324 88.9219 339.004C99.1114 336.595 112.728 333.631 123.103 333.353C133.571 333.075 144.316 335.021 153.023 340.764" stroke="white" stroke-miterlimit="10"/>
<path d="M80.4005 335.02C75.2131 334.372 69.4699 333.816 65.1162 336.781C62.0593 338.818 60.114 342.246 59.2803 345.858C58.4466 349.471 58.4466 353.176 58.6319 356.789C59.095 369.758 60.3919 383.097 55.9455 395.324C52.4255 404.958 45.2928 413.295 36.2148 418.297" stroke="white" stroke-miterlimit="10"/>
<path d="M80.9607 338.448C74.7544 339.93 69.7522 345.303 68.6406 351.509C67.6217 357.438 69.8448 363.366 71.6975 369.017C74.6617 378.372 75.7733 389.118 75.8659 398.937C75.9586 408.293 69.9375 425.059 34.6445 423.855" stroke="white" stroke-miterlimit="10"/>
<path d="M77.165 337.522C69.4765 337.892 63.826 345.395 62.6217 352.991C61.3249 360.587 63.3628 368.183 64.567 375.779C65.6786 382.634 66.327 389.766 65.3081 396.621C64.2891 403.569 61.6954 410.331 57.0638 415.518C51.8764 421.261 44.0953 423.207 34.1836 423.021" stroke="white" stroke-miterlimit="10"/>
<path d="M116.441 377.076C110.976 375.501 106.066 372.074 102.268 367.905C98.4703 363.644 95.5061 358.642 93.0977 353.547" stroke="white" stroke-miterlimit="10"/>
<path d="M108.383 393.101C104.307 392.36 101.065 389.21 98.6567 385.876C93.3766 378.465 90.7829 369.48 89.3008 360.402" stroke="white" stroke-miterlimit="10"/>
<path d="M148.765 346.877C142.836 344.099 136.259 343.172 129.775 342.246C119.308 340.764 108.748 339.374 98.1875 339.652" stroke="white" stroke-miterlimit="10"/>
<path d="M93.4648 346.878C96.9849 350.768 100.598 354.474 104.859 357.53C109.12 360.587 114.029 362.81 119.217 363.366C120.05 363.459 121.069 363.644 121.255 364.478" stroke="white" stroke-miterlimit="10"/>
</g>
<defs>
<filter id="filter0_i_1267_847" x="0.0664062" y="0.10022" width="352.93" height="416.9" filterUnits="userSpaceOnUse" color-interpolation-filters="sRGB">
<feFlood flood-opacity="0" result="BackgroundImageFix"/>
<feBlend mode="normal" in="SourceGraphic" in2="BackgroundImageFix" result="shape"/>
<feColorMatrix in="SourceAlpha" type="matrix" values="0 0 0 0 0 0 0 0 0 0 0 0 0 0 0 0 0 0 127 0" result="hardAlpha"/>
<feOffset/>
<feGaussianBlur stdDeviation="6.5"/>
<feComposite in2="hardAlpha" operator="arithmetic" k2="-1" k3="1"/>
<feColorMatrix type="matrix" values="0 0 0 0 0 0 0 0 0 0 0 0 0 0 0 0 0 0 0.35 0"/>
<feBlend mode="normal" in2="shape" result="effect1_innerShadow_1267_847"/>
</filter>
</defs>
</svg>
