<svg
	xmlns="http://www.w3.org/2000/svg"
	width="30"
	height="31"
	viewBox="0 0 30 31"
	fill="none"
>
	<path
		d="M15 30.5C23.2843 30.5 30 23.7843 30 15.5C30 7.21573 23.2843 0.5 15 0.5C6.71573 0.5 0 7.21573 0 15.5C0 23.7843 6.71573 30.5 15 30.5Z"
		fill="#DFE6EF"
	/>
	<path
		fill-rule="evenodd"
		clip-rule="evenodd"
		d="M24 12.0593C24 10.6435 22.799 9.5 21.3122 9.5H8.68785C7.20095 9.5 6 10.6503 6 12.0593V18.9339C6 20.3497 7.20095 21.5 8.68785 21.5H21.305C22.7919 21.5 23.9929 20.3497 23.9929 18.9339V12.0593H24ZM13.1986 18.3962V11.9436L18.3384 15.1699L13.1986 18.3962Z"
		fill="#1F2430"
	/>
</svg>