<?xml version="1.0" standalone="no"?>
<!DOCTYPE svg PUBLIC "-//W3C//DTD SVG 20010904//EN"
 "http://www.w3.org/TR/2001/REC-SVG-20010904/DTD/svg10.dtd">
<svg version="1.0" xmlns="http://www.w3.org/2000/svg"
 width="512.000000pt" height="512.000000pt" viewBox="0 0 512.000000 512.000000"
 preserveAspectRatio="xMidYMid meet">
<metadata>
Created by potrace 1.14, written by Peter Selinger 2001-2017
</metadata>
<g transform="translate(0.000000,512.000000) scale(0.100000,-0.100000)"
fill="#000000" stroke="none">
<path d="M32 3905 l-23 -20 23 -45 c13 -25 25 -47 28 -50 3 -3 12 -18 20 -35
8 -16 24 -46 36 -65 11 -19 42 -75 69 -125 27 -49 57 -106 68 -125 11 -19 116
-210 235 -425 118 -214 227 -412 242 -440 15 -27 38 -68 50 -90 12 -22 32 -58
44 -80 12 -22 125 -227 251 -455 126 -228 240 -433 253 -455 82 -131 252 -249
419 -292 15 -3 311 -8 658 -9 691 -3 678 -4 707 56 13 28 17 85 6 95 -2 2 -34
6 -73 8 -217 17 -380 71 -550 185 -87 58 -237 207 -290 286 -31 48 -242 423
-447 796 -20 36 -88 159 -152 273 -64 115 -116 210 -116 211 0 2 -22 41 -48
87 -48 83 -87 153 -144 259 -44 80 -110 193 -122 208 -74 90 -160 159 -247
200 -125 60 -169 65 -539 66 -322 1 -335 1 -358 -19z"/>
<path d="M2003 3904 c-16 -25 -10 -42 50 -149 18 -33 51 -91 72 -130 20 -38
48 -88 60 -110 44 -78 63 -112 105 -190 23 -44 46 -84 50 -90 4 -5 27 -46 50
-90 39 -71 160 -293 228 -415 65 -118 525 -952 590 -1070 104 -191 155 -259
244 -327 75 -58 163 -100 260 -122 77 -18 126 -20 694 -20 585 0 611 1 642 19
17 11 38 36 47 55 27 65 13 80 -85 89 -290 26 -504 123 -699 315 -84 82 -149
169 -203 271 -46 84 -86 157 -108 195 -10 17 -31 55 -48 85 -16 30 -107 195
-202 365 -95 171 -188 339 -208 375 -19 36 -54 99 -77 140 -23 41 -56 100 -73
130 -225 412 -231 421 -318 507 -54 53 -95 83 -156 112 -145 71 -169 74 -557
75 -342 1 -344 1 -358 -20z"/>
<path d="M3762 3917 c-25 -11 -44 -48 -44 -82 0 -33 1 -35 48 -40 89 -9 180
-60 263 -145 51 -52 156 -209 172 -257 40 -122 113 -227 197 -285 78 -54 163
-77 267 -73 99 3 154 20 227 66 91 59 172 172 193 269 4 19 12 41 17 48 7 8 7
12 -1 12 -7 0 -9 5 -6 10 13 21 16 62 4 55 -8 -6 -8 -2 0 14 7 11 8 21 3 21
-5 0 -12 19 -15 41 -8 59 -59 156 -110 210 -53 56 -113 95 -187 122 -52 19
-81 20 -532 21 -262 1 -486 -3 -496 -7z"/>
</g>
</svg>
