<svg xmlns="http://www.w3.org/2000/svg" width="172" height="105" viewBox="0 0 172 105" fill="none">
    <path d="M131.922 98.2877C130.532 93.3858 124.168 93.8671 124.168 93.8671L124.328 97.2717C128.018 96.63 130.3 100.944 130.3 100.944L131.922 98.2877Z" fill="#FF725E"/>
    <path d="M23.5635 101.833C22.1909 96.9307 15.8096 97.3941 15.8096 97.3941L15.9878 100.817C19.6776 100.175 21.9592 104.489 21.9592 104.489L23.5635 101.833Z" fill="#E0E0E0"/>
    <path d="M71.1912 40.766C78.5887 43.012 83.1875 34.4916 83.1875 34.4916L78.6956 31.9248C76.4853 37.1476 69.1057 36.5415 69.1057 36.5415L71.1912 40.766Z" fill="#E0E0E0"/>
    <path d="M30.1766 49.946C26.7363 50.3204 26.3263 54.634 26.3263 54.634L28.6258 54.9014C28.6258 52.3703 31.7808 51.3364 31.7808 51.3364L30.1766 49.946Z" fill="#FF725E"/>
    <path d="M171.958 81.5322C172.457 78.1097 168.393 76.6302 168.393 76.6302L167.555 78.7871C170.015 79.411 170.246 82.7264 170.246 82.7264L171.958 81.5322Z" fill="#E0E0E0"/>
    <path d="M50.2475 4.90191C50.7466 1.47949 46.6825 0 46.6825 0L45.8447 2.17467C48.3046 2.79855 48.5363 6.09619 48.5363 6.09619L50.2475 4.90191Z" fill="#FF725E"/>
    <path d="M0.036731 69.9078C-0.569323 75.2553 6.52507 76.5744 6.52507 76.5744L7.80848 73.0093C3.54828 72.6172 2.94221 67.6618 2.94221 67.6618L0.036731 69.9078Z" fill="#FF725E"/>
    <path d="M123.473 40.6591C126.931 40.8552 128.036 36.6663 128.036 36.6663L125.808 36.0246C125.398 38.5201 122.118 39.037 122.118 39.037L123.473 40.6591Z" fill="#FF725E"/>
    <path d="M142.348 54.741C141.421 55.0009 140.455 55.0914 139.496 55.0083C138.537 55.0934 137.571 55.0028 136.644 54.741C138.527 54.3607 140.466 54.3607 142.348 54.741Z" fill="#2aa0d1"/>
    <path d="M145.379 46.9871C145.735 48.8957 145.735 50.8538 145.379 52.7624C144.999 50.8561 144.999 48.8934 145.379 46.9871Z" fill="#2aa0d1"/>
    <path d="M148.588 54.5448C149.515 54.2849 150.481 54.1943 151.44 54.2774C152.399 54.1923 153.365 54.283 154.292 54.5448C152.409 54.9251 150.47 54.9251 148.588 54.5448Z" fill="#2aa0d1"/>
    <path d="M145.576 62.3167C145.196 60.4043 145.196 58.4358 145.576 56.5235C145.932 58.4381 145.932 60.4021 145.576 62.3167Z" fill="#2aa0d1"/>
    <path d="M150.175 59.0724C150.068 59.1616 149.515 58.6981 148.945 58.0386C148.374 57.3791 148.036 56.7373 148.143 56.6482C148.25 56.5591 148.82 57.0047 149.373 57.6821C149.925 58.3594 150.299 58.8764 150.175 59.0724Z" fill="#2aa0d1"/>
    <path d="M149.907 50.1599C150.014 50.2847 149.639 50.8373 149.051 51.4255C148.463 52.0137 147.91 52.4059 147.803 52.2989C147.696 52.192 148.071 51.6216 148.659 51.0334C149.247 50.4451 149.8 50.1599 149.907 50.1599Z" fill="#2aa0d1"/>
    <path d="M143.383 52.4237C143.276 52.5485 142.742 52.2633 142.189 51.7998C141.636 51.3364 141.28 50.8729 141.369 50.766C141.458 50.659 141.993 50.9264 142.546 51.372C143.098 51.8176 143.472 52.3168 143.383 52.4237Z" fill="#2aa0d1"/>
    <path d="M143.115 56.3096C143.24 56.3987 142.901 56.9513 142.367 57.5395C141.832 58.1278 141.315 58.5021 141.208 58.3951C141.101 58.2882 141.422 57.7356 141.957 57.1652C142.491 56.5948 143.008 56.2026 143.115 56.3096Z" fill="#2aa0d1"/>
    <path d="M7.60107 24.1951C5.71873 24.5754 3.77937 24.5754 1.89703 24.1951C2.82389 23.9352 3.79002 23.8447 4.74904 23.9278C5.70806 23.8427 6.67457 23.9333 7.60107 24.1951Z" fill="#FF725E"/>
    <path d="M10.6308 16.4412C11.0111 18.3535 11.0111 20.3221 10.6308 22.2344C10.2504 20.3221 10.2504 18.3535 10.6308 16.4412Z" fill="#FF725E"/>
    <path d="M13.8572 24.0169C15.7396 23.6366 17.6789 23.6366 19.5613 24.0169C17.6789 24.3972 15.7396 24.3972 13.8572 24.0169Z" fill="#FF725E"/>
    <path d="M10.8263 31.7709C10.446 29.8645 10.446 27.9019 10.8263 25.9955C11.2066 27.9019 11.2066 29.8645 10.8263 31.7709Z" fill="#FF725E"/>
    <path d="M15.4438 28.3841C15.3191 28.491 14.7665 28.0276 14.2139 27.3502C13.6613 26.6729 13.287 26.0668 13.4118 25.9599C13.5366 25.8529 14.0713 26.3342 14.6417 26.9937C15.2121 27.6532 15.5508 28.3841 15.4438 28.3841Z" fill="#FF725E"/>
    <path d="M15.1761 19.6497C15.283 19.7567 14.8909 20.3271 14.3205 20.9153C13.7501 21.5035 13.1796 21.8779 13.0727 21.7709C12.9657 21.664 13.3401 21.1114 13.9283 20.5232C14.5165 19.9349 15.0691 19.4715 15.1761 19.6497Z" fill="#FF725E"/>
    <path d="M8.63362 21.8957C8.5445 22.0027 8.00974 21.7353 7.45716 21.2718C6.90458 20.8084 6.53024 20.3449 6.63719 20.2202C6.74414 20.0954 7.26108 20.3806 7.81366 20.844C8.36623 21.3075 8.74057 21.7709 8.63362 21.8957Z" fill="#FF725E"/>
    <path d="M8.38473 25.7638C8.49168 25.8707 8.153 26.4233 7.63608 27.0115C7.11915 27.5998 6.58439 27.9741 6.45961 27.8672C6.33484 27.7602 6.69133 27.2076 7.20826 26.6372C7.72519 26.0668 8.25995 25.6568 8.38473 25.7638Z" fill="#FF725E"/>
  </svg>