<svg xmlns="http://www.w3.org/2000/svg" width="82" height="82" viewBox="0 0 82 82" fill="none">
    <path d="M41 82C63.6436 82 82 63.6437 82 41C82 18.3563 63.6436 0 41 0C18.3563 0 0 18.3563 0 41C0 63.6437 18.3563 82 41 82Z" fill="#FF5300"/>
    <path d="M59.9751 25.0137C60.497 25.4453 52.7634 35.9635 42.7051 48.4959L36.6005 55.977L35.7623 57L34.8767 56.0729C26.9691 47.8725 21.6395 41.7981 22.019 41.4145C22.3986 41.0308 28.4241 46.4498 36.5214 54.3944L34.8134 54.5702L40.7915 47.0093C50.8498 34.397 59.4374 24.5821 59.9751 25.0137Z" fill="white"/>
  </svg>