<svg width="17" height="15" viewBox="0 0 17 15" fill="none" xmlns="http://www.w3.org/2000/svg">
<g id="Layer_1" clip-path="url(#clip0_3267_7139)">
<path id="Vector" d="M7.08853 15.0005C7.034 14.9619 6.91486 14.905 6.83121 14.8164C5.68276 13.5943 4.53856 12.3676 3.39382 11.142C2.39205 10.0691 1.39133 8.99577 0.390086 7.92292C0.30537 7.83165 0.219064 7.74194 0.135936 7.64911C-0.0202604 7.47491 -0.0414395 7.30592 0.0702807 7.15624C0.183589 7.00498 0.354611 6.96847 0.564285 7.06444C1.21025 7.3586 1.85463 7.65641 2.499 7.9537C3.86506 8.58374 5.23324 9.21117 6.59559 9.84956C6.77243 9.93249 6.87198 9.90641 7.00223 9.77237C10.0346 6.64146 13.0711 3.51524 16.1066 0.387981C16.2025 0.289407 16.2951 0.18666 16.3978 0.0953875C16.5387 -0.0292648 16.7282 -0.0297863 16.868 0.0823486C16.9999 0.187703 17.038 0.363468 16.9586 0.523065C16.93 0.580958 16.8913 0.634678 16.8553 0.68892C13.7642 5.35425 10.6731 10.0196 7.58148 14.6849C7.47929 14.8388 7.38028 14.9958 7.088 14.9999L7.08853 15.0005Z" fill="#F06421"/>
</g>
<defs>
<clipPath id="clip0_3267_7139">
<rect width="17" height="15" fill="white"/>
</clipPath>
</defs>
</svg>
