<svg width="11" height="15" viewBox="0 0 11 15" fill="none" xmlns="http://www.w3.org/2000/svg">
<path id="Vector" d="M9.35 7.83092C9.78761 7.83092 10.2073 8.00332 10.5167 8.31018C10.8262 8.61705 11 9.03325 11 9.46723V10.0127C11 12.1628 8.954 14.3762 5.5 14.3762C2.046 14.3762 0 12.1628 0 10.0127V9.46723C0 9.03325 0.173839 8.61705 0.483274 8.31018C0.792709 8.00332 1.21239 7.83092 1.65 7.83092H9.35ZM5.5 0.740234C6.30228 0.740234 7.0717 1.0563 7.639 1.61889C8.2063 2.18148 8.525 2.94452 8.525 3.74014C8.525 4.53576 8.2063 5.2988 7.639 5.86139C7.0717 6.42398 6.30228 6.74005 5.5 6.74005C4.69772 6.74005 3.9283 6.42398 3.361 5.86139C2.7937 5.2988 2.475 4.53576 2.475 3.74014C2.475 2.94452 2.7937 2.18148 3.361 1.61889C3.9283 1.0563 4.69772 0.740234 5.5 0.740234Z" fill="black"/>
</svg>
