<svg width="11" height="14" viewBox="0 0 11 14" fill="none" xmlns="http://www.w3.org/2000/svg">
<path d="M9.35 7.28C9.78761 7.28 10.2073 7.457 10.5167 7.77206C10.8262 8.08712 11 8.51444 11 8.96V9.52C11 11.7275 8.954 14 5.5 14C2.046 14 0 11.7275 0 9.52V8.96C0 8.51444 0.173839 8.08712 0.483274 7.77206C0.792709 7.457 1.21239 7.28 1.65 7.28H9.35ZM5.5 0C6.30228 0 7.0717 0.324499 7.639 0.902111C8.2063 1.47972 8.525 2.26313 8.525 3.08C8.525 3.89687 8.2063 4.68028 7.639 5.25789C7.0717 5.8355 6.30228 6.16 5.5 6.16C4.69772 6.16 3.9283 5.8355 3.361 5.25789C2.7937 4.68028 2.475 3.89687 2.475 3.08C2.475 2.26313 2.7937 1.47972 3.361 0.902111C3.9283 0.324499 4.69772 0 5.5 0Z" fill="#E5A100"/>
</svg>
