<svg width="15" height="14" viewBox="0 0 15 14" fill="none" xmlns="http://www.w3.org/2000/svg">
<path id="Vector" d="M7.5 0.713867C7.21888 0.713867 6.94051 0.768419 6.68078 0.874409C6.42106 0.980399 6.18507 1.13575 5.98629 1.33159C5.7875 1.52744 5.62982 1.75994 5.52224 2.01582C5.41466 2.2717 5.35929 2.54596 5.35929 2.82292C5.35929 3.09989 5.41466 3.37414 5.52224 3.63002C5.62982 3.8859 5.7875 4.1184 5.98629 4.31425C6.18507 4.51009 6.42106 4.66544 6.68078 4.77143C6.94051 4.87742 7.21888 4.93198 7.5 4.93198C8.06775 4.93198 8.61225 4.70977 9.01371 4.31425C9.41517 3.91872 9.64071 3.38228 9.64071 2.82292C9.64071 2.26357 9.41517 1.72712 9.01371 1.33159C8.61225 0.93607 8.06775 0.713867 7.5 0.713867ZM12.3214 1.76734C11.8952 1.76734 11.4864 1.93416 11.185 2.2311C10.8836 2.52804 10.7143 2.93078 10.7143 3.35071C10.7143 3.77065 10.8836 4.17339 11.185 4.47033C11.4864 4.76727 11.8952 4.93409 12.3214 4.93409C12.7477 4.93409 13.1565 4.76727 13.4578 4.47033C13.7592 4.17339 13.9286 3.77065 13.9286 3.35071C13.9286 2.93078 13.7592 2.52804 13.4578 2.2311C13.1565 1.93416 12.7477 1.76734 12.3214 1.76734ZM2.67857 1.76734C2.25233 1.76734 1.84355 1.93416 1.54215 2.2311C1.24075 2.52804 1.07143 2.93078 1.07143 3.35071C1.07143 3.77065 1.24075 4.17339 1.54215 4.47033C1.84355 4.76727 2.25233 4.93409 2.67857 4.93409C3.10481 4.93409 3.5136 4.76727 3.81499 4.47033C4.11639 4.17339 4.28571 3.77065 4.28571 3.35071C4.28571 2.93078 4.11639 2.52804 3.81499 2.2311C3.5136 1.93416 3.10481 1.76734 2.67857 1.76734ZM4.28571 7.03786C4.28769 6.75919 4.40145 6.49259 4.60217 6.29623C4.80289 6.09986 5.07428 5.98966 5.35714 5.98967H9.64286C9.92702 5.98967 10.1995 6.10088 10.4005 6.29884C10.6014 6.4968 10.7143 6.76529 10.7143 7.04525V10.212C10.7142 10.5442 10.6614 10.8744 10.5579 11.1905C10.3206 11.907 9.8319 12.5166 9.17948 12.91C8.52706 13.3033 7.75366 13.4547 6.99817 13.3368C6.24268 13.2189 5.55459 12.8396 5.05744 12.2669C4.5603 11.6942 4.28668 10.9656 4.28571 10.212V7.03786ZM3.21429 7.04525C3.21429 6.65996 3.31821 6.30001 3.50143 5.98967H1.07143C0.787268 5.98967 0.514746 6.10088 0.313814 6.29884C0.112882 6.4968 1.483e-07 6.76529 1.483e-07 7.04525V9.68421C-0.000145765 10.1163 0.107385 10.5417 0.313149 10.9233C0.518914 11.3048 0.816618 11.6308 1.18012 11.8725C1.54362 12.1142 1.96179 12.2642 2.39792 12.3095C2.83405 12.3548 3.27478 12.2939 3.68143 12.1321C3.37305 11.5374 3.21291 10.8788 3.21429 10.2109V7.04525ZM11.7857 7.04525V10.212C11.7857 10.9034 11.6175 11.5558 11.3186 12.1321C11.7252 12.2939 12.166 12.3548 12.6021 12.3095C13.0382 12.2642 13.4564 12.1142 13.8199 11.8725C14.1834 11.6308 14.4811 11.3048 14.6869 10.9233C14.8926 10.5417 15.0001 10.1163 15 9.68421V7.04525C15 6.76529 14.8871 6.4968 14.6862 6.29884C14.4853 6.10088 14.2127 5.98967 13.9286 5.98967H11.4986C11.6807 6.30001 11.7857 6.65996 11.7857 7.04525Z" fill="#391498"/>
</svg>
