<svg width="15" height="13" viewBox="0 0 15 13" fill="none" xmlns="http://www.w3.org/2000/svg">
<path d="M7.5 0C7.21888 -4.23729e-09 6.94051 0.0560087 6.68078 0.164828C6.42106 0.273648 6.18507 0.433148 5.98629 0.63422C5.7875 0.835293 5.62982 1.074 5.52224 1.33671C5.41466 1.59943 5.35929 1.881 5.35929 2.16536C5.35929 2.44972 5.41466 2.7313 5.52224 2.99401C5.62982 3.25673 5.7875 3.49543 5.98629 3.69651C6.18507 3.89758 6.42106 4.05708 6.68078 4.1659C6.94051 4.27472 7.21888 4.33073 7.5 4.33073C8.06775 4.33073 8.61225 4.10259 9.01371 3.69651C9.41517 3.29042 9.64071 2.73965 9.64071 2.16536C9.64071 1.59107 9.41517 1.0403 9.01371 0.63422C8.61225 0.228136 8.06775 0 7.5 0ZM12.3214 1.0816C11.8952 1.0816 11.4864 1.25287 11.185 1.55774C10.8836 1.86261 10.7143 2.2761 10.7143 2.70725C10.7143 3.1384 10.8836 3.55189 11.185 3.85675C11.4864 4.16162 11.8952 4.3329 12.3214 4.3329C12.7477 4.3329 13.1565 4.16162 13.4578 3.85675C13.7592 3.55189 13.9286 3.1384 13.9286 2.70725C13.9286 2.2761 13.7592 1.86261 13.4578 1.55774C13.1565 1.25287 12.7477 1.0816 12.3214 1.0816ZM2.67857 1.0816C2.25233 1.0816 1.84355 1.25287 1.54215 1.55774C1.24075 1.86261 1.07143 2.2761 1.07143 2.70725C1.07143 3.1384 1.24075 3.55189 1.54215 3.85675C1.84355 4.16162 2.25233 4.3329 2.67857 4.3329C3.10481 4.3329 3.5136 4.16162 3.81499 3.85675C4.11639 3.55189 4.28571 3.1384 4.28571 2.70725C4.28571 2.2761 4.11639 1.86261 3.81499 1.55774C3.5136 1.25287 3.10481 1.0816 2.67857 1.0816ZM4.28571 6.49284C4.28769 6.20672 4.40145 5.93301 4.60217 5.7314C4.80289 5.52979 5.07428 5.41665 5.35714 5.41666H9.64286C9.92702 5.41666 10.1995 5.53084 10.4005 5.73409C10.6014 5.93733 10.7143 6.21299 10.7143 6.50043V9.75172C10.7142 10.0928 10.6614 10.4318 10.5579 10.7564C10.3206 11.4919 9.8319 12.1178 9.17948 12.5217C8.52706 12.9256 7.75366 13.081 6.99817 12.96C6.24268 12.839 5.55459 12.4495 5.05744 11.8615C4.5603 11.2735 4.28668 10.5254 4.28571 9.75172V6.49284ZM3.21429 6.50043C3.21429 6.10485 3.31821 5.73529 3.50143 5.41666H1.07143C0.787268 5.41666 0.514746 5.53084 0.313814 5.73409C0.112882 5.93733 1.483e-07 6.21299 1.483e-07 6.50043V9.20984C-0.000145765 9.65343 0.107385 10.0903 0.313149 10.482C0.518914 10.8737 0.816618 11.2084 1.18012 11.4565C1.54362 11.7047 1.96179 11.8588 2.39792 11.9052C2.83405 11.9517 3.27478 11.8892 3.68143 11.7231C3.37305 11.1125 3.21291 10.4363 3.21429 9.75064V6.50043ZM11.7857 6.50043V9.75172C11.7857 10.4616 11.6175 11.1314 11.3186 11.7231C11.7252 11.8892 12.166 11.9517 12.6021 11.9052C13.0382 11.8588 13.4564 11.7047 13.8199 11.4565C14.1834 11.2084 14.4811 10.8737 14.6869 10.482C14.8926 10.0903 15.0001 9.65343 15 9.20984V6.50043C15 6.21299 14.8871 5.93733 14.6862 5.73409C14.4853 5.53084 14.2127 5.41666 13.9286 5.41666H11.4986C11.6807 5.73529 11.7857 6.10485 11.7857 6.50043Z" fill="#060606"/>
</svg>
